solid OpenSCAD_Model
  facet normal 0 0 -1
    outer loop
      vertex 50.9271 -18.8532 0
      vertex 53 -16 0
      vertex 52.4271 -17.7634 0
    endloop
  endfacet
  facet normal -0 0 -1
    outer loop
      vertex 53 -16 0
      vertex 50.9271 -18.8532 0
      vertex 53 16 0
    endloop
  endfacet
  facet normal 0 0 -1
    outer loop
      vertex 50.9271 18.8532 0
      vertex 53 16 0
      vertex 50.9271 -18.8532 0
    endloop
  endfacet
  facet normal 0 0 -1
    outer loop
      vertex 53 16 0
      vertex 50.9271 18.8532 0
      vertex 52.4271 17.7634 0
    endloop
  endfacet
  facet normal 0 0 -1
    outer loop
      vertex -50.9271 -18.8532 0
      vertex 50.9271 18.8532 0
      vertex 50.9271 -18.8532 0
    endloop
  endfacet
  facet normal 0 0 -1
    outer loop
      vertex -50.9271 -18.8532 0
      vertex -50.9271 18.8532 0
      vertex 50.9271 18.8532 0
    endloop
  endfacet
  facet normal 0 0 -1
    outer loop
      vertex -53 -16 0
      vertex -50.9271 -18.8532 0
      vertex -52.4271 -17.7634 0
    endloop
  endfacet
  facet normal 0 0 -1
    outer loop
      vertex -50.9271 -18.8532 0
      vertex -53 -16 0
      vertex -50.9271 18.8532 0
    endloop
  endfacet
  facet normal 0 0 -1
    outer loop
      vertex -53 16 0
      vertex -50.9271 18.8532 0
      vertex -53 -16 0
    endloop
  endfacet
  facet normal 0 0 -1
    outer loop
      vertex -50.9271 18.8532 0
      vertex -53 16 0
      vertex -52.4271 17.7634 0
    endloop
  endfacet
  facet normal -0.587785 -0.809017 0
    outer loop
      vertex -52.4271 -17.7634 0
      vertex -50.9271 -18.8532 28.5
      vertex -52.4271 -17.7634 28.5
    endloop
  endfacet
  facet normal -0.587785 -0.809017 -0
    outer loop
      vertex -50.9271 -18.8532 28.5
      vertex -52.4271 -17.7634 0
      vertex -50.9271 -18.8532 0
    endloop
  endfacet
  facet normal -1 0 0
    outer loop
      vertex -53 16 0
      vertex -53 8.5 10.5
      vertex -53 16 28.5
    endloop
  endfacet
  facet normal -1 0 0
    outer loop
      vertex -53 16 0
      vertex -53 -1.5 10.5
      vertex -53 8.5 10.5
    endloop
  endfacet
  facet normal -1 0 0
    outer loop
      vertex -53 -1.5 10.5
      vertex -53 -7.5 10.5
      vertex -53 -1.5 19.5
    endloop
  endfacet
  facet normal -1 0 0
    outer loop
      vertex -53 -16 0
      vertex -53 -1.5 10.5
      vertex -53 16 0
    endloop
  endfacet
  facet normal -1 -0 0
    outer loop
      vertex -53 -1.5 10.5
      vertex -53 -16 0
      vertex -53 -7.5 10.5
    endloop
  endfacet
  facet normal -1 -0 0
    outer loop
      vertex -53 -7.5 10.5
      vertex -53 -16 0
      vertex -53 -16 10.5
    endloop
  endfacet
  facet normal -1 0 0
    outer loop
      vertex -53 8.5 19.5
      vertex -53 16 28.5
      vertex -53 8.5 10.5
    endloop
  endfacet
  facet normal -1 0 0
    outer loop
      vertex -53 -1.5 19.5
      vertex -53 16 28.5
      vertex -53 8.5 19.5
    endloop
  endfacet
  facet normal -1 0 0
    outer loop
      vertex -53 -7.5 23
      vertex -53 -1.5 19.5
      vertex -53 -7.5 10.5
    endloop
  endfacet
  facet normal -1 0 0
    outer loop
      vertex -53 -7.5 23
      vertex -53 16 28.5
      vertex -53 -1.5 19.5
    endloop
  endfacet
  facet normal -1 0 0
    outer loop
      vertex -53 -16 28.5
      vertex -53 -7.5 23
      vertex -53 -16 23
    endloop
  endfacet
  facet normal -1 0 0
    outer loop
      vertex -53 -7.5 23
      vertex -53 -16 28.5
      vertex -53 16 28.5
    endloop
  endfacet
  facet normal 0.951057 0.309017 0
    outer loop
      vertex 53 16 28.5
      vertex 52.4271 17.7634 0
      vertex 52.4271 17.7634 28.5
    endloop
  endfacet
  facet normal 0.951057 0.309017 0
    outer loop
      vertex 52.4271 17.7634 0
      vertex 53 16 28.5
      vertex 53 16 0
    endloop
  endfacet
  facet normal -0.951056 -0.309018 0
    outer loop
      vertex -53 -16 0
      vertex -52.8375 -16.5 10.5
      vertex -53 -16 10.5
    endloop
  endfacet
  facet normal -0.951057 -0.309016 -0
    outer loop
      vertex -52.4271 -17.7634 28.5
      vertex -52.8375 -16.5 10.5
      vertex -52.4271 -17.7634 0
    endloop
  endfacet
  facet normal -0.951057 -0.309017 5.3612e-008
    outer loop
      vertex -52.4271 -17.7634 0
      vertex -52.8375 -16.5 10.5
      vertex -53 -16 0
    endloop
  endfacet
  facet normal -0.951056 -0.309018 0
    outer loop
      vertex -52.8375 -16.5 23
      vertex -53 -16 28.5
      vertex -53 -16 23
    endloop
  endfacet
  facet normal -0.951057 -0.309017 -1.0235e-007
    outer loop
      vertex -52.8375 -16.5 23
      vertex -52.4271 -17.7634 28.5
      vertex -53 -16 28.5
    endloop
  endfacet
  facet normal -0.951057 -0.309016 0
    outer loop
      vertex -52.8375 -16.5 10.5
      vertex -52.4271 -17.7634 28.5
      vertex -52.8375 -16.5 23
    endloop
  endfacet
  facet normal 0 -1 0
    outer loop
      vertex -50.9271 -18.8532 0
      vertex 50.9271 -18.8532 28.5
      vertex -50.9271 -18.8532 28.5
    endloop
  endfacet
  facet normal 0 -1 -0
    outer loop
      vertex 50.9271 -18.8532 28.5
      vertex -50.9271 -18.8532 0
      vertex 50.9271 -18.8532 0
    endloop
  endfacet
  facet normal 0 1 0
    outer loop
      vertex 50.9271 18.8532 28.5
      vertex -8 18.8532 10.5
      vertex -50.9271 18.8532 28.5
    endloop
  endfacet
  facet normal 0 1 -0
    outer loop
      vertex 50.9271 18.8532 0
      vertex -8 18.8532 10.5
      vertex 50.9271 18.8532 28.5
    endloop
  endfacet
  facet normal 0 1 0
    outer loop
      vertex -50.9271 18.8532 0
      vertex -8 18.8532 2.5
      vertex 50.9271 18.8532 0
    endloop
  endfacet
  facet normal 0 1 0
    outer loop
      vertex -8 18.8532 10.5
      vertex 50.9271 18.8532 0
      vertex -8 18.8532 2.5
    endloop
  endfacet
  facet normal 0 1 -0
    outer loop
      vertex -40 18.8532 10.5
      vertex -50.9271 18.8532 28.5
      vertex -8 18.8532 10.5
    endloop
  endfacet
  facet normal 0 1 0
    outer loop
      vertex -50.9271 18.8532 0
      vertex -40 18.8532 10.5
      vertex -40 18.8532 2.5
    endloop
  endfacet
  facet normal 0 1 0
    outer loop
      vertex -40 18.8532 10.5
      vertex -50.9271 18.8532 0
      vertex -50.9271 18.8532 28.5
    endloop
  endfacet
  facet normal 0 1 0
    outer loop
      vertex -8 18.8532 2.5
      vertex -50.9271 18.8532 0
      vertex -40 18.8532 2.5
    endloop
  endfacet
  facet normal 0.587785 0.809017 -0
    outer loop
      vertex 52.4271 17.7634 0
      vertex 50.9271 18.8532 28.5
      vertex 52.4271 17.7634 28.5
    endloop
  endfacet
  facet normal 0.587785 0.809017 0
    outer loop
      vertex 50.9271 18.8532 28.5
      vertex 52.4271 17.7634 0
      vertex 50.9271 18.8532 0
    endloop
  endfacet
  facet normal -0 0 1
    outer loop
      vertex 50.5 16.5 28.5
      vertex 53 16 28.5
      vertex 52.4271 17.7634 28.5
    endloop
  endfacet
  facet normal 0 0 1
    outer loop
      vertex 53 16 28.5
      vertex 50.5 16.5 28.5
      vertex 53 -16 28.5
    endloop
  endfacet
  facet normal 0 0 1
    outer loop
      vertex 50.5 16.5 28.5
      vertex 52.4271 17.7634 28.5
      vertex 50.9271 18.8532 28.5
    endloop
  endfacet
  facet normal 0 0 1
    outer loop
      vertex 50.5 -16.5 28.5
      vertex 53 -16 28.5
      vertex 50.5 16.5 28.5
    endloop
  endfacet
  facet normal 0 0 1
    outer loop
      vertex 53 -16 28.5
      vertex 50.5 -16.5 28.5
      vertex 52.4271 -17.7634 28.5
    endloop
  endfacet
  facet normal 0 0 1
    outer loop
      vertex 50.9271 18.8532 28.5
      vertex -50.5 16.5 28.5
      vertex 50.5 16.5 28.5
    endloop
  endfacet
  facet normal -0 0 1
    outer loop
      vertex -52.4271 17.7634 28.5
      vertex -50.5 16.5 28.5
      vertex -50.9271 18.8532 28.5
    endloop
  endfacet
  facet normal -0 0 1
    outer loop
      vertex -50.9271 18.8532 28.5
      vertex -50.5 16.5 28.5
      vertex 50.9271 18.8532 28.5
    endloop
  endfacet
  facet normal 0 0 1
    outer loop
      vertex 52.4271 -17.7634 28.5
      vertex 50.5 -16.5 28.5
      vertex 50.9271 -18.8532 28.5
    endloop
  endfacet
  facet normal -0 0 1
    outer loop
      vertex -50.5 -16.5 28.5
      vertex 50.9271 -18.8532 28.5
      vertex 50.5 -16.5 28.5
    endloop
  endfacet
  facet normal 0 0 1
    outer loop
      vertex -50.5 -16.5 28.5
      vertex -50.9271 -18.8532 28.5
      vertex 50.9271 -18.8532 28.5
    endloop
  endfacet
  facet normal 0 0 1
    outer loop
      vertex -50.5 16.5 28.5
      vertex -53 16 28.5
      vertex -50.5 -16.5 28.5
    endloop
  endfacet
  facet normal 0 0 1
    outer loop
      vertex -50.5 16.5 28.5
      vertex -52.4271 17.7634 28.5
      vertex -53 16 28.5
    endloop
  endfacet
  facet normal -0 0 1
    outer loop
      vertex -53 -16 28.5
      vertex -50.5 -16.5 28.5
      vertex -53 16 28.5
    endloop
  endfacet
  facet normal 0 -0 1
    outer loop
      vertex -52.4271 -17.7634 28.5
      vertex -50.5 -16.5 28.5
      vertex -53 -16 28.5
    endloop
  endfacet
  facet normal 0 0 1
    outer loop
      vertex -50.5 -16.5 28.5
      vertex -52.4271 -17.7634 28.5
      vertex -50.9271 -18.8532 28.5
    endloop
  endfacet
  facet normal -0.587785 0.809017 0
    outer loop
      vertex -50.9271 18.8532 0
      vertex -52.4271 17.7634 28.5
      vertex -50.9271 18.8532 28.5
    endloop
  endfacet
  facet normal -0.587785 0.809017 0
    outer loop
      vertex -52.4271 17.7634 28.5
      vertex -50.9271 18.8532 0
      vertex -52.4271 17.7634 0
    endloop
  endfacet
  facet normal -0.951057 0.309017 0
    outer loop
      vertex -53 16 0
      vertex -52.4271 17.7634 28.5
      vertex -52.4271 17.7634 0
    endloop
  endfacet
  facet normal -0.951057 0.309017 0
    outer loop
      vertex -52.4271 17.7634 28.5
      vertex -53 16 0
      vertex -53 16 28.5
    endloop
  endfacet
  facet normal 0.587785 -0.809017 0
    outer loop
      vertex 50.9271 -18.8532 0
      vertex 52.4271 -17.7634 28.5
      vertex 50.9271 -18.8532 28.5
    endloop
  endfacet
  facet normal 0.587785 -0.809017 0
    outer loop
      vertex 52.4271 -17.7634 28.5
      vertex 50.9271 -18.8532 0
      vertex 52.4271 -17.7634 0
    endloop
  endfacet
  facet normal 1 0 0
    outer loop
      vertex 53 8 10.5
      vertex 53 16 28.5
      vertex 53 8 24.5
    endloop
  endfacet
  facet normal 1 0 0
    outer loop
      vertex 53 16 28.5
      vertex 53 -8 24.5
      vertex 53 8 24.5
    endloop
  endfacet
  facet normal 1 0 0
    outer loop
      vertex 53 -8 24.5
      vertex 53 -16 28.5
      vertex 53 -8 10.5
    endloop
  endfacet
  facet normal 1 -0 0
    outer loop
      vertex 53 -16 28.5
      vertex 53 -8 24.5
      vertex 53 16 28.5
    endloop
  endfacet
  facet normal 1 0 0
    outer loop
      vertex 53 16 28.5
      vertex 53 8 10.5
      vertex 53 16 0
    endloop
  endfacet
  facet normal 1 -0 0
    outer loop
      vertex 53 -8 10.5
      vertex 53 16 0
      vertex 53 8 10.5
    endloop
  endfacet
  facet normal 1 0 0
    outer loop
      vertex 53 -8 10.5
      vertex 53 -16 0
      vertex 53 16 0
    endloop
  endfacet
  facet normal 1 0 0
    outer loop
      vertex 53 -16 0
      vertex 53 -8 10.5
      vertex 53 -16 28.5
    endloop
  endfacet
  facet normal 0.951057 -0.309017 0
    outer loop
      vertex 52.4271 -17.7634 28.5
      vertex 53 -16 0
      vertex 53 -16 28.5
    endloop
  endfacet
  facet normal 0.951057 -0.309017 0
    outer loop
      vertex 53 -16 0
      vertex 52.4271 -17.7634 28.5
      vertex 52.4271 -17.7634 0
    endloop
  endfacet
  facet normal 1 -0 0
    outer loop
      vertex -47.5 -16.5 10.5
      vertex -47.5 16.5 2.5
      vertex -47.5 16.5 10.5
    endloop
  endfacet
  facet normal 1 0 0
    outer loop
      vertex -47.5 16.5 2.5
      vertex -47.5 -16.5 10.5
      vertex -47.5 -16.5 2.5
    endloop
  endfacet
  facet normal -0 0 1
    outer loop
      vertex -53 8.5 10.5
      vertex -50.5 -1.5 10.5
      vertex -50.5 8.5 10.5
    endloop
  endfacet
  facet normal 0 0 1
    outer loop
      vertex -50.5 -1.5 10.5
      vertex -53 8.5 10.5
      vertex -53 -1.5 10.5
    endloop
  endfacet
  facet normal 0 0 1
    outer loop
      vertex -50.5 8.5 10.5
      vertex -47.5 16.5 10.5
      vertex -50.5 16.5 10.5
    endloop
  endfacet
  facet normal 0 0 1
    outer loop
      vertex -50.5 -1.5 10.5
      vertex -47.5 16.5 10.5
      vertex -50.5 8.5 10.5
    endloop
  endfacet
  facet normal 0 0 1
    outer loop
      vertex -47.5 16.5 10.5
      vertex -50.5 -1.5 10.5
      vertex -47.5 -16.5 10.5
    endloop
  endfacet
  facet normal -0 0 1
    outer loop
      vertex -50.5 -7.5 10.5
      vertex -47.5 -16.5 10.5
      vertex -50.5 -1.5 10.5
    endloop
  endfacet
  facet normal -0 0 1
    outer loop
      vertex -53 -16 10.5
      vertex -47.5 -16.5 10.5
      vertex -50.5 -7.5 10.5
    endloop
  endfacet
  facet normal 0 0 1
    outer loop
      vertex -53 -16 10.5
      vertex -50.5 -7.5 10.5
      vertex -53 -7.5 10.5
    endloop
  endfacet
  facet normal 0 0 1
    outer loop
      vertex -47.5 -16.5 10.5
      vertex -53 -16 10.5
      vertex -52.8375 -16.5 10.5
    endloop
  endfacet
  facet normal -0 0 1
    outer loop
      vertex 47.5 16.5 10.5
      vertex 50.5 8 10.5
      vertex 50.5 16.5 10.5
    endloop
  endfacet
  facet normal 0 0 1
    outer loop
      vertex 50.5 8 10.5
      vertex 47.5 16.5 10.5
      vertex 50.5 -8 10.5
    endloop
  endfacet
  facet normal 0 0 1
    outer loop
      vertex 47.5 -16.5 10.5
      vertex 50.5 -8 10.5
      vertex 47.5 16.5 10.5
    endloop
  endfacet
  facet normal 0 0 1
    outer loop
      vertex 50.5 -8 10.5
      vertex 47.5 -16.5 10.5
      vertex 50.5 -16.5 10.5
    endloop
  endfacet
  facet normal -0 0 1
    outer loop
      vertex 50.5 8 10.5
      vertex 53 -8 10.5
      vertex 53 8 10.5
    endloop
  endfacet
  facet normal 0 0 1
    outer loop
      vertex 53 -8 10.5
      vertex 50.5 8 10.5
      vertex 50.5 -8 10.5
    endloop
  endfacet
  facet normal 0 0 -1
    outer loop
      vertex -40 16.5 10.5
      vertex -8 18.8532 10.5
      vertex -8 16.5 10.5
    endloop
  endfacet
  facet normal -0 0 -1
    outer loop
      vertex -8 18.8532 10.5
      vertex -40 16.5 10.5
      vertex -40 18.8532 10.5
    endloop
  endfacet
  facet normal -1 0 0
    outer loop
      vertex 47.5 -16.5 2.5
      vertex 47.5 16.5 10.5
      vertex 47.5 16.5 2.5
    endloop
  endfacet
  facet normal -1 -0 0
    outer loop
      vertex 47.5 16.5 10.5
      vertex 47.5 -16.5 2.5
      vertex 47.5 -16.5 10.5
    endloop
  endfacet
  facet normal 0 0 1
    outer loop
      vertex -8 18.8532 2.5
      vertex -40 18.8532 2.5
      vertex -8 16.5 2.5
    endloop
  endfacet
  facet normal -0 0 1
    outer loop
      vertex -8 16.5 2.5
      vertex 47.5 -16.5 2.5
      vertex 47.5 16.5 2.5
    endloop
  endfacet
  facet normal 0 0 1
    outer loop
      vertex -40 16.5 2.5
      vertex -8 16.5 2.5
      vertex -40 18.8532 2.5
    endloop
  endfacet
  facet normal 0 0 1
    outer loop
      vertex -47.5 -16.5 2.5
      vertex -8 16.5 2.5
      vertex -40 16.5 2.5
    endloop
  endfacet
  facet normal 0 0 1
    outer loop
      vertex -47.5 -16.5 2.5
      vertex -40 16.5 2.5
      vertex -47.5 16.5 2.5
    endloop
  endfacet
  facet normal 0 0 1
    outer loop
      vertex -8 16.5 2.5
      vertex -47.5 -16.5 2.5
      vertex 47.5 -16.5 2.5
    endloop
  endfacet
  facet normal 0 1 -0
    outer loop
      vertex 47.5 -16.5 2.5
      vertex -47.5 -16.5 10.5
      vertex 47.5 -16.5 10.5
    endloop
  endfacet
  facet normal 0 1 0
    outer loop
      vertex -47.5 -16.5 10.5
      vertex 47.5 -16.5 2.5
      vertex -47.5 -16.5 2.5
    endloop
  endfacet
  facet normal 0 1 -0
    outer loop
      vertex -47.5 -16.5 10.5
      vertex -50.5 -16.5 28.5
      vertex 50.5 -16.5 28.5
    endloop
  endfacet
  facet normal 0 1 0
    outer loop
      vertex 47.5 -16.5 10.5
      vertex 50.5 -16.5 28.5
      vertex 50.5 -16.5 10.5
    endloop
  endfacet
  facet normal 0 1 0
    outer loop
      vertex -47.5 -16.5 10.5
      vertex 50.5 -16.5 28.5
      vertex 47.5 -16.5 10.5
    endloop
  endfacet
  facet normal 0 1 0
    outer loop
      vertex -50.5 -16.5 28.5
      vertex -47.5 -16.5 10.5
      vertex -50.5 -16.5 23
    endloop
  endfacet
  facet normal 0 1 0
    outer loop
      vertex -52.8375 -16.5 10.5
      vertex -50.5 -16.5 23
      vertex -47.5 -16.5 10.5
    endloop
  endfacet
  facet normal 0 1 0
    outer loop
      vertex -50.5 -16.5 23
      vertex -52.8375 -16.5 10.5
      vertex -52.8375 -16.5 23
    endloop
  endfacet
  facet normal 0 -1 0
    outer loop
      vertex -8 16.5 2.5
      vertex 47.5 16.5 10.5
      vertex -8 16.5 10.5
    endloop
  endfacet
  facet normal 0 -1 -0
    outer loop
      vertex 47.5 16.5 10.5
      vertex -8 16.5 2.5
      vertex 47.5 16.5 2.5
    endloop
  endfacet
  facet normal 0 -1 0
    outer loop
      vertex -47.5 16.5 2.5
      vertex -40 16.5 10.5
      vertex -47.5 16.5 10.5
    endloop
  endfacet
  facet normal 0 -1 -0
    outer loop
      vertex -40 16.5 10.5
      vertex -47.5 16.5 2.5
      vertex -40 16.5 2.5
    endloop
  endfacet
  facet normal 0 -1 0
    outer loop
      vertex -47.5 16.5 10.5
      vertex -50.5 16.5 28.5
      vertex -50.5 16.5 10.5
    endloop
  endfacet
  facet normal 0 -1 0
    outer loop
      vertex -40 16.5 10.5
      vertex -50.5 16.5 28.5
      vertex -47.5 16.5 10.5
    endloop
  endfacet
  facet normal 0 -1 0
    outer loop
      vertex -8 16.5 10.5
      vertex -50.5 16.5 28.5
      vertex -40 16.5 10.5
    endloop
  endfacet
  facet normal 0 -1 0
    outer loop
      vertex -50.5 16.5 28.5
      vertex -8 16.5 10.5
      vertex 50.5 16.5 28.5
    endloop
  endfacet
  facet normal 0 -1 0
    outer loop
      vertex 47.5 16.5 10.5
      vertex 50.5 16.5 28.5
      vertex -8 16.5 10.5
    endloop
  endfacet
  facet normal 0 -1 -0
    outer loop
      vertex 50.5 16.5 28.5
      vertex 47.5 16.5 10.5
      vertex 50.5 16.5 10.5
    endloop
  endfacet
  facet normal 1 -0 0
    outer loop
      vertex -40 16.5 10.5
      vertex -40 18.8532 2.5
      vertex -40 18.8532 10.5
    endloop
  endfacet
  facet normal 1 0 0
    outer loop
      vertex -40 18.8532 2.5
      vertex -40 16.5 10.5
      vertex -40 16.5 2.5
    endloop
  endfacet
  facet normal -1 0 0
    outer loop
      vertex -8 16.5 2.5
      vertex -8 18.8532 10.5
      vertex -8 18.8532 2.5
    endloop
  endfacet
  facet normal -1 -0 0
    outer loop
      vertex -8 18.8532 10.5
      vertex -8 16.5 2.5
      vertex -8 16.5 10.5
    endloop
  endfacet
  facet normal 1 0 0
    outer loop
      vertex -50.5 16.5 28.5
      vertex -50.5 8.5 19.5
      vertex -50.5 16.5 10.5
    endloop
  endfacet
  facet normal 1 0 0
    outer loop
      vertex -50.5 16.5 28.5
      vertex -50.5 -1.5 19.5
      vertex -50.5 8.5 19.5
    endloop
  endfacet
  facet normal 1 0 0
    outer loop
      vertex -50.5 -7.5 10.5
      vertex -50.5 -1.5 19.5
      vertex -50.5 -7.5 23
    endloop
  endfacet
  facet normal 1 0 0
    outer loop
      vertex -50.5 16.5 28.5
      vertex -50.5 -7.5 23
      vertex -50.5 -1.5 19.5
    endloop
  endfacet
  facet normal 1 -0 0
    outer loop
      vertex -50.5 -16.5 28.5
      vertex -50.5 -7.5 23
      vertex -50.5 16.5 28.5
    endloop
  endfacet
  facet normal 1 0 0
    outer loop
      vertex -50.5 -7.5 23
      vertex -50.5 -16.5 28.5
      vertex -50.5 -16.5 23
    endloop
  endfacet
  facet normal 1 0 0
    outer loop
      vertex -50.5 16.5 10.5
      vertex -50.5 8.5 19.5
      vertex -50.5 8.5 10.5
    endloop
  endfacet
  facet normal 1 0 0
    outer loop
      vertex -50.5 -1.5 19.5
      vertex -50.5 -7.5 10.5
      vertex -50.5 -1.5 10.5
    endloop
  endfacet
  facet normal -1 0 0
    outer loop
      vertex 50.5 -8 10.5
      vertex 50.5 -16.5 10.5
      vertex 50.5 -8 24.5
    endloop
  endfacet
  facet normal -1 0 0
    outer loop
      vertex 50.5 8 24.5
      vertex 50.5 16.5 10.5
      vertex 50.5 8 10.5
    endloop
  endfacet
  facet normal -1 0 0
    outer loop
      vertex 50.5 16.5 10.5
      vertex 50.5 8 24.5
      vertex 50.5 16.5 28.5
    endloop
  endfacet
  facet normal -1 0 0
    outer loop
      vertex 50.5 -8 24.5
      vertex 50.5 16.5 28.5
      vertex 50.5 8 24.5
    endloop
  endfacet
  facet normal -1 0 0
    outer loop
      vertex 50.5 -8 24.5
      vertex 50.5 -16.5 28.5
      vertex 50.5 16.5 28.5
    endloop
  endfacet
  facet normal -1 0 0
    outer loop
      vertex 50.5 -16.5 28.5
      vertex 50.5 -8 24.5
      vertex 50.5 -16.5 10.5
    endloop
  endfacet
  facet normal 0 0 -1
    outer loop
      vertex 50.5 -8 24.5
      vertex 53 8 24.5
      vertex 53 -8 24.5
    endloop
  endfacet
  facet normal -0 0 -1
    outer loop
      vertex 53 8 24.5
      vertex 50.5 -8 24.5
      vertex 50.5 8 24.5
    endloop
  endfacet
  facet normal 0 -1 0
    outer loop
      vertex 50.5 8 10.5
      vertex 53 8 24.5
      vertex 50.5 8 24.5
    endloop
  endfacet
  facet normal 0 -1 -0
    outer loop
      vertex 53 8 24.5
      vertex 50.5 8 10.5
      vertex 53 8 10.5
    endloop
  endfacet
  facet normal 0 1 -0
    outer loop
      vertex 53 -8 10.5
      vertex 50.5 -8 24.5
      vertex 53 -8 24.5
    endloop
  endfacet
  facet normal 0 1 0
    outer loop
      vertex 50.5 -8 24.5
      vertex 53 -8 10.5
      vertex 50.5 -8 10.5
    endloop
  endfacet
  facet normal 0 0 -1
    outer loop
      vertex -53 -1.5 19.5
      vertex -50.5 8.5 19.5
      vertex -50.5 -1.5 19.5
    endloop
  endfacet
  facet normal -0 0 -1
    outer loop
      vertex -50.5 8.5 19.5
      vertex -53 -1.5 19.5
      vertex -53 8.5 19.5
    endloop
  endfacet
  facet normal 0 -1 0
    outer loop
      vertex -53 8.5 10.5
      vertex -50.5 8.5 19.5
      vertex -53 8.5 19.5
    endloop
  endfacet
  facet normal 0 -1 -0
    outer loop
      vertex -50.5 8.5 19.5
      vertex -53 8.5 10.5
      vertex -50.5 8.5 10.5
    endloop
  endfacet
  facet normal 0 1 -0
    outer loop
      vertex -50.5 -1.5 10.5
      vertex -53 -1.5 19.5
      vertex -50.5 -1.5 19.5
    endloop
  endfacet
  facet normal 0 1 0
    outer loop
      vertex -53 -1.5 19.5
      vertex -50.5 -1.5 10.5
      vertex -53 -1.5 10.5
    endloop
  endfacet
  facet normal 0 0 -1
    outer loop
      vertex -53 -16 23
      vertex -50.5 -16.5 23
      vertex -52.8375 -16.5 23
    endloop
  endfacet
  facet normal 0 0 -1
    outer loop
      vertex -50.5 -16.5 23
      vertex -53 -16 23
      vertex -50.5 -7.5 23
    endloop
  endfacet
  facet normal -0 0 -1
    outer loop
      vertex -50.5 -7.5 23
      vertex -53 -16 23
      vertex -53 -7.5 23
    endloop
  endfacet
  facet normal 0 -1 0
    outer loop
      vertex -53 -7.5 10.5
      vertex -50.5 -7.5 23
      vertex -53 -7.5 23
    endloop
  endfacet
  facet normal 0 -1 -0
    outer loop
      vertex -50.5 -7.5 23
      vertex -53 -7.5 10.5
      vertex -50.5 -7.5 10.5
    endloop
  endfacet
endsolid OpenSCAD_Model
