solid OpenSCAD_Model
  facet normal 0 0 -1
    outer loop
      vertex 50.9271 -18.8532 0
      vertex 53 -16 0
      vertex 52.4271 -17.7634 0
    endloop
  endfacet
  facet normal -0 0 -1
    outer loop
      vertex 53 -16 0
      vertex 50.9271 -18.8532 0
      vertex 53 16 0
    endloop
  endfacet
  facet normal 0 0 -1
    outer loop
      vertex 50.9271 18.8532 0
      vertex 53 16 0
      vertex 50.9271 -18.8532 0
    endloop
  endfacet
  facet normal 0 0 -1
    outer loop
      vertex 53 16 0
      vertex 50.9271 18.8532 0
      vertex 52.4271 17.7634 0
    endloop
  endfacet
  facet normal 0 0 -1
    outer loop
      vertex -50.9271 -18.8532 0
      vertex 50.9271 18.8532 0
      vertex 50.9271 -18.8532 0
    endloop
  endfacet
  facet normal 0 0 -1
    outer loop
      vertex -50.9271 -18.8532 0
      vertex -50.9271 18.8532 0
      vertex 50.9271 18.8532 0
    endloop
  endfacet
  facet normal 0 0 -1
    outer loop
      vertex -53 -16 0
      vertex -50.9271 -18.8532 0
      vertex -52.4271 -17.7634 0
    endloop
  endfacet
  facet normal 0 0 -1
    outer loop
      vertex -50.9271 -18.8532 0
      vertex -53 -16 0
      vertex -50.9271 18.8532 0
    endloop
  endfacet
  facet normal 0 0 -1
    outer loop
      vertex -53 16 0
      vertex -50.9271 18.8532 0
      vertex -53 -16 0
    endloop
  endfacet
  facet normal 0 0 -1
    outer loop
      vertex -50.9271 18.8532 0
      vertex -53 16 0
      vertex -52.4271 17.7634 0
    endloop
  endfacet
  facet normal -0.587785 -0.809017 0
    outer loop
      vertex -49.9271 -15.2634 2
      vertex -48.4271 -16.3532 5.5
      vertex -49.9271 -15.2634 5.5
    endloop
  endfacet
  facet normal -0.587785 -0.809017 -0
    outer loop
      vertex -48.4271 -16.3532 5.5
      vertex -49.9271 -15.2634 2
      vertex -48.4271 -16.3532 2
    endloop
  endfacet
  facet normal 0.951057 0.309016 0
    outer loop
      vertex 50.3852 13.8532 5.5
      vertex 49.9271 15.2634 2
      vertex 49.9271 15.2634 5.5
    endloop
  endfacet
  facet normal 0.951057 0.309016 0
    outer loop
      vertex 49.9271 15.2634 2
      vertex 50.3852 13.8532 5.5
      vertex 50.3852 13.8532 2
    endloop
  endfacet
  facet normal -0.951057 -0.309016 0
    outer loop
      vertex -49.9271 -15.2634 2
      vertex -50.3852 -13.8532 5.5
      vertex -50.3852 -13.8532 2
    endloop
  endfacet
  facet normal -0.951057 -0.309016 0
    outer loop
      vertex -50.3852 -13.8532 5.5
      vertex -49.9271 -15.2634 2
      vertex -49.9271 -15.2634 5.5
    endloop
  endfacet
  facet normal 0 -1 0
    outer loop
      vertex -48.4271 -16.3532 2
      vertex 48.4271 -16.3532 5.5
      vertex -48.4271 -16.3532 5.5
    endloop
  endfacet
  facet normal 0 -1 -0
    outer loop
      vertex 48.4271 -16.3532 5.5
      vertex -48.4271 -16.3532 2
      vertex 48.4271 -16.3532 2
    endloop
  endfacet
  facet normal 0 1 -0
    outer loop
      vertex 48.4271 16.3532 2
      vertex -48.4271 16.3532 5.5
      vertex 48.4271 16.3532 5.5
    endloop
  endfacet
  facet normal 0 1 0
    outer loop
      vertex -48.4271 16.3532 5.5
      vertex 48.4271 16.3532 2
      vertex -48.4271 16.3532 2
    endloop
  endfacet
  facet normal 0.587785 0.809017 -0
    outer loop
      vertex 49.9271 15.2634 2
      vertex 48.4271 16.3532 5.5
      vertex 49.9271 15.2634 5.5
    endloop
  endfacet
  facet normal 0.587785 0.809017 0
    outer loop
      vertex 48.4271 16.3532 5.5
      vertex 49.9271 15.2634 2
      vertex 48.4271 16.3532 2
    endloop
  endfacet
  facet normal 0 0 1
    outer loop
      vertex 50.3852 -13.8532 5.5
      vertex 48.4271 -16.3532 5.5
      vertex 49.9271 -15.2634 5.5
    endloop
  endfacet
  facet normal 0 0 1
    outer loop
      vertex 50.3852 -13.8532 5.5
      vertex -48.4271 -16.3532 5.5
      vertex 48.4271 -16.3532 5.5
    endloop
  endfacet
  facet normal -0 0 1
    outer loop
      vertex -50.3852 -13.8532 5.5
      vertex -48.4271 -16.3532 5.5
      vertex 50.3852 -13.8532 5.5
    endloop
  endfacet
  facet normal 0 0 1
    outer loop
      vertex -48.4271 -16.3532 5.5
      vertex -50.3852 -13.8532 5.5
      vertex -49.9271 -15.2634 5.5
    endloop
  endfacet
  facet normal 0 0 1
    outer loop
      vertex 48.4271 16.3532 5.5
      vertex 50.3852 13.8532 5.5
      vertex 49.9271 15.2634 5.5
    endloop
  endfacet
  facet normal -0 0 1
    outer loop
      vertex -48.4271 16.3532 5.5
      vertex 50.3852 13.8532 5.5
      vertex 48.4271 16.3532 5.5
    endloop
  endfacet
  facet normal 0 0 1
    outer loop
      vertex -50.3852 13.8532 5.5
      vertex -48.4271 16.3532 5.5
      vertex -49.9271 15.2634 5.5
    endloop
  endfacet
  facet normal 0 0 1
    outer loop
      vertex -48.4271 16.3532 5.5
      vertex -50.3852 13.8532 5.5
      vertex 50.3852 13.8532 5.5
    endloop
  endfacet
  facet normal -0.587785 0.809017 0
    outer loop
      vertex -48.4271 16.3532 2
      vertex -49.9271 15.2634 5.5
      vertex -48.4271 16.3532 5.5
    endloop
  endfacet
  facet normal -0.587785 0.809017 0
    outer loop
      vertex -49.9271 15.2634 5.5
      vertex -48.4271 16.3532 2
      vertex -49.9271 15.2634 2
    endloop
  endfacet
  facet normal -0.951057 0.309016 0
    outer loop
      vertex -50.3852 13.8532 2
      vertex -49.9271 15.2634 5.5
      vertex -49.9271 15.2634 2
    endloop
  endfacet
  facet normal -0.951057 0.309016 0
    outer loop
      vertex -49.9271 15.2634 5.5
      vertex -50.3852 13.8532 2
      vertex -50.3852 13.8532 5.5
    endloop
  endfacet
  facet normal 0.587785 -0.809017 0
    outer loop
      vertex 48.4271 -16.3532 2
      vertex 49.9271 -15.2634 5.5
      vertex 48.4271 -16.3532 5.5
    endloop
  endfacet
  facet normal 0.587785 -0.809017 0
    outer loop
      vertex 49.9271 -15.2634 5.5
      vertex 48.4271 -16.3532 2
      vertex 49.9271 -15.2634 2
    endloop
  endfacet
  facet normal 0.951057 -0.309016 0
    outer loop
      vertex 49.9271 -15.2634 5.5
      vertex 50.3852 -13.8532 2
      vertex 50.3852 -13.8532 5.5
    endloop
  endfacet
  facet normal 0.951057 -0.309016 0
    outer loop
      vertex 50.3852 -13.8532 2
      vertex 49.9271 -15.2634 5.5
      vertex 49.9271 -15.2634 2
    endloop
  endfacet
  facet normal 0 1 -0
    outer loop
      vertex 50.3852 -13.8532 2
      vertex -50.3852 -13.8532 5.5
      vertex 50.3852 -13.8532 5.5
    endloop
  endfacet
  facet normal 0 1 0
    outer loop
      vertex -50.3852 -13.8532 5.5
      vertex 50.3852 -13.8532 2
      vertex -50.3852 -13.8532 2
    endloop
  endfacet
  facet normal 0 -1 0
    outer loop
      vertex -50.3852 13.8532 2
      vertex 50.3852 13.8532 5.5
      vertex -50.3852 13.8532 5.5
    endloop
  endfacet
  facet normal 0 -1 -0
    outer loop
      vertex 50.3852 13.8532 5.5
      vertex -50.3852 13.8532 2
      vertex 50.3852 13.8532 2
    endloop
  endfacet
  facet normal -0.587785 -0.809017 0
    outer loop
      vertex -52.4271 -17.7634 0
      vertex -50.9271 -18.8532 2
      vertex -52.4271 -17.7634 2
    endloop
  endfacet
  facet normal -0.587785 -0.809017 -0
    outer loop
      vertex -50.9271 -18.8532 2
      vertex -52.4271 -17.7634 0
      vertex -50.9271 -18.8532 0
    endloop
  endfacet
  facet normal -1 0 0
    outer loop
      vertex -53 -16 0
      vertex -53 16 2
      vertex -53 16 0
    endloop
  endfacet
  facet normal -1 -0 0
    outer loop
      vertex -53 16 2
      vertex -53 -16 0
      vertex -53 -16 2
    endloop
  endfacet
  facet normal 0.951057 0.309017 0
    outer loop
      vertex 53 16 2
      vertex 52.4271 17.7634 0
      vertex 52.4271 17.7634 2
    endloop
  endfacet
  facet normal 0.951057 0.309017 0
    outer loop
      vertex 52.4271 17.7634 0
      vertex 53 16 2
      vertex 53 16 0
    endloop
  endfacet
  facet normal -0.951057 -0.309017 0
    outer loop
      vertex -52.4271 -17.7634 0
      vertex -53 -16 2
      vertex -53 -16 0
    endloop
  endfacet
  facet normal -0.951057 -0.309017 0
    outer loop
      vertex -53 -16 2
      vertex -52.4271 -17.7634 0
      vertex -52.4271 -17.7634 2
    endloop
  endfacet
  facet normal 0 -1 0
    outer loop
      vertex -50.9271 -18.8532 0
      vertex 50.9271 -18.8532 2
      vertex -50.9271 -18.8532 2
    endloop
  endfacet
  facet normal 0 -1 -0
    outer loop
      vertex 50.9271 -18.8532 2
      vertex -50.9271 -18.8532 0
      vertex 50.9271 -18.8532 0
    endloop
  endfacet
  facet normal 0 1 -0
    outer loop
      vertex 50.9271 18.8532 0
      vertex -50.9271 18.8532 2
      vertex 50.9271 18.8532 2
    endloop
  endfacet
  facet normal 0 1 0
    outer loop
      vertex -50.9271 18.8532 2
      vertex 50.9271 18.8532 0
      vertex -50.9271 18.8532 0
    endloop
  endfacet
  facet normal 0.587785 0.809017 -0
    outer loop
      vertex 52.4271 17.7634 0
      vertex 50.9271 18.8532 2
      vertex 52.4271 17.7634 2
    endloop
  endfacet
  facet normal 0.587785 0.809017 0
    outer loop
      vertex 50.9271 18.8532 2
      vertex 52.4271 17.7634 0
      vertex 50.9271 18.8532 0
    endloop
  endfacet
  facet normal -0 0 1
    outer loop
      vertex -50.3852 13.8532 2
      vertex 50.3852 -13.8532 2
      vertex 50.3852 13.8532 2
    endloop
  endfacet
  facet normal 0 0 1
    outer loop
      vertex 50.3852 -13.8532 2
      vertex -50.3852 13.8532 2
      vertex -50.3852 -13.8532 2
    endloop
  endfacet
  facet normal 0 0 1
    outer loop
      vertex 49.9271 15.2634 2
      vertex 53 16 2
      vertex 52.4271 17.7634 2
    endloop
  endfacet
  facet normal 0 0 1
    outer loop
      vertex 53 16 2
      vertex 50.3852 13.8532 2
      vertex 53 -16 2
    endloop
  endfacet
  facet normal 0 0 1
    outer loop
      vertex 49.9271 15.2634 2
      vertex 52.4271 17.7634 2
      vertex 50.9271 18.8532 2
    endloop
  endfacet
  facet normal -0 0 1
    outer loop
      vertex 50.3852 -13.8532 2
      vertex 53 -16 2
      vertex 50.3852 13.8532 2
    endloop
  endfacet
  facet normal -0 0 1
    outer loop
      vertex 49.9271 -15.2634 2
      vertex 53 -16 2
      vertex 50.3852 -13.8532 2
    endloop
  endfacet
  facet normal 0 0 1
    outer loop
      vertex 53 16 2
      vertex 49.9271 15.2634 2
      vertex 50.3852 13.8532 2
    endloop
  endfacet
  facet normal 0 0 1
    outer loop
      vertex 50.9271 18.8532 2
      vertex 48.4271 16.3532 2
      vertex 49.9271 15.2634 2
    endloop
  endfacet
  facet normal 0 0 1
    outer loop
      vertex 50.9271 18.8532 2
      vertex -48.4271 16.3532 2
      vertex 48.4271 16.3532 2
    endloop
  endfacet
  facet normal -0 0 1
    outer loop
      vertex -53 16 2
      vertex -49.9271 15.2634 2
      vertex -52.4271 17.7634 2
    endloop
  endfacet
  facet normal -0 0 1
    outer loop
      vertex -52.4271 17.7634 2
      vertex -49.9271 15.2634 2
      vertex -50.9271 18.8532 2
    endloop
  endfacet
  facet normal 0 0 1
    outer loop
      vertex -48.4271 16.3532 2
      vertex -50.9271 18.8532 2
      vertex -49.9271 15.2634 2
    endloop
  endfacet
  facet normal -0 0 1
    outer loop
      vertex -50.9271 18.8532 2
      vertex -48.4271 16.3532 2
      vertex 50.9271 18.8532 2
    endloop
  endfacet
  facet normal 0 0 1
    outer loop
      vertex 53 -16 2
      vertex 49.9271 -15.2634 2
      vertex 52.4271 -17.7634 2
    endloop
  endfacet
  facet normal 0 0 1
    outer loop
      vertex 52.4271 -17.7634 2
      vertex 49.9271 -15.2634 2
      vertex 50.9271 -18.8532 2
    endloop
  endfacet
  facet normal -0 0 1
    outer loop
      vertex 48.4271 -16.3532 2
      vertex 50.9271 -18.8532 2
      vertex 49.9271 -15.2634 2
    endloop
  endfacet
  facet normal -0 0 1
    outer loop
      vertex -48.4271 -16.3532 2
      vertex 50.9271 -18.8532 2
      vertex 48.4271 -16.3532 2
    endloop
  endfacet
  facet normal 0 0 1
    outer loop
      vertex -48.4271 -16.3532 2
      vertex -50.9271 -18.8532 2
      vertex 50.9271 -18.8532 2
    endloop
  endfacet
  facet normal 0 0 1
    outer loop
      vertex -49.9271 -15.2634 2
      vertex -50.9271 -18.8532 2
      vertex -48.4271 -16.3532 2
    endloop
  endfacet
  facet normal 0 0 1
    outer loop
      vertex -53 -16 2
      vertex -49.9271 -15.2634 2
      vertex -50.3852 -13.8532 2
    endloop
  endfacet
  facet normal 0 0 1
    outer loop
      vertex -50.3852 13.8532 2
      vertex -53 16 2
      vertex -50.3852 -13.8532 2
    endloop
  endfacet
  facet normal 0 0 1
    outer loop
      vertex -49.9271 15.2634 2
      vertex -53 16 2
      vertex -50.3852 13.8532 2
    endloop
  endfacet
  facet normal 0 0 1
    outer loop
      vertex -53 -16 2
      vertex -50.3852 -13.8532 2
      vertex -53 16 2
    endloop
  endfacet
  facet normal 0 0 1
    outer loop
      vertex -49.9271 -15.2634 2
      vertex -53 -16 2
      vertex -52.4271 -17.7634 2
    endloop
  endfacet
  facet normal 0 0 1
    outer loop
      vertex -49.9271 -15.2634 2
      vertex -52.4271 -17.7634 2
      vertex -50.9271 -18.8532 2
    endloop
  endfacet
  facet normal -0.587785 0.809017 0
    outer loop
      vertex -50.9271 18.8532 0
      vertex -52.4271 17.7634 2
      vertex -50.9271 18.8532 2
    endloop
  endfacet
  facet normal -0.587785 0.809017 0
    outer loop
      vertex -52.4271 17.7634 2
      vertex -50.9271 18.8532 0
      vertex -52.4271 17.7634 0
    endloop
  endfacet
  facet normal -0.951057 0.309017 0
    outer loop
      vertex -53 16 0
      vertex -52.4271 17.7634 2
      vertex -52.4271 17.7634 0
    endloop
  endfacet
  facet normal -0.951057 0.309017 0
    outer loop
      vertex -52.4271 17.7634 2
      vertex -53 16 0
      vertex -53 16 2
    endloop
  endfacet
  facet normal 0.587785 -0.809017 0
    outer loop
      vertex 50.9271 -18.8532 0
      vertex 52.4271 -17.7634 2
      vertex 50.9271 -18.8532 2
    endloop
  endfacet
  facet normal 0.587785 -0.809017 0
    outer loop
      vertex 52.4271 -17.7634 2
      vertex 50.9271 -18.8532 0
      vertex 52.4271 -17.7634 0
    endloop
  endfacet
  facet normal 1 -0 0
    outer loop
      vertex 53 -16 2
      vertex 53 16 0
      vertex 53 16 2
    endloop
  endfacet
  facet normal 1 0 0
    outer loop
      vertex 53 16 0
      vertex 53 -16 2
      vertex 53 -16 0
    endloop
  endfacet
  facet normal 0.951057 -0.309017 0
    outer loop
      vertex 52.4271 -17.7634 2
      vertex 53 -16 0
      vertex 53 -16 2
    endloop
  endfacet
  facet normal 0.951057 -0.309017 0
    outer loop
      vertex 53 -16 0
      vertex 52.4271 -17.7634 2
      vertex 52.4271 -17.7634 0
    endloop
  endfacet
endsolid OpenSCAD_Model
