solid OpenSCAD_Model
  facet normal 0 1 -0
    outer loop
      vertex 25.5 -20 4.44089e-15
      vertex 23.5 -20 5
      vertex 25.5 -20 5
    endloop
  endfacet
  facet normal 0 1 0
    outer loop
      vertex 23.5 -20 5
      vertex 25.5 -20 4.44089e-15
      vertex 23.5 -20 4.44089e-15
    endloop
  endfacet
  facet normal 0 1 -0
    outer loop
      vertex -23.5 -20 4.44089e-15
      vertex -25.5 -20 5
      vertex -23.5 -20 5
    endloop
  endfacet
  facet normal 0 1 0
    outer loop
      vertex -25.5 -20 5
      vertex -23.5 -20 4.44089e-15
      vertex -25.5 -20 4.44089e-15
    endloop
  endfacet
  facet normal 0 -2.22045e-16 -1
    outer loop
      vertex 23.5 -20 4.44089e-15
      vertex 25.5 -21.5 4.77396e-15
      vertex 25.4712 -21.7926 4.83894e-15
    endloop
  endfacet
  facet normal 0 -2.22045e-16 -1
    outer loop
      vertex 23.5 -20 4.44089e-15
      vertex 25.4712 -21.7926 4.83894e-15
      vertex 25.3858 -22.074 4.90142e-15
    endloop
  endfacet
  facet normal 0 -2.22045e-16 -1
    outer loop
      vertex 23.5 -20 4.44089e-15
      vertex 25.3858 -22.074 4.90142e-15
      vertex 25.2472 -22.3334 4.959e-15
    endloop
  endfacet
  facet normal 0 -2.22045e-16 -1
    outer loop
      vertex 23.5 -20 4.44089e-15
      vertex 25.2472 -22.3334 4.959e-15
      vertex 25.0607 -22.5607 5.00947e-15
    endloop
  endfacet
  facet normal 0 -2.22045e-16 -1
    outer loop
      vertex 23.5 -20 4.44089e-15
      vertex 25.0607 -22.5607 5.00947e-15
      vertex 24.8334 -22.7472 5.05089e-15
    endloop
  endfacet
  facet normal 0 -2.22045e-16 -1
    outer loop
      vertex 23.5 -20 4.44089e-15
      vertex 24.8334 -22.7472 5.05089e-15
      vertex 24.574 -22.8858 5.08167e-15
    endloop
  endfacet
  facet normal 0 -2.22045e-16 -1
    outer loop
      vertex 23.5 -20 4.44089e-15
      vertex 24.574 -22.8858 5.08167e-15
      vertex 24.2926 -22.9712 5.10063e-15
    endloop
  endfacet
  facet normal 0 -2.22045e-16 -1
    outer loop
      vertex 23.5 -20 4.44089e-15
      vertex 24.2926 -22.9712 5.10063e-15
      vertex 24 -23 5.10703e-15
    endloop
  endfacet
  facet normal 0 -2.22045e-16 -1
    outer loop
      vertex 25.5 -21.5 4.77396e-15
      vertex 23.5 -20 4.44089e-15
      vertex 25.5 -20 4.44089e-15
    endloop
  endfacet
  facet normal -0 -2.22045e-16 -1
    outer loop
      vertex 23.5 -20 4.44089e-15
      vertex 22 -20 4.44089e-15
      vertex 23.5 -13.3333 2.96059e-15
    endloop
  endfacet
  facet normal 0 -2.22045e-16 -1
    outer loop
      vertex 24 -23 5.10703e-15
      vertex 22 -20 4.44089e-15
      vertex 23.5 -20 4.44089e-15
    endloop
  endfacet
  facet normal 0 -2.22045e-16 -1
    outer loop
      vertex 24 -23 5.10703e-15
      vertex -22 -20 4.44089e-15
      vertex 22 -20 4.44089e-15
    endloop
  endfacet
  facet normal -0 -2.22045e-16 -1
    outer loop
      vertex -22 -20 4.44089e-15
      vertex -23.5 -20 4.44089e-15
      vertex -22 -13.3333 2.96059e-15
    endloop
  endfacet
  facet normal 0 -2.22045e-16 -1
    outer loop
      vertex -24 -23 5.10703e-15
      vertex -22 -20 4.44089e-15
      vertex 24 -23 5.10703e-15
    endloop
  endfacet
  facet normal -0 -2.22045e-16 -1
    outer loop
      vertex -22 -20 4.44089e-15
      vertex -24 -23 5.10703e-15
      vertex -23.5 -20 4.44089e-15
    endloop
  endfacet
  facet normal 0 -2.22045e-16 -1
    outer loop
      vertex -24.2926 -22.9712 5.10063e-15
      vertex -23.5 -20 4.44089e-15
      vertex -24 -23 5.10703e-15
    endloop
  endfacet
  facet normal 0 -2.22045e-16 -1
    outer loop
      vertex -24.574 -22.8858 5.08167e-15
      vertex -23.5 -20 4.44089e-15
      vertex -24.2926 -22.9712 5.10063e-15
    endloop
  endfacet
  facet normal 0 -2.22045e-16 -1
    outer loop
      vertex -24.8334 -22.7472 5.05089e-15
      vertex -23.5 -20 4.44089e-15
      vertex -24.574 -22.8858 5.08167e-15
    endloop
  endfacet
  facet normal 0 -2.22045e-16 -1
    outer loop
      vertex -25.0607 -22.5607 5.00947e-15
      vertex -23.5 -20 4.44089e-15
      vertex -24.8334 -22.7472 5.05089e-15
    endloop
  endfacet
  facet normal 0 -2.22045e-16 -1
    outer loop
      vertex -25.2472 -22.3334 4.959e-15
      vertex -23.5 -20 4.44089e-15
      vertex -25.0607 -22.5607 5.00947e-15
    endloop
  endfacet
  facet normal 0 -2.22045e-16 -1
    outer loop
      vertex -25.3858 -22.074 4.90142e-15
      vertex -23.5 -20 4.44089e-15
      vertex -25.2472 -22.3334 4.959e-15
    endloop
  endfacet
  facet normal 0 -2.22045e-16 -1
    outer loop
      vertex -25.4712 -21.7926 4.83894e-15
      vertex -23.5 -20 4.44089e-15
      vertex -25.3858 -22.074 4.90142e-15
    endloop
  endfacet
  facet normal 0 -2.22045e-16 -1
    outer loop
      vertex -25.5 -21.5 4.77396e-15
      vertex -23.5 -20 4.44089e-15
      vertex -25.4712 -21.7926 4.83894e-15
    endloop
  endfacet
  facet normal -0 -2.22045e-16 -1
    outer loop
      vertex -23.5 -20 4.44089e-15
      vertex -25.5 -21.5 4.77396e-15
      vertex -25.5 -20 4.44089e-15
    endloop
  endfacet
  facet normal -0 -2.22045e-16 -1
    outer loop
      vertex 23.5 -13.3333 2.96059e-15
      vertex 22 -20 4.44089e-15
      vertex 22 -13.3333 2.96059e-15
    endloop
  endfacet
  facet normal -0 -2.22045e-16 -1
    outer loop
      vertex -22 -13.3333 2.96059e-15
      vertex -23.5 -20 4.44089e-15
      vertex -23.5 -13.3333 2.96059e-15
    endloop
  endfacet
  facet normal 0 -1 0
    outer loop
      vertex -24 -23 5
      vertex 0 -23 3.5
      vertex 24 -23 5
    endloop
  endfacet
  facet normal 0 -1 0
    outer loop
      vertex -24 -23 5
      vertex -0.382683 -23 3.42388
      vertex 0 -23 3.5
    endloop
  endfacet
  facet normal 0 -1 0
    outer loop
      vertex -24 -23 5
      vertex -0.707107 -23 3.20711
      vertex -0.382683 -23 3.42388
    endloop
  endfacet
  facet normal 0 -1 0
    outer loop
      vertex -0.795378 -23 3.075
      vertex -24 -23 5
      vertex -24 -23 3.075
    endloop
  endfacet
  facet normal 0 -1 0
    outer loop
      vertex -24 -23 5
      vertex -0.795378 -23 3.075
      vertex -0.707107 -23 3.20711
    endloop
  endfacet
  facet normal 0 -1 0
    outer loop
      vertex 0.382683 -23 3.42388
      vertex 24 -23 5
      vertex 0 -23 3.5
    endloop
  endfacet
  facet normal 0 -1 0
    outer loop
      vertex 0.707107 -23 3.20711
      vertex 24 -23 5
      vertex 0.382683 -23 3.42388
    endloop
  endfacet
  facet normal 0 -1 0
    outer loop
      vertex 0.795378 -23 3.075
      vertex 24 -23 5
      vertex 0.707107 -23 3.20711
    endloop
  endfacet
  facet normal 0 -1 -0
    outer loop
      vertex 24 -23 5
      vertex 0.795378 -23 3.075
      vertex 24 -23 3.075
    endloop
  endfacet
  facet normal 0 -1 0
    outer loop
      vertex -24 -23 5.10703e-15
      vertex -0.828786 -23 1.975
      vertex -24 -23 1.975
    endloop
  endfacet
  facet normal 0 -1 -0
    outer loop
      vertex -0.828786 -23 1.975
      vertex -24 -23 5.10703e-15
      vertex -0.707107 -23 1.79289
    endloop
  endfacet
  facet normal 0 -1 -0
    outer loop
      vertex -0.707107 -23 1.79289
      vertex -24 -23 5.10703e-15
      vertex -0.382683 -23 1.57612
    endloop
  endfacet
  facet normal 0 -1 -0
    outer loop
      vertex -0.382683 -23 1.57612
      vertex -24 -23 5.10703e-15
      vertex 0 -23 1.5
    endloop
  endfacet
  facet normal 0 -1 0
    outer loop
      vertex 24 -23 5.10703e-15
      vertex 0.828786 -23 1.975
      vertex 0.707107 -23 1.79289
    endloop
  endfacet
  facet normal 0 -1 0
    outer loop
      vertex 24 -23 5.10703e-15
      vertex 0.707107 -23 1.79289
      vertex 0.382683 -23 1.57612
    endloop
  endfacet
  facet normal 0 -1 0
    outer loop
      vertex 24 -23 5.10703e-15
      vertex 0.382683 -23 1.57612
      vertex 0 -23 1.5
    endloop
  endfacet
  facet normal 0 -1 0
    outer loop
      vertex 24 -23 5.10703e-15
      vertex 0 -23 1.5
      vertex -24 -23 5.10703e-15
    endloop
  endfacet
  facet normal 0 -1 0
    outer loop
      vertex 0.828786 -23 1.975
      vertex 24 -23 5.10703e-15
      vertex 24 -23 1.975
    endloop
  endfacet
  facet normal -1 0 0
    outer loop
      vertex -25.5 -21.5 4.77396e-15
      vertex -25.5 -20 5
      vertex -25.5 -20 4.44089e-15
    endloop
  endfacet
  facet normal -1 -0 0
    outer loop
      vertex -25.5 -20 5
      vertex -25.5 -21.5 4.77396e-15
      vertex -25.5 -21.5 5
    endloop
  endfacet
  facet normal 0 0 1
    outer loop
      vertex -22 -13.3333 5
      vertex -23.5 -13.3333 5
      vertex -22 -20 5
    endloop
  endfacet
  facet normal 0 0 1
    outer loop
      vertex 23.5 -13.3333 5
      vertex 22 -13.3333 5
      vertex 23.5 -20 5
    endloop
  endfacet
  facet normal -0 0 1
    outer loop
      vertex 23.5 -20 5
      vertex 25.5 -21.5 5
      vertex 25.5 -20 5
    endloop
  endfacet
  facet normal 0 0 1
    outer loop
      vertex 25.5 -21.5 5
      vertex 23.5 -20 5
      vertex 25.4712 -21.7926 5
    endloop
  endfacet
  facet normal 0 0 1
    outer loop
      vertex 25.4712 -21.7926 5
      vertex 23.5 -20 5
      vertex 25.3858 -22.074 5
    endloop
  endfacet
  facet normal 0 0 1
    outer loop
      vertex 25.3858 -22.074 5
      vertex 23.5 -20 5
      vertex 25.2472 -22.3334 5
    endloop
  endfacet
  facet normal 0 0 1
    outer loop
      vertex 25.2472 -22.3334 5
      vertex 23.5 -20 5
      vertex 25.0607 -22.5607 5
    endloop
  endfacet
  facet normal 0 0 1
    outer loop
      vertex 25.0607 -22.5607 5
      vertex 23.5 -20 5
      vertex 24.8334 -22.7472 5
    endloop
  endfacet
  facet normal 0 0 1
    outer loop
      vertex 24.8334 -22.7472 5
      vertex 23.5 -20 5
      vertex 24.574 -22.8858 5
    endloop
  endfacet
  facet normal 0 0 1
    outer loop
      vertex 24.574 -22.8858 5
      vertex 23.5 -20 5
      vertex 24.2926 -22.9712 5
    endloop
  endfacet
  facet normal 0 0 1
    outer loop
      vertex 24.2926 -22.9712 5
      vertex 23.5 -20 5
      vertex 24 -23 5
    endloop
  endfacet
  facet normal 0 0 1
    outer loop
      vertex 22 -20 5
      vertex 23.5 -20 5
      vertex 22 -13.3333 5
    endloop
  endfacet
  facet normal 0 0 1
    outer loop
      vertex 23.5 -20 5
      vertex 22 -20 5
      vertex 24 -23 5
    endloop
  endfacet
  facet normal -0 0 1
    outer loop
      vertex -22 -20 5
      vertex 24 -23 5
      vertex 22 -20 5
    endloop
  endfacet
  facet normal 0 0 1
    outer loop
      vertex -23.5 -20 5
      vertex -22 -20 5
      vertex -23.5 -13.3333 5
    endloop
  endfacet
  facet normal 0 0 1
    outer loop
      vertex -24 -23 5
      vertex -22 -20 5
      vertex -23.5 -20 5
    endloop
  endfacet
  facet normal 0 0 1
    outer loop
      vertex -22 -20 5
      vertex -24 -23 5
      vertex 24 -23 5
    endloop
  endfacet
  facet normal 0 0 1
    outer loop
      vertex -23.5 -20 5
      vertex -24.2926 -22.9712 5
      vertex -24 -23 5
    endloop
  endfacet
  facet normal 0 0 1
    outer loop
      vertex -23.5 -20 5
      vertex -24.574 -22.8858 5
      vertex -24.2926 -22.9712 5
    endloop
  endfacet
  facet normal 0 0 1
    outer loop
      vertex -23.5 -20 5
      vertex -24.8334 -22.7472 5
      vertex -24.574 -22.8858 5
    endloop
  endfacet
  facet normal 0 0 1
    outer loop
      vertex -23.5 -20 5
      vertex -25.0607 -22.5607 5
      vertex -24.8334 -22.7472 5
    endloop
  endfacet
  facet normal 0 0 1
    outer loop
      vertex -23.5 -20 5
      vertex -25.2472 -22.3334 5
      vertex -25.0607 -22.5607 5
    endloop
  endfacet
  facet normal 0 0 1
    outer loop
      vertex -23.5 -20 5
      vertex -25.3858 -22.074 5
      vertex -25.2472 -22.3334 5
    endloop
  endfacet
  facet normal 0 0 1
    outer loop
      vertex -23.5 -20 5
      vertex -25.4712 -21.7926 5
      vertex -25.3858 -22.074 5
    endloop
  endfacet
  facet normal 0 0 1
    outer loop
      vertex -25.5 -21.5 5
      vertex -23.5 -20 5
      vertex -25.5 -20 5
    endloop
  endfacet
  facet normal 0 0 1
    outer loop
      vertex -23.5 -20 5
      vertex -25.5 -21.5 5
      vertex -25.4712 -21.7926 5
    endloop
  endfacet
  facet normal -0.995184 -0.0980233 0
    outer loop
      vertex -25.4712 -21.7926 4.83894e-15
      vertex -25.5 -21.5 5
      vertex -25.5 -21.5 4.77396e-15
    endloop
  endfacet
  facet normal -0.995184 -0.0980233 0
    outer loop
      vertex -25.5 -21.5 5
      vertex -25.4712 -21.7926 4.83894e-15
      vertex -25.4712 -21.7926 5
    endloop
  endfacet
  facet normal -0.634394 -0.77301 0
    outer loop
      vertex -25.0607 -22.5607 5
      vertex -24.8334 -22.7472 5.05089e-15
      vertex -24.8334 -22.7472 5
    endloop
  endfacet
  facet normal -0.634394 -0.77301 0
    outer loop
      vertex -24.8334 -22.7472 5.05089e-15
      vertex -25.0607 -22.5607 5
      vertex -25.0607 -22.5607 5.00947e-15
    endloop
  endfacet
  facet normal -0.471395 -0.881922 0
    outer loop
      vertex -24.8334 -22.7472 5
      vertex -24.574 -22.8858 5.08167e-15
      vertex -24.574 -22.8858 5
    endloop
  endfacet
  facet normal -0.471395 -0.881922 0
    outer loop
      vertex -24.574 -22.8858 5.08167e-15
      vertex -24.8334 -22.7472 5
      vertex -24.8334 -22.7472 5.05089e-15
    endloop
  endfacet
  facet normal -0.881922 -0.471395 0
    outer loop
      vertex -25.2472 -22.3334 4.959e-15
      vertex -25.3858 -22.074 5
      vertex -25.3858 -22.074 4.90142e-15
    endloop
  endfacet
  facet normal -0.881922 -0.471395 0
    outer loop
      vertex -25.3858 -22.074 5
      vertex -25.2472 -22.3334 4.959e-15
      vertex -25.2472 -22.3334 5
    endloop
  endfacet
  facet normal -0.956941 -0.290282 0
    outer loop
      vertex -25.3858 -22.074 4.90142e-15
      vertex -25.4712 -21.7926 5
      vertex -25.4712 -21.7926 4.83894e-15
    endloop
  endfacet
  facet normal -0.956941 -0.290282 0
    outer loop
      vertex -25.4712 -21.7926 5
      vertex -25.3858 -22.074 4.90142e-15
      vertex -25.3858 -22.074 5
    endloop
  endfacet
  facet normal -0.77301 -0.634394 0
    outer loop
      vertex -25.0607 -22.5607 5.00947e-15
      vertex -25.2472 -22.3334 5
      vertex -25.2472 -22.3334 4.959e-15
    endloop
  endfacet
  facet normal -0.77301 -0.634394 0
    outer loop
      vertex -25.2472 -22.3334 5
      vertex -25.0607 -22.5607 5.00947e-15
      vertex -25.0607 -22.5607 5
    endloop
  endfacet
  facet normal -0.290282 -0.956941 0
    outer loop
      vertex -24.574 -22.8858 5
      vertex -24.2926 -22.9712 5.10063e-15
      vertex -24.2926 -22.9712 5
    endloop
  endfacet
  facet normal -0.290282 -0.956941 0
    outer loop
      vertex -24.2926 -22.9712 5.10063e-15
      vertex -24.574 -22.8858 5
      vertex -24.574 -22.8858 5.08167e-15
    endloop
  endfacet
  facet normal -0.0980233 -0.995184 0
    outer loop
      vertex -24.2926 -22.9712 5
      vertex -24 -23 3.075
      vertex -24 -23 5
    endloop
  endfacet
  facet normal -0.0980233 -0.995184 0
    outer loop
      vertex -24.2926 -22.9712 5
      vertex -24 -23 1.975
      vertex -24 -23 3.075
    endloop
  endfacet
  facet normal -0.0980233 -0.995184 0
    outer loop
      vertex -24.2926 -22.9712 5.10063e-15
      vertex -24 -23 1.975
      vertex -24.2926 -22.9712 5
    endloop
  endfacet
  facet normal -0.0980233 -0.995184 -0
    outer loop
      vertex -24 -23 1.975
      vertex -24.2926 -22.9712 5.10063e-15
      vertex -24 -23 5.10703e-15
    endloop
  endfacet
  facet normal 1 -0 0
    outer loop
      vertex 25.5 -21.5 5
      vertex 25.5 -20 4.44089e-15
      vertex 25.5 -20 5
    endloop
  endfacet
  facet normal 1 0 0
    outer loop
      vertex 25.5 -20 4.44089e-15
      vertex 25.5 -21.5 5
      vertex 25.5 -21.5 4.77396e-15
    endloop
  endfacet
  facet normal 0.634394 -0.77301 0
    outer loop
      vertex 24.8334 -22.7472 5.05089e-15
      vertex 25.0607 -22.5607 5
      vertex 24.8334 -22.7472 5
    endloop
  endfacet
  facet normal 0.634394 -0.77301 0
    outer loop
      vertex 25.0607 -22.5607 5
      vertex 24.8334 -22.7472 5.05089e-15
      vertex 25.0607 -22.5607 5.00947e-15
    endloop
  endfacet
  facet normal 0.471395 -0.881922 0
    outer loop
      vertex 24.574 -22.8858 5.08167e-15
      vertex 24.8334 -22.7472 5
      vertex 24.574 -22.8858 5
    endloop
  endfacet
  facet normal 0.471395 -0.881922 0
    outer loop
      vertex 24.8334 -22.7472 5
      vertex 24.574 -22.8858 5.08167e-15
      vertex 24.8334 -22.7472 5.05089e-15
    endloop
  endfacet
  facet normal 0.956941 -0.290282 0
    outer loop
      vertex 25.3858 -22.074 5
      vertex 25.4712 -21.7926 4.83894e-15
      vertex 25.4712 -21.7926 5
    endloop
  endfacet
  facet normal 0.956941 -0.290282 0
    outer loop
      vertex 25.4712 -21.7926 4.83894e-15
      vertex 25.3858 -22.074 5
      vertex 25.3858 -22.074 4.90142e-15
    endloop
  endfacet
  facet normal 0.995184 -0.0980233 0
    outer loop
      vertex 25.4712 -21.7926 5
      vertex 25.5 -21.5 4.77396e-15
      vertex 25.5 -21.5 5
    endloop
  endfacet
  facet normal 0.995184 -0.0980233 0
    outer loop
      vertex 25.5 -21.5 4.77396e-15
      vertex 25.4712 -21.7926 5
      vertex 25.4712 -21.7926 4.83894e-15
    endloop
  endfacet
  facet normal 0.77301 -0.634394 0
    outer loop
      vertex 25.0607 -22.5607 5
      vertex 25.2472 -22.3334 4.959e-15
      vertex 25.2472 -22.3334 5
    endloop
  endfacet
  facet normal 0.77301 -0.634394 0
    outer loop
      vertex 25.2472 -22.3334 4.959e-15
      vertex 25.0607 -22.5607 5
      vertex 25.0607 -22.5607 5.00947e-15
    endloop
  endfacet
  facet normal 0.881922 -0.471395 0
    outer loop
      vertex 25.2472 -22.3334 5
      vertex 25.3858 -22.074 4.90142e-15
      vertex 25.3858 -22.074 5
    endloop
  endfacet
  facet normal 0.881922 -0.471395 0
    outer loop
      vertex 25.3858 -22.074 4.90142e-15
      vertex 25.2472 -22.3334 5
      vertex 25.2472 -22.3334 4.959e-15
    endloop
  endfacet
  facet normal 0.290282 -0.956941 0
    outer loop
      vertex 24.2926 -22.9712 5.10063e-15
      vertex 24.574 -22.8858 5
      vertex 24.2926 -22.9712 5
    endloop
  endfacet
  facet normal 0.290282 -0.956941 0
    outer loop
      vertex 24.574 -22.8858 5
      vertex 24.2926 -22.9712 5.10063e-15
      vertex 24.574 -22.8858 5.08167e-15
    endloop
  endfacet
  facet normal 0.0980233 -0.995184 0
    outer loop
      vertex 24 -23 3.075
      vertex 24.2926 -22.9712 5
      vertex 24 -23 5
    endloop
  endfacet
  facet normal 0.0980233 -0.995184 0
    outer loop
      vertex 24 -23 1.975
      vertex 24.2926 -22.9712 5
      vertex 24 -23 3.075
    endloop
  endfacet
  facet normal 0.0980233 -0.995184 0
    outer loop
      vertex 24.2926 -22.9712 5.10063e-15
      vertex 24 -23 1.975
      vertex 24 -23 5.10703e-15
    endloop
  endfacet
  facet normal 0.0980233 -0.995184 0
    outer loop
      vertex 24 -23 1.975
      vertex 24.2926 -22.9712 5.10063e-15
      vertex 24.2926 -22.9712 5
    endloop
  endfacet
  facet normal -1 0 0
    outer loop
      vertex -23.5 -20 4.44089e-15
      vertex -23.5 -13.3333 5
      vertex -23.5 -13.3333 2.96059e-15
    endloop
  endfacet
  facet normal -1 -0 0
    outer loop
      vertex -23.5 -13.3333 5
      vertex -23.5 -20 4.44089e-15
      vertex -23.5 -20 5
    endloop
  endfacet
  facet normal 1 -0 0
    outer loop
      vertex 23.5 -20 5
      vertex 23.5 -13.3333 2.96059e-15
      vertex 23.5 -13.3333 5
    endloop
  endfacet
  facet normal 1 0 0
    outer loop
      vertex 23.5 -13.3333 2.96059e-15
      vertex 23.5 -20 5
      vertex 23.5 -20 4.44089e-15
    endloop
  endfacet
  facet normal 0 1 -0
    outer loop
      vertex -22 -13.3333 2.96059e-15
      vertex -23.5 -13.3333 5
      vertex -22 -13.3333 5
    endloop
  endfacet
  facet normal 0 1 0
    outer loop
      vertex -23.5 -13.3333 5
      vertex -22 -13.3333 2.96059e-15
      vertex -23.5 -13.3333 2.96059e-15
    endloop
  endfacet
  facet normal 0 1 -0
    outer loop
      vertex 23.5 -13.3333 2.96059e-15
      vertex 22 -13.3333 5
      vertex 23.5 -13.3333 5
    endloop
  endfacet
  facet normal 0 1 0
    outer loop
      vertex 22 -13.3333 5
      vertex 23.5 -13.3333 2.96059e-15
      vertex 22 -13.3333 2.96059e-15
    endloop
  endfacet
  facet normal 1 -0 0
    outer loop
      vertex -22 -20 5
      vertex -22 -13.3333 2.96059e-15
      vertex -22 -13.3333 5
    endloop
  endfacet
  facet normal 1 0 0
    outer loop
      vertex -22 -13.3333 2.96059e-15
      vertex -22 -20 5
      vertex -22 -20 4.44089e-15
    endloop
  endfacet
  facet normal 0 1 0
    outer loop
      vertex 22 -20 5
      vertex 0 -20 3.5
      vertex -22 -20 5
    endloop
  endfacet
  facet normal 0 1 0
    outer loop
      vertex 22 -20 5
      vertex 0.382683 -20 3.42388
      vertex 0 -20 3.5
    endloop
  endfacet
  facet normal 0 1 0
    outer loop
      vertex 22 -20 5
      vertex 0.707107 -20 3.20711
      vertex 0.382683 -20 3.42388
    endloop
  endfacet
  facet normal 0 1 0
    outer loop
      vertex 22 -20 5
      vertex 0.923879 -20 2.88268
      vertex 0.707107 -20 3.20711
    endloop
  endfacet
  facet normal 0 1 0
    outer loop
      vertex 22 -20 5
      vertex 1 -20 2.5
      vertex 0.923879 -20 2.88268
    endloop
  endfacet
  facet normal 0 1 -0
    outer loop
      vertex 22 -20 4.44089e-15
      vertex 1 -20 2.5
      vertex 22 -20 5
    endloop
  endfacet
  facet normal 0 1 0
    outer loop
      vertex 1 -20 2.5
      vertex 22 -20 4.44089e-15
      vertex 0.923879 -20 2.11732
    endloop
  endfacet
  facet normal 0 1 0
    outer loop
      vertex 0.923879 -20 2.11732
      vertex 22 -20 4.44089e-15
      vertex 0.707107 -20 1.79289
    endloop
  endfacet
  facet normal 0 1 0
    outer loop
      vertex 0.707107 -20 1.79289
      vertex 22 -20 4.44089e-15
      vertex 0.382683 -20 1.57612
    endloop
  endfacet
  facet normal 0 1 0
    outer loop
      vertex 0.382683 -20 1.57612
      vertex 22 -20 4.44089e-15
      vertex 0 -20 1.5
    endloop
  endfacet
  facet normal 0 1 -0
    outer loop
      vertex -0.382683 -20 3.42388
      vertex -22 -20 5
      vertex 0 -20 3.5
    endloop
  endfacet
  facet normal 0 1 -0
    outer loop
      vertex -0.707107 -20 3.20711
      vertex -22 -20 5
      vertex -0.382683 -20 3.42388
    endloop
  endfacet
  facet normal 0 1 -0
    outer loop
      vertex -0.923879 -20 2.88268
      vertex -22 -20 5
      vertex -0.707107 -20 3.20711
    endloop
  endfacet
  facet normal 0 1 -0
    outer loop
      vertex -1 -20 2.5
      vertex -22 -20 5
      vertex -0.923879 -20 2.88268
    endloop
  endfacet
  facet normal 0 1 0
    outer loop
      vertex -22 -20 4.44089e-15
      vertex -1 -20 2.5
      vertex -0.923879 -20 2.11732
    endloop
  endfacet
  facet normal 0 1 0
    outer loop
      vertex -22 -20 4.44089e-15
      vertex -0.923879 -20 2.11732
      vertex -0.707107 -20 1.79289
    endloop
  endfacet
  facet normal 0 1 0
    outer loop
      vertex -22 -20 4.44089e-15
      vertex -0.707107 -20 1.79289
      vertex -0.382683 -20 1.57612
    endloop
  endfacet
  facet normal 0 1 0
    outer loop
      vertex -22 -20 4.44089e-15
      vertex -0.382683 -20 1.57612
      vertex 0 -20 1.5
    endloop
  endfacet
  facet normal 0 1 0
    outer loop
      vertex -1 -20 2.5
      vertex -22 -20 4.44089e-15
      vertex -22 -20 5
    endloop
  endfacet
  facet normal 0 1 0
    outer loop
      vertex -22 -20 4.44089e-15
      vertex 0 -20 1.5
      vertex 22 -20 4.44089e-15
    endloop
  endfacet
  facet normal -1 0 0
    outer loop
      vertex 22 -20 4.44089e-15
      vertex 22 -13.3333 5
      vertex 22 -13.3333 2.96059e-15
    endloop
  endfacet
  facet normal -1 -0 0
    outer loop
      vertex 22 -13.3333 5
      vertex 22 -20 4.44089e-15
      vertex 22 -20 5
    endloop
  endfacet
  facet normal 1 0 0
    outer loop
      vertex -24 -23 1.975
      vertex -24 -20.6 2.325
      vertex -24 -23 3.075
    endloop
  endfacet
  facet normal 1 0 0
    outer loop
      vertex -24 -20.6 2.325
      vertex -24 -23 1.975
      vertex -24 -20.6 1.975
    endloop
  endfacet
  facet normal -1 0 0
    outer loop
      vertex 24 -23 1.975
      vertex 24 -20.6 2.325
      vertex 24 -20.6 1.975
    endloop
  endfacet
  facet normal -1 -0 0
    outer loop
      vertex 24 -20.6 2.325
      vertex 24 -23 1.975
      vertex 24 -23 3.075
    endloop
  endfacet
  facet normal 7.39644e-09 -0.298275 -0.95448
    outer loop
      vertex -0.923879 -22.3846 2.88268
      vertex -24 -23 3.075
      vertex -1 -21.16 2.5
    endloop
  endfacet
  facet normal 0 -0.298275 -0.95448
    outer loop
      vertex -24 -23 3.075
      vertex -0.923879 -22.3846 2.88268
      vertex -0.795378 -23 3.075
    endloop
  endfacet
  facet normal -1.5171e-08 -0.298275 -0.95448
    outer loop
      vertex -24 -20.6 2.325
      vertex -1 -21.16 2.5
      vertex -24 -23 3.075
    endloop
  endfacet
  facet normal 0 -0.298274 -0.95448
    outer loop
      vertex -1 -21.16 2.5
      vertex -24 -20.6 2.325
      vertex -0.96519 -20.6 2.325
    endloop
  endfacet
  facet normal 1.5171e-08 -0.298275 -0.95448
    outer loop
      vertex 24 -23 3.075
      vertex 1 -21.16 2.5
      vertex 24 -20.6 2.325
    endloop
  endfacet
  facet normal -7.39644e-09 -0.298275 -0.95448
    outer loop
      vertex 24 -23 3.075
      vertex 0.923879 -22.3846 2.88268
      vertex 1 -21.16 2.5
    endloop
  endfacet
  facet normal 0 -0.298275 -0.95448
    outer loop
      vertex 0.923879 -22.3846 2.88268
      vertex 24 -23 3.075
      vertex 0.795378 -23 3.075
    endloop
  endfacet
  facet normal -0 -0.298274 -0.95448
    outer loop
      vertex 24 -20.6 2.325
      vertex 1 -21.16 2.5
      vertex 0.96519 -20.6 2.325
    endloop
  endfacet
  facet normal 0 -1 0
    outer loop
      vertex -24 -20.6 1.975
      vertex -0.96519 -20.6 2.325
      vertex -24 -20.6 2.325
    endloop
  endfacet
  facet normal 0 -1 -0
    outer loop
      vertex -0.96519 -20.6 2.325
      vertex -24 -20.6 1.975
      vertex -0.923879 -20.6 2.11732
    endloop
  endfacet
  facet normal 0 -1 -0
    outer loop
      vertex -0.923879 -20.6 2.11732
      vertex -24 -20.6 1.975
      vertex -0.828786 -20.6 1.975
    endloop
  endfacet
  facet normal 0 -1 0
    outer loop
      vertex 24 -20.6 1.975
      vertex 0.96519 -20.6 2.325
      vertex 0.923879 -20.6 2.11732
    endloop
  endfacet
  facet normal 0 -1 0
    outer loop
      vertex 24 -20.6 1.975
      vertex 0.923879 -20.6 2.11732
      vertex 0.828786 -20.6 1.975
    endloop
  endfacet
  facet normal 0 -1 0
    outer loop
      vertex 0.96519 -20.6 2.325
      vertex 24 -20.6 1.975
      vertex 24 -20.6 2.325
    endloop
  endfacet
  facet normal -0 0 1
    outer loop
      vertex -24 -20.6 1.975
      vertex -0.828786 -23 1.975
      vertex -0.828786 -20.6 1.975
    endloop
  endfacet
  facet normal 0 0 1
    outer loop
      vertex -0.828786 -23 1.975
      vertex -24 -20.6 1.975
      vertex -24 -23 1.975
    endloop
  endfacet
  facet normal -0 0 1
    outer loop
      vertex 0.828786 -20.6 1.975
      vertex 24 -23 1.975
      vertex 24 -20.6 1.975
    endloop
  endfacet
  facet normal 0 0 1
    outer loop
      vertex 24 -23 1.975
      vertex 0.828786 -20.6 1.975
      vertex 0.828786 -23 1.975
    endloop
  endfacet
  facet normal -0.980785 0 -0.195093
    outer loop
      vertex 1 -21.16 2.5
      vertex 0.923879 -20 2.88268
      vertex 1 -20 2.5
    endloop
  endfacet
  facet normal -0.980785 -0 -0.195093
    outer loop
      vertex 0.923879 -20 2.88268
      vertex 1 -21.16 2.5
      vertex 0.923879 -22.3846 2.88268
    endloop
  endfacet
  facet normal -0.195093 0 -0.980785
    outer loop
      vertex 0 -23 3.5
      vertex 0.382683 -20 3.42388
      vertex 0.382683 -23 3.42388
    endloop
  endfacet
  facet normal -0.195093 0 -0.980785
    outer loop
      vertex 0.382683 -20 3.42388
      vertex 0 -23 3.5
      vertex 0 -20 3.5
    endloop
  endfacet
  facet normal 0.980785 -1.99154e-08 0.195092
    outer loop
      vertex -1 -20 2.5
      vertex -0.96519 -20.6 2.325
      vertex -0.923879 -20 2.11732
    endloop
  endfacet
  facet normal 0.980785 0 0.195092
    outer loop
      vertex -0.96519 -20.6 2.325
      vertex -1 -20 2.5
      vertex -1 -21.16 2.5
    endloop
  endfacet
  facet normal 0.980785 0 0.195092
    outer loop
      vertex -0.923879 -20 2.11732
      vertex -0.96519 -20.6 2.325
      vertex -0.923879 -20.6 2.11732
    endloop
  endfacet
  facet normal -0.831471 2.84111e-08 0.555569
    outer loop
      vertex 0.707107 -20 1.79289
      vertex 0.828786 -20.6 1.975
      vertex 0.923879 -20 2.11732
    endloop
  endfacet
  facet normal -0.831471 0 0.555568
    outer loop
      vertex 0.707107 -23 1.79289
      vertex 0.828786 -20.6 1.975
      vertex 0.707107 -20 1.79289
    endloop
  endfacet
  facet normal -0.831471 0 0.555568
    outer loop
      vertex 0.828786 -20.6 1.975
      vertex 0.707107 -23 1.79289
      vertex 0.828786 -23 1.975
    endloop
  endfacet
  facet normal -0.831471 0 0.555569
    outer loop
      vertex 0.923879 -20 2.11732
      vertex 0.828786 -20.6 1.975
      vertex 0.923879 -20.6 2.11732
    endloop
  endfacet
  facet normal -0.555569 0 0.831471
    outer loop
      vertex 0.382683 -20 1.57612
      vertex 0.707107 -23 1.79289
      vertex 0.707107 -20 1.79289
    endloop
  endfacet
  facet normal -0.555569 0 0.831471
    outer loop
      vertex 0.707107 -23 1.79289
      vertex 0.382683 -20 1.57612
      vertex 0.382683 -23 1.57612
    endloop
  endfacet
  facet normal -0.19509 0 0.980785
    outer loop
      vertex 0 -20 1.5
      vertex 0.382683 -23 1.57612
      vertex 0.382683 -20 1.57612
    endloop
  endfacet
  facet normal -0.19509 0 0.980785
    outer loop
      vertex 0.382683 -23 1.57612
      vertex 0 -20 1.5
      vertex 0 -23 1.5
    endloop
  endfacet
  facet normal -0.555569 0 -0.831471
    outer loop
      vertex 0.382683 -23 3.42388
      vertex 0.707107 -20 3.20711
      vertex 0.707107 -23 3.20711
    endloop
  endfacet
  facet normal -0.555569 0 -0.831471
    outer loop
      vertex 0.707107 -20 3.20711
      vertex 0.382683 -23 3.42388
      vertex 0.382683 -20 3.42388
    endloop
  endfacet
  facet normal -0.831471 0 -0.555569
    outer loop
      vertex 0.923879 -22.3846 2.88268
      vertex 0.707107 -20 3.20711
      vertex 0.923879 -20 2.88268
    endloop
  endfacet
  facet normal -0.831471 -9.30935e-08 -0.555569
    outer loop
      vertex 0.707107 -23 3.20711
      vertex 0.923879 -22.3846 2.88268
      vertex 0.795378 -23 3.075
    endloop
  endfacet
  facet normal -0.831471 0 -0.555569
    outer loop
      vertex 0.923879 -22.3846 2.88268
      vertex 0.707107 -23 3.20711
      vertex 0.707107 -20 3.20711
    endloop
  endfacet
  facet normal 0.195093 0 -0.980785
    outer loop
      vertex -0.382683 -23 3.42388
      vertex 0 -20 3.5
      vertex 0 -23 3.5
    endloop
  endfacet
  facet normal 0.195093 0 -0.980785
    outer loop
      vertex 0 -20 3.5
      vertex -0.382683 -23 3.42388
      vertex -0.382683 -20 3.42388
    endloop
  endfacet
  facet normal 0.555569 0 -0.831471
    outer loop
      vertex -0.707107 -23 3.20711
      vertex -0.382683 -20 3.42388
      vertex -0.382683 -23 3.42388
    endloop
  endfacet
  facet normal 0.555569 0 -0.831471
    outer loop
      vertex -0.382683 -20 3.42388
      vertex -0.707107 -23 3.20711
      vertex -0.707107 -20 3.20711
    endloop
  endfacet
  facet normal 0.980785 0 -0.195093
    outer loop
      vertex -0.923879 -20 2.88268
      vertex -1 -21.16 2.5
      vertex -1 -20 2.5
    endloop
  endfacet
  facet normal 0.980785 0 -0.195093
    outer loop
      vertex -1 -21.16 2.5
      vertex -0.923879 -20 2.88268
      vertex -0.923879 -22.3846 2.88268
    endloop
  endfacet
  facet normal 0.831471 0 -0.555569
    outer loop
      vertex -0.707107 -20 3.20711
      vertex -0.923879 -22.3846 2.88268
      vertex -0.923879 -20 2.88268
    endloop
  endfacet
  facet normal 0.831471 0 -0.555569
    outer loop
      vertex -0.707107 -23 3.20711
      vertex -0.923879 -22.3846 2.88268
      vertex -0.707107 -20 3.20711
    endloop
  endfacet
  facet normal 0.831471 -9.30935e-08 -0.555569
    outer loop
      vertex -0.923879 -22.3846 2.88268
      vertex -0.707107 -23 3.20711
      vertex -0.795378 -23 3.075
    endloop
  endfacet
  facet normal 0.831471 0 0.555569
    outer loop
      vertex -0.828786 -20.6 1.975
      vertex -0.923879 -20 2.11732
      vertex -0.923879 -20.6 2.11732
    endloop
  endfacet
  facet normal 0.831471 2.84111e-08 0.555569
    outer loop
      vertex -0.923879 -20 2.11732
      vertex -0.828786 -20.6 1.975
      vertex -0.707107 -20 1.79289
    endloop
  endfacet
  facet normal 0.831471 0 0.555568
    outer loop
      vertex -0.707107 -23 1.79289
      vertex -0.828786 -20.6 1.975
      vertex -0.828786 -23 1.975
    endloop
  endfacet
  facet normal 0.831471 0 0.555568
    outer loop
      vertex -0.828786 -20.6 1.975
      vertex -0.707107 -23 1.79289
      vertex -0.707107 -20 1.79289
    endloop
  endfacet
  facet normal 0.19509 0 0.980785
    outer loop
      vertex -0.382683 -20 1.57612
      vertex 0 -23 1.5
      vertex 0 -20 1.5
    endloop
  endfacet
  facet normal 0.19509 0 0.980785
    outer loop
      vertex 0 -23 1.5
      vertex -0.382683 -20 1.57612
      vertex -0.382683 -23 1.57612
    endloop
  endfacet
  facet normal 0.555569 0 0.831471
    outer loop
      vertex -0.707107 -20 1.79289
      vertex -0.382683 -23 1.57612
      vertex -0.382683 -20 1.57612
    endloop
  endfacet
  facet normal 0.555569 0 0.831471
    outer loop
      vertex -0.382683 -23 1.57612
      vertex -0.707107 -20 1.79289
      vertex -0.707107 -23 1.79289
    endloop
  endfacet
  facet normal -0.980785 0 0.195092
    outer loop
      vertex 0.96519 -20.6 2.325
      vertex 0.923879 -20 2.11732
      vertex 0.923879 -20.6 2.11732
    endloop
  endfacet
  facet normal -0.980785 -1.99154e-08 0.195092
    outer loop
      vertex 0.923879 -20 2.11732
      vertex 0.96519 -20.6 2.325
      vertex 1 -20 2.5
    endloop
  endfacet
  facet normal -0.980785 0 0.195092
    outer loop
      vertex 1 -20 2.5
      vertex 0.96519 -20.6 2.325
      vertex 1 -21.16 2.5
    endloop
  endfacet
endsolid OpenSCAD_Model
