solid OpenSCAD_Model
  facet normal 0 0 1
    outer loop
      vertex -4.95 -10 3
      vertex -1.65 6.66134e-16 3
      vertex -4.95 6.66134e-16 3
    endloop
  endfacet
  facet normal 0 0 1
    outer loop
      vertex 4.95 6.66134e-16 3
      vertex 1.65 6.66134e-16 3
      vertex 4.95 -10 3
    endloop
  endfacet
  facet normal 0 0 1
    outer loop
      vertex 1.65 -11 3
      vertex 4.95 -10 3
      vertex 1.65 6.66134e-16 3
    endloop
  endfacet
  facet normal 0 0 1
    outer loop
      vertex 1.6183 -11.3219 3
      vertex 4.95 -10 3
      vertex 1.65 -11 3
    endloop
  endfacet
  facet normal 0 0 1
    outer loop
      vertex 1.5244 -11.6314 3
      vertex 4.95 -10 3
      vertex 1.6183 -11.3219 3
    endloop
  endfacet
  facet normal 0 0 1
    outer loop
      vertex 1.37192 -11.9167 3
      vertex 4.95 -10 3
      vertex 1.5244 -11.6314 3
    endloop
  endfacet
  facet normal 0 0 1
    outer loop
      vertex 1.16673 -12.1667 3
      vertex 4.95 -10 3
      vertex 1.37192 -11.9167 3
    endloop
  endfacet
  facet normal 0 0 1
    outer loop
      vertex 4.95 -10 3
      vertex 1.16673 -12.1667 3
      vertex 11.2125 -13 3
    endloop
  endfacet
  facet normal -0 0 1
    outer loop
      vertex 0.916691 -12.3719 3
      vertex 11.2125 -13 3
      vertex 1.16673 -12.1667 3
    endloop
  endfacet
  facet normal -0 0 1
    outer loop
      vertex 0.631427 -12.5244 3
      vertex 11.2125 -13 3
      vertex 0.916691 -12.3719 3
    endloop
  endfacet
  facet normal -0 0 1
    outer loop
      vertex 0.321898 -12.6183 3
      vertex 11.2125 -13 3
      vertex 0.631427 -12.5244 3
    endloop
  endfacet
  facet normal -0 0 1
    outer loop
      vertex 0 -12.65 3
      vertex 11.2125 -13 3
      vertex 0.321898 -12.6183 3
    endloop
  endfacet
  facet normal 0 0 1
    outer loop
      vertex -1.65 6.66134e-16 3
      vertex -4.95 -10 3
      vertex -1.65 -11 3
    endloop
  endfacet
  facet normal 0 0 1
    outer loop
      vertex -1.65 -11 3
      vertex -4.95 -10 3
      vertex -1.6183 -11.3219 3
    endloop
  endfacet
  facet normal 0 0 1
    outer loop
      vertex -4.95 -10 3
      vertex -1.5244 -11.6314 3
      vertex -1.6183 -11.3219 3
    endloop
  endfacet
  facet normal 0 0 1
    outer loop
      vertex -4.95 -10 3
      vertex -1.37192 -11.9167 3
      vertex -1.5244 -11.6314 3
    endloop
  endfacet
  facet normal 0 0 1
    outer loop
      vertex -4.95 -10 3
      vertex -1.16673 -12.1667 3
      vertex -1.37192 -11.9167 3
    endloop
  endfacet
  facet normal 0 0 1
    outer loop
      vertex -11.2125 -13 3
      vertex -1.16673 -12.1667 3
      vertex -4.95 -10 3
    endloop
  endfacet
  facet normal 0 0 1
    outer loop
      vertex 0 -12.65 3
      vertex -11.2125 -13 3
      vertex 11.2125 -13 3
    endloop
  endfacet
  facet normal 0 0 1
    outer loop
      vertex -0.321898 -12.6183 3
      vertex -11.2125 -13 3
      vertex 0 -12.65 3
    endloop
  endfacet
  facet normal 0 0 1
    outer loop
      vertex -0.631427 -12.5244 3
      vertex -11.2125 -13 3
      vertex -0.321898 -12.6183 3
    endloop
  endfacet
  facet normal 0 0 1
    outer loop
      vertex -0.916691 -12.3719 3
      vertex -11.2125 -13 3
      vertex -0.631427 -12.5244 3
    endloop
  endfacet
  facet normal 0 0 1
    outer loop
      vertex -1.16673 -12.1667 3
      vertex -11.2125 -13 3
      vertex -0.916691 -12.3719 3
    endloop
  endfacet
  facet normal 0 0 1
    outer loop
      vertex 19.5625 -17 3
      vertex 30 -24 3
      vertex 30 -22 3
    endloop
  endfacet
  facet normal -0 0 1
    outer loop
      vertex -19.5625 -17 3
      vertex 30 -24 3
      vertex 19.5625 -17 3
    endloop
  endfacet
  facet normal 0 0 1
    outer loop
      vertex -30 -24 3
      vertex -19.5625 -17 3
      vertex -30 -22 3
    endloop
  endfacet
  facet normal 0 0 1
    outer loop
      vertex -19.5625 -17 3
      vertex -30 -24 3
      vertex 30 -24 3
    endloop
  endfacet
  facet normal 0 -1 0
    outer loop
      vertex -30 -24 -3
      vertex 30 -24 3
      vertex -30 -24 3
    endloop
  endfacet
  facet normal 0 -1 -0
    outer loop
      vertex 30 -24 3
      vertex -30 -24 -3
      vertex 30 -24 -3
    endloop
  endfacet
  facet normal -1 0 0
    outer loop
      vertex -30 -24 -3
      vertex -30 -22 3
      vertex -30 -22 -3
    endloop
  endfacet
  facet normal -1 -0 0
    outer loop
      vertex -30 -22 3
      vertex -30 -24 -3
      vertex -30 -24 3
    endloop
  endfacet
  facet normal -0.432029 0.90186 0
    outer loop
      vertex -4.95 -10 3
      vertex -11.2125 -13 0.999999
      vertex -11.2125 -13 3
    endloop
  endfacet
  facet normal -0.432029 0.90186 1.15912e-07
    outer loop
      vertex -4.95 -10 3
      vertex -11.2927 -13.0384 0.609818
      vertex -11.2125 -13 0.999999
    endloop
  endfacet
  facet normal -0.432029 0.90186 0
    outer loop
      vertex -4.95 -10 -3
      vertex -11.2927 -13.0384 0.609818
      vertex -4.95 -10 3
    endloop
  endfacet
  facet normal -0.432029 0.90186 -1.98786e-07
    outer loop
      vertex -11.2927 -13.0384 0.609818
      vertex -4.95 -10 -3
      vertex -11.5303 -13.1522 0.234632
    endloop
  endfacet
  facet normal -0.432028 0.90186 6.02544e-07
    outer loop
      vertex -11.5303 -13.1522 0.234632
      vertex -4.95 -10 -3
      vertex -11.9161 -13.3371 -0.11114
    endloop
  endfacet
  facet normal -0.432029 0.90186 -6.61968e-07
    outer loop
      vertex -14.573 -14.6098 -0.96157
      vertex -4.95 -10 -3
      vertex -15.3875 -15 -1
    endloop
  endfacet
  facet normal -0.432029 0.90186 7.5426e-07
    outer loop
      vertex -13.7898 -14.2346 -0.847758
      vertex -4.95 -10 -3
      vertex -14.573 -14.6098 -0.96157
    endloop
  endfacet
  facet normal -0.432029 0.90186 1.63833e-07
    outer loop
      vertex -13.068 -13.8889 -0.662939
      vertex -4.95 -10 -3
      vertex -13.7898 -14.2346 -0.847758
    endloop
  endfacet
  facet normal -0.432029 0.90186 -3.36825e-08
    outer loop
      vertex -12.4353 -13.5858 -0.414213
      vertex -4.95 -10 -3
      vertex -13.068 -13.8889 -0.662939
    endloop
  endfacet
  facet normal -0.432029 0.90186 -5.80792e-07
    outer loop
      vertex -11.9161 -13.3371 -0.11114
      vertex -4.95 -10 -3
      vertex -12.4353 -13.5858 -0.414213
    endloop
  endfacet
  facet normal -0.432029 0.90186 0
    outer loop
      vertex -19.5625 -17 1
      vertex -30 -22 3
      vertex -19.5625 -17 3
    endloop
  endfacet
  facet normal -0.432028 0.90186 -7.50441e-07
    outer loop
      vertex -30 -22 -3
      vertex -19.5625 -17 1
      vertex -19.4997 -16.9699 0.694642
    endloop
  endfacet
  facet normal -0.432032 0.901858 1.21212e-05
    outer loop
      vertex -30 -22 -3
      vertex -19.4997 -16.9699 0.694642
      vertex -19.4823 -16.9616 0.609818
    endloop
  endfacet
  facet normal -0.432029 0.90186 1.83243e-07
    outer loop
      vertex -30 -22 -3
      vertex -19.4823 -16.9616 0.609818
      vertex -19.2447 -16.8478 0.234632
    endloop
  endfacet
  facet normal -0.432028 0.90186 -2.61714e-06
    outer loop
      vertex -30 -22 -3
      vertex -19.2447 -16.8478 0.234632
      vertex -18.8589 -16.6629 -0.11114
    endloop
  endfacet
  facet normal -0.432029 0.90186 6.81947e-07
    outer loop
      vertex -30 -22 -3
      vertex -18.8589 -16.6629 -0.11114
      vertex -18.3397 -16.4142 -0.414213
    endloop
  endfacet
  facet normal -0.432028 0.90186 -3.21382e-06
    outer loop
      vertex -30 -22 -3
      vertex -18.3397 -16.4142 -0.414213
      vertex -17.707 -16.1111 -0.662939
    endloop
  endfacet
  facet normal -0.432029 0.90186 -7.88012e-07
    outer loop
      vertex -4.95 -10 -3
      vertex -16.202 -15.3902 -0.96157
      vertex -15.3875 -15 -1
    endloop
  endfacet
  facet normal -0.432029 0.90186 6.36358e-08
    outer loop
      vertex -30 -22 -3
      vertex -16.202 -15.3902 -0.96157
      vertex -4.95 -10 -3
    endloop
  endfacet
  facet normal -0.432029 0.90186 0
    outer loop
      vertex -19.5625 -17 1
      vertex -30 -22 -3
      vertex -30 -22 3
    endloop
  endfacet
  facet normal -0.432029 0.90186 4.00425e-06
    outer loop
      vertex -16.9852 -15.7654 -0.847758
      vertex -30 -22 -3
      vertex -17.707 -16.1111 -0.662939
    endloop
  endfacet
  facet normal -0.432029 0.90186 -9.21582e-07
    outer loop
      vertex -16.202 -15.3902 -0.96157
      vertex -30 -22 -3
      vertex -16.9852 -15.7654 -0.847758
    endloop
  endfacet
  facet normal 0 0 -1
    outer loop
      vertex 30 -24 -3
      vertex 4.95 -10 -3
      vertex 30 -22 -3
    endloop
  endfacet
  facet normal 0 0 -1
    outer loop
      vertex 1.65 -6.66134e-16 -3
      vertex 4.95 -10 -3
      vertex 1.65 -11 -3
    endloop
  endfacet
  facet normal 0 0 -1
    outer loop
      vertex 0.916691 -12.3719 -3
      vertex 4.95 -10 -3
      vertex 30 -24 -3
    endloop
  endfacet
  facet normal 0 0 -1
    outer loop
      vertex 4.95 -10 -3
      vertex 1.6183 -11.3219 -3
      vertex 1.65 -11 -3
    endloop
  endfacet
  facet normal 0 0 -1
    outer loop
      vertex 4.95 -10 -3
      vertex 1.5244 -11.6314 -3
      vertex 1.6183 -11.3219 -3
    endloop
  endfacet
  facet normal 0 0 -1
    outer loop
      vertex 4.95 -10 -3
      vertex 1.37192 -11.9167 -3
      vertex 1.5244 -11.6314 -3
    endloop
  endfacet
  facet normal 0 0 -1
    outer loop
      vertex 4.95 -10 -3
      vertex 1.16673 -12.1667 -3
      vertex 1.37192 -11.9167 -3
    endloop
  endfacet
  facet normal 0 0 -1
    outer loop
      vertex 4.95 -10 -3
      vertex 0.916691 -12.3719 -3
      vertex 1.16673 -12.1667 -3
    endloop
  endfacet
  facet normal 0 0 -1
    outer loop
      vertex 30 -24 -3
      vertex 0.631427 -12.5244 -3
      vertex 0.916691 -12.3719 -3
    endloop
  endfacet
  facet normal 0 0 -1
    outer loop
      vertex 30 -24 -3
      vertex 0.321898 -12.6183 -3
      vertex 0.631427 -12.5244 -3
    endloop
  endfacet
  facet normal 0 0 -1
    outer loop
      vertex 30 -24 -3
      vertex 0 -12.65 -3
      vertex 0.321898 -12.6183 -3
    endloop
  endfacet
  facet normal 0 0 -1
    outer loop
      vertex -30 -24 -3
      vertex 0 -12.65 -3
      vertex 30 -24 -3
    endloop
  endfacet
  facet normal -0 0 -1
    outer loop
      vertex 0 -12.65 -3
      vertex -30 -24 -3
      vertex -0.321898 -12.6183 -3
    endloop
  endfacet
  facet normal 0 0 -1
    outer loop
      vertex -1.65 -11 -3
      vertex -4.95 -10 -3
      vertex -1.65 -6.66134e-16 -3
    endloop
  endfacet
  facet normal 0 0 -1
    outer loop
      vertex -1.6183 -11.3219 -3
      vertex -4.95 -10 -3
      vertex -1.65 -11 -3
    endloop
  endfacet
  facet normal 0 0 -1
    outer loop
      vertex -1.5244 -11.6314 -3
      vertex -4.95 -10 -3
      vertex -1.6183 -11.3219 -3
    endloop
  endfacet
  facet normal 0 0 -1
    outer loop
      vertex -1.37192 -11.9167 -3
      vertex -4.95 -10 -3
      vertex -1.5244 -11.6314 -3
    endloop
  endfacet
  facet normal 0 0 -1
    outer loop
      vertex -1.16673 -12.1667 -3
      vertex -4.95 -10 -3
      vertex -1.37192 -11.9167 -3
    endloop
  endfacet
  facet normal 0 0 -1
    outer loop
      vertex -0.916691 -12.3719 -3
      vertex -4.95 -10 -3
      vertex -1.16673 -12.1667 -3
    endloop
  endfacet
  facet normal -0 0 -1
    outer loop
      vertex -0.321898 -12.6183 -3
      vertex -30 -24 -3
      vertex -0.631427 -12.5244 -3
    endloop
  endfacet
  facet normal 0 0 -1
    outer loop
      vertex -30 -24 -3
      vertex -0.916691 -12.3719 -3
      vertex -0.631427 -12.5244 -3
    endloop
  endfacet
  facet normal 0 0 -1
    outer loop
      vertex -30 -24 -3
      vertex -4.95 -10 -3
      vertex -0.916691 -12.3719 -3
    endloop
  endfacet
  facet normal 0 0 -1
    outer loop
      vertex -4.95 -10 -3
      vertex -30 -24 -3
      vertex -30 -22 -3
    endloop
  endfacet
  facet normal 0 0 -1
    outer loop
      vertex 4.95 -10 -3
      vertex 1.65 -6.66134e-16 -3
      vertex 4.95 -6.66134e-16 -3
    endloop
  endfacet
  facet normal -0 0 -1
    outer loop
      vertex -1.65 -6.66134e-16 -3
      vertex -4.95 -10 -3
      vertex -4.95 -6.66134e-16 -3
    endloop
  endfacet
  facet normal 0.432029 0.90186 0
    outer loop
      vertex 30 -22 3
      vertex 19.5625 -17 0.999999
      vertex 19.5625 -17 3
    endloop
  endfacet
  facet normal 0.432029 0.90186 -0
    outer loop
      vertex 30 -22 -3
      vertex 19.5625 -17 0.999999
      vertex 30 -22 3
    endloop
  endfacet
  facet normal 0.432029 0.90186 1.01614e-06
    outer loop
      vertex 19.5625 -17 0.999999
      vertex 30 -22 -3
      vertex 19.5451 -16.9917 0.915432
    endloop
  endfacet
  facet normal 0.432029 0.90186 2.31408e-06
    outer loop
      vertex 19.5451 -16.9917 0.915432
      vertex 30 -22 -3
      vertex 19.4823 -16.9616 0.609818
    endloop
  endfacet
  facet normal 0.432029 0.90186 1.83243e-07
    outer loop
      vertex 19.4823 -16.9616 0.609818
      vertex 30 -22 -3
      vertex 19.2447 -16.8478 0.234632
    endloop
  endfacet
  facet normal 0.432028 0.90186 -2.61714e-06
    outer loop
      vertex 19.2447 -16.8478 0.234632
      vertex 30 -22 -3
      vertex 18.8589 -16.6629 -0.11114
    endloop
  endfacet
  facet normal 0.432029 0.90186 6.81947e-07
    outer loop
      vertex 18.8589 -16.6629 -0.11114
      vertex 30 -22 -3
      vertex 18.3397 -16.4142 -0.414213
    endloop
  endfacet
  facet normal 0.432029 0.90186 6.49031e-07
    outer loop
      vertex 16.202 -15.3902 -0.96157
      vertex 30 -22 -3
      vertex 15.3875 -15 -1
    endloop
  endfacet
  facet normal 0.432029 0.90186 -9.21582e-07
    outer loop
      vertex 16.9852 -15.7654 -0.847758
      vertex 30 -22 -3
      vertex 16.202 -15.3902 -0.96157
    endloop
  endfacet
  facet normal 0.432029 0.90186 4.00425e-06
    outer loop
      vertex 17.707 -16.1111 -0.662939
      vertex 30 -22 -3
      vertex 16.9852 -15.7654 -0.847758
    endloop
  endfacet
  facet normal 0.432028 0.90186 -3.21382e-06
    outer loop
      vertex 18.3397 -16.4142 -0.414213
      vertex 30 -22 -3
      vertex 17.707 -16.1111 -0.662939
    endloop
  endfacet
  facet normal 0.432029 0.90186 -0
    outer loop
      vertex 11.2125 -13 0.999999
      vertex 4.95 -10 3
      vertex 11.2125 -13 3
    endloop
  endfacet
  facet normal 0.432029 0.90186 1.15912e-07
    outer loop
      vertex 11.2927 -13.0384 0.609818
      vertex 4.95 -10 3
      vertex 11.2125 -13 0.999999
    endloop
  endfacet
  facet normal 0.432029 0.90186 -1.98786e-07
    outer loop
      vertex 4.95 -10 -3
      vertex 11.2927 -13.0384 0.609818
      vertex 11.5303 -13.1522 0.234632
    endloop
  endfacet
  facet normal 0.432028 0.90186 6.02544e-07
    outer loop
      vertex 4.95 -10 -3
      vertex 11.5303 -13.1522 0.234632
      vertex 11.9161 -13.3371 -0.11114
    endloop
  endfacet
  facet normal 0.432029 0.90186 -5.80792e-07
    outer loop
      vertex 4.95 -10 -3
      vertex 11.9161 -13.3371 -0.11114
      vertex 12.4353 -13.5858 -0.414213
    endloop
  endfacet
  facet normal 0.432029 0.90186 1.71673e-08
    outer loop
      vertex 4.95 -10 -3
      vertex 15.3875 -15 -1
      vertex 30 -22 -3
    endloop
  endfacet
  facet normal 0.432029 0.90186 0
    outer loop
      vertex 11.2927 -13.0384 0.609818
      vertex 4.95 -10 -3
      vertex 4.95 -10 3
    endloop
  endfacet
  facet normal 0.432029 0.90186 -3.36825e-08
    outer loop
      vertex 13.068 -13.8889 -0.662939
      vertex 4.95 -10 -3
      vertex 12.4353 -13.5858 -0.414213
    endloop
  endfacet
  facet normal 0.432029 0.90186 1.63833e-07
    outer loop
      vertex 13.7898 -14.2346 -0.847758
      vertex 4.95 -10 -3
      vertex 13.068 -13.8889 -0.662939
    endloop
  endfacet
  facet normal 0.432029 0.90186 7.5426e-07
    outer loop
      vertex 14.573 -14.6098 -0.96157
      vertex 4.95 -10 -3
      vertex 13.7898 -14.2346 -0.847758
    endloop
  endfacet
  facet normal 0.432029 0.90186 -6.61968e-07
    outer loop
      vertex 15.3875 -15 -1
      vertex 4.95 -10 -3
      vertex 14.573 -14.6098 -0.96157
    endloop
  endfacet
  facet normal 1 -0 0
    outer loop
      vertex 30 -24 3
      vertex 30 -22 -3
      vertex 30 -22 3
    endloop
  endfacet
  facet normal 1 0 0
    outer loop
      vertex 30 -22 -3
      vertex 30 -24 3
      vertex 30 -24 -3
    endloop
  endfacet
  facet normal -1 0 0
    outer loop
      vertex -4.95 -10 -3
      vertex -4.95 6.66134e-16 3
      vertex -4.95 -6.66134e-16 -3
    endloop
  endfacet
  facet normal -1 -0 0
    outer loop
      vertex -4.95 6.66134e-16 3
      vertex -4.95 -10 -3
      vertex -4.95 -10 3
    endloop
  endfacet
  facet normal 1 -0 0
    outer loop
      vertex 4.95 -10 3
      vertex 4.95 -6.66134e-16 -3
      vertex 4.95 6.66134e-16 3
    endloop
  endfacet
  facet normal 1 0 0
    outer loop
      vertex 4.95 -6.66134e-16 -3
      vertex 4.95 -10 3
      vertex 4.95 -10 -3
    endloop
  endfacet
  facet normal 0 1 -2.22045e-16
    outer loop
      vertex -1.65 -6.66134e-16 -3
      vertex -4.95 6.66134e-16 3
      vertex -1.65 6.66134e-16 3
    endloop
  endfacet
  facet normal 0 1 -2.22045e-16
    outer loop
      vertex -4.95 6.66134e-16 3
      vertex -1.65 -6.66134e-16 -3
      vertex -4.95 -6.66134e-16 -3
    endloop
  endfacet
  facet normal 0 1 -2.22045e-16
    outer loop
      vertex 4.95 -6.66134e-16 -3
      vertex 1.65 6.66134e-16 3
      vertex 4.95 6.66134e-16 3
    endloop
  endfacet
  facet normal 0 1 -2.22045e-16
    outer loop
      vertex 1.65 6.66134e-16 3
      vertex 4.95 -6.66134e-16 -3
      vertex 1.65 -6.66134e-16 -3
    endloop
  endfacet
  facet normal -0.995185 0.0980163 0
    outer loop
      vertex 1.6183 -11.3219 -3
      vertex 1.65 -11 3
      vertex 1.65 -11 -3
    endloop
  endfacet
  facet normal -0.995185 0.0980163 0
    outer loop
      vertex 1.65 -11 3
      vertex 1.6183 -11.3219 -3
      vertex 1.6183 -11.3219 3
    endloop
  endfacet
  facet normal -0.95694 0.290286 0
    outer loop
      vertex 1.5244 -11.6314 -3
      vertex 1.6183 -11.3219 3
      vertex 1.6183 -11.3219 -3
    endloop
  endfacet
  facet normal -0.95694 0.290286 0
    outer loop
      vertex 1.6183 -11.3219 3
      vertex 1.5244 -11.6314 -3
      vertex 1.5244 -11.6314 3
    endloop
  endfacet
  facet normal -1 0 0
    outer loop
      vertex 1.65 -11 -3
      vertex 1.65 6.66134e-16 3
      vertex 1.65 -6.66134e-16 -3
    endloop
  endfacet
  facet normal -1 -0 0
    outer loop
      vertex 1.65 6.66134e-16 3
      vertex 1.65 -11 -3
      vertex 1.65 -11 3
    endloop
  endfacet
  facet normal 1 -0 0
    outer loop
      vertex -1.65 -11 3
      vertex -1.65 -6.66134e-16 -3
      vertex -1.65 6.66134e-16 3
    endloop
  endfacet
  facet normal 1 0 0
    outer loop
      vertex -1.65 -6.66134e-16 -3
      vertex -1.65 -11 3
      vertex -1.65 -11 -3
    endloop
  endfacet
  facet normal 0.995185 0.0980163 0
    outer loop
      vertex -1.6183 -11.3219 3
      vertex -1.65 -11 -3
      vertex -1.65 -11 3
    endloop
  endfacet
  facet normal 0.995185 0.0980163 0
    outer loop
      vertex -1.65 -11 -3
      vertex -1.6183 -11.3219 3
      vertex -1.6183 -11.3219 -3
    endloop
  endfacet
  facet normal -0.773011 0.634393 0
    outer loop
      vertex 1.16673 -12.1667 -3
      vertex 1.37192 -11.9167 3
      vertex 1.37192 -11.9167 -3
    endloop
  endfacet
  facet normal -0.773011 0.634393 0
    outer loop
      vertex 1.37192 -11.9167 3
      vertex 1.16673 -12.1667 -3
      vertex 1.16673 -12.1667 3
    endloop
  endfacet
  facet normal 0.95694 0.290286 0
    outer loop
      vertex -1.5244 -11.6314 3
      vertex -1.6183 -11.3219 -3
      vertex -1.6183 -11.3219 3
    endloop
  endfacet
  facet normal 0.95694 0.290286 0
    outer loop
      vertex -1.6183 -11.3219 -3
      vertex -1.5244 -11.6314 3
      vertex -1.5244 -11.6314 -3
    endloop
  endfacet
  facet normal 0.773011 0.634393 0
    outer loop
      vertex -1.16673 -12.1667 3
      vertex -1.37192 -11.9167 -3
      vertex -1.37192 -11.9167 3
    endloop
  endfacet
  facet normal 0.773011 0.634393 0
    outer loop
      vertex -1.37192 -11.9167 -3
      vertex -1.16673 -12.1667 3
      vertex -1.16673 -12.1667 -3
    endloop
  endfacet
  facet normal 0.290286 0.95694 -0
    outer loop
      vertex -0.321898 -12.6183 -3
      vertex -0.631427 -12.5244 3
      vertex -0.321898 -12.6183 3
    endloop
  endfacet
  facet normal 0.290286 0.95694 0
    outer loop
      vertex -0.631427 -12.5244 3
      vertex -0.321898 -12.6183 -3
      vertex -0.631427 -12.5244 -3
    endloop
  endfacet
  facet normal 0.634393 0.773011 -0
    outer loop
      vertex -0.916691 -12.3719 -3
      vertex -1.16673 -12.1667 3
      vertex -0.916691 -12.3719 3
    endloop
  endfacet
  facet normal 0.634393 0.773011 0
    outer loop
      vertex -1.16673 -12.1667 3
      vertex -0.916691 -12.3719 -3
      vertex -1.16673 -12.1667 -3
    endloop
  endfacet
  facet normal -0.0980163 0.995185 0
    outer loop
      vertex 0.321898 -12.6183 -3
      vertex 0 -12.65 3
      vertex 0.321898 -12.6183 3
    endloop
  endfacet
  facet normal -0.0980163 0.995185 0
    outer loop
      vertex 0 -12.65 3
      vertex 0.321898 -12.6183 -3
      vertex 0 -12.65 -3
    endloop
  endfacet
  facet normal -0.471396 0.881922 0
    outer loop
      vertex 0.916691 -12.3719 -3
      vertex 0.631427 -12.5244 3
      vertex 0.916691 -12.3719 3
    endloop
  endfacet
  facet normal -0.471396 0.881922 0
    outer loop
      vertex 0.631427 -12.5244 3
      vertex 0.916691 -12.3719 -3
      vertex 0.631427 -12.5244 -3
    endloop
  endfacet
  facet normal -0.881922 0.471396 0
    outer loop
      vertex 1.37192 -11.9167 -3
      vertex 1.5244 -11.6314 3
      vertex 1.5244 -11.6314 -3
    endloop
  endfacet
  facet normal -0.881922 0.471396 0
    outer loop
      vertex 1.5244 -11.6314 3
      vertex 1.37192 -11.9167 -3
      vertex 1.37192 -11.9167 3
    endloop
  endfacet
  facet normal 0.881922 0.471396 0
    outer loop
      vertex -1.37192 -11.9167 3
      vertex -1.5244 -11.6314 -3
      vertex -1.5244 -11.6314 3
    endloop
  endfacet
  facet normal 0.881922 0.471396 0
    outer loop
      vertex -1.5244 -11.6314 -3
      vertex -1.37192 -11.9167 3
      vertex -1.37192 -11.9167 -3
    endloop
  endfacet
  facet normal 0.0980163 0.995185 -0
    outer loop
      vertex 0 -12.65 -3
      vertex -0.321898 -12.6183 3
      vertex 0 -12.65 3
    endloop
  endfacet
  facet normal 0.0980163 0.995185 0
    outer loop
      vertex -0.321898 -12.6183 3
      vertex 0 -12.65 -3
      vertex -0.321898 -12.6183 -3
    endloop
  endfacet
  facet normal 0.471396 0.881922 -0
    outer loop
      vertex -0.631427 -12.5244 -3
      vertex -0.916691 -12.3719 3
      vertex -0.631427 -12.5244 3
    endloop
  endfacet
  facet normal 0.471396 0.881922 0
    outer loop
      vertex -0.916691 -12.3719 3
      vertex -0.631427 -12.5244 -3
      vertex -0.916691 -12.3719 -3
    endloop
  endfacet
  facet normal -0.290286 0.95694 0
    outer loop
      vertex 0.631427 -12.5244 -3
      vertex 0.321898 -12.6183 3
      vertex 0.631427 -12.5244 3
    endloop
  endfacet
  facet normal -0.290286 0.95694 0
    outer loop
      vertex 0.321898 -12.6183 3
      vertex 0.631427 -12.5244 -3
      vertex 0.321898 -12.6183 -3
    endloop
  endfacet
  facet normal -0.634393 0.773011 0
    outer loop
      vertex 1.16673 -12.1667 -3
      vertex 0.916691 -12.3719 3
      vertex 1.16673 -12.1667 3
    endloop
  endfacet
  facet normal -0.634393 0.773011 0
    outer loop
      vertex 0.916691 -12.3719 3
      vertex 1.16673 -12.1667 -3
      vertex 0.916691 -12.3719 -3
    endloop
  endfacet
  facet normal 0 -1 0
    outer loop
      vertex -11.2125 -13 0.999999
      vertex 11.2125 -13 3
      vertex -11.2125 -13 3
    endloop
  endfacet
  facet normal 0 -1 -0
    outer loop
      vertex 11.2125 -13 3
      vertex -11.2125 -13 0.999999
      vertex 11.2125 -13 0.999999
    endloop
  endfacet
  facet normal -3.34157e-08 0.995184 0.0980218
    outer loop
      vertex 19.4823 -16.9616 0.609818
      vertex -19.4997 -16.9699 0.694642
      vertex 19.5451 -16.9917 0.915432
    endloop
  endfacet
  facet normal 0 0.995183 0.098037
    outer loop
      vertex -19.4997 -16.9699 0.694642
      vertex 19.4823 -16.9616 0.609818
      vertex -19.4823 -16.9616 0.609818
    endloop
  endfacet
  facet normal 0 -0.634394 0.77301
    outer loop
      vertex -12.4353 -13.5858 -0.414213
      vertex 13.068 -13.8889 -0.662939
      vertex 12.4353 -13.5858 -0.414213
    endloop
  endfacet
  facet normal 0 -0.634394 0.77301
    outer loop
      vertex 13.068 -13.8889 -0.662939
      vertex -12.4353 -13.5858 -0.414213
      vertex -13.068 -13.8889 -0.662939
    endloop
  endfacet
  facet normal 0 -0.881921 0.471396
    outer loop
      vertex -11.9161 -13.3371 -0.11114
      vertex 11.5303 -13.1522 0.234632
      vertex -11.5303 -13.1522 0.234632
    endloop
  endfacet
  facet normal 0 -0.881921 0.471396
    outer loop
      vertex 11.5303 -13.1522 0.234632
      vertex -11.9161 -13.3371 -0.11114
      vertex 11.9161 -13.3371 -0.11114
    endloop
  endfacet
  facet normal 0 0.77301 0.634394
    outer loop
      vertex 18.3397 -16.4142 -0.414213
      vertex -18.8589 -16.6629 -0.11114
      vertex 18.8589 -16.6629 -0.11114
    endloop
  endfacet
  facet normal 0 0.77301 0.634394
    outer loop
      vertex -18.8589 -16.6629 -0.11114
      vertex 18.3397 -16.4142 -0.414213
      vertex -18.3397 -16.4142 -0.414213
    endloop
  endfacet
  facet normal -0 0.471394 0.881923
    outer loop
      vertex -16.9852 -15.7654 -0.847758
      vertex 17.707 -16.1111 -0.662939
      vertex 16.9852 -15.7654 -0.847758
    endloop
  endfacet
  facet normal 0 0.471394 0.881923
    outer loop
      vertex 17.707 -16.1111 -0.662939
      vertex -16.9852 -15.7654 -0.847758
      vertex -17.707 -16.1111 -0.662939
    endloop
  endfacet
  facet normal -0 0.290285 0.95694
    outer loop
      vertex -16.202 -15.3902 -0.96157
      vertex 16.9852 -15.7654 -0.847758
      vertex 16.202 -15.3902 -0.96157
    endloop
  endfacet
  facet normal 0 0.290285 0.95694
    outer loop
      vertex 16.9852 -15.7654 -0.847758
      vertex -16.202 -15.3902 -0.96157
      vertex -16.9852 -15.7654 -0.847758
    endloop
  endfacet
  facet normal -0 0.634395 0.773009
    outer loop
      vertex -17.707 -16.1111 -0.662939
      vertex 18.3397 -16.4142 -0.414213
      vertex 17.707 -16.1111 -0.662939
    endloop
  endfacet
  facet normal 0 0.634395 0.773009
    outer loop
      vertex 18.3397 -16.4142 -0.414213
      vertex -17.707 -16.1111 -0.662939
      vertex -18.3397 -16.4142 -0.414213
    endloop
  endfacet
  facet normal -0 0.0980191 0.995185
    outer loop
      vertex -15.3875 -15 -1
      vertex 16.202 -15.3902 -0.96157
      vertex 15.3875 -15 -1
    endloop
  endfacet
  facet normal 0 0.0980191 0.995185
    outer loop
      vertex 16.202 -15.3902 -0.96157
      vertex -15.3875 -15 -1
      vertex -16.202 -15.3902 -0.96157
    endloop
  endfacet
  facet normal 0 1 0
    outer loop
      vertex 19.5625 -17 3
      vertex -19.5625 -17 1
      vertex -19.5625 -17 3
    endloop
  endfacet
  facet normal -0 1 0
    outer loop
      vertex -19.5625 -17 1
      vertex 19.5625 -17 3
      vertex 19.5625 -17 0.999999
    endloop
  endfacet
  facet normal 0 -0.471395 0.881922
    outer loop
      vertex -13.068 -13.8889 -0.662939
      vertex 13.7898 -14.2346 -0.847758
      vertex 13.068 -13.8889 -0.662939
    endloop
  endfacet
  facet normal 0 -0.471395 0.881922
    outer loop
      vertex 13.7898 -14.2346 -0.847758
      vertex -13.068 -13.8889 -0.662939
      vertex -13.7898 -14.2346 -0.847758
    endloop
  endfacet
  facet normal 0 -0.290285 0.95694
    outer loop
      vertex -13.7898 -14.2346 -0.847758
      vertex 14.573 -14.6098 -0.96157
      vertex 13.7898 -14.2346 -0.847758
    endloop
  endfacet
  facet normal 0 -0.290285 0.95694
    outer loop
      vertex 14.573 -14.6098 -0.96157
      vertex -13.7898 -14.2346 -0.847758
      vertex -14.573 -14.6098 -0.96157
    endloop
  endfacet
  facet normal 0 -0.0980189 0.995185
    outer loop
      vertex -14.573 -14.6098 -0.96157
      vertex 15.3875 -15 -1
      vertex 14.573 -14.6098 -0.96157
    endloop
  endfacet
  facet normal 0 -0.0980189 0.995185
    outer loop
      vertex 15.3875 -15 -1
      vertex -14.573 -14.6098 -0.96157
      vertex -15.3875 -15 -1
    endloop
  endfacet
  facet normal 0 -0.995185 0.0980167
    outer loop
      vertex -11.2927 -13.0384 0.609818
      vertex 11.2125 -13 0.999999
      vertex -11.2125 -13 0.999999
    endloop
  endfacet
  facet normal 0 -0.995185 0.0980167
    outer loop
      vertex 11.2125 -13 0.999999
      vertex -11.2927 -13.0384 0.609818
      vertex 11.2927 -13.0384 0.609818
    endloop
  endfacet
  facet normal 0 -0.95694 0.290285
    outer loop
      vertex -11.5303 -13.1522 0.234632
      vertex 11.2927 -13.0384 0.609818
      vertex -11.2927 -13.0384 0.609818
    endloop
  endfacet
  facet normal 0 -0.95694 0.290285
    outer loop
      vertex 11.2927 -13.0384 0.609818
      vertex -11.5303 -13.1522 0.234632
      vertex 11.5303 -13.1522 0.234632
    endloop
  endfacet
  facet normal 1.49328e-09 0.995184 0.0980203
    outer loop
      vertex 19.5451 -16.9917 0.915432
      vertex -19.5625 -17 1
      vertex 19.5625 -17 0.999999
    endloop
  endfacet
  facet normal -5.84479e-09 0.995185 0.098017
    outer loop
      vertex -19.5625 -17 1
      vertex 19.5451 -16.9917 0.915432
      vertex -19.4997 -16.9699 0.694642
    endloop
  endfacet
  facet normal 0 -0.77301 0.634394
    outer loop
      vertex -12.4353 -13.5858 -0.414213
      vertex 11.9161 -13.3371 -0.11114
      vertex -11.9161 -13.3371 -0.11114
    endloop
  endfacet
  facet normal 0 -0.77301 0.634394
    outer loop
      vertex 11.9161 -13.3371 -0.11114
      vertex -12.4353 -13.5858 -0.414213
      vertex 12.4353 -13.5858 -0.414213
    endloop
  endfacet
  facet normal 0 0.881922 0.471395
    outer loop
      vertex 18.8589 -16.6629 -0.11114
      vertex -19.2447 -16.8478 0.234632
      vertex 19.2447 -16.8478 0.234632
    endloop
  endfacet
  facet normal 0 0.881922 0.471395
    outer loop
      vertex -19.2447 -16.8478 0.234632
      vertex 18.8589 -16.6629 -0.11114
      vertex -18.8589 -16.6629 -0.11114
    endloop
  endfacet
  facet normal 0 0.95694 0.290285
    outer loop
      vertex 19.2447 -16.8478 0.234632
      vertex -19.4823 -16.9616 0.609818
      vertex 19.4823 -16.9616 0.609818
    endloop
  endfacet
  facet normal 0 0.95694 0.290285
    outer loop
      vertex -19.4823 -16.9616 0.609818
      vertex 19.2447 -16.8478 0.234632
      vertex -19.2447 -16.8478 0.234632
    endloop
  endfacet
endsolid OpenSCAD_Model
