solid OpenSCAD_Model
  facet normal -1 0 0
    outer loop
      vertex 0 0 0
      vertex 0 20 19.1
      vertex 0 20 0
    endloop
  endfacet
  facet normal -1 -0 0
    outer loop
      vertex 0 20 19.1
      vertex 0 0 0
      vertex 0 0 19.1
    endloop
  endfacet
  facet normal -0 0 1
    outer loop
      vertex 4.8244 3.93143 19.1
      vertex 6.6 0 19.1
      vertex 6.6 20 19.1
    endloop
  endfacet
  facet normal 0 0 1
    outer loop
      vertex 6.6 0 19.1
      vertex 4.8244 3.93143 19.1
      vertex 4.95 3.3 19.1
    endloop
  endfacet
  facet normal 0 0 1
    outer loop
      vertex 6.6 20 19.1
      vertex 4.46673 4.46673 19.1
      vertex 4.8244 3.93143 19.1
    endloop
  endfacet
  facet normal 0 0 1
    outer loop
      vertex 6.6 20 19.1
      vertex 3.93143 4.8244 19.1
      vertex 4.46673 4.46673 19.1
    endloop
  endfacet
  facet normal 0 0 1
    outer loop
      vertex 6.6 20 19.1
      vertex 3.3 4.95 19.1
      vertex 3.93143 4.8244 19.1
    endloop
  endfacet
  facet normal -0 0 1
    outer loop
      vertex 0 20 19.1
      vertex 3.3 4.95 19.1
      vertex 6.6 20 19.1
    endloop
  endfacet
  facet normal 0 0 1
    outer loop
      vertex 3.3 4.95 19.1
      vertex 0 20 19.1
      vertex 2.66857 4.8244 19.1
    endloop
  endfacet
  facet normal 0 0 1
    outer loop
      vertex 2.66857 4.8244 19.1
      vertex 0 20 19.1
      vertex 2.13327 4.46673 19.1
    endloop
  endfacet
  facet normal 0 0 1
    outer loop
      vertex 0 0 19.1
      vertex 1.7756 3.93143 19.1
      vertex 0 20 19.1
    endloop
  endfacet
  facet normal 0 0 1
    outer loop
      vertex 2.13327 4.46673 19.1
      vertex 0 20 19.1
      vertex 1.7756 3.93143 19.1
    endloop
  endfacet
  facet normal -0 0 1
    outer loop
      vertex 4.8244 2.66857 19.1
      vertex 6.6 0 19.1
      vertex 4.95 3.3 19.1
    endloop
  endfacet
  facet normal -0 0 1
    outer loop
      vertex 4.46673 2.13327 19.1
      vertex 6.6 0 19.1
      vertex 4.8244 2.66857 19.1
    endloop
  endfacet
  facet normal -0 0 1
    outer loop
      vertex 3.93143 1.7756 19.1
      vertex 6.6 0 19.1
      vertex 4.46673 2.13327 19.1
    endloop
  endfacet
  facet normal -0 0 1
    outer loop
      vertex 3.3 1.65 19.1
      vertex 6.6 0 19.1
      vertex 3.93143 1.7756 19.1
    endloop
  endfacet
  facet normal 0 0 1
    outer loop
      vertex 0 0 19.1
      vertex 3.3 1.65 19.1
      vertex 2.66857 1.7756 19.1
    endloop
  endfacet
  facet normal 0 0 1
    outer loop
      vertex 3.3 1.65 19.1
      vertex 0 0 19.1
      vertex 6.6 0 19.1
    endloop
  endfacet
  facet normal 0 0 1
    outer loop
      vertex 2.13327 2.13327 19.1
      vertex 0 0 19.1
      vertex 2.66857 1.7756 19.1
    endloop
  endfacet
  facet normal 0 0 1
    outer loop
      vertex 1.7756 2.66857 19.1
      vertex 0 0 19.1
      vertex 2.13327 2.13327 19.1
    endloop
  endfacet
  facet normal 0 0 1
    outer loop
      vertex 1.65 3.3 19.1
      vertex 0 0 19.1
      vertex 1.7756 2.66857 19.1
    endloop
  endfacet
  facet normal 0 0 1
    outer loop
      vertex 1.7756 3.93143 19.1
      vertex 0 0 19.1
      vertex 1.65 3.3 19.1
    endloop
  endfacet
  facet normal 1 -0 0
    outer loop
      vertex 6.6 0 19.1
      vertex 6.6 20 0
      vertex 6.6 20 19.1
    endloop
  endfacet
  facet normal 1 0 0
    outer loop
      vertex 6.6 20 0
      vertex 6.6 0 19.1
      vertex 6.6 0 0
    endloop
  endfacet
  facet normal 0 1 0
    outer loop
      vertex 6.6 20 19.1
      vertex 3.3 20 15.6
      vertex 0 20 19.1
    endloop
  endfacet
  facet normal 0 1 0
    outer loop
      vertex 6.6 20 19.1
      vertex 3.85489 20 15.4896
      vertex 3.3 20 15.6
    endloop
  endfacet
  facet normal 0 1 0
    outer loop
      vertex 6.6 20 19.1
      vertex 4.3253 20 15.1753
      vertex 3.85489 20 15.4896
    endloop
  endfacet
  facet normal 0 1 0
    outer loop
      vertex 6.6 20 19.1
      vertex 4.63962 20 14.7049
      vertex 4.3253 20 15.1753
    endloop
  endfacet
  facet normal 0 1 0
    outer loop
      vertex 6.6 20 19.1
      vertex 4.75 20 14.15
      vertex 4.63962 20 14.7049
    endloop
  endfacet
  facet normal 0 1 0
    outer loop
      vertex 6.6 20 19.1
      vertex 4.63962 20 13.5951
      vertex 4.75 20 14.15
    endloop
  endfacet
  facet normal 0 1 0
    outer loop
      vertex 3.85489 20 12.8104
      vertex 3.3 20 3.1
      vertex 3.3 20 12.7
    endloop
  endfacet
  facet normal 0 1 0
    outer loop
      vertex 3.85489 20 2.98962
      vertex 3.85489 20 12.8104
      vertex 4.3253 20 13.1247
    endloop
  endfacet
  facet normal 0 1 0
    outer loop
      vertex 4.3253 20 2.6753
      vertex 4.3253 20 13.1247
      vertex 4.63962 20 13.5951
    endloop
  endfacet
  facet normal 0 1 -0
    outer loop
      vertex 6.6 20 0
      vertex 4.63962 20 13.5951
      vertex 6.6 20 19.1
    endloop
  endfacet
  facet normal 0 1 0
    outer loop
      vertex 3.85489 20 12.8104
      vertex 3.85489 20 2.98962
      vertex 3.3 20 3.1
    endloop
  endfacet
  facet normal 0 1 0
    outer loop
      vertex 4.3253 20 13.1247
      vertex 4.3253 20 2.6753
      vertex 3.85489 20 2.98962
    endloop
  endfacet
  facet normal 0 1 0
    outer loop
      vertex 4.63962 20 13.5951
      vertex 4.63962 20 2.20489
      vertex 4.3253 20 2.6753
    endloop
  endfacet
  facet normal 0 1 0
    outer loop
      vertex 4.63962 20 13.5951
      vertex 6.6 20 0
      vertex 4.63962 20 2.20489
    endloop
  endfacet
  facet normal 0 1 0
    outer loop
      vertex 3.85489 20 0.310374
      vertex 6.6 20 0
      vertex 3.3 20 0.2
    endloop
  endfacet
  facet normal 0 1 0
    outer loop
      vertex 4.3253 20 0.624695
      vertex 6.6 20 0
      vertex 3.85489 20 0.310374
    endloop
  endfacet
  facet normal 0 1 0
    outer loop
      vertex 4.63962 20 1.09511
      vertex 6.6 20 0
      vertex 4.3253 20 0.624695
    endloop
  endfacet
  facet normal 0 1 0
    outer loop
      vertex 4.75 20 1.65
      vertex 6.6 20 0
      vertex 4.63962 20 1.09511
    endloop
  endfacet
  facet normal 0 1 0
    outer loop
      vertex 4.63962 20 2.20489
      vertex 6.6 20 0
      vertex 4.75 20 1.65
    endloop
  endfacet
  facet normal 0 1 -0
    outer loop
      vertex 2.74511 20 15.4896
      vertex 0 20 19.1
      vertex 3.3 20 15.6
    endloop
  endfacet
  facet normal 0 1 -0
    outer loop
      vertex 2.27469 20 15.1753
      vertex 0 20 19.1
      vertex 2.74511 20 15.4896
    endloop
  endfacet
  facet normal 0 1 -0
    outer loop
      vertex 1.96037 20 14.7049
      vertex 0 20 19.1
      vertex 2.27469 20 15.1753
    endloop
  endfacet
  facet normal 0 1 -0
    outer loop
      vertex 1.85 20 14.15
      vertex 0 20 19.1
      vertex 1.96037 20 14.7049
    endloop
  endfacet
  facet normal 0 1 0
    outer loop
      vertex 1.96037 20 13.5951
      vertex 0 20 19.1
      vertex 1.85 20 14.15
    endloop
  endfacet
  facet normal 0 1 -0
    outer loop
      vertex 3.3 20 3.1
      vertex 2.74511 20 12.8104
      vertex 3.3 20 12.7
    endloop
  endfacet
  facet normal 0 1 0
    outer loop
      vertex 2.74511 20 2.98962
      vertex 2.74511 20 12.8104
      vertex 3.3 20 3.1
    endloop
  endfacet
  facet normal 0 1 0
    outer loop
      vertex 2.74511 20 12.8104
      vertex 2.74511 20 2.98962
      vertex 2.27469 20 13.1247
    endloop
  endfacet
  facet normal 0 1 0
    outer loop
      vertex 2.27469 20 2.6753
      vertex 2.27469 20 13.1247
      vertex 2.74511 20 2.98962
    endloop
  endfacet
  facet normal 0 1 0
    outer loop
      vertex 2.27469 20 13.1247
      vertex 2.27469 20 2.6753
      vertex 1.96037 20 13.5951
    endloop
  endfacet
  facet normal 0 1 0
    outer loop
      vertex 1.96037 20 2.20489
      vertex 1.96037 20 13.5951
      vertex 2.27469 20 2.6753
    endloop
  endfacet
  facet normal 0 1 0
    outer loop
      vertex 0 20 0
      vertex 1.96037 20 13.5951
      vertex 1.96037 20 2.20489
    endloop
  endfacet
  facet normal 0 1 0
    outer loop
      vertex 0 20 0
      vertex 1.96037 20 2.20489
      vertex 1.85 20 1.65
    endloop
  endfacet
  facet normal 0 1 0
    outer loop
      vertex 1.96037 20 13.5951
      vertex 0 20 0
      vertex 0 20 19.1
    endloop
  endfacet
  facet normal 0 1 0
    outer loop
      vertex 1.96037 20 1.09511
      vertex 0 20 0
      vertex 1.85 20 1.65
    endloop
  endfacet
  facet normal 0 1 0
    outer loop
      vertex 2.27469 20 0.624695
      vertex 0 20 0
      vertex 1.96037 20 1.09511
    endloop
  endfacet
  facet normal 0 1 0
    outer loop
      vertex 2.74511 20 0.310374
      vertex 0 20 0
      vertex 2.27469 20 0.624695
    endloop
  endfacet
  facet normal 0 1 0
    outer loop
      vertex 3.3 20 0.2
      vertex 0 20 0
      vertex 2.74511 20 0.310374
    endloop
  endfacet
  facet normal 0 1 0
    outer loop
      vertex 0 20 0
      vertex 3.3 20 0.2
      vertex 6.6 20 0
    endloop
  endfacet
  facet normal 0 0 -1
    outer loop
      vertex 4.8244 3.93143 0
      vertex 6.6 0 0
      vertex 4.95 3.3 0
    endloop
  endfacet
  facet normal 0 0 -1
    outer loop
      vertex 6.6 0 0
      vertex 4.8244 2.66857 0
      vertex 4.95 3.3 0
    endloop
  endfacet
  facet normal 0 0 -1
    outer loop
      vertex 6.6 0 0
      vertex 4.46673 2.13327 0
      vertex 4.8244 2.66857 0
    endloop
  endfacet
  facet normal 0 0 -1
    outer loop
      vertex 6.6 0 0
      vertex 3.93143 1.7756 0
      vertex 4.46673 2.13327 0
    endloop
  endfacet
  facet normal 0 0 -1
    outer loop
      vertex 6.6 0 0
      vertex 3.3 1.65 0
      vertex 3.93143 1.7756 0
    endloop
  endfacet
  facet normal 0 0 -1
    outer loop
      vertex 0 0 0
      vertex 3.3 1.65 0
      vertex 6.6 0 0
    endloop
  endfacet
  facet normal -0 0 -1
    outer loop
      vertex 1.7756 2.66857 0
      vertex 0 0 0
      vertex 1.65 3.3 0
    endloop
  endfacet
  facet normal -0 0 -1
    outer loop
      vertex 2.13327 2.13327 0
      vertex 0 0 0
      vertex 1.7756 2.66857 0
    endloop
  endfacet
  facet normal -0 0 -1
    outer loop
      vertex 2.66857 1.7756 0
      vertex 0 0 0
      vertex 2.13327 2.13327 0
    endloop
  endfacet
  facet normal -0 0 -1
    outer loop
      vertex 3.3 1.65 0
      vertex 0 0 0
      vertex 2.66857 1.7756 0
    endloop
  endfacet
  facet normal 0 0 -1
    outer loop
      vertex 6.6 0 0
      vertex 4.8244 3.93143 0
      vertex 6.6 20 0
    endloop
  endfacet
  facet normal 0 0 -1
    outer loop
      vertex 4.46673 4.46673 0
      vertex 6.6 20 0
      vertex 4.8244 3.93143 0
    endloop
  endfacet
  facet normal 0 0 -1
    outer loop
      vertex 3.93143 4.8244 0
      vertex 6.6 20 0
      vertex 4.46673 4.46673 0
    endloop
  endfacet
  facet normal 0 0 -1
    outer loop
      vertex 3.3 4.95 0
      vertex 6.6 20 0
      vertex 3.93143 4.8244 0
    endloop
  endfacet
  facet normal 0 0 -1
    outer loop
      vertex 0 20 0
      vertex 3.3 4.95 0
      vertex 2.66857 4.8244 0
    endloop
  endfacet
  facet normal 0 0 -1
    outer loop
      vertex 0 20 0
      vertex 2.66857 4.8244 0
      vertex 2.13327 4.46673 0
    endloop
  endfacet
  facet normal 0 0 -1
    outer loop
      vertex 0 20 0
      vertex 2.13327 4.46673 0
      vertex 1.7756 3.93143 0
    endloop
  endfacet
  facet normal 0 0 -1
    outer loop
      vertex 0 0 0
      vertex 1.7756 3.93143 0
      vertex 1.65 3.3 0
    endloop
  endfacet
  facet normal 0 0 -1
    outer loop
      vertex 0 20 0
      vertex 1.7756 3.93143 0
      vertex 0 0 0
    endloop
  endfacet
  facet normal 0 0 -1
    outer loop
      vertex 3.3 4.95 0
      vertex 0 20 0
      vertex 6.6 20 0
    endloop
  endfacet
  facet normal 0 -1 0
    outer loop
      vertex 0 0 0
      vertex 6.6 0 19.1
      vertex 0 0 19.1
    endloop
  endfacet
  facet normal 0 -1 -0
    outer loop
      vertex 6.6 0 19.1
      vertex 0 0 0
      vertex 6.6 0 0
    endloop
  endfacet
  facet normal -0.980785 -0.19509 0
    outer loop
      vertex 4.95 3.3 0
      vertex 4.8244 3.93143 19.1
      vertex 4.8244 3.93143 0
    endloop
  endfacet
  facet normal -0.980785 -0.19509 0
    outer loop
      vertex 4.8244 3.93143 19.1
      vertex 4.95 3.3 0
      vertex 4.95 3.3 19.1
    endloop
  endfacet
  facet normal 0.980785 -0.19509 0
    outer loop
      vertex 1.65 3.3 19.1
      vertex 1.7756 3.93143 0
      vertex 1.7756 3.93143 19.1
    endloop
  endfacet
  facet normal 0.980785 -0.19509 0
    outer loop
      vertex 1.7756 3.93143 0
      vertex 1.65 3.3 19.1
      vertex 1.65 3.3 0
    endloop
  endfacet
  facet normal -0.19509 -0.980785 0
    outer loop
      vertex 3.3 4.95 0
      vertex 3.93143 4.8244 19.1
      vertex 3.3 4.95 19.1
    endloop
  endfacet
  facet normal -0.19509 -0.980785 -0
    outer loop
      vertex 3.93143 4.8244 19.1
      vertex 3.3 4.95 0
      vertex 3.93143 4.8244 0
    endloop
  endfacet
  facet normal -0.555571 -0.831469 0
    outer loop
      vertex 3.93143 4.8244 0
      vertex 4.46673 4.46673 19.1
      vertex 3.93143 4.8244 19.1
    endloop
  endfacet
  facet normal -0.555571 -0.831469 -0
    outer loop
      vertex 4.46673 4.46673 19.1
      vertex 3.93143 4.8244 0
      vertex 4.46673 4.46673 0
    endloop
  endfacet
  facet normal -0.831469 -0.555571 0
    outer loop
      vertex 4.8244 3.93143 0
      vertex 4.46673 4.46673 19.1
      vertex 4.46673 4.46673 0
    endloop
  endfacet
  facet normal -0.831469 -0.555571 0
    outer loop
      vertex 4.46673 4.46673 19.1
      vertex 4.8244 3.93143 0
      vertex 4.8244 3.93143 19.1
    endloop
  endfacet
  facet normal 0.555571 -0.831469 0
    outer loop
      vertex 2.13327 4.46673 0
      vertex 2.66857 4.8244 19.1
      vertex 2.13327 4.46673 19.1
    endloop
  endfacet
  facet normal 0.555571 -0.831469 0
    outer loop
      vertex 2.66857 4.8244 19.1
      vertex 2.13327 4.46673 0
      vertex 2.66857 4.8244 0
    endloop
  endfacet
  facet normal 0.83147 -0.55557 0
    outer loop
      vertex 1.7756 3.93143 19.1
      vertex 2.13327 4.46673 0
      vertex 2.13327 4.46673 19.1
    endloop
  endfacet
  facet normal 0.83147 -0.55557 0
    outer loop
      vertex 2.13327 4.46673 0
      vertex 1.7756 3.93143 19.1
      vertex 1.7756 3.93143 0
    endloop
  endfacet
  facet normal 0.19509 -0.980785 0
    outer loop
      vertex 2.66857 4.8244 0
      vertex 3.3 4.95 19.1
      vertex 2.66857 4.8244 19.1
    endloop
  endfacet
  facet normal 0.19509 -0.980785 0
    outer loop
      vertex 3.3 4.95 19.1
      vertex 2.66857 4.8244 0
      vertex 3.3 4.95 0
    endloop
  endfacet
  facet normal -0.980785 0.19509 0
    outer loop
      vertex 4.8244 2.66857 0
      vertex 4.95 3.3 19.1
      vertex 4.95 3.3 0
    endloop
  endfacet
  facet normal -0.980785 0.19509 0
    outer loop
      vertex 4.95 3.3 19.1
      vertex 4.8244 2.66857 0
      vertex 4.8244 2.66857 19.1
    endloop
  endfacet
  facet normal 0.55557 0.83147 -0
    outer loop
      vertex 2.66857 1.7756 0
      vertex 2.13327 2.13327 19.1
      vertex 2.66857 1.7756 19.1
    endloop
  endfacet
  facet normal 0.55557 0.83147 0
    outer loop
      vertex 2.13327 2.13327 19.1
      vertex 2.66857 1.7756 0
      vertex 2.13327 2.13327 0
    endloop
  endfacet
  facet normal 0.980785 0.19509 0
    outer loop
      vertex 1.7756 2.66857 19.1
      vertex 1.65 3.3 0
      vertex 1.65 3.3 19.1
    endloop
  endfacet
  facet normal 0.980785 0.19509 0
    outer loop
      vertex 1.65 3.3 0
      vertex 1.7756 2.66857 19.1
      vertex 1.7756 2.66857 0
    endloop
  endfacet
  facet normal -0.831469 0.555571 0
    outer loop
      vertex 4.46673 2.13327 0
      vertex 4.8244 2.66857 19.1
      vertex 4.8244 2.66857 0
    endloop
  endfacet
  facet normal -0.831469 0.555571 0
    outer loop
      vertex 4.8244 2.66857 19.1
      vertex 4.46673 2.13327 0
      vertex 4.46673 2.13327 19.1
    endloop
  endfacet
  facet normal -0.19509 0.980785 0
    outer loop
      vertex 3.93143 1.7756 0
      vertex 3.3 1.65 19.1
      vertex 3.93143 1.7756 19.1
    endloop
  endfacet
  facet normal -0.19509 0.980785 0
    outer loop
      vertex 3.3 1.65 19.1
      vertex 3.93143 1.7756 0
      vertex 3.3 1.65 0
    endloop
  endfacet
  facet normal 0.19509 0.980785 -0
    outer loop
      vertex 3.3 1.65 0
      vertex 2.66857 1.7756 19.1
      vertex 3.3 1.65 19.1
    endloop
  endfacet
  facet normal 0.19509 0.980785 0
    outer loop
      vertex 2.66857 1.7756 19.1
      vertex 3.3 1.65 0
      vertex 2.66857 1.7756 0
    endloop
  endfacet
  facet normal 0.83147 0.55557 0
    outer loop
      vertex 2.13327 2.13327 19.1
      vertex 1.7756 2.66857 0
      vertex 1.7756 2.66857 19.1
    endloop
  endfacet
  facet normal 0.83147 0.55557 0
    outer loop
      vertex 1.7756 2.66857 0
      vertex 2.13327 2.13327 19.1
      vertex 2.13327 2.13327 0
    endloop
  endfacet
  facet normal -0.55557 0.83147 0
    outer loop
      vertex 4.46673 2.13327 0
      vertex 3.93143 1.7756 19.1
      vertex 4.46673 2.13327 19.1
    endloop
  endfacet
  facet normal -0.55557 0.83147 0
    outer loop
      vertex 3.93143 1.7756 19.1
      vertex 4.46673 2.13327 0
      vertex 3.93143 1.7756 0
    endloop
  endfacet
  facet normal -0.980785 0 0.195092
    outer loop
      vertex 4.63962 6.6 1.09511
      vertex 4.75 20 1.65
      vertex 4.63962 20 1.09511
    endloop
  endfacet
  facet normal -0.980785 0 0.195092
    outer loop
      vertex 4.75 20 1.65
      vertex 4.63962 6.6 1.09511
      vertex 4.75 6.6 1.65
    endloop
  endfacet
  facet normal 0.19509 0 0.980785
    outer loop
      vertex 2.74511 20 0.310374
      vertex 3.3 6.6 0.2
      vertex 3.3 20 0.2
    endloop
  endfacet
  facet normal 0.19509 0 0.980785
    outer loop
      vertex 3.3 6.6 0.2
      vertex 2.74511 20 0.310374
      vertex 2.74511 6.6 0.310374
    endloop
  endfacet
  facet normal -0.555571 0 -0.831469
    outer loop
      vertex 3.85489 6.6 2.98962
      vertex 4.3253 20 2.6753
      vertex 4.3253 6.6 2.6753
    endloop
  endfacet
  facet normal -0.555571 0 -0.831469
    outer loop
      vertex 4.3253 20 2.6753
      vertex 3.85489 6.6 2.98962
      vertex 3.85489 20 2.98962
    endloop
  endfacet
  facet normal -0.555571 0 0.831469
    outer loop
      vertex 3.85489 20 0.310374
      vertex 4.3253 6.6 0.624695
      vertex 4.3253 20 0.624695
    endloop
  endfacet
  facet normal -0.555571 0 0.831469
    outer loop
      vertex 4.3253 6.6 0.624695
      vertex 3.85489 20 0.310374
      vertex 3.85489 6.6 0.310374
    endloop
  endfacet
  facet normal -0.83147 0 0.55557
    outer loop
      vertex 4.3253 6.6 0.624695
      vertex 4.63962 20 1.09511
      vertex 4.3253 20 0.624695
    endloop
  endfacet
  facet normal -0.83147 0 0.55557
    outer loop
      vertex 4.63962 20 1.09511
      vertex 4.3253 6.6 0.624695
      vertex 4.63962 6.6 1.09511
    endloop
  endfacet
  facet normal -0.19509 0 0.980785
    outer loop
      vertex 3.3 20 0.2
      vertex 3.85489 6.6 0.310374
      vertex 3.85489 20 0.310374
    endloop
  endfacet
  facet normal -0.19509 0 0.980785
    outer loop
      vertex 3.85489 6.6 0.310374
      vertex 3.3 20 0.2
      vertex 3.3 6.6 0.2
    endloop
  endfacet
  facet normal 0.83147 -0 0.55557
    outer loop
      vertex 1.96037 6.6 1.09511
      vertex 2.27469 20 0.624695
      vertex 1.96037 20 1.09511
    endloop
  endfacet
  facet normal 0.83147 0 0.55557
    outer loop
      vertex 2.27469 20 0.624695
      vertex 1.96037 6.6 1.09511
      vertex 2.27469 6.6 0.624695
    endloop
  endfacet
  facet normal 0 1 0
    outer loop
      vertex 3.85489 6.6 2.98962
      vertex 2.74511 6.6 2.98962
      vertex 3.3 6.6 3.1
    endloop
  endfacet
  facet normal 0 1 0
    outer loop
      vertex 4.3253 6.6 2.6753
      vertex 2.74511 6.6 2.98962
      vertex 3.85489 6.6 2.98962
    endloop
  endfacet
  facet normal 0 1 0
    outer loop
      vertex 4.3253 6.6 2.6753
      vertex 2.27469 6.6 2.6753
      vertex 2.74511 6.6 2.98962
    endloop
  endfacet
  facet normal 0 1 0
    outer loop
      vertex 4.63962 6.6 2.20489
      vertex 2.27469 6.6 2.6753
      vertex 4.3253 6.6 2.6753
    endloop
  endfacet
  facet normal 0 1 0
    outer loop
      vertex 4.63962 6.6 2.20489
      vertex 1.96037 6.6 2.20489
      vertex 2.27469 6.6 2.6753
    endloop
  endfacet
  facet normal 0 1 0
    outer loop
      vertex 4.75 6.6 1.65
      vertex 1.96037 6.6 2.20489
      vertex 4.63962 6.6 2.20489
    endloop
  endfacet
  facet normal 0 1 0
    outer loop
      vertex 4.75 6.6 1.65
      vertex 1.85 6.6 1.65
      vertex 1.96037 6.6 2.20489
    endloop
  endfacet
  facet normal 0 1 -0
    outer loop
      vertex 4.63962 6.6 1.09511
      vertex 1.85 6.6 1.65
      vertex 4.75 6.6 1.65
    endloop
  endfacet
  facet normal 0 1 0
    outer loop
      vertex 4.63962 6.6 1.09511
      vertex 1.96037 6.6 1.09511
      vertex 1.85 6.6 1.65
    endloop
  endfacet
  facet normal 0 1 -0
    outer loop
      vertex 4.3253 6.6 0.624695
      vertex 1.96037 6.6 1.09511
      vertex 4.63962 6.6 1.09511
    endloop
  endfacet
  facet normal 0 1 0
    outer loop
      vertex 4.3253 6.6 0.624695
      vertex 2.27469 6.6 0.624695
      vertex 1.96037 6.6 1.09511
    endloop
  endfacet
  facet normal 0 1 -0
    outer loop
      vertex 3.85489 6.6 0.310374
      vertex 2.27469 6.6 0.624695
      vertex 4.3253 6.6 0.624695
    endloop
  endfacet
  facet normal 0 1 0
    outer loop
      vertex 3.85489 6.6 0.310374
      vertex 2.74511 6.6 0.310374
      vertex 2.27469 6.6 0.624695
    endloop
  endfacet
  facet normal -0 1 0
    outer loop
      vertex 2.74511 6.6 0.310374
      vertex 3.85489 6.6 0.310374
      vertex 3.3 6.6 0.2
    endloop
  endfacet
  facet normal 0.980785 -0 0.19509
    outer loop
      vertex 1.85 6.6 1.65
      vertex 1.96037 20 1.09511
      vertex 1.85 20 1.65
    endloop
  endfacet
  facet normal 0.980785 0 0.19509
    outer loop
      vertex 1.96037 20 1.09511
      vertex 1.85 6.6 1.65
      vertex 1.96037 6.6 1.09511
    endloop
  endfacet
  facet normal 0.55557 0 0.83147
    outer loop
      vertex 2.27469 20 0.624695
      vertex 2.74511 6.6 0.310374
      vertex 2.74511 20 0.310374
    endloop
  endfacet
  facet normal 0.55557 0 0.83147
    outer loop
      vertex 2.74511 6.6 0.310374
      vertex 2.27469 20 0.624695
      vertex 2.27469 6.6 0.624695
    endloop
  endfacet
  facet normal -0.980785 0 -0.195092
    outer loop
      vertex 4.75 6.6 1.65
      vertex 4.63962 20 2.20489
      vertex 4.75 20 1.65
    endloop
  endfacet
  facet normal -0.980785 -0 -0.195092
    outer loop
      vertex 4.63962 20 2.20489
      vertex 4.75 6.6 1.65
      vertex 4.63962 6.6 2.20489
    endloop
  endfacet
  facet normal 0.19509 0 -0.980785
    outer loop
      vertex 2.74511 6.6 2.98962
      vertex 3.3 20 3.1
      vertex 3.3 6.6 3.1
    endloop
  endfacet
  facet normal 0.19509 0 -0.980785
    outer loop
      vertex 3.3 20 3.1
      vertex 2.74511 6.6 2.98962
      vertex 2.74511 20 2.98962
    endloop
  endfacet
  facet normal 0.83147 0 -0.55557
    outer loop
      vertex 2.27469 6.6 2.6753
      vertex 1.96037 20 2.20489
      vertex 2.27469 20 2.6753
    endloop
  endfacet
  facet normal 0.83147 0 -0.55557
    outer loop
      vertex 1.96037 20 2.20489
      vertex 2.27469 6.6 2.6753
      vertex 1.96037 6.6 2.20489
    endloop
  endfacet
  facet normal 0.980785 0 -0.19509
    outer loop
      vertex 1.96037 6.6 2.20489
      vertex 1.85 20 1.65
      vertex 1.96037 20 2.20489
    endloop
  endfacet
  facet normal 0.980785 0 -0.19509
    outer loop
      vertex 1.85 20 1.65
      vertex 1.96037 6.6 2.20489
      vertex 1.85 6.6 1.65
    endloop
  endfacet
  facet normal -0.83147 0 -0.55557
    outer loop
      vertex 4.63962 6.6 2.20489
      vertex 4.3253 20 2.6753
      vertex 4.63962 20 2.20489
    endloop
  endfacet
  facet normal -0.83147 -0 -0.55557
    outer loop
      vertex 4.3253 20 2.6753
      vertex 4.63962 6.6 2.20489
      vertex 4.3253 6.6 2.6753
    endloop
  endfacet
  facet normal -0.19509 0 -0.980785
    outer loop
      vertex 3.3 6.6 3.1
      vertex 3.85489 20 2.98962
      vertex 3.85489 6.6 2.98962
    endloop
  endfacet
  facet normal -0.19509 0 -0.980785
    outer loop
      vertex 3.85489 20 2.98962
      vertex 3.3 6.6 3.1
      vertex 3.3 20 3.1
    endloop
  endfacet
  facet normal 0.55557 0 -0.83147
    outer loop
      vertex 2.27469 6.6 2.6753
      vertex 2.74511 20 2.98962
      vertex 2.74511 6.6 2.98962
    endloop
  endfacet
  facet normal 0.55557 0 -0.83147
    outer loop
      vertex 2.74511 20 2.98962
      vertex 2.27469 6.6 2.6753
      vertex 2.27469 20 2.6753
    endloop
  endfacet
  facet normal -0.980785 0 0.195092
    outer loop
      vertex 4.63962 6.6 13.5951
      vertex 4.75 20 14.15
      vertex 4.63962 20 13.5951
    endloop
  endfacet
  facet normal -0.980785 0 0.195092
    outer loop
      vertex 4.75 20 14.15
      vertex 4.63962 6.6 13.5951
      vertex 4.75 6.6 14.15
    endloop
  endfacet
  facet normal 0.19509 0 0.980785
    outer loop
      vertex 2.74511 20 12.8104
      vertex 3.3 6.6 12.7
      vertex 3.3 20 12.7
    endloop
  endfacet
  facet normal 0.19509 0 0.980785
    outer loop
      vertex 3.3 6.6 12.7
      vertex 2.74511 20 12.8104
      vertex 2.74511 6.6 12.8104
    endloop
  endfacet
  facet normal -0.555571 0 0.831469
    outer loop
      vertex 3.85489 20 12.8104
      vertex 4.3253 6.6 13.1247
      vertex 4.3253 20 13.1247
    endloop
  endfacet
  facet normal -0.555571 0 0.831469
    outer loop
      vertex 4.3253 6.6 13.1247
      vertex 3.85489 20 12.8104
      vertex 3.85489 6.6 12.8104
    endloop
  endfacet
  facet normal -0.83147 0 0.55557
    outer loop
      vertex 4.3253 6.6 13.1247
      vertex 4.63962 20 13.5951
      vertex 4.3253 20 13.1247
    endloop
  endfacet
  facet normal -0.83147 0 0.55557
    outer loop
      vertex 4.63962 20 13.5951
      vertex 4.3253 6.6 13.1247
      vertex 4.63962 6.6 13.5951
    endloop
  endfacet
  facet normal -0.19509 0 0.980785
    outer loop
      vertex 3.3 20 12.7
      vertex 3.85489 6.6 12.8104
      vertex 3.85489 20 12.8104
    endloop
  endfacet
  facet normal -0.19509 0 0.980785
    outer loop
      vertex 3.85489 6.6 12.8104
      vertex 3.3 20 12.7
      vertex 3.3 6.6 12.7
    endloop
  endfacet
  facet normal 0.83147 -0 0.55557
    outer loop
      vertex 1.96037 6.6 13.5951
      vertex 2.27469 20 13.1247
      vertex 1.96037 20 13.5951
    endloop
  endfacet
  facet normal 0.83147 0 0.55557
    outer loop
      vertex 2.27469 20 13.1247
      vertex 1.96037 6.6 13.5951
      vertex 2.27469 6.6 13.1247
    endloop
  endfacet
  facet normal 0 1 0
    outer loop
      vertex 3.85489 6.6 15.4896
      vertex 2.74511 6.6 15.4896
      vertex 3.3 6.6 15.6
    endloop
  endfacet
  facet normal 0 1 0
    outer loop
      vertex 4.3253 6.6 15.1753
      vertex 2.74511 6.6 15.4896
      vertex 3.85489 6.6 15.4896
    endloop
  endfacet
  facet normal 0 1 0
    outer loop
      vertex 4.3253 6.6 15.1753
      vertex 2.27469 6.6 15.1753
      vertex 2.74511 6.6 15.4896
    endloop
  endfacet
  facet normal 0 1 0
    outer loop
      vertex 4.63962 6.6 14.7049
      vertex 2.27469 6.6 15.1753
      vertex 4.3253 6.6 15.1753
    endloop
  endfacet
  facet normal 0 1 0
    outer loop
      vertex 4.63962 6.6 14.7049
      vertex 1.96037 6.6 14.7049
      vertex 2.27469 6.6 15.1753
    endloop
  endfacet
  facet normal 0 1 0
    outer loop
      vertex 4.75 6.6 14.15
      vertex 1.96037 6.6 14.7049
      vertex 4.63962 6.6 14.7049
    endloop
  endfacet
  facet normal 0 1 0
    outer loop
      vertex 4.75 6.6 14.15
      vertex 1.85 6.6 14.15
      vertex 1.96037 6.6 14.7049
    endloop
  endfacet
  facet normal 0 1 -0
    outer loop
      vertex 4.63962 6.6 13.5951
      vertex 1.85 6.6 14.15
      vertex 4.75 6.6 14.15
    endloop
  endfacet
  facet normal 0 1 0
    outer loop
      vertex 4.63962 6.6 13.5951
      vertex 1.96037 6.6 13.5951
      vertex 1.85 6.6 14.15
    endloop
  endfacet
  facet normal 0 1 -0
    outer loop
      vertex 4.3253 6.6 13.1247
      vertex 1.96037 6.6 13.5951
      vertex 4.63962 6.6 13.5951
    endloop
  endfacet
  facet normal 0 1 0
    outer loop
      vertex 4.3253 6.6 13.1247
      vertex 2.27469 6.6 13.1247
      vertex 1.96037 6.6 13.5951
    endloop
  endfacet
  facet normal 0 1 -0
    outer loop
      vertex 3.85489 6.6 12.8104
      vertex 2.27469 6.6 13.1247
      vertex 4.3253 6.6 13.1247
    endloop
  endfacet
  facet normal 0 1 0
    outer loop
      vertex 3.85489 6.6 12.8104
      vertex 2.74511 6.6 12.8104
      vertex 2.27469 6.6 13.1247
    endloop
  endfacet
  facet normal -0 1 0
    outer loop
      vertex 2.74511 6.6 12.8104
      vertex 3.85489 6.6 12.8104
      vertex 3.3 6.6 12.7
    endloop
  endfacet
  facet normal 0.980785 -0 0.19509
    outer loop
      vertex 1.85 6.6 14.15
      vertex 1.96037 20 13.5951
      vertex 1.85 20 14.15
    endloop
  endfacet
  facet normal 0.980785 0 0.19509
    outer loop
      vertex 1.96037 20 13.5951
      vertex 1.85 6.6 14.15
      vertex 1.96037 6.6 13.5951
    endloop
  endfacet
  facet normal 0.55557 0 0.83147
    outer loop
      vertex 2.27469 20 13.1247
      vertex 2.74511 6.6 12.8104
      vertex 2.74511 20 12.8104
    endloop
  endfacet
  facet normal 0.55557 0 0.83147
    outer loop
      vertex 2.74511 6.6 12.8104
      vertex 2.27469 20 13.1247
      vertex 2.27469 6.6 13.1247
    endloop
  endfacet
  facet normal 0.19509 0 -0.980785
    outer loop
      vertex 2.74511 6.6 15.4896
      vertex 3.3 20 15.6
      vertex 3.3 6.6 15.6
    endloop
  endfacet
  facet normal 0.19509 0 -0.980785
    outer loop
      vertex 3.3 20 15.6
      vertex 2.74511 6.6 15.4896
      vertex 2.74511 20 15.4896
    endloop
  endfacet
  facet normal 0.83147 0 -0.55557
    outer loop
      vertex 2.27469 6.6 15.1753
      vertex 1.96037 20 14.7049
      vertex 2.27469 20 15.1753
    endloop
  endfacet
  facet normal 0.83147 0 -0.55557
    outer loop
      vertex 1.96037 20 14.7049
      vertex 2.27469 6.6 15.1753
      vertex 1.96037 6.6 14.7049
    endloop
  endfacet
  facet normal 0.980785 0 -0.19509
    outer loop
      vertex 1.96037 6.6 14.7049
      vertex 1.85 20 14.15
      vertex 1.96037 20 14.7049
    endloop
  endfacet
  facet normal 0.980785 0 -0.19509
    outer loop
      vertex 1.85 20 14.15
      vertex 1.96037 6.6 14.7049
      vertex 1.85 6.6 14.15
    endloop
  endfacet
  facet normal -0.83147 0 -0.55557
    outer loop
      vertex 4.63962 6.6 14.7049
      vertex 4.3253 20 15.1753
      vertex 4.63962 20 14.7049
    endloop
  endfacet
  facet normal -0.83147 -0 -0.55557
    outer loop
      vertex 4.3253 20 15.1753
      vertex 4.63962 6.6 14.7049
      vertex 4.3253 6.6 15.1753
    endloop
  endfacet
  facet normal -0.555571 0 -0.831469
    outer loop
      vertex 3.85489 6.6 15.4896
      vertex 4.3253 20 15.1753
      vertex 4.3253 6.6 15.1753
    endloop
  endfacet
  facet normal -0.555571 0 -0.831469
    outer loop
      vertex 4.3253 20 15.1753
      vertex 3.85489 6.6 15.4896
      vertex 3.85489 20 15.4896
    endloop
  endfacet
  facet normal -0.980785 0 -0.195092
    outer loop
      vertex 4.75 6.6 14.15
      vertex 4.63962 20 14.7049
      vertex 4.75 20 14.15
    endloop
  endfacet
  facet normal -0.980785 -0 -0.195092
    outer loop
      vertex 4.63962 20 14.7049
      vertex 4.75 6.6 14.15
      vertex 4.63962 6.6 14.7049
    endloop
  endfacet
  facet normal -0.19509 0 -0.980785
    outer loop
      vertex 3.3 6.6 15.6
      vertex 3.85489 20 15.4896
      vertex 3.85489 6.6 15.4896
    endloop
  endfacet
  facet normal -0.19509 0 -0.980785
    outer loop
      vertex 3.85489 20 15.4896
      vertex 3.3 6.6 15.6
      vertex 3.3 20 15.6
    endloop
  endfacet
  facet normal 0.55557 0 -0.83147
    outer loop
      vertex 2.27469 6.6 15.1753
      vertex 2.74511 20 15.4896
      vertex 2.74511 6.6 15.4896
    endloop
  endfacet
  facet normal 0.55557 0 -0.83147
    outer loop
      vertex 2.74511 20 15.4896
      vertex 2.27469 6.6 15.1753
      vertex 2.27469 20 15.1753
    endloop
  endfacet
endsolid OpenSCAD_Model
