solid OpenSCAD_Model
  facet normal 0 0 -1
    outer loop
      vertex -10 -11.5 16.8
      vertex -2.15 -14.5 16.8
      vertex -7 -14.5 16.8
    endloop
  endfacet
  facet normal 0 0 -1
    outer loop
      vertex 7 -14.5 16.8
      vertex 10 -11.5 16.8
      vertex 9.77164 -12.648 16.8
    endloop
  endfacet
  facet normal 0 0 -1
    outer loop
      vertex 10 -11.5 16.8
      vertex 2.15 0 16.8
      vertex 10 11.5 16.8
    endloop
  endfacet
  facet normal 0 0 -1
    outer loop
      vertex 7 -14.5 16.8
      vertex 9.77164 -12.648 16.8
      vertex 9.12132 -13.6213 16.8
    endloop
  endfacet
  facet normal 0 0 -1
    outer loop
      vertex 1.98634 0.822769 16.8
      vertex 10 11.5 16.8
      vertex 2.15 0 16.8
    endloop
  endfacet
  facet normal 0 0 -1
    outer loop
      vertex 7 -14.5 16.8
      vertex 9.12132 -13.6213 16.8
      vertex 8.14805 -14.2716 16.8
    endloop
  endfacet
  facet normal 0 0 -1
    outer loop
      vertex 1.52028 1.52028 16.8
      vertex 10 11.5 16.8
      vertex 1.98634 0.822769 16.8
    endloop
  endfacet
  facet normal 0 0 -1
    outer loop
      vertex 0.822769 1.98634 16.8
      vertex 10 11.5 16.8
      vertex 1.52028 1.52028 16.8
    endloop
  endfacet
  facet normal 0 0 -1
    outer loop
      vertex 10 -11.5 16.8
      vertex 7 -14.5 16.8
      vertex 2.15 -14.5 16.8
    endloop
  endfacet
  facet normal -0 0 -1
    outer loop
      vertex 10 -11.5 16.8
      vertex 2.15 -14.5 16.8
      vertex 2.15 0 16.8
    endloop
  endfacet
  facet normal 0 -0 -1
    outer loop
      vertex 7 14.5 16.8
      vertex 10 11.5 16.8
      vertex 0.822769 1.98634 16.8
    endloop
  endfacet
  facet normal 0 0 -1
    outer loop
      vertex 9.77164 12.648 16.8
      vertex 7 14.5 16.8
      vertex 9.12132 13.6213 16.8
    endloop
  endfacet
  facet normal 0 0 -1
    outer loop
      vertex 9.12132 13.6213 16.8
      vertex 7 14.5 16.8
      vertex 8.14805 14.2716 16.8
    endloop
  endfacet
  facet normal 0 0 -1
    outer loop
      vertex 10 11.5 16.8
      vertex 7 14.5 16.8
      vertex 9.77164 12.648 16.8
    endloop
  endfacet
  facet normal 0 0 -1
    outer loop
      vertex 0 2.15 16.8
      vertex 7 14.5 16.8
      vertex 0.822769 1.98634 16.8
    endloop
  endfacet
  facet normal 0 0 -1
    outer loop
      vertex -7 14.5 16.8
      vertex 0 2.15 16.8
      vertex -0.822769 1.98634 16.8
    endloop
  endfacet
  facet normal 0 0 -1
    outer loop
      vertex -10 11.5 16.8
      vertex -0.822769 1.98634 16.8
      vertex -1.52028 1.52028 16.8
    endloop
  endfacet
  facet normal 0 0 -1
    outer loop
      vertex -10 11.5 16.8
      vertex -1.52028 1.52028 16.8
      vertex -1.98634 0.822769 16.8
    endloop
  endfacet
  facet normal 0 0 -1
    outer loop
      vertex -2.15 -14.5 16.8
      vertex -10 -11.5 16.8
      vertex -2.15 0 16.8
    endloop
  endfacet
  facet normal 0 0 -1
    outer loop
      vertex 0 2.15 16.8
      vertex -7 14.5 16.8
      vertex 7 14.5 16.8
    endloop
  endfacet
  facet normal 0 0 -1
    outer loop
      vertex -10 11.5 16.8
      vertex -2.15 0 16.8
      vertex -10 -11.5 16.8
    endloop
  endfacet
  facet normal 0 0 -1
    outer loop
      vertex -10 -11.5 16.8
      vertex -7 -14.5 16.8
      vertex -8.14805 -14.2716 16.8
    endloop
  endfacet
  facet normal 0 0 -1
    outer loop
      vertex -2.15 0 16.8
      vertex -10 11.5 16.8
      vertex -1.98634 0.822769 16.8
    endloop
  endfacet
  facet normal 0 0 -1
    outer loop
      vertex -10 -11.5 16.8
      vertex -8.14805 -14.2716 16.8
      vertex -9.12132 -13.6213 16.8
    endloop
  endfacet
  facet normal 0 0 -1
    outer loop
      vertex -0.822769 1.98634 16.8
      vertex -10 11.5 16.8
      vertex -7 14.5 16.8
    endloop
  endfacet
  facet normal 0 0 -1
    outer loop
      vertex -10 -11.5 16.8
      vertex -9.12132 -13.6213 16.8
      vertex -9.77164 -12.648 16.8
    endloop
  endfacet
  facet normal 0 0 -1
    outer loop
      vertex -7 14.5 16.8
      vertex -10 11.5 16.8
      vertex -8.14805 14.2716 16.8
    endloop
  endfacet
  facet normal 0 0 -1
    outer loop
      vertex -8.14805 14.2716 16.8
      vertex -10 11.5 16.8
      vertex -9.12132 13.6213 16.8
    endloop
  endfacet
  facet normal 0 0 -1
    outer loop
      vertex -9.12132 13.6213 16.8
      vertex -10 11.5 16.8
      vertex -9.77164 12.648 16.8
    endloop
  endfacet
  facet normal -0.83147 -0.55557 0
    outer loop
      vertex -9.12132 -13.6213 16.8
      vertex -9.77164 -12.648 18.3
      vertex -9.77164 -12.648 16.8
    endloop
  endfacet
  facet normal -0.83147 -0.55557 0
    outer loop
      vertex -9.77164 -12.648 18.3
      vertex -9.12132 -13.6213 16.8
      vertex -9.12132 -13.6213 18.3
    endloop
  endfacet
  facet normal -1 0 0
    outer loop
      vertex -10 -11.5 16.8
      vertex -10 11.5 18.3
      vertex -10 11.5 16.8
    endloop
  endfacet
  facet normal -1 -0 0
    outer loop
      vertex -10 11.5 18.3
      vertex -10 -11.5 16.8
      vertex -10 -11.5 18.3
    endloop
  endfacet
  facet normal 0.980785 0.195091 0
    outer loop
      vertex 10 11.5 18.3
      vertex 9.77164 12.648 16.8
      vertex 9.77164 12.648 18.3
    endloop
  endfacet
  facet normal 0.980785 0.195091 0
    outer loop
      vertex 9.77164 12.648 16.8
      vertex 10 11.5 18.3
      vertex 10 11.5 16.8
    endloop
  endfacet
  facet normal -0.980785 -0.195091 0
    outer loop
      vertex -9.77164 -12.648 16.8
      vertex -10 -11.5 18.3
      vertex -10 -11.5 16.8
    endloop
  endfacet
  facet normal -0.980785 -0.195091 0
    outer loop
      vertex -10 -11.5 18.3
      vertex -9.77164 -12.648 16.8
      vertex -9.77164 -12.648 18.3
    endloop
  endfacet
  facet normal 0 1 -0
    outer loop
      vertex 7 14.5 16.8
      vertex -7 14.5 18.3
      vertex 7 14.5 18.3
    endloop
  endfacet
  facet normal 0 1 0
    outer loop
      vertex -7 14.5 18.3
      vertex 7 14.5 16.8
      vertex -7 14.5 16.8
    endloop
  endfacet
  facet normal -0.980785 0.195091 0
    outer loop
      vertex -10 11.5 16.8
      vertex -9.77164 12.648 18.3
      vertex -9.77164 12.648 16.8
    endloop
  endfacet
  facet normal -0.980785 0.195091 0
    outer loop
      vertex -9.77164 12.648 18.3
      vertex -10 11.5 16.8
      vertex -10 11.5 18.3
    endloop
  endfacet
  facet normal 0.83147 -0.55557 0
    outer loop
      vertex 9.12132 -13.6213 18.3
      vertex 9.77164 -12.648 16.8
      vertex 9.77164 -12.648 18.3
    endloop
  endfacet
  facet normal 0.83147 -0.55557 0
    outer loop
      vertex 9.77164 -12.648 16.8
      vertex 9.12132 -13.6213 18.3
      vertex 9.12132 -13.6213 16.8
    endloop
  endfacet
  facet normal 0.83147 0.55557 0
    outer loop
      vertex 9.77164 12.648 18.3
      vertex 9.12132 13.6213 16.8
      vertex 9.12132 13.6213 18.3
    endloop
  endfacet
  facet normal 0.83147 0.55557 0
    outer loop
      vertex 9.12132 13.6213 16.8
      vertex 9.77164 12.648 18.3
      vertex 9.77164 12.648 16.8
    endloop
  endfacet
  facet normal 0 0 1
    outer loop
      vertex 7 14.5 18.3
      vertex 10 11.5 18.3
      vertex 9.77164 12.648 18.3
    endloop
  endfacet
  facet normal 0 0 1
    outer loop
      vertex 10 11.5 18.3
      vertex 2.15 0 18.3
      vertex 10 -11.5 18.3
    endloop
  endfacet
  facet normal 0 0 1
    outer loop
      vertex 7 14.5 18.3
      vertex 9.77164 12.648 18.3
      vertex 9.12132 13.6213 18.3
    endloop
  endfacet
  facet normal 0 0 1
    outer loop
      vertex 2.15 -14.5 18.3
      vertex 10 -11.5 18.3
      vertex 2.15 0 18.3
    endloop
  endfacet
  facet normal 0 0 1
    outer loop
      vertex 7 14.5 18.3
      vertex 9.12132 13.6213 18.3
      vertex 8.14805 14.2716 18.3
    endloop
  endfacet
  facet normal 0 -0 1
    outer loop
      vertex 7 -14.5 18.3
      vertex 10 -11.5 18.3
      vertex 2.15 -14.5 18.3
    endloop
  endfacet
  facet normal 0 0 1
    outer loop
      vertex 10 11.5 18.3
      vertex 7 14.5 18.3
      vertex 0.822769 1.98634 18.3
    endloop
  endfacet
  facet normal 0 0 1
    outer loop
      vertex 9.77164 -12.648 18.3
      vertex 7 -14.5 18.3
      vertex 9.12132 -13.6213 18.3
    endloop
  endfacet
  facet normal 0 0 1
    outer loop
      vertex 9.12132 -13.6213 18.3
      vertex 7 -14.5 18.3
      vertex 8.14805 -14.2716 18.3
    endloop
  endfacet
  facet normal 0 0 1
    outer loop
      vertex 10 11.5 18.3
      vertex 1.98634 0.822769 18.3
      vertex 2.15 0 18.3
    endloop
  endfacet
  facet normal 0 0 1
    outer loop
      vertex 10 11.5 18.3
      vertex 1.52028 1.52028 18.3
      vertex 1.98634 0.822769 18.3
    endloop
  endfacet
  facet normal 0 0 1
    outer loop
      vertex 10 11.5 18.3
      vertex 0.822769 1.98634 18.3
      vertex 1.52028 1.52028 18.3
    endloop
  endfacet
  facet normal 0 0 1
    outer loop
      vertex 7 14.5 18.3
      vertex 0 2.15 18.3
      vertex 0.822769 1.98634 18.3
    endloop
  endfacet
  facet normal -0 0 1
    outer loop
      vertex -7 14.5 18.3
      vertex 0 2.15 18.3
      vertex 7 14.5 18.3
    endloop
  endfacet
  facet normal 0 0 1
    outer loop
      vertex 0 2.15 18.3
      vertex -7 14.5 18.3
      vertex -0.822769 1.98634 18.3
    endloop
  endfacet
  facet normal -0 0 1
    outer loop
      vertex -10 11.5 18.3
      vertex -0.822769 1.98634 18.3
      vertex -7 14.5 18.3
    endloop
  endfacet
  facet normal 0 0 1
    outer loop
      vertex -0.822769 1.98634 18.3
      vertex -10 11.5 18.3
      vertex -1.52028 1.52028 18.3
    endloop
  endfacet
  facet normal 0 0 1
    outer loop
      vertex -1.52028 1.52028 18.3
      vertex -10 11.5 18.3
      vertex -1.98634 0.822769 18.3
    endloop
  endfacet
  facet normal 0 0 1
    outer loop
      vertex -1.98634 0.822769 18.3
      vertex -10 11.5 18.3
      vertex -2.15 0 18.3
    endloop
  endfacet
  facet normal 0 0 1
    outer loop
      vertex -10 -11.5 18.3
      vertex -2.15 0 18.3
      vertex -10 11.5 18.3
    endloop
  endfacet
  facet normal 0 0 1
    outer loop
      vertex -10 11.5 18.3
      vertex -7 14.5 18.3
      vertex -8.14805 14.2716 18.3
    endloop
  endfacet
  facet normal 0 0 1
    outer loop
      vertex -2.15 0 18.3
      vertex -10 -11.5 18.3
      vertex -2.15 -14.5 18.3
    endloop
  endfacet
  facet normal 0 0 1
    outer loop
      vertex -10 11.5 18.3
      vertex -8.14805 14.2716 18.3
      vertex -9.12132 13.6213 18.3
    endloop
  endfacet
  facet normal 0 0 1
    outer loop
      vertex -2.15 -14.5 18.3
      vertex -10 -11.5 18.3
      vertex -7 -14.5 18.3
    endloop
  endfacet
  facet normal 0 0 1
    outer loop
      vertex -10 11.5 18.3
      vertex -9.12132 13.6213 18.3
      vertex -9.77164 12.648 18.3
    endloop
  endfacet
  facet normal 0 0 1
    outer loop
      vertex -7 -14.5 18.3
      vertex -10 -11.5 18.3
      vertex -8.14805 -14.2716 18.3
    endloop
  endfacet
  facet normal 0 0 1
    outer loop
      vertex -8.14805 -14.2716 18.3
      vertex -10 -11.5 18.3
      vertex -9.12132 -13.6213 18.3
    endloop
  endfacet
  facet normal 0 0 1
    outer loop
      vertex -9.12132 -13.6213 18.3
      vertex -10 -11.5 18.3
      vertex -9.77164 -12.648 18.3
    endloop
  endfacet
  facet normal 0 0 1
    outer loop
      vertex 10 -11.5 18.3
      vertex 7 -14.5 18.3
      vertex 9.77164 -12.648 18.3
    endloop
  endfacet
  facet normal 1 -0 0
    outer loop
      vertex 10 -11.5 18.3
      vertex 10 11.5 16.8
      vertex 10 11.5 18.3
    endloop
  endfacet
  facet normal 1 0 0
    outer loop
      vertex 10 11.5 16.8
      vertex 10 -11.5 18.3
      vertex 10 -11.5 16.8
    endloop
  endfacet
  facet normal 0 -1 0
    outer loop
      vertex -7 -14.5 16.8
      vertex -2.15 -14.5 18.3
      vertex -7 -14.5 18.3
    endloop
  endfacet
  facet normal 0 -1 -0
    outer loop
      vertex -2.15 -14.5 18.3
      vertex -7 -14.5 16.8
      vertex -2.15 -14.5 16.8
    endloop
  endfacet
  facet normal 0 -1 0
    outer loop
      vertex 2.15 -14.5 16.8
      vertex 7 -14.5 18.3
      vertex 2.15 -14.5 18.3
    endloop
  endfacet
  facet normal 0 -1 -0
    outer loop
      vertex 7 -14.5 18.3
      vertex 2.15 -14.5 16.8
      vertex 7 -14.5 16.8
    endloop
  endfacet
  facet normal -0.55557 -0.83147 0
    outer loop
      vertex -9.12132 -13.6213 16.8
      vertex -8.14805 -14.2716 18.3
      vertex -9.12132 -13.6213 18.3
    endloop
  endfacet
  facet normal -0.55557 -0.83147 -0
    outer loop
      vertex -8.14805 -14.2716 18.3
      vertex -9.12132 -13.6213 16.8
      vertex -8.14805 -14.2716 16.8
    endloop
  endfacet
  facet normal -0.55557 0.83147 0
    outer loop
      vertex -8.14805 14.2716 16.8
      vertex -9.12132 13.6213 18.3
      vertex -8.14805 14.2716 18.3
    endloop
  endfacet
  facet normal -0.55557 0.83147 0
    outer loop
      vertex -9.12132 13.6213 18.3
      vertex -8.14805 14.2716 16.8
      vertex -9.12132 13.6213 16.8
    endloop
  endfacet
  facet normal -0.83147 0.55557 0
    outer loop
      vertex -9.77164 12.648 16.8
      vertex -9.12132 13.6213 18.3
      vertex -9.12132 13.6213 16.8
    endloop
  endfacet
  facet normal -0.83147 0.55557 0
    outer loop
      vertex -9.12132 13.6213 18.3
      vertex -9.77164 12.648 16.8
      vertex -9.77164 12.648 18.3
    endloop
  endfacet
  facet normal 0.980785 -0.195091 0
    outer loop
      vertex 9.77164 -12.648 18.3
      vertex 10 -11.5 16.8
      vertex 10 -11.5 18.3
    endloop
  endfacet
  facet normal 0.980785 -0.195091 0
    outer loop
      vertex 10 -11.5 16.8
      vertex 9.77164 -12.648 18.3
      vertex 9.77164 -12.648 16.8
    endloop
  endfacet
  facet normal -0.195091 -0.980785 0
    outer loop
      vertex -8.14805 -14.2716 16.8
      vertex -7 -14.5 18.3
      vertex -8.14805 -14.2716 18.3
    endloop
  endfacet
  facet normal -0.195091 -0.980785 -0
    outer loop
      vertex -7 -14.5 18.3
      vertex -8.14805 -14.2716 16.8
      vertex -7 -14.5 16.8
    endloop
  endfacet
  facet normal 0.195091 -0.980785 0
    outer loop
      vertex 7 -14.5 16.8
      vertex 8.14805 -14.2716 18.3
      vertex 7 -14.5 18.3
    endloop
  endfacet
  facet normal 0.195091 -0.980785 0
    outer loop
      vertex 8.14805 -14.2716 18.3
      vertex 7 -14.5 16.8
      vertex 8.14805 -14.2716 16.8
    endloop
  endfacet
  facet normal 0.55557 -0.83147 0
    outer loop
      vertex 8.14805 -14.2716 16.8
      vertex 9.12132 -13.6213 18.3
      vertex 8.14805 -14.2716 18.3
    endloop
  endfacet
  facet normal 0.55557 -0.83147 0
    outer loop
      vertex 9.12132 -13.6213 18.3
      vertex 8.14805 -14.2716 16.8
      vertex 9.12132 -13.6213 16.8
    endloop
  endfacet
  facet normal 0.195091 0.980785 -0
    outer loop
      vertex 8.14805 14.2716 16.8
      vertex 7 14.5 18.3
      vertex 8.14805 14.2716 18.3
    endloop
  endfacet
  facet normal 0.195091 0.980785 0
    outer loop
      vertex 7 14.5 18.3
      vertex 8.14805 14.2716 16.8
      vertex 7 14.5 16.8
    endloop
  endfacet
  facet normal 0.55557 0.83147 -0
    outer loop
      vertex 9.12132 13.6213 16.8
      vertex 8.14805 14.2716 18.3
      vertex 9.12132 13.6213 18.3
    endloop
  endfacet
  facet normal 0.55557 0.83147 0
    outer loop
      vertex 8.14805 14.2716 18.3
      vertex 9.12132 13.6213 16.8
      vertex 8.14805 14.2716 16.8
    endloop
  endfacet
  facet normal -0.195091 0.980785 0
    outer loop
      vertex -7 14.5 16.8
      vertex -8.14805 14.2716 18.3
      vertex -7 14.5 18.3
    endloop
  endfacet
  facet normal -0.195091 0.980785 0
    outer loop
      vertex -8.14805 14.2716 18.3
      vertex -7 14.5 16.8
      vertex -8.14805 14.2716 16.8
    endloop
  endfacet
  facet normal -0.980785 -0.19509 0
    outer loop
      vertex 2.15 0 16.8
      vertex 1.98634 0.822769 18.3
      vertex 1.98634 0.822769 16.8
    endloop
  endfacet
  facet normal -0.980785 -0.19509 0
    outer loop
      vertex 1.98634 0.822769 18.3
      vertex 2.15 0 16.8
      vertex 2.15 0 18.3
    endloop
  endfacet
  facet normal -0.831469 -0.555571 0
    outer loop
      vertex 1.98634 0.822769 16.8
      vertex 1.52028 1.52028 18.3
      vertex 1.52028 1.52028 16.8
    endloop
  endfacet
  facet normal -0.831469 -0.555571 0
    outer loop
      vertex 1.52028 1.52028 18.3
      vertex 1.98634 0.822769 16.8
      vertex 1.98634 0.822769 18.3
    endloop
  endfacet
  facet normal -1 0 0
    outer loop
      vertex 2.15 -14.5 16.8
      vertex 2.15 0 18.3
      vertex 2.15 0 16.8
    endloop
  endfacet
  facet normal -1 -0 0
    outer loop
      vertex 2.15 0 18.3
      vertex 2.15 -14.5 16.8
      vertex 2.15 -14.5 18.3
    endloop
  endfacet
  facet normal 0.980785 -0.19509 0
    outer loop
      vertex -2.15 0 18.3
      vertex -1.98634 0.822769 16.8
      vertex -1.98634 0.822769 18.3
    endloop
  endfacet
  facet normal 0.980785 -0.19509 0
    outer loop
      vertex -1.98634 0.822769 16.8
      vertex -2.15 0 18.3
      vertex -2.15 0 16.8
    endloop
  endfacet
  facet normal 1 -0 0
    outer loop
      vertex -2.15 -14.5 18.3
      vertex -2.15 0 16.8
      vertex -2.15 0 18.3
    endloop
  endfacet
  facet normal 1 0 0
    outer loop
      vertex -2.15 0 16.8
      vertex -2.15 -14.5 18.3
      vertex -2.15 -14.5 16.8
    endloop
  endfacet
  facet normal -0.19509 -0.980785 0
    outer loop
      vertex 0 2.15 16.8
      vertex 0.822769 1.98634 18.3
      vertex 0 2.15 18.3
    endloop
  endfacet
  facet normal -0.19509 -0.980785 -0
    outer loop
      vertex 0.822769 1.98634 18.3
      vertex 0 2.15 16.8
      vertex 0.822769 1.98634 16.8
    endloop
  endfacet
  facet normal -0.555571 -0.831469 0
    outer loop
      vertex 0.822769 1.98634 16.8
      vertex 1.52028 1.52028 18.3
      vertex 0.822769 1.98634 18.3
    endloop
  endfacet
  facet normal -0.555571 -0.831469 -0
    outer loop
      vertex 1.52028 1.52028 18.3
      vertex 0.822769 1.98634 16.8
      vertex 1.52028 1.52028 16.8
    endloop
  endfacet
  facet normal 0.555571 -0.831469 0
    outer loop
      vertex -1.52028 1.52028 16.8
      vertex -0.822769 1.98634 18.3
      vertex -1.52028 1.52028 18.3
    endloop
  endfacet
  facet normal 0.555571 -0.831469 0
    outer loop
      vertex -0.822769 1.98634 18.3
      vertex -1.52028 1.52028 16.8
      vertex -0.822769 1.98634 16.8
    endloop
  endfacet
  facet normal 0.831469 -0.555571 0
    outer loop
      vertex -1.98634 0.822769 18.3
      vertex -1.52028 1.52028 16.8
      vertex -1.52028 1.52028 18.3
    endloop
  endfacet
  facet normal 0.831469 -0.555571 0
    outer loop
      vertex -1.52028 1.52028 16.8
      vertex -1.98634 0.822769 18.3
      vertex -1.98634 0.822769 16.8
    endloop
  endfacet
  facet normal 0.19509 -0.980785 0
    outer loop
      vertex -0.822769 1.98634 16.8
      vertex 0 2.15 18.3
      vertex -0.822769 1.98634 18.3
    endloop
  endfacet
  facet normal 0.19509 -0.980785 0
    outer loop
      vertex 0 2.15 18.3
      vertex -0.822769 1.98634 16.8
      vertex 0 2.15 16.8
    endloop
  endfacet
endsolid OpenSCAD_Model
