solid OpenSCAD_Model
  facet normal -0.772875 0.634534 0.00554084
    outer loop
      vertex -26.2202 0.354292 65.2168
      vertex -26.6265 -0.140663 65.2168
      vertex -23.3085 0.104151 500
    endloop
  endfacet
  facet normal 0.772875 0.634534 0.00554084
    outer loop
      vertex 26.2202 0.354292 65.2168
      vertex 23.3085 0.104151 500
      vertex 26.6265 -0.140663 65.2168
    endloop
  endfacet
  facet normal 0.599508 0.800357 0.00433003
    outer loop
      vertex 25.8568 0.674408 65.2168
      vertex 23.0136 0.451849 500
      vertex 26.1087 0.48572 65.2168
    endloop
  endfacet
  facet normal 0.999917 0.0106723 0.00715248
    outer loop
      vertex 27.9876 -17.9011 65.2168
      vertex 24.9 -20 500
      vertex 28.01 -20 65.2168
    endloop
  endfacet
  facet normal 0.296564 0.95501 0.00225033
    outer loop
      vertex 24.8164 1.13592 65.2168
      vertex 22.1292 0.945869 500
      vertex 25.1054 1.04618 65.2168
    endloop
  endfacet
  facet normal 0.296565 0.95501 0.00225034
    outer loop
      vertex 22.1292 0.945869 500
      vertex 24.8164 1.13592 65.2168
      vertex 21.3647 1.18328 500
    endloop
  endfacet
  facet normal -0.599508 0.800357 0.00433003
    outer loop
      vertex -25.8568 0.674408 65.2168
      vertex -26.1087 0.48572 65.2168
      vertex -23.0136 0.451849 500
    endloop
  endfacet
  facet normal 0 0 1
    outer loop
      vertex 21.3647 1.18328 500
      vertex 22 -4.44089e-14 500
      vertex 22.1292 0.945869 500
    endloop
  endfacet
  facet normal 0 0 1
    outer loop
      vertex 20.3944 1.41123 500
      vertex 22 -4.44089e-14 500
      vertex 21.3647 1.18328 500
    endloop
  endfacet
  facet normal 0 0 1
    outer loop
      vertex 19.2277 1.62751 500
      vertex 22 -4.44089e-14 500
      vertex 20.3944 1.41123 500
    endloop
  endfacet
  facet normal 0 0 1
    outer loop
      vertex 17.8759 1.83004 500
      vertex 22 -4.44089e-14 500
      vertex 19.2277 1.62751 500
    endloop
  endfacet
  facet normal 0 0 1
    outer loop
      vertex 16.3518 2.01687 500
      vertex 22 -4.44089e-14 500
      vertex 17.8759 1.83004 500
    endloop
  endfacet
  facet normal 0 0 1
    outer loop
      vertex 14.6703 2.18621 500
      vertex 22 -4.44089e-14 500
      vertex 16.3518 2.01687 500
    endloop
  endfacet
  facet normal 0 0 1
    outer loop
      vertex 12.8476 2.33641 500
      vertex 22 -4.44089e-14 500
      vertex 14.6703 2.18621 500
    endloop
  endfacet
  facet normal 0 0 1
    outer loop
      vertex 10.901 2.46605 500
      vertex 22 -4.44089e-14 500
      vertex 12.8476 2.33641 500
    endloop
  endfacet
  facet normal 0 0 1
    outer loop
      vertex 8.84955 2.57386 500
      vertex 22 -4.44089e-14 500
      vertex 10.901 2.46605 500
    endloop
  endfacet
  facet normal 0 0 1
    outer loop
      vertex 6.71283 2.6588 500
      vertex 22 -4.44089e-14 500
      vertex 8.84955 2.57386 500
    endloop
  endfacet
  facet normal 0 0 1
    outer loop
      vertex 4.51146 2.72007 500
      vertex 22 -4.44089e-14 500
      vertex 6.71283 2.6588 500
    endloop
  endfacet
  facet normal 0 0 1
    outer loop
      vertex 2.26665 2.75707 500
      vertex 22 -4.44089e-14 500
      vertex 4.51146 2.72007 500
    endloop
  endfacet
  facet normal 0 0 1
    outer loop
      vertex 0 2.76944 500
      vertex 22 -4.44089e-14 500
      vertex 2.26665 2.75707 500
    endloop
  endfacet
  facet normal -0 0 1
    outer loop
      vertex -2.26665 2.75707 500
      vertex 22 -4.44089e-14 500
      vertex 0 2.76944 500
    endloop
  endfacet
  facet normal 0 0 1
    outer loop
      vertex -22 -4.44089e-14 500
      vertex -2.26665 2.75707 500
      vertex -4.51146 2.72007 500
    endloop
  endfacet
  facet normal 0 0 1
    outer loop
      vertex -22 -4.44089e-14 500
      vertex -4.51146 2.72007 500
      vertex -6.71283 2.6588 500
    endloop
  endfacet
  facet normal 0 0 1
    outer loop
      vertex -22 -4.44089e-14 500
      vertex -6.71283 2.6588 500
      vertex -8.84955 2.57386 500
    endloop
  endfacet
  facet normal 0 0 1
    outer loop
      vertex -22 -4.44089e-14 500
      vertex -8.84955 2.57386 500
      vertex -10.901 2.46605 500
    endloop
  endfacet
  facet normal 0 0 1
    outer loop
      vertex -22 -4.44089e-14 500
      vertex -10.901 2.46605 500
      vertex -12.8476 2.33641 500
    endloop
  endfacet
  facet normal 0 0 1
    outer loop
      vertex -22 -4.44089e-14 500
      vertex -12.8476 2.33641 500
      vertex -14.6703 2.18621 500
    endloop
  endfacet
  facet normal 0 0 1
    outer loop
      vertex -22 -4.44089e-14 500
      vertex -14.6703 2.18621 500
      vertex -16.3518 2.01687 500
    endloop
  endfacet
  facet normal 0 0 1
    outer loop
      vertex -22 -4.44089e-14 500
      vertex -16.3518 2.01687 500
      vertex -17.8759 1.83004 500
    endloop
  endfacet
  facet normal 0 0 1
    outer loop
      vertex -22 -4.44089e-14 500
      vertex -17.8759 1.83004 500
      vertex -19.2277 1.62751 500
    endloop
  endfacet
  facet normal 0 0 1
    outer loop
      vertex -22 -4.44089e-14 500
      vertex -19.2277 1.62751 500
      vertex -20.3944 1.41123 500
    endloop
  endfacet
  facet normal 0 0 1
    outer loop
      vertex -22 -4.44089e-14 500
      vertex -20.3944 1.41123 500
      vertex -21.3647 1.18328 500
    endloop
  endfacet
  facet normal 0 0 1
    outer loop
      vertex -2.26665 2.75707 500
      vertex -22 -4.44089e-14 500
      vertex 22 -4.44089e-14 500
    endloop
  endfacet
  facet normal -0 0 1
    outer loop
      vertex -22.1292 0.945869 500
      vertex -22 -4.44089e-14 500
      vertex -21.3647 1.18328 500
    endloop
  endfacet
  facet normal -0 0 1
    outer loop
      vertex -22.6807 0.701273 500
      vertex -22 -4.44089e-14 500
      vertex -22.1292 0.945869 500
    endloop
  endfacet
  facet normal -0 0 1
    outer loop
      vertex -23.0136 0.451849 500
      vertex -22 -4.44089e-14 500
      vertex -22.6807 0.701273 500
    endloop
  endfacet
  facet normal -0 0 1
    outer loop
      vertex -23.3085 0.104151 500
      vertex -22 -4.44089e-14 500
      vertex -23.0136 0.451849 500
    endloop
  endfacet
  facet normal 0 0 1
    outer loop
      vertex -22 -4.44089e-14 500
      vertex -23.3085 0.104151 500
      vertex -23.4444 -0.706318 500
    endloop
  endfacet
  facet normal 0 0 1
    outer loop
      vertex -22 -4.44089e-14 500
      vertex -23.4444 -0.706318 500
      vertex -23.8278 -3.3754 500
    endloop
  endfacet
  facet normal 0 0 1
    outer loop
      vertex -22 -4.44089e-14 500
      vertex -23.8278 -3.3754 500
      vertex -24.1538 -6.08452 500
    endloop
  endfacet
  facet normal 0 0 1
    outer loop
      vertex -24.4216 -8.82718 500
      vertex -22 -4.44089e-14 500
      vertex -24.1538 -6.08452 500
    endloop
  endfacet
  facet normal 0 0 1
    outer loop
      vertex -22 -4.44089e-14 500
      vertex -24.4216 -8.82718 500
      vertex -22 -20 500
    endloop
  endfacet
  facet normal -0 0 1
    outer loop
      vertex -24.6305 -11.5967 500
      vertex -22 -20 500
      vertex -24.4216 -8.82718 500
    endloop
  endfacet
  facet normal -0 0 1
    outer loop
      vertex -24.7801 -14.3866 500
      vertex -22 -20 500
      vertex -24.6305 -11.5967 500
    endloop
  endfacet
  facet normal -0 0 1
    outer loop
      vertex -24.87 -17.1899 500
      vertex -22 -20 500
      vertex -24.7801 -14.3866 500
    endloop
  endfacet
  facet normal 0 0 1
    outer loop
      vertex -22 -20 500
      vertex -24.87 -17.1899 500
      vertex -24.9 -20 500
    endloop
  endfacet
  facet normal 0 0 1
    outer loop
      vertex 22 -20 500
      vertex 24.87 -17.1899 500
      vertex 24.7801 -14.3866 500
    endloop
  endfacet
  facet normal 0 0 1
    outer loop
      vertex 22 -20 500
      vertex 24.7801 -14.3866 500
      vertex 24.6305 -11.5967 500
    endloop
  endfacet
  facet normal 0 0 1
    outer loop
      vertex 22 -20 500
      vertex 24.6305 -11.5967 500
      vertex 24.4216 -8.82718 500
    endloop
  endfacet
  facet normal 0 0 1
    outer loop
      vertex 22 -4.44089e-14 500
      vertex 24.4216 -8.82718 500
      vertex 24.1538 -6.08452 500
    endloop
  endfacet
  facet normal 0 0 1
    outer loop
      vertex 22 -4.44089e-14 500
      vertex 24.1538 -6.08452 500
      vertex 23.8278 -3.3754 500
    endloop
  endfacet
  facet normal 0 0 1
    outer loop
      vertex 22 -4.44089e-14 500
      vertex 23.8278 -3.3754 500
      vertex 23.4444 -0.706318 500
    endloop
  endfacet
  facet normal -0 0 1
    outer loop
      vertex 22 -4.44089e-14 500
      vertex 23.4444 -0.706318 500
      vertex 23.3085 0.104151 500
    endloop
  endfacet
  facet normal 0 0 1
    outer loop
      vertex 22 -4.44089e-14 500
      vertex 23.3085 0.104151 500
      vertex 23.0136 0.451849 500
    endloop
  endfacet
  facet normal 0 0 1
    outer loop
      vertex 22 -4.44089e-14 500
      vertex 23.0136 0.451849 500
      vertex 22.6807 0.701273 500
    endloop
  endfacet
  facet normal 0 0 1
    outer loop
      vertex 22 -4.44089e-14 500
      vertex 22.6807 0.701273 500
      vertex 22.1292 0.945869 500
    endloop
  endfacet
  facet normal 0 0 1
    outer loop
      vertex 24.4216 -8.82718 500
      vertex 22 -4.44089e-14 500
      vertex 22 -20 500
    endloop
  endfacet
  facet normal 0 0 1
    outer loop
      vertex 24.87 -17.1899 500
      vertex 22 -20 500
      vertex 24.9 -20 500
    endloop
  endfacet
  facet normal 0.148162 0.988962 0.00131789
    outer loop
      vertex 20.791 1.9727 65.2168
      vertex 19.2277 1.62751 500
      vertex 21.8136 1.81949 65.2168
    endloop
  endfacet
  facet normal 0.027821 0.999613 0.000818036
    outer loop
      vertex 7.61563 2.98948 65.2168
      vertex 5.9503 3.03583 65.2168
      vertex 6.71283 2.6588 500
    endloop
  endfacet
  facet normal -0.0164796 0.999864 0.000802406
    outer loop
      vertex -4.26968 3.07298 65.2168
      vertex -4.51146 2.72007 500
      vertex -2.26665 2.75707 500
    endloop
  endfacet
  facet normal -0.0164798 0.999864 0.000802406
    outer loop
      vertex -4.51146 2.72007 500
      vertex -4.26968 3.07298 65.2168
      vertex -5.1182 3.05899 65.2168
    endloop
  endfacet
  facet normal -0.148162 0.988962 0.00131789
    outer loop
      vertex -20.791 1.9727 65.2168
      vertex -21.8136 1.81949 65.2168
      vertex -19.2277 1.62751 500
    endloop
  endfacet
  facet normal -0.296564 0.95501 0.00225034
    outer loop
      vertex -24.238 1.31552 65.2168
      vertex -24.8164 1.13592 65.2168
      vertex -21.3647 1.18328 500
    endloop
  endfacet
  facet normal -0.228698 0.973496 0.00180746
    outer loop
      vertex -23.1372 1.57412 65.2168
      vertex -21.3647 1.18328 500
      vertex -20.3944 1.41123 500
    endloop
  endfacet
  facet normal -0.228698 0.973496 0.00180746
    outer loop
      vertex -21.3647 1.18328 500
      vertex -23.1372 1.57412 65.2168
      vertex -23.504 1.48796 65.2168
    endloop
  endfacet
  facet normal -0.992812 0.119456 0.00736636
    outer loop
      vertex -26.8228 -1.45591 65.2168
      vertex -27.0474 -3.32244 65.2168
      vertex -23.8278 -3.3754 500
    endloop
  endfacet
  facet normal -0.999917 0.0106725 0.00715248
    outer loop
      vertex -27.9876 -17.9011 65.2168
      vertex -24.87 -17.1899 500
      vertex -27.9763 -16.8389 65.2168
    endloop
  endfacet
  facet normal -0.999917 0.0106724 0.00715248
    outer loop
      vertex -24.87 -17.1899 500
      vertex -27.9876 -17.9011 65.2168
      vertex -24.9 -20 500
    endloop
  endfacet
  facet normal -0.999917 0.0106723 0.00715248
    outer loop
      vertex -27.9876 -17.9011 65.2168
      vertex -28.01 -20 65.2168
      vertex -24.9 -20 500
    endloop
  endfacet
  facet normal 0.100198 0.994967 0.00106597
    outer loop
      vertex 17.2789 2.38932 65.2168
      vertex 16.3518 2.01687 500
      vertex 18.551 2.26122 65.2168
    endloop
  endfacet
  facet normal -0.0524793 0.998622 0.000876929
    outer loop
      vertex -10.8152 2.85236 65.2168
      vertex -12.3671 2.7708 65.2168
      vertex -10.901 2.46605 500
    endloop
  endfacet
  facet normal -0.0664502 0.997789 0.000923455
    outer loop
      vertex -12.3671 2.7708 65.2168
      vertex -13.8396 2.67274 65.2168
      vertex -10.901 2.46605 500
    endloop
  endfacet
  facet normal -0.0821272 0.996621 0.000984984
    outer loop
      vertex -15.2644 2.56696 65.2168
      vertex -16.6433 2.45333 65.2168
      vertex -14.6703 2.18621 500
    endloop
  endfacet
  facet normal 0.296564 0.95501 0.00225034
    outer loop
      vertex 24.238 1.31552 65.2168
      vertex 21.3647 1.18328 500
      vertex 24.8164 1.13592 65.2168
    endloop
  endfacet
  facet normal 0.405477 0.9141 0.00298641
    outer loop
      vertex 25.3138 0.953725 65.2168
      vertex 22.6807 0.701273 500
      vertex 25.7309 0.768689 65.2168
    endloop
  endfacet
  facet normal 0.0821272 0.996621 0.000984984
    outer loop
      vertex 15.2644 2.56696 65.2168
      vertex 14.6703 2.18621 500
      vertex 16.6433 2.45333 65.2168
    endloop
  endfacet
  facet normal -0.228698 0.973496 0.00180746
    outer loop
      vertex -23.504 1.48796 65.2168
      vertex -24.238 1.31552 65.2168
      vertex -21.3647 1.18328 500
    endloop
  endfacet
  facet normal -0.59951 0.800355 0.00433004
    outer loop
      vertex -25.7309 0.768689 65.2168
      vertex -23.0136 0.451849 500
      vertex -22.6807 0.701273 500
    endloop
  endfacet
  facet normal -0.59951 0.800356 0.00433004
    outer loop
      vertex -23.0136 0.451849 500
      vertex -25.7309 0.768689 65.2168
      vertex -25.8568 0.674408 65.2168
    endloop
  endfacet
  facet normal -0.762653 0.646784 0.00547943
    outer loop
      vertex -26.2202 0.354292 65.2168
      vertex -23.0136 0.451849 500
      vertex -26.1087 0.48572 65.2168
    endloop
  endfacet
  facet normal -0.762652 0.646786 0.00547942
    outer loop
      vertex -23.0136 0.451849 500
      vertex -26.2202 0.354292 65.2168
      vertex -23.3085 0.104151 500
    endloop
  endfacet
  facet normal -0.998539 0.0535466 0.00719458
    outer loop
      vertex -27.7069 -10.5472 65.2168
      vertex -27.8186 -12.6309 65.2168
      vertex -24.6305 -11.5967 500
    endloop
  endfacet
  facet normal -0.995241 0.0971692 0.00729412
    outer loop
      vertex -27.4718 -7.43168 65.2168
      vertex -24.1538 -6.08452 500
      vertex -27.3706 -6.39498 65.2168
    endloop
  endfacet
  facet normal -0.995241 0.0971688 0.00729412
    outer loop
      vertex -24.1538 -6.08452 500
      vertex -27.4718 -7.43168 65.2168
      vertex -24.4216 -8.82718 500
    endloop
  endfacet
  facet normal -0.998539 0.0535467 0.00719458
    outer loop
      vertex -27.8752 -13.6854 65.2168
      vertex -24.6305 -11.5967 500
      vertex -27.8186 -12.6309 65.2168
    endloop
  endfacet
  facet normal -0.998539 0.0535464 0.00719458
    outer loop
      vertex -24.6305 -11.5967 500
      vertex -27.8752 -13.6854 65.2168
      vertex -24.7801 -14.3866 500
    endloop
  endfacet
  facet normal 0.999917 0.0106725 0.00715248
    outer loop
      vertex 24.87 -17.1899 500
      vertex 27.9876 -17.9011 65.2168
      vertex 27.9763 -16.8389 65.2168
    endloop
  endfacet
  facet normal 0.999917 0.0106724 0.00715248
    outer loop
      vertex 27.9876 -17.9011 65.2168
      vertex 24.87 -17.1899 500
      vertex 24.9 -20 500
    endloop
  endfacet
  facet normal 0.00545862 0.999985 0.000794774
    outer loop
      vertex 2.57148 3.10097 65.2168
      vertex 0.856775 3.11033 65.2168
      vertex 2.26665 2.75707 500
    endloop
  endfacet
  facet normal -0.0821272 0.996621 0.000984984
    outer loop
      vertex -14.5754 2.62374 65.2168
      vertex -14.6703 2.18621 500
      vertex -12.8476 2.33641 500
    endloop
  endfacet
  facet normal -0.0821271 0.996621 0.000984984
    outer loop
      vertex -14.6703 2.18621 500
      vertex -14.5754 2.62374 65.2168
      vertex -15.2644 2.56696 65.2168
    endloop
  endfacet
  facet normal 0.0524793 0.998622 0.000876929
    outer loop
      vertex 12.3671 2.7708 65.2168
      vertex 10.8152 2.85236 65.2168
      vertex 10.901 2.46605 500
    endloop
  endfacet
  facet normal -0.0164795 0.999864 0.000802405
    outer loop
      vertex -2.57148 3.10097 65.2168
      vertex -4.26968 3.07298 65.2168
      vertex -2.26665 2.75707 500
    endloop
  endfacet
  facet normal -0.121681 0.992569 0.00117328
    outer loop
      vertex -19.7039 2.11988 65.2168
      vertex -17.8759 1.83004 500
      vertex -16.3518 2.01687 500
    endloop
  endfacet
  facet normal -0.121681 0.992569 0.00117328
    outer loop
      vertex -17.8759 1.83004 500
      vertex -19.7039 2.11988 65.2168
      vertex -20.28 2.04926 65.2168
    endloop
  endfacet
  facet normal -0.989814 0.142169 0.00744599
    outer loop
      vertex -26.8228 -1.45591 65.2168
      vertex -23.4444 -0.706318 500
      vertex -26.6779 -0.447014 65.2168
    endloop
  endfacet
  facet normal -0.989814 0.14217 0.00744599
    outer loop
      vertex -23.4444 -0.706318 500
      vertex -26.8228 -1.45591 65.2168
      vertex -23.8278 -3.3754 500
    endloop
  endfacet
  facet normal -0.99714 0.0752255 0.00723702
    outer loop
      vertex -27.5508 -8.47855 65.2168
      vertex -24.4216 -8.82718 500
      vertex -27.4718 -7.43168 65.2168
    endloop
  endfacet
  facet normal -0.99714 0.0752265 0.00723702
    outer loop
      vertex -24.4216 -8.82718 500
      vertex -27.5508 -8.47855 65.2168
      vertex -24.6305 -11.5967 500
    endloop
  endfacet
  facet normal -0.99714 0.0752266 0.00723702
    outer loop
      vertex -27.5508 -8.47855 65.2168
      vertex -27.7069 -10.5472 65.2168
      vertex -24.6305 -11.5967 500
    endloop
  endfacet
  facet normal 0.99946 0.0320532 0.00716649
    outer loop
      vertex 24.7801 -14.3866 500
      vertex 27.9763 -16.8389 65.2168
      vertex 27.9423 -15.7793 65.2168
    endloop
  endfacet
  facet normal 0.99946 0.0320547 0.00716648
    outer loop
      vertex 27.9763 -16.8389 65.2168
      vertex 24.7801 -14.3866 500
      vertex 24.87 -17.1899 500
    endloop
  endfacet
  facet normal 0.99714 0.0752266 0.00723702
    outer loop
      vertex 27.5508 -8.47855 65.2168
      vertex 24.6305 -11.5967 500
      vertex 27.7069 -10.5472 65.2168
    endloop
  endfacet
  facet normal 0.998539 0.0535466 0.00719458
    outer loop
      vertex 27.7069 -10.5472 65.2168
      vertex 24.6305 -11.5967 500
      vertex 27.8186 -12.6309 65.2168
    endloop
  endfacet
  facet normal -0.0278209 0.999613 0.000818037
    outer loop
      vertex -5.1182 3.05899 65.2168
      vertex -6.71283 2.6588 500
      vertex -4.51146 2.72007 500
    endloop
  endfacet
  facet normal -0.0278209 0.999613 0.000818037
    outer loop
      vertex -6.71283 2.6588 500
      vertex -5.1182 3.05899 65.2168
      vertex -5.9503 3.03583 65.2168
    endloop
  endfacet
  facet normal 0.99714 0.0752255 0.00723702
    outer loop
      vertex 24.4216 -8.82718 500
      vertex 27.5508 -8.47855 65.2168
      vertex 27.4718 -7.43168 65.2168
    endloop
  endfacet
  facet normal 0.99714 0.0752265 0.00723702
    outer loop
      vertex 27.5508 -8.47855 65.2168
      vertex 24.4216 -8.82718 500
      vertex 24.6305 -11.5967 500
    endloop
  endfacet
  facet normal 0.992812 0.119456 0.00736636
    outer loop
      vertex 26.8228 -1.45591 65.2168
      vertex 23.8278 -3.3754 500
      vertex 27.0474 -3.32244 65.2168
    endloop
  endfacet
  facet normal 0.762653 0.646784 0.00547943
    outer loop
      vertex 23.0136 0.451849 500
      vertex 26.2202 0.354292 65.2168
      vertex 26.1087 0.48572 65.2168
    endloop
  endfacet
  facet normal 0.762652 0.646786 0.00547942
    outer loop
      vertex 26.2202 0.354292 65.2168
      vertex 23.0136 0.451849 500
      vertex 23.3085 0.104151 500
    endloop
  endfacet
  facet normal -0.405477 0.9141 0.00298641
    outer loop
      vertex -25.3138 0.953725 65.2168
      vertex -25.7309 0.768689 65.2168
      vertex -22.6807 0.701273 500
    endloop
  endfacet
  facet normal -0.296565 0.95501 0.00225034
    outer loop
      vertex -24.8164 1.13592 65.2168
      vertex -22.1292 0.945869 500
      vertex -21.3647 1.18328 500
    endloop
  endfacet
  facet normal -0.296564 0.95501 0.00225033
    outer loop
      vertex -22.1292 0.945869 500
      vertex -24.8164 1.13592 65.2168
      vertex -25.1054 1.04618 65.2168
    endloop
  endfacet
  facet normal -0.405477 0.9141 0.00298641
    outer loop
      vertex -25.1054 1.04618 65.2168
      vertex -22.6807 0.701273 500
      vertex -22.1292 0.945869 500
    endloop
  endfacet
  facet normal -0.405479 0.9141 0.00298642
    outer loop
      vertex -22.6807 0.701273 500
      vertex -25.1054 1.04618 65.2168
      vertex -25.3138 0.953725 65.2168
    endloop
  endfacet
  facet normal -0.992812 0.119457 0.00736636
    outer loop
      vertex -27.1706 -4.34647 65.2168
      vertex -23.8278 -3.3754 500
      vertex -27.0474 -3.32244 65.2168
    endloop
  endfacet
  facet normal -0.992812 0.119456 0.00736636
    outer loop
      vertex -23.8278 -3.3754 500
      vertex -27.1706 -4.34647 65.2168
      vertex -24.1538 -6.08452 500
    endloop
  endfacet
  facet normal -0.995241 0.0971686 0.00729412
    outer loop
      vertex -27.1706 -4.34647 65.2168
      vertex -27.3706 -6.39498 65.2168
      vertex -24.1538 -6.08452 500
    endloop
  endfacet
  facet normal -0.986198 0.165402 0.00743295
    outer loop
      vertex -26.6779 -0.447014 65.2168
      vertex -23.3085 0.104151 500
      vertex -26.6265 -0.140663 65.2168
    endloop
  endfacet
  facet normal -0.986199 0.1654 0.00743295
    outer loop
      vertex -23.3085 0.104151 500
      vertex -26.6779 -0.447014 65.2168
      vertex -23.4444 -0.706318 500
    endloop
  endfacet
  facet normal -0.99946 0.0320549 0.00716648
    outer loop
      vertex -27.8752 -13.6854 65.2168
      vertex -27.9423 -15.7793 65.2168
      vertex -24.7801 -14.3866 500
    endloop
  endfacet
  facet normal -0.99946 0.0320532 0.00716649
    outer loop
      vertex -27.9763 -16.8389 65.2168
      vertex -24.7801 -14.3866 500
      vertex -27.9423 -15.7793 65.2168
    endloop
  endfacet
  facet normal -0.99946 0.0320547 0.00716648
    outer loop
      vertex -24.7801 -14.3866 500
      vertex -27.9763 -16.8389 65.2168
      vertex -24.87 -17.1899 500
    endloop
  endfacet
  facet normal 0.998539 0.0535467 0.00719458
    outer loop
      vertex 24.6305 -11.5967 500
      vertex 27.8752 -13.6854 65.2168
      vertex 27.8186 -12.6309 65.2168
    endloop
  endfacet
  facet normal 0.998539 0.0535464 0.00719458
    outer loop
      vertex 27.8752 -13.6854 65.2168
      vertex 24.6305 -11.5967 500
      vertex 24.7801 -14.3866 500
    endloop
  endfacet
  facet normal 0.99946 0.0320549 0.00716648
    outer loop
      vertex 27.8752 -13.6854 65.2168
      vertex 24.7801 -14.3866 500
      vertex 27.9423 -15.7793 65.2168
    endloop
  endfacet
  facet normal 0.995241 0.0971686 0.00729412
    outer loop
      vertex 27.1706 -4.34647 65.2168
      vertex 24.1538 -6.08452 500
      vertex 27.3706 -6.39498 65.2168
    endloop
  endfacet
  facet normal -0.052479 0.998622 0.000876929
    outer loop
      vertex -10.0397 2.89311 65.2168
      vertex -10.901 2.46605 500
      vertex -8.84955 2.57386 500
    endloop
  endfacet
  facet normal -0.052479 0.998622 0.000876929
    outer loop
      vertex -10.901 2.46605 500
      vertex -10.0397 2.89311 65.2168
      vertex -10.8152 2.85236 65.2168
    endloop
  endfacet
  facet normal 0.100198 0.994967 0.00106597
    outer loop
      vertex 17.2789 2.38932 65.2168
      vertex 14.6703 2.18621 500
      vertex 16.3518 2.01687 500
    endloop
  endfacet
  facet normal 0.100198 0.994967 0.00106597
    outer loop
      vertex 14.6703 2.18621 500
      vertex 17.2789 2.38932 65.2168
      vertex 16.6433 2.45333 65.2168
    endloop
  endfacet
  facet normal 0.986198 0.165402 0.00743295
    outer loop
      vertex 23.3085 0.104151 500
      vertex 26.6779 -0.447014 65.2168
      vertex 26.6265 -0.140663 65.2168
    endloop
  endfacet
  facet normal 0.986199 0.1654 0.00743295
    outer loop
      vertex 26.6779 -0.447014 65.2168
      vertex 23.3085 0.104151 500
      vertex 23.4444 -0.706318 500
    endloop
  endfacet
  facet normal 0.992812 0.119457 0.00736636
    outer loop
      vertex 23.8278 -3.3754 500
      vertex 27.1706 -4.34647 65.2168
      vertex 27.0474 -3.32244 65.2168
    endloop
  endfacet
  facet normal 0.992812 0.119456 0.00736636
    outer loop
      vertex 27.1706 -4.34647 65.2168
      vertex 23.8278 -3.3754 500
      vertex 24.1538 -6.08452 500
    endloop
  endfacet
  facet normal -0.100198 0.994967 0.00106597
    outer loop
      vertex -16.6433 2.45333 65.2168
      vertex -16.3518 2.01687 500
      vertex -14.6703 2.18621 500
    endloop
  endfacet
  facet normal -0.100198 0.994967 0.00106597
    outer loop
      vertex -16.3518 2.01687 500
      vertex -16.6433 2.45333 65.2168
      vertex -17.2789 2.38932 65.2168
    endloop
  endfacet
  facet normal -0.100198 0.994967 0.00106597
    outer loop
      vertex -17.2789 2.38932 65.2168
      vertex -18.551 2.26122 65.2168
      vertex -16.3518 2.01687 500
    endloop
  endfacet
  facet normal -0.027821 0.999613 0.000818036
    outer loop
      vertex -5.9503 3.03583 65.2168
      vertex -7.61563 2.98948 65.2168
      vertex -6.71283 2.6588 500
    endloop
  endfacet
  facet normal -0.0397249 0.99921 0.000842448
    outer loop
      vertex -7.61563 2.98948 65.2168
      vertex -9.23205 2.92522 65.2168
      vertex -6.71283 2.6588 500
    endloop
  endfacet
  facet normal 0.121681 0.992569 0.00117328
    outer loop
      vertex 18.551 2.26122 65.2168
      vertex 16.3518 2.01687 500
      vertex 19.7039 2.11988 65.2168
    endloop
  endfacet
  facet normal 0.0664503 0.997789 0.000923455
    outer loop
      vertex 13.8396 2.67274 65.2168
      vertex 12.8476 2.33641 500
      vertex 14.5754 2.62374 65.2168
    endloop
  endfacet
  facet normal 0.0664503 0.997789 0.000923455
    outer loop
      vertex 12.8476 2.33641 500
      vertex 13.8396 2.67274 65.2168
      vertex 10.901 2.46605 500
    endloop
  endfacet
  facet normal 0.0664502 0.997789 0.000923455
    outer loop
      vertex 12.3671 2.7708 65.2168
      vertex 10.901 2.46605 500
      vertex 13.8396 2.67274 65.2168
    endloop
  endfacet
  facet normal 0.989814 0.142169 0.00744599
    outer loop
      vertex 23.4444 -0.706318 500
      vertex 26.8228 -1.45591 65.2168
      vertex 26.6779 -0.447014 65.2168
    endloop
  endfacet
  facet normal 0.989814 0.14217 0.00744599
    outer loop
      vertex 26.8228 -1.45591 65.2168
      vertex 23.4444 -0.706318 500
      vertex 23.8278 -3.3754 500
    endloop
  endfacet
  facet normal 0.995241 0.0971692 0.00729412
    outer loop
      vertex 24.1538 -6.08452 500
      vertex 27.4718 -7.43168 65.2168
      vertex 27.3706 -6.39498 65.2168
    endloop
  endfacet
  facet normal 0.995241 0.0971688 0.00729412
    outer loop
      vertex 27.4718 -7.43168 65.2168
      vertex 24.1538 -6.08452 500
      vertex 24.4216 -8.82718 500
    endloop
  endfacet
  facet normal -0.0664503 0.997789 0.000923455
    outer loop
      vertex -13.8396 2.67274 65.2168
      vertex -12.8476 2.33641 500
      vertex -10.901 2.46605 500
    endloop
  endfacet
  facet normal -0.0664503 0.997789 0.000923455
    outer loop
      vertex -12.8476 2.33641 500
      vertex -13.8396 2.67274 65.2168
      vertex -14.5754 2.62374 65.2168
    endloop
  endfacet
  facet normal -0.121681 0.992569 0.00117328
    outer loop
      vertex -18.551 2.26122 65.2168
      vertex -19.7039 2.11988 65.2168
      vertex -16.3518 2.01687 500
    endloop
  endfacet
  facet normal -0.0397251 0.99921 0.000842449
    outer loop
      vertex -9.23205 2.92522 65.2168
      vertex -8.84955 2.57386 500
      vertex -6.71283 2.6588 500
    endloop
  endfacet
  facet normal -0.0397252 0.99921 0.000842449
    outer loop
      vertex -8.84955 2.57386 500
      vertex -9.23205 2.92522 65.2168
      vertex -10.0397 2.89311 65.2168
    endloop
  endfacet
  facet normal 0.228698 0.973496 0.00180746
    outer loop
      vertex 23.504 1.48796 65.2168
      vertex 21.3647 1.18328 500
      vertex 24.238 1.31552 65.2168
    endloop
  endfacet
  facet normal 0.121681 0.992569 0.00117328
    outer loop
      vertex 19.7039 2.11988 65.2168
      vertex 17.8759 1.83004 500
      vertex 20.28 2.04926 65.2168
    endloop
  endfacet
  facet normal 0.121681 0.992569 0.00117328
    outer loop
      vertex 17.8759 1.83004 500
      vertex 19.7039 2.11988 65.2168
      vertex 16.3518 2.01687 500
    endloop
  endfacet
  facet normal 0.0397251 0.99921 0.000842449
    outer loop
      vertex 10.0397 2.89311 65.2168
      vertex 6.71283 2.6588 500
      vertex 8.84955 2.57386 500
    endloop
  endfacet
  facet normal 0.0397252 0.99921 0.000842449
    outer loop
      vertex 6.71283 2.6588 500
      vertex 10.0397 2.89311 65.2168
      vertex 9.23205 2.92522 65.2168
    endloop
  endfacet
  facet normal 0.0397249 0.99921 0.000842448
    outer loop
      vertex 7.61563 2.98948 65.2168
      vertex 6.71283 2.6588 500
      vertex 9.23205 2.92522 65.2168
    endloop
  endfacet
  facet normal 0.0821272 0.996621 0.000984984
    outer loop
      vertex 15.2644 2.56696 65.2168
      vertex 12.8476 2.33641 500
      vertex 14.6703 2.18621 500
    endloop
  endfacet
  facet normal 0.0821271 0.996621 0.000984984
    outer loop
      vertex 12.8476 2.33641 500
      vertex 15.2644 2.56696 65.2168
      vertex 14.5754 2.62374 65.2168
    endloop
  endfacet
  facet normal -0.148163 0.988962 0.00131789
    outer loop
      vertex -20.28 2.04926 65.2168
      vertex -19.2277 1.62751 500
      vertex -17.8759 1.83004 500
    endloop
  endfacet
  facet normal -0.148163 0.988962 0.00131789
    outer loop
      vertex -19.2277 1.62751 500
      vertex -20.28 2.04926 65.2168
      vertex -20.791 1.9727 65.2168
    endloop
  endfacet
  facet normal 0.182272 0.983247 0.00151824
    outer loop
      vertex 22.6962 1.65588 65.2168
      vertex 20.3944 1.41123 500
      vertex 23.1372 1.57412 65.2168
    endloop
  endfacet
  facet normal 0.182272 0.983247 0.00151824
    outer loop
      vertex 20.3944 1.41123 500
      vertex 22.6962 1.65588 65.2168
      vertex 19.2277 1.62751 500
    endloop
  endfacet
  facet normal 0.182272 0.983247 0.00151824
    outer loop
      vertex 21.8136 1.81949 65.2168
      vertex 19.2277 1.62751 500
      vertex 22.6962 1.65588 65.2168
    endloop
  endfacet
  facet normal 0.59951 0.800356 0.00433004
    outer loop
      vertex 25.7309 0.768689 65.2168
      vertex 23.0136 0.451849 500
      vertex 25.8568 0.674408 65.2168
    endloop
  endfacet
  facet normal 0.59951 0.800355 0.00433004
    outer loop
      vertex 23.0136 0.451849 500
      vertex 25.7309 0.768689 65.2168
      vertex 22.6807 0.701273 500
    endloop
  endfacet
  facet normal 0.0164796 0.999864 0.000802406
    outer loop
      vertex 5.1182 3.05899 65.2168
      vertex 2.26665 2.75707 500
      vertex 4.51146 2.72007 500
    endloop
  endfacet
  facet normal 0.0164798 0.999864 0.000802407
    outer loop
      vertex 2.26665 2.75707 500
      vertex 5.1182 3.05899 65.2168
      vertex 4.26968 3.07298 65.2168
    endloop
  endfacet
  facet normal 0.0164795 0.999864 0.000802405
    outer loop
      vertex 2.57148 3.10097 65.2168
      vertex 2.26665 2.75707 500
      vertex 4.26968 3.07298 65.2168
    endloop
  endfacet
  facet normal 0.052479 0.998622 0.000876929
    outer loop
      vertex 10.8152 2.85236 65.2168
      vertex 8.84955 2.57386 500
      vertex 10.901 2.46605 500
    endloop
  endfacet
  facet normal 0.052479 0.998622 0.000876929
    outer loop
      vertex 8.84955 2.57386 500
      vertex 10.8152 2.85236 65.2168
      vertex 10.0397 2.89311 65.2168
    endloop
  endfacet
  facet normal -0.182272 0.983247 0.00151824
    outer loop
      vertex -21.8136 1.81949 65.2168
      vertex -22.6962 1.65588 65.2168
      vertex -19.2277 1.62751 500
    endloop
  endfacet
  facet normal -0.182272 0.983247 0.00151824
    outer loop
      vertex -22.6962 1.65588 65.2168
      vertex -20.3944 1.41123 500
      vertex -19.2277 1.62751 500
    endloop
  endfacet
  facet normal -0.182272 0.983247 0.00151824
    outer loop
      vertex -20.3944 1.41123 500
      vertex -22.6962 1.65588 65.2168
      vertex -23.1372 1.57412 65.2168
    endloop
  endfacet
  facet normal 0.148163 0.988962 0.00131789
    outer loop
      vertex 20.791 1.9727 65.2168
      vertex 17.8759 1.83004 500
      vertex 19.2277 1.62751 500
    endloop
  endfacet
  facet normal 0.148163 0.988962 0.00131789
    outer loop
      vertex 17.8759 1.83004 500
      vertex 20.791 1.9727 65.2168
      vertex 20.28 2.04926 65.2168
    endloop
  endfacet
  facet normal 0.228698 0.973496 0.00180746
    outer loop
      vertex 23.1372 1.57412 65.2168
      vertex 21.3647 1.18328 500
      vertex 23.504 1.48796 65.2168
    endloop
  endfacet
  facet normal 0.228698 0.973496 0.00180746
    outer loop
      vertex 21.3647 1.18328 500
      vertex 23.1372 1.57412 65.2168
      vertex 20.3944 1.41123 500
    endloop
  endfacet
  facet normal 0.405479 0.9141 0.00298642
    outer loop
      vertex 25.1054 1.04618 65.2168
      vertex 22.6807 0.701273 500
      vertex 25.3138 0.953725 65.2168
    endloop
  endfacet
  facet normal 0.405477 0.9141 0.00298641
    outer loop
      vertex 22.6807 0.701273 500
      vertex 25.1054 1.04618 65.2168
      vertex 22.1292 0.945869 500
    endloop
  endfacet
  facet normal -0.00545821 0.999985 0.000794775
    outer loop
      vertex 0 3.115 65.2168
      vertex -2.26665 2.75707 500
      vertex 0 2.76944 500
    endloop
  endfacet
  facet normal -0.00545799 0.999985 0.000794776
    outer loop
      vertex -2.26665 2.75707 500
      vertex 0 3.115 65.2168
      vertex -0.856775 3.11033 65.2168
    endloop
  endfacet
  facet normal -0.00545862 0.999985 0.000794774
    outer loop
      vertex -0.856775 3.11033 65.2168
      vertex -2.57148 3.10097 65.2168
      vertex -2.26665 2.75707 500
    endloop
  endfacet
  facet normal 0.0278209 0.999613 0.000818037
    outer loop
      vertex 5.9503 3.03583 65.2168
      vertex 4.51146 2.72007 500
      vertex 6.71283 2.6588 500
    endloop
  endfacet
  facet normal 0.0278209 0.999613 0.000818037
    outer loop
      vertex 4.51146 2.72007 500
      vertex 5.9503 3.03583 65.2168
      vertex 5.1182 3.05899 65.2168
    endloop
  endfacet
  facet normal 0.00545821 0.999985 0.000794775
    outer loop
      vertex 0.856775 3.11033 65.2168
      vertex 0 2.76944 500
      vertex 2.26665 2.75707 500
    endloop
  endfacet
  facet normal 0.00545799 0.999985 0.000794775
    outer loop
      vertex 0 2.76944 500
      vertex 0.856775 3.11033 65.2168
      vertex 0 3.115 65.2168
    endloop
  endfacet
  facet normal 1 -0 0
    outer loop
      vertex -22 -20 500
      vertex -22 -4.44089e-14 65.2168
      vertex -22 -4.44089e-14 500
    endloop
  endfacet
  facet normal 1 0 0
    outer loop
      vertex -22 -4.44089e-14 65.2168
      vertex -22 -20 500
      vertex -22 -20 65.2168
    endloop
  endfacet
  facet normal -1 0 0
    outer loop
      vertex 22 -20 65.2168
      vertex 22 -4.44089e-14 500
      vertex 22 -4.44089e-14 65.2168
    endloop
  endfacet
  facet normal -1 -0 0
    outer loop
      vertex 22 -4.44089e-14 500
      vertex 22 -20 65.2168
      vertex 22 -20 500
    endloop
  endfacet
  facet normal 0 -1 0
    outer loop
      vertex 22 -20 65.2168
      vertex 24.9 -20 500
      vertex 22 -20 500
    endloop
  endfacet
  facet normal 0 -1 -0
    outer loop
      vertex 24.9 -20 500
      vertex 22 -20 65.2168
      vertex 28.01 -20 65.2168
    endloop
  endfacet
  facet normal 0 -1 0
    outer loop
      vertex -28.01 -20 65.2168
      vertex -22 -20 500
      vertex -24.9 -20 500
    endloop
  endfacet
  facet normal 0 -1 -0
    outer loop
      vertex -22 -20 500
      vertex -28.01 -20 65.2168
      vertex -22 -20 65.2168
    endloop
  endfacet
  facet normal 0 -1 0
    outer loop
      vertex -22 -4.44089e-14 65.2168
      vertex 22 -4.44089e-14 500
      vertex -22 -4.44089e-14 500
    endloop
  endfacet
  facet normal 0 -1 -0
    outer loop
      vertex 22 -4.44089e-14 500
      vertex -22 -4.44089e-14 65.2168
      vertex 22 -4.44089e-14 65.2168
    endloop
  endfacet
  facet normal 0 0 -1
    outer loop
      vertex -27.5508 -8.47855 65.2168
      vertex -22 -4.44089e-14 65.2168
      vertex -22 -20 65.2168
    endloop
  endfacet
  facet normal 0 -0 -1
    outer loop
      vertex -27.3706 -6.39498 65.2168
      vertex -22 -4.44089e-14 65.2168
      vertex -27.4718 -7.43168 65.2168
    endloop
  endfacet
  facet normal 0 -0 -1
    outer loop
      vertex -27.1706 -4.34647 65.2168
      vertex -22 -4.44089e-14 65.2168
      vertex -27.3706 -6.39498 65.2168
    endloop
  endfacet
  facet normal 0 -0 -1
    outer loop
      vertex -27.0474 -3.32244 65.2168
      vertex -22 -4.44089e-14 65.2168
      vertex -27.1706 -4.34647 65.2168
    endloop
  endfacet
  facet normal 0 0 -1
    outer loop
      vertex -22 -4.44089e-14 65.2168
      vertex -23.1372 1.57412 65.2168
      vertex -22.6962 1.65588 65.2168
    endloop
  endfacet
  facet normal 0 0 -1
    outer loop
      vertex -22 -4.44089e-14 65.2168
      vertex -23.504 1.48796 65.2168
      vertex -23.1372 1.57412 65.2168
    endloop
  endfacet
  facet normal 0 -0 -1
    outer loop
      vertex -25.3138 0.953725 65.2168
      vertex -22 -4.44089e-14 65.2168
      vertex -26.8228 -1.45591 65.2168
    endloop
  endfacet
  facet normal 0 0 -1
    outer loop
      vertex -22 -4.44089e-14 65.2168
      vertex -24.238 1.31552 65.2168
      vertex -23.504 1.48796 65.2168
    endloop
  endfacet
  facet normal 0 0 -1
    outer loop
      vertex -22 -4.44089e-14 65.2168
      vertex -25.3138 0.953725 65.2168
      vertex -24.8164 1.13592 65.2168
    endloop
  endfacet
  facet normal 0 0 -1
    outer loop
      vertex -24.8164 1.13592 65.2168
      vertex -25.3138 0.953725 65.2168
      vertex -25.1054 1.04618 65.2168
    endloop
  endfacet
  facet normal 0 0 -1
    outer loop
      vertex -25.3138 0.953725 65.2168
      vertex -25.8568 0.674408 65.2168
      vertex -25.7309 0.768689 65.2168
    endloop
  endfacet
  facet normal 0 0 -1
    outer loop
      vertex -25.3138 0.953725 65.2168
      vertex -26.6779 -0.447014 65.2168
      vertex -25.8568 0.674408 65.2168
    endloop
  endfacet
  facet normal 0 0 -1
    outer loop
      vertex -26.2202 0.354292 65.2168
      vertex -26.6779 -0.447014 65.2168
      vertex -26.6265 -0.140663 65.2168
    endloop
  endfacet
  facet normal 0 0 -1
    outer loop
      vertex -25.8568 0.674408 65.2168
      vertex -26.6779 -0.447014 65.2168
      vertex -26.2202 0.354292 65.2168
    endloop
  endfacet
  facet normal 0 0 -1
    outer loop
      vertex -25.8568 0.674408 65.2168
      vertex -26.2202 0.354292 65.2168
      vertex -26.1087 0.48572 65.2168
    endloop
  endfacet
  facet normal 0 -0 -1
    outer loop
      vertex -26.6779 -0.447014 65.2168
      vertex -25.3138 0.953725 65.2168
      vertex -26.8228 -1.45591 65.2168
    endloop
  endfacet
  facet normal 0 0 -1
    outer loop
      vertex -22 -4.44089e-14 65.2168
      vertex -24.8164 1.13592 65.2168
      vertex -24.238 1.31552 65.2168
    endloop
  endfacet
  facet normal 0 -0 -1
    outer loop
      vertex -26.8228 -1.45591 65.2168
      vertex -22 -4.44089e-14 65.2168
      vertex -27.0474 -3.32244 65.2168
    endloop
  endfacet
  facet normal 0 0 -1
    outer loop
      vertex -22 -4.44089e-14 65.2168
      vertex -27.5508 -8.47855 65.2168
      vertex -27.4718 -7.43168 65.2168
    endloop
  endfacet
  facet normal 0 0 -1
    outer loop
      vertex -22 -20 65.2168
      vertex -27.7069 -10.5472 65.2168
      vertex -27.5508 -8.47855 65.2168
    endloop
  endfacet
  facet normal 0 0 -1
    outer loop
      vertex -22 -20 65.2168
      vertex -27.8186 -12.6309 65.2168
      vertex -27.7069 -10.5472 65.2168
    endloop
  endfacet
  facet normal 0 0 -1
    outer loop
      vertex -22 -20 65.2168
      vertex -27.8752 -13.6854 65.2168
      vertex -27.8186 -12.6309 65.2168
    endloop
  endfacet
  facet normal 0 0 -1
    outer loop
      vertex -22 -20 65.2168
      vertex -27.9423 -15.7793 65.2168
      vertex -27.8752 -13.6854 65.2168
    endloop
  endfacet
  facet normal 0 0 -1
    outer loop
      vertex -22 -20 65.2168
      vertex -27.9763 -16.8389 65.2168
      vertex -27.9423 -15.7793 65.2168
    endloop
  endfacet
  facet normal 0 0 -1
    outer loop
      vertex -22 -20 65.2168
      vertex -27.9876 -17.9011 65.2168
      vertex -27.9763 -16.8389 65.2168
    endloop
  endfacet
  facet normal 0 -0 -1
    outer loop
      vertex -27.9876 -17.9011 65.2168
      vertex -22 -20 65.2168
      vertex -28.01 -20 65.2168
    endloop
  endfacet
  facet normal 0 0 -1
    outer loop
      vertex 22 -20 65.2168
      vertex 27.9876 -17.9011 65.2168
      vertex 28.01 -20 65.2168
    endloop
  endfacet
  facet normal -0 0 -1
    outer loop
      vertex 27.9876 -17.9011 65.2168
      vertex 22 -20 65.2168
      vertex 27.9763 -16.8389 65.2168
    endloop
  endfacet
  facet normal -0 0 -1
    outer loop
      vertex 27.9763 -16.8389 65.2168
      vertex 22 -20 65.2168
      vertex 27.9423 -15.7793 65.2168
    endloop
  endfacet
  facet normal -0 0 -1
    outer loop
      vertex 27.9423 -15.7793 65.2168
      vertex 22 -20 65.2168
      vertex 27.8752 -13.6854 65.2168
    endloop
  endfacet
  facet normal -0 0 -1
    outer loop
      vertex 27.8752 -13.6854 65.2168
      vertex 22 -20 65.2168
      vertex 27.8186 -12.6309 65.2168
    endloop
  endfacet
  facet normal -0 0 -1
    outer loop
      vertex 27.8186 -12.6309 65.2168
      vertex 22 -20 65.2168
      vertex 27.7069 -10.5472 65.2168
    endloop
  endfacet
  facet normal -0 0 -1
    outer loop
      vertex 27.7069 -10.5472 65.2168
      vertex 22 -20 65.2168
      vertex 27.5508 -8.47855 65.2168
    endloop
  endfacet
  facet normal 0 0 -1
    outer loop
      vertex 22 -4.44089e-14 65.2168
      vertex 27.5508 -8.47855 65.2168
      vertex 22 -20 65.2168
    endloop
  endfacet
  facet normal 0 0 -1
    outer loop
      vertex 27.5508 -8.47855 65.2168
      vertex 22 -4.44089e-14 65.2168
      vertex 27.4718 -7.43168 65.2168
    endloop
  endfacet
  facet normal 0 0 -1
    outer loop
      vertex 27.4718 -7.43168 65.2168
      vertex 22 -4.44089e-14 65.2168
      vertex 27.3706 -6.39498 65.2168
    endloop
  endfacet
  facet normal 0 0 -1
    outer loop
      vertex 27.3706 -6.39498 65.2168
      vertex 22 -4.44089e-14 65.2168
      vertex 27.1706 -4.34647 65.2168
    endloop
  endfacet
  facet normal 0 0 -1
    outer loop
      vertex 27.1706 -4.34647 65.2168
      vertex 22 -4.44089e-14 65.2168
      vertex 27.0474 -3.32244 65.2168
    endloop
  endfacet
  facet normal 0 0 -1
    outer loop
      vertex 27.0474 -3.32244 65.2168
      vertex 22 -4.44089e-14 65.2168
      vertex 26.8228 -1.45591 65.2168
    endloop
  endfacet
  facet normal 0 -0 -1
    outer loop
      vertex 25.3138 0.953725 65.2168
      vertex 26.8228 -1.45591 65.2168
      vertex 22 -4.44089e-14 65.2168
    endloop
  endfacet
  facet normal 0 0 -1
    outer loop
      vertex 26.6779 -0.447014 65.2168
      vertex 26.2202 0.354292 65.2168
      vertex 26.6265 -0.140663 65.2168
    endloop
  endfacet
  facet normal 0 0 -1
    outer loop
      vertex 26.6779 -0.447014 65.2168
      vertex 25.3138 0.953725 65.2168
      vertex 26.2202 0.354292 65.2168
    endloop
  endfacet
  facet normal 0 0 -1
    outer loop
      vertex 26.2202 0.354292 65.2168
      vertex 25.8568 0.674408 65.2168
      vertex 26.1087 0.48572 65.2168
    endloop
  endfacet
  facet normal 0 0 -1
    outer loop
      vertex 26.2202 0.354292 65.2168
      vertex 25.3138 0.953725 65.2168
      vertex 25.8568 0.674408 65.2168
    endloop
  endfacet
  facet normal 0 0 -1
    outer loop
      vertex 25.8568 0.674408 65.2168
      vertex 25.3138 0.953725 65.2168
      vertex 25.7309 0.768689 65.2168
    endloop
  endfacet
  facet normal 0 -0 -1
    outer loop
      vertex 24.8164 1.13592 65.2168
      vertex 25.3138 0.953725 65.2168
      vertex 22 -4.44089e-14 65.2168
    endloop
  endfacet
  facet normal 0 0 -1
    outer loop
      vertex 25.3138 0.953725 65.2168
      vertex 24.8164 1.13592 65.2168
      vertex 25.1054 1.04618 65.2168
    endloop
  endfacet
  facet normal -0 0 -1
    outer loop
      vertex 24.8164 1.13592 65.2168
      vertex 22 -4.44089e-14 65.2168
      vertex 24.238 1.31552 65.2168
    endloop
  endfacet
  facet normal -0 0 -1
    outer loop
      vertex 24.238 1.31552 65.2168
      vertex 22 -4.44089e-14 65.2168
      vertex 23.504 1.48796 65.2168
    endloop
  endfacet
  facet normal -0 0 -1
    outer loop
      vertex 23.504 1.48796 65.2168
      vertex 22 -4.44089e-14 65.2168
      vertex 23.1372 1.57412 65.2168
    endloop
  endfacet
  facet normal 0 0 -1
    outer loop
      vertex 26.8228 -1.45591 65.2168
      vertex 25.3138 0.953725 65.2168
      vertex 26.6779 -0.447014 65.2168
    endloop
  endfacet
  facet normal -0 0 -1
    outer loop
      vertex 23.1372 1.57412 65.2168
      vertex 22 -4.44089e-14 65.2168
      vertex 22.6962 1.65588 65.2168
    endloop
  endfacet
  facet normal 0 0 -1
    outer loop
      vertex 22 -4.44089e-14 65.2168
      vertex 21.8136 1.81949 65.2168
      vertex 22.6962 1.65588 65.2168
    endloop
  endfacet
  facet normal 0 0 -1
    outer loop
      vertex 22 -4.44089e-14 65.2168
      vertex 20.791 1.9727 65.2168
      vertex 21.8136 1.81949 65.2168
    endloop
  endfacet
  facet normal 0 0 -1
    outer loop
      vertex 22 -4.44089e-14 65.2168
      vertex 20.28 2.04926 65.2168
      vertex 20.791 1.9727 65.2168
    endloop
  endfacet
  facet normal 0 0 -1
    outer loop
      vertex 22 -4.44089e-14 65.2168
      vertex 19.7039 2.11988 65.2168
      vertex 20.28 2.04926 65.2168
    endloop
  endfacet
  facet normal 0 0 -1
    outer loop
      vertex 22 -4.44089e-14 65.2168
      vertex 18.551 2.26122 65.2168
      vertex 19.7039 2.11988 65.2168
    endloop
  endfacet
  facet normal 0 0 -1
    outer loop
      vertex 22 -4.44089e-14 65.2168
      vertex 17.2789 2.38932 65.2168
      vertex 18.551 2.26122 65.2168
    endloop
  endfacet
  facet normal 0 0 -1
    outer loop
      vertex 22 -4.44089e-14 65.2168
      vertex 16.6433 2.45333 65.2168
      vertex 17.2789 2.38932 65.2168
    endloop
  endfacet
  facet normal 0 0 -1
    outer loop
      vertex 22 -4.44089e-14 65.2168
      vertex 15.2644 2.56696 65.2168
      vertex 16.6433 2.45333 65.2168
    endloop
  endfacet
  facet normal 0 0 -1
    outer loop
      vertex 22 -4.44089e-14 65.2168
      vertex 14.5754 2.62374 65.2168
      vertex 15.2644 2.56696 65.2168
    endloop
  endfacet
  facet normal 0 0 -1
    outer loop
      vertex 22 -4.44089e-14 65.2168
      vertex 13.8396 2.67274 65.2168
      vertex 14.5754 2.62374 65.2168
    endloop
  endfacet
  facet normal 0 0 -1
    outer loop
      vertex 22 -4.44089e-14 65.2168
      vertex 12.3671 2.7708 65.2168
      vertex 13.8396 2.67274 65.2168
    endloop
  endfacet
  facet normal 0 0 -1
    outer loop
      vertex 22 -4.44089e-14 65.2168
      vertex 10.8152 2.85236 65.2168
      vertex 12.3671 2.7708 65.2168
    endloop
  endfacet
  facet normal 0 0 -1
    outer loop
      vertex 22 -4.44089e-14 65.2168
      vertex 10.0397 2.89311 65.2168
      vertex 10.8152 2.85236 65.2168
    endloop
  endfacet
  facet normal 0 0 -1
    outer loop
      vertex 22 -4.44089e-14 65.2168
      vertex 9.23205 2.92522 65.2168
      vertex 10.0397 2.89311 65.2168
    endloop
  endfacet
  facet normal 0 0 -1
    outer loop
      vertex 22 -4.44089e-14 65.2168
      vertex 7.61563 2.98948 65.2168
      vertex 9.23205 2.92522 65.2168
    endloop
  endfacet
  facet normal 0 0 -1
    outer loop
      vertex 22 -4.44089e-14 65.2168
      vertex 5.9503 3.03583 65.2168
      vertex 7.61563 2.98948 65.2168
    endloop
  endfacet
  facet normal 0 0 -1
    outer loop
      vertex 22 -4.44089e-14 65.2168
      vertex 5.1182 3.05899 65.2168
      vertex 5.9503 3.03583 65.2168
    endloop
  endfacet
  facet normal 0 0 -1
    outer loop
      vertex 22 -4.44089e-14 65.2168
      vertex 4.26968 3.07298 65.2168
      vertex 5.1182 3.05899 65.2168
    endloop
  endfacet
  facet normal 0 0 -1
    outer loop
      vertex 22 -4.44089e-14 65.2168
      vertex 2.57148 3.10097 65.2168
      vertex 4.26968 3.07298 65.2168
    endloop
  endfacet
  facet normal 0 0 -1
    outer loop
      vertex 22 -4.44089e-14 65.2168
      vertex 0.856775 3.11033 65.2168
      vertex 2.57148 3.10097 65.2168
    endloop
  endfacet
  facet normal 0 0 -1
    outer loop
      vertex 22 -4.44089e-14 65.2168
      vertex 0 3.115 65.2168
      vertex 0.856775 3.11033 65.2168
    endloop
  endfacet
  facet normal 0 0 -1
    outer loop
      vertex 22 -4.44089e-14 65.2168
      vertex -0.856775 3.11033 65.2168
      vertex 0 3.115 65.2168
    endloop
  endfacet
  facet normal 0 0 -1
    outer loop
      vertex -22 -4.44089e-14 65.2168
      vertex -0.856775 3.11033 65.2168
      vertex 22 -4.44089e-14 65.2168
    endloop
  endfacet
  facet normal 0 0 -1
    outer loop
      vertex -0.856775 3.11033 65.2168
      vertex -22 -4.44089e-14 65.2168
      vertex -2.57148 3.10097 65.2168
    endloop
  endfacet
  facet normal 0 0 -1
    outer loop
      vertex -2.57148 3.10097 65.2168
      vertex -22 -4.44089e-14 65.2168
      vertex -4.26968 3.07298 65.2168
    endloop
  endfacet
  facet normal 0 0 -1
    outer loop
      vertex -4.26968 3.07298 65.2168
      vertex -22 -4.44089e-14 65.2168
      vertex -5.1182 3.05899 65.2168
    endloop
  endfacet
  facet normal 0 0 -1
    outer loop
      vertex -5.1182 3.05899 65.2168
      vertex -22 -4.44089e-14 65.2168
      vertex -5.9503 3.03583 65.2168
    endloop
  endfacet
  facet normal 0 0 -1
    outer loop
      vertex -5.9503 3.03583 65.2168
      vertex -22 -4.44089e-14 65.2168
      vertex -7.61563 2.98948 65.2168
    endloop
  endfacet
  facet normal 0 0 -1
    outer loop
      vertex -7.61563 2.98948 65.2168
      vertex -22 -4.44089e-14 65.2168
      vertex -9.23205 2.92522 65.2168
    endloop
  endfacet
  facet normal 0 0 -1
    outer loop
      vertex -9.23205 2.92522 65.2168
      vertex -22 -4.44089e-14 65.2168
      vertex -10.0397 2.89311 65.2168
    endloop
  endfacet
  facet normal 0 0 -1
    outer loop
      vertex -10.0397 2.89311 65.2168
      vertex -22 -4.44089e-14 65.2168
      vertex -10.8152 2.85236 65.2168
    endloop
  endfacet
  facet normal 0 0 -1
    outer loop
      vertex -10.8152 2.85236 65.2168
      vertex -22 -4.44089e-14 65.2168
      vertex -12.3671 2.7708 65.2168
    endloop
  endfacet
  facet normal 0 0 -1
    outer loop
      vertex -12.3671 2.7708 65.2168
      vertex -22 -4.44089e-14 65.2168
      vertex -13.8396 2.67274 65.2168
    endloop
  endfacet
  facet normal 0 0 -1
    outer loop
      vertex -13.8396 2.67274 65.2168
      vertex -22 -4.44089e-14 65.2168
      vertex -14.5754 2.62374 65.2168
    endloop
  endfacet
  facet normal 0 0 -1
    outer loop
      vertex -14.5754 2.62374 65.2168
      vertex -22 -4.44089e-14 65.2168
      vertex -15.2644 2.56696 65.2168
    endloop
  endfacet
  facet normal 0 0 -1
    outer loop
      vertex -15.2644 2.56696 65.2168
      vertex -22 -4.44089e-14 65.2168
      vertex -16.6433 2.45333 65.2168
    endloop
  endfacet
  facet normal 0 0 -1
    outer loop
      vertex -16.6433 2.45333 65.2168
      vertex -22 -4.44089e-14 65.2168
      vertex -17.2789 2.38932 65.2168
    endloop
  endfacet
  facet normal 0 0 -1
    outer loop
      vertex -17.2789 2.38932 65.2168
      vertex -22 -4.44089e-14 65.2168
      vertex -18.551 2.26122 65.2168
    endloop
  endfacet
  facet normal 0 0 -1
    outer loop
      vertex -18.551 2.26122 65.2168
      vertex -22 -4.44089e-14 65.2168
      vertex -19.7039 2.11988 65.2168
    endloop
  endfacet
  facet normal 0 0 -1
    outer loop
      vertex -19.7039 2.11988 65.2168
      vertex -22 -4.44089e-14 65.2168
      vertex -20.28 2.04926 65.2168
    endloop
  endfacet
  facet normal 0 0 -1
    outer loop
      vertex -20.28 2.04926 65.2168
      vertex -22 -4.44089e-14 65.2168
      vertex -20.791 1.9727 65.2168
    endloop
  endfacet
  facet normal 0 0 -1
    outer loop
      vertex -20.791 1.9727 65.2168
      vertex -22 -4.44089e-14 65.2168
      vertex -21.8136 1.81949 65.2168
    endloop
  endfacet
  facet normal 0 0 -1
    outer loop
      vertex -21.8136 1.81949 65.2168
      vertex -22 -4.44089e-14 65.2168
      vertex -22.6962 1.65588 65.2168
    endloop
  endfacet
  facet normal -1 0 0
    outer loop
      vertex -28.2 -20 53.6
      vertex -28.2 20 54.6
      vertex -28.2 20 53.6
    endloop
  endfacet
  facet normal -1 -0 0
    outer loop
      vertex -28.2 20 54.6
      vertex -28.2 -20 53.6
      vertex -28.2 -20 54.6
    endloop
  endfacet
  facet normal 0 0 -1
    outer loop
      vertex -22 -20 53.6
      vertex -28.2 -20 53.6
      vertex -22 1.19016e-14 53.6
    endloop
  endfacet
  facet normal 0 0 -1
    outer loop
      vertex 22 1.19016e-14 53.6
      vertex 28.2 1.19016e-14 53.6
      vertex 28.2 -20 53.6
    endloop
  endfacet
  facet normal 0 0 -1
    outer loop
      vertex 22 1.19016e-14 53.6
      vertex 28.2 -20 53.6
      vertex 22 -20 53.6
    endloop
  endfacet
  facet normal 0 0 -1
    outer loop
      vertex 28.2 1.19016e-14 53.6
      vertex 22 1.19016e-14 53.6
      vertex 23.4474 7.46708 53.6
    endloop
  endfacet
  facet normal 0 0 -1
    outer loop
      vertex 22 1.19016e-14 53.6
      vertex 21.7989 9.68989 53.6
      vertex 23.4474 7.46708 53.6
    endloop
  endfacet
  facet normal 0 0 -1
    outer loop
      vertex 22 1.19016e-14 53.6
      vertex 19.9404 11.7404 53.6
      vertex 21.7989 9.68989 53.6
    endloop
  endfacet
  facet normal 0 0 -1
    outer loop
      vertex 22 1.19016e-14 53.6
      vertex 17.8899 13.5989 53.6
      vertex 19.9404 11.7404 53.6
    endloop
  endfacet
  facet normal 0 0 -1
    outer loop
      vertex 22 1.19016e-14 53.6
      vertex 15.6671 15.2474 53.6
      vertex 17.8899 13.5989 53.6
    endloop
  endfacet
  facet normal 0 0 -1
    outer loop
      vertex 22 1.19016e-14 53.6
      vertex 13.2934 16.6702 53.6
      vertex 15.6671 15.2474 53.6
    endloop
  endfacet
  facet normal 0 0 -1
    outer loop
      vertex 22 1.19016e-14 53.6
      vertex 10.7917 17.8534 53.6
      vertex 13.2934 16.6702 53.6
    endloop
  endfacet
  facet normal 0 0 -1
    outer loop
      vertex 22 1.19016e-14 53.6
      vertex 8.18603 18.7857 53.6
      vertex 10.7917 17.8534 53.6
    endloop
  endfacet
  facet normal 0 0 -1
    outer loop
      vertex 22 1.19016e-14 53.6
      vertex 5.50155 19.4581 53.6
      vertex 8.18603 18.7857 53.6
    endloop
  endfacet
  facet normal 0 0 -1
    outer loop
      vertex 22 1.19016e-14 53.6
      vertex 2.76408 19.8642 53.6
      vertex 5.50155 19.4581 53.6
    endloop
  endfacet
  facet normal 0 0 -1
    outer loop
      vertex 22 1.19016e-14 53.6
      vertex 0 20 53.6
      vertex 2.76408 19.8642 53.6
    endloop
  endfacet
  facet normal 0 0 -1
    outer loop
      vertex -22 1.19016e-14 53.6
      vertex 0 20 53.6
      vertex 22 1.19016e-14 53.6
    endloop
  endfacet
  facet normal -0 0 -1
    outer loop
      vertex 0 20 53.6
      vertex -22 1.19016e-14 53.6
      vertex -8.2 20 53.6
    endloop
  endfacet
  facet normal 0 0 -1
    outer loop
      vertex -22 1.19016e-14 53.6
      vertex -28.2 20 53.6
      vertex -8.2 20 53.6
    endloop
  endfacet
  facet normal 0 0 -1
    outer loop
      vertex -28.2 20 53.6
      vertex -22 1.19016e-14 53.6
      vertex -28.2 -20 53.6
    endloop
  endfacet
  facet normal -0.998374 0.0106558 0.0559927
    outer loop
      vertex -28.0089 -17.8866 65.2168
      vertex -28.2 20 54.6
      vertex -28.0315 -20 65.2168
    endloop
  endfacet
  facet normal 0.752467 0.617779 0.228346
    outer loop
      vertex 26.6494 -0.142352 65.2168
      vertex 21.7989 9.68989 54.6
      vertex 26.2403 0.356018 65.2168
    endloop
  endfacet
  facet normal 0 -1 0
    outer loop
      vertex -28.2 -20 54.6
      vertex -22 -20 65.2168
      vertex -28.0315 -20 65.2168
    endloop
  endfacet
  facet normal 0 -1 0
    outer loop
      vertex -22 -20 53.6
      vertex -28.2 -20 54.6
      vertex -28.2 -20 53.6
    endloop
  endfacet
  facet normal 0 -1 0
    outer loop
      vertex -28.2 -20 54.6
      vertex -22 -20 53.6
      vertex -22 -20 65.2168
    endloop
  endfacet
  facet normal 0 -1 0
    outer loop
      vertex 22 -20 65.2168
      vertex 28.2 -20 54.6
      vertex 28.0315 -20 65.2168
    endloop
  endfacet
  facet normal 0 -1 0
    outer loop
      vertex 22 -20 53.6
      vertex 28.2 -20 54.6
      vertex 22 -20 65.2168
    endloop
  endfacet
  facet normal 0 -1 -0
    outer loop
      vertex 28.2 -20 54.6
      vertex 22 -20 53.6
      vertex 28.2 -20 53.6
    endloop
  endfacet
  facet normal -0.999874 0 0.0158696
    outer loop
      vertex -28.2 20 54.6
      vertex -28.2 -20 54.6
      vertex -28.0315 -20 65.2168
    endloop
  endfacet
  facet normal 0.999874 0 0.0158696
    outer loop
      vertex 28.2 1.21236e-14 54.6
      vertex 28.0315 -20 65.2168
      vertex 28.2 -20 54.6
    endloop
  endfacet
  facet normal -0.144592 0.465619 0.873093
    outer loop
      vertex -24.8402 1.13559 65.2168
      vertex -28.2 20 54.6
      vertex -25.1259 1.04687 65.2168
    endloop
  endfacet
  facet normal -0 0 1
    outer loop
      vertex -26.7002 -0.445225 65.2168
      vertex -26.8435 -1.44266 65.2168
      vertex -26.2403 0.356018 65.2168
    endloop
  endfacet
  facet normal 0 0 1
    outer loop
      vertex 26.6494 -0.142352 65.2168
      vertex 26.2403 0.356018 65.2168
      vertex 26.7002 -0.445225 65.2168
    endloop
  endfacet
  facet normal 1 -0 0
    outer loop
      vertex 28.2 -20 54.6
      vertex 28.2 1.19016e-14 53.6
      vertex 28.2 1.21236e-14 54.6
    endloop
  endfacet
  facet normal 1 0 0
    outer loop
      vertex 28.2 1.19016e-14 53.6
      vertex 28.2 -20 54.6
      vertex 28.2 -20 53.6
    endloop
  endfacet
  facet normal 0.00290606 0.532343 0.846524
    outer loop
      vertex 2.57359 3.10334 65.2168
      vertex 0 20 54.6
      vertex 0.847047 3.11276 65.2168
    endloop
  endfacet
  facet normal 0 1 -0
    outer loop
      vertex -8.2 20 53.6
      vertex -28.2 20 54.6
      vertex -8.2 20 54.6
    endloop
  endfacet
  facet normal 0 1 0
    outer loop
      vertex -28.2 20 54.6
      vertex -8.2 20 53.6
      vertex -28.2 20 53.6
    endloop
  endfacet
  facet normal -0.467444 0.383774 0.796375
    outer loop
      vertex -26.2403 0.356018 65.2168
      vertex -28.2 20 54.6
      vertex -26.6494 -0.142352 65.2168
    endloop
  endfacet
  facet normal -0.914686 0.131379 0.382217
    outer loop
      vertex -26.7002 -0.445225 65.2168
      vertex -28.2 20 54.6
      vertex -26.8435 -1.44266 65.2168
    endloop
  endfacet
  facet normal 0.997055 0.0319774 0.069707
    outer loop
      vertex 28.2 1.21236e-14 54.6
      vertex 27.8965 -13.6806 65.2168
      vertex 27.9977 -16.8365 65.2168
    endloop
  endfacet
  facet normal 0.990179 0.0747001 0.118172
    outer loop
      vertex 28.2 1.21236e-14 54.6
      vertex 27.571 -8.45704 65.2168
      vertex 27.7281 -10.5399 65.2168
    endloop
  endfacet
  facet normal 0.739962 0.627545 0.242163
    outer loop
      vertex 26.2403 0.356018 65.2168
      vertex 21.7989 9.68989 54.6
      vertex 26.1301 0.485953 65.2168
    endloop
  endfacet
  facet normal -0.964911 0.0727938 0.252286
    outer loop
      vertex -27.571 -8.45704 65.2168
      vertex -28.2 20 54.6
      vertex -27.7281 -10.5399 65.2168
    endloop
  endfacet
  facet normal -0 0 1
    outer loop
      vertex -27.4929 -7.42205 65.2168
      vertex -27.571 -8.45704 65.2168
      vertex -26.2403 0.356018 65.2168
    endloop
  endfacet
  facet normal -0 0 1
    outer loop
      vertex -27.9977 -16.8365 65.2168
      vertex -28.0089 -17.8866 65.2168
      vertex -26.2403 0.356018 65.2168
    endloop
  endfacet
  facet normal 0 0 1
    outer loop
      vertex 26.2403 0.356018 65.2168
      vertex -22 1.4481e-14 65.2168
      vertex 22 1.4481e-14 65.2168
    endloop
  endfacet
  facet normal -0 0 1
    outer loop
      vertex -26.2403 0.356018 65.2168
      vertex -22 1.4481e-14 65.2168
      vertex 26.2403 0.356018 65.2168
    endloop
  endfacet
  facet normal 0 0 1
    outer loop
      vertex -26.2403 0.356018 65.2168
      vertex -22 -20 65.2168
      vertex -22 1.4481e-14 65.2168
    endloop
  endfacet
  facet normal 0 0 1
    outer loop
      vertex -22 -20 65.2168
      vertex -26.2403 0.356018 65.2168
      vertex -28.0315 -20 65.2168
    endloop
  endfacet
  facet normal -0 0 1
    outer loop
      vertex 22 1.4481e-14 65.2168
      vertex 28.0315 -20 65.2168
      vertex 26.2403 0.356018 65.2168
    endloop
  endfacet
  facet normal 0 0 1
    outer loop
      vertex 28.0315 -20 65.2168
      vertex 22 1.4481e-14 65.2168
      vertex 22 -20 65.2168
    endloop
  endfacet
  facet normal 0 0 1
    outer loop
      vertex 26.7002 -0.445225 65.2168
      vertex 26.2403 0.356018 65.2168
      vertex 26.8435 -1.44266 65.2168
    endloop
  endfacet
  facet normal 0.5957 0.803207 -0
    outer loop
      vertex 17.8899 13.5989 53.6
      vertex 15.6671 15.2474 54.6
      vertex 17.8899 13.5989 54.6
    endloop
  endfacet
  facet normal 0.5957 0.803207 0
    outer loop
      vertex 15.6671 15.2474 54.6
      vertex 17.8899 13.5989 53.6
      vertex 15.6671 15.2474 53.6
    endloop
  endfacet
  facet normal 0.424858 0.708832 0.563074
    outer loop
      vertex 15.6671 15.2474 54.6
      vertex 13.2934 16.6702 54.6
      vertex 25.752 0.769154 65.2168
    endloop
  endfacet
  facet normal 0.986422 0.0963074 0.133027
    outer loop
      vertex 28.2 1.21236e-14 54.6
      vertex 27.3928 -6.39712 65.2168
      vertex 27.4929 -7.42205 65.2168
    endloop
  endfacet
  facet normal 0 0 1
    outer loop
      vertex 27.0696 -3.32207 65.2168
      vertex 26.2403 0.356018 65.2168
      vertex 27.1914 -4.33447 65.2168
    endloop
  endfacet
  facet normal 0 0 1
    outer loop
      vertex 27.7281 -10.5399 65.2168
      vertex 26.2403 0.356018 65.2168
      vertex 27.8965 -13.6806 65.2168
    endloop
  endfacet
  facet normal 0.999297 0.0106656 0.0359524
    outer loop
      vertex 28.2 1.21236e-14 54.6
      vertex 28.0089 -17.8866 65.2168
      vertex 28.0315 -20 65.2168
    endloop
  endfacet
  facet normal 0.24298 0.970031 -0
    outer loop
      vertex 8.18603 18.7857 53.6
      vertex 5.50155 19.4581 54.6
      vertex 8.18603 18.7857 54.6
    endloop
  endfacet
  facet normal 0.24298 0.970031 0
    outer loop
      vertex 5.50155 19.4581 54.6
      vertex 8.18603 18.7857 53.6
      vertex 5.50155 19.4581 53.6
    endloop
  endfacet
  facet normal -0.991113 0.0317869 0.129172
    outer loop
      vertex -27.8965 -13.6806 65.2168
      vertex -28.2 20 54.6
      vertex -27.9977 -16.8365 65.2168
    endloop
  endfacet
  facet normal -0.931713 0.112104 0.345463
    outer loop
      vertex -27.0696 -3.32207 65.2168
      vertex -28.2 20 54.6
      vertex -27.1914 -4.33447 65.2168
    endloop
  endfacet
  facet normal -0.948665 0.0926211 0.302416
    outer loop
      vertex -27.3928 -6.39712 65.2168
      vertex -28.2 20 54.6
      vertex -27.4929 -7.42205 65.2168
    endloop
  endfacet
  facet normal -0 0 1
    outer loop
      vertex -27.7281 -10.5399 65.2168
      vertex -27.8965 -13.6806 65.2168
      vertex -26.2403 0.356018 65.2168
    endloop
  endfacet
  facet normal -0 0 1
    outer loop
      vertex -28.0089 -17.8866 65.2168
      vertex -28.0315 -20 65.2168
      vertex -26.2403 0.356018 65.2168
    endloop
  endfacet
  facet normal -0.896707 0.150392 0.416291
    outer loop
      vertex -26.6494 -0.142352 65.2168
      vertex -28.2 20 54.6
      vertex -26.7002 -0.445225 65.2168
    endloop
  endfacet
  facet normal -0.0334272 0.501928 0.864263
    outer loop
      vertex -12.3772 2.77291 65.2168
      vertex -28.2 20 54.6
      vertex -14.5873 2.62572 65.2168
    endloop
  endfacet
  facet normal 0 1 -0
    outer loop
      vertex 0 20 53.6
      vertex -8.2 20 54.6
      vertex 0 20 54.6
    endloop
  endfacet
  facet normal 0 1 0
    outer loop
      vertex -8.2 20 54.6
      vertex 0 20 53.6
      vertex -8.2 20 53.6
    endloop
  endfacet
  facet normal 0.789845 0.58579 0.181643
    outer loop
      vertex 23.4474 7.46708 54.6
      vertex 21.7989 9.68989 54.6
      vertex 26.6494 -0.142352 65.2168
    endloop
  endfacet
  facet normal 0.514103 0.857729 -0
    outer loop
      vertex 15.6671 15.2474 53.6
      vertex 13.2934 16.6702 54.6
      vertex 15.6671 15.2474 54.6
    endloop
  endfacet
  facet normal 0.514103 0.857729 0
    outer loop
      vertex 13.2934 16.6702 54.6
      vertex 15.6671 15.2474 53.6
      vertex 13.2934 16.6702 53.6
    endloop
  endfacet
  facet normal 0.33689 0.941544 -0
    outer loop
      vertex 10.7917 17.8534 53.6
      vertex 8.18603 18.7857 54.6
      vertex 10.7917 17.8534 54.6
    endloop
  endfacet
  facet normal 0.33689 0.941544 0
    outer loop
      vertex 8.18603 18.7857 54.6
      vertex 10.7917 17.8534 53.6
      vertex 8.18603 18.7857 53.6
    endloop
  endfacet
  facet normal 0.713525 0.646701 0.269555
    outer loop
      vertex 21.7989 9.68989 54.6
      vertex 19.9404 11.7404 54.6
      vertex 26.1301 0.485953 65.2168
    endloop
  endfacet
  facet normal 0.624825 0.689389 0.366519
    outer loop
      vertex 19.9404 11.7404 54.6
      vertex 17.8899 13.5989 54.6
      vertex 26.1301 0.485953 65.2168
    endloop
  endfacet
  facet normal 0 0 1
    outer loop
      vertex 27.3928 -6.39712 65.2168
      vertex 26.2403 0.356018 65.2168
      vertex 27.4929 -7.42205 65.2168
    endloop
  endfacet
  facet normal 0.982829 0.118254 0.141646
    outer loop
      vertex 28.2 1.21236e-14 54.6
      vertex 27.0696 -3.32207 65.2168
      vertex 27.1914 -4.33447 65.2168
    endloop
  endfacet
  facet normal 0 0 1
    outer loop
      vertex 27.571 -8.45704 65.2168
      vertex 26.2403 0.356018 65.2168
      vertex 27.7281 -10.5399 65.2168
    endloop
  endfacet
  facet normal 0.993848 0.0532953 0.0970852
    outer loop
      vertex 28.2 1.21236e-14 54.6
      vertex 27.7281 -10.5399 65.2168
      vertex 27.8965 -13.6806 65.2168
    endloop
  endfacet
  facet normal 0 0 1
    outer loop
      vertex 27.9977 -16.8365 65.2168
      vertex 26.2403 0.356018 65.2168
      vertex 28.0089 -17.8866 65.2168
    endloop
  endfacet
  facet normal 0 0 1
    outer loop
      vertex 28.0089 -17.8866 65.2168
      vertex 26.2403 0.356018 65.2168
      vertex 28.0315 -20 65.2168
    endloop
  endfacet
  facet normal 0 0 1
    outer loop
      vertex 27.8965 -13.6806 65.2168
      vertex 26.2403 0.356018 65.2168
      vertex 27.9977 -16.8365 65.2168
    endloop
  endfacet
  facet normal 0.999297 0.0106668 0.0359544
    outer loop
      vertex 28.2 1.21236e-14 54.6
      vertex 27.9977 -16.8365 65.2168
      vertex 28.0089 -17.8866 65.2168
    endloop
  endfacet
  facet normal -0 0 1
    outer loop
      vertex -26.6494 -0.142352 65.2168
      vertex -26.7002 -0.445225 65.2168
      vertex -26.2403 0.356018 65.2168
    endloop
  endfacet
  facet normal -0.998374 0.0106569 0.0559969
    outer loop
      vertex -27.9977 -16.8365 65.2168
      vertex -28.2 20 54.6
      vertex -28.0089 -17.8866 65.2168
    endloop
  endfacet
  facet normal -0 0 1
    outer loop
      vertex -27.3928 -6.39712 65.2168
      vertex -27.4929 -7.42205 65.2168
      vertex -26.2403 0.356018 65.2168
    endloop
  endfacet
  facet normal -0.97947 0.0525243 0.194627
    outer loop
      vertex -27.7281 -10.5399 65.2168
      vertex -28.2 20 54.6
      vertex -27.8965 -13.6806 65.2168
    endloop
  endfacet
  facet normal -0 0 1
    outer loop
      vertex -27.571 -8.45704 65.2168
      vertex -27.7281 -10.5399 65.2168
      vertex -26.2403 0.356018 65.2168
    endloop
  endfacet
  facet normal -0.964909 0.0727959 0.252292
    outer loop
      vertex -27.4929 -7.42205 65.2168
      vertex -28.2 20 54.6
      vertex -27.571 -8.45704 65.2168
    endloop
  endfacet
  facet normal -0 0 1
    outer loop
      vertex -27.8965 -13.6806 65.2168
      vertex -27.9977 -16.8365 65.2168
      vertex -26.2403 0.356018 65.2168
    endloop
  endfacet
  facet normal -0 0 1
    outer loop
      vertex -27.0696 -3.32207 65.2168
      vertex -27.1914 -4.33447 65.2168
      vertex -26.2403 0.356018 65.2168
    endloop
  endfacet
  facet normal -0.072498 0.483918 0.872105
    outer loop
      vertex -20.2965 2.05077 65.2168
      vertex -28.2 20 54.6
      vertex -20.8017 1.97509 65.2168
    endloop
  endfacet
  facet normal -0.0143857 0.516881 0.855936
    outer loop
      vertex -5.12239 3.06133 65.2168
      vertex -28.2 20 54.6
      vertex -5.94504 3.03843 65.2168
    endloop
  endfacet
  facet normal 0.526455 0.709841 0.467943
    outer loop
      vertex 17.8899 13.5989 54.6
      vertex 15.6671 15.2474 54.6
      vertex 25.752 0.769154 65.2168
    endloop
  endfacet
  facet normal 0.0855086 0.570755 0.816656
    outer loop
      vertex 21.8315 1.82081 65.2168
      vertex 5.50155 19.4581 54.6
      vertex 20.8017 1.97509 65.2168
    endloop
  endfacet
  facet normal 0.146731 0.989176 -0
    outer loop
      vertex 5.50155 19.4581 53.6
      vertex 2.76408 19.8642 54.6
      vertex 5.50155 19.4581 54.6
    endloop
  endfacet
  facet normal 0.146731 0.989176 0
    outer loop
      vertex 2.76408 19.8642 54.6
      vertex 5.50155 19.4581 53.6
      vertex 2.76408 19.8642 53.6
    endloop
  endfacet
  facet normal 0.836538 0.53243 0.129315
    outer loop
      vertex 28.2 1.21236e-14 54.6
      vertex 23.4474 7.46708 54.6
      vertex 26.6494 -0.142352 65.2168
    endloop
  endfacet
  facet normal 0.803207 0.5957 0
    outer loop
      vertex 23.4474 7.46708 54.6
      vertex 21.7989 9.68989 53.6
      vertex 21.7989 9.68989 54.6
    endloop
  endfacet
  facet normal 0.803207 0.5957 0
    outer loop
      vertex 21.7989 9.68989 53.6
      vertex 23.4474 7.46708 54.6
      vertex 23.4474 7.46708 53.6
    endloop
  endfacet
  facet normal 0.843622 0.536938 0
    outer loop
      vertex 28.2 1.21236e-14 54.6
      vertex 23.4474 7.46708 53.6
      vertex 23.4474 7.46708 54.6
    endloop
  endfacet
  facet normal 0.843622 0.536938 0
    outer loop
      vertex 23.4474 7.46708 53.6
      vertex 28.2 1.21236e-14 54.6
      vertex 28.2 1.19016e-14 53.6
    endloop
  endfacet
  facet normal 0.427555 0.903989 -0
    outer loop
      vertex 13.2934 16.6702 53.6
      vertex 10.7917 17.8534 54.6
      vertex 13.2934 16.6702 54.6
    endloop
  endfacet
  facet normal 0.427555 0.903989 0
    outer loop
      vertex 10.7917 17.8534 54.6
      vertex 13.2934 16.6702 53.6
      vertex 10.7917 17.8534 53.6
    endloop
  endfacet
  facet normal 0.325417 0.688037 0.648621
    outer loop
      vertex 13.2934 16.6702 54.6
      vertex 10.7917 17.8534 54.6
      vertex 25.752 0.769154 65.2168
    endloop
  endfacet
  facet normal 0.979487 0.140687 0.144268
    outer loop
      vertex 28.2 1.21236e-14 54.6
      vertex 26.7002 -0.445225 65.2168
      vertex 26.8435 -1.44266 65.2168
    endloop
  endfacet
  facet normal 0.975844 0.163664 0.144717
    outer loop
      vertex 28.2 1.21236e-14 54.6
      vertex 26.6494 -0.142352 65.2168
      vertex 26.7002 -0.445225 65.2168
    endloop
  endfacet
  facet normal 0.982829 0.118254 0.141646
    outer loop
      vertex 28.2 1.21236e-14 54.6
      vertex 26.8435 -1.44266 65.2168
      vertex 27.0696 -3.32207 65.2168
    endloop
  endfacet
  facet normal 0 0 1
    outer loop
      vertex 26.8435 -1.44266 65.2168
      vertex 26.2403 0.356018 65.2168
      vertex 27.0696 -3.32207 65.2168
    endloop
  endfacet
  facet normal 0.990179 0.0747024 0.118174
    outer loop
      vertex 28.2 1.21236e-14 54.6
      vertex 27.4929 -7.42205 65.2168
      vertex 27.571 -8.45704 65.2168
    endloop
  endfacet
  facet normal 0 0 1
    outer loop
      vertex 27.4929 -7.42205 65.2168
      vertex 26.2403 0.356018 65.2168
      vertex 27.571 -8.45704 65.2168
    endloop
  endfacet
  facet normal -0.456676 0.387297 0.800905
    outer loop
      vertex -26.1301 0.485953 65.2168
      vertex -28.2 20 54.6
      vertex -26.2403 0.356018 65.2168
    endloop
  endfacet
  facet normal -0 0 1
    outer loop
      vertex -27.1914 -4.33447 65.2168
      vertex -27.3928 -6.39712 65.2168
      vertex -26.2403 0.356018 65.2168
    endloop
  endfacet
  facet normal -0.948665 0.0926216 0.302418
    outer loop
      vertex -27.1914 -4.33447 65.2168
      vertex -28.2 20 54.6
      vertex -27.3928 -6.39712 65.2168
    endloop
  endfacet
  facet normal -0.0887845 0.478938 0.873348
    outer loop
      vertex -22.7202 1.65607 65.2168
      vertex -28.2 20 54.6
      vertex -23.1562 1.57525 65.2168
    endloop
  endfacet
  facet normal -0.0496442 0.492966 0.868631
    outer loop
      vertex -16.6569 2.45517 65.2168
      vertex -28.2 20 54.6
      vertex -18.5661 2.2629 65.2168
    endloop
  endfacet
  facet normal -0.0203392 0.511585 0.858992
    outer loop
      vertex -9.24943 2.92706 65.2168
      vertex -28.2 20 54.6
      vertex -10.0479 2.89531 65.2168
    endloop
  endfacet
  facet normal -0.00288717 0.528883 0.84869
    outer loop
      vertex -0.847047 3.11276 65.2168
      vertex -28.2 20 54.6
      vertex -2.57359 3.10334 65.2168
    endloop
  endfacet
  facet normal 0.197274 0.635272 0.746668
    outer loop
      vertex 24.8402 1.13559 65.2168
      vertex 8.18603 18.7857 54.6
      vertex 24.2578 1.31644 65.2168
    endloop
  endfacet
  facet normal 0.0555698 0.551807 0.832119
    outer loop
      vertex 18.5661 2.2629 65.2168
      vertex 2.76408 19.8642 54.6
      vertex 16.6569 2.45517 65.2168
    endloop
  endfacet
  facet normal 0.0490681 0.998795 -0
    outer loop
      vertex 2.76408 19.8642 53.6
      vertex 0 20 54.6
      vertex 2.76408 19.8642 54.6
    endloop
  endfacet
  facet normal 0.0490681 0.998795 0
    outer loop
      vertex 0 20 54.6
      vertex 2.76408 19.8642 53.6
      vertex 0 20 53.6
    endloop
  endfacet
  facet normal 0.0283195 0.538897 0.841896
    outer loop
      vertex 10.8146 2.85503 65.2168
      vertex 2.76408 19.8642 54.6
      vertex 10.0479 2.89531 65.2168
    endloop
  endfacet
  facet normal 0.986422 0.096308 0.133028
    outer loop
      vertex 28.2 1.21236e-14 54.6
      vertex 27.1914 -4.33447 65.2168
      vertex 27.3928 -6.39712 65.2168
    endloop
  endfacet
  facet normal 0 0 1
    outer loop
      vertex 27.1914 -4.33447 65.2168
      vertex 26.2403 0.356018 65.2168
      vertex 27.3928 -6.39712 65.2168
    endloop
  endfacet
  facet normal 0.740951 0.671559 0
    outer loop
      vertex 21.7989 9.68989 54.6
      vertex 19.9404 11.7404 53.6
      vertex 19.9404 11.7404 54.6
    endloop
  endfacet
  facet normal 0.740951 0.671559 0
    outer loop
      vertex 19.9404 11.7404 53.6
      vertex 21.7989 9.68989 54.6
      vertex 21.7989 9.68989 53.6
    endloop
  endfacet
  facet normal -0 0 1
    outer loop
      vertex -26.8435 -1.44266 65.2168
      vertex -27.0696 -3.32207 65.2168
      vertex -26.2403 0.356018 65.2168
    endloop
  endfacet
  facet normal -0.931712 0.112104 0.345463
    outer loop
      vertex -26.8435 -1.44266 65.2168
      vertex -28.2 20 54.6
      vertex -27.0696 -3.32207 65.2168
    endloop
  endfacet
  facet normal -0.201237 0.453665 0.868154
    outer loop
      vertex -25.1259 1.04687 65.2168
      vertex -28.2 20 54.6
      vertex -25.752 0.769154 65.2168
    endloop
  endfacet
  facet normal -0.111156 0.473154 0.873939
    outer loop
      vertex -23.5188 1.49006 65.2168
      vertex -28.2 20 54.6
      vertex -24.2578 1.31644 65.2168
    endloop
  endfacet
  facet normal -0.0724989 0.483917 0.872105
    outer loop
      vertex -20.8017 1.97509 65.2168
      vertex -28.2 20 54.6
      vertex -21.8315 1.82081 65.2168
    endloop
  endfacet
  facet normal -0.059889 0.488518 0.870496
    outer loop
      vertex -19.727 2.12059 65.2168
      vertex -28.2 20 54.6
      vertex -20.2965 2.05077 65.2168
    endloop
  endfacet
  facet normal -0.0409888 0.497402 0.866551
    outer loop
      vertex -14.5873 2.62572 65.2168
      vertex -28.2 20 54.6
      vertex -16.6569 2.45517 65.2168
    endloop
  endfacet
  facet normal -0.0266242 0.506629 0.861753
    outer loop
      vertex -10.8146 2.85503 65.2168
      vertex -28.2 20 54.6
      vertex -12.3772 2.77291 65.2168
    endloop
  endfacet
  facet normal -0.0143858 0.516881 0.855936
    outer loop
      vertex -5.94504 3.03843 65.2168
      vertex -28.2 20 54.6
      vertex -7.62186 2.99177 65.2168
    endloop
  endfacet
  facet normal -0.00861353 0.52261 0.852529
    outer loop
      vertex -4.2835 3.07516 65.2168
      vertex -28.2 20 54.6
      vertex -5.12239 3.06133 65.2168
    endloop
  endfacet
  facet normal 0 0.532345 0.846527
    outer loop
      vertex 0 20 54.6
      vertex -8.2 20 54.6
      vertex 0 3.11739 65.2168
    endloop
  endfacet
  facet normal 0 0.532345 0.846527
    outer loop
      vertex -8.2 20 54.6
      vertex -28.2 20 54.6
      vertex 0 3.11739 65.2168
    endloop
  endfacet
  facet normal 0.531195 0.709156 0.463605
    outer loop
      vertex 26.1301 0.485953 65.2168
      vertex 17.8899 13.5989 54.6
      vertex 25.752 0.769154 65.2168
    endloop
  endfacet
  facet normal 0.301452 0.679588 0.668795
    outer loop
      vertex 25.752 0.769154 65.2168
      vertex 10.7917 17.8534 54.6
      vertex 25.1259 1.04687 65.2168
    endloop
  endfacet
  facet normal 0.234012 0.654019 0.719373
    outer loop
      vertex 10.7917 17.8534 54.6
      vertex 8.18603 18.7857 54.6
      vertex 25.1259 1.04687 65.2168
    endloop
  endfacet
  facet normal 0.0360884 0.541887 0.839676
    outer loop
      vertex 14.5873 2.62572 65.2168
      vertex 2.76408 19.8642 54.6
      vertex 12.3772 2.77291 65.2168
    endloop
  endfacet
  facet normal 0.0264477 0.53835 0.842306
    outer loop
      vertex 2.76408 19.8642 54.6
      vertex 0 20 54.6
      vertex 10.0479 2.89531 65.2168
    endloop
  endfacet
  facet normal 0.14221 0.605342 0.783159
    outer loop
      vertex 24.2578 1.31644 65.2168
      vertex 5.50155 19.4581 54.6
      vertex 23.5188 1.49006 65.2168
    endloop
  endfacet
  facet normal 0.153406 0.612433 0.775495
    outer loop
      vertex 8.18603 18.7857 54.6
      vertex 5.50155 19.4581 54.6
      vertex 24.2578 1.31644 65.2168
    endloop
  endfacet
  facet normal 0.0845883 0.570247 0.817106
    outer loop
      vertex 5.50155 19.4581 54.6
      vertex 2.76408 19.8642 54.6
      vertex 20.2965 2.05077 65.2168
    endloop
  endfacet
  facet normal 0.671559 0.740951 -0
    outer loop
      vertex 19.9404 11.7404 53.6
      vertex 17.8899 13.5989 54.6
      vertex 19.9404 11.7404 54.6
    endloop
  endfacet
  facet normal 0.671559 0.740951 0
    outer loop
      vertex 17.8899 13.5989 54.6
      vertex 19.9404 11.7404 53.6
      vertex 17.8899 13.5989 53.6
    endloop
  endfacet
  facet normal 0 0 1
    outer loop
      vertex 25.752 0.769154 65.2168
      vertex 26.2403 0.356018 65.2168
      vertex 26.1301 0.485953 65.2168
    endloop
  endfacet
  facet normal 0 0 1
    outer loop
      vertex 25.1259 1.04687 65.2168
      vertex 26.2403 0.356018 65.2168
      vertex 25.752 0.769154 65.2168
    endloop
  endfacet
  facet normal 0 0 1
    outer loop
      vertex 24.8402 1.13559 65.2168
      vertex 26.2403 0.356018 65.2168
      vertex 25.1259 1.04687 65.2168
    endloop
  endfacet
  facet normal 0 0 1
    outer loop
      vertex 24.2578 1.31644 65.2168
      vertex 26.2403 0.356018 65.2168
      vertex 24.8402 1.13559 65.2168
    endloop
  endfacet
  facet normal 0 0 1
    outer loop
      vertex 23.5188 1.49006 65.2168
      vertex 26.2403 0.356018 65.2168
      vertex 24.2578 1.31644 65.2168
    endloop
  endfacet
  facet normal 0 0 1
    outer loop
      vertex 23.1562 1.57525 65.2168
      vertex 26.2403 0.356018 65.2168
      vertex 23.5188 1.49006 65.2168
    endloop
  endfacet
  facet normal 0 0 1
    outer loop
      vertex 22.7202 1.65607 65.2168
      vertex 26.2403 0.356018 65.2168
      vertex 23.1562 1.57525 65.2168
    endloop
  endfacet
  facet normal 0 0 1
    outer loop
      vertex 21.8315 1.82081 65.2168
      vertex 26.2403 0.356018 65.2168
      vertex 22.7202 1.65607 65.2168
    endloop
  endfacet
  facet normal 0 0 1
    outer loop
      vertex 20.8017 1.97509 65.2168
      vertex 26.2403 0.356018 65.2168
      vertex 21.8315 1.82081 65.2168
    endloop
  endfacet
  facet normal 0 0 1
    outer loop
      vertex 20.2965 2.05077 65.2168
      vertex 26.2403 0.356018 65.2168
      vertex 20.8017 1.97509 65.2168
    endloop
  endfacet
  facet normal 0 0 1
    outer loop
      vertex 19.727 2.12059 65.2168
      vertex 26.2403 0.356018 65.2168
      vertex 20.2965 2.05077 65.2168
    endloop
  endfacet
  facet normal 0 0 1
    outer loop
      vertex 18.5661 2.2629 65.2168
      vertex 26.2403 0.356018 65.2168
      vertex 19.727 2.12059 65.2168
    endloop
  endfacet
  facet normal 0 0 1
    outer loop
      vertex 16.6569 2.45517 65.2168
      vertex 26.2403 0.356018 65.2168
      vertex 18.5661 2.2629 65.2168
    endloop
  endfacet
  facet normal 0 0 1
    outer loop
      vertex 14.5873 2.62572 65.2168
      vertex 26.2403 0.356018 65.2168
      vertex 16.6569 2.45517 65.2168
    endloop
  endfacet
  facet normal 0 0 1
    outer loop
      vertex 12.3772 2.77291 65.2168
      vertex 26.2403 0.356018 65.2168
      vertex 14.5873 2.62572 65.2168
    endloop
  endfacet
  facet normal 0 0 1
    outer loop
      vertex 10.8146 2.85503 65.2168
      vertex 26.2403 0.356018 65.2168
      vertex 12.3772 2.77291 65.2168
    endloop
  endfacet
  facet normal 0 0 1
    outer loop
      vertex 10.0479 2.89531 65.2168
      vertex 26.2403 0.356018 65.2168
      vertex 10.8146 2.85503 65.2168
    endloop
  endfacet
  facet normal 0 0 1
    outer loop
      vertex 9.24943 2.92706 65.2168
      vertex 26.2403 0.356018 65.2168
      vertex 10.0479 2.89531 65.2168
    endloop
  endfacet
  facet normal 0 0 1
    outer loop
      vertex 7.62186 2.99177 65.2168
      vertex 26.2403 0.356018 65.2168
      vertex 9.24943 2.92706 65.2168
    endloop
  endfacet
  facet normal 0 0 1
    outer loop
      vertex 5.94504 3.03843 65.2168
      vertex 26.2403 0.356018 65.2168
      vertex 7.62186 2.99177 65.2168
    endloop
  endfacet
  facet normal 0 0 1
    outer loop
      vertex 5.12239 3.06133 65.2168
      vertex 26.2403 0.356018 65.2168
      vertex 5.94504 3.03843 65.2168
    endloop
  endfacet
  facet normal 0 0 1
    outer loop
      vertex 4.2835 3.07516 65.2168
      vertex 26.2403 0.356018 65.2168
      vertex 5.12239 3.06133 65.2168
    endloop
  endfacet
  facet normal 0 0 1
    outer loop
      vertex 2.57359 3.10334 65.2168
      vertex 26.2403 0.356018 65.2168
      vertex 4.2835 3.07516 65.2168
    endloop
  endfacet
  facet normal 0 0 1
    outer loop
      vertex 0.847047 3.11276 65.2168
      vertex 26.2403 0.356018 65.2168
      vertex 2.57359 3.10334 65.2168
    endloop
  endfacet
  facet normal 0 0 1
    outer loop
      vertex 0 3.11739 65.2168
      vertex 26.2403 0.356018 65.2168
      vertex 0.847047 3.11276 65.2168
    endloop
  endfacet
  facet normal -0 0 1
    outer loop
      vertex -0.847047 3.11276 65.2168
      vertex 26.2403 0.356018 65.2168
      vertex 0 3.11739 65.2168
    endloop
  endfacet
  facet normal -0 0 1
    outer loop
      vertex -2.57359 3.10334 65.2168
      vertex 26.2403 0.356018 65.2168
      vertex -0.847047 3.11276 65.2168
    endloop
  endfacet
  facet normal 0 0 1
    outer loop
      vertex -26.2403 0.356018 65.2168
      vertex -2.57359 3.10334 65.2168
      vertex -4.2835 3.07516 65.2168
    endloop
  endfacet
  facet normal 0 0 1
    outer loop
      vertex -26.2403 0.356018 65.2168
      vertex -4.2835 3.07516 65.2168
      vertex -5.12239 3.06133 65.2168
    endloop
  endfacet
  facet normal 0 0 1
    outer loop
      vertex -26.2403 0.356018 65.2168
      vertex -5.12239 3.06133 65.2168
      vertex -5.94504 3.03843 65.2168
    endloop
  endfacet
  facet normal 0 0 1
    outer loop
      vertex -26.2403 0.356018 65.2168
      vertex -5.94504 3.03843 65.2168
      vertex -7.62186 2.99177 65.2168
    endloop
  endfacet
  facet normal 0 0 1
    outer loop
      vertex -26.2403 0.356018 65.2168
      vertex -7.62186 2.99177 65.2168
      vertex -9.24943 2.92706 65.2168
    endloop
  endfacet
  facet normal 0 0 1
    outer loop
      vertex -26.2403 0.356018 65.2168
      vertex -9.24943 2.92706 65.2168
      vertex -10.0479 2.89531 65.2168
    endloop
  endfacet
  facet normal 0 0 1
    outer loop
      vertex -26.2403 0.356018 65.2168
      vertex -10.0479 2.89531 65.2168
      vertex -10.8146 2.85503 65.2168
    endloop
  endfacet
  facet normal 0 0 1
    outer loop
      vertex -26.2403 0.356018 65.2168
      vertex -10.8146 2.85503 65.2168
      vertex -12.3772 2.77291 65.2168
    endloop
  endfacet
  facet normal 0 0 1
    outer loop
      vertex -26.2403 0.356018 65.2168
      vertex -12.3772 2.77291 65.2168
      vertex -14.5873 2.62572 65.2168
    endloop
  endfacet
  facet normal 0 0 1
    outer loop
      vertex -26.2403 0.356018 65.2168
      vertex -14.5873 2.62572 65.2168
      vertex -16.6569 2.45517 65.2168
    endloop
  endfacet
  facet normal 0 0 1
    outer loop
      vertex -26.2403 0.356018 65.2168
      vertex -16.6569 2.45517 65.2168
      vertex -18.5661 2.2629 65.2168
    endloop
  endfacet
  facet normal 0 0 1
    outer loop
      vertex -26.2403 0.356018 65.2168
      vertex -18.5661 2.2629 65.2168
      vertex -19.727 2.12059 65.2168
    endloop
  endfacet
  facet normal 0 0 1
    outer loop
      vertex -26.2403 0.356018 65.2168
      vertex -19.727 2.12059 65.2168
      vertex -20.2965 2.05077 65.2168
    endloop
  endfacet
  facet normal 0 0 1
    outer loop
      vertex -26.2403 0.356018 65.2168
      vertex -20.2965 2.05077 65.2168
      vertex -20.8017 1.97509 65.2168
    endloop
  endfacet
  facet normal 0 0 1
    outer loop
      vertex -26.2403 0.356018 65.2168
      vertex -20.8017 1.97509 65.2168
      vertex -21.8315 1.82081 65.2168
    endloop
  endfacet
  facet normal 0 0 1
    outer loop
      vertex -26.2403 0.356018 65.2168
      vertex -21.8315 1.82081 65.2168
      vertex -22.7202 1.65607 65.2168
    endloop
  endfacet
  facet normal 0 0 1
    outer loop
      vertex -26.2403 0.356018 65.2168
      vertex -22.7202 1.65607 65.2168
      vertex -23.1562 1.57525 65.2168
    endloop
  endfacet
  facet normal 0 0 1
    outer loop
      vertex -26.2403 0.356018 65.2168
      vertex -23.1562 1.57525 65.2168
      vertex -23.5188 1.49006 65.2168
    endloop
  endfacet
  facet normal 0 0 1
    outer loop
      vertex -26.2403 0.356018 65.2168
      vertex -23.5188 1.49006 65.2168
      vertex -24.2578 1.31644 65.2168
    endloop
  endfacet
  facet normal 0 0 1
    outer loop
      vertex -26.2403 0.356018 65.2168
      vertex -24.2578 1.31644 65.2168
      vertex -24.8402 1.13559 65.2168
    endloop
  endfacet
  facet normal 0 0 1
    outer loop
      vertex -26.2403 0.356018 65.2168
      vertex -24.8402 1.13559 65.2168
      vertex -25.1259 1.04687 65.2168
    endloop
  endfacet
  facet normal 0 0 1
    outer loop
      vertex -26.2403 0.356018 65.2168
      vertex -25.1259 1.04687 65.2168
      vertex -25.752 0.769154 65.2168
    endloop
  endfacet
  facet normal 0 0 1
    outer loop
      vertex -26.2403 0.356018 65.2168
      vertex -25.752 0.769154 65.2168
      vertex -26.1301 0.485953 65.2168
    endloop
  endfacet
  facet normal 0 0 1
    outer loop
      vertex -2.57359 3.10334 65.2168
      vertex -26.2403 0.356018 65.2168
      vertex 26.2403 0.356018 65.2168
    endloop
  endfacet
  facet normal -0.319464 0.426492 0.846196
    outer loop
      vertex -25.752 0.769154 65.2168
      vertex -28.2 20 54.6
      vertex -26.1301 0.485953 65.2168
    endloop
  endfacet
  facet normal -0.144591 0.465619 0.873094
    outer loop
      vertex -24.2578 1.31644 65.2168
      vertex -28.2 20 54.6
      vertex -24.8402 1.13559 65.2168
    endloop
  endfacet
  facet normal -0.111155 0.473154 0.873939
    outer loop
      vertex -23.1562 1.57525 65.2168
      vertex -28.2 20 54.6
      vertex -23.5188 1.49006 65.2168
    endloop
  endfacet
  facet normal -0.088784 0.478938 0.873348
    outer loop
      vertex -21.8315 1.82081 65.2168
      vertex -28.2 20 54.6
      vertex -22.7202 1.65607 65.2168
    endloop
  endfacet
  facet normal -0.0598883 0.488518 0.870496
    outer loop
      vertex -18.5661 2.2629 65.2168
      vertex -28.2 20 54.6
      vertex -19.727 2.12059 65.2168
    endloop
  endfacet
  facet normal -0.0266239 0.50663 0.861753
    outer loop
      vertex -10.0479 2.89531 65.2168
      vertex -28.2 20 54.6
      vertex -10.8146 2.85503 65.2168
    endloop
  endfacet
  facet normal -0.0203386 0.511586 0.858991
    outer loop
      vertex -7.62186 2.99177 65.2168
      vertex -28.2 20 54.6
      vertex -9.24943 2.92706 65.2168
    endloop
  endfacet
  facet normal -0.00861343 0.52261 0.852529
    outer loop
      vertex -2.57359 3.10334 65.2168
      vertex -28.2 20 54.6
      vertex -4.2835 3.07516 65.2168
    endloop
  endfacet
  facet normal -0.00288679 0.528883 0.84869
    outer loop
      vertex 0 3.11739 65.2168
      vertex -28.2 20 54.6
      vertex -0.847047 3.11276 65.2168
    endloop
  endfacet
  facet normal 0.00290567 0.532343 0.846524
    outer loop
      vertex 0 20 54.6
      vertex 0 3.11739 65.2168
      vertex 0.847047 3.11276 65.2168
    endloop
  endfacet
  facet normal 0.197276 0.635273 0.746666
    outer loop
      vertex 25.1259 1.04687 65.2168
      vertex 8.18603 18.7857 54.6
      vertex 24.8402 1.13559 65.2168
    endloop
  endfacet
  facet normal 0.0449988 0.546064 0.836534
    outer loop
      vertex 16.6569 2.45517 65.2168
      vertex 2.76408 19.8642 54.6
      vertex 14.5873 2.62572 65.2168
    endloop
  endfacet
  facet normal 0.0283199 0.538897 0.841896
    outer loop
      vertex 12.3772 2.77291 65.2168
      vertex 2.76408 19.8642 54.6
      vertex 10.8146 2.85503 65.2168
    endloop
  endfacet
  facet normal 0.0148691 0.534247 0.845198
    outer loop
      vertex 7.62186 2.99177 65.2168
      vertex 0 20 54.6
      vertex 5.94504 3.03843 65.2168
    endloop
  endfacet
  facet normal 0.0855074 0.570754 0.816657
    outer loop
      vertex 20.8017 1.97509 65.2168
      vertex 5.50155 19.4581 54.6
      vertex 20.2965 2.05077 65.2168
    endloop
  endfacet
  facet normal 0.068619 0.559729 0.82583
    outer loop
      vertex 20.2965 2.05077 65.2168
      vertex 2.76408 19.8642 54.6
      vertex 19.727 2.12059 65.2168
    endloop
  endfacet
  facet normal 0.0686181 0.559728 0.82583
    outer loop
      vertex 19.727 2.12059 65.2168
      vertex 2.76408 19.8642 54.6
      vertex 18.5661 2.2629 65.2168
    endloop
  endfacet
  facet normal 0.0213194 0.536256 0.843786
    outer loop
      vertex 9.24943 2.92706 65.2168
      vertex 0 20 54.6
      vertex 7.62186 2.99177 65.2168
    endloop
  endfacet
  facet normal 0.014869 0.534247 0.845198
    outer loop
      vertex 5.94504 3.03843 65.2168
      vertex 0 20 54.6
      vertex 5.12239 3.06133 65.2168
    endloop
  endfacet
  facet normal 0.142209 0.605342 0.783159
    outer loop
      vertex 23.5188 1.49006 65.2168
      vertex 5.50155 19.4581 54.6
      vertex 23.1562 1.57525 65.2168
    endloop
  endfacet
  facet normal 0.108334 0.584394 0.804206
    outer loop
      vertex 23.1562 1.57525 65.2168
      vertex 5.50155 19.4581 54.6
      vertex 22.7202 1.65607 65.2168
    endloop
  endfacet
  facet normal 0.108333 0.584393 0.804207
    outer loop
      vertex 22.7202 1.65607 65.2168
      vertex 5.50155 19.4581 54.6
      vertex 21.8315 1.82081 65.2168
    endloop
  endfacet
  facet normal 0.0213201 0.536256 0.843786
    outer loop
      vertex 10.0479 2.89531 65.2168
      vertex 0 20 54.6
      vertex 9.24943 2.92706 65.2168
    endloop
  endfacet
  facet normal 0.00878422 0.532966 0.846091
    outer loop
      vertex 5.12239 3.06133 65.2168
      vertex 0 20 54.6
      vertex 4.2835 3.07516 65.2168
    endloop
  endfacet
  facet normal 0.00878412 0.532966 0.846091
    outer loop
      vertex 4.2835 3.07516 65.2168
      vertex 0 20 54.6
      vertex 2.57359 3.10334 65.2168
    endloop
  endfacet
  facet normal 1 -0 0
    outer loop
      vertex -22 -20 65.2168
      vertex -22 1.19016e-14 53.6
      vertex -22 1.4481e-14 65.2168
    endloop
  endfacet
  facet normal 1 0 0
    outer loop
      vertex -22 1.19016e-14 53.6
      vertex -22 -20 65.2168
      vertex -22 -20 53.6
    endloop
  endfacet
  facet normal -1 0 0
    outer loop
      vertex 22 -20 53.6
      vertex 22 1.4481e-14 65.2168
      vertex 22 1.19016e-14 53.6
    endloop
  endfacet
  facet normal -1 -0 0
    outer loop
      vertex 22 1.4481e-14 65.2168
      vertex 22 -20 53.6
      vertex 22 -20 65.2168
    endloop
  endfacet
  facet normal 0 -1 2.22045e-16
    outer loop
      vertex -22 1.19016e-14 53.6
      vertex 22 1.4481e-14 65.2168
      vertex -22 1.4481e-14 65.2168
    endloop
  endfacet
  facet normal 0 -1 2.22045e-16
    outer loop
      vertex 22 1.4481e-14 65.2168
      vertex -22 1.19016e-14 53.6
      vertex 22 1.19016e-14 53.6
    endloop
  endfacet
endsolid OpenSCAD_Model
