solid OpenSCAD_Model
  facet normal -1 0 0
    outer loop
      vertex -7.5 -62 0
      vertex -7.5 62 2
      vertex -7.5 62 0
    endloop
  endfacet
  facet normal -1 -0 0
    outer loop
      vertex -7.5 62 2
      vertex -7.5 -62 0
      vertex -7.5 -62 2
    endloop
  endfacet
  facet normal -0 0 1
    outer loop
      vertex 0.355369 37.9063 2
      vertex 1.15 -39 2
      vertex 1.15 39 2
    endloop
  endfacet
  facet normal 0 0 1
    outer loop
      vertex 0.355369 37.9063 2
      vertex 0.355369 -37.9063 2
      vertex 1.15 -39 2
    endloop
  endfacet
  facet normal 0 0 1
    outer loop
      vertex -0.930369 38.324 2
      vertex 0.355369 -37.9063 2
      vertex 0.355369 37.9063 2
    endloop
  endfacet
  facet normal 0 0 1
    outer loop
      vertex 0.355369 -37.9063 2
      vertex -0.930369 38.324 2
      vertex -0.930369 -38.324 2
    endloop
  endfacet
  facet normal 0 0 1
    outer loop
      vertex 7.5 62 2
      vertex 1.15 39 2
      vertex 7.5 -62 2
    endloop
  endfacet
  facet normal -0 0 1
    outer loop
      vertex 1.15 -39 2
      vertex 7.5 -62 2
      vertex 1.15 39 2
    endloop
  endfacet
  facet normal 0 0 1
    outer loop
      vertex 7.5 -62 2
      vertex 1.15 -39 2
      vertex 2.65 -52 2
    endloop
  endfacet
  facet normal 0 0 1
    outer loop
      vertex 0.355369 40.0937 2
      vertex 2.03002 50.2966 2
      vertex 0.460167 49.3903 2
    endloop
  endfacet
  facet normal 0 0 1
    outer loop
      vertex 2.03002 50.2966 2
      vertex 0.355369 40.0937 2
      vertex 1.15 39 2
    endloop
  endfacet
  facet normal 0 0 1
    outer loop
      vertex -1.325 49.705 2
      vertex 0.355369 40.0937 2
      vertex 0.460167 49.3903 2
    endloop
  endfacet
  facet normal 0 0 1
    outer loop
      vertex -7.5 62 2
      vertex -0.930369 38.324 2
      vertex -0.930369 39.676 2
    endloop
  endfacet
  facet normal 0 0 1
    outer loop
      vertex -7.5 62 2
      vertex -0.930369 39.676 2
      vertex -2.49018 51.0936 2
    endloop
  endfacet
  facet normal 0 0 1
    outer loop
      vertex -2.49018 51.0936 2
      vertex -0.930369 39.676 2
      vertex -1.325 49.705 2
    endloop
  endfacet
  facet normal 0 0 1
    outer loop
      vertex 0.355369 40.0937 2
      vertex -1.325 49.705 2
      vertex -0.930369 39.676 2
    endloop
  endfacet
  facet normal 0 0 1
    outer loop
      vertex 1.15 39 2
      vertex 2.65 52 2
      vertex 2.03002 50.2966 2
    endloop
  endfacet
  facet normal 0 0 1
    outer loop
      vertex 7.5 62 2
      vertex 2.03002 53.7034 2
      vertex 2.65 52 2
    endloop
  endfacet
  facet normal 0 0 1
    outer loop
      vertex 7.5 62 2
      vertex 0.460167 54.6097 2
      vertex 2.03002 53.7034 2
    endloop
  endfacet
  facet normal -0 0 1
    outer loop
      vertex -7.5 62 2
      vertex 0.460167 54.6097 2
      vertex 7.5 62 2
    endloop
  endfacet
  facet normal 0 0 1
    outer loop
      vertex -7.5 62 2
      vertex -2.49018 51.0936 2
      vertex -2.49018 52.9064 2
    endloop
  endfacet
  facet normal 0 0 1
    outer loop
      vertex -7.5 -62 2
      vertex -0.930369 -38.324 2
      vertex -7.5 62 2
    endloop
  endfacet
  facet normal 0 0 1
    outer loop
      vertex -0.930369 -38.324 2
      vertex -7.5 -62 2
      vertex -2.49018 -51.0936 2
    endloop
  endfacet
  facet normal 0 0 1
    outer loop
      vertex -1.325 54.295 2
      vertex -7.5 62 2
      vertex -2.49018 52.9064 2
    endloop
  endfacet
  facet normal 0 0 1
    outer loop
      vertex 0.460167 54.6097 2
      vertex -7.5 62 2
      vertex -1.325 54.295 2
    endloop
  endfacet
  facet normal -0 0 1
    outer loop
      vertex 2.65 52 2
      vertex 1.15 39 2
      vertex 7.5 62 2
    endloop
  endfacet
  facet normal -0 0 1
    outer loop
      vertex 2.03002 -53.7034 2
      vertex 7.5 -62 2
      vertex 2.65 -52 2
    endloop
  endfacet
  facet normal -0 0 1
    outer loop
      vertex 0.460167 -54.6097 2
      vertex 7.5 -62 2
      vertex 2.03002 -53.7034 2
    endloop
  endfacet
  facet normal 0 0 1
    outer loop
      vertex -7.5 -62 2
      vertex 0.460167 -54.6097 2
      vertex -1.325 -54.295 2
    endloop
  endfacet
  facet normal 0 0 1
    outer loop
      vertex 0.460167 -54.6097 2
      vertex -7.5 -62 2
      vertex 7.5 -62 2
    endloop
  endfacet
  facet normal 0 0 1
    outer loop
      vertex -2.49018 -52.9064 2
      vertex -7.5 -62 2
      vertex -1.325 -54.295 2
    endloop
  endfacet
  facet normal 0 0 1
    outer loop
      vertex -2.49018 -51.0936 2
      vertex -7.5 -62 2
      vertex -2.49018 -52.9064 2
    endloop
  endfacet
  facet normal 0 0 1
    outer loop
      vertex 2.65 -52 2
      vertex 1.15 -39 2
      vertex 2.03002 -50.2966 2
    endloop
  endfacet
  facet normal -0 0 1
    outer loop
      vertex 0.355369 -40.0937 2
      vertex 2.03002 -50.2966 2
      vertex 1.15 -39 2
    endloop
  endfacet
  facet normal 0 0 1
    outer loop
      vertex 2.03002 -50.2966 2
      vertex 0.355369 -40.0937 2
      vertex 0.460167 -49.3903 2
    endloop
  endfacet
  facet normal 0 0 1
    outer loop
      vertex -1.325 -49.705 2
      vertex 0.355369 -40.0937 2
      vertex -0.930369 -39.676 2
    endloop
  endfacet
  facet normal 0 0 1
    outer loop
      vertex 0.355369 -40.0937 2
      vertex -1.325 -49.705 2
      vertex 0.460167 -49.3903 2
    endloop
  endfacet
  facet normal 0 0 1
    outer loop
      vertex -0.930369 38.324 2
      vertex -7.5 62 2
      vertex -0.930369 -38.324 2
    endloop
  endfacet
  facet normal 0 0 1
    outer loop
      vertex -0.930369 -38.324 2
      vertex -2.49018 -51.0936 2
      vertex -0.930369 -39.676 2
    endloop
  endfacet
  facet normal 0 0 1
    outer loop
      vertex -0.930369 -39.676 2
      vertex -2.49018 -51.0936 2
      vertex -1.325 -49.705 2
    endloop
  endfacet
  facet normal 1 -0 0
    outer loop
      vertex 7.5 -62 2
      vertex 7.5 62 0
      vertex 7.5 62 2
    endloop
  endfacet
  facet normal 1 0 0
    outer loop
      vertex 7.5 62 0
      vertex 7.5 -62 2
      vertex 7.5 -62 0
    endloop
  endfacet
  facet normal 0 0 -1
    outer loop
      vertex 0.355369 -37.9063 0
      vertex 1.15 39 0
      vertex 1.15 -39 0
    endloop
  endfacet
  facet normal 0 0 -1
    outer loop
      vertex 0.355369 -37.9063 0
      vertex 0.355369 37.9063 0
      vertex 1.15 39 0
    endloop
  endfacet
  facet normal 0 0 -1
    outer loop
      vertex -0.930369 -38.324 0
      vertex 0.355369 37.9063 0
      vertex 0.355369 -37.9063 0
    endloop
  endfacet
  facet normal -0 0 -1
    outer loop
      vertex 0.355369 37.9063 0
      vertex -0.930369 -38.324 0
      vertex -0.930369 38.324 0
    endloop
  endfacet
  facet normal 0 0 -1
    outer loop
      vertex 7.5 -62 0
      vertex 1.15 -39 0
      vertex 7.5 62 0
    endloop
  endfacet
  facet normal 0 0 -1
    outer loop
      vertex 1.15 39 0
      vertex 7.5 62 0
      vertex 1.15 -39 0
    endloop
  endfacet
  facet normal 0 0 -1
    outer loop
      vertex 7.5 62 0
      vertex 1.15 39 0
      vertex 2.65 52 0
    endloop
  endfacet
  facet normal 0 0 -1
    outer loop
      vertex 0.355369 -40.0937 0
      vertex 2.03002 -50.2966 0
      vertex 0.460167 -49.3903 0
    endloop
  endfacet
  facet normal 0 0 -1
    outer loop
      vertex 2.03002 -50.2966 0
      vertex 0.355369 -40.0937 0
      vertex 1.15 -39 0
    endloop
  endfacet
  facet normal 0 0 -1
    outer loop
      vertex -1.325 -49.705 0
      vertex 0.355369 -40.0937 0
      vertex 0.460167 -49.3903 0
    endloop
  endfacet
  facet normal 0 0 -1
    outer loop
      vertex -7.5 -62 0
      vertex -0.930369 -38.324 0
      vertex -0.930369 -39.676 0
    endloop
  endfacet
  facet normal 0 0 -1
    outer loop
      vertex -7.5 -62 0
      vertex -0.930369 -39.676 0
      vertex -2.49018 -51.0936 0
    endloop
  endfacet
  facet normal 0 0 -1
    outer loop
      vertex -2.49018 -51.0936 0
      vertex -0.930369 -39.676 0
      vertex -1.325 -49.705 0
    endloop
  endfacet
  facet normal -0 0 -1
    outer loop
      vertex 0.355369 -40.0937 0
      vertex -1.325 -49.705 0
      vertex -0.930369 -39.676 0
    endloop
  endfacet
  facet normal 0 0 -1
    outer loop
      vertex 1.15 -39 0
      vertex 2.65 -52 0
      vertex 2.03002 -50.2966 0
    endloop
  endfacet
  facet normal 0 0 -1
    outer loop
      vertex 7.5 -62 0
      vertex 2.03002 -53.7034 0
      vertex 2.65 -52 0
    endloop
  endfacet
  facet normal 0 0 -1
    outer loop
      vertex 7.5 -62 0
      vertex 0.460167 -54.6097 0
      vertex 2.03002 -53.7034 0
    endloop
  endfacet
  facet normal 0 0 -1
    outer loop
      vertex -7.5 -62 0
      vertex 0.460167 -54.6097 0
      vertex 7.5 -62 0
    endloop
  endfacet
  facet normal 0 0 -1
    outer loop
      vertex -7.5 -62 0
      vertex -2.49018 -51.0936 0
      vertex -2.49018 -52.9064 0
    endloop
  endfacet
  facet normal 0 0 -1
    outer loop
      vertex -7.5 62 0
      vertex -0.930369 38.324 0
      vertex -7.5 -62 0
    endloop
  endfacet
  facet normal 0 0 -1
    outer loop
      vertex -0.930369 38.324 0
      vertex -7.5 62 0
      vertex -2.49018 51.0936 0
    endloop
  endfacet
  facet normal -0 0 -1
    outer loop
      vertex -1.325 -54.295 0
      vertex -7.5 -62 0
      vertex -2.49018 -52.9064 0
    endloop
  endfacet
  facet normal -0 0 -1
    outer loop
      vertex 0.460167 -54.6097 0
      vertex -7.5 -62 0
      vertex -1.325 -54.295 0
    endloop
  endfacet
  facet normal 0 0 -1
    outer loop
      vertex 2.65 -52 0
      vertex 1.15 -39 0
      vertex 7.5 -62 0
    endloop
  endfacet
  facet normal 0 0 -1
    outer loop
      vertex 2.03002 53.7034 0
      vertex 7.5 62 0
      vertex 2.65 52 0
    endloop
  endfacet
  facet normal 0 0 -1
    outer loop
      vertex 0.460167 54.6097 0
      vertex 7.5 62 0
      vertex 2.03002 53.7034 0
    endloop
  endfacet
  facet normal 0 0 -1
    outer loop
      vertex -7.5 62 0
      vertex 0.460167 54.6097 0
      vertex -1.325 54.295 0
    endloop
  endfacet
  facet normal 0 0 -1
    outer loop
      vertex 0.460167 54.6097 0
      vertex -7.5 62 0
      vertex 7.5 62 0
    endloop
  endfacet
  facet normal 0 0 -1
    outer loop
      vertex -2.49018 52.9064 0
      vertex -7.5 62 0
      vertex -1.325 54.295 0
    endloop
  endfacet
  facet normal 0 0 -1
    outer loop
      vertex -2.49018 51.0936 0
      vertex -7.5 62 0
      vertex -2.49018 52.9064 0
    endloop
  endfacet
  facet normal 0 0 -1
    outer loop
      vertex 2.65 52 0
      vertex 1.15 39 0
      vertex 2.03002 50.2966 0
    endloop
  endfacet
  facet normal 0 0 -1
    outer loop
      vertex 0.355369 40.0937 0
      vertex 2.03002 50.2966 0
      vertex 1.15 39 0
    endloop
  endfacet
  facet normal 0 0 -1
    outer loop
      vertex 2.03002 50.2966 0
      vertex 0.355369 40.0937 0
      vertex 0.460167 49.3903 0
    endloop
  endfacet
  facet normal 0 0 -1
    outer loop
      vertex -1.325 49.705 0
      vertex 0.355369 40.0937 0
      vertex -0.930369 39.676 0
    endloop
  endfacet
  facet normal 0 0 -1
    outer loop
      vertex 0.355369 40.0937 0
      vertex -1.325 49.705 0
      vertex 0.460167 49.3903 0
    endloop
  endfacet
  facet normal -0 0 -1
    outer loop
      vertex -0.930369 -38.324 0
      vertex -7.5 -62 0
      vertex -0.930369 38.324 0
    endloop
  endfacet
  facet normal 0 0 -1
    outer loop
      vertex -0.930369 38.324 0
      vertex -2.49018 51.0936 0
      vertex -0.930369 39.676 0
    endloop
  endfacet
  facet normal 0 0 -1
    outer loop
      vertex -0.930369 39.676 0
      vertex -2.49018 51.0936 0
      vertex -1.325 49.705 0
    endloop
  endfacet
  facet normal 0 -1 0
    outer loop
      vertex -7.5 -62 0
      vertex 7.5 -62 2
      vertex -7.5 -62 2
    endloop
  endfacet
  facet normal 0 -1 -0
    outer loop
      vertex 7.5 -62 2
      vertex -7.5 -62 0
      vertex 7.5 -62 0
    endloop
  endfacet
  facet normal 0 1 -0
    outer loop
      vertex 7.5 62 0
      vertex -7.5 62 2
      vertex 7.5 62 2
    endloop
  endfacet
  facet normal 0 1 0
    outer loop
      vertex -7.5 62 2
      vertex 7.5 62 0
      vertex -7.5 62 0
    endloop
  endfacet
  facet normal -0.939692 -0.342021 0
    outer loop
      vertex 2.65 52 0
      vertex 2.03002 53.7034 2
      vertex 2.03002 53.7034 0
    endloop
  endfacet
  facet normal -0.939692 -0.342021 0
    outer loop
      vertex 2.03002 53.7034 2
      vertex 2.65 52 0
      vertex 2.65 52 2
    endloop
  endfacet
  facet normal 1 -0 0
    outer loop
      vertex -2.49018 51.0936 2
      vertex -2.49018 52.9064 0
      vertex -2.49018 52.9064 2
    endloop
  endfacet
  facet normal 1 0 0
    outer loop
      vertex -2.49018 52.9064 0
      vertex -2.49018 51.0936 2
      vertex -2.49018 51.0936 0
    endloop
  endfacet
  facet normal 0.173648 -0.984808 0
    outer loop
      vertex -1.325 54.295 0
      vertex 0.460167 54.6097 2
      vertex -1.325 54.295 2
    endloop
  endfacet
  facet normal 0.173648 -0.984808 0
    outer loop
      vertex 0.460167 54.6097 2
      vertex -1.325 54.295 0
      vertex 0.460167 54.6097 0
    endloop
  endfacet
  facet normal -0.500001 -0.866025 0
    outer loop
      vertex 0.460167 54.6097 0
      vertex 2.03002 53.7034 2
      vertex 0.460167 54.6097 2
    endloop
  endfacet
  facet normal -0.500001 -0.866025 -0
    outer loop
      vertex 2.03002 53.7034 2
      vertex 0.460167 54.6097 0
      vertex 2.03002 53.7034 0
    endloop
  endfacet
  facet normal 0.766045 -0.642787 0
    outer loop
      vertex -2.49018 52.9064 2
      vertex -1.325 54.295 0
      vertex -1.325 54.295 2
    endloop
  endfacet
  facet normal 0.766045 -0.642787 0
    outer loop
      vertex -1.325 54.295 0
      vertex -2.49018 52.9064 2
      vertex -2.49018 52.9064 0
    endloop
  endfacet
  facet normal -0.5 0.866025 0
    outer loop
      vertex 2.03002 50.2966 0
      vertex 0.460167 49.3903 2
      vertex 2.03002 50.2966 2
    endloop
  endfacet
  facet normal -0.5 0.866025 0
    outer loop
      vertex 0.460167 49.3903 2
      vertex 2.03002 50.2966 0
      vertex 0.460167 49.3903 0
    endloop
  endfacet
  facet normal 0.766045 0.642787 0
    outer loop
      vertex -1.325 49.705 2
      vertex -2.49018 51.0936 0
      vertex -2.49018 51.0936 2
    endloop
  endfacet
  facet normal 0.766045 0.642787 0
    outer loop
      vertex -2.49018 51.0936 0
      vertex -1.325 49.705 2
      vertex -1.325 49.705 0
    endloop
  endfacet
  facet normal 0.173648 0.984808 -0
    outer loop
      vertex 0.460167 49.3903 0
      vertex -1.325 49.705 2
      vertex 0.460167 49.3903 2
    endloop
  endfacet
  facet normal 0.173648 0.984808 0
    outer loop
      vertex -1.325 49.705 2
      vertex 0.460167 49.3903 0
      vertex -1.325 49.705 0
    endloop
  endfacet
  facet normal -0.939693 0.34202 0
    outer loop
      vertex 2.03002 50.2966 0
      vertex 2.65 52 2
      vertex 2.65 52 0
    endloop
  endfacet
  facet normal -0.939693 0.34202 0
    outer loop
      vertex 2.65 52 2
      vertex 2.03002 50.2966 0
      vertex 2.03002 50.2966 2
    endloop
  endfacet
  facet normal -0.939693 -0.34202 0
    outer loop
      vertex 2.65 -52 0
      vertex 2.03002 -50.2966 2
      vertex 2.03002 -50.2966 0
    endloop
  endfacet
  facet normal -0.939693 -0.34202 0
    outer loop
      vertex 2.03002 -50.2966 2
      vertex 2.65 -52 0
      vertex 2.65 -52 2
    endloop
  endfacet
  facet normal 1 -0 0
    outer loop
      vertex -2.49018 -52.9064 2
      vertex -2.49018 -51.0936 0
      vertex -2.49018 -51.0936 2
    endloop
  endfacet
  facet normal 1 0 0
    outer loop
      vertex -2.49018 -51.0936 0
      vertex -2.49018 -52.9064 2
      vertex -2.49018 -52.9064 0
    endloop
  endfacet
  facet normal 0.173648 -0.984808 0
    outer loop
      vertex -1.325 -49.705 0
      vertex 0.460167 -49.3903 2
      vertex -1.325 -49.705 2
    endloop
  endfacet
  facet normal 0.173648 -0.984808 0
    outer loop
      vertex 0.460167 -49.3903 2
      vertex -1.325 -49.705 0
      vertex 0.460167 -49.3903 0
    endloop
  endfacet
  facet normal -0.5 -0.866025 0
    outer loop
      vertex 0.460167 -49.3903 0
      vertex 2.03002 -50.2966 2
      vertex 0.460167 -49.3903 2
    endloop
  endfacet
  facet normal -0.5 -0.866025 -0
    outer loop
      vertex 2.03002 -50.2966 2
      vertex 0.460167 -49.3903 0
      vertex 2.03002 -50.2966 0
    endloop
  endfacet
  facet normal 0.766045 -0.642787 0
    outer loop
      vertex -2.49018 -51.0936 2
      vertex -1.325 -49.705 0
      vertex -1.325 -49.705 2
    endloop
  endfacet
  facet normal 0.766045 -0.642787 0
    outer loop
      vertex -1.325 -49.705 0
      vertex -2.49018 -51.0936 2
      vertex -2.49018 -51.0936 0
    endloop
  endfacet
  facet normal -0.500001 0.866025 0
    outer loop
      vertex 2.03002 -53.7034 0
      vertex 0.460167 -54.6097 2
      vertex 2.03002 -53.7034 2
    endloop
  endfacet
  facet normal -0.500001 0.866025 0
    outer loop
      vertex 0.460167 -54.6097 2
      vertex 2.03002 -53.7034 0
      vertex 0.460167 -54.6097 0
    endloop
  endfacet
  facet normal 0.766045 0.642787 0
    outer loop
      vertex -1.325 -54.295 2
      vertex -2.49018 -52.9064 0
      vertex -2.49018 -52.9064 2
    endloop
  endfacet
  facet normal 0.766045 0.642787 0
    outer loop
      vertex -2.49018 -52.9064 0
      vertex -1.325 -54.295 2
      vertex -1.325 -54.295 0
    endloop
  endfacet
  facet normal -0.939692 0.342021 0
    outer loop
      vertex 2.03002 -53.7034 0
      vertex 2.65 -52 2
      vertex 2.65 -52 0
    endloop
  endfacet
  facet normal -0.939692 0.342021 0
    outer loop
      vertex 2.65 -52 2
      vertex 2.03002 -53.7034 0
      vertex 2.03002 -53.7034 2
    endloop
  endfacet
  facet normal 0.173648 0.984808 -0
    outer loop
      vertex 0.460167 -54.6097 0
      vertex -1.325 -54.295 2
      vertex 0.460167 -54.6097 2
    endloop
  endfacet
  facet normal 0.173648 0.984808 0
    outer loop
      vertex -1.325 -54.295 2
      vertex 0.460167 -54.6097 0
      vertex -1.325 -54.295 0
    endloop
  endfacet
  facet normal -0.809017 -0.587785 0
    outer loop
      vertex 1.15 39 0
      vertex 0.355369 40.0937 2
      vertex 0.355369 40.0937 0
    endloop
  endfacet
  facet normal -0.809017 -0.587785 0
    outer loop
      vertex 0.355369 40.0937 2
      vertex 1.15 39 0
      vertex 1.15 39 2
    endloop
  endfacet
  facet normal 1 -0 0
    outer loop
      vertex -0.930369 38.324 2
      vertex -0.930369 39.676 0
      vertex -0.930369 39.676 2
    endloop
  endfacet
  facet normal 1 0 0
    outer loop
      vertex -0.930369 39.676 0
      vertex -0.930369 38.324 2
      vertex -0.930369 38.324 0
    endloop
  endfacet
  facet normal 0.309018 -0.951056 0
    outer loop
      vertex -0.930369 39.676 0
      vertex 0.355369 40.0937 2
      vertex -0.930369 39.676 2
    endloop
  endfacet
  facet normal 0.309018 -0.951056 0
    outer loop
      vertex 0.355369 40.0937 2
      vertex -0.930369 39.676 0
      vertex 0.355369 40.0937 0
    endloop
  endfacet
  facet normal -0.809017 0.587785 0
    outer loop
      vertex 0.355369 37.9063 0
      vertex 1.15 39 2
      vertex 1.15 39 0
    endloop
  endfacet
  facet normal -0.809017 0.587785 0
    outer loop
      vertex 1.15 39 2
      vertex 0.355369 37.9063 0
      vertex 0.355369 37.9063 2
    endloop
  endfacet
  facet normal 0.309018 0.951056 -0
    outer loop
      vertex 0.355369 37.9063 0
      vertex -0.930369 38.324 2
      vertex 0.355369 37.9063 2
    endloop
  endfacet
  facet normal 0.309018 0.951056 0
    outer loop
      vertex -0.930369 38.324 2
      vertex 0.355369 37.9063 0
      vertex -0.930369 38.324 0
    endloop
  endfacet
  facet normal -0.809017 -0.587785 0
    outer loop
      vertex 1.15 -39 0
      vertex 0.355369 -37.9063 2
      vertex 0.355369 -37.9063 0
    endloop
  endfacet
  facet normal -0.809017 -0.587785 0
    outer loop
      vertex 0.355369 -37.9063 2
      vertex 1.15 -39 0
      vertex 1.15 -39 2
    endloop
  endfacet
  facet normal 1 -0 0
    outer loop
      vertex -0.930369 -39.676 2
      vertex -0.930369 -38.324 0
      vertex -0.930369 -38.324 2
    endloop
  endfacet
  facet normal 1 0 0
    outer loop
      vertex -0.930369 -38.324 0
      vertex -0.930369 -39.676 2
      vertex -0.930369 -39.676 0
    endloop
  endfacet
  facet normal 0.309018 -0.951056 0
    outer loop
      vertex -0.930369 -38.324 0
      vertex 0.355369 -37.9063 2
      vertex -0.930369 -38.324 2
    endloop
  endfacet
  facet normal 0.309018 -0.951056 0
    outer loop
      vertex 0.355369 -37.9063 2
      vertex -0.930369 -38.324 0
      vertex 0.355369 -37.9063 0
    endloop
  endfacet
  facet normal -0.809017 0.587785 0
    outer loop
      vertex 0.355369 -40.0937 0
      vertex 1.15 -39 2
      vertex 1.15 -39 0
    endloop
  endfacet
  facet normal -0.809017 0.587785 0
    outer loop
      vertex 1.15 -39 2
      vertex 0.355369 -40.0937 0
      vertex 0.355369 -40.0937 2
    endloop
  endfacet
  facet normal 0.309018 0.951056 -0
    outer loop
      vertex 0.355369 -40.0937 0
      vertex -0.930369 -39.676 2
      vertex 0.355369 -40.0937 2
    endloop
  endfacet
  facet normal 0.309018 0.951056 0
    outer loop
      vertex -0.930369 -39.676 2
      vertex 0.355369 -40.0937 0
      vertex -0.930369 -39.676 0
    endloop
  endfacet
endsolid OpenSCAD_Model
