solid OpenSCAD_Model
  facet normal 0 0 -1
    outer loop
      vertex 1.52028 1.52028 0
      vertex 10 18 0
      vertex 1.98634 0.822769 0
    endloop
  endfacet
  facet normal 0 0 -1
    outer loop
      vertex 10 18 0
      vertex 1.98634 14.1772 0
      vertex 2.15 15 0
    endloop
  endfacet
  facet normal 0 0 -1
    outer loop
      vertex 1.52028 13.4797 0
      vertex 10 18 0
      vertex 1.52028 1.52028 0
    endloop
  endfacet
  facet normal 0 0 -1
    outer loop
      vertex 10 18 0
      vertex 1.52028 13.4797 0
      vertex 1.98634 14.1772 0
    endloop
  endfacet
  facet normal 0 0 -1
    outer loop
      vertex 0.822769 1.98634 0
      vertex 1.52028 13.4797 0
      vertex 1.52028 1.52028 0
    endloop
  endfacet
  facet normal 0 0 -1
    outer loop
      vertex 0.822769 1.98634 0
      vertex 0.822769 13.0137 0
      vertex 1.52028 13.4797 0
    endloop
  endfacet
  facet normal 0 0 -1
    outer loop
      vertex 0 2.15 0
      vertex 0.822769 13.0137 0
      vertex 0.822769 1.98634 0
    endloop
  endfacet
  facet normal 0 0 -1
    outer loop
      vertex 0 2.15 0
      vertex 0 12.85 0
      vertex 0.822769 13.0137 0
    endloop
  endfacet
  facet normal 0 0 -1
    outer loop
      vertex -0.822769 1.98634 0
      vertex 0 12.85 0
      vertex 0 2.15 0
    endloop
  endfacet
  facet normal 0 0 -1
    outer loop
      vertex -0.822769 1.98634 0
      vertex -0.822769 13.0137 0
      vertex 0 12.85 0
    endloop
  endfacet
  facet normal 0 0 -1
    outer loop
      vertex -1.52028 1.52028 0
      vertex -0.822769 13.0137 0
      vertex -0.822769 1.98634 0
    endloop
  endfacet
  facet normal 0 0 -1
    outer loop
      vertex -1.52028 1.52028 0
      vertex -1.52028 13.4797 0
      vertex -0.822769 13.0137 0
    endloop
  endfacet
  facet normal 0 0 -1
    outer loop
      vertex -10 18 0
      vertex -1.52028 1.52028 0
      vertex -1.98634 0.822769 0
    endloop
  endfacet
  facet normal 0 0 -1
    outer loop
      vertex -1.52028 1.52028 0
      vertex -10 18 0
      vertex -1.52028 13.4797 0
    endloop
  endfacet
  facet normal 0 0 -1
    outer loop
      vertex -10 -7 0
      vertex -1.98634 0.822769 0
      vertex -2.15 0 0
    endloop
  endfacet
  facet normal 0 0 -1
    outer loop
      vertex -1.52028 13.4797 0
      vertex -10 18 0
      vertex -1.98634 14.1772 0
    endloop
  endfacet
  facet normal 0 0 -1
    outer loop
      vertex 10 -7 0
      vertex 1.98634 -0.822769 0
      vertex 2.15 0 0
    endloop
  endfacet
  facet normal 0 0 -1
    outer loop
      vertex 10 -7 0
      vertex 1.52028 -1.52028 0
      vertex 1.98634 -0.822769 0
    endloop
  endfacet
  facet normal 0 0 -1
    outer loop
      vertex 7 -10 0
      vertex 0.822769 -1.98634 0
      vertex 1.52028 -1.52028 0
    endloop
  endfacet
  facet normal 0 0 -1
    outer loop
      vertex 7 -10 0
      vertex 0 -2.15 0
      vertex 0.822769 -1.98634 0
    endloop
  endfacet
  facet normal 0 0 -1
    outer loop
      vertex -7 -10 0
      vertex 0 -2.15 0
      vertex 7 -10 0
    endloop
  endfacet
  facet normal -0 0 -1
    outer loop
      vertex 0 -2.15 0
      vertex -7 -10 0
      vertex -0.822769 -1.98634 0
    endloop
  endfacet
  facet normal -0 0 -1
    outer loop
      vertex -1.98634 -0.822769 0
      vertex -10 -7 0
      vertex -2.15 0 0
    endloop
  endfacet
  facet normal -0 0 -1
    outer loop
      vertex -1.52028 -1.52028 0
      vertex -10 -7 0
      vertex -1.98634 -0.822769 0
    endloop
  endfacet
  facet normal 0 0 -1
    outer loop
      vertex -10 -7 0
      vertex -1.52028 -1.52028 0
      vertex -7 -10 0
    endloop
  endfacet
  facet normal -0 0 -1
    outer loop
      vertex -0.822769 -1.98634 0
      vertex -7 -10 0
      vertex -1.52028 -1.52028 0
    endloop
  endfacet
  facet normal 0 0 -1
    outer loop
      vertex 7 -10 0
      vertex 10 -7 0
      vertex 9.94236 -7.58527 0
    endloop
  endfacet
  facet normal 0 0 -1
    outer loop
      vertex 1.98634 0.822769 0
      vertex 10 -7 0
      vertex 2.15 0 0
    endloop
  endfacet
  facet normal 0 0 -1
    outer loop
      vertex 7 -10 0
      vertex 9.94236 -7.58527 0
      vertex 9.77164 -8.14805 0
    endloop
  endfacet
  facet normal 0 0 -1
    outer loop
      vertex 10 -7 0
      vertex 1.98634 0.822769 0
      vertex 10 18 0
    endloop
  endfacet
  facet normal 0 0 -1
    outer loop
      vertex 7 -10 0
      vertex 9.77164 -8.14805 0
      vertex 9.49441 -8.66671 0
    endloop
  endfacet
  facet normal 0 0 -1
    outer loop
      vertex 1.98634 15.8228 0
      vertex 10 18 0
      vertex 2.15 15 0
    endloop
  endfacet
  facet normal 0 0 -1
    outer loop
      vertex 7 -10 0
      vertex 9.49441 -8.66671 0
      vertex 9.12132 -9.12132 0
    endloop
  endfacet
  facet normal 0 -0 -1
    outer loop
      vertex 7 21 0
      vertex 10 18 0
      vertex 1.98634 15.8228 0
    endloop
  endfacet
  facet normal 0 0 -1
    outer loop
      vertex 7 -10 0
      vertex 9.12132 -9.12132 0
      vertex 8.66671 -9.49441 0
    endloop
  endfacet
  facet normal 0 0 -1
    outer loop
      vertex 10 18 0
      vertex 7 21 0
      vertex 9.94236 18.5853 0
    endloop
  endfacet
  facet normal 0 0 -1
    outer loop
      vertex 7 -10 0
      vertex 8.66671 -9.49441 0
      vertex 8.14805 -9.77164 0
    endloop
  endfacet
  facet normal 0 0 -1
    outer loop
      vertex 9.94236 18.5853 0
      vertex 7 21 0
      vertex 9.77164 19.148 0
    endloop
  endfacet
  facet normal 0 0 -1
    outer loop
      vertex 7 -10 0
      vertex 8.14805 -9.77164 0
      vertex 7.58527 -9.94236 0
    endloop
  endfacet
  facet normal 0 0 -1
    outer loop
      vertex 9.77164 19.148 0
      vertex 7 21 0
      vertex 9.49441 19.6667 0
    endloop
  endfacet
  facet normal 0 0 -1
    outer loop
      vertex 9.49441 19.6667 0
      vertex 7 21 0
      vertex 9.12132 20.1213 0
    endloop
  endfacet
  facet normal 0 0 -1
    outer loop
      vertex 1.52028 -1.52028 0
      vertex 10 -7 0
      vertex 7 -10 0
    endloop
  endfacet
  facet normal 0 0 -1
    outer loop
      vertex 8.66671 20.4944 0
      vertex 7 21 0
      vertex 8.14805 20.7716 0
    endloop
  endfacet
  facet normal 0 0 -1
    outer loop
      vertex 8.14805 20.7716 0
      vertex 7 21 0
      vertex 7.58527 20.9424 0
    endloop
  endfacet
  facet normal 0 0 -1
    outer loop
      vertex 9.12132 20.1213 0
      vertex 7 21 0
      vertex 8.66671 20.4944 0
    endloop
  endfacet
  facet normal 0 0 -1
    outer loop
      vertex 1.52028 16.5203 0
      vertex 7 21 0
      vertex 1.98634 15.8228 0
    endloop
  endfacet
  facet normal 0 0 -1
    outer loop
      vertex 0.822769 16.9863 0
      vertex 7 21 0
      vertex 1.52028 16.5203 0
    endloop
  endfacet
  facet normal 0 0 -1
    outer loop
      vertex 0 17.15 0
      vertex 7 21 0
      vertex 0.822769 16.9863 0
    endloop
  endfacet
  facet normal 0 0 -1
    outer loop
      vertex -7 21 0
      vertex 0 17.15 0
      vertex -0.822769 16.9863 0
    endloop
  endfacet
  facet normal 0 0 -1
    outer loop
      vertex 0 17.15 0
      vertex -7 21 0
      vertex 7 21 0
    endloop
  endfacet
  facet normal 0 0 -1
    outer loop
      vertex -1.52028 16.5203 0
      vertex -7 21 0
      vertex -0.822769 16.9863 0
    endloop
  endfacet
  facet normal 0 0 -1
    outer loop
      vertex -1.98634 15.8228 0
      vertex -7 21 0
      vertex -1.52028 16.5203 0
    endloop
  endfacet
  facet normal 0 0 -1
    outer loop
      vertex -10 18 0
      vertex -1.98634 15.8228 0
      vertex -2.15 15 0
    endloop
  endfacet
  facet normal -0 0 -1
    outer loop
      vertex -1.98634 0.822769 0
      vertex -10 -7 0
      vertex -10 18 0
    endloop
  endfacet
  facet normal 0 0 -1
    outer loop
      vertex -10 -7 0
      vertex -7 -10 0
      vertex -7.58527 -9.94236 0
    endloop
  endfacet
  facet normal 0 0 -1
    outer loop
      vertex -1.98634 14.1772 0
      vertex -10 18 0
      vertex -2.15 15 0
    endloop
  endfacet
  facet normal 0 0 -1
    outer loop
      vertex -10 -7 0
      vertex -7.58527 -9.94236 0
      vertex -8.14805 -9.77164 0
    endloop
  endfacet
  facet normal 0 0 -1
    outer loop
      vertex -1.98634 15.8228 0
      vertex -10 18 0
      vertex -7 21 0
    endloop
  endfacet
  facet normal 0 0 -1
    outer loop
      vertex -10 -7 0
      vertex -8.14805 -9.77164 0
      vertex -8.66671 -9.49441 0
    endloop
  endfacet
  facet normal 0 0 -1
    outer loop
      vertex -7 21 0
      vertex -10 18 0
      vertex -7.58527 20.9424 0
    endloop
  endfacet
  facet normal 0 0 -1
    outer loop
      vertex -10 -7 0
      vertex -8.66671 -9.49441 0
      vertex -9.12132 -9.12132 0
    endloop
  endfacet
  facet normal 0 0 -1
    outer loop
      vertex -7.58527 20.9424 0
      vertex -10 18 0
      vertex -8.14805 20.7716 0
    endloop
  endfacet
  facet normal 0 0 -1
    outer loop
      vertex -10 -7 0
      vertex -9.12132 -9.12132 0
      vertex -9.49441 -8.66671 0
    endloop
  endfacet
  facet normal 0 0 -1
    outer loop
      vertex -8.14805 20.7716 0
      vertex -10 18 0
      vertex -8.66671 20.4944 0
    endloop
  endfacet
  facet normal 0 0 -1
    outer loop
      vertex -10 -7 0
      vertex -9.49441 -8.66671 0
      vertex -9.77164 -8.14805 0
    endloop
  endfacet
  facet normal 0 0 -1
    outer loop
      vertex -8.66671 20.4944 0
      vertex -10 18 0
      vertex -9.12132 20.1213 0
    endloop
  endfacet
  facet normal 0 0 -1
    outer loop
      vertex -10 -7 0
      vertex -9.77164 -8.14805 0
      vertex -9.94236 -7.58527 0
    endloop
  endfacet
  facet normal 0 0 -1
    outer loop
      vertex -9.12132 20.1213 0
      vertex -10 18 0
      vertex -9.49441 19.6667 0
    endloop
  endfacet
  facet normal 0 0 -1
    outer loop
      vertex -9.49441 19.6667 0
      vertex -10 18 0
      vertex -9.77164 19.148 0
    endloop
  endfacet
  facet normal 0 0 -1
    outer loop
      vertex -9.77164 19.148 0
      vertex -10 18 0
      vertex -9.94236 18.5853 0
    endloop
  endfacet
  facet normal -0.95694 -0.290285 0
    outer loop
      vertex -9.77164 -8.14805 0
      vertex -9.94236 -7.58527 3
      vertex -9.94236 -7.58527 0
    endloop
  endfacet
  facet normal -0.95694 -0.290285 0
    outer loop
      vertex -9.94236 -7.58527 3
      vertex -9.77164 -8.14805 0
      vertex -9.77164 -8.14805 3
    endloop
  endfacet
  facet normal -1 0 0
    outer loop
      vertex -10 -7 0
      vertex -10 18 3
      vertex -10 18 0
    endloop
  endfacet
  facet normal -1 -0 0
    outer loop
      vertex -10 18 3
      vertex -10 -7 0
      vertex -10 -7 3
    endloop
  endfacet
  facet normal 0.77301 -0.634393 0
    outer loop
      vertex 9.12132 -9.12132 3
      vertex 9.49441 -8.66671 0
      vertex 9.49441 -8.66671 3
    endloop
  endfacet
  facet normal 0.77301 -0.634393 0
    outer loop
      vertex 9.49441 -8.66671 0
      vertex 9.12132 -9.12132 3
      vertex 9.12132 -9.12132 0
    endloop
  endfacet
  facet normal -0.995185 -0.0980183 0
    outer loop
      vertex -9.94236 -7.58527 0
      vertex -10 -7 3
      vertex -10 -7 0
    endloop
  endfacet
  facet normal -0.995185 -0.0980183 0
    outer loop
      vertex -10 -7 3
      vertex -9.94236 -7.58527 0
      vertex -9.94236 -7.58527 3
    endloop
  endfacet
  facet normal 0 -1 0
    outer loop
      vertex -7 -10 0
      vertex 7 -10 3
      vertex -7 -10 3
    endloop
  endfacet
  facet normal 0 -1 -0
    outer loop
      vertex 7 -10 3
      vertex -7 -10 0
      vertex 7 -10 0
    endloop
  endfacet
  facet normal 0 0 1
    outer loop
      vertex 1.52028 13.4797 3
      vertex 10 18 3
      vertex 1.98634 14.1772 3
    endloop
  endfacet
  facet normal 0 0 1
    outer loop
      vertex 10 18 3
      vertex 1.98634 0.822769 3
      vertex 2.15 0 3
    endloop
  endfacet
  facet normal 0 0 1
    outer loop
      vertex 1.52028 1.52028 3
      vertex 10 18 3
      vertex 1.52028 13.4797 3
    endloop
  endfacet
  facet normal 0 0 1
    outer loop
      vertex 10 18 3
      vertex 1.52028 1.52028 3
      vertex 1.98634 0.822769 3
    endloop
  endfacet
  facet normal -0 0 1
    outer loop
      vertex 0.822769 13.0137 3
      vertex 1.52028 1.52028 3
      vertex 1.52028 13.4797 3
    endloop
  endfacet
  facet normal 0 0 1
    outer loop
      vertex 0.822769 13.0137 3
      vertex 0.822769 1.98634 3
      vertex 1.52028 1.52028 3
    endloop
  endfacet
  facet normal -0 0 1
    outer loop
      vertex 0 12.85 3
      vertex 0.822769 1.98634 3
      vertex 0.822769 13.0137 3
    endloop
  endfacet
  facet normal 0 0 1
    outer loop
      vertex 0 12.85 3
      vertex 0 2.15 3
      vertex 0.822769 1.98634 3
    endloop
  endfacet
  facet normal 0 0 1
    outer loop
      vertex -0.822769 13.0137 3
      vertex 0 2.15 3
      vertex 0 12.85 3
    endloop
  endfacet
  facet normal 0 0 1
    outer loop
      vertex -0.822769 13.0137 3
      vertex -0.822769 1.98634 3
      vertex 0 2.15 3
    endloop
  endfacet
  facet normal 0 0 1
    outer loop
      vertex -1.52028 13.4797 3
      vertex -0.822769 1.98634 3
      vertex -0.822769 13.0137 3
    endloop
  endfacet
  facet normal 0 0 1
    outer loop
      vertex -1.52028 13.4797 3
      vertex -1.52028 1.52028 3
      vertex -0.822769 1.98634 3
    endloop
  endfacet
  facet normal 0 0 1
    outer loop
      vertex -10 18 3
      vertex -1.52028 13.4797 3
      vertex -1.98634 14.1772 3
    endloop
  endfacet
  facet normal 0 0 1
    outer loop
      vertex -1.52028 13.4797 3
      vertex -10 18 3
      vertex -1.52028 1.52028 3
    endloop
  endfacet
  facet normal 0 0 1
    outer loop
      vertex -10 18 3
      vertex -1.98634 14.1772 3
      vertex -2.15 15 3
    endloop
  endfacet
  facet normal 0 0 1
    outer loop
      vertex -1.52028 1.52028 3
      vertex -10 18 3
      vertex -1.98634 0.822769 3
    endloop
  endfacet
  facet normal 0 0 1
    outer loop
      vertex 7 21 3
      vertex 10 18 3
      vertex 9.94236 18.5853 3
    endloop
  endfacet
  facet normal 0 0 1
    outer loop
      vertex 10 18 3
      vertex 2.15 0 3
      vertex 10 -7 3
    endloop
  endfacet
  facet normal 0 0 1
    outer loop
      vertex 7 21 3
      vertex 9.94236 18.5853 3
      vertex 9.77164 19.148 3
    endloop
  endfacet
  facet normal -0 0 1
    outer loop
      vertex 1.98634 -0.822769 3
      vertex 10 -7 3
      vertex 2.15 0 3
    endloop
  endfacet
  facet normal 0 0 1
    outer loop
      vertex 7 21 3
      vertex 9.77164 19.148 3
      vertex 9.49441 19.6667 3
    endloop
  endfacet
  facet normal -0 0 1
    outer loop
      vertex 1.52028 -1.52028 3
      vertex 10 -7 3
      vertex 1.98634 -0.822769 3
    endloop
  endfacet
  facet normal 0 0 1
    outer loop
      vertex 7 21 3
      vertex 9.49441 19.6667 3
      vertex 9.12132 20.1213 3
    endloop
  endfacet
  facet normal 0 -0 1
    outer loop
      vertex 7 -10 3
      vertex 10 -7 3
      vertex 1.52028 -1.52028 3
    endloop
  endfacet
  facet normal 0 0 1
    outer loop
      vertex 7 21 3
      vertex 9.12132 20.1213 3
      vertex 8.66671 20.4944 3
    endloop
  endfacet
  facet normal 0 0 1
    outer loop
      vertex 10 -7 3
      vertex 7 -10 3
      vertex 9.94236 -7.58527 3
    endloop
  endfacet
  facet normal 0 0 1
    outer loop
      vertex 7 21 3
      vertex 8.66671 20.4944 3
      vertex 8.14805 20.7716 3
    endloop
  endfacet
  facet normal 0 0 1
    outer loop
      vertex 9.94236 -7.58527 3
      vertex 7 -10 3
      vertex 9.77164 -8.14805 3
    endloop
  endfacet
  facet normal 0 0 1
    outer loop
      vertex 7 21 3
      vertex 8.14805 20.7716 3
      vertex 7.58527 20.9424 3
    endloop
  endfacet
  facet normal 0 0 1
    outer loop
      vertex 9.77164 -8.14805 3
      vertex 7 -10 3
      vertex 9.49441 -8.66671 3
    endloop
  endfacet
  facet normal 0 0 1
    outer loop
      vertex 10 18 3
      vertex 7 21 3
      vertex 1.98634 15.8228 3
    endloop
  endfacet
  facet normal 0 0 1
    outer loop
      vertex 9.49441 -8.66671 3
      vertex 7 -10 3
      vertex 9.12132 -9.12132 3
    endloop
  endfacet
  facet normal 0 0 1
    outer loop
      vertex 1.98634 14.1772 3
      vertex 10 18 3
      vertex 2.15 15 3
    endloop
  endfacet
  facet normal 0 0 1
    outer loop
      vertex 10 18 3
      vertex 1.98634 15.8228 3
      vertex 2.15 15 3
    endloop
  endfacet
  facet normal 0 0 1
    outer loop
      vertex 7 21 3
      vertex 1.52028 16.5203 3
      vertex 1.98634 15.8228 3
    endloop
  endfacet
  facet normal 0 0 1
    outer loop
      vertex 7 21 3
      vertex 0.822769 16.9863 3
      vertex 1.52028 16.5203 3
    endloop
  endfacet
  facet normal 0 0 1
    outer loop
      vertex 7 21 3
      vertex 0 17.15 3
      vertex 0.822769 16.9863 3
    endloop
  endfacet
  facet normal -0 0 1
    outer loop
      vertex -7 21 3
      vertex 0 17.15 3
      vertex 7 21 3
    endloop
  endfacet
  facet normal 0 0 1
    outer loop
      vertex -1.98634 15.8228 3
      vertex -10 18 3
      vertex -2.15 15 3
    endloop
  endfacet
  facet normal -0 0 1
    outer loop
      vertex -10 18 3
      vertex -1.98634 15.8228 3
      vertex -7 21 3
    endloop
  endfacet
  facet normal 0 0 1
    outer loop
      vertex -1.52028 16.5203 3
      vertex -7 21 3
      vertex -1.98634 15.8228 3
    endloop
  endfacet
  facet normal 0 0 1
    outer loop
      vertex -0.822769 16.9863 3
      vertex -7 21 3
      vertex -1.52028 16.5203 3
    endloop
  endfacet
  facet normal 0 0 1
    outer loop
      vertex 0 17.15 3
      vertex -7 21 3
      vertex -0.822769 16.9863 3
    endloop
  endfacet
  facet normal 0 0 1
    outer loop
      vertex 8.66671 -9.49441 3
      vertex 7 -10 3
      vertex 8.14805 -9.77164 3
    endloop
  endfacet
  facet normal 0 0 1
    outer loop
      vertex 8.14805 -9.77164 3
      vertex 7 -10 3
      vertex 7.58527 -9.94236 3
    endloop
  endfacet
  facet normal 0 0 1
    outer loop
      vertex 9.12132 -9.12132 3
      vertex 7 -10 3
      vertex 8.66671 -9.49441 3
    endloop
  endfacet
  facet normal -0 0 1
    outer loop
      vertex 0.822769 -1.98634 3
      vertex 7 -10 3
      vertex 1.52028 -1.52028 3
    endloop
  endfacet
  facet normal -0 0 1
    outer loop
      vertex 0 -2.15 3
      vertex 7 -10 3
      vertex 0.822769 -1.98634 3
    endloop
  endfacet
  facet normal 0 0 1
    outer loop
      vertex -7 -10 3
      vertex 0 -2.15 3
      vertex -0.822769 -1.98634 3
    endloop
  endfacet
  facet normal 0 0 1
    outer loop
      vertex -7 -10 3
      vertex -0.822769 -1.98634 3
      vertex -1.52028 -1.52028 3
    endloop
  endfacet
  facet normal 0 0 1
    outer loop
      vertex -10 -7 3
      vertex -1.98634 0.822769 3
      vertex -10 18 3
    endloop
  endfacet
  facet normal 0 0 1
    outer loop
      vertex 0 -2.15 3
      vertex -7 -10 3
      vertex 7 -10 3
    endloop
  endfacet
  facet normal 0 0 1
    outer loop
      vertex -10 -7 3
      vertex -1.52028 -1.52028 3
      vertex -1.98634 -0.822769 3
    endloop
  endfacet
  facet normal 0 0 1
    outer loop
      vertex -1.98634 0.822769 3
      vertex -10 -7 3
      vertex -2.15 0 3
    endloop
  endfacet
  facet normal 0 0 1
    outer loop
      vertex -10 18 3
      vertex -7 21 3
      vertex -7.58527 20.9424 3
    endloop
  endfacet
  facet normal 0 0 1
    outer loop
      vertex -2.15 0 3
      vertex -10 -7 3
      vertex -1.98634 -0.822769 3
    endloop
  endfacet
  facet normal 0 0 1
    outer loop
      vertex -10 18 3
      vertex -7.58527 20.9424 3
      vertex -8.14805 20.7716 3
    endloop
  endfacet
  facet normal 0 0 1
    outer loop
      vertex -1.52028 -1.52028 3
      vertex -10 -7 3
      vertex -7 -10 3
    endloop
  endfacet
  facet normal 0 0 1
    outer loop
      vertex -10 18 3
      vertex -8.14805 20.7716 3
      vertex -8.66671 20.4944 3
    endloop
  endfacet
  facet normal 0 0 1
    outer loop
      vertex -7 -10 3
      vertex -10 -7 3
      vertex -7.58527 -9.94236 3
    endloop
  endfacet
  facet normal 0 0 1
    outer loop
      vertex -10 18 3
      vertex -8.66671 20.4944 3
      vertex -9.12132 20.1213 3
    endloop
  endfacet
  facet normal 0 0 1
    outer loop
      vertex -7.58527 -9.94236 3
      vertex -10 -7 3
      vertex -8.14805 -9.77164 3
    endloop
  endfacet
  facet normal 0 0 1
    outer loop
      vertex -10 18 3
      vertex -9.12132 20.1213 3
      vertex -9.49441 19.6667 3
    endloop
  endfacet
  facet normal 0 0 1
    outer loop
      vertex -8.14805 -9.77164 3
      vertex -10 -7 3
      vertex -8.66671 -9.49441 3
    endloop
  endfacet
  facet normal 0 0 1
    outer loop
      vertex -10 18 3
      vertex -9.49441 19.6667 3
      vertex -9.77164 19.148 3
    endloop
  endfacet
  facet normal 0 0 1
    outer loop
      vertex -8.66671 -9.49441 3
      vertex -10 -7 3
      vertex -9.12132 -9.12132 3
    endloop
  endfacet
  facet normal 0 0 1
    outer loop
      vertex -10 18 3
      vertex -9.77164 19.148 3
      vertex -9.94236 18.5853 3
    endloop
  endfacet
  facet normal 0 0 1
    outer loop
      vertex -9.12132 -9.12132 3
      vertex -10 -7 3
      vertex -9.49441 -8.66671 3
    endloop
  endfacet
  facet normal 0 0 1
    outer loop
      vertex -9.49441 -8.66671 3
      vertex -10 -7 3
      vertex -9.77164 -8.14805 3
    endloop
  endfacet
  facet normal 0 0 1
    outer loop
      vertex -9.77164 -8.14805 3
      vertex -10 -7 3
      vertex -9.94236 -7.58527 3
    endloop
  endfacet
  facet normal 1 -0 0
    outer loop
      vertex 10 -7 3
      vertex 10 18 0
      vertex 10 18 3
    endloop
  endfacet
  facet normal 1 0 0
    outer loop
      vertex 10 18 0
      vertex 10 -7 3
      vertex 10 -7 0
    endloop
  endfacet
  facet normal 0.995185 0.0980185 0
    outer loop
      vertex 10 18 3
      vertex 9.94236 18.5853 0
      vertex 9.94236 18.5853 3
    endloop
  endfacet
  facet normal 0.995185 0.0980185 0
    outer loop
      vertex 9.94236 18.5853 0
      vertex 10 18 3
      vertex 10 18 0
    endloop
  endfacet
  facet normal -0.881922 -0.471396 0
    outer loop
      vertex -9.49441 -8.66671 0
      vertex -9.77164 -8.14805 3
      vertex -9.77164 -8.14805 0
    endloop
  endfacet
  facet normal -0.881922 -0.471396 0
    outer loop
      vertex -9.77164 -8.14805 3
      vertex -9.49441 -8.66671 0
      vertex -9.49441 -8.66671 3
    endloop
  endfacet
  facet normal -0.995185 0.0980185 0
    outer loop
      vertex -10 18 0
      vertex -9.94236 18.5853 3
      vertex -9.94236 18.5853 0
    endloop
  endfacet
  facet normal -0.995185 0.0980185 0
    outer loop
      vertex -9.94236 18.5853 3
      vertex -10 18 0
      vertex -10 18 3
    endloop
  endfacet
  facet normal 0.0980167 0.995185 -0
    outer loop
      vertex 7.58527 20.9424 0
      vertex 7 21 3
      vertex 7.58527 20.9424 3
    endloop
  endfacet
  facet normal 0.0980167 0.995185 0
    outer loop
      vertex 7 21 3
      vertex 7.58527 20.9424 0
      vertex 7 21 0
    endloop
  endfacet
  facet normal 0 1 -0
    outer loop
      vertex 7 21 0
      vertex -7 21 3
      vertex 7 21 3
    endloop
  endfacet
  facet normal 0 1 0
    outer loop
      vertex -7 21 3
      vertex 7 21 0
      vertex -7 21 0
    endloop
  endfacet
  facet normal 0.995185 -0.0980183 0
    outer loop
      vertex 9.94236 -7.58527 3
      vertex 10 -7 0
      vertex 10 -7 3
    endloop
  endfacet
  facet normal 0.995185 -0.0980183 0
    outer loop
      vertex 10 -7 0
      vertex 9.94236 -7.58527 3
      vertex 9.94236 -7.58527 0
    endloop
  endfacet
  facet normal 0.881922 -0.471396 0
    outer loop
      vertex 9.49441 -8.66671 3
      vertex 9.77164 -8.14805 0
      vertex 9.77164 -8.14805 3
    endloop
  endfacet
  facet normal 0.881922 -0.471396 0
    outer loop
      vertex 9.77164 -8.14805 0
      vertex 9.49441 -8.66671 3
      vertex 9.49441 -8.66671 0
    endloop
  endfacet
  facet normal 0.95694 0.290285 0
    outer loop
      vertex 9.94236 18.5853 3
      vertex 9.77164 19.148 0
      vertex 9.77164 19.148 3
    endloop
  endfacet
  facet normal 0.95694 0.290285 0
    outer loop
      vertex 9.77164 19.148 0
      vertex 9.94236 18.5853 3
      vertex 9.94236 18.5853 0
    endloop
  endfacet
  facet normal 0.0980182 -0.995185 0
    outer loop
      vertex 7 -10 0
      vertex 7.58527 -9.94236 3
      vertex 7 -10 3
    endloop
  endfacet
  facet normal 0.0980182 -0.995185 0
    outer loop
      vertex 7.58527 -9.94236 3
      vertex 7 -10 0
      vertex 7.58527 -9.94236 0
    endloop
  endfacet
  facet normal 0.634393 -0.77301 0
    outer loop
      vertex 8.66671 -9.49441 0
      vertex 9.12132 -9.12132 3
      vertex 8.66671 -9.49441 3
    endloop
  endfacet
  facet normal 0.634393 -0.77301 0
    outer loop
      vertex 9.12132 -9.12132 3
      vertex 8.66671 -9.49441 0
      vertex 9.12132 -9.12132 0
    endloop
  endfacet
  facet normal -0.0980183 -0.995185 0
    outer loop
      vertex -7.58527 -9.94236 0
      vertex -7 -10 3
      vertex -7.58527 -9.94236 3
    endloop
  endfacet
  facet normal -0.0980183 -0.995185 -0
    outer loop
      vertex -7 -10 3
      vertex -7.58527 -9.94236 0
      vertex -7 -10 0
    endloop
  endfacet
  facet normal -0.471396 -0.881922 0
    outer loop
      vertex -8.66671 -9.49441 0
      vertex -8.14805 -9.77164 3
      vertex -8.66671 -9.49441 3
    endloop
  endfacet
  facet normal -0.471396 -0.881922 -0
    outer loop
      vertex -8.14805 -9.77164 3
      vertex -8.66671 -9.49441 0
      vertex -8.14805 -9.77164 0
    endloop
  endfacet
  facet normal -0.290285 -0.95694 0
    outer loop
      vertex -8.14805 -9.77164 0
      vertex -7.58527 -9.94236 3
      vertex -8.14805 -9.77164 3
    endloop
  endfacet
  facet normal -0.290285 -0.95694 -0
    outer loop
      vertex -7.58527 -9.94236 3
      vertex -8.14805 -9.77164 0
      vertex -7.58527 -9.94236 0
    endloop
  endfacet
  facet normal -0.77301 -0.634393 0
    outer loop
      vertex -9.12132 -9.12132 0
      vertex -9.49441 -8.66671 3
      vertex -9.49441 -8.66671 0
    endloop
  endfacet
  facet normal -0.77301 -0.634393 0
    outer loop
      vertex -9.49441 -8.66671 3
      vertex -9.12132 -9.12132 0
      vertex -9.12132 -9.12132 3
    endloop
  endfacet
  facet normal -0.634393 -0.77301 0
    outer loop
      vertex -9.12132 -9.12132 0
      vertex -8.66671 -9.49441 3
      vertex -9.12132 -9.12132 3
    endloop
  endfacet
  facet normal -0.634393 -0.77301 -0
    outer loop
      vertex -8.66671 -9.49441 3
      vertex -9.12132 -9.12132 0
      vertex -8.66671 -9.49441 0
    endloop
  endfacet
  facet normal -0.95694 0.290285 0
    outer loop
      vertex -9.94236 18.5853 0
      vertex -9.77164 19.148 3
      vertex -9.77164 19.148 0
    endloop
  endfacet
  facet normal -0.95694 0.290285 0
    outer loop
      vertex -9.77164 19.148 3
      vertex -9.94236 18.5853 0
      vertex -9.94236 18.5853 3
    endloop
  endfacet
  facet normal -0.881922 0.471395 0
    outer loop
      vertex -9.77164 19.148 0
      vertex -9.49441 19.6667 3
      vertex -9.49441 19.6667 0
    endloop
  endfacet
  facet normal -0.881922 0.471395 0
    outer loop
      vertex -9.49441 19.6667 3
      vertex -9.77164 19.148 0
      vertex -9.77164 19.148 3
    endloop
  endfacet
  facet normal 0.290288 0.956939 -0
    outer loop
      vertex 8.14805 20.7716 0
      vertex 7.58527 20.9424 3
      vertex 8.14805 20.7716 3
    endloop
  endfacet
  facet normal 0.290288 0.956939 0
    outer loop
      vertex 7.58527 20.9424 3
      vertex 8.14805 20.7716 0
      vertex 7.58527 20.9424 0
    endloop
  endfacet
  facet normal 0.77301 0.634394 0
    outer loop
      vertex 9.49441 19.6667 3
      vertex 9.12132 20.1213 0
      vertex 9.12132 20.1213 3
    endloop
  endfacet
  facet normal 0.77301 0.634394 0
    outer loop
      vertex 9.12132 20.1213 0
      vertex 9.49441 19.6667 3
      vertex 9.49441 19.6667 0
    endloop
  endfacet
  facet normal 0.634393 0.77301 -0
    outer loop
      vertex 9.12132 20.1213 0
      vertex 8.66671 20.4944 3
      vertex 9.12132 20.1213 3
    endloop
  endfacet
  facet normal 0.634393 0.77301 0
    outer loop
      vertex 8.66671 20.4944 3
      vertex 9.12132 20.1213 0
      vertex 8.66671 20.4944 0
    endloop
  endfacet
  facet normal 0.881922 0.471395 0
    outer loop
      vertex 9.77164 19.148 3
      vertex 9.49441 19.6667 0
      vertex 9.49441 19.6667 3
    endloop
  endfacet
  facet normal 0.881922 0.471395 0
    outer loop
      vertex 9.49441 19.6667 0
      vertex 9.77164 19.148 3
      vertex 9.77164 19.148 0
    endloop
  endfacet
  facet normal -0.0980167 0.995185 0
    outer loop
      vertex -7 21 0
      vertex -7.58527 20.9424 3
      vertex -7 21 3
    endloop
  endfacet
  facet normal -0.0980167 0.995185 0
    outer loop
      vertex -7.58527 20.9424 3
      vertex -7 21 0
      vertex -7.58527 20.9424 0
    endloop
  endfacet
  facet normal -0.77301 0.634394 0
    outer loop
      vertex -9.49441 19.6667 0
      vertex -9.12132 20.1213 3
      vertex -9.12132 20.1213 0
    endloop
  endfacet
  facet normal -0.77301 0.634394 0
    outer loop
      vertex -9.12132 20.1213 3
      vertex -9.49441 19.6667 0
      vertex -9.49441 19.6667 3
    endloop
  endfacet
  facet normal 0.95694 -0.290285 0
    outer loop
      vertex 9.77164 -8.14805 3
      vertex 9.94236 -7.58527 0
      vertex 9.94236 -7.58527 3
    endloop
  endfacet
  facet normal 0.95694 -0.290285 0
    outer loop
      vertex 9.94236 -7.58527 0
      vertex 9.77164 -8.14805 3
      vertex 9.77164 -8.14805 0
    endloop
  endfacet
  facet normal 0.290285 -0.95694 0
    outer loop
      vertex 7.58527 -9.94236 0
      vertex 8.14805 -9.77164 3
      vertex 7.58527 -9.94236 3
    endloop
  endfacet
  facet normal 0.290285 -0.95694 0
    outer loop
      vertex 8.14805 -9.77164 3
      vertex 7.58527 -9.94236 0
      vertex 8.14805 -9.77164 0
    endloop
  endfacet
  facet normal 0.471396 0.881922 -0
    outer loop
      vertex 8.66671 20.4944 0
      vertex 8.14805 20.7716 3
      vertex 8.66671 20.4944 3
    endloop
  endfacet
  facet normal 0.471396 0.881922 0
    outer loop
      vertex 8.14805 20.7716 3
      vertex 8.66671 20.4944 0
      vertex 8.14805 20.7716 0
    endloop
  endfacet
  facet normal -0.471396 0.881922 0
    outer loop
      vertex -8.14805 20.7716 0
      vertex -8.66671 20.4944 3
      vertex -8.14805 20.7716 3
    endloop
  endfacet
  facet normal -0.471396 0.881922 0
    outer loop
      vertex -8.66671 20.4944 3
      vertex -8.14805 20.7716 0
      vertex -8.66671 20.4944 0
    endloop
  endfacet
  facet normal -0.634393 0.77301 0
    outer loop
      vertex -8.66671 20.4944 0
      vertex -9.12132 20.1213 3
      vertex -8.66671 20.4944 3
    endloop
  endfacet
  facet normal -0.634393 0.77301 0
    outer loop
      vertex -9.12132 20.1213 3
      vertex -8.66671 20.4944 0
      vertex -9.12132 20.1213 0
    endloop
  endfacet
  facet normal 0.471396 -0.881922 0
    outer loop
      vertex 8.14805 -9.77164 0
      vertex 8.66671 -9.49441 3
      vertex 8.14805 -9.77164 3
    endloop
  endfacet
  facet normal 0.471396 -0.881922 0
    outer loop
      vertex 8.66671 -9.49441 3
      vertex 8.14805 -9.77164 0
      vertex 8.66671 -9.49441 0
    endloop
  endfacet
  facet normal -0.290288 0.956939 0
    outer loop
      vertex -7.58527 20.9424 0
      vertex -8.14805 20.7716 3
      vertex -7.58527 20.9424 3
    endloop
  endfacet
  facet normal -0.290288 0.956939 0
    outer loop
      vertex -8.14805 20.7716 3
      vertex -7.58527 20.9424 0
      vertex -8.14805 20.7716 0
    endloop
  endfacet
  facet normal -0.980785 -0.19509 0
    outer loop
      vertex 2.15 0 0
      vertex 1.98634 0.822769 3
      vertex 1.98634 0.822769 0
    endloop
  endfacet
  facet normal -0.980785 -0.19509 0
    outer loop
      vertex 1.98634 0.822769 3
      vertex 2.15 0 0
      vertex 2.15 0 3
    endloop
  endfacet
  facet normal 0.980785 -0.19509 0
    outer loop
      vertex -2.15 0 3
      vertex -1.98634 0.822769 0
      vertex -1.98634 0.822769 3
    endloop
  endfacet
  facet normal 0.980785 -0.19509 0
    outer loop
      vertex -1.98634 0.822769 0
      vertex -2.15 0 3
      vertex -2.15 0 0
    endloop
  endfacet
  facet normal -0.19509 -0.980785 0
    outer loop
      vertex 0 2.15 0
      vertex 0.822769 1.98634 3
      vertex 0 2.15 3
    endloop
  endfacet
  facet normal -0.19509 -0.980785 -0
    outer loop
      vertex 0.822769 1.98634 3
      vertex 0 2.15 0
      vertex 0.822769 1.98634 0
    endloop
  endfacet
  facet normal -0.555571 -0.831469 0
    outer loop
      vertex 0.822769 1.98634 0
      vertex 1.52028 1.52028 3
      vertex 0.822769 1.98634 3
    endloop
  endfacet
  facet normal -0.555571 -0.831469 -0
    outer loop
      vertex 1.52028 1.52028 3
      vertex 0.822769 1.98634 0
      vertex 1.52028 1.52028 0
    endloop
  endfacet
  facet normal -0.831469 -0.555571 0
    outer loop
      vertex 1.98634 0.822769 0
      vertex 1.52028 1.52028 3
      vertex 1.52028 1.52028 0
    endloop
  endfacet
  facet normal -0.831469 -0.555571 0
    outer loop
      vertex 1.52028 1.52028 3
      vertex 1.98634 0.822769 0
      vertex 1.98634 0.822769 3
    endloop
  endfacet
  facet normal 0.555571 -0.831469 0
    outer loop
      vertex -1.52028 1.52028 0
      vertex -0.822769 1.98634 3
      vertex -1.52028 1.52028 3
    endloop
  endfacet
  facet normal 0.555571 -0.831469 0
    outer loop
      vertex -0.822769 1.98634 3
      vertex -1.52028 1.52028 0
      vertex -0.822769 1.98634 0
    endloop
  endfacet
  facet normal 0.831469 -0.555571 0
    outer loop
      vertex -1.98634 0.822769 3
      vertex -1.52028 1.52028 0
      vertex -1.52028 1.52028 3
    endloop
  endfacet
  facet normal 0.831469 -0.555571 0
    outer loop
      vertex -1.52028 1.52028 0
      vertex -1.98634 0.822769 3
      vertex -1.98634 0.822769 0
    endloop
  endfacet
  facet normal 0.19509 -0.980785 0
    outer loop
      vertex -0.822769 1.98634 0
      vertex 0 2.15 3
      vertex -0.822769 1.98634 3
    endloop
  endfacet
  facet normal 0.19509 -0.980785 0
    outer loop
      vertex 0 2.15 3
      vertex -0.822769 1.98634 0
      vertex 0 2.15 0
    endloop
  endfacet
  facet normal -0.980785 0.19509 0
    outer loop
      vertex 1.98634 -0.822769 0
      vertex 2.15 0 3
      vertex 2.15 0 0
    endloop
  endfacet
  facet normal -0.980785 0.19509 0
    outer loop
      vertex 2.15 0 3
      vertex 1.98634 -0.822769 0
      vertex 1.98634 -0.822769 3
    endloop
  endfacet
  facet normal 0.555571 0.831469 -0
    outer loop
      vertex -0.822769 -1.98634 0
      vertex -1.52028 -1.52028 3
      vertex -0.822769 -1.98634 3
    endloop
  endfacet
  facet normal 0.555571 0.831469 0
    outer loop
      vertex -1.52028 -1.52028 3
      vertex -0.822769 -1.98634 0
      vertex -1.52028 -1.52028 0
    endloop
  endfacet
  facet normal 0.980785 0.19509 0
    outer loop
      vertex -1.98634 -0.822769 3
      vertex -2.15 0 0
      vertex -2.15 0 3
    endloop
  endfacet
  facet normal 0.980785 0.19509 0
    outer loop
      vertex -2.15 0 0
      vertex -1.98634 -0.822769 3
      vertex -1.98634 -0.822769 0
    endloop
  endfacet
  facet normal -0.19509 0.980785 0
    outer loop
      vertex 0.822769 -1.98634 0
      vertex 0 -2.15 3
      vertex 0.822769 -1.98634 3
    endloop
  endfacet
  facet normal -0.19509 0.980785 0
    outer loop
      vertex 0 -2.15 3
      vertex 0.822769 -1.98634 0
      vertex 0 -2.15 0
    endloop
  endfacet
  facet normal 0.19509 0.980785 -0
    outer loop
      vertex 0 -2.15 0
      vertex -0.822769 -1.98634 3
      vertex 0 -2.15 3
    endloop
  endfacet
  facet normal 0.19509 0.980785 0
    outer loop
      vertex -0.822769 -1.98634 3
      vertex 0 -2.15 0
      vertex -0.822769 -1.98634 0
    endloop
  endfacet
  facet normal 0.831469 0.555571 0
    outer loop
      vertex -1.52028 -1.52028 3
      vertex -1.98634 -0.822769 0
      vertex -1.98634 -0.822769 3
    endloop
  endfacet
  facet normal 0.831469 0.555571 0
    outer loop
      vertex -1.98634 -0.822769 0
      vertex -1.52028 -1.52028 3
      vertex -1.52028 -1.52028 0
    endloop
  endfacet
  facet normal -0.555571 0.831469 0
    outer loop
      vertex 1.52028 -1.52028 0
      vertex 0.822769 -1.98634 3
      vertex 1.52028 -1.52028 3
    endloop
  endfacet
  facet normal -0.555571 0.831469 0
    outer loop
      vertex 0.822769 -1.98634 3
      vertex 1.52028 -1.52028 0
      vertex 0.822769 -1.98634 0
    endloop
  endfacet
  facet normal -0.831469 0.555571 0
    outer loop
      vertex 1.52028 -1.52028 0
      vertex 1.98634 -0.822769 3
      vertex 1.98634 -0.822769 0
    endloop
  endfacet
  facet normal -0.831469 0.555571 0
    outer loop
      vertex 1.98634 -0.822769 3
      vertex 1.52028 -1.52028 0
      vertex 1.52028 -1.52028 3
    endloop
  endfacet
  facet normal -0.980785 -0.19509 0
    outer loop
      vertex 2.15 15 0
      vertex 1.98634 15.8228 3
      vertex 1.98634 15.8228 0
    endloop
  endfacet
  facet normal -0.980785 -0.19509 0
    outer loop
      vertex 1.98634 15.8228 3
      vertex 2.15 15 0
      vertex 2.15 15 3
    endloop
  endfacet
  facet normal 0.195092 -0.980785 0
    outer loop
      vertex -0.822769 16.9863 0
      vertex 0 17.15 3
      vertex -0.822769 16.9863 3
    endloop
  endfacet
  facet normal 0.195092 -0.980785 0
    outer loop
      vertex 0 17.15 3
      vertex -0.822769 16.9863 0
      vertex 0 17.15 0
    endloop
  endfacet
  facet normal -0.555571 0.831469 0
    outer loop
      vertex 1.52028 13.4797 0
      vertex 0.822769 13.0137 3
      vertex 1.52028 13.4797 3
    endloop
  endfacet
  facet normal -0.555571 0.831469 0
    outer loop
      vertex 0.822769 13.0137 3
      vertex 1.52028 13.4797 0
      vertex 0.822769 13.0137 0
    endloop
  endfacet
  facet normal -0.55557 -0.83147 0
    outer loop
      vertex 0.822769 16.9863 0
      vertex 1.52028 16.5203 3
      vertex 0.822769 16.9863 3
    endloop
  endfacet
  facet normal -0.55557 -0.83147 -0
    outer loop
      vertex 1.52028 16.5203 3
      vertex 0.822769 16.9863 0
      vertex 1.52028 16.5203 0
    endloop
  endfacet
  facet normal -0.831469 -0.555571 0
    outer loop
      vertex 1.98634 15.8228 0
      vertex 1.52028 16.5203 3
      vertex 1.52028 16.5203 0
    endloop
  endfacet
  facet normal -0.831469 -0.555571 0
    outer loop
      vertex 1.52028 16.5203 3
      vertex 1.98634 15.8228 0
      vertex 1.98634 15.8228 3
    endloop
  endfacet
  facet normal -0.195092 -0.980785 0
    outer loop
      vertex 0 17.15 0
      vertex 0.822769 16.9863 3
      vertex 0 17.15 3
    endloop
  endfacet
  facet normal -0.195092 -0.980785 -0
    outer loop
      vertex 0.822769 16.9863 3
      vertex 0 17.15 0
      vertex 0.822769 16.9863 0
    endloop
  endfacet
  facet normal 0.831469 -0.555571 0
    outer loop
      vertex -1.98634 15.8228 3
      vertex -1.52028 16.5203 0
      vertex -1.52028 16.5203 3
    endloop
  endfacet
  facet normal 0.831469 -0.555571 0
    outer loop
      vertex -1.52028 16.5203 0
      vertex -1.98634 15.8228 3
      vertex -1.98634 15.8228 0
    endloop
  endfacet
  facet normal 0.980785 -0.19509 0
    outer loop
      vertex -2.15 15 3
      vertex -1.98634 15.8228 0
      vertex -1.98634 15.8228 3
    endloop
  endfacet
  facet normal 0.980785 -0.19509 0
    outer loop
      vertex -1.98634 15.8228 0
      vertex -2.15 15 3
      vertex -2.15 15 0
    endloop
  endfacet
  facet normal 0.55557 -0.83147 0
    outer loop
      vertex -1.52028 16.5203 0
      vertex -0.822769 16.9863 3
      vertex -1.52028 16.5203 3
    endloop
  endfacet
  facet normal 0.55557 -0.83147 0
    outer loop
      vertex -0.822769 16.9863 3
      vertex -1.52028 16.5203 0
      vertex -0.822769 16.9863 0
    endloop
  endfacet
  facet normal 0.19509 0.980785 -0
    outer loop
      vertex 0 12.85 0
      vertex -0.822769 13.0137 3
      vertex 0 12.85 3
    endloop
  endfacet
  facet normal 0.19509 0.980785 0
    outer loop
      vertex -0.822769 13.0137 3
      vertex 0 12.85 0
      vertex -0.822769 13.0137 0
    endloop
  endfacet
  facet normal 0.831469 0.555571 0
    outer loop
      vertex -1.52028 13.4797 3
      vertex -1.98634 14.1772 0
      vertex -1.98634 14.1772 3
    endloop
  endfacet
  facet normal 0.831469 0.555571 0
    outer loop
      vertex -1.98634 14.1772 0
      vertex -1.52028 13.4797 3
      vertex -1.52028 13.4797 0
    endloop
  endfacet
  facet normal 0.980785 0.19509 0
    outer loop
      vertex -1.98634 14.1772 3
      vertex -2.15 15 0
      vertex -2.15 15 3
    endloop
  endfacet
  facet normal 0.980785 0.19509 0
    outer loop
      vertex -2.15 15 0
      vertex -1.98634 14.1772 3
      vertex -1.98634 14.1772 0
    endloop
  endfacet
  facet normal -0.831469 0.555571 0
    outer loop
      vertex 1.52028 13.4797 0
      vertex 1.98634 14.1772 3
      vertex 1.98634 14.1772 0
    endloop
  endfacet
  facet normal -0.831469 0.555571 0
    outer loop
      vertex 1.98634 14.1772 3
      vertex 1.52028 13.4797 0
      vertex 1.52028 13.4797 3
    endloop
  endfacet
  facet normal -0.980785 0.19509 0
    outer loop
      vertex 1.98634 14.1772 0
      vertex 2.15 15 3
      vertex 2.15 15 0
    endloop
  endfacet
  facet normal -0.980785 0.19509 0
    outer loop
      vertex 2.15 15 3
      vertex 1.98634 14.1772 0
      vertex 1.98634 14.1772 3
    endloop
  endfacet
  facet normal -0.19509 0.980785 0
    outer loop
      vertex 0.822769 13.0137 0
      vertex 0 12.85 3
      vertex 0.822769 13.0137 3
    endloop
  endfacet
  facet normal -0.19509 0.980785 0
    outer loop
      vertex 0 12.85 3
      vertex 0.822769 13.0137 0
      vertex 0 12.85 0
    endloop
  endfacet
  facet normal 0.555571 0.831469 -0
    outer loop
      vertex -0.822769 13.0137 0
      vertex -1.52028 13.4797 3
      vertex -0.822769 13.0137 3
    endloop
  endfacet
  facet normal 0.555571 0.831469 0
    outer loop
      vertex -1.52028 13.4797 3
      vertex -0.822769 13.0137 0
      vertex -1.52028 13.4797 0
    endloop
  endfacet
endsolid OpenSCAD_Model
