  0
SECTION
  2
HEADER
  9
$ACADVER
  1
AC1014
  9
$HANDSEED
  5
FFFF
  9
$MEASUREMENT
 70
     1
  0
ENDSEC
  0
SECTION
  2
TABLES
  0
TABLE
  2
VPORT
  5
8
330
0
100
AcDbSymbolTable
 70
     4
  0
VPORT
  5
2E
330
8
100
AcDbSymbolTableRecord
100
AcDbViewportTableRecord
  2
*ACTIVE
 70
     0
 10
0.0
 20
0.0
 11
1.0
 21
1.0
 12
210.0
 22
148.5
 13
0.0
 23
0.0
 14
10.0
 24
10.0
 15
10.0
 25
10.0
 16
0.0
 26
0.0
 36
1.0
 17
0.0
 27
0.0
 37
0.0
 40
341.0
 41
1.24
 42
50.0
 43
0.0
 44
0.0
 50
0.0
 51
0.0
 71
     0
 72
   100
 73
     1
 74
     3
 75
     0
 76
     0
 77
     0
 78
     0
  0
ENDTAB
  0
TABLE
  2
LTYPE
  5
5
330
0
100
AcDbSymbolTable
 70
     1
  0
LTYPE
  5
14
330
5
100
AcDbSymbolTableRecord
100
AcDbLinetypeTableRecord
  2
BYBLOCK
 70
     0
  3

 72
    65
 73
     0
 40
0.0
  0
LTYPE
  5
15
330
5
100
AcDbSymbolTableRecord
100
AcDbLinetypeTableRecord
  2
BYLAYER
 70
     0
  3

 72
    65
 73
     0
 40
0.0
  0
LTYPE
  5
16
330
5
100
AcDbSymbolTableRecord
100
AcDbLinetypeTableRecord
  2
CONTINUOUS
 70
     0
  3
Solid line
 72
    65
 73
     0
 40
0.0
  0
ENDTAB
  0
TABLE
  2
LAYER
  5
2
100
AcDbSymbolTable
 70
3
  0
LAYER
  5
50
100
AcDbSymbolTableRecord
100
AcDbLayerTableRecord
  2
0
 70
0
  6
CONTINUOUS
  0
LAYER
  5
51
100
AcDbSymbolTableRecord
100
AcDbLayerTableRecord
  2
slot
 70
0
  6
CONTINUOUS
  0
LAYER
  5
52
100
AcDbSymbolTableRecord
100
AcDbLayerTableRecord
  2
umriss
 70
0
  6
CONTINUOUS
  0
ENDTAB
  0
TABLE
  2
STYLE
  5
3
330
0
100
AcDbSymbolTable
 70
     1
  0
STYLE
  5
11
330
3
100
AcDbSymbolTableRecord
100
AcDbTextStyleTableRecord
  2
STANDARD
 70
     0
 40
0.0
 41
1.0
 50
0.0
 71
     0
 42
2.5
  3
txt
  4

  0
ENDTAB
  0
TABLE
  2
VIEW
  5
6
330
0
100
AcDbSymbolTable
 70
     0
  0
ENDTAB
  0
TABLE
  2
UCS
  5
7
330
0
100
AcDbSymbolTable
 70
     0
  0
ENDTAB
  0
TABLE
  2
APPID
  5
9
330
0
100
AcDbSymbolTable
 70
     2
  0
APPID
  5
12
330
9
100
AcDbSymbolTableRecord
100
AcDbRegAppTableRecord
  2
ACAD
 70
     0
  0
ENDTAB
  0
TABLE
  2
DIMSTYLE
  5
A
330
0
100
AcDbSymbolTable
 70
     1
  0
DIMSTYLE
105
27
330
A
100
AcDbSymbolTableRecord
100
AcDbDimStyleTableRecord
  2
ISO-25
 70
     0
  3

  4

  5

  6

  7

 40
1.0
 41
2.5
 42
0.625
 43
3.75
 44
1.25
 45
0.0
 46
0.0
 47
0.0
 48
0.0
140
2.5
141
2.5
142
0.0
143
0.03937007874016
144
1.0
145
0.0
146
1.0
147
0.625
 71
     0
 72
     0
 73
     0
 74
     0
 75
     0
 76
     0
 77
     1
 78
     8
170
     0
171
     3
172
     1
173
     0
174
     0
175
     0
176
     0
177
     0
178
     0
270
     2
271
     2
272
     2
273
     2
274
     3
340
11
275
     0
280
     0
281
     0
282
     0
283
     0
284
     8
285
     0
286
     0
287
     3
288
     0
  0
ENDTAB
  0
TABLE
  2
BLOCK_RECORD
  5
1
330
0
100
AcDbSymbolTable
 70
     1
  0
BLOCK_RECORD
  5
1F
330
1
100
AcDbSymbolTableRecord
100
AcDbBlockTableRecord
  2
*MODEL_SPACE
  0
BLOCK_RECORD
  5
1B
330
1
100
AcDbSymbolTableRecord
100
AcDbBlockTableRecord
  2
*PAPER_SPACE
  0
ENDTAB
  0
ENDSEC
  0
SECTION
  2
BLOCKS
  0
BLOCK
  5
20
330
1F
100
AcDbEntity
  8
0
100
AcDbBlockBegin
  2
*MODEL_SPACE
 70
     0
 10
0.0
 20
0.0
 30
0.0
  3
*MODEL_SPACE
  1

  0
ENDBLK
  5
21
330
1F
100
AcDbEntity
  8
0
100
AcDbBlockEnd
  0
BLOCK
  5
1C
330
1B
100
AcDbEntity
 67
     1
  8
0
100
AcDbBlockBegin
  2
*PAPER_SPACE
  1

  0
ENDBLK
  5
1D
330
1B
100
AcDbEntity
 67
     1
  8
0
100
AcDbBlockEnd
  0
ENDSEC
  0
SECTION
  2
ENTITIES
  0
SPLINE
  5
100
100
AcDbEntity
  8
umriss
 62
5
100
AcDbSpline
 70
8
 71
3
 72
8
 73
4
 74
0
 40
0
 40
0
 40
0
 40
0
 40
1
 40
1
 40
1
 40
1
 10
223.071462
 20
469.691870
 30
0.0
 10
230.287135
 20
478.512298
 30
0.0
 10
235.469713
 20
488.785484
 30
0.0
 10
238.256671
 20
499.793029
 30
0.0
  0
SPLINE
  5
101
100
AcDbEntity
  8
umriss
 62
5
100
AcDbSpline
 70
8
 71
3
 72
8
 73
4
 74
0
 40
0
 40
0
 40
0
 40
0
 40
1
 40
1
 40
1
 40
1
 10
238.256671
 20
499.793029
 30
0.0
 10
239.175010
 20
503.417924
 30
0.0
 10
240.267520
 20
506.997429
 30
0.0
 10
241.530658
 20
510.519208
 30
0.0
  0
SPLINE
  5
102
100
AcDbEntity
  8
umriss
 62
5
100
AcDbSpline
 70
8
 71
3
 72
8
 73
4
 74
0
 40
0
 40
0
 40
0
 40
0
 40
1
 40
1
 40
1
 40
1
 10
241.530658
 20
510.519208
 30
0.0
 10
242.377117
 20
512.863000
 30
0.0
 10
243.541333
 20
515.082278
 30
0.0
 10
244.992024
 20
517.115838
 30
0.0
  0
SPLINE
  5
103
100
AcDbEntity
  8
umriss
 62
5
100
AcDbSpline
 70
8
 71
3
 72
8
 73
4
 74
0
 40
0
 40
0
 40
0
 40
0
 40
1
 40
1
 40
1
 40
1
 10
244.992024
 20
517.115838
 30
0.0
 10
251.329711
 20
525.665630
 30
0.0
 10
264.697707
 20
527.050382
 30
0.0
 10
273.200743
 20
518.728216
 30
0.0
  0
SPLINE
  5
104
100
AcDbEntity
  8
umriss
 62
5
100
AcDbSpline
 70
8
 71
3
 72
8
 73
4
 74
0
 40
0
 40
0
 40
0
 40
0
 40
1
 40
1
 40
1
 40
1
 10
273.200743
 20
518.728216
 30
0.0
 10
274.861649
 20
516.900204
 30
0.0
 10
276.305736
 20
514.890300
 30
0.0
 10
277.505093
 20
512.737798
 30
0.0
  0
SPLINE
  5
105
100
AcDbEntity
  8
umriss
 62
5
100
AcDbSpline
 70
8
 71
3
 72
8
 73
4
 74
0
 40
0
 40
0
 40
0
 40
0
 40
1
 40
1
 40
1
 40
1
 10
277.505093
 20
512.737798
 30
0.0
 10
280.449470
 20
507.459653
 30
0.0
 10
282.390942
 20
501.692166
 30
0.0
 10
283.233161
 20
495.721206
 30
0.0
  0
SPLINE
  5
106
100
AcDbEntity
  8
umriss
 62
5
100
AcDbSpline
 70
8
 71
3
 72
8
 73
4
 74
0
 40
0
 40
0
 40
0
 40
0
 40
1
 40
1
 40
1
 40
1
 10
283.233161
 20
495.721206
 30
0.0
 10
285.466704
 20
479.888878
 30
0.0
 10
284.257894
 20
463.766829
 30
0.0
 10
279.687750
 20
448.433934
 30
0.0
  0
SPLINE
  5
107
100
AcDbEntity
  8
umriss
 62
5
100
AcDbSpline
 70
8
 71
3
 72
8
 73
4
 74
0
 40
0
 40
0
 40
0
 40
0
 40
1
 40
1
 40
1
 40
1
 10
268.820030
 20
419.608310
 30
0.0
 10
266.760137
 20
414.791692
 30
0.0
 10
264.888215
 20
409.898209
 30
0.0
 10
263.208644
 20
404.938996
 30
0.0
  0
SPLINE
  5
108
100
AcDbEntity
  8
umriss
 62
5
100
AcDbSpline
 70
8
 71
3
 72
8
 73
4
 74
0
 40
0
 40
0
 40
0
 40
0
 40
1
 40
1
 40
1
 40
1
 10
264.373242
 20
150.054802
 30
0.0
 10
289.980992
 20
166.527409
 30
0.0
 10
306.011443
 20
194.186606
 30
0.0
 10
307.446458
 20
224.373432
 30
0.0
  0
SPLINE
  5
109
100
AcDbEntity
  8
umriss
 62
5
100
AcDbSpline
 70
8
 71
3
 72
8
 73
4
 74
0
 40
0
 40
0
 40
0
 40
0
 40
1
 40
1
 40
1
 40
1
 10
263.209721
 20
404.938996
 30
0.0
 10
260.632700
 20
396.786675
 30
0.0
 10
259.543665
 20
388.245516
 30
0.0
 10
259.993989
 20
379.715147
 30
0.0
  0
SPLINE
  5
10a
100
AcDbEntity
  8
umriss
 62
5
100
AcDbSpline
 70
8
 71
3
 72
8
 73
4
 74
0
 40
0
 40
0
 40
0
 40
0
 40
1
 40
1
 40
1
 40
1
 10
259.993989
 20
379.715495
 30
0.0
 10
261.055982
 20
369.399535
 30
0.0
 10
263.837136
 20
359.329120
 30
0.0
 10
268.224557
 20
349.912226
 30
0.0
  0
SPLINE
  5
10b
100
AcDbEntity
  8
umriss
 62
5
100
AcDbSpline
 70
8
 71
3
 72
8
 73
4
 74
0
 40
0
 40
0
 40
0
 40
0
 40
1
 40
1
 40
1
 40
1
 10
268.224557
 20
349.912226
 30
0.0
 10
270.616631
 20
344.159340
 30
0.0
 10
273.188786
 20
338.481577
 30
0.0
 10
275.937268
 20
332.886596
 30
0.0
  0
SPLINE
  5
10c
100
AcDbEntity
  8
umriss
 62
5
100
AcDbSpline
 70
8
 71
3
 72
8
 73
4
 74
0
 40
0
 40
0
 40
0
 40
0
 40
1
 40
1
 40
1
 40
1
 10
298.466370
 20
281.176394
 30
0.0
 10
292.369903
 20
298.982818
 30
0.0
 10
284.836057
 20
316.275197
 30
0.0
 10
275.937268
 20
332.886596
 30
0.0
  0
SPLINE
  5
10d
100
AcDbEntity
  8
umriss
 62
5
100
AcDbSpline
 70
8
 71
3
 72
8
 73
4
 74
0
 40
0
 40
0
 40
0
 40
0
 40
1
 40
1
 40
1
 40
1
 10
305.930562
 20
250.752355
 30
0.0
 10
304.519947
 20
261.123215
 30
0.0
 10
302.018177
 20
271.319878
 30
0.0
 10
298.466370
 20
281.176394
 30
0.0
  0
SPLINE
  5
10e
100
AcDbEntity
  8
umriss
 62
5
100
AcDbSpline
 70
8
 71
3
 72
8
 73
4
 74
0
 40
0
 40
0
 40
0
 40
0
 40
1
 40
1
 40
1
 40
1
 10
307.446458
 20
224.373432
 30
0.0
 10
307.796471
 20
233.194224
 30
0.0
 10
307.288901
 20
242.027842
 30
0.0
 10
305.930562
 20
250.752355
 30
0.0
  0
SPLINE
  5
10f
100
AcDbEntity
  8
umriss
 62
5
100
AcDbSpline
 70
8
 71
3
 72
8
 73
4
 74
0
 40
0
 40
0
 40
0
 40
0
 40
1
 40
1
 40
1
 40
1
 10
234.684740
 20
138.014872
 30
0.0
 10
240.325914
 20
139.403207
 30
0.0
 10
245.863787
 20
141.174539
 30
0.0
 10
251.259014
 20
143.316252
 30
0.0
  0
SPLINE
  5
110
100
AcDbEntity
  8
umriss
 62
5
100
AcDbSpline
 70
8
 71
3
 72
8
 73
4
 74
0
 40
0
 40
0
 40
0
 40
0
 40
1
 40
1
 40
1
 40
1
 10
189.375895
 20
132.556524
 30
0.0
 10
203.395671
 20
133.311258
 30
0.0
 10
217.357818
 20
134.889579
 30
0.0
 10
231.188442
 20
137.283044
 30
0.0
  0
SPLINE
  5
111
100
AcDbEntity
  8
umriss
 62
5
100
AcDbSpline
 70
8
 71
3
 72
8
 73
4
 74
0
 40
0
 40
0
 40
0
 40
0
 40
1
 40
1
 40
1
 40
1
 10
103.226056
 20
132.542969
 30
0.0
 10
131.934593
 20
131.580279
 30
0.0
 10
160.667740
 20
131.584763
 30
0.0
 10
189.375895
 20
132.556177
 30
0.0
  0
SPLINE
  5
112
100
AcDbEntity
  8
umriss
 62
5
100
AcDbSpline
 70
8
 71
3
 72
8
 73
4
 74
0
 40
0
 40
0
 40
0
 40
0
 40
1
 40
1
 40
1
 40
1
 10
64.038982
 20
136.772554
 30
0.0
 10
76.740947
 20
134.686420
 30
0.0
 10
89.548332
 20
133.286232
 30
0.0
 10
102.404587
 20
132.579152
 30
0.0
  0
SPLINE
  5
113
100
AcDbEntity
  8
umriss
 62
5
100
AcDbSpline
 70
8
 71
3
 72
8
 73
4
 74
0
 40
0
 40
0
 40
0
 40
0
 40
1
 40
1
 40
1
 40
1
 10
37.571843
 20
144.709940
 30
0.0
 10
41.900106
 20
142.846429
 30
0.0
 10
46.330453
 20
141.224278
 30
0.0
 10
50.842169
 20
139.850854
 30
0.0
  0
SPLINE
  5
114
100
AcDbEntity
  8
umriss
 62
5
100
AcDbSpline
 70
8
 71
3
 72
8
 73
4
 74
0
 40
0
 40
0
 40
0
 40
0
 40
1
 40
1
 40
1
 40
1
 10
-15.254304
 20
224.587471
 30
0.0
 10
-13.792247
 20
192.262373
 30
0.0
 10
4.386730
 20
162.958919
 30
0.0
 10
32.856933
 20
147.035452
 30
0.0
  0
SPLINE
  5
115
100
AcDbEntity
  8
umriss
 62
5
100
AcDbSpline
 70
8
 71
3
 72
8
 73
4
 74
0
 40
0
 40
0
 40
0
 40
0
 40
1
 40
1
 40
1
 40
1
 10
-13.728292
 20
250.752182
 30
0.0
 10
-15.076795
 20
242.098610
 30
0.0
 10
-15.587493
 20
233.337323
 30
0.0
 10
-15.253956
 20
224.587471
 30
0.0
  0
SPLINE
  5
116
100
AcDbEntity
  8
umriss
 62
5
100
AcDbSpline
 70
8
 71
3
 72
8
 73
4
 74
0
 40
0
 40
0
 40
0
 40
0
 40
1
 40
1
 40
1
 40
1
 10
-6.265457
 20
281.176255
 30
0.0
 10
-9.816533
 20
271.319736
 30
0.0
 10
-12.318025
 20
261.123076
 30
0.0
 10
-13.728292
 20
250.752216
 30
0.0
  0
SPLINE
  5
117
100
AcDbEntity
  8
umriss
 62
5
100
AcDbSpline
 70
8
 71
3
 72
8
 73
4
 74
0
 40
0
 40
0
 40
0
 40
0
 40
1
 40
1
 40
1
 40
1
 10
16.264967
 20
332.886457
 30
0.0
 10
7.365205
 20
316.275406
 30
0.0
 10
-0.169302
 20
298.983030
 30
0.0
 10
-6.265457
 20
281.176255
 30
0.0
  0
SPLINE
  5
118
100
AcDbEntity
  8
umriss
 62
5
100
AcDbSpline
 70
8
 71
3
 72
8
 73
4
 74
0
 40
0
 40
0
 40
0
 40
0
 40
1
 40
1
 40
1
 40
1
 10
16.264967
 20
332.886457
 30
0.0
 10
19.013205
 20
338.481441
 30
0.0
 10
21.584908
 20
344.159197
 30
0.0
 10
23.976669
 20
349.912083
 30
0.0
  0
SPLINE
  5
119
100
AcDbEntity
  8
umriss
 62
5
100
AcDbSpline
 70
8
 71
3
 72
8
 73
4
 74
0
 40
0
 40
0
 40
0
 40
0
 40
1
 40
1
 40
1
 40
1
 10
23.976357
 20
349.912083
 30
0.0
 10
28.364821
 20
359.328633
 30
0.0
 10
31.146044
 20
369.399393
 30
0.0
 10
32.207273
 20
379.715008
 30
0.0
  0
SPLINE
  5
11a
100
AcDbEntity
  8
umriss
 62
5
100
AcDbSpline
 70
8
 71
3
 72
8
 73
4
 74
0
 40
0
 40
0
 40
0
 40
0
 40
1
 40
1
 40
1
 40
1
 10
32.207273
 20
379.715356
 30
0.0
 10
32.847096
 20
391.761939
 30
0.0
 10
30.410602
 20
403.774088
 30
0.0
 10
25.123402
 20
414.644089
 30
0.0
  0
SPLINE
  5
11b
100
AcDbEntity
  8
umriss
 62
5
100
AcDbSpline
 70
8
 71
3
 72
8
 73
4
 74
0
 40
0
 40
0
 40
0
 40
0
 40
1
 40
1
 40
1
 40
1
 10
25.123402
 20
414.644089
 30
0.0
 10
23.171398
 20
419.699286
 30
0.0
 10
21.101287
 20
424.709280
 30
0.0
 10
18.915188
 20
429.669884
 30
0.0
  0
SPLINE
  5
11c
100
AcDbEntity
  8
umriss
 62
5
100
AcDbSpline
 70
8
 71
3
 72
8
 73
4
 74
0
 40
0
 40
0
 40
0
 40
0
 40
1
 40
1
 40
1
 40
1
 10
11.959192
 20
448.578645
 30
0.0
 10
13.956521
 20
442.164253
 30
0.0
 10
16.278418
 20
435.853507
 30
0.0
 10
18.915188
 20
429.669706
 30
0.0
  0
SPLINE
  5
11d
100
AcDbEntity
  8
umriss
 62
5
100
AcDbSpline
 70
8
 71
3
 72
8
 73
4
 74
0
 40
0
 40
0
 40
0
 40
0
 40
1
 40
1
 40
1
 40
1
 10
7.405976
 20
467.112479
 30
0.0
 10
8.526258
 20
460.845552
 30
0.0
 10
10.046986
 20
454.655147
 30
0.0
 10
11.959192
 20
448.578815
 30
0.0
  0
SPLINE
  5
11e
100
AcDbEntity
  8
umriss
 62
5
100
AcDbSpline
 70
8
 71
3
 72
8
 73
4
 74
0
 40
0
 40
0
 40
0
 40
0
 40
1
 40
1
 40
1
 40
1
 10
9.179741
 20
499.912353
 30
0.0
 10
6.504703
 20
489.187390
 30
0.0
 10
5.902835
 20
478.058641
 30
0.0
 10
7.405628
 20
467.112128
 30
0.0
  0
SPLINE
  5
11f
100
AcDbEntity
  8
umriss
 62
5
100
AcDbSpline
 70
8
 71
3
 72
8
 73
4
 74
0
 40
0
 40
0
 40
0
 40
0
 40
1
 40
1
 40
1
 40
1
 10
19.552509
 20
519.570782
 30
0.0
 10
14.554183
 20
513.934068
 30
0.0
 10
10.997059
 20
507.192056
 30
0.0
 10
9.179741
 20
499.912353
 30
0.0
  0
SPLINE
  5
120
100
AcDbEntity
  8
umriss
 62
5
100
AcDbSpline
 70
8
 71
3
 72
8
 73
4
 74
0
 40
0
 40
0
 40
0
 40
0
 40
1
 40
1
 40
1
 40
1
 10
25.750505
 20
524.579734
 30
0.0
 10
23.496176
 20
523.152383
 30
0.0
 10
21.416263
 20
521.471487
 30
0.0
 10
19.552509
 20
519.570782
 30
0.0
  0
SPLINE
  5
121
100
AcDbEntity
  8
umriss
 62
5
100
AcDbSpline
 70
8
 71
3
 72
8
 73
4
 74
0
 40
0
 40
0
 40
0
 40
0
 40
1
 40
1
 40
1
 40
1
 10
55.493889
 20
531.213931
 30
0.0
 10
45.111355
 20
532.311919
 30
0.0
 10
34.653221
 20
529.979257
 30
0.0
 10
25.750887
 20
524.579734
 30
0.0
  0
SPLINE
  5
122
100
AcDbEntity
  8
umriss
 62
5
100
AcDbSpline
 70
8
 71
3
 72
8
 73
4
 74
0
 40
0
 40
0
 40
0
 40
0
 40
1
 40
1
 40
1
 40
1
 10
76.748698
 20
526.580945
 30
0.0
 10
69.902433
 20
529.049945
 30
0.0
 10
62.754921
 20
530.607715
 30
0.0
 10
55.493889
 20
531.213931
 30
0.0
  0
SPLINE
  5
123
100
AcDbEntity
  8
umriss
 62
5
100
AcDbSpline
 70
8
 71
3
 72
8
 73
4
 74
0
 40
0
 40
0
 40
0
 40
0
 40
1
 40
1
 40
1
 40
1
 10
76.749045
 20
526.581293
 30
0.0
 10
96.809850
 20
519.206231
 30
0.0
 10
101.753050
 20
502.445040
 30
0.0
 10
117.677212
 20
502.291674
 30
0.0
  0
LINE
  5
124
100
AcDbEntity
  8
umriss
 62
5
100
AcDbLine
 10
117.677212
 20
502.291674
 30
0.0
 11
149.595851
 21
502.291674
 31
0.0
  0
LINE
  5
125
100
AcDbEntity
  8
umriss
 62
5
100
AcDbLine
 10
149.595851
 20
502.291674
 30
0.0
 11
166.495841
 21
502.291674
 31
0.0
  0
SPLINE
  5
126
100
AcDbEntity
  8
umriss
 62
5
100
AcDbSpline
 70
8
 71
3
 72
8
 73
4
 74
0
 40
0
 40
0
 40
0
 40
0
 40
1
 40
1
 40
1
 40
1
 10
166.495841
 20
502.291674
 30
0.0
 10
166.495841
 20
472.220970
 30
0.0
 10
188.325928
 20
458.173172
 30
0.0
 10
199.878344
 20
458.050943
 30
0.0
  0
SPLINE
  5
127
100
AcDbEntity
  8
umriss
 62
5
100
AcDbSpline
 70
8
 71
3
 72
8
 73
4
 74
0
 40
0
 40
0
 40
0
 40
0
 40
1
 40
1
 40
1
 40
1
 10
199.878344
 20
458.050943
 30
0.0
 10
202.925049
 20
458.012205
 30
0.0
 10
205.330053
 20
458.529729
 30
0.0
 10
207.669086
 20
459.269833
 30
0.0
  0
SPLINE
  5
128
100
AcDbEntity
  8
umriss
 62
5
100
AcDbSpline
 70
8
 71
3
 72
8
 73
4
 74
0
 40
0
 40
0
 40
0
 40
0
 40
1
 40
1
 40
1
 40
1
 10
207.669086
 20
459.269694
 30
0.0
 10
213.720577
 20
461.183270
 30
0.0
 10
219.074303
 20
464.805899
 30
0.0
 10
223.071497
 20
469.691731
 30
0.0
  0
SPLINE
  5
129
100
AcDbEntity
  8
umriss
 62
5
100
AcDbSpline
 70
8
 71
3
 72
8
 73
4
 74
0
 40
0
 40
0
 40
0
 40
0
 40
1
 40
1
 40
1
 40
1
 10
275.902127
 20
437.210779
 30
0.0
 10
277.298422
 20
440.906104
 30
0.0
 10
278.561038
 20
444.649420
 30
0.0
 10
279.687715
 20
448.433791
 30
0.0
  0
SPLINE
  5
12a
100
AcDbEntity
  8
umriss
 62
5
100
AcDbSpline
 70
8
 71
3
 72
8
 73
4
 74
0
 40
0
 40
0
 40
0
 40
0
 40
1
 40
1
 40
1
 40
1
 10
268.820064
 20
419.607817
 30
0.0
 10
271.308105
 20
425.424344
 30
0.0
 10
273.669627
 20
431.293391
 30
0.0
 10
275.902127
 20
437.210779
 30
0.0
  0
SPLINE
  5
12b
100
AcDbEntity
  8
umriss
 62
5
100
AcDbSpline
 70
8
 71
3
 72
8
 73
4
 74
0
 40
0
 40
0
 40
0
 40
0
 40
1
 40
1
 40
1
 40
1
 10
251.257971
 20
143.316113
 30
0.0
 10
255.840384
 20
145.135168
 30
0.0
 10
260.232706
 20
147.391964
 30
0.0
 10
264.372199
 20
150.054663
 30
0.0
  0
SPLINE
  5
12c
100
AcDbEntity
  8
umriss
 62
5
100
AcDbSpline
 70
8
 71
3
 72
8
 73
4
 74
0
 40
0
 40
0
 40
0
 40
0
 40
1
 40
1
 40
1
 40
1
 10
102.403545
 20
132.579499
 30
0.0
 10
102.677367
 20
132.564206
 30
0.0
 10
102.951190
 20
132.552388
 30
0.0
 10
103.225013
 20
132.542969
 30
0.0
  0
SPLINE
  5
12d
100
AcDbEntity
  8
umriss
 62
5
100
AcDbSpline
 70
8
 71
3
 72
8
 73
4
 74
0
 40
0
 40
0
 40
0
 40
0
 40
1
 40
1
 40
1
 40
1
 10
231.187399
 20
137.283044
 30
0.0
 10
232.361104
 20
137.486239
 30
0.0
 10
233.527475
 20
137.730378
 30
0.0
 10
234.683697
 20
138.014872
 30
0.0
  0
SPLINE
  5
12e
100
AcDbEntity
  8
umriss
 62
5
100
AcDbSpline
 70
8
 71
3
 72
8
 73
4
 74
0
 40
0
 40
0
 40
0
 40
0
 40
1
 40
1
 40
1
 40
1
 10
50.841126
 20
139.851236
 30
0.0
 10
55.165601
 20
138.534433
 30
0.0
 10
59.574433
 20
137.506051
 30
0.0
 10
64.037939
 20
136.772902
 30
0.0
  0
SPLINE
  5
12f
100
AcDbEntity
  8
umriss
 62
5
100
AcDbSpline
 70
8
 71
3
 72
8
 73
4
 74
0
 40
0
 40
0
 40
0
 40
0
 40
1
 40
1
 40
1
 40
1
 10
32.855890
 20
147.035591
 30
0.0
 10
34.385690
 20
146.180060
 30
0.0
 10
35.959458
 20
145.404125
 30
0.0
 10
37.570800
 20
144.710287
 30
0.0
  0
ENDSEC
  0
SECTION
  2
OBJECTS
  0
DICTIONARY
  5
C
330
0
100
AcDbDictionary
  3
ACAD_GROUP
350
D
  3
ACAD_MLINESTYLE
350
17
  0
DICTIONARY
  5
D
330
C
100
AcDbDictionary
  0
DICTIONARY
  5
1A
330
C
100
AcDbDictionary
  0
DICTIONARY
  5
17
330
C
100
AcDbDictionary
  3
STANDARD
350
18
  0
DICTIONARY
  5
19
330
C
100
AcDbDictionary
  0
ENDSEC
  0
EOF
