<?xml version="1.0" standalone="no"?>
<!DOCTYPE svg PUBLIC "-//W3C//DTD SVG 1.1//EN" "http://www.w3.org/Graphics/SVG/1.1/DTD/svg11.dtd">
<svg width="322" height="397" viewBox="-161 -83 322 397" xmlns="http://www.w3.org/2000/svg" version="1.1">
<title>OpenSCAD Model</title>
<path d="
M 10.5423,313.083 L 20.8811,312.951 L 31.2187,312.731 L 41.5551,312.425 L 51.6375,311.733 L 61.6927,310.746
 L 71.7142,309.464 L 81.695,307.887 L 85.0512,307.185 L 89.0937,306.117 L 93.0954,304.911 L 97.0529,303.571
 L 100.963,302.095 L 104.226,300.708 L 107.416,299.165 L 110.526,297.47 L 113.552,295.627 L 115.83,294.113
 L 118.053,292.538 L 120.22,290.903 L 122.331,289.209 L 124.384,287.459 L 126.379,285.653 L 128.315,283.794
 L 130.126,281.983 L 159.28,231.486 L 159.738,229.018 L 160.15,226.36 L 160.481,223.684 L 160.732,220.99
 L 160.902,218.281 L 160.99,215.105 L 161,211.929 L 160.934,208.755 L 160.79,205.584 L 160.569,202.417
 L 160.272,199.256 L 159.898,196.102 L 159.447,192.957 L 158.89,189.232 L 158.236,185.524 L 157.484,181.835
 L 156.635,178.168 L 155.69,174.524 L 154.649,170.905 L 153.513,167.313 L 152.282,163.75 L 150.022,157.363
 L 147.634,151.024 L 145.119,144.735 L 142.476,138.499 L 139.708,132.316 L 136.814,126.188 L 133.796,120.118
 L 130.654,114.108 L 126.823,105.993 L 123.249,97.7635 L 121.742,94.3448 L 120.381,90.8718 L 119.167,87.3492
 L 118.102,83.7816 L 117.186,80.1735 L 116.42,76.5295 L 115.808,72.8543 L 115.348,69.1523 L 115.255,66.082
 L 115.3,63.0149 L 115.483,59.9557 L 115.802,56.9091 L 116.257,53.8795 L 116.848,50.8715 L 117.575,47.8894
 L 118.434,44.937 L 120.991,37.8452 L 123.821,30.8557 L 127.313,22.4426 L 130.62,13.9568 L 132.534,8.60184
 L 134.254,3.1826 L 135.039,0.414047 L 135.748,-2.37071 L 136.381,-5.17023 L 136.938,-7.98294 L 137.419,-10.8074
 L 137.824,-13.642 L 138.153,-16.4852 L 138.405,-19.3354 L 138.581,-22.1915 L 138.68,-25.0516 L 138.702,-27.9142
 L 138.647,-30.778 L 138.516,-33.6413 L 138.307,-36.5026 L 138.021,-39.3604 L 137.658,-42.2132 L 137.305,-44.3531
 L 136.855,-46.4714 L 136.308,-48.565 L 135.665,-50.6306 L 134.928,-52.665 L 134.097,-54.6651 L 133.173,-56.6275
 L 132.159,-58.5491 L 131.252,-60.0727 L 130.386,-61.3539 L 130.381,-61.364 L 129.258,-63.1119 L 127.854,-64.9489
 L 126.23,-66.7947 L 124.456,-68.5686 L 122.61,-70.1931 L 120.773,-71.5972 L 119.025,-72.7195 L 118.85,-72.8071
 L 118.769,-72.8639 L 117.018,-73.8272 L 115.207,-74.5828 L 113.354,-75.1343 L 111.475,-75.4853 L 109.587,-75.6393
 L 107.707,-75.5999 L 105.851,-75.3707 L 104.036,-74.9553 L 103.303,-74.7058 L 103.156,-74.6778 L 102.582,-74.4606
 L 102.279,-74.3572 L 102.137,-74.2918 L 101.401,-74.0128 L 99.4704,-72.9977 L 97.4474,-71.6768 L 95.4206,-70.1077
 L 93.4785,-68.3592 L 91.7063,-66.5075 L 90.1811,-64.6336 L 88.9697,-62.8195 L 88.9025,-62.6862 L 87.9537,-61.2554
 L 87.0672,-59.6974 L 86.2895,-58.0835 L 85.6233,-56.4193 L 83.9277,-51.3079 L 82.4803,-46.1222 L 81.3698,-42.1938
 L 80.0479,-38.3397 L 78.5185,-34.5678 L 76.7857,-30.8862 L 74.8536,-27.3031 L 72.7263,-23.8265 L 70.4079,-20.4644
 L 68.6222,-18.1556 L 67.2489,-17.1523 L 65.3358,-15.9559 L 63.3378,-14.8985 L 61.2621,-13.9846 L 59.1162,-13.2198
 L 57.4116,-12.7321 L 55.6314,-12.3544 L 53.7238,-12.117 L 51.6371,-12.0498 L 49.4495,-12.2289 L 47.0759,-12.7243
 L 44.5613,-13.539 L 41.951,-14.6758 L 39.29,-16.1378 L 36.6235,-17.9277 L 35.2688,-19.0216 L 35.0425,-19.2958
 L 33.8994,-20.819 L 32.8056,-22.4276 L 31.7669,-24.1219 L 30.7889,-25.9022 L 29.8773,-27.769 L 29.0377,-29.7226
 L 28.2757,-31.7634 L 28.2162,-31.95 L 28.211,-31.95 L 28.211,-32.1727 L 28.2,-32.1921 L 28.2,20
 L 59,20 L 59.5853,20.0576 L 60.148,20.2283 L 60.6667,20.5056 L 61.1213,20.8787 L 61.4944,21.3333
 L 61.7716,21.8519 L 61.9424,22.4147 L 62,23 L 62,267 L 61.9424,267.585 L 61.7716,268.148
 L 61.4944,268.667 L 61.1213,269.121 L 60.6667,269.494 L 60.148,269.772 L 59.5853,269.942 L 59,270
 L -59,270 L -59.5853,269.942 L -60.148,269.772 L -60.6667,269.494 L -61.1213,269.121 L -61.4944,268.667
 L -61.7716,268.148 L -61.9424,267.585 L -62,267 L -62,23 L -61.9424,22.4147 L -61.7716,21.8519
 L -61.4944,21.3333 L -61.1213,20.8787 L -60.6667,20.5056 L -60.148,20.2283 L -59.5853,20.0576 L -59,20
 L -28.2,20 L -28.2,-54.5602 L -28.6791,-54.5806 L -30.0249,-54.7292 L -31.3182,-54.9621 L -32.5635,-55.2747
 L -33.7654,-55.6624 L -34.9284,-56.1207 L -37.1563,-57.2308 L -39.284,-58.5683 L -41.3481,-60.0967 L -43.3853,-61.7795
 L -45.4323,-63.5801 L -49.7028,-67.3884 L -51.9995,-69.323 L -54.453,-71.2293 L -57.0997,-73.0705 L -59.9765,-74.8102
 L -63.1201,-76.4119 L -64.8033,-77.1495 L -66.5674,-77.8386 L -69.0452,-78.6863 L -71.5481,-79.4516 L -74.0739,-80.134
 L -76.6204,-80.733 L -79.1856,-81.2482 L -81.7673,-81.6791 L -84.3635,-82.0253 L -86.972,-82.2862 L -88.8413,-82.4454
 L -90.7101,-82.5278 L -94.4366,-82.4647 L -98.1332,-82.1011 L -101.782,-81.4409 L -105.363,-80.4884 L -108.86,-79.2476
 L -112.253,-77.7225 L -113.906,-76.8547 L -115.526,-75.9174 L -117.117,-74.8446 L -118.641,-73.6835 L -120.096,-72.4372
 L -121.476,-71.1088 L -127.476,-65.1088 L -129.21,-63.0309 L -130.811,-60.8599 L -132.275,-58.6022 L -133.6,-56.2642
 L -134.781,-53.8523 L -135.816,-51.3728 L -136.702,-48.8322 L -137.434,-46.2367 L -138.303,-42.3587 L -138.986,-38.4509
 L -139.481,-34.5199 L -139.789,-30.5724 L -139.909,-26.6149 L -139.84,-22.654 L -139.583,-18.6964 L -139.136,-14.748
 L -138.258,-10.251 L -137.236,-5.78401 L -136.071,-1.35141 L -134.765,3.04367 L -133.269,7.64304 L -131.657,12.203
 L -129.929,16.7215 L -128.087,21.1964 L -125.023,28.3745 L -122.128,35.6209 L -120.353,39.5834 L -118.837,43.6363
 L -117.583,47.767 L -116.594,51.9631 L -115.871,56.2122 L -115.417,60.5018 L -115.235,64.8193 L -115.327,69.1528
 L -115.786,72.8547 L -116.399,76.5299 L -117.164,80.1738 L -118.08,83.7819 L -119.146,87.3495 L -120.36,90.8721
 L -121.722,94.345 L -123.229,97.7638 L -126.802,105.993 L -130.632,114.108 L -133.774,120.118 L -136.793,126.188
 L -139.687,132.316 L -142.456,138.499 L -145.098,144.735 L -147.614,151.024 L -150.002,157.363 L -152.261,163.75
 L -153.492,167.313 L -154.628,170.905 L -155.669,174.524 L -156.614,178.168 L -157.462,181.835 L -158.214,185.524
 L -158.869,189.232 L -159.425,192.957 L -160.245,199.205 L -160.763,205.481 L -160.978,211.775 L -160.89,218.075
 L -160.712,220.976 L -160.441,223.857 L -160.077,226.718 L -159.624,229.557 L -159.08,232.371 L -158.449,235.159
 L -157.73,237.919 L -156.925,240.65 L -156.035,243.349 L -155.061,246.014 L -154.004,248.645 L -152.866,251.238
 L -151.647,253.793 L -150.349,256.306 L -148.973,258.778 L -147.52,261.205 L -145.99,263.586 L -144.386,265.919
 L -142.708,268.202 L -140.958,270.433 L -139.136,272.611 L -137.244,274.734 L -135.283,276.8 L -129.283,282.8
 L -127.253,284.807 L -125.157,286.753 L -122.995,288.637 L -120.768,290.457 L -118.478,292.21 L -116.125,293.895
 L -113.711,295.511 L -111.237,297.055 L -108.704,298.525 L -106.471,299.699 L -104.177,300.758 L -101.043,302.056
 L -97.8734,303.266 L -94.6711,304.389 L -91.4376,305.422 L -88.3103,306.318 L -85.1542,307.11 L -81.9731,307.796
 L -78.7687,308.377 L -69.6052,309.756 L -60.4088,310.887 L -51.1846,311.769 L -41.9374,312.403 L -41.1491,312.438
 L -30.813,312.741 L -20.4753,312.957 L -10.1364,313.086 L 0.202896,313.128 z
M -101.064,-73.838 L -101.851,-74.625 L -102.139,-75.7 L -101.851,-76.775 L -101.064,-77.562 L -99.989,-77.85
 L -98.914,-77.562 L -98.127,-76.775 L -97.839,-75.7 L -98.127,-74.625 L -98.914,-73.838 L -99.989,-73.55
 z
M 106.936,-67.638 L 106.149,-68.425 L 105.861,-69.5 L 106.149,-70.575 L 106.936,-71.362 L 108.011,-71.65
 L 109.086,-71.362 L 109.873,-70.575 L 110.161,-69.5 L 109.873,-68.425 L 109.086,-67.638 L 108.011,-67.35
 z
M -36.064,-48.488 L -36.851,-49.275 L -37.139,-50.35 L -36.851,-51.425 L -36.064,-52.2119 L -34.989,-52.5
 L -33.914,-52.2119 L -33.127,-51.425 L -32.839,-50.35 L -33.127,-49.275 L -33.914,-48.488 L -34.989,-48.2
 z
M 80.936,-27.638 L 80.149,-28.425 L 79.861,-29.5 L 80.149,-30.575 L 80.936,-31.362 L 82.011,-31.65
 L 83.086,-31.362 L 83.873,-30.575 L 84.161,-29.5 L 83.873,-28.425 L 83.086,-27.638 L 82.011,-27.35
 z
M 130.686,-8.13799 L 129.899,-8.92494 L 129.611,-9.99995 L 129.899,-11.075 L 130.686,-11.862 L 131.761,-12.1499
 L 132.836,-11.862 L 133.623,-11.075 L 133.911,-9.99995 L 133.623,-8.92494 L 132.836,-8.13799 L 131.761,-7.84995
 z
M -132.814,-8.13799 L -133.601,-8.92494 L -133.889,-9.99995 L -133.601,-11.075 L -132.814,-11.862 L -131.739,-12.1499
 L -130.664,-11.862 L -129.877,-11.075 L -129.589,-9.99995 L -129.877,-8.92494 L -130.664,-8.13799 L -131.739,-7.84995
 z
M 38.936,-7.93799 L 38.149,-8.72495 L 37.861,-9.79994 L 38.149,-10.875 L 38.936,-11.6618 L 40.011,-11.95
 L 41.086,-11.6618 L 41.873,-10.875 L 42.161,-9.79994 L 41.873,-8.72495 L 41.086,-7.93799 L 40.011,-7.64995
 z
M -39.275,11.862 L -40.062,11.075 L -40.35,10 L -40.062,8.92499 L -39.275,8.13803 L -38.2,7.84999
 L -37.125,8.13803 L -36.338,8.92499 L -36.05,10 L -36.338,11.075 L -37.125,11.862 L -38.2,12.15
 z
M 37.125,11.862 L 36.338,11.075 L 36.05,10 L 36.338,8.92499 L 37.125,8.13803 L 38.2,7.84999
 L 39.275,8.13803 L 40.062,8.92499 L 40.35,10 L 40.062,11.075 L 39.275,11.862 L 38.2,12.15
 z
M -73.075,51.862 L -73.862,51.075 L -74.15,50 L -73.862,48.925 L -73.075,48.138 L -72,47.85
 L -70.925,48.138 L -70.138,48.925 L -69.85,50 L -70.138,51.075 L -70.925,51.862 L -72,52.15
 z
M 70.925,51.862 L 70.138,51.075 L 69.85,50 L 70.138,48.925 L 70.925,48.138 L 72,47.85
 L 73.075,48.138 L 73.862,48.925 L 74.15,50 L 73.862,51.075 L 73.075,51.862 L 72,52.15
 z
M 108.136,66.8621 L 107.349,66.0751 L 107.061,65.0001 L 107.349,63.9251 L 108.136,63.1381 L 109.211,62.8501
 L 110.286,63.1381 L 111.073,63.9251 L 111.361,65.0001 L 111.073,66.0751 L 110.286,66.8621 L 109.211,67.1501
 z
M -110.264,66.8621 L -111.051,66.0751 L -111.339,65.0001 L -111.051,63.9251 L -110.264,63.1381 L -109.189,62.8501
 L -108.114,63.1381 L -107.327,63.9251 L -107.039,65.0001 L -107.327,66.0751 L -108.114,66.8621 L -109.189,67.1501
 z
M 134.936,139.862 L 134.149,139.075 L 133.861,138 L 134.149,136.925 L 134.936,136.138 L 136.011,135.85
 L 137.086,136.138 L 137.873,136.925 L 138.161,138 L 137.873,139.075 L 137.086,139.862 L 136.011,140.15
 z
M -137.064,139.862 L -137.851,139.075 L -138.139,138 L -137.851,136.925 L -137.064,136.138 L -135.989,135.85
 L -134.914,136.138 L -134.127,136.925 L -133.839,138 L -134.127,139.075 L -134.914,139.862 L -135.989,140.15
 z
M 70.925,146.862 L 70.138,146.075 L 69.85,145 L 70.138,143.925 L 70.925,143.138 L 72,142.85
 L 73.075,143.138 L 73.862,143.925 L 74.15,145 L 73.862,146.075 L 73.075,146.862 L 72,147.15
 z
M -73.075,146.862 L -73.862,146.075 L -74.15,145 L -73.862,143.925 L -73.075,143.138 L -72,142.85
 L -70.925,143.138 L -70.138,143.925 L -69.85,145 L -70.138,146.075 L -70.925,146.862 L -72,147.15
 z
M -155.864,218.862 L -156.651,218.075 L -156.939,217 L -156.651,215.925 L -155.864,215.138 L -154.789,214.85
 L -153.714,215.138 L -152.927,215.925 L -152.639,217 L -152.927,218.075 L -153.714,218.862 L -154.789,219.15
 z
M 153.736,218.862 L 152.949,218.075 L 152.661,217 L 152.949,215.925 L 153.736,215.138 L 154.811,214.85
 L 155.886,215.138 L 156.673,215.925 L 156.961,217 L 156.673,218.075 L 155.886,218.862 L 154.811,219.15
 z
M 70.925,241.862 L 70.138,241.075 L 69.85,240 L 70.138,238.925 L 70.925,238.138 L 72,237.85
 L 73.075,238.138 L 73.862,238.925 L 74.15,240 L 73.862,241.075 L 73.075,241.862 L 72,242.15
 z
M -73.075,241.862 L -73.862,241.075 L -74.15,240 L -73.862,238.925 L -73.075,238.138 L -72,237.85
 L -70.925,238.138 L -70.138,238.925 L -69.85,240 L -70.138,241.075 L -70.925,241.862 L -72,242.15
 z
M -29.138,278.925 L -28.85,280 L -29.138,281.075 L -29.925,281.862 L -31,282.15 L -32.075,281.862
 L -32.862,281.075 L -33.15,280 L -32.862,278.925 L -32.075,278.138 L -31,277.85 L -29.925,278.138
 z
M 29.925,281.862 L 29.138,281.075 L 28.85,280 L 29.138,278.925 L 29.925,278.138 L 31,277.85
 L 32.075,278.138 L 32.862,278.925 L 33.15,280 L 32.862,281.075 L 32.075,281.862 L 31,282.15
 z
M -115.064,290.862 L -115.851,290.075 L -116.139,289 L -115.851,287.925 L -115.064,287.138 L -113.989,286.85
 L -112.914,287.138 L -112.127,287.925 L -111.839,289 L -112.127,290.075 L -112.914,290.862 L -113.989,291.15
 z
M 112.936,290.862 L 112.149,290.075 L 111.861,289 L 112.149,287.925 L 112.936,287.138 L 114.011,286.85
 L 115.086,287.138 L 115.873,287.925 L 116.161,289 L 115.873,290.075 L 115.086,290.862 L 114.011,291.15
 z
M -41.064,308.362 L -41.851,307.575 L -42.139,306.5 L -41.851,305.425 L -41.064,304.638 L -39.989,304.35
 L -38.914,304.638 L -38.127,305.425 L -37.839,306.5 L -38.127,307.575 L -38.914,308.362 L -39.989,308.65
 z
M 38.936,308.362 L 38.149,307.575 L 37.861,306.5 L 38.149,305.425 L 38.936,304.638 L 40.011,304.35
 L 41.086,304.638 L 41.873,305.425 L 42.161,306.5 L 41.873,307.575 L 41.086,308.362 L 40.011,308.65
 z
" stroke="black" fill="lightgray" stroke-width="0.5"/></svg>
