<?xml version="1.0" encoding="UTF-8" standalone="no"?>
<svg
   xmlns:dc="http://purl.org/dc/elements/1.1/"
   xmlns:cc="http://creativecommons.org/ns#"
   xmlns:rdf="http://www.w3.org/1999/02/22-rdf-syntax-ns#"
   xmlns:svg="http://www.w3.org/2000/svg"
   xmlns="http://www.w3.org/2000/svg"
   id="svg6"
   version="1.1"
   viewBox="-161 -83 322 397"
   height="397mm"
   width="322mm">
  <metadata
     id="metadata12">
    <rdf:RDF>
      <cc:Work
         rdf:about="">
        <dc:format>image/svg+xml</dc:format>
        <dc:type
           rdf:resource="http://purl.org/dc/dcmitype/StillImage" />
        <dc:title>OpenSCAD Model</dc:title>
      </cc:Work>
    </rdf:RDF>
  </metadata>
  <defs
     id="defs10" />
  <title
     id="title2">OpenSCAD Model</title>
  <path
     id="path4"
     stroke-width="0.5"
     fill="#d3d3d3"
     stroke="#000000"
     d="m 0.191925,313.128 10.339375,-0.045 10.3388,-0.132 10.3376,-0.22 10.336,-0.306 h 4e-4 l 10.0824,-0.692 10.0553,-0.987 10.0214,-1.282 9.9806,-1.577 h 2e-4 l 3.3552,-0.702 5e-4,-10e-4 5e-4,10e-4 4.0425,-1.068 4.0017,-1.206 3.9575,-1.34 3.9101,-1.475 v -10e-4 l 3.263,-1.387 3.19,-1.543 3.11,-1.695 3.025,-1.843 10e-4,-0.001 v 0.001 l 2.278,-1.514 2.223,-1.575 2.167,-1.635 2.111,-1.694 2.053,-1.75 1.995,-1.806 1.936,-1.859 1.811,-1.811 29.154,-50.497 0.458,-2.468 0.412,-2.658 0.331,-2.676 0.251,-2.694 0.17,-2.709 0.088,-3.176 0.01,-3.176 -0.066,-3.174 -0.144,-3.171 -0.221,-3.167 -0.297,-3.161 -0.374,-3.154 -0.451,-3.145 -0.557,-3.725 -0.654,-3.708 -0.752,-3.689 -0.849,-3.667 -0.945,-3.644 -1.041,-3.619 -1.136,-3.592 -1.231,-3.563 -2.26,-6.387 -2.388,-6.339 -2.515,-6.289 -2.643,-6.236 -2.768,-6.183 -2.894,-6.128 -3.018,-6.07 -3.142,-6.01 -3.831,-8.115 -3.574,-8.2296 -1.507,-3.4187 -1.361,-3.473 -1.214,-3.5226 -1.065,-3.5676 -0.916,-3.6081 -0.766,-3.644 -0.612,-3.6752 -0.46,-3.702 -0.093,-3.0703 0.045,-3.0671 0.183,-3.0592 0.319,-3.0466 0.455,-3.0296 0.591,-3.008 0.727,-2.9821 0.86,-2.9516 -0.001,-8e-4 2.557,-7.0918 2.83,-6.9891 v -4e-4 l 3.492,-8.4131 3.307,-8.4857 1.914,-5.35501 1.72,-5.41923 0.785,-2.768559 0.709,-2.784761 0.633,-2.79951 0.557,-2.81272 0.481,-2.82441 0.405,-2.8346 0.329,-2.8432 0.252,-2.8503 0.176,-2.856 0.099,-2.8601 0.022,-2.8626 -0.055,-2.8638 -0.131,-2.8633 -0.209,-2.8613 -0.286,-2.8578 -0.363,-2.8528 -0.353,-2.1399 -0.45,-2.1183 -0.547,-2.0936 -0.643,-2.0656 -0.737,-2.0344 -0.831,-2.0001 -0.924,-1.9624 -1.014,-1.9216 -0.907,-1.5236 -0.866,-1.2812 -0.005,-0.0101 -1.123,-1.7479 -1.404,-1.837 -1.624,-1.8458 -1.774,-1.7739 -1.846,-1.6245 -1.837,-1.4041 -1.748,-1.1223 -0.175,-0.0876 -0.081,-0.0568 -1.751,-0.9633 -1.811,-0.7556 -1.853,-0.5515 -1.879,-0.351 -1.888,-0.154 -1.88,0.0394 -1.856,0.2292 -1.815,0.4154 -0.733,0.2495 -0.147,0.028 -0.574,0.2172 -0.303,0.1034 -0.142,0.0654 -0.736,0.279 -1.9306,1.0151 -2.023,1.3209 -2.0268,1.5691 -1.942,1.7485 -1.7723,1.8517 -1.5252,1.8739 -1.2114,1.8141 -0.0672,0.1333 -0.9488,1.4308 -0.8865,1.558 -0.7777,1.6139 -0.6662,1.6642 -1.6956,5.1114 -1.4474,5.1857 -1.1105,3.9284 -1.3219,3.8541 -1.5294,3.7719 -1.7328,3.6816 -1.9321,3.5831 -2.1273,3.4766 -2.3184,3.3621 -1.7857,2.3088 -1.3733,1.0033 -1.9131,1.1963 -1.998,1.0575 -2.0757,0.9138 -2.1458,0.7649 -10e-5,-1e-4 -1.7046,0.4878 -1.7802,0.3777 -1.9076,0.2374 -2.0867,0.0672 -2.1876,-0.1791 -2.3736,-0.4954 -2.5146,-0.8147 -2.6103,-1.1368 -2.661,-1.462 -2.6665,-1.79 -1.3547,-1.0938 -0.2263,-0.2742 -1.1431,-1.5232 -1.0436,-1.5347 V -50.5 l -0.0768,-0.7803 -0.2276,-0.7504 -0.3697,-0.6916 -0.4974,-0.6061 -0.6062,-0.4975 -0.6915,-0.3696 -0.7504,-0.2276 -0.7804,-0.0769 h -9.2451 l -0.0208,-0.0209 H -27.287 l -1.4031,-0.0597 -1.3458,-0.1486 -1.2933,-0.2329 -1.2453,-0.3126 -1.2019,-0.3877 -1.163,-0.4583 -2.2279,-1.1101 -2.1277,-1.3375 -2.0641,-1.5284 -2.0372,-1.6828 -2.047,-1.8006 -4.2705,-3.8083 -2.2967,-1.9346 -2.4535,-1.9063 -2.6467,-1.8412 -2.8768,-1.7397 -3.1436,-1.6017 -1.6832,-0.7376 -1.7637,-0.6894 -4e-4,3e-4 -2.4778,-0.8477 -2.5029,-0.7653 -2.5258,-0.6824 -2.5465,-0.599 -2.5652,-0.5152 -2.5817,-0.4309 -2.5962,-0.3462 -2.6085,-0.2609 -1.8693,-0.1592 -1.8688,-0.0824 -3.7265,0.0631 -3.6966,0.3636 -3.6488,0.6602 -3.581,0.9525 -3.497,1.2408 -3.393,1.5251 -1.653,0.8678 -1.619,0.9373 v 2e-4 l -0.001,-2e-4 -1.591,1.0728 -1.524,1.1611 -1.455,1.2463 -1.38,1.3284 -6,6 -1.734,2.0779 -1.601,2.171 -1.464,2.2577 -1.325,2.338 -1.181,2.4119 -1.035,2.4795 -0.886,2.5406 -0.732,2.5955 -0.869,3.878 -0.683,3.9078 -0.495,3.931 -0.308,3.9475 -0.12,3.9575 0.069,3.9609 0.257,3.9576 0.446,3.9479 0.001,5e-4 0.878,4.497 1.022,4.46694 1.165,4.4326 1.306,4.39492 v 9e-5 7e-5 l 1.496,4.59937 1.612,4.55991 1.728,4.5185 1.841,4.4748 10e-4,10e-5 3.064,7.1781 2.895,7.2464 1.775,3.9625 1.516,4.0529 1.254,4.1307 0.989,4.1961 0.723,4.2491 0.454,4.2896 0.182,4.3175 -0.092,4.3332 v 2e-4 10e-5 l -0.459,3.7019 -0.613,3.6752 -0.765,3.6439 -0.916,3.6081 -1.066,3.5676 -1.214,3.5226 -1.362,3.4729 -1.507,3.4186 v 2e-4 l -3.573,8.2293 -3.83,8.115 -3.142,6.01 -3.019,6.07 -2.894,6.128 -2.769,6.183 -2.642,6.236 -2.516,6.289 -2.388,6.339 -2.259,6.387 -1.231,3.563 -1.136,3.592 -1.041,3.619 -0.945,3.644 -0.848,3.667 -0.752,3.689 -0.655,3.708 -0.556,3.725 -0.82,6.248 -0.518,6.276 -0.215,6.294 0.088,6.3 v 0 l 0.178,2.901 0.271,2.881 0.364,2.861 0.453,2.839 0.544,2.814 0.631,2.788 0.719,2.76 0.805,2.731 0.89,2.699 0.974,2.665 1.057,2.631 1.138,2.593 1.219,2.555 1.298,2.513 1.376,2.472 1.453,2.427 1.53,2.381 1.604,2.333 1.678,2.283 1.75,2.231 1.822,2.178 1.892,2.123 1.961,2.066 6,6 2.03,2.007 2.096,1.946 2.162,1.884 2.227,1.82 2.29,1.753 2.353,1.685 2.414,1.616 2.474,1.544 2.531,1.469 0.002,10e-4 2.233,1.174 2.293,1.058 v 0 l 10e-4,10e-4 3.134,1.298 3.1696,1.21 3.2023,1.123 3.2335,1.033 v 0 l 3.1273,0.896 3.1561,0.792 3.1811,0.686 3.2034,0.581 h 3e-4 7e-4 l 9.1635,1.379 9.1964,1.131 9.2242,0.882 9.2469,0.634 h 3e-4 l 0.7873,0.035 5e-4,-10e-4 5e-4,10e-4 10.3361,0.303 10.3377,0.216 10.3389,0.129 z M -100.9,-74.1411 l -0.659,-0.6589 -0.241,-0.9 0.241,-0.9 0.659,-0.6588 0.9,-0.2412 0.9,0.2412 0.6589,0.6588 0.2411,0.9 -0.2411,0.9 -0.6589,0.6589 -0.9,0.2411 z m 208,6.2 -0.659,-0.6589 -0.241,-0.9 0.241,-0.9 0.659,-0.6588 0.9,-0.2412 0.9,0.2412 0.659,0.6588 0.241,0.9 -0.241,0.9 -0.659,0.6589 -0.9,0.2411 z m -147,17.1499 -0.6588,-0.6588 -0.2412,-0.9 0.2412,-0.9 0.6588,-0.6588 0.9,-0.2412 0.9,0.2412 0.6589,0.6588 0.2411,0.9 -0.2411,0.9 -0.6589,0.6588 -0.9,0.2412 z m 58.3657,8.2201 -0.6039,-0.6039 -0.2211,-0.825 0.2211,-0.825 0.6039,-0.6039 0.825,-0.2211 0.825,0.2211 0.6039,0.6039 0.2211,0.825 -0.2211,0.825 -0.6039,0.6039 -0.825,0.2211 z m -38.5814,0 -0.6039,-0.6039 -0.2211,-0.825 0.2211,-0.825 0.6039,-0.6039 0.825,-0.2211 0.825,0.2211 0.6039,0.6039 0.2211,0.825 -0.2211,0.825 -0.6039,0.6039 -0.825,0.2211 z M 81.1,-27.9411 80.4411,-28.6 80.2,-29.5 80.4411,-30.4 81.1,-31.0588 82,-31.3 l 0.9,0.2412 0.6588,0.6588 0.2412,0.9 -0.2412,0.9 L 82.9,-27.9411 82,-27.7 Z m -213.75,19.49995 -0.659,-0.65884 -0.241,-0.90001 0.241,-0.9 0.659,-0.6588 0.9,-0.2412 0.9,0.2412 0.659,0.6588 0.241,0.9 -0.241,0.90001 -0.659,0.65884 -0.9,0.24115 z m 263.5,0 -0.659,-0.65884 L 129.95,-10 l 0.241,-0.9 0.659,-0.6588 0.9,-0.2412 0.9,0.2412 0.659,0.6588 0.241,0.9 -0.241,0.90001 -0.659,0.65884 -0.9,0.24115 z m -91.75,0.2 -0.6589,-0.65884 -0.2411,-0.9 L 38.4411,-10.7 39.1,-11.3588 40,-11.6 l 0.9,0.2412 0.6588,0.6588 0.2412,0.90001 -0.2412,0.9 L 40.9,-8.24115 40,-8 Z M -110.1,66.5588 -110.759,65.9 -111,65 l 0.241,-0.9 0.659,-0.6589 0.9,-0.2411 0.9,0.2411 0.659,0.6589 0.241,0.9 -0.241,0.9 -0.659,0.6588 -0.9,0.2412 z m 218.4,0 L 107.641,65.9 107.4,65 l 0.241,-0.9 0.659,-0.6589 0.9,-0.2411 0.9,0.2411 0.659,0.6589 0.241,0.9 -0.241,0.9 -0.659,0.6588 -0.9,0.2412 z m -245.2,73.0002 -0.659,-0.659 -0.241,-0.9 0.241,-0.9 0.659,-0.659 0.9,-0.241 0.9,0.241 0.659,0.659 0.241,0.9 -0.241,0.9 -0.659,0.659 -0.9,0.241 z m 272,0 -0.659,-0.659 -0.241,-0.9 0.241,-0.9 0.659,-0.659 0.9,-0.241 0.9,0.241 0.659,0.659 0.241,0.9 -0.241,0.9 -0.659,0.659 -0.9,0.241 z m 18.8,79 -0.659,-0.659 -0.241,-0.9 0.241,-0.9 0.659,-0.659 0.9,-0.241 0.9,0.241 0.659,0.659 0.241,0.9 -0.241,0.9 -0.659,0.659 -0.9,0.241 z m -309.6,0 -0.659,-0.659 -0.241,-0.9 0.241,-0.9 0.659,-0.659 0.9,-0.241 0.9,0.241 0.659,0.659 0.241,0.9 -0.241,0.9 -0.659,0.659 -0.9,0.241 z m 40.8,72 -0.659,-0.659 -0.241,-0.9 0.241,-0.9 0.659,-0.659 0.9,-0.241 0.9,0.241 0.659,0.659 0.241,0.9 -0.241,0.9 -0.659,0.659 -0.9,0.241 z m 228,0 -0.659,-0.659 -0.241,-0.9 0.241,-0.9 0.659,-0.659 0.9,-0.241 0.9,0.241 0.659,0.659 0.241,0.9 -0.241,0.9 -0.659,0.659 -0.9,0.241 z m -154,17.5 -0.6588,-0.659 -0.2412,-0.9 0.2412,-0.9 0.6588,-0.659 0.9,-0.241 0.9,0.241 0.6589,0.659 0.2411,0.9 -0.2411,0.9 -0.6589,0.659 -0.9,0.241 z m 80,0 -0.6589,-0.659 -0.2411,-0.9 0.2411,-0.9 0.6589,-0.659 0.9,-0.241 0.9,0.241 0.6588,0.659 0.2412,0.9 -0.2412,0.9 L 40.9,308.059 40,308.3 Z" />
</svg>
