  0
SECTION
  2
BLOCKS
  0
ENDSEC
  0
SECTION
  2
ENTITIES
  0
LINE
  8
0
 10
3.8526
 20
496.055
 11
4.21872
 21
496.939
  0
LINE
  8
0
 10
4.21872
 20
496.939
 11
3.8526
 21
497.822
  0
LINE
  8
0
 10
3.8526
 20
497.822
 11
2.96872
 21
498.189
  0
LINE
  8
0
 10
2.96872
 20
498.189
 11
2.08482
 21
497.822
  0
LINE
  8
0
 10
2.08482
 20
497.822
 11
1.71872
 21
496.939
  0
LINE
  8
0
 10
1.71872
 20
496.939
 11
2.08482
 21
496.055
  0
LINE
  8
0
 10
2.08482
 20
496.055
 11
2.96872
 21
495.689
  0
LINE
  8
0
 10
2.96872
 20
495.689
 11
3.8526
 21
496.055
  0
LINE
  8
0
 10
-5.56067
 20
486.492
 11
-5.19455
 21
487.376
  0
LINE
  8
0
 10
-5.19455
 20
487.376
 11
-5.56067
 21
488.26
  0
LINE
  8
0
 10
-5.56067
 20
488.26
 11
-6.44455
 21
488.626
  0
LINE
  8
0
 10
-6.44455
 20
488.626
 11
-7.32845
 21
488.26
  0
LINE
  8
0
 10
-7.32845
 20
488.26
 11
-7.69455
 21
487.376
  0
LINE
  8
0
 10
-7.69455
 20
487.376
 11
-7.32845
 21
486.492
  0
LINE
  8
0
 10
-7.32845
 20
486.492
 11
-6.44455
 21
486.126
  0
LINE
  8
0
 10
-6.44455
 20
486.126
 11
-5.56067
 21
486.492
  0
LINE
  8
0
 10
3.80284
 20
476.154
 11
4.16896
 21
477.038
  0
LINE
  8
0
 10
4.16896
 20
477.038
 11
3.80284
 21
477.922
  0
LINE
  8
0
 10
3.80284
 20
477.922
 11
2.91896
 21
478.288
  0
LINE
  8
0
 10
2.91896
 20
478.288
 11
2.03508
 21
477.922
  0
LINE
  8
0
 10
2.03508
 20
477.922
 11
1.66896
 21
477.038
  0
LINE
  8
0
 10
1.66896
 20
477.038
 11
2.03508
 21
476.154
  0
LINE
  8
0
 10
2.03508
 20
476.154
 11
2.91896
 21
475.788
  0
LINE
  8
0
 10
2.91896
 20
475.788
 11
3.80284
 21
476.154
  0
LINE
  8
0
 10
-5.50797
 20
465.408
 11
-5.14185
 21
466.292
  0
LINE
  8
0
 10
-5.14185
 20
466.292
 11
-5.50797
 21
467.176
  0
LINE
  8
0
 10
-5.50797
 20
467.176
 11
-6.39185
 21
467.542
  0
LINE
  8
0
 10
-6.39185
 20
467.542
 11
-7.27573
 21
467.176
  0
LINE
  8
0
 10
-7.27573
 20
467.176
 11
-7.64185
 21
466.292
  0
LINE
  8
0
 10
-7.64185
 20
466.292
 11
-7.27573
 21
465.408
  0
LINE
  8
0
 10
-7.27573
 20
465.408
 11
-6.39185
 21
465.042
  0
LINE
  8
0
 10
-6.39185
 20
465.042
 11
-5.50797
 21
465.408
  0
LINE
  8
0
 10
3.74701
 20
453.817
 11
4.11311
 21
454.701
  0
LINE
  8
0
 10
4.11311
 20
454.701
 11
3.74701
 21
455.585
  0
LINE
  8
0
 10
3.74701
 20
455.585
 11
2.86311
 21
455.951
  0
LINE
  8
0
 10
2.86311
 20
455.951
 11
1.97923
 21
455.585
  0
LINE
  8
0
 10
1.97923
 20
455.585
 11
1.61311
 21
454.701
  0
LINE
  8
0
 10
1.61311
 20
454.701
 11
1.97923
 21
453.817
  0
LINE
  8
0
 10
1.97923
 20
453.817
 11
2.86311
 21
453.451
  0
LINE
  8
0
 10
2.86311
 20
453.451
 11
3.74701
 21
453.817
  0
LINE
  8
0
 10
-5.44881
 20
441.743
 11
-5.08269
 21
442.626
  0
LINE
  8
0
 10
-5.08269
 20
442.626
 11
-5.44881
 21
443.51
  0
LINE
  8
0
 10
-5.44881
 20
443.51
 11
-6.33269
 21
443.876
  0
LINE
  8
0
 10
-6.33269
 20
443.876
 11
-7.21657
 21
443.51
  0
LINE
  8
0
 10
-7.21657
 20
443.51
 11
-7.58269
 21
442.626
  0
LINE
  8
0
 10
-7.58269
 20
442.626
 11
-7.21657
 21
441.743
  0
LINE
  8
0
 10
-7.21657
 20
441.743
 11
-6.33269
 21
441.376
  0
LINE
  8
0
 10
-6.33269
 20
441.376
 11
-5.44881
 21
441.743
  0
LINE
  8
0
 10
3.68433
 20
428.744
 11
4.05043
 21
429.628
  0
LINE
  8
0
 10
4.05043
 20
429.628
 11
3.68433
 21
430.512
  0
LINE
  8
0
 10
3.68433
 20
430.512
 11
2.80043
 21
430.878
  0
LINE
  8
0
 10
2.80043
 20
430.878
 11
1.91655
 21
430.512
  0
LINE
  8
0
 10
1.91655
 20
430.512
 11
1.55043
 21
429.628
  0
LINE
  8
0
 10
1.55043
 20
429.628
 11
1.91655
 21
428.744
  0
LINE
  8
0
 10
1.91655
 20
428.744
 11
2.80043
 21
428.378
  0
LINE
  8
0
 10
2.80043
 20
428.378
 11
3.68433
 21
428.744
  0
LINE
  8
0
 10
-5.38239
 20
415.179
 11
-5.01628
 21
416.063
  0
LINE
  8
0
 10
-5.01628
 20
416.063
 11
-5.38239
 21
416.947
  0
LINE
  8
0
 10
-5.38239
 20
416.947
 11
-6.26628
 21
417.313
  0
LINE
  8
0
 10
-6.26628
 20
417.313
 11
-7.15016
 21
416.947
  0
LINE
  8
0
 10
-7.15016
 20
416.947
 11
-7.51628
 21
416.063
  0
LINE
  8
0
 10
-7.51628
 20
416.063
 11
-7.15016
 21
415.179
  0
LINE
  8
0
 10
-7.15016
 20
415.179
 11
-6.26628
 21
414.813
  0
LINE
  8
0
 10
-6.26628
 20
414.813
 11
-5.38239
 21
415.179
  0
LINE
  8
0
 10
3.61397
 20
400.601
 11
3.98009
 21
401.485
  0
LINE
  8
0
 10
3.98009
 20
401.485
 11
3.61397
 21
402.369
  0
LINE
  8
0
 10
3.61397
 20
402.369
 11
2.73009
 21
402.735
  0
LINE
  8
0
 10
2.73009
 20
402.735
 11
1.84619
 21
402.369
  0
LINE
  8
0
 10
1.84619
 20
402.369
 11
1.48009
 21
401.485
  0
LINE
  8
0
 10
1.48009
 20
401.485
 11
1.84619
 21
400.601
  0
LINE
  8
0
 10
1.84619
 20
400.601
 11
2.73009
 21
400.235
  0
LINE
  8
0
 10
2.73009
 20
400.235
 11
3.61397
 21
400.601
  0
LINE
  8
0
 10
-5.30785
 20
385.363
 11
-4.94173
 21
386.247
  0
LINE
  8
0
 10
-4.94173
 20
386.247
 11
-5.30785
 21
387.131
  0
LINE
  8
0
 10
-5.30785
 20
387.131
 11
-6.19173
 21
387.497
  0
LINE
  8
0
 10
-6.19173
 20
387.497
 11
-7.07562
 21
387.131
  0
LINE
  8
0
 10
-7.07562
 20
387.131
 11
-7.44173
 21
386.247
  0
LINE
  8
0
 10
-7.44173
 20
386.247
 11
-7.07562
 21
385.363
  0
LINE
  8
0
 10
-7.07562
 20
385.363
 11
-6.19173
 21
384.997
  0
LINE
  8
0
 10
-6.19173
 20
384.997
 11
-5.30785
 21
385.363
  0
LINE
  8
0
 10
3.53499
 20
369.012
 11
3.90111
 21
369.896
  0
LINE
  8
0
 10
3.90111
 20
369.896
 11
3.53499
 21
370.78
  0
LINE
  8
0
 10
3.53499
 20
370.78
 11
2.65111
 21
371.146
  0
LINE
  8
0
 10
2.65111
 20
371.146
 11
1.76723
 21
370.78
  0
LINE
  8
0
 10
1.76723
 20
370.78
 11
1.40111
 21
369.896
  0
LINE
  8
0
 10
1.40111
 20
369.896
 11
1.76723
 21
369.012
  0
LINE
  8
0
 10
1.76723
 20
369.012
 11
2.65111
 21
368.646
  0
LINE
  8
0
 10
2.65111
 20
368.646
 11
3.53499
 21
369.012
  0
LINE
  8
0
 10
-5.22418
 20
351.895
 11
-4.85806
 21
352.779
  0
LINE
  8
0
 10
-4.85806
 20
352.779
 11
-5.22418
 21
353.663
  0
LINE
  8
0
 10
-5.22418
 20
353.663
 11
-6.10806
 21
354.029
  0
LINE
  8
0
 10
-6.10806
 20
354.029
 11
-6.99194
 21
353.663
  0
LINE
  8
0
 10
-6.99194
 20
353.663
 11
-7.35806
 21
352.779
  0
LINE
  8
0
 10
-7.35806
 20
352.779
 11
-6.99194
 21
351.895
  0
LINE
  8
0
 10
-6.99194
 20
351.895
 11
-6.10806
 21
351.529
  0
LINE
  8
0
 10
-6.10806
 20
351.529
 11
-5.22418
 21
351.895
  0
LINE
  8
0
 10
3.44635
 20
333.555
 11
3.81247
 21
334.439
  0
LINE
  8
0
 10
3.81247
 20
334.439
 11
3.44635
 21
335.322
  0
LINE
  8
0
 10
3.44635
 20
335.322
 11
2.56247
 21
335.689
  0
LINE
  8
0
 10
2.56247
 20
335.689
 11
1.67857
 21
335.322
  0
LINE
  8
0
 10
1.67857
 20
335.322
 11
1.31247
 21
334.439
  0
LINE
  8
0
 10
1.31247
 20
334.439
 11
1.67857
 21
333.555
  0
LINE
  8
0
 10
1.67857
 20
333.555
 11
2.56247
 21
333.189
  0
LINE
  8
0
 10
2.56247
 20
333.189
 11
3.44635
 21
333.555
  0
LINE
  8
0
 10
-5.13026
 20
314.33
 11
-4.76414
 21
315.213
  0
LINE
  8
0
 10
-4.76414
 20
315.213
 11
-5.13026
 21
316.097
  0
LINE
  8
0
 10
-5.13026
 20
316.097
 11
-6.01414
 21
316.463
  0
LINE
  8
0
 10
-6.01414
 20
316.463
 11
-6.89804
 21
316.097
  0
LINE
  8
0
 10
-6.89804
 20
316.097
 11
-7.26414
 21
315.213
  0
LINE
  8
0
 10
-7.26414
 20
315.213
 11
-6.89804
 21
314.33
  0
LINE
  8
0
 10
-6.89804
 20
314.33
 11
-6.01414
 21
313.963
  0
LINE
  8
0
 10
-6.01414
 20
313.963
 11
-5.13026
 21
314.33
  0
LINE
  8
0
 10
3.34685
 20
293.755
 11
3.71297
 21
294.639
  0
LINE
  8
0
 10
3.71297
 20
294.639
 11
3.34685
 21
295.523
  0
LINE
  8
0
 10
3.34685
 20
295.523
 11
2.46297
 21
295.889
  0
LINE
  8
0
 10
2.46297
 20
295.889
 11
1.57909
 21
295.523
  0
LINE
  8
0
 10
1.57909
 20
295.523
 11
1.21297
 21
294.639
  0
LINE
  8
0
 10
1.21297
 20
294.639
 11
1.57909
 21
293.755
  0
LINE
  8
0
 10
1.57909
 20
293.755
 11
2.46297
 21
293.389
  0
LINE
  8
0
 10
2.46297
 20
293.389
 11
3.34685
 21
293.755
  0
LINE
  8
0
 10
-5.02486
 20
272.164
 11
-4.65874
 21
273.048
  0
LINE
  8
0
 10
-4.65874
 20
273.048
 11
-5.02486
 21
273.931
  0
LINE
  8
0
 10
-5.02486
 20
273.931
 11
-5.90874
 21
274.298
  0
LINE
  8
0
 10
-5.90874
 20
274.298
 11
-6.79262
 21
273.931
  0
LINE
  8
0
 10
-6.79262
 20
273.931
 11
-7.15874
 21
273.048
  0
LINE
  8
0
 10
-7.15874
 20
273.048
 11
-6.79262
 21
272.164
  0
LINE
  8
0
 10
-6.79262
 20
272.164
 11
-5.90874
 21
271.798
  0
LINE
  8
0
 10
-5.90874
 20
271.798
 11
-5.02486
 21
272.164
  0
LINE
  8
0
 10
3.23517
 20
249.082
 11
3.60129
 21
249.966
  0
LINE
  8
0
 10
3.60129
 20
249.966
 11
3.23517
 21
250.85
  0
LINE
  8
0
 10
3.23517
 20
250.85
 11
2.35129
 21
251.216
  0
LINE
  8
0
 10
2.35129
 20
251.216
 11
1.46739
 21
250.85
  0
LINE
  8
0
 10
1.46739
 20
250.85
 11
1.10129
 21
249.966
  0
LINE
  8
0
 10
1.10129
 20
249.966
 11
1.46739
 21
249.082
  0
LINE
  8
0
 10
1.46739
 20
249.082
 11
2.35129
 21
248.716
  0
LINE
  8
0
 10
2.35129
 20
248.716
 11
3.23517
 21
249.082
  0
LINE
  8
0
 10
-4.90652
 20
224.834
 11
-4.54041
 21
225.718
  0
LINE
  8
0
 10
-4.54041
 20
225.718
 11
-4.90652
 21
226.602
  0
LINE
  8
0
 10
-4.90652
 20
226.602
 11
-5.79041
 21
226.968
  0
LINE
  8
0
 10
-5.79041
 20
226.968
 11
-6.6743
 21
226.602
  0
LINE
  8
0
 10
-6.6743
 20
226.602
 11
-7.04041
 21
225.718
  0
LINE
  8
0
 10
-7.04041
 20
225.718
 11
-6.6743
 21
224.834
  0
LINE
  8
0
 10
-6.6743
 20
224.834
 11
-5.79041
 21
224.468
  0
LINE
  8
0
 10
-5.79041
 20
224.468
 11
-4.90652
 21
224.834
  0
LINE
  8
0
 10
3.1098
 20
198.939
 11
3.47592
 21
199.823
  0
LINE
  8
0
 10
3.47592
 20
199.823
 11
3.1098
 21
200.706
  0
LINE
  8
0
 10
3.1098
 20
200.706
 11
2.22592
 21
201.073
  0
LINE
  8
0
 10
2.22592
 20
201.073
 11
1.34204
 21
200.706
  0
LINE
  8
0
 10
1.34204
 20
200.706
 11
0.975922
 21
199.823
  0
LINE
  8
0
 10
0.975922
 20
199.823
 11
1.34204
 21
198.939
  0
LINE
  8
0
 10
1.34204
 20
198.939
 11
2.22592
 21
198.573
  0
LINE
  8
0
 10
2.22592
 20
198.573
 11
3.1098
 21
198.939
  0
LINE
  8
0
 10
-4.77371
 20
171.709
 11
-4.40759
 21
172.593
  0
LINE
  8
0
 10
-4.40759
 20
172.593
 11
-4.77371
 21
173.477
  0
LINE
  8
0
 10
-4.77371
 20
173.477
 11
-5.65759
 21
173.843
  0
LINE
  8
0
 10
-5.65759
 20
173.843
 11
-6.54149
 21
173.477
  0
LINE
  8
0
 10
-6.54149
 20
173.477
 11
-6.90759
 21
172.593
  0
LINE
  8
0
 10
-6.90759
 20
172.593
 11
-6.54149
 21
171.709
  0
LINE
  8
0
 10
-6.54149
 20
171.709
 11
-5.65759
 21
171.343
  0
LINE
  8
0
 10
-5.65759
 20
171.343
 11
-4.77371
 21
171.709
  0
LINE
  8
0
 10
2.9691
 20
142.655
 11
3.33522
 21
143.539
  0
LINE
  8
0
 10
3.33522
 20
143.539
 11
2.9691
 21
144.423
  0
LINE
  8
0
 10
2.9691
 20
144.423
 11
2.08522
 21
144.789
  0
LINE
  8
0
 10
2.08522
 20
144.789
 11
1.20132
 21
144.423
  0
LINE
  8
0
 10
1.20132
 20
144.423
 11
0.83522
 21
143.539
  0
LINE
  8
0
 10
0.83522
 20
143.539
 11
1.20132
 21
142.655
  0
LINE
  8
0
 10
1.20132
 20
142.655
 11
2.08522
 21
142.289
  0
LINE
  8
0
 10
2.08522
 20
142.289
 11
2.9691
 21
142.655
  0
LINE
  8
0
 10
-4.62463
 20
112.079
 11
-4.25853
 21
112.963
  0
LINE
  8
0
 10
-4.25853
 20
112.963
 11
-4.62463
 21
113.846
  0
LINE
  8
0
 10
-4.62463
 20
113.846
 11
-5.50853
 21
114.213
  0
LINE
  8
0
 10
-5.50853
 20
114.213
 11
-6.39241
 21
113.846
  0
LINE
  8
0
 10
-6.39241
 20
113.846
 11
-6.75853
 21
112.963
  0
LINE
  8
0
 10
-6.75853
 20
112.963
 11
-6.39241
 21
112.079
  0
LINE
  8
0
 10
-6.39241
 20
112.079
 11
-5.50853
 21
111.713
  0
LINE
  8
0
 10
-5.50853
 20
111.713
 11
-4.62463
 21
112.079
  0
LINE
  8
0
 10
2.81116
 20
79.4786
 11
3.17728
 21
80.3624
  0
LINE
  8
0
 10
3.17728
 20
80.3624
 11
2.81116
 21
81.2463
  0
LINE
  8
0
 10
2.81116
 20
81.2463
 11
1.92728
 21
81.6124
  0
LINE
  8
0
 10
1.92728
 20
81.6124
 11
1.0434
 21
81.2463
  0
LINE
  8
0
 10
1.0434
 20
81.2463
 11
0.677277
 21
80.3624
  0
LINE
  8
0
 10
0.677277
 20
80.3624
 11
1.0434
 21
79.4786
  0
LINE
  8
0
 10
1.0434
 20
79.4786
 11
1.92728
 21
79.1124
  0
LINE
  8
0
 10
1.92728
 20
79.1124
 11
2.81116
 21
79.4786
  0
LINE
  8
0
 10
-4.45731
 20
45.146
 11
-4.09119
 21
46.0299
  0
LINE
  8
0
 10
-4.09119
 20
46.0299
 11
-4.45731
 21
46.9138
  0
LINE
  8
0
 10
-4.45731
 20
46.9138
 11
-5.34119
 21
47.2799
  0
LINE
  8
0
 10
-5.34119
 20
47.2799
 11
-6.22508
 21
46.9138
  0
LINE
  8
0
 10
-6.22508
 20
46.9138
 11
-6.59119
 21
46.0299
  0
LINE
  8
0
 10
-6.59119
 20
46.0299
 11
-6.22508
 21
45.146
  0
LINE
  8
0
 10
-6.22508
 20
45.146
 11
-5.34119
 21
44.7799
  0
LINE
  8
0
 10
-5.34119
 20
44.7799
 11
-4.45731
 21
45.146
  0
LINE
  8
0
 10
2.63388
 20
8.56612
 11
3
 21
9.45
  0
LINE
  8
0
 10
3
 20
9.45
 11
2.63388
 21
10.3339
  0
LINE
  8
0
 10
2.63388
 20
10.3339
 11
1.75
 21
10.7
  0
LINE
  8
0
 10
1.75
 20
10.7
 11
0.866104
 21
10.3339
  0
LINE
  8
0
 10
0.866104
 20
10.3339
 11
0.5
 21
9.45
  0
LINE
  8
0
 10
0.5
 20
9.45
 11
0.866104
 21
8.56612
  0
LINE
  8
0
 10
0.866104
 20
8.56612
 11
1.75
 21
8.2
  0
LINE
  8
0
 10
1.75
 20
8.2
 11
2.63388
 21
8.56612
  0
ENDSEC
  0
SECTION
  2
OBJECTS
  0
DICTIONARY
  0
ENDSEC
  0
EOF
