%TF.GenerationSoftware,KiCad,Pcbnew,5.1.9*%
%TF.CreationDate,2021-04-01T11:34:07+02:00*%
%TF.ProjectId,8soic-adapter,38736f69-632d-4616-9461-707465722e6b,rev?*%
%TF.SameCoordinates,PX14d5020PY1b5f530*%
%TF.FileFunction,Copper,L2,Bot*%
%TF.FilePolarity,Positive*%
%FSLAX46Y46*%
G04 Gerber Fmt 4.6, Leading zero omitted, Abs format (unit mm)*
G04 Created by KiCad (PCBNEW 5.1.9) date 2021-04-01 11:34:07*
%MOMM*%
%LPD*%
G01*
G04 APERTURE LIST*
%TA.AperFunction,ComponentPad*%
%ADD10C,1.750000*%
%TD*%
%TA.AperFunction,SMDPad,CuDef*%
%ADD11R,0.800000X1.600000*%
%TD*%
%TA.AperFunction,Conductor*%
%ADD12C,0.300000*%
%TD*%
G04 APERTURE END LIST*
D10*
%TO.P,REF\u002A\u002A,2*%
%TO.N,N/C*%
X2286000Y7112000D03*
%TO.P,REF\u002A\u002A,1*%
X2286000Y9652000D03*
%TO.P,REF\u002A\u002A,8*%
X9906000Y9652000D03*
%TO.P,REF\u002A\u002A,7*%
X9906000Y7112000D03*
%TO.P,REF\u002A\u002A,6*%
X9906000Y4572000D03*
%TO.P,REF\u002A\u002A,5*%
X9906000Y2032000D03*
%TO.P,REF\u002A\u002A,4*%
X2286000Y2032000D03*
%TO.P,REF\u002A\u002A,3*%
X2286000Y4572000D03*
D11*
%TO.P,REF\u002A\u002A,1*%
X4191000Y8255000D03*
%TO.P,REF\u002A\u002A,2*%
X5461000Y8255000D03*
%TO.P,REF\u002A\u002A,3*%
X6731000Y8255000D03*
%TO.P,REF\u002A\u002A,4*%
X8001000Y8255000D03*
%TO.P,REF\u002A\u002A,7*%
X5461000Y3429000D03*
%TO.P,REF\u002A\u002A,6*%
X6731000Y3429000D03*
%TO.P,REF\u002A\u002A,8*%
X4191000Y3429000D03*
%TO.P,REF\u002A\u002A,5*%
X8001000Y3429000D03*
%TD*%
D12*
%TO.N,*%
X3683000Y8255000D02*
X2286000Y9652000D01*
X4191000Y8255000D02*
X3683000Y8255000D01*
X5461000Y8255000D02*
X5461000Y6985000D01*
X5461000Y6985000D02*
X5080000Y6604000D01*
X2794000Y6604000D02*
X2286000Y7112000D01*
X5080000Y6604000D02*
X2794000Y6604000D01*
X6731000Y8255000D02*
X6731000Y6985000D01*
X6731000Y6985000D02*
X5588000Y5842000D01*
X3556000Y5842000D02*
X2286000Y4572000D01*
X5588000Y5842000D02*
X3556000Y5842000D01*
X8636000Y5842000D02*
X9906000Y7112000D01*
X7112000Y5842000D02*
X8636000Y5842000D01*
X5461000Y4191000D02*
X7112000Y5842000D01*
X5461000Y3429000D02*
X5461000Y4191000D01*
X6731000Y3429000D02*
X6731000Y4191000D01*
X6731000Y4191000D02*
X7366000Y4826000D01*
X9652000Y4826000D02*
X9906000Y4572000D01*
X7366000Y4826000D02*
X9652000Y4826000D01*
X8001000Y3429000D02*
X8001000Y2921000D01*
X8890000Y2032000D02*
X9906000Y2032000D01*
X8001000Y2921000D02*
X8890000Y2032000D01*
X4191000Y3429000D02*
X4191000Y1651000D01*
X4191000Y1651000D02*
X5334000Y508000D01*
X5334000Y508000D02*
X10922000Y508000D01*
X10922000Y508000D02*
X11684000Y1270000D01*
X11684000Y7874000D02*
X9906000Y9652000D01*
X11684000Y1270000D02*
X11684000Y7874000D01*
X8001000Y8255000D02*
X8001000Y9779000D01*
X8001000Y9779000D02*
X6350000Y11430000D01*
X6350000Y11430000D02*
X1270000Y11430000D01*
X1270000Y11430000D02*
X508000Y10668000D01*
X508000Y3810000D02*
X2286000Y2032000D01*
X508000Y10668000D02*
X508000Y3810000D01*
%TD*%
M02*
