<?xml version="1.0" standalone="no"?>
 <!DOCTYPE svg PUBLIC "-//W3C//DTD SVG 1.1//EN" 
 "http://www.w3.org/Graphics/SVG/1.1/DTD/svg11.dtd"> 
<svg
  xmlns:svg="http://www.w3.org/2000/svg"
  xmlns="http://www.w3.org/2000/svg"
  xmlns:xlink="http://www.w3.org/1999/xlink"
  version="1.1"
  width="16.200120cm" height="11.998960cm" viewBox="0 0 63780 47240">
<title>SVG Picture created as main-Edge_Cuts.svg date 2020/05/31 19:42:50 </title>
  <desc>Picture generated by PCBNEW </desc>
<g style="fill:#000000; fill-opacity:1;stroke:#000000; stroke-opacity:1;
stroke-linecap:round; stroke-linejoin:round;"
 transform="translate(0 0) scale(1 1)">
</g>
<g style="fill:#000000; fill-opacity:0.0; 
stroke:#000000; stroke-width:-0.000393701; stroke-opacity:1; 
stroke-linecap:round; stroke-linejoin:round;">
</g>
<g style="fill:#000000; fill-opacity:0.0; 
stroke:#000000; stroke-width:39.3701; stroke-opacity:1; 
stroke-linecap:round; stroke-linejoin:round;">
</g>
<g style="fill:#000000; fill-opacity:0.0; 
stroke:#000000; stroke-width:59.0551; stroke-opacity:1; 
stroke-linecap:round; stroke-linejoin:round;">
<rect x="16535.9" y="29917.2" width="42519.7" height="12598.4" rx="0" />
</g>
<g style="fill:#000000; fill-opacity:0.0; 
stroke:#000000; stroke-width:39.3701; stroke-opacity:1; 
stroke-linecap:round; stroke-linejoin:round;">
</g>
<g style="fill:#000000; fill-opacity:0.0; 
stroke:#000000; stroke-width:59.0551; stroke-opacity:1; 
stroke-linecap:round; stroke-linejoin:round;">
<rect x="3937.01" y="3937.01" width="55906" height="39366" rx="0" />
</g>
<g style="fill:#000000; fill-opacity:0.0; 
stroke:#000000; stroke-width:39.3701; stroke-opacity:1; 
stroke-linecap:round; stroke-linejoin:round;">
</g>
<g style="fill:#000000; fill-opacity:0.0; 
stroke:#000000; stroke-width:59.0551; stroke-opacity:1; 
stroke-linecap:round; stroke-linejoin:round;">
<rect x="4724.41" y="4724.41" width="54331.2" height="37791.2" rx="0" />
</g>
<g style="fill:#000000; fill-opacity:0.0; 
stroke:#000000; stroke-width:39.3701; stroke-opacity:1; 
stroke-linecap:round; stroke-linejoin:round;">
</g>
<g style="fill:#000000; fill-opacity:0.0; 
stroke:#000000; stroke-width:59.0551; stroke-opacity:1; 
stroke-linecap:round; stroke-linejoin:round;">
<path d="M23622 4724
L23622 3937
" />
</g>
<g style="fill:#000000; fill-opacity:0.0; 
stroke:#000000; stroke-width:39.3701; stroke-opacity:1; 
stroke-linecap:round; stroke-linejoin:round;">
</g>
<g style="fill:#000000; fill-opacity:0.0; 
stroke:#000000; stroke-width:59.0551; stroke-opacity:1; 
stroke-linecap:round; stroke-linejoin:round;">
<path d="M43307 4724
L43307 3937
" />
</g>
<g style="fill:#000000; fill-opacity:0.0; 
stroke:#000000; stroke-width:39.3701; stroke-opacity:1; 
stroke-linecap:round; stroke-linejoin:round;">
</g>
<g style="fill:#000000; fill-opacity:0.0; 
stroke:#000000; stroke-width:59.0551; stroke-opacity:1; 
stroke-linecap:round; stroke-linejoin:round;">
<text x="13779.5" y="4586.61"
textLength="546.494" font-size="682.415" lengthAdjust="spacingAndGlyphs"
text-anchor="start" opacity="0">1</text>
<path d="M14199 4562
L13906 4562
" />
<path d="M14052 4562
L14052 4050
L14004 4123
L13955 4172
L13906 4196
" />
</g>
<g style="fill:#000000; fill-opacity:0.0; 
stroke:#000000; stroke-width:39.3701; stroke-opacity:1; 
stroke-linecap:round; stroke-linejoin:round;">
</g>
<g style="fill:#000000; fill-opacity:0.0; 
stroke:#000000; stroke-width:59.0551; stroke-opacity:1; 
stroke-linecap:round; stroke-linejoin:round;">
<text x="33464.6" y="4586.61"
textLength="546.494" font-size="682.415" lengthAdjust="spacingAndGlyphs"
text-anchor="start" opacity="0">2</text>
<path d="M33591 4099
L33615 4074
L33664 4050
L33786 4050
L33835 4074
L33859 4099
L33884 4147
L33884 4196
L33859 4269
L33567 4562
L33884 4562
" />
</g>
<g style="fill:#000000; fill-opacity:0.0; 
stroke:#000000; stroke-width:39.3701; stroke-opacity:1; 
stroke-linecap:round; stroke-linejoin:round;">
</g>
<g style="fill:#000000; fill-opacity:0.0; 
stroke:#000000; stroke-width:59.0551; stroke-opacity:1; 
stroke-linecap:round; stroke-linejoin:round;">
<text x="53149.6" y="4586.61"
textLength="546.494" font-size="682.415" lengthAdjust="spacingAndGlyphs"
text-anchor="start" opacity="0">3</text>
<path d="M53252 4050
L53569 4050
L53398 4245
L53471 4245
L53520 4269
L53544 4294
L53569 4342
L53569 4464
L53544 4513
L53520 4537
L53471 4562
L53325 4562
L53276 4537
L53252 4513
" />
</g>
<g style="fill:#000000; fill-opacity:0.0; 
stroke:#000000; stroke-width:39.3701; stroke-opacity:1; 
stroke-linecap:round; stroke-linejoin:round;">
</g>
<g style="fill:#000000; fill-opacity:0.0; 
stroke:#000000; stroke-width:59.0551; stroke-opacity:1; 
stroke-linecap:round; stroke-linejoin:round;">
<path d="M23622 42515
L23622 43302
" />
</g>
<g style="fill:#000000; fill-opacity:0.0; 
stroke:#000000; stroke-width:39.3701; stroke-opacity:1; 
stroke-linecap:round; stroke-linejoin:round;">
</g>
<g style="fill:#000000; fill-opacity:0.0; 
stroke:#000000; stroke-width:59.0551; stroke-opacity:1; 
stroke-linecap:round; stroke-linejoin:round;">
<path d="M43307 42515
L43307 43302
" />
</g>
<g style="fill:#000000; fill-opacity:0.0; 
stroke:#000000; stroke-width:39.3701; stroke-opacity:1; 
stroke-linecap:round; stroke-linejoin:round;">
</g>
<g style="fill:#000000; fill-opacity:0.0; 
stroke:#000000; stroke-width:59.0551; stroke-opacity:1; 
stroke-linecap:round; stroke-linejoin:round;">
<text x="13779.5" y="43165.2"
textLength="546.494" font-size="682.415" lengthAdjust="spacingAndGlyphs"
text-anchor="start" opacity="0">1</text>
<path d="M14199 43140
L13906 43140
" />
<path d="M14052 43140
L14052 42629
L14004 42702
L13955 42750
L13906 42775
" />
</g>
<g style="fill:#000000; fill-opacity:0.0; 
stroke:#000000; stroke-width:39.3701; stroke-opacity:1; 
stroke-linecap:round; stroke-linejoin:round;">
</g>
<g style="fill:#000000; fill-opacity:0.0; 
stroke:#000000; stroke-width:59.0551; stroke-opacity:1; 
stroke-linecap:round; stroke-linejoin:round;">
<text x="33464.6" y="43165.2"
textLength="546.494" font-size="682.415" lengthAdjust="spacingAndGlyphs"
text-anchor="start" opacity="0">2</text>
<path d="M33591 42677
L33615 42653
L33664 42629
L33786 42629
L33835 42653
L33859 42677
L33884 42726
L33884 42775
L33859 42848
L33567 43140
L33884 43140
" />
</g>
<g style="fill:#000000; fill-opacity:0.0; 
stroke:#000000; stroke-width:39.3701; stroke-opacity:1; 
stroke-linecap:round; stroke-linejoin:round;">
</g>
<g style="fill:#000000; fill-opacity:0.0; 
stroke:#000000; stroke-width:59.0551; stroke-opacity:1; 
stroke-linecap:round; stroke-linejoin:round;">
<text x="53149.6" y="43165.2"
textLength="546.494" font-size="682.415" lengthAdjust="spacingAndGlyphs"
text-anchor="start" opacity="0">3</text>
<path d="M53252 42629
L53569 42629
L53398 42823
L53471 42823
L53520 42848
L53544 42872
L53569 42921
L53569 43043
L53544 43092
L53520 43116
L53471 43140
L53325 43140
L53276 43116
L53252 43092
" />
</g>
<g style="fill:#000000; fill-opacity:0.0; 
stroke:#000000; stroke-width:39.3701; stroke-opacity:1; 
stroke-linecap:round; stroke-linejoin:round;">
</g>
<g style="fill:#000000; fill-opacity:0.0; 
stroke:#000000; stroke-width:59.0551; stroke-opacity:1; 
stroke-linecap:round; stroke-linejoin:round;">
<path d="M3937 23622
L4724 23622
" />
</g>
<g style="fill:#000000; fill-opacity:0.0; 
stroke:#000000; stroke-width:39.3701; stroke-opacity:1; 
stroke-linecap:round; stroke-linejoin:round;">
</g>
<g style="fill:#000000; fill-opacity:0.0; 
stroke:#000000; stroke-width:59.0551; stroke-opacity:1; 
stroke-linecap:round; stroke-linejoin:round;">
<text x="4330.71" y="14035.4"
textLength="497.75" font-size="682.415" lengthAdjust="spacingAndGlyphs"
text-anchor="middle" opacity="0">A</text>
<path d="M4208 13864
L4452 13864
" />
<path d="M4160 14011
L4330 13499
L4501 14011
" />
</g>
<g style="fill:#000000; fill-opacity:0.0; 
stroke:#000000; stroke-width:39.3701; stroke-opacity:1; 
stroke-linecap:round; stroke-linejoin:round;">
</g>
<g style="fill:#000000; fill-opacity:0.0; 
stroke:#000000; stroke-width:59.0551; stroke-opacity:1; 
stroke-linecap:round; stroke-linejoin:round;">
<text x="4330.71" y="33720.5"
textLength="570.866" font-size="682.415" lengthAdjust="spacingAndGlyphs"
text-anchor="middle" opacity="0">B</text>
<path d="M4367 33428
L4440 33452
L4464 33476
L4489 33525
L4489 33598
L4464 33647
L4440 33671
L4391 33696
L4196 33696
L4196 33184
L4367 33184
L4416 33208
L4440 33233
L4464 33281
L4464 33330
L4440 33379
L4416 33403
L4367 33428
L4196 33428
" />
</g>
<g style="fill:#000000; fill-opacity:0.0; 
stroke:#000000; stroke-width:39.3701; stroke-opacity:1; 
stroke-linecap:round; stroke-linejoin:round;">
</g>
<g style="fill:#000000; fill-opacity:0.0; 
stroke:#000000; stroke-width:59.0551; stroke-opacity:1; 
stroke-linecap:round; stroke-linejoin:round;">
<path d="M59842 23622
L59055 23622
" />
</g>
<g style="fill:#000000; fill-opacity:0.0; 
stroke:#000000; stroke-width:39.3701; stroke-opacity:1; 
stroke-linecap:round; stroke-linejoin:round;">
</g>
<g style="fill:#000000; fill-opacity:0.0; 
stroke:#000000; stroke-width:59.0551; stroke-opacity:1; 
stroke-linecap:round; stroke-linejoin:round;">
<text x="59449.3" y="14035.4"
textLength="497.75" font-size="682.415" lengthAdjust="spacingAndGlyphs"
text-anchor="middle" opacity="0">A</text>
<path d="M59327 13864
L59571 13864
" />
<path d="M59278 14011
L59449 13499
L59619 14011
" />
</g>
<g style="fill:#000000; fill-opacity:0.0; 
stroke:#000000; stroke-width:39.3701; stroke-opacity:1; 
stroke-linecap:round; stroke-linejoin:round;">
</g>
<g style="fill:#000000; fill-opacity:0.0; 
stroke:#000000; stroke-width:59.0551; stroke-opacity:1; 
stroke-linecap:round; stroke-linejoin:round;">
<text x="59449.3" y="33720.5"
textLength="570.866" font-size="682.415" lengthAdjust="spacingAndGlyphs"
text-anchor="middle" opacity="0">B</text>
<path d="M59485 33428
L59558 33452
L59583 33476
L59607 33525
L59607 33598
L59583 33647
L59558 33671
L59510 33696
L59315 33696
L59315 33184
L59485 33184
L59534 33208
L59558 33233
L59583 33281
L59583 33330
L59558 33379
L59534 33403
L59485 33428
L59315 33428
" />
</g>
<g style="fill:#000000; fill-opacity:0.0; 
stroke:#000000; stroke-width:39.3701; stroke-opacity:1; 
stroke-linecap:round; stroke-linejoin:round;">
</g>
<g style="fill:#000000; fill-opacity:0.0; 
stroke:#000000; stroke-width:59.0551; stroke-opacity:1; 
stroke-linecap:round; stroke-linejoin:round;">
<text x="25591" y="40881.7"
textLength="2758.72" font-size="787.402" lengthAdjust="spacingAndGlyphs"
text-anchor="start" opacity="0">Date: </text>
<path d="M25761 40853
L25761 40263
L25901 40263
L25986 40291
L26042 40347
L26070 40403
L26098 40516
L26098 40600
L26070 40713
L26042 40769
L25986 40825
L25901 40853
L25761 40853
" />
<path d="M26604 40853
L26604 40544
L26576 40488
L26520 40459
L26407 40459
L26351 40488
" />
<path d="M26604 40825
L26548 40853
L26407 40853
L26351 40825
L26323 40769
L26323 40713
L26351 40656
L26407 40628
L26548 40628
L26604 40600
" />
<path d="M26801 40459
L27026 40459
" />
<path d="M26886 40263
L26886 40769
L26914 40825
L26970 40853
L27026 40853
" />
<path d="M27448 40825
L27392 40853
L27279 40853
L27223 40825
L27195 40769
L27195 40544
L27223 40488
L27279 40459
L27392 40459
L27448 40488
L27476 40544
L27476 40600
L27195 40656
" />
<path d="M27729 40797
L27757 40825
L27729 40853
L27701 40825
L27729 40797
L27729 40853
" />
<path d="M27729 40488
L27757 40516
L27729 40544
L27701 40516
L27729 40488
L27729 40544
" />
</g>
<g style="fill:#000000; fill-opacity:0.0; 
stroke:#000000; stroke-width:39.3701; stroke-opacity:1; 
stroke-linecap:round; stroke-linejoin:round;">
</g>
<g style="fill:#000000; fill-opacity:0.0; 
stroke:#000000; stroke-width:59.0551; stroke-opacity:1; 
stroke-linecap:round; stroke-linejoin:round;">
<path d="M16535 41137
L59055 41137
" />
</g>
<g style="fill:#000000; fill-opacity:0.0; 
stroke:#000000; stroke-width:39.3701; stroke-opacity:1; 
stroke-linecap:round; stroke-linejoin:round;">
</g>
<g style="fill:#000000; fill-opacity:0.0; 
stroke:#000000; stroke-width:59.0551; stroke-opacity:1; 
stroke-linecap:round; stroke-linejoin:round;">
<text x="16929.6" y="41984.1"
textLength="13529.2" font-size="787.402" lengthAdjust="spacingAndGlyphs"
text-anchor="start" opacity="0">KiCad E.D.A.  kicad (5.1.6)-1</text>
<path d="M17099 41955
L17099 41365
" />
<path d="M17437 41955
L17184 41618
" />
<path d="M17437 41365
L17099 41702
" />
<path d="M17690 41955
L17690 41562
" />
<path d="M17690 41365
L17662 41393
L17690 41421
L17718 41393
L17690 41365
L17690 41421
" />
<path d="M18308 41899
L18280 41927
L18196 41955
L18140 41955
L18055 41927
L17999 41871
L17971 41815
L17943 41702
L17943 41618
L17971 41506
L17999 41449
L18055 41393
L18140 41365
L18196 41365
L18280 41393
L18308 41421
" />
<path d="M18815 41955
L18815 41646
L18787 41590
L18730 41562
L18618 41562
L18562 41590
" />
<path d="M18815 41927
L18758 41955
L18618 41955
L18562 41927
L18533 41871
L18533 41815
L18562 41759
L18618 41731
L18758 41731
L18815 41702
" />
<path d="M19349 41955
L19349 41365
" />
<path d="M19349 41927
L19293 41955
L19180 41955
L19124 41927
L19096 41899
L19068 41843
L19068 41674
L19096 41618
L19124 41590
L19180 41562
L19293 41562
L19349 41590
" />
<path d="M20080 41646
L20277 41646
" />
<path d="M20361 41955
L20080 41955
L20080 41365
L20361 41365
" />
<path d="M20614 41899
L20643 41927
L20614 41955
L20586 41927
L20614 41899
L20614 41955
" />
<path d="M20896 41955
L20896 41365
L21036 41365
L21121 41393
L21177 41449
L21205 41506
L21233 41618
L21233 41702
L21205 41815
L21177 41871
L21121 41927
L21036 41955
L20896 41955
" />
<path d="M21486 41899
L21514 41927
L21486 41955
L21458 41927
L21486 41899
L21486 41955
" />
<path d="M21739 41787
L22021 41787
" />
<path d="M21683 41955
L21880 41365
L22077 41955
" />
<path d="M22274 41899
L22302 41927
L22274 41955
L22245 41927
L22274 41899
L22274 41955
" />
<path d="M23455 41955
L23455 41365
" />
<path d="M23511 41731
L23680 41955
" />
<path d="M23680 41562
L23455 41787
" />
<path d="M23933 41955
L23933 41562
" />
<path d="M23933 41365
L23905 41393
L23933 41421
L23961 41393
L23933 41365
L23933 41421
" />
<path d="M24467 41927
L24411 41955
L24298 41955
L24242 41927
L24214 41899
L24186 41843
L24186 41674
L24214 41618
L24242 41590
L24298 41562
L24411 41562
L24467 41590
" />
<path d="M24973 41955
L24973 41646
L24945 41590
L24889 41562
L24776 41562
L24720 41590
" />
<path d="M24973 41927
L24917 41955
L24776 41955
L24720 41927
L24692 41871
L24692 41815
L24720 41759
L24776 41731
L24917 41731
L24973 41702
" />
<path d="M25508 41955
L25508 41365
" />
<path d="M25508 41927
L25451 41955
L25339 41955
L25283 41927
L25254 41899
L25226 41843
L25226 41674
L25254 41618
L25283 41590
L25339 41562
L25451 41562
L25508 41590
" />
<path d="M26407 42180
L26379 42152
L26323 42068
L26295 42012
L26267 41927
L26239 41787
L26239 41674
L26267 41534
L26295 41449
L26323 41393
L26379 41309
L26407 41281
" />
<path d="M26914 41365
L26632 41365
L26604 41646
L26632 41618
L26689 41590
L26829 41590
L26886 41618
L26914 41646
L26942 41702
L26942 41843
L26914 41899
L26886 41927
L26829 41955
L26689 41955
L26632 41927
L26604 41899
" />
<path d="M27195 41899
L27223 41927
L27195 41955
L27167 41927
L27195 41899
L27195 41955
" />
<path d="M27785 41955
L27448 41955
" />
<path d="M27617 41955
L27617 41365
L27560 41449
L27504 41506
L27448 41534
" />
<path d="M28038 41899
L28067 41927
L28038 41955
L28010 41927
L28038 41899
L28038 41955
" />
<path d="M28573 41365
L28460 41365
L28404 41393
L28376 41421
L28320 41506
L28292 41618
L28292 41843
L28320 41899
L28348 41927
L28404 41955
L28517 41955
L28573 41927
L28601 41899
L28629 41843
L28629 41702
L28601 41646
L28573 41618
L28517 41590
L28404 41590
L28348 41618
L28320 41646
L28292 41702
" />
<path d="M28826 42180
L28854 42152
L28910 42068
L28938 42012
L28967 41927
L28995 41787
L28995 41674
L28967 41534
L28938 41449
L28910 41393
L28854 41309
L28826 41281
" />
<path d="M29276 41731
L29726 41731
" />
<path d="M30316 41955
L29979 41955
" />
<path d="M30148 41955
L30148 41365
L30091 41449
L30035 41506
L29979 41534
" />
</g>
<g style="fill:#000000; fill-opacity:0.0; 
stroke:#000000; stroke-width:39.3701; stroke-opacity:1; 
stroke-linecap:round; stroke-linejoin:round;">
</g>
<g style="fill:#000000; fill-opacity:0.0; 
stroke:#000000; stroke-width:59.0551; stroke-opacity:1; 
stroke-linecap:round; stroke-linejoin:round;">
<path d="M16535 39956
L59055 39956
" />
</g>
<g style="fill:#000000; fill-opacity:0.0; 
stroke:#000000; stroke-width:39.3701; stroke-opacity:1; 
stroke-linecap:round; stroke-linejoin:round;">
</g>
<g style="fill:#000000; fill-opacity:0.0; 
stroke:#000000; stroke-width:118.11; stroke-opacity:1; 
stroke-linecap:round; stroke-linejoin:round;">
<text x="50394.2" y="40881.7"
textLength="2336.9" font-size="787.402" lengthAdjust="spacingAndGlyphs"
text-anchor="start" opacity="0">Rev: </text>
<path d="M50949 40853
L50752 40572
" />
<path d="M50611 40853
L50611 40263
L50836 40263
L50892 40291
L50920 40319
L50949 40375
L50949 40459
L50920 40516
L50892 40544
L50836 40572
L50611 40572
" />
<path d="M51427 40825
L51370 40853
L51258 40853
L51202 40825
L51173 40769
L51173 40544
L51202 40488
L51258 40459
L51370 40459
L51427 40488
L51455 40544
L51455 40600
L51173 40656
" />
<path d="M51652 40459
L51792 40853
L51933 40459
" />
<path d="M52158 40797
L52186 40825
L52158 40853
L52130 40825
L52158 40797
L52158 40853
" />
<path d="M52158 40488
L52186 40516
L52158 40544
L52130 40516
L52158 40488
L52158 40544
" />
</g>
<g style="fill:#000000; fill-opacity:0.0; 
stroke:#000000; stroke-width:39.3701; stroke-opacity:1; 
stroke-linecap:round; stroke-linejoin:round;">
</g>
<g style="fill:#000000; fill-opacity:0.0; 
stroke:#000000; stroke-width:59.0551; stroke-opacity:1; 
stroke-linecap:round; stroke-linejoin:round;">
<text x="16929.6" y="40881.7"
textLength="4681.1" font-size="787.402" lengthAdjust="spacingAndGlyphs"
text-anchor="start" opacity="0">Size: User</text>
<path d="M17071 40825
L17155 40853
L17296 40853
L17352 40825
L17380 40797
L17409 40741
L17409 40684
L17380 40628
L17352 40600
L17296 40572
L17184 40544
L17127 40516
L17099 40488
L17071 40431
L17071 40375
L17099 40319
L17127 40291
L17184 40263
L17324 40263
L17409 40291
" />
<path d="M17662 40853
L17662 40459
" />
<path d="M17662 40263
L17634 40291
L17662 40319
L17690 40291
L17662 40263
L17662 40319
" />
<path d="M17887 40459
L18196 40459
L17887 40853
L18196 40853
" />
<path d="M18646 40825
L18590 40853
L18477 40853
L18421 40825
L18393 40769
L18393 40544
L18421 40488
L18477 40459
L18590 40459
L18646 40488
L18674 40544
L18674 40600
L18393 40656
" />
<path d="M18927 40797
L18955 40825
L18927 40853
L18899 40825
L18927 40797
L18927 40853
" />
<path d="M18927 40488
L18955 40516
L18927 40544
L18899 40516
L18927 40488
L18927 40544
" />
<path d="M19658 40263
L19658 40741
L19686 40797
L19715 40825
L19771 40853
L19883 40853
L19940 40825
L19968 40797
L19996 40741
L19996 40263
" />
<path d="M20249 40825
L20305 40853
L20418 40853
L20474 40825
L20502 40769
L20502 40741
L20474 40684
L20418 40656
L20333 40656
L20277 40628
L20249 40572
L20249 40544
L20277 40488
L20333 40459
L20418 40459
L20474 40488
" />
<path d="M20980 40825
L20924 40853
L20811 40853
L20755 40825
L20727 40769
L20727 40544
L20755 40488
L20811 40459
L20924 40459
L20980 40488
L21008 40544
L21008 40600
L20727 40656
" />
<path d="M21261 40853
L21261 40459
" />
<path d="M21261 40572
L21289 40516
L21317 40488
L21374 40459
L21430 40459
" />
</g>
<g style="fill:#000000; fill-opacity:0.0; 
stroke:#000000; stroke-width:39.3701; stroke-opacity:1; 
stroke-linecap:round; stroke-linejoin:round;">
</g>
<g style="fill:#000000; fill-opacity:0.0; 
stroke:#000000; stroke-width:59.0551; stroke-opacity:1; 
stroke-linecap:round; stroke-linejoin:round;">
<text x="50394.2" y="41984.1"
textLength="3349.27" font-size="787.402" lengthAdjust="spacingAndGlyphs"
text-anchor="start" opacity="0">Id: 1/1</text>
<path d="M50564 41955
L50564 41365
" />
<path d="M51098 41955
L51098 41365
" />
<path d="M51098 41927
L51042 41955
L50929 41955
L50873 41927
L50845 41899
L50817 41843
L50817 41674
L50845 41618
L50873 41590
L50929 41562
L51042 41562
L51098 41590
" />
<path d="M51379 41899
L51407 41927
L51379 41955
L51351 41927
L51379 41899
L51379 41955
" />
<path d="M51379 41590
L51407 41618
L51379 41646
L51351 41618
L51379 41590
L51379 41646
" />
<path d="M52420 41955
L52082 41955
" />
<path d="M52251 41955
L52251 41365
L52195 41449
L52139 41506
L52082 41534
" />
<path d="M53095 41337
L52589 42096
" />
<path d="M53601 41955
L53263 41955
" />
<path d="M53432 41955
L53432 41365
L53376 41449
L53320 41506
L53263 41534
" />
</g>
<g style="fill:#000000; fill-opacity:0.0; 
stroke:#000000; stroke-width:39.3701; stroke-opacity:1; 
stroke-linecap:round; stroke-linejoin:round;">
</g>
<g style="fill:#000000; fill-opacity:0.0; 
stroke:#000000; stroke-width:59.0551; stroke-opacity:1; 
stroke-linecap:round; stroke-linejoin:round;">
<path d="M16535 38381
L59055 38381
" />
</g>
<g style="fill:#000000; fill-opacity:0.0; 
stroke:#000000; stroke-width:39.3701; stroke-opacity:1; 
stroke-linecap:round; stroke-linejoin:round;">
</g>
<g style="fill:#000000; fill-opacity:0.0; 
stroke:#000000; stroke-width:157.48; stroke-opacity:1; 
stroke-linecap:round; stroke-linejoin:round;">
<text x="16929.6" y="39484.1"
textLength="3701.14" font-size="1049.87" lengthAdjust="spacingAndGlyphs"
text-anchor="start" opacity="0">Title: </text>
<path d="M17210 38659
L17660 38659
" />
<path d="M17336 39446
L17435 38659
" />
<path d="M17824 39446
L17889 38921
" />
<path d="M17922 38659
L17880 38696
L17913 38734
L17955 38696
L17922 38659
L17913 38734
" />
<path d="M18152 38921
L18452 38921
" />
<path d="M18297 38659
L18213 39334
L18241 39409
L18311 39446
L18386 39446
" />
<path d="M18761 39446
L18691 39409
L18663 39334
L18747 38659
" />
<path d="M19366 39409
L19286 39446
L19136 39446
L19066 39409
L19037 39334
L19075 39034
L19122 38959
L19202 38921
L19351 38921
L19422 38959
L19450 39034
L19441 39109
L19056 39184
" />
<path d="M19745 39371
L19778 39409
L19736 39446
L19703 39409
L19745 39371
L19736 39446
" />
<path d="M19797 38959
L19830 38996
L19787 39034
L19755 38996
L19797 38959
L19787 39034
" />
</g>
<g style="fill:#000000; fill-opacity:0.0; 
stroke:#000000; stroke-width:39.3701; stroke-opacity:1; 
stroke-linecap:round; stroke-linejoin:round;">
</g>
<g style="fill:#000000; fill-opacity:0.0; 
stroke:#000000; stroke-width:59.0551; stroke-opacity:1; 
stroke-linecap:round; stroke-linejoin:round;">
<text x="16929.6" y="37968.3"
textLength="9316.09" font-size="787.402" lengthAdjust="spacingAndGlyphs"
text-anchor="start" opacity="0">File: main.kicad_pcb</text>
<path d="M17296 37630
L17099 37630
" />
<path d="M17099 37940
L17099 37349
L17380 37349
" />
<path d="M17605 37940
L17605 37546
" />
<path d="M17605 37349
L17577 37377
L17605 37405
L17634 37377
L17605 37349
L17605 37405
" />
<path d="M17971 37940
L17915 37912
L17887 37855
L17887 37349
" />
<path d="M18421 37912
L18365 37940
L18252 37940
L18196 37912
L18168 37855
L18168 37630
L18196 37574
L18252 37546
L18365 37546
L18421 37574
L18449 37630
L18449 37687
L18168 37743
" />
<path d="M18702 37883
L18730 37912
L18702 37940
L18674 37912
L18702 37883
L18702 37940
" />
<path d="M18702 37574
L18730 37602
L18702 37630
L18674 37602
L18702 37574
L18702 37630
" />
<path d="M19433 37940
L19433 37546
" />
<path d="M19433 37602
L19461 37574
L19518 37546
L19602 37546
L19658 37574
L19686 37630
L19686 37940
" />
<path d="M19686 37630
L19715 37574
L19771 37546
L19855 37546
L19911 37574
L19940 37630
L19940 37940
" />
<path d="M20474 37940
L20474 37630
L20446 37574
L20389 37546
L20277 37546
L20221 37574
" />
<path d="M20474 37912
L20418 37940
L20277 37940
L20221 37912
L20193 37855
L20193 37799
L20221 37743
L20277 37715
L20418 37715
L20474 37687
" />
<path d="M20755 37940
L20755 37546
" />
<path d="M20755 37349
L20727 37377
L20755 37405
L20783 37377
L20755 37349
L20755 37405
" />
<path d="M21036 37546
L21036 37940
" />
<path d="M21036 37602
L21064 37574
L21121 37546
L21205 37546
L21261 37574
L21289 37630
L21289 37940
" />
<path d="M21571 37883
L21599 37912
L21571 37940
L21542 37912
L21571 37883
L21571 37940
" />
<path d="M21852 37940
L21852 37349
" />
<path d="M21908 37715
L22077 37940
" />
<path d="M22077 37546
L21852 37771
" />
<path d="M22330 37940
L22330 37546
" />
<path d="M22330 37349
L22302 37377
L22330 37405
L22358 37377
L22330 37349
L22330 37405
" />
<path d="M22864 37912
L22808 37940
L22695 37940
L22639 37912
L22611 37883
L22583 37827
L22583 37659
L22611 37602
L22639 37574
L22695 37546
L22808 37546
L22864 37574
" />
<path d="M23370 37940
L23370 37630
L23342 37574
L23286 37546
L23173 37546
L23117 37574
" />
<path d="M23370 37912
L23314 37940
L23173 37940
L23117 37912
L23089 37855
L23089 37799
L23117 37743
L23173 37715
L23314 37715
L23370 37687
" />
<path d="M23905 37940
L23905 37349
" />
<path d="M23905 37912
L23848 37940
L23736 37940
L23680 37912
L23652 37883
L23623 37827
L23623 37659
L23652 37602
L23680 37574
L23736 37546
L23848 37546
L23905 37574
" />
<path d="M24045 37996
L24495 37996
" />
<path d="M24636 37546
L24636 38137
" />
<path d="M24636 37574
L24692 37546
L24805 37546
L24861 37574
L24889 37602
L24917 37659
L24917 37827
L24889 37883
L24861 37912
L24805 37940
L24692 37940
L24636 37912
" />
<path d="M25423 37912
L25367 37940
L25254 37940
L25198 37912
L25170 37883
L25142 37827
L25142 37659
L25170 37602
L25198 37574
L25254 37546
L25367 37546
L25423 37574
" />
<path d="M25676 37940
L25676 37349
" />
<path d="M25676 37574
L25733 37546
L25845 37546
L25901 37574
L25929 37602
L25958 37659
L25958 37827
L25929 37883
L25901 37912
L25845 37940
L25733 37940
L25676 37912
" />
</g>
<g style="fill:#000000; fill-opacity:0.0; 
stroke:#000000; stroke-width:39.3701; stroke-opacity:1; 
stroke-linecap:round; stroke-linejoin:round;">
</g>
<g style="fill:#000000; fill-opacity:0.0; 
stroke:#000000; stroke-width:59.0551; stroke-opacity:1; 
stroke-linecap:round; stroke-linejoin:round;">
<path d="M16535 36019
L59055 36019
" />
</g>
<g style="fill:#000000; fill-opacity:0.0; 
stroke:#000000; stroke-width:39.3701; stroke-opacity:1; 
stroke-linecap:round; stroke-linejoin:round;">
</g>
<g style="fill:#000000; fill-opacity:0.0; 
stroke:#000000; stroke-width:59.0551; stroke-opacity:1; 
stroke-linecap:round; stroke-linejoin:round;">
<text x="16929.6" y="36905.4"
textLength="3236.78" font-size="787.402" lengthAdjust="spacingAndGlyphs"
text-anchor="start" opacity="0">Sheet: </text>
<path d="M17071 36849
L17155 36877
L17296 36877
L17352 36849
L17380 36820
L17409 36764
L17409 36708
L17380 36652
L17352 36624
L17296 36596
L17184 36567
L17127 36539
L17099 36511
L17071 36455
L17071 36399
L17099 36342
L17127 36314
L17184 36286
L17324 36286
L17409 36314
" />
<path d="M17662 36877
L17662 36286
" />
<path d="M17915 36877
L17915 36567
L17887 36511
L17830 36483
L17746 36483
L17690 36511
L17662 36539
" />
<path d="M18421 36849
L18365 36877
L18252 36877
L18196 36849
L18168 36792
L18168 36567
L18196 36511
L18252 36483
L18365 36483
L18421 36511
L18449 36567
L18449 36624
L18168 36680
" />
<path d="M18927 36849
L18871 36877
L18758 36877
L18702 36849
L18674 36792
L18674 36567
L18702 36511
L18758 36483
L18871 36483
L18927 36511
L18955 36567
L18955 36624
L18674 36680
" />
<path d="M19124 36483
L19349 36483
" />
<path d="M19208 36286
L19208 36792
L19236 36849
L19293 36877
L19349 36877
" />
<path d="M19546 36820
L19574 36849
L19546 36877
L19518 36849
L19546 36820
L19546 36877
" />
<path d="M19546 36511
L19574 36539
L19546 36567
L19518 36539
L19546 36511
L19546 36567
" />
</g>
<g style="fill:#000000; fill-opacity:0.0; 
stroke:#000000; stroke-width:39.3701; stroke-opacity:1; 
stroke-linecap:round; stroke-linejoin:round;">
</g>
<g style="fill:#000000; fill-opacity:0.0; 
stroke:#000000; stroke-width:59.0551; stroke-opacity:1; 
stroke-linecap:round; stroke-linejoin:round;">
<path d="M24409 39956
L24409 41137
" />
</g>
<g style="fill:#000000; fill-opacity:0.0; 
stroke:#000000; stroke-width:39.3701; stroke-opacity:1; 
stroke-linecap:round; stroke-linejoin:round;">
</g>
<g style="fill:#000000; fill-opacity:0.0; 
stroke:#000000; stroke-width:59.0551; stroke-opacity:1; 
stroke-linecap:round; stroke-linejoin:round;">
<path d="M49606 39956
L49606 42515
" />
</g>
<g style="fill:#C2C200; fill-opacity:0.0; 
stroke:#C2C200; stroke-width:59.0551; stroke-opacity:1; 
stroke-linecap:round; stroke-linejoin:round;">
</g>
<g style="fill:#C2C200; fill-opacity:0.0; 
stroke:#C2C200; stroke-width:78.7402; stroke-opacity:1; 
stroke-linecap:round; stroke-linejoin:round;">
<path d="M4543 31806
L4430 31383
" />
<path d="M34833 39006
L34410 39119
" />
<path d="M33563 38273
L33677 37850
" />
<path d="M65483 39006
L65173 38696
" />
<path d="M66639 38696
L66329 39006
" />
<path d="M33987 39006
L33677 38696
" />
<path d="M4853 32116
L4543 31806
" />
<path d="M35143 38696
L34833 39006
" />
<path d="M4430 31383
L4543 30960
" />
<path d="M66639 37850
L66752 38273
" />
<path d="M33677 37850
L33987 37540
" />
<path d="M5276 32229
L4853 32116
" />
<path d="M4543 30960
L4853 30650
" />
<path d="M65173 38696
L65060 38273
" />
<path d="M66752 38273
L66639 38696
" />
<path d="M65060 38273
L65173 37850
" />
<path d="M5276 30537
L5699 30650
" />
<path d="M4853 30650
L5276 30537
" />
<path d="M65173 37850
L65483 37540
" />
<path d="M65906 37426
L66329 37540
" />
<path d="M5699 32116
L5276 32229
" />
<path d="M33677 38696
L33563 38273
" />
<path d="M6009 30960
L6122 31383
" />
<path d="M6009 31806
L5699 32116
" />
<path d="M6122 31383
L6009 31806
" />
<path d="M66329 37540
L66639 37850
" />
<path d="M34410 37426
L34833 37540
" />
<path d="M35143 37850
L35256 38273
" />
<path d="M95040 32229
L94617 32116
" />
<path d="M34833 37540
L35143 37850
" />
<path d="M65906 39119
L65483 39006
" />
<path d="M65483 37540
L65906 37426
" />
<path d="M5699 30650
L6009 30960
" />
<path d="M34410 39119
L33987 39006
" />
<path d="M35256 38273
L35143 38696
" />
<path d="M33987 37540
L34410 37426
" />
<path d="M66329 39006
L65906 39119
" />
<path d="M93883 -57228
L93997 -56805
" />
<path d="M31035 -67957
L31122 -67632
" />
<path d="M103278 -27332
L102968 -27642
" />
<path d="M31035 -67307
L30798 -67069
" />
<path d="M7899 -56382
L7589 -56072
" />
<path d="M6433 -57228
L6743 -57538
" />
<path d="M93573 -57538
L93883 -57228
" />
<path d="M7899 -57228
L8012 -56805
" />
<path d="M6743 -57538
L7166 -57651
" />
<path d="M6743 -56072
L6433 -56382
" />
<path d="M93150 -55959
L92727 -56072
" />
<path d="M30798 -68194
L31035 -67957
" />
<path d="M93883 -56382
L93573 -56072
" />
<path d="M92727 -57538
L93150 -57651
" />
<path d="M-4117 -28488
L-3808 -28798
" />
<path d="M7166 -57651
L7589 -57538
" />
<path d="M104124 -27332
L103701 -27218
" />
<path d="M30798 -67069
L30473 -66982
" />
<path d="M104124 -28798
L104434 -28488
" />
<path d="M7589 -56072
L7166 -55959
" />
<path d="M93150 -57651
L93573 -57538
" />
<path d="M30473 -66982
L30148 -67069
" />
<path d="M92727 -56072
L92417 -56382
" />
<path d="M92304 -56805
L92417 -57228
" />
<path d="M-2961 -28798
L-2651 -28488
" />
<path d="M-3384 -28911
L-2961 -28798
" />
<path d="M-4117 -27642
L-4231 -28065
" />
<path d="M104548 -28065
L104434 -27642
" />
<path d="M103278 -28798
L103701 -28911
" />
<path d="M8012 -56805
L7899 -56382
" />
<path d="M6319 -56805
L6433 -57228
" />
<path d="M102968 -27642
L102855 -28065
" />
<path d="M102968 -28488
L103278 -28798
" />
<path d="M104434 -27642
L104124 -27332
" />
<path d="M92417 -57228
L92727 -57538
" />
<path d="M30148 -68194
L30473 -68281
" />
<path d="M-3808 -28798
L-3384 -28911
" />
<path d="M104434 -28488
L104548 -28065
" />
<path d="M7166 -55959
L6743 -56072
" />
<path d="M6433 -56382
L6319 -56805
" />
<path d="M29910 -67957
L30148 -68194
" />
<path d="M93997 -56805
L93883 -56382
" />
<path d="M93573 -56072
L93150 -55959
" />
<path d="M92417 -56382
L92304 -56805
" />
<path d="M103701 -27218
L103278 -27332
" />
<path d="M7589 -57538
L7899 -57228
" />
<path d="M31122 -67632
L31035 -67307
" />
<path d="M-4231 -28065
L-4117 -28488
" />
<path d="M-3808 -27332
L-4117 -27642
" />
<path d="M30473 -68281
L30798 -68194
" />
<path d="M102855 -28065
L102968 -28488
" />
<path d="M103701 -28911
L104124 -28798
" />
<path d="M65173 -86677
L65483 -86987
" />
<path d="M66639 -86677
L66752 -86254
" />
<path d="M-2444 -85909
L-2558 -86333
" />
<path d="M82018 -94743
L82441 -94856
" />
<path d="M65060 -86254
L65173 -86677
" />
<path d="M65173 -85831
L65060 -86254
" />
<path d="M65483 -85521
L65173 -85831
" />
<path d="M82441 -93163
L82018 -93277
" />
<path d="M102761 -85909
L102451 -85600
" />
<path d="M83174 -93587
L82865 -93277
" />
<path d="M82018 -93277
L81708 -93587
" />
<path d="M69518 -67069
L69280 -67307
" />
<path d="M65906 -85407
L65483 -85521
" />
<path d="M-1711 -85486
L-2134 -85600
" />
<path d="M83174 -94433
L83288 -94010
" />
<path d="M81595 -94010
L81708 -94433
" />
<path d="M-1288 -87066
L-978 -86756
" />
<path d="M65906 -87100
L66329 -86987
" />
<path d="M-2134 -85600
L-2444 -85909
" />
<path d="M-2444 -86756
L-2134 -87066
" />
<path d="M82865 -94743
L83174 -94433
" />
<path d="M69280 -67307
L69193 -67632
" />
<path d="M102028 -85486
L101605 -85600
" />
<path d="M102451 -85600
L102028 -85486
" />
<path d="M101605 -85600
L101295 -85909
" />
<path d="M-978 -85909
L-1288 -85600
" />
<path d="M101295 -85909
L101182 -86333
" />
<path d="M65483 -86987
L65906 -87100
" />
<path d="M101605 -87066
L102028 -87179
" />
<path d="M-1711 -87179
L-1288 -87066
" />
<path d="M101182 -86333
L101295 -86756
" />
<path d="M-2134 -87066
L-1711 -87179
" />
<path d="M82865 -93277
L82441 -93163
" />
<path d="M66752 -86254
L66639 -85831
" />
<path d="M70168 -67069
L69843 -66982
" />
<path d="M69518 -68194
L69843 -68281
" />
<path d="M29823 -67632
L29910 -67957
" />
<path d="M70168 -68194
L70406 -67957
" />
<path d="M101295 -86756
L101605 -87066
" />
<path d="M81708 -94433
L82018 -94743
" />
<path d="M69843 -68281
L70168 -68194
" />
<path d="M102761 -86756
L102874 -86333
" />
<path d="M29910 -67307
L29823 -67632
" />
<path d="M30148 -67069
L29910 -67307
" />
<path d="M69843 -66982
L69518 -67069
" />
<path d="M70406 -67307
L70168 -67069
" />
<path d="M70493 -67632
L70406 -67307
" />
<path d="M69280 -67957
L69518 -68194
" />
<path d="M-2558 -86333
L-2444 -86756
" />
<path d="M83288 -94010
L83174 -93587
" />
<path d="M102451 -87066
L102761 -86756
" />
<path d="M-1288 -85600
L-1711 -85486
" />
<path d="M-978 -86756
L-865 -86333
" />
<path d="M82441 -94856
L82865 -94743
" />
<path d="M81708 -93587
L81595 -94010
" />
<path d="M34804 -102159
L34380 -102273
" />
<path d="M66639 -85831
L66329 -85521
" />
<path d="M66329 -86987
L66639 -86677
" />
<path d="M102028 -87179
L102451 -87066
" />
<path d="M-865 -86333
L-978 -85909
" />
<path d="M70406 -67957
L70493 -67632
" />
<path d="M69193 -67632
L69280 -67957
" />
<path d="M102874 -86333
L102761 -85909
" />
<path d="M66329 -85521
L65906 -85407
" />
<path d="M11211 -112932
L11521 -112622
" />
<path d="M93101 -109025
L92678 -108911
" />
<path d="M9139 36012
L10373 36523
" />
<path d="M879 30498
L1730 31240
" />
<path d="M11211 -111466
L10788 -111352
" />
<path d="M10365 -112932
L10788 -113045
" />
<path d="M10788 -113045
L11211 -112932
" />
<path d="M7356 35133
L8236 35595
" />
<path d="M10055 -112622
L10365 -112932
" />
<path d="M5385 33946
L6360 34554
" />
<path d="M10365 -111466
L10055 -111775
" />
<path d="M92678 -110604
L93101 -110491
" />
<path d="M91831 -109758
L91945 -110181
" />
<path d="M22750 39555
L26371 40000
" />
<path d="M3509 32647
L4435 33310
" />
<path d="M91945 -110181
L92254 -110491
" />
<path d="M15386 38201
L16628 38513
" />
<path d="M11634 -112199
L11521 -111775
" />
<path d="M8236 35595
L9139 36012
" />
<path d="M11621 37000
L12882 37442
" />
<path d="M2607 31957
L3509 32647
" />
<path d="M92254 -110491
L92678 -110604
" />
<path d="M9941 -112199
L10055 -112622
" />
<path d="M10055 -111775
L9941 -112199
" />
<path d="M26371 40000
L30002 40347
" />
<path d="M19142 39012
L19142 39012
" />
<path d="M30002 40347
L33643 40597
" />
<path d="M11521 -112622
L11634 -112199
" />
<path d="M33953 40611
L38022 40730
" />
<path d="M14155 37848
L15386 38201
" />
<path d="M33643 40597
L33953 40610
" />
<path d="M12882 37442
L14155 37848
" />
<path d="M6360 34554
L7356 35133
" />
<path d="M10788 -111352
L10365 -111466
" />
<path d="M34071 -102583
L33957 -103006
" />
<path d="M93411 -110181
L93524 -109758
" />
<path d="M35227 -102273
L34804 -102159
" />
<path d="M35537 -102583
L35227 -102273
" />
<path d="M33953 40610
L33953 40611
" />
<path d="M93411 -109335
L93101 -109025
" />
<path d="M93524 -109758
L93411 -109335
" />
<path d="M46163 40866
L50233 40882
" />
<path d="M34804 -103852
L35227 -103739
" />
<path d="M35650 -103006
L35537 -102583
" />
<path d="M35537 -103429
L35650 -103006
" />
<path d="M35227 -103739
L35537 -103429
" />
<path d="M34380 -103739
L34804 -103852
" />
<path d="M34071 -103429
L34380 -103739
" />
<path d="M10373 36523
L11621 37000
" />
<path d="M4435 33310
L5385 33946
" />
<path d="M33957 -103006
L34071 -103429
" />
<path d="M93101 -110491
L93411 -110181
" />
<path d="M42092 40815
L46163 40866
" />
<path d="M19142 39012
L22750 39555
" />
<path d="M1730 31240
L2607 31957
" />
<path d="M16628 38513
L17881 38783
" />
<path d="M92254 -109025
L91945 -109335
" />
<path d="M11521 -111775
L11211 -111466
" />
<path d="M38022 40730
L42092 40815
" />
<path d="M17881 38783
L19142 39012
" />
<path d="M34380 -102273
L34071 -102583
" />
<path d="M92678 -108911
L92254 -109025
" />
<path d="M50233 40882
L54304 40864
" />
<path d="M91945 -109335
L91831 -109758
" />
<path d="M-12392 -7895
L-12611 -6428
" />
<path d="M4026 -50831
L3665 -49411
" />
<path d="M-10723 -15110
L-11132 -13685
" />
<path d="M-744 28942
L54 29732
" />
<path d="M2771 -66812
L3367 -65216
" />
<path d="M-8901 -20442
L-9791 -17927
" />
<path d="M-6971 -25413
L-7961 -22937
" />
<path d="M-2512 -35105
L-3701 -32715
" />
<path d="M4327 -52266
L4026 -50831
" />
<path d="M-3878 25766
L-3106 26580
" />
<path d="M-3701 -32715
L-4840 -30303
" />
<path d="M-11627 12348
L-11277 13410
" />
<path d="M1638 -43906
L232 -40666
" />
<path d="M2232 -45252
L1638 -43906
" />
<path d="M-8496 19485
L-7924 20440
" />
<path d="M3246 -48006
L2768 -46619
" />
<path d="M4749 -55170
L4569 -53713
" />
<path d="M-13011 5736
L-12868 6863
" />
<path d="M-12690 7980
L-12475 9088
" />
<path d="M-4840 -30303
L-5930 -27868
" />
<path d="M-5341 24073
L-4623 24931
" />
<path d="M3367 -65216
L3861 -63590
" />
<path d="M-9549 17522
L-9038 18511
" />
<path d="M-10893 14459
L-10477 15495
" />
<path d="M-9791 -17927
L-10275 -16524
" />
<path d="M4569 -53713
L4327 -52266
" />
<path d="M3861 -63590
L4250 -61938
" />
<path d="M4250 -61938
L4535 -60265
" />
<path d="M-12611 -6428
L-12934 -3968
" />
<path d="M4714 -58576
L4785 -56876
" />
<path d="M54 29732
L879 30498
" />
<path d="M-13188 3460
L-13118 4602
" />
<path d="M-7924 20440
L-7322 21377
" />
<path d="M-12475 9088
L-12227 10186
" />
<path d="M-12134 -9355
L-12392 -7895
" />
<path d="M-7961 -22937
L-8901 -20442
" />
<path d="M-12868 6863
L-12690 7980
" />
<path d="M-1275 -37471
L-2512 -35105
" />
<path d="M-11132 -13685
L-11504 -12251
" />
<path d="M-13138 -1498
L-13223 979
" />
<path d="M-11838 -10807
L-12134 -9355
" />
<path d="M4785 -56876
L4749 -55170
" />
<path d="M-3106 26580
L-744 28942
" />
<path d="M-7322 21377
L-6690 22296
" />
<path d="M-9038 18511
L-8496 19485
" />
<path d="M-13223 979
L-13188 3460
" />
<path d="M-10029 16516
L-9549 17522
" />
<path d="M-10477 15495
L-10029 16516
" />
<path d="M-12934 -3968
L-13138 -1498
" />
<path d="M-10275 -16524
L-10723 -15110
" />
<path d="M2768 -46619
L2232 -45252
" />
<path d="M3665 -49411
L3246 -48006
" />
<path d="M4535 -60265
L4714 -58576
" />
<path d="M232 -40666
L-1275 -37471
" />
<path d="M-4623 24931
L-3878 25766
" />
<path d="M-5930 -27868
L-6971 -25413
" />
<path d="M2072 -68372
L2771 -66812
" />
<path d="M-6030 23195
L-5341 24073
" />
<path d="M-6690 22296
L-6030 23195
" />
<path d="M-11277 13410
L-10893 14459
" />
<path d="M-11944 11272
L-11627 12348
" />
<path d="M-13118 4602
L-13011 5736
" />
<path d="M-11504 -12251
L-11838 -10807
" />
<path d="M-12227 10186
L-11944 11272
" />
<path d="M-2444 -104547
L-2909 -103597
" />
<path d="M-4799 -89756
L-4623 -88202
" />
<path d="M-4759 -95986
L-4880 -94432
" />
<path d="M-1922 -105467
L-2444 -104547
" />
<path d="M29681 -109688
L28715 -110439
" />
<path d="M25303 -112479
L24640 -112769
" />
<path d="M15913 -114792
L15177 -114854
" />
<path d="M-3316 -102621
L-3665 -101621
" />
<path d="M3445 -111405
L2872 -110914
" />
<path d="M4671 -112284
L4045 -111862
" />
<path d="M36860 -104310
L36402 -104490
" />
<path d="M-4928 -92874
L-4901 -91314
" />
<path d="M-3953 -100599
L-4295 -99072
" />
<path d="M-715 -107211
L-1346 -106356
" />
<path d="M14441 -114887
L12974 -114862
" />
<path d="M21985 -113676
L20991 -113944
" />
<path d="M26541 -111848
L25303 -112479
" />
<path d="M30586 -108926
L29681 -109688
" />
<path d="M33875 -106056
L33073 -106718
" />
<path d="M5960 -112995
L5309 -112653
" />
<path d="M24640 -112769
L23946 -113041
" />
<path d="M-1346 -106356
L-1922 -105467
" />
<path d="M28715 -110439
L27673 -111163
" />
<path d="M-33 -108029
L-715 -107211
" />
<path d="M7295 -113595
L5960 -112995
" />
<path d="M11518 -114719
L10082 -114459
" />
<path d="M-2909 -103597
L-3316 -102621
" />
<path d="M-3417 -82928
L-2902 -81197
" />
<path d="M2872 -110914
L2328 -110391
" />
<path d="M16940 -114689
L15913 -114792
" />
<path d="M-4295 -99072
L-4564 -97534
" />
<path d="M-3875 -84673
L-3417 -82928
" />
<path d="M-4880 -94432
L-4928 -92874
" />
<path d="M23946 -113041
L22970 -113374
" />
<path d="M12974 -114862
L11518 -114719
" />
<path d="M15177 -114854
L14441 -114887
" />
<path d="M-4564 -97534
L-4759 -95986
" />
<path d="M-3665 -101621
L-3953 -100599
" />
<path d="M4045 -111862
L3445 -111405
" />
<path d="M10082 -114459
L8672 -114084
" />
<path d="M2328 -110391
L-33 -108029
" />
<path d="M35525 -104927
L34687 -105454
" />
<path d="M27673 -111163
L26541 -111848
" />
<path d="M5309 -112653
L4671 -112284
" />
<path d="M8672 -114084
L7295 -113595
" />
<path d="M17962 -114553
L16940 -114689
" />
<path d="M18978 -114383
L17962 -114553
" />
<path d="M19988 -114180
L18978 -114383
" />
<path d="M932 -71225
L2072 -68372
" />
<path d="M-2314 -79387
L-1679 -77591
" />
<path d="M-4278 -86431
L-3875 -84673
" />
<path d="M20991 -113944
L19988 -114180
" />
<path d="M-273 -74051
L932 -71225
" />
<path d="M-4901 -91314
L-4799 -89756
" />
<path d="M-999 -75812
L-273 -74051
" />
<path d="M-4623 -88202
L-4278 -86431
" />
<path d="M33073 -106718
L32267 -107427
" />
<path d="M22970 -113374
L21985 -113676
" />
<path d="M34687 -105454
L33875 -106056
" />
<path d="M37227 -104192
L36860 -104310
" />
<path d="M32267 -107427
L30586 -108926
" />
<path d="M36402 -104490
L35525 -104927
" />
<path d="M-1679 -77591
L-999 -75812
" />
<path d="M-2902 -81197
L-2314 -79387
" />
<path d="M30148 6608
L30473 6521
" />
<path d="M69280 6846
L69518 6608
" />
<path d="M94617 30650
L95040 30537
" />
<path d="M29910 6846
L30148 6608
" />
<path d="M94307 30960
L94617 30650
" />
<path d="M30473 7820
L30148 7733
" />
<path d="M-10053 3460
L-10363 3770
" />
<path d="M69843 7820
L69518 7733
" />
<path d="M111836 3460
L111526 3770
" />
<path d="M30798 6608
L31035 6846
" />
<path d="M111836 2613
L111949 3037
" />
<path d="M94193 31383
L94307 30960
" />
<path d="M70406 7495
L70168 7733
" />
<path d="M70406 6846
L70493 7170
" />
<path d="M31122 7170
L31035 7495
" />
<path d="M-10786 3883
L-11209 3770
" />
<path d="M-11519 2613
L-11209 2303
" />
<path d="M-11519 3460
L-11632 3037
" />
<path d="M69280 7495
L69193 7170
" />
<path d="M111103 2190
L111526 2303
" />
<path d="M29910 7495
L29823 7170
" />
<path d="M29823 7170
L29910 6846
" />
<path d="M30148 7733
L29910 7495
" />
<path d="M-3384 -27218
L-3808 -27332
" />
<path d="M110680 2303
L111103 2190
" />
<path d="M110370 3460
L110256 3037
" />
<path d="M30473 6521
L30798 6608
" />
<path d="M111526 3770
L111103 3883
" />
<path d="M-9940 3037
L-10053 3460
" />
<path d="M-2538 -28065
L-2651 -27642
" />
<path d="M31035 7495
L30798 7733
" />
<path d="M94617 32116
L94307 31806
" />
<path d="M70493 7170
L70406 7495
" />
<path d="M70168 6608
L70406 6846
" />
<path d="M110680 3770
L110370 3460
" />
<path d="M-10363 3770
L-10786 3883
" />
<path d="M69518 7733
L69280 7495
" />
<path d="M30798 7733
L30473 7820
" />
<path d="M111949 3037
L111836 3460
" />
<path d="M110256 3037
L110370 2613
" />
<path d="M31035 6846
L31122 7170
" />
<path d="M111103 3883
L110680 3770
" />
<path d="M111526 2303
L111836 2613
" />
<path d="M110370 2613
L110680 2303
" />
<path d="M-10053 2613
L-9940 3037
" />
<path d="M-10363 2303
L-10053 2613
" />
<path d="M-10786 2190
L-10363 2303
" />
<path d="M-2651 -27642
L-2961 -27332
" />
<path d="M-11209 3770
L-11519 3460
" />
<path d="M69843 6521
L70168 6608
" />
<path d="M-11209 2303
L-10786 2190
" />
<path d="M-2961 -27332
L-3384 -27218
" />
<path d="M95463 32116
L95040 32229
" />
<path d="M69193 7170
L69280 6846
" />
<path d="M95773 31806
L95463 32116
" />
<path d="M95886 31383
L95773 31806
" />
<path d="M69518 6608
L69843 6521
" />
<path d="M95773 30960
L95886 31383
" />
<path d="M70168 7733
L69843 7820
" />
<path d="M94307 31806
L94193 31383
" />
<path d="M-2651 -28488
L-2538 -28065
" />
<path d="M-11632 3037
L-11519 2613
" />
<path d="M95463 30650
L95773 30960
" />
<path d="M95040 30537
L95463 30650
" />
<path d="M72757 -87408
L72056 -87259
" />
<path d="M72706 -63950
L72773 -63728
" />
<path d="M27719 3693
L27610 3488
" />
<path d="M63089 -91196
L63089 -64679
" />
<path d="M72796 -63498
L72796 3037
" />
<path d="M27866 3872
L27719 3693
" />
<path d="M28249 4128
L28045 4018
" />
<path d="M71615 4218
L28701 4218
" />
<path d="M75090 -88261
L74273 -87901
" />
<path d="M63950 -89992
L63500 -90592
" />
<path d="M27866 -64333
L28045 -64480
" />
<path d="M72597 -64154
L72706 -63950
" />
<path d="M72056 -87259
L71305 -87166
" />
<path d="M72067 4128
L71845 4195
" />
<path d="M63089 -64679
L71615 -64679
" />
<path d="M76630 -89148
L75876 -88677
" />
<path d="M64039 -89884
L63950 -89992
" />
<path d="M71305 -87166
L70483 -87140
" />
<path d="M28471 -64656
L28701 -64679
" />
<path d="M72796 3037
L72773 3267
" />
<path d="M71845 4195
L71615 4218
" />
<path d="M72706 3488
L72597 3693
" />
<path d="M72773 3267
L72706 3488
" />
<path d="M69622 -87210
L68687 -87405
" />
<path d="M70483 -87140
L69622 -87210
" />
<path d="M37227 -64679
L37227 -104192
" />
<path d="M72450 3872
L72271 4018
" />
<path d="M28701 -64679
L37227 -64679
" />
<path d="M27543 3267
L27520 3037
" />
<path d="M74273 -87901
L73428 -87600
" />
<path d="M64572 -89454
L64039 -89884
" />
<path d="M63500 -90592
L63089 -91196
" />
<path d="M67697 -87726
L66670 -88173
" />
<path d="M28249 -64589
L28471 -64656
" />
<path d="M72271 4018
L72067 4128
" />
<path d="M65622 -88749
L64572 -89454
" />
<path d="M66670 -88173
L65622 -88749
" />
<path d="M71845 -64656
L72067 -64589
" />
<path d="M27610 -63950
L27719 -64154
" />
<path d="M72271 -64480
L72450 -64333
" />
<path d="M28045 -64480
L28249 -64589
" />
<path d="M28471 4195
L28249 4128
" />
<path d="M28045 4018
L27866 3872
" />
<path d="M27610 3488
L27543 3267
" />
<path d="M72067 -64589
L72271 -64480
" />
<path d="M27719 -64154
L27866 -64333
" />
<path d="M27543 -63728
L27610 -63950
" />
<path d="M72597 3693
L72450 3872
" />
<path d="M27520 -63498
L27543 -63728
" />
<path d="M68687 -87405
L67697 -87726
" />
<path d="M72773 -63728
L72796 -63498
" />
<path d="M75876 -88677
L75090 -88261
" />
<path d="M27520 3037
L27520 -63498
" />
<path d="M73428 -87600
L72757 -87408
" />
<path d="M72450 -64333
L72597 -64154
" />
<path d="M71615 -64679
L71845 -64656
" />
<path d="M28701 4218
L28471 4195
" />
<path d="M104752 -92258
L104761 -93385
" />
<path d="M99152 -109391
L98425 -110031
" />
<path d="M85181 -107128
L85155 -107075
" />
<path d="M102584 -104690
L102185 -105446
" />
<path d="M97702 -110583
L97014 -111025
" />
<path d="M86258 -108580
L85658 -107842
" />
<path d="M87721 -109997
L86956 -109309
" />
<path d="M92558 -112159
L91827 -112069
" />
<path d="M104545 -88886
L104644 -90008
" />
<path d="M86956 -109309
L86258 -108580
" />
<path d="M103275 -103130
L102948 -103917
" />
<path d="M90075 -111534
L89315 -111135
" />
<path d="M90365 -111644
L90075 -111534
" />
<path d="M99850 -108693
L99152 -109391
" />
<path d="M104761 -93385
L104739 -94513
" />
<path d="M90824 -111807
L90540 -111711
" />
<path d="M94041 -112114
L93298 -112175
" />
<path d="M102185 -105446
L101828 -106046
" />
<path d="M103565 -102329
L103275 -103130
" />
<path d="M104739 -94513
L104687 -95640
" />
<path d="M81669 -97490
L81066 -96005
" />
<path d="M97014 -111025
L96945 -111060
" />
<path d="M84432 -105898
L84126 -105263
" />
<path d="M93298 -112175
L92558 -112159
" />
<path d="M96945 -111060
L96913 -111082
" />
<path d="M104605 -96767
L104493 -97892
" />
<path d="M104687 -95640
L104605 -96767
" />
<path d="M96913 -111082
L96224 -111461
" />
<path d="M77170 -89543
L76630 -89148
" />
<path d="M95511 -111759
L94781 -111976
" />
<path d="M77873 -90452
L77170 -89543
" />
<path d="M85155 -107075
L84781 -106512
" />
<path d="M103818 -101516
L103565 -102329
" />
<path d="M104644 -90008
L104713 -91132
" />
<path d="M102948 -103917
L102584 -104690
" />
<path d="M104350 -99015
L104211 -99857
" />
<path d="M78786 -91776
L77873 -90452
" />
<path d="M88519 -110615
L87721 -109997
" />
<path d="M83196 -102596
L82626 -100554
" />
<path d="M104034 -100691
L103818 -101516
" />
<path d="M104211 -99857
L104034 -100691
" />
<path d="M94781 -111976
L94041 -112114
" />
<path d="M101487 -106551
L101485 -106555
" />
<path d="M101043 -107243
L100490 -107966
" />
<path d="M79624 -93145
L78786 -91776
" />
<path d="M80384 -94555
L79624 -93145
" />
<path d="M81066 -96005
L80384 -94555
" />
<path d="M83864 -104608
L83196 -102596
" />
<path d="M84126 -105263
L83864 -104608
" />
<path d="M101485 -106555
L101043 -107243
" />
<path d="M90540 -111711
L90365 -111644
" />
<path d="M91113 -111906
L90824 -111807
" />
<path d="M96224 -111461
L95511 -111759
" />
<path d="M89315 -111135
L88519 -110615
" />
<path d="M85658 -107842
L85181 -107128
" />
<path d="M104493 -97892
L104350 -99015
" />
<path d="M98425 -110031
L97702 -110583
" />
<path d="M82189 -99007
L81669 -97490
" />
<path d="M82626 -100554
L82189 -99007
" />
<path d="M104713 -91132
L104752 -92258
" />
<path d="M84781 -106512
L84432 -105898
" />
<path d="M100490 -107966
L99850 -108693
" />
<path d="M101828 -106046
L101487 -106551
" />
<path d="M91827 -112069
L91113 -111906
" />
<path d="M113335 5668
L113434 4607
" />
<path d="M103319 -82233
L103598 -83329
" />
<path d="M98677 -43906
L98084 -45252
" />
<path d="M109217 -20442
L108277 -22937
" />
<path d="M103010 -81143
L103319 -82233
" />
<path d="M102332 -79009
L103010 -81143
" />
<path d="M100277 -73560
L101579 -76901
" />
<path d="M101592 -37471
L100084 -40666
" />
<path d="M95547 -57587
L95619 -58791
" />
<path d="M104017 -32715
L102829 -35105
" />
<path d="M111449 -13685
L111039 -15110
" />
<path d="M96290 -50831
L95988 -52266
" />
<path d="M113434 4607
L113501 3541
" />
<path d="M100084 -40666
L98677 -43906
" />
<path d="M106247 -27868
L105157 -30303
" />
<path d="M110592 -16524
L110107 -17927
" />
<path d="M113253 -3948
L113106 -5190
" />
<path d="M100671 29333
L101384 28620
" />
<path d="M112862 8740
L113043 7768
" />
<path d="M97548 -46619
L97070 -48006
" />
<path d="M107287 -25413
L106247 -27868
" />
<path d="M101579 -76901
L102332 -79009
" />
<path d="M96443 -63542
L96781 -64704
" />
<path d="M113457 -1457
L113370 -2704
" />
<path d="M95619 -58791
L95745 -59990
" />
<path d="M95566 -55170
L95530 -56379
" />
<path d="M95745 -59990
L95924 -61183
" />
<path d="M96650 -49411
L96290 -50831
" />
<path d="M112155 -10807
L111821 -12251
" />
<path d="M113535 2290
L113539 1040
" />
<path d="M95924 -61183
L96157 -62367
" />
<path d="M97070 -48006
L96650 -49411
" />
<path d="M102829 -35105
L101592 -37471
" />
<path d="M113106 -5190
L112928 -6428
" />
<path d="M104415 -87766
L104545 -88886
" />
<path d="M113043 7768
L113205 6722
" />
<path d="M101384 28620
L112862 8740
" />
<path d="M104256 -86650
L104415 -87766
" />
<path d="M96157 -62367
L96443 -63542
" />
<path d="M110107 -17927
L109217 -20442
" />
<path d="M104066 -85538
L104256 -86650
" />
<path d="M98902 -70248
L98902 -70248
" />
<path d="M103847 -84431
L104066 -85538
" />
<path d="M103598 -83329
L103847 -84431
" />
<path d="M97788 -67496
L98902 -70248
" />
<path d="M98084 -45252
L97548 -46619
" />
<path d="M112928 -6428
L112709 -7895
" />
<path d="M113539 1040
L113513 -209
" />
<path d="M113370 -2704
L113253 -3948
" />
<path d="M105157 -30303
L104017 -32715
" />
<path d="M95530 -56379
L95547 -57587
" />
<path d="M113513 -209
L113457 -1457
" />
<path d="M95988 -52266
L95747 -53713
" />
<path d="M108277 -22937
L107287 -25413
" />
<path d="M111039 -15110
L110592 -16524
" />
<path d="M111821 -12251
L111449 -13685
" />
<path d="M98902 -70248
L100277 -73560
" />
<path d="M96781 -64704
L97788 -67496
" />
<path d="M95747 -53713
L95566 -55170
" />
<path d="M112451 -9355
L112155 -10807
" />
<path d="M113501 3541
L113535 2290
" />
<path d="M99909 30065
L100671 29333
" />
<path d="M112709 -7895
L112451 -9355
" />
<path d="M113205 6722
L113335 5668
" />
<path d="M99124 30776
L99909 30065
" />
<path d="M98315 31465
L99124 30776
" />
<path d="M97484 32132
L98315 31465
" />
<path d="M95756 33396
L96631 32776
" />
<path d="M94859 33992
L95756 33396
" />
<path d="M94859 33992
L94859 33992
" />
<path d="M93668 34718
L94859 33992
" />
<path d="M92443 35385
L93668 34718
" />
<path d="M82317 38819
L83638 38542
" />
<path d="M66514 40605
L70483 40333
" />
<path d="M54304 40864
L58375 40813
" />
<path d="M86805 37647
L88363 37120
" />
<path d="M85230 38122
L86805 37647
" />
<path d="M83638 38542
L85230 38122
" />
<path d="M82317 38819
L82317 38819
" />
<path d="M62444 40726
L66514 40605
" />
<path d="M89903 36538
L91187 35992
" />
<path d="M74442 39944
L78388 39440
" />
<path d="M96631 32776
L97484 32132
" />
<path d="M91187 35992
L92443 35385
" />
<path d="M88363 37120
L89903 36538
" />
<path d="M78388 39440
L82317 38819
" />
<path d="M70483 40333
L74442 39944
" />
<path d="M58375 40813
L62444 40726
" />
<g >
</g>
<g >
</g>
<g >
</g>
<g >
</g>
<g >
</g>
<g >
</g>
<g >
</g>
<g >
</g>
<g >
</g>
<g >
</g>
<g >
</g>
<g >
</g>
<g >
</g>
<g >
</g>
<g >
</g>
<g >
</g>
<g >
</g>
<g >
</g>
<g >
</g>
<g >
</g>
<g >
</g>
<g >
</g>
<g >
</g>
<g >
</g>
<g >
</g>
<g >
</g>
<g >
</g>
<g >
</g>
<g >
</g>
<g >
</g>
<g >
</g>
<g >
</g>
<g >
</g>
<g >
</g>
<g >
</g>
<g >
</g>
<g >
</g>
<g >
</g>
<g >
</g>
<g >
</g>
<g >
</g>
<g >
</g>
<g >
</g>
<g >
</g>
<g >
</g>
<g >
</g>
<g >
</g>
<g >
</g>
<g >
</g>
<g >
</g>
<g >
</g>
<g >
</g>
<g >
</g>
<g >
</g>
<g >
</g>
<g >
</g>
<g >
</g>
<g >
</g>
<g >
</g>
<g >
</g>
<g >
</g>
<g >
</g>
<g >
</g>
<g >
</g>
<g >
</g>
<g >
</g>
<g >
</g>
<g >
</g>
<g >
</g>
<g >
</g>
<g >
</g>
<g >
</g>
<g >
</g>
<g >
</g>
<g >
</g>
<g >
</g>
<g >
</g>
<g >
</g>
<g >
</g>
<g >
</g>
<g >
</g>
<g >
</g>
<g >
</g>
<g >
</g>
<g >
</g>
</g> 
</svg>
