<?xml version="1.0" standalone="no"?>
<!DOCTYPE svg PUBLIC "-//W3C//DTD SVG 1.1//EN" "http://www.w3.org/Graphics/SVG/1.1/DTD/svg11.dtd">
<svg width="322" height="397" viewBox="-161 -83 322 397" xmlns="http://www.w3.org/2000/svg" version="1.1">
<title>OpenSCAD Model</title>
<path d="
M 10.5313,313.083 L 20.8701,312.951 L 31.2077,312.731 L 41.5441,312.425 L 51.6265,311.733 L 61.6818,310.746
 L 71.7032,309.464 L 81.684,307.887 L 85.0402,307.185 L 89.0827,306.117 L 93.0844,304.911 L 97.0419,303.571
 L 100.952,302.095 L 104.215,300.708 L 107.405,299.165 L 110.515,297.47 L 113.541,295.627 L 115.819,294.113
 L 118.042,292.538 L 120.209,290.903 L 122.32,289.209 L 124.373,287.459 L 126.368,285.653 L 128.304,283.794
 L 130.115,281.983 L 159.269,231.486 L 159.727,229.018 L 160.139,226.36 L 160.47,223.684 L 160.721,220.99
 L 160.891,218.281 L 160.979,215.105 L 160.989,211.929 L 160.923,208.755 L 160.779,205.584 L 160.558,202.417
 L 160.261,199.256 L 159.887,196.102 L 159.436,192.957 L 158.879,189.232 L 158.225,185.524 L 157.473,181.835
 L 156.624,178.168 L 155.679,174.524 L 154.638,170.905 L 153.502,167.313 L 152.271,163.75 L 150.011,157.363
 L 147.623,151.024 L 145.108,144.735 L 142.465,138.499 L 139.697,132.316 L 136.803,126.188 L 133.785,120.118
 L 130.643,114.108 L 126.812,105.993 L 123.238,97.7634 L 121.731,94.3447 L 120.37,90.8717 L 119.156,87.3491
 L 118.091,83.7815 L 117.175,80.1734 L 116.409,76.5294 L 115.797,72.8542 L 115.337,69.1522 L 115.244,66.0819
 L 115.289,63.0148 L 115.472,59.9556 L 115.791,56.909 L 116.246,53.8794 L 116.837,50.8714 L 117.564,47.8893
 L 118.423,44.9369 L 120.98,37.8451 L 123.81,30.8556 L 127.302,22.4425 L 130.609,13.9568 L 132.523,8.60179
 L 134.243,3.18256 L 135.028,0.414001 L 135.737,-2.37076 L 136.37,-5.17027 L 136.927,-7.98299 L 137.408,-10.8074
 L 137.813,-13.642 L 138.142,-16.4852 L 138.394,-19.3355 L 138.57,-22.1915 L 138.669,-25.0516 L 138.691,-27.9142
 L 138.636,-30.778 L 138.505,-33.6413 L 138.296,-36.5026 L 138.01,-39.3604 L 137.647,-42.2132 L 137.294,-44.3531
 L 136.844,-46.4714 L 136.297,-48.565 L 135.654,-50.6306 L 134.917,-52.665 L 134.086,-54.6651 L 133.162,-56.6275
 L 132.148,-58.5491 L 131.241,-60.0727 L 130.375,-61.3539 L 130.37,-61.364 L 129.247,-63.1119 L 127.843,-64.9489
 L 126.219,-66.7947 L 124.445,-68.5686 L 122.599,-70.1931 L 120.762,-71.5972 L 119.014,-72.7195 L 118.839,-72.8071
 L 118.758,-72.8639 L 117.007,-73.8272 L 115.196,-74.5828 L 113.343,-75.1343 L 111.464,-75.4853 L 109.576,-75.6393
 L 107.696,-75.5999 L 105.84,-75.3707 L 104.025,-74.9553 L 103.292,-74.7058 L 103.145,-74.6778 L 102.571,-74.4606
 L 102.268,-74.3572 L 102.126,-74.2918 L 101.39,-74.0128 L 99.4594,-72.9977 L 97.4364,-71.6768 L 95.4096,-70.1077
 L 93.4676,-68.3592 L 91.6953,-66.5075 L 90.1701,-64.6336 L 88.9587,-62.8195 L 88.8915,-62.6862 L 87.9427,-61.2554
 L 87.0562,-59.6974 L 86.2785,-58.0835 L 85.6123,-56.4193 L 83.9167,-51.3079 L 82.4693,-46.1222 L 81.3588,-42.1938
 L 80.0369,-38.3397 L 78.5075,-34.5678 L 76.7747,-30.8862 L 74.8426,-27.3031 L 72.7153,-23.8265 L 70.3969,-20.4644
 L 68.6112,-18.1556 L 67.2379,-17.1523 L 65.3248,-15.956 L 63.3268,-14.8985 L 61.2511,-13.9847 L 59.1052,-13.2199
 L 57.4006,-12.7321 L 55.6204,-12.3544 L 53.7128,-12.117 L 51.6261,-12.0498 L 49.4385,-12.2289 L 47.0649,-12.7243
 L 44.5503,-13.539 L 41.94,-14.6758 L 39.279,-16.1378 L 36.6125,-17.9278 L 35.2578,-19.0216 L 35.0315,-19.2958
 L 33.8884,-20.819 L 32.7946,-22.4276 L 31.7559,-24.1219 L 30.7779,-25.9022 L 29.8663,-27.769 L 29.0267,-29.7226
 L 28.2647,-31.7634 L 28.2052,-31.95 L 28.2,-31.95 L 28.2,-32.1727 L 28.1621,-32.2398 L 28.1379,-32.2786
 L 28.1,-32.3329 L 28.0389,-32.4121 L 27.9363,-32.5343 L 27.7523,-32.7369 L 27.389,-33.11 L 26.5518,-33.9162
 L 24.011,-36.2198 L 9.46837,-48.659 L 2.03552,-54.6 L -28.2,-54.6 L -28.2,-54.5598 L -28.6901,-54.5806
 L -30.0359,-54.7292 L -31.3292,-54.9621 L -32.5745,-55.2747 L -33.7764,-55.6624 L -34.9394,-56.1207 L -37.1673,-57.2308
 L -39.295,-58.5683 L -41.3591,-60.0967 L -43.3963,-61.7795 L -45.4433,-63.5801 L -49.7138,-67.3884 L -52.0105,-69.323
 L -54.464,-71.2293 L -57.1107,-73.0705 L -59.9875,-74.8102 L -63.1311,-76.4119 L -64.8143,-77.1495 L -66.5784,-77.8386
 L -69.0562,-78.6863 L -71.5591,-79.4516 L -74.0849,-80.134 L -76.6314,-80.733 L -79.1966,-81.2482 L -81.7783,-81.6791
 L -84.3745,-82.0253 L -86.983,-82.2862 L -88.8523,-82.4454 L -90.7211,-82.5278 L -94.4476,-82.4647 L -98.1442,-82.1011
 L -101.793,-81.4409 L -105.374,-80.4884 L -108.871,-79.2476 L -112.264,-77.7225 L -113.917,-76.8547 L -115.537,-75.9174
 L -117.128,-74.8446 L -118.652,-73.6835 L -120.107,-72.4372 L -121.487,-71.1088 L -127.487,-65.1088 L -129.221,-63.0309
 L -130.822,-60.8599 L -132.286,-58.6022 L -133.611,-56.2642 L -134.792,-53.8523 L -135.827,-51.3728 L -136.713,-48.8322
 L -137.445,-46.2367 L -138.314,-42.3587 L -138.997,-38.4509 L -139.492,-34.5199 L -139.8,-30.5724 L -139.92,-26.6149
 L -139.851,-22.654 L -139.594,-18.6964 L -139.147,-14.748 L -138.269,-10.251 L -137.247,-5.78406 L -136.082,-1.35146
 L -134.776,3.04362 L -133.28,7.64299 L -131.668,12.2029 L -129.94,16.7214 L -128.098,21.1963 L -125.034,28.3744
 L -122.139,35.6208 L -120.364,39.5833 L -118.848,43.6362 L -117.594,47.7669 L -116.605,51.963 L -115.882,56.2121
 L -115.428,60.5017 L -115.246,64.8192 L -115.338,69.1527 L -115.797,72.8546 L -116.41,76.5298 L -117.175,80.1737
 L -118.091,83.7818 L -119.157,87.3494 L -120.371,90.872 L -121.733,94.3449 L -123.24,97.7637 L -126.813,105.993
 L -130.643,114.108 L -133.785,120.118 L -136.804,126.188 L -139.698,132.316 L -142.467,138.499 L -145.109,144.735
 L -147.625,151.024 L -150.013,157.363 L -152.272,163.75 L -153.503,167.313 L -154.639,170.905 L -155.68,174.524
 L -156.625,178.168 L -157.473,181.835 L -158.225,185.524 L -158.88,189.232 L -159.436,192.957 L -160.256,199.205
 L -160.774,205.481 L -160.989,211.775 L -160.901,218.075 L -160.723,220.976 L -160.452,223.857 L -160.088,226.718
 L -159.635,229.557 L -159.091,232.371 L -158.46,235.159 L -157.741,237.919 L -156.936,240.65 L -156.046,243.349
 L -155.072,246.014 L -154.015,248.645 L -152.877,251.238 L -151.658,253.793 L -150.36,256.306 L -148.984,258.778
 L -147.531,261.205 L -146.001,263.586 L -144.397,265.919 L -142.719,268.202 L -140.969,270.433 L -139.147,272.611
 L -137.255,274.734 L -135.294,276.8 L -129.294,282.8 L -127.264,284.807 L -125.168,286.753 L -123.006,288.637
 L -120.779,290.457 L -118.489,292.21 L -116.136,293.895 L -113.722,295.511 L -111.248,297.055 L -108.715,298.525
 L -106.482,299.699 L -104.188,300.758 L -101.054,302.056 L -97.8844,303.266 L -94.6821,304.389 L -91.4486,305.422
 L -88.3213,306.318 L -85.1652,307.11 L -81.9841,307.796 L -78.7797,308.377 L -69.6162,309.756 L -60.4198,310.887
 L -51.1956,311.769 L -41.9484,312.403 L -41.1601,312.438 L -30.824,312.741 L -20.4863,312.957 L -10.1474,313.086
 L 0.191925,313.128 z
M -101.075,-73.838 L -101.862,-74.625 L -102.15,-75.7 L -101.862,-76.775 L -101.075,-77.562 L -100,-77.85
 L -98.925,-77.562 L -98.138,-76.775 L -97.85,-75.7 L -98.138,-74.625 L -98.925,-73.838 L -100,-73.55
 z
M 106.925,-67.638 L 106.138,-68.425 L 105.85,-69.5 L 106.138,-70.575 L 106.925,-71.362 L 108,-71.65
 L 109.075,-71.362 L 109.862,-70.575 L 110.15,-69.5 L 109.862,-68.425 L 109.075,-67.638 L 108,-67.35
 z
M -10.1474,301.086 L -20.4863,300.957 L -30.824,300.741 L -41.1611,300.438 L -41.95,300.403 L -51.1956,299.769
 L -60.4198,298.887 L -69.6162,297.756 L -78.7807,296.377 L -81.9841,295.796 L -85.1652,295.11 L -88.3213,294.318
 L -91.4497,293.422 L -94.6821,292.389 L -97.8844,291.266 L -101.054,290.056 L -104.189,288.757 L -106.482,287.699
 L -108.714,286.525 L -111.248,285.055 L -113.722,283.511 L -116.136,281.895 L -118.489,280.21 L -120.779,278.457
 L -123.006,276.637 L -125.168,274.753 L -125.574,274.376 L -127.147,272.611 L -128.969,270.433 L -130.719,268.202
 L -132.397,265.919 L -134.001,263.586 L -135.531,261.205 L -136.984,258.778 L -138.36,256.306 L -139.658,253.793
 L -140.877,251.238 L -142.015,248.645 L -143.072,246.014 L -144.046,243.349 L -144.936,240.65 L -145.741,237.919
 L -146.46,235.159 L -147.091,232.371 L -147.635,229.557 L -148.088,226.718 L -148.452,223.857 L -148.723,220.976
 L -148.901,218.075 L -148.989,211.775 L -148.774,205.481 L -148.256,199.205 L -147.436,192.957 L -146.88,189.232
 L -146.225,185.524 L -145.473,181.835 L -144.625,178.168 L -143.68,174.524 L -142.639,170.905 L -141.503,167.313
 L -140.272,163.75 L -138.013,157.363 L -135.625,151.024 L -133.109,144.735 L -130.467,138.499 L -127.698,132.316
 L -124.804,126.188 L -121.785,120.118 L -118.643,114.108 L -114.813,105.993 L -111.24,97.7633 L -109.733,94.3449
 L -108.371,90.872 L -107.157,87.3494 L -106.091,83.7818 L -105.175,80.1737 L -104.41,76.5298 L -103.797,72.8546
 L -103.338,69.1524 L -103.246,64.8192 L -103.428,60.5017 L -103.882,56.2121 L -104.605,51.963 L -105.594,47.7669
 L -106.848,43.6362 L -108.364,39.5833 L -110.139,35.6208 L -113.034,28.3744 L -116.099,21.1959 L -117.94,16.7214
 L -119.668,12.2029 L -121.28,7.64299 L -122.776,3.04346 L -124.082,-1.35146 L -125.247,-5.78406 L -126.269,-10.251
 L -127.148,-14.7493 L -127.594,-18.6964 L -127.851,-22.654 L -127.92,-26.6149 L -127.8,-30.5724 L -127.492,-34.5199
 L -126.997,-38.4509 L -126.314,-42.3587 L -125.445,-46.2367 L -124.713,-48.8322 L -123.827,-51.3728 L -122.792,-53.8523
 L -121.611,-56.2642 L -120.286,-58.6022 L -118.822,-60.8599 L -117.653,-62.4444 L -117.128,-62.8446 L -115.536,-63.9174
 L -113.917,-64.8547 L -112.264,-65.7225 L -108.871,-67.2476 L -105.374,-68.4884 L -101.793,-69.4409 L -98.1442,-70.1011
 L -94.4476,-70.4647 L -90.7211,-70.5278 L -88.8523,-70.4454 L -86.983,-70.2862 L -84.3745,-70.0253 L -81.7783,-69.6791
 L -79.1966,-69.2482 L -76.6314,-68.733 L -74.0849,-68.134 L -71.5591,-67.4516 L -69.0562,-66.6863 L -66.578,-65.8389
 L -64.8143,-65.1495 L -63.1311,-64.4119 L -59.9875,-62.8102 L -57.1107,-61.0705 L -54.464,-59.2293 L -52.0105,-57.323
 L -49.7138,-55.3884 L -45.4433,-51.5801 L -43.3963,-49.7795 L -41.3591,-48.0967 L -39.295,-46.5683 L -37.1673,-45.2308
 L -34.9394,-44.1207 L -33.7764,-43.6624 L -32.5745,-43.2747 L -31.3292,-42.9621 L -30.0359,-42.7292 L -28.6901,-42.5806
 L -28.2,-42.5598 L -28.2,-31.95 L 16.2052,-31.95 L 16.2647,-31.7634 L 17.0267,-29.7226 L 17.8663,-27.769
 L 18.7779,-25.9022 L 19.7559,-24.1219 L 20.7946,-22.4276 L 21.8884,-20.819 L 23.0315,-19.2958 L 24.2185,-17.8575
 L 25.4436,-16.5039 L 26.7012,-15.2344 L 32.7012,-9.23442 L 33.9856,-8.04884 L 36.6125,-5.92781 L 39.279,-4.13779
 L 41.94,-2.67583 L 44.5503,-1.539 L 47.0649,-0.72435 L 49.4385,-0.228912 L 51.6261,-0.0497589 L 53.7128,-0.116989
 L 55.6204,-0.354446 L 57.4006,-0.732086 L 59.1052,-1.21976 L 61.2511,-1.98473 L 63.3268,-2.89848 L 65.3248,-3.95602
 L 67.2379,-5.15233 L 69.0585,-6.48239 L 70.7792,-7.94119 L 72.3927,-9.5237 L 78.3927,-15.5237 L 79.8915,-17.2251
 L 82.3969,-20.4644 L 84.7153,-23.8265 L 86.8426,-27.3031 L 88.7747,-30.8862 L 90.5075,-34.5678 L 92.0369,-38.3397
 L 93.3588,-42.1938 L 94.4693,-46.1222 L 95.9167,-51.3079 L 97.6123,-56.4193 L 98.2785,-58.0835 L 99.0562,-59.6974
 L 99.8909,-61.1643 L 100.585,-61.5801 L 102.268,-62.3572 L 104.025,-62.9553 L 105.84,-63.3707 L 107.696,-63.5999
 L 109.576,-63.6393 L 111.464,-63.4853 L 113.343,-63.1343 L 115.196,-62.5828 L 117.007,-61.8272 L 118.675,-60.9095
 L 119.241,-60.0727 L 120.148,-58.5491 L 121.162,-56.6275 L 122.086,-54.6651 L 122.917,-52.665 L 123.654,-50.6306
 L 124.297,-48.565 L 124.844,-46.4714 L 125.294,-44.3531 L 125.647,-42.2132 L 126.01,-39.3604 L 126.296,-36.5026
 L 126.505,-33.6413 L 126.636,-30.778 L 126.691,-27.9142 L 126.669,-25.0516 L 126.57,-22.1915 L 126.394,-19.3355
 L 126.142,-16.4852 L 125.813,-13.642 L 125.408,-10.8074 L 124.927,-7.98299 L 124.37,-5.17027 L 123.737,-2.37076
 L 123.028,0.414001 L 122.243,3.18256 L 120.523,8.60179 L 118.609,13.9568 L 115.302,22.4425 L 111.81,30.8551
 L 108.98,37.8451 L 106.423,44.9377 L 105.564,47.8893 L 104.837,50.8714 L 104.246,53.8794 L 103.791,56.909
 L 103.472,59.9556 L 103.289,63.0148 L 103.244,66.0819 L 103.337,69.1526 L 103.797,72.8542 L 104.409,76.5294
 L 105.175,80.1734 L 106.091,83.7815 L 107.156,87.3491 L 108.37,90.8717 L 109.731,94.3447 L 111.238,97.7634
 L 114.812,105.993 L 118.643,114.108 L 121.785,120.118 L 124.803,126.188 L 127.697,132.316 L 130.465,138.499
 L 133.108,144.735 L 135.623,151.024 L 138.011,157.363 L 140.271,163.75 L 141.502,167.313 L 142.638,170.905
 L 143.679,174.524 L 144.624,178.168 L 145.473,181.835 L 146.225,185.524 L 146.879,189.232 L 147.436,192.957
 L 147.887,196.102 L 148.261,199.256 L 148.558,202.417 L 148.779,205.584 L 148.923,208.755 L 148.989,211.929
 L 148.979,215.105 L 148.891,218.281 L 148.721,220.99 L 148.47,223.684 L 148.139,226.36 L 147.727,229.018
 L 147.238,231.655 L 146.671,234.271 L 146.026,236.863 L 145.306,239.43 L 144.511,241.971 L 143.642,244.484
 L 142.699,246.968 L 141.685,249.42 L 140.598,251.84 L 139.441,254.227 L 138.214,256.577 L 136.919,258.891
 L 135.555,261.166 L 134.124,263.401 L 132.627,265.594 L 131.065,267.744 L 129.438,269.849 L 127.748,271.909
 L 125.994,273.92 L 125.59,274.357 L 124.373,275.459 L 122.32,277.209 L 120.209,278.903 L 118.042,280.538
 L 115.819,282.113 L 113.54,283.627 L 110.515,285.47 L 107.405,287.165 L 104.215,288.708 L 100.95,290.096
 L 97.0419,291.571 L 93.0844,292.911 L 89.0827,294.117 L 85.0392,295.185 L 81.6826,295.888 L 71.7032,297.464
 L 61.6818,298.746 L 51.6265,299.733 L 41.5434,300.425 L 31.2077,300.731 L 20.8701,300.951 L 10.5313,301.083
 L 0.191925,301.128 z
M -36.075,-48.488 L -36.862,-49.275 L -37.15,-50.35 L -36.862,-51.425 L -36.075,-52.2119 L -35,-52.5
 L -33.925,-52.2119 L -33.138,-51.425 L -32.85,-50.35 L -33.138,-49.275 L -33.925,-48.488 L -35,-48.2
 z
M -14.385,-34.179 L -15.859,-35.5063 L -16.6658,-37.3183 L -16.6658,-39.3017 L -15.859,-41.1137 L -14.385,-42.4409
 L -12.4986,-43.0539 L -10.526,-42.8465 L -8.80824,-41.8548 L -7.64238,-40.2501 L -7.23,-38.31 L -7.64238,-36.3699
 L -8.80824,-34.7652 L -10.526,-33.7735 L -12.4986,-33.5661 z
M -9.3564,-34.995 L -8.17989,-36.4703 L -7.75999,-38.31 L -8.17989,-40.1497 L -9.3564,-41.625 L -11.0565,-42.4437
 L -12.9435,-42.4437 L -14.6436,-41.625 L -15.8201,-40.1497 L -16.24,-38.31 L -15.8201,-36.4703 L -14.6436,-34.995
 L -12.9435,-34.1763 L -11.0565,-34.1763 z
M 9.61499,-34.179 L 8.14098,-35.5063 L 7.33423,-37.3183 L 7.33423,-39.3017 L 8.14098,-41.1137 L 9.61499,-42.4409
 L 11.5014,-43.0539 L 13.474,-42.8465 L 15.1917,-41.8548 L 16.3576,-40.2501 L 16.77,-38.31 L 16.3576,-36.3699
 L 15.1917,-34.7652 L 13.474,-33.7735 L 11.5014,-33.5661 z
M 14.6436,-34.995 L 15.8201,-36.4703 L 16.24,-38.31 L 15.8201,-40.1497 L 14.6436,-41.625 L 12.9435,-42.4437
 L 11.0565,-42.4437 L 9.3564,-41.625 L 8.17989,-40.1497 L 7.75999,-38.31 L 8.17989,-36.4703 L 9.3564,-34.995
 L 11.0565,-34.1763 L 12.9435,-34.1763 z
M 80.925,-27.638 L 80.138,-28.425 L 79.85,-29.5 L 80.138,-30.575 L 80.925,-31.362 L 82,-31.65
 L 83.075,-31.362 L 83.862,-30.575 L 84.15,-29.5 L 83.862,-28.425 L 83.075,-27.638 L 82,-27.35
 z
M 130.675,-8.13803 L 129.888,-8.92499 L 129.6,-10 L 129.888,-11.075 L 130.675,-11.862 L 131.75,-12.15
 L 132.825,-11.862 L 133.612,-11.075 L 133.9,-10 L 133.612,-8.92499 L 132.825,-8.13803 L 131.75,-7.84999
 z
M -132.825,-8.13803 L -133.612,-8.92499 L -133.9,-10 L -133.612,-11.075 L -132.825,-11.862 L -131.75,-12.15
 L -130.675,-11.862 L -129.888,-11.075 L -129.6,-10 L -129.888,-8.92499 L -130.675,-8.13803 L -131.75,-7.84999
 z
M 38.925,-7.93803 L 38.138,-8.72499 L 37.85,-9.79999 L 38.138,-10.875 L 38.925,-11.6619 L 40,-11.95
 L 41.075,-11.6619 L 41.862,-10.875 L 42.15,-9.79999 L 41.862,-8.72499 L 41.075,-7.93803 L 40,-7.64999
 z
M 108.125,66.862 L 107.338,66.075 L 107.05,65 L 107.338,63.925 L 108.125,63.138 L 109.2,62.85
 L 110.275,63.138 L 111.062,63.925 L 111.35,65 L 111.062,66.075 L 110.275,66.862 L 109.2,67.15
 z
M -110.275,66.862 L -111.062,66.075 L -111.35,65 L -111.062,63.925 L -110.275,63.138 L -109.2,62.85
 L -108.125,63.138 L -107.338,63.925 L -107.05,65 L -107.338,66.075 L -108.125,66.862 L -109.2,67.15
 z
M -137.075,139.862 L -137.862,139.075 L -138.15,138 L -137.862,136.925 L -137.075,136.138 L -136,135.85
 L -134.925,136.138 L -134.138,136.925 L -133.85,138 L -134.138,139.075 L -134.925,139.862 L -136,140.15
 z
M 134.925,139.862 L 134.138,139.075 L 133.85,138 L 134.138,136.925 L 134.925,136.138 L 136,135.85
 L 137.075,136.138 L 137.862,136.925 L 138.15,138 L 137.862,139.075 L 137.075,139.862 L 136,140.15
 z
M 153.725,218.862 L 152.938,218.075 L 152.65,217 L 152.938,215.925 L 153.725,215.138 L 154.8,214.85
 L 155.875,215.138 L 156.662,215.925 L 156.95,217 L 156.662,218.075 L 155.875,218.862 L 154.8,219.15
 z
M -155.875,218.862 L -156.662,218.075 L -156.95,217 L -156.662,215.925 L -155.875,215.138 L -154.8,214.85
 L -153.725,215.138 L -152.938,215.925 L -152.65,217 L -152.938,218.075 L -153.725,218.862 L -154.8,219.15
 z
M -115.075,290.862 L -115.862,290.075 L -116.15,289 L -115.862,287.925 L -115.075,287.138 L -114,286.85
 L -112.925,287.138 L -112.138,287.925 L -111.85,289 L -112.138,290.075 L -112.925,290.862 L -114,291.15
 z
M 112.925,290.862 L 112.138,290.075 L 111.85,289 L 112.138,287.925 L 112.925,287.138 L 114,286.85
 L 115.075,287.138 L 115.862,287.925 L 116.15,289 L 115.862,290.075 L 115.075,290.862 L 114,291.15
 z
M -41.075,308.362 L -41.862,307.575 L -42.15,306.5 L -41.862,305.425 L -41.075,304.638 L -40,304.35
 L -38.925,304.638 L -38.138,305.425 L -37.85,306.5 L -38.138,307.575 L -38.925,308.362 L -40,308.65
 z
M 38.925,308.362 L 38.138,307.575 L 37.85,306.5 L 38.138,305.425 L 38.925,304.638 L 40,304.35
 L 41.075,304.638 L 41.862,305.425 L 42.15,306.5 L 41.862,307.575 L 41.075,308.362 L 40,308.65
 z
" stroke="black" fill="lightgray" stroke-width="0.5"/></svg>
