  0
SECTION
  2
BLOCKS
  0
ENDSEC
  0
SECTION
  2
ENTITIES
  0
LINE
  8
0
 10
10.5423
 20
-313.083
 11
20.8811
 21
-312.951
  0
LINE
  8
0
 10
20.8811
 20
-312.951
 11
31.2187
 21
-312.731
  0
LINE
  8
0
 10
31.2187
 20
-312.731
 11
41.5551
 21
-312.425
  0
LINE
  8
0
 10
41.5551
 20
-312.425
 11
51.6375
 21
-311.733
  0
LINE
  8
0
 10
51.6375
 20
-311.733
 11
61.6927
 21
-310.746
  0
LINE
  8
0
 10
61.6927
 20
-310.746
 11
71.7142
 21
-309.464
  0
LINE
  8
0
 10
71.7142
 20
-309.464
 11
81.695
 21
-307.887
  0
LINE
  8
0
 10
81.695
 20
-307.887
 11
85.0512
 21
-307.185
  0
LINE
  8
0
 10
85.0512
 20
-307.185
 11
89.0937
 21
-306.117
  0
LINE
  8
0
 10
89.0937
 20
-306.117
 11
93.0954
 21
-304.911
  0
LINE
  8
0
 10
93.0954
 20
-304.911
 11
97.0529
 21
-303.571
  0
LINE
  8
0
 10
97.0529
 20
-303.571
 11
100.963
 21
-302.095
  0
LINE
  8
0
 10
100.963
 20
-302.095
 11
104.226
 21
-300.708
  0
LINE
  8
0
 10
104.226
 20
-300.708
 11
107.416
 21
-299.165
  0
LINE
  8
0
 10
107.416
 20
-299.165
 11
110.526
 21
-297.47
  0
LINE
  8
0
 10
110.526
 20
-297.47
 11
113.552
 21
-295.627
  0
LINE
  8
0
 10
113.552
 20
-295.627
 11
115.83
 21
-294.113
  0
LINE
  8
0
 10
115.83
 20
-294.113
 11
118.053
 21
-292.538
  0
LINE
  8
0
 10
118.053
 20
-292.538
 11
120.22
 21
-290.903
  0
LINE
  8
0
 10
120.22
 20
-290.903
 11
122.331
 21
-289.209
  0
LINE
  8
0
 10
122.331
 20
-289.209
 11
124.384
 21
-287.459
  0
LINE
  8
0
 10
124.384
 20
-287.459
 11
126.379
 21
-285.653
  0
LINE
  8
0
 10
126.379
 20
-285.653
 11
128.315
 21
-283.794
  0
LINE
  8
0
 10
128.315
 20
-283.794
 11
130.126
 21
-281.983
  0
LINE
  8
0
 10
130.126
 20
-281.983
 11
159.28
 21
-231.486
  0
LINE
  8
0
 10
159.28
 20
-231.486
 11
159.738
 21
-229.018
  0
LINE
  8
0
 10
159.738
 20
-229.018
 11
160.15
 21
-226.36
  0
LINE
  8
0
 10
160.15
 20
-226.36
 11
160.481
 21
-223.684
  0
LINE
  8
0
 10
160.481
 20
-223.684
 11
160.732
 21
-220.99
  0
LINE
  8
0
 10
160.732
 20
-220.99
 11
160.902
 21
-218.281
  0
LINE
  8
0
 10
160.902
 20
-218.281
 11
160.99
 21
-215.105
  0
LINE
  8
0
 10
160.99
 20
-215.105
 11
161
 21
-211.929
  0
LINE
  8
0
 10
161
 20
-211.929
 11
160.934
 21
-208.755
  0
LINE
  8
0
 10
160.934
 20
-208.755
 11
160.79
 21
-205.584
  0
LINE
  8
0
 10
160.79
 20
-205.584
 11
160.569
 21
-202.417
  0
LINE
  8
0
 10
160.569
 20
-202.417
 11
160.272
 21
-199.256
  0
LINE
  8
0
 10
160.272
 20
-199.256
 11
159.898
 21
-196.102
  0
LINE
  8
0
 10
159.898
 20
-196.102
 11
159.447
 21
-192.957
  0
LINE
  8
0
 10
159.447
 20
-192.957
 11
158.89
 21
-189.232
  0
LINE
  8
0
 10
158.89
 20
-189.232
 11
158.236
 21
-185.524
  0
LINE
  8
0
 10
158.236
 20
-185.524
 11
157.484
 21
-181.835
  0
LINE
  8
0
 10
157.484
 20
-181.835
 11
156.635
 21
-178.168
  0
LINE
  8
0
 10
156.635
 20
-178.168
 11
155.69
 21
-174.524
  0
LINE
  8
0
 10
155.69
 20
-174.524
 11
154.649
 21
-170.905
  0
LINE
  8
0
 10
154.649
 20
-170.905
 11
153.513
 21
-167.313
  0
LINE
  8
0
 10
153.513
 20
-167.313
 11
152.282
 21
-163.75
  0
LINE
  8
0
 10
152.282
 20
-163.75
 11
150.022
 21
-157.363
  0
LINE
  8
0
 10
150.022
 20
-157.363
 11
147.634
 21
-151.024
  0
LINE
  8
0
 10
147.634
 20
-151.024
 11
145.119
 21
-144.735
  0
LINE
  8
0
 10
145.119
 20
-144.735
 11
142.476
 21
-138.499
  0
LINE
  8
0
 10
142.476
 20
-138.499
 11
139.708
 21
-132.316
  0
LINE
  8
0
 10
139.708
 20
-132.316
 11
136.814
 21
-126.188
  0
LINE
  8
0
 10
136.814
 20
-126.188
 11
133.796
 21
-120.118
  0
LINE
  8
0
 10
133.796
 20
-120.118
 11
130.654
 21
-114.108
  0
LINE
  8
0
 10
130.654
 20
-114.108
 11
126.823
 21
-105.993
  0
LINE
  8
0
 10
126.823
 20
-105.993
 11
123.249
 21
-97.7635
  0
LINE
  8
0
 10
123.249
 20
-97.7635
 11
121.742
 21
-94.3448
  0
LINE
  8
0
 10
121.742
 20
-94.3448
 11
120.381
 21
-90.8718
  0
LINE
  8
0
 10
120.381
 20
-90.8718
 11
119.167
 21
-87.3492
  0
LINE
  8
0
 10
119.167
 20
-87.3492
 11
118.102
 21
-83.7816
  0
LINE
  8
0
 10
118.102
 20
-83.7816
 11
117.186
 21
-80.1735
  0
LINE
  8
0
 10
117.186
 20
-80.1735
 11
116.42
 21
-76.5295
  0
LINE
  8
0
 10
116.42
 20
-76.5295
 11
115.808
 21
-72.8543
  0
LINE
  8
0
 10
115.808
 20
-72.8543
 11
115.348
 21
-69.1523
  0
LINE
  8
0
 10
115.348
 20
-69.1523
 11
115.255
 21
-66.082
  0
LINE
  8
0
 10
115.255
 20
-66.082
 11
115.3
 21
-63.0149
  0
LINE
  8
0
 10
115.3
 20
-63.0149
 11
115.483
 21
-59.9557
  0
LINE
  8
0
 10
115.483
 20
-59.9557
 11
115.802
 21
-56.9091
  0
LINE
  8
0
 10
115.802
 20
-56.9091
 11
116.257
 21
-53.8795
  0
LINE
  8
0
 10
116.257
 20
-53.8795
 11
116.848
 21
-50.8715
  0
LINE
  8
0
 10
116.848
 20
-50.8715
 11
117.575
 21
-47.8894
  0
LINE
  8
0
 10
117.575
 20
-47.8894
 11
118.434
 21
-44.937
  0
LINE
  8
0
 10
118.434
 20
-44.937
 11
120.991
 21
-37.8452
  0
LINE
  8
0
 10
120.991
 20
-37.8452
 11
123.821
 21
-30.8557
  0
LINE
  8
0
 10
123.821
 20
-30.8557
 11
127.313
 21
-22.4426
  0
LINE
  8
0
 10
127.313
 20
-22.4426
 11
130.62
 21
-13.9568
  0
LINE
  8
0
 10
130.62
 20
-13.9568
 11
132.534
 21
-8.60184
  0
LINE
  8
0
 10
132.534
 20
-8.60184
 11
134.254
 21
-3.1826
  0
LINE
  8
0
 10
134.254
 20
-3.1826
 11
135.039
 21
-0.414047
  0
LINE
  8
0
 10
135.039
 20
-0.414047
 11
135.748
 21
2.37071
  0
LINE
  8
0
 10
135.748
 20
2.37071
 11
136.381
 21
5.17023
  0
LINE
  8
0
 10
136.381
 20
5.17023
 11
136.938
 21
7.98294
  0
LINE
  8
0
 10
136.938
 20
7.98294
 11
137.419
 21
10.8074
  0
LINE
  8
0
 10
137.419
 20
10.8074
 11
137.824
 21
13.642
  0
LINE
  8
0
 10
137.824
 20
13.642
 11
138.153
 21
16.4852
  0
LINE
  8
0
 10
138.153
 20
16.4852
 11
138.405
 21
19.3354
  0
LINE
  8
0
 10
138.405
 20
19.3354
 11
138.581
 21
22.1915
  0
LINE
  8
0
 10
138.581
 20
22.1915
 11
138.68
 21
25.0516
  0
LINE
  8
0
 10
138.68
 20
25.0516
 11
138.702
 21
27.9142
  0
LINE
  8
0
 10
138.702
 20
27.9142
 11
138.647
 21
30.778
  0
LINE
  8
0
 10
138.647
 20
30.778
 11
138.516
 21
33.6413
  0
LINE
  8
0
 10
138.516
 20
33.6413
 11
138.307
 21
36.5026
  0
LINE
  8
0
 10
138.307
 20
36.5026
 11
138.021
 21
39.3604
  0
LINE
  8
0
 10
138.021
 20
39.3604
 11
137.658
 21
42.2132
  0
LINE
  8
0
 10
137.658
 20
42.2132
 11
137.305
 21
44.3531
  0
LINE
  8
0
 10
137.305
 20
44.3531
 11
136.855
 21
46.4714
  0
LINE
  8
0
 10
136.855
 20
46.4714
 11
136.308
 21
48.565
  0
LINE
  8
0
 10
136.308
 20
48.565
 11
135.665
 21
50.6306
  0
LINE
  8
0
 10
135.665
 20
50.6306
 11
134.928
 21
52.665
  0
LINE
  8
0
 10
134.928
 20
52.665
 11
134.097
 21
54.6651
  0
LINE
  8
0
 10
134.097
 20
54.6651
 11
133.173
 21
56.6275
  0
LINE
  8
0
 10
133.173
 20
56.6275
 11
132.159
 21
58.5491
  0
LINE
  8
0
 10
132.159
 20
58.5491
 11
131.252
 21
60.0727
  0
LINE
  8
0
 10
131.252
 20
60.0727
 11
130.386
 21
61.3539
  0
LINE
  8
0
 10
130.386
 20
61.3539
 11
130.381
 21
61.364
  0
LINE
  8
0
 10
130.381
 20
61.364
 11
129.258
 21
63.1119
  0
LINE
  8
0
 10
129.258
 20
63.1119
 11
127.854
 21
64.9489
  0
LINE
  8
0
 10
127.854
 20
64.9489
 11
126.23
 21
66.7947
  0
LINE
  8
0
 10
126.23
 20
66.7947
 11
124.456
 21
68.5686
  0
LINE
  8
0
 10
124.456
 20
68.5686
 11
122.61
 21
70.1931
  0
LINE
  8
0
 10
122.61
 20
70.1931
 11
120.773
 21
71.5972
  0
LINE
  8
0
 10
120.773
 20
71.5972
 11
119.025
 21
72.7195
  0
LINE
  8
0
 10
119.025
 20
72.7195
 11
118.85
 21
72.8071
  0
LINE
  8
0
 10
118.85
 20
72.8071
 11
118.769
 21
72.8639
  0
LINE
  8
0
 10
118.769
 20
72.8639
 11
117.018
 21
73.8272
  0
LINE
  8
0
 10
117.018
 20
73.8272
 11
115.207
 21
74.5828
  0
LINE
  8
0
 10
115.207
 20
74.5828
 11
113.354
 21
75.1343
  0
LINE
  8
0
 10
113.354
 20
75.1343
 11
111.475
 21
75.4853
  0
LINE
  8
0
 10
111.475
 20
75.4853
 11
109.587
 21
75.6393
  0
LINE
  8
0
 10
109.587
 20
75.6393
 11
107.707
 21
75.5999
  0
LINE
  8
0
 10
107.707
 20
75.5999
 11
105.851
 21
75.3707
  0
LINE
  8
0
 10
105.851
 20
75.3707
 11
104.036
 21
74.9553
  0
LINE
  8
0
 10
104.036
 20
74.9553
 11
103.303
 21
74.7058
  0
LINE
  8
0
 10
103.303
 20
74.7058
 11
103.156
 21
74.6778
  0
LINE
  8
0
 10
103.156
 20
74.6778
 11
102.582
 21
74.4606
  0
LINE
  8
0
 10
102.582
 20
74.4606
 11
102.279
 21
74.3572
  0
LINE
  8
0
 10
102.279
 20
74.3572
 11
102.137
 21
74.2918
  0
LINE
  8
0
 10
102.137
 20
74.2918
 11
101.401
 21
74.0128
  0
LINE
  8
0
 10
101.401
 20
74.0128
 11
99.4704
 21
72.9977
  0
LINE
  8
0
 10
99.4704
 20
72.9977
 11
97.4474
 21
71.6768
  0
LINE
  8
0
 10
97.4474
 20
71.6768
 11
95.4206
 21
70.1077
  0
LINE
  8
0
 10
95.4206
 20
70.1077
 11
93.4785
 21
68.3592
  0
LINE
  8
0
 10
93.4785
 20
68.3592
 11
91.7063
 21
66.5075
  0
LINE
  8
0
 10
91.7063
 20
66.5075
 11
90.1811
 21
64.6336
  0
LINE
  8
0
 10
90.1811
 20
64.6336
 11
88.9697
 21
62.8195
  0
LINE
  8
0
 10
88.9697
 20
62.8195
 11
88.9025
 21
62.6862
  0
LINE
  8
0
 10
88.9025
 20
62.6862
 11
87.9537
 21
61.2554
  0
LINE
  8
0
 10
87.9537
 20
61.2554
 11
87.0672
 21
59.6974
  0
LINE
  8
0
 10
87.0672
 20
59.6974
 11
86.2895
 21
58.0835
  0
LINE
  8
0
 10
86.2895
 20
58.0835
 11
85.6233
 21
56.4193
  0
LINE
  8
0
 10
85.6233
 20
56.4193
 11
83.9277
 21
51.3079
  0
LINE
  8
0
 10
83.9277
 20
51.3079
 11
82.4803
 21
46.1222
  0
LINE
  8
0
 10
82.4803
 20
46.1222
 11
81.3698
 21
42.1938
  0
LINE
  8
0
 10
81.3698
 20
42.1938
 11
80.0479
 21
38.3397
  0
LINE
  8
0
 10
80.0479
 20
38.3397
 11
78.5185
 21
34.5678
  0
LINE
  8
0
 10
78.5185
 20
34.5678
 11
76.7857
 21
30.8862
  0
LINE
  8
0
 10
76.7857
 20
30.8862
 11
74.8536
 21
27.3031
  0
LINE
  8
0
 10
74.8536
 20
27.3031
 11
72.7263
 21
23.8265
  0
LINE
  8
0
 10
72.7263
 20
23.8265
 11
70.4079
 21
20.4644
  0
LINE
  8
0
 10
70.4079
 20
20.4644
 11
68.6222
 21
18.1556
  0
LINE
  8
0
 10
68.6222
 20
18.1556
 11
67.2489
 21
17.1523
  0
LINE
  8
0
 10
67.2489
 20
17.1523
 11
65.3358
 21
15.9559
  0
LINE
  8
0
 10
65.3358
 20
15.9559
 11
63.3378
 21
14.8985
  0
LINE
  8
0
 10
63.3378
 20
14.8985
 11
61.2621
 21
13.9846
  0
LINE
  8
0
 10
61.2621
 20
13.9846
 11
59.1162
 21
13.2198
  0
LINE
  8
0
 10
59.1162
 20
13.2198
 11
57.4116
 21
12.7321
  0
LINE
  8
0
 10
57.4116
 20
12.7321
 11
55.6314
 21
12.3544
  0
LINE
  8
0
 10
55.6314
 20
12.3544
 11
53.7238
 21
12.117
  0
LINE
  8
0
 10
53.7238
 20
12.117
 11
51.6371
 21
12.0498
  0
LINE
  8
0
 10
51.6371
 20
12.0498
 11
49.4495
 21
12.2289
  0
LINE
  8
0
 10
49.4495
 20
12.2289
 11
47.0759
 21
12.7243
  0
LINE
  8
0
 10
47.0759
 20
12.7243
 11
44.5613
 21
13.539
  0
LINE
  8
0
 10
44.5613
 20
13.539
 11
41.951
 21
14.6758
  0
LINE
  8
0
 10
41.951
 20
14.6758
 11
39.29
 21
16.1378
  0
LINE
  8
0
 10
39.29
 20
16.1378
 11
36.6235
 21
17.9277
  0
LINE
  8
0
 10
36.6235
 20
17.9277
 11
35.2688
 21
19.0216
  0
LINE
  8
0
 10
35.2688
 20
19.0216
 11
35.0425
 21
19.2958
  0
LINE
  8
0
 10
35.0425
 20
19.2958
 11
33.8994
 21
20.819
  0
LINE
  8
0
 10
33.8994
 20
20.819
 11
32.8056
 21
22.4276
  0
LINE
  8
0
 10
32.8056
 20
22.4276
 11
31.7669
 21
24.1219
  0
LINE
  8
0
 10
31.7669
 20
24.1219
 11
30.7889
 21
25.9022
  0
LINE
  8
0
 10
30.7889
 20
25.9022
 11
29.8773
 21
27.769
  0
LINE
  8
0
 10
29.8773
 20
27.769
 11
29.0377
 21
29.7226
  0
LINE
  8
0
 10
29.0377
 20
29.7226
 11
28.2757
 21
31.7634
  0
LINE
  8
0
 10
28.2757
 20
31.7634
 11
28.2162
 21
31.95
  0
LINE
  8
0
 10
28.2162
 20
31.95
 11
28.211
 21
31.95
  0
LINE
  8
0
 10
28.211
 20
31.95
 11
28.211
 21
32.1727
  0
LINE
  8
0
 10
28.211
 20
32.1727
 11
28.2
 21
32.1921
  0
LINE
  8
0
 10
28.2
 20
32.1921
 11
28.2
 21
-20
  0
LINE
  8
0
 10
28.2
 20
-20
 11
59
 21
-20
  0
LINE
  8
0
 10
59
 20
-20
 11
59.5853
 21
-20.0576
  0
LINE
  8
0
 10
59.5853
 20
-20.0576
 11
60.148
 21
-20.2283
  0
LINE
  8
0
 10
60.148
 20
-20.2283
 11
60.6667
 21
-20.5056
  0
LINE
  8
0
 10
60.6667
 20
-20.5056
 11
61.1213
 21
-20.8787
  0
LINE
  8
0
 10
61.1213
 20
-20.8787
 11
61.4944
 21
-21.3333
  0
LINE
  8
0
 10
61.4944
 20
-21.3333
 11
61.7716
 21
-21.8519
  0
LINE
  8
0
 10
61.7716
 20
-21.8519
 11
61.9424
 21
-22.4147
  0
LINE
  8
0
 10
61.9424
 20
-22.4147
 11
62
 21
-23
  0
LINE
  8
0
 10
62
 20
-23
 11
62
 21
-267
  0
LINE
  8
0
 10
62
 20
-267
 11
61.9424
 21
-267.585
  0
LINE
  8
0
 10
61.9424
 20
-267.585
 11
61.7716
 21
-268.148
  0
LINE
  8
0
 10
61.7716
 20
-268.148
 11
61.4944
 21
-268.667
  0
LINE
  8
0
 10
61.4944
 20
-268.667
 11
61.1213
 21
-269.121
  0
LINE
  8
0
 10
61.1213
 20
-269.121
 11
60.6667
 21
-269.494
  0
LINE
  8
0
 10
60.6667
 20
-269.494
 11
60.148
 21
-269.772
  0
LINE
  8
0
 10
60.148
 20
-269.772
 11
59.5853
 21
-269.942
  0
LINE
  8
0
 10
59.5853
 20
-269.942
 11
59
 21
-270
  0
LINE
  8
0
 10
59
 20
-270
 11
-59
 21
-270
  0
LINE
  8
0
 10
-59
 20
-270
 11
-59.5853
 21
-269.942
  0
LINE
  8
0
 10
-59.5853
 20
-269.942
 11
-60.148
 21
-269.772
  0
LINE
  8
0
 10
-60.148
 20
-269.772
 11
-60.6667
 21
-269.494
  0
LINE
  8
0
 10
-60.6667
 20
-269.494
 11
-61.1213
 21
-269.121
  0
LINE
  8
0
 10
-61.1213
 20
-269.121
 11
-61.4944
 21
-268.667
  0
LINE
  8
0
 10
-61.4944
 20
-268.667
 11
-61.7716
 21
-268.148
  0
LINE
  8
0
 10
-61.7716
 20
-268.148
 11
-61.9424
 21
-267.585
  0
LINE
  8
0
 10
-61.9424
 20
-267.585
 11
-62
 21
-267
  0
LINE
  8
0
 10
-62
 20
-267
 11
-62
 21
-23
  0
LINE
  8
0
 10
-62
 20
-23
 11
-61.9424
 21
-22.4147
  0
LINE
  8
0
 10
-61.9424
 20
-22.4147
 11
-61.7716
 21
-21.8519
  0
LINE
  8
0
 10
-61.7716
 20
-21.8519
 11
-61.4944
 21
-21.3333
  0
LINE
  8
0
 10
-61.4944
 20
-21.3333
 11
-61.1213
 21
-20.8787
  0
LINE
  8
0
 10
-61.1213
 20
-20.8787
 11
-60.6667
 21
-20.5056
  0
LINE
  8
0
 10
-60.6667
 20
-20.5056
 11
-60.148
 21
-20.2283
  0
LINE
  8
0
 10
-60.148
 20
-20.2283
 11
-59.5853
 21
-20.0576
  0
LINE
  8
0
 10
-59.5853
 20
-20.0576
 11
-59
 21
-20
  0
LINE
  8
0
 10
-59
 20
-20
 11
-28.2
 21
-20
  0
LINE
  8
0
 10
-28.2
 20
-20
 11
-28.2
 21
54.5602
  0
LINE
  8
0
 10
-28.2
 20
54.5602
 11
-28.6791
 21
54.5806
  0
LINE
  8
0
 10
-28.6791
 20
54.5806
 11
-30.0249
 21
54.7292
  0
LINE
  8
0
 10
-30.0249
 20
54.7292
 11
-31.3182
 21
54.9621
  0
LINE
  8
0
 10
-31.3182
 20
54.9621
 11
-32.5635
 21
55.2747
  0
LINE
  8
0
 10
-32.5635
 20
55.2747
 11
-33.7654
 21
55.6624
  0
LINE
  8
0
 10
-33.7654
 20
55.6624
 11
-34.9284
 21
56.1207
  0
LINE
  8
0
 10
-34.9284
 20
56.1207
 11
-37.1563
 21
57.2308
  0
LINE
  8
0
 10
-37.1563
 20
57.2308
 11
-39.284
 21
58.5683
  0
LINE
  8
0
 10
-39.284
 20
58.5683
 11
-41.3481
 21
60.0967
  0
LINE
  8
0
 10
-41.3481
 20
60.0967
 11
-43.3853
 21
61.7795
  0
LINE
  8
0
 10
-43.3853
 20
61.7795
 11
-45.4323
 21
63.5801
  0
LINE
  8
0
 10
-45.4323
 20
63.5801
 11
-49.7028
 21
67.3884
  0
LINE
  8
0
 10
-49.7028
 20
67.3884
 11
-51.9995
 21
69.323
  0
LINE
  8
0
 10
-51.9995
 20
69.323
 11
-54.453
 21
71.2293
  0
LINE
  8
0
 10
-54.453
 20
71.2293
 11
-57.0997
 21
73.0705
  0
LINE
  8
0
 10
-57.0997
 20
73.0705
 11
-59.9765
 21
74.8102
  0
LINE
  8
0
 10
-59.9765
 20
74.8102
 11
-63.1201
 21
76.4119
  0
LINE
  8
0
 10
-63.1201
 20
76.4119
 11
-64.8033
 21
77.1495
  0
LINE
  8
0
 10
-64.8033
 20
77.1495
 11
-66.5674
 21
77.8386
  0
LINE
  8
0
 10
-66.5674
 20
77.8386
 11
-69.0452
 21
78.6863
  0
LINE
  8
0
 10
-69.0452
 20
78.6863
 11
-71.5481
 21
79.4516
  0
LINE
  8
0
 10
-71.5481
 20
79.4516
 11
-74.0739
 21
80.134
  0
LINE
  8
0
 10
-74.0739
 20
80.134
 11
-76.6204
 21
80.733
  0
LINE
  8
0
 10
-76.6204
 20
80.733
 11
-79.1856
 21
81.2482
  0
LINE
  8
0
 10
-79.1856
 20
81.2482
 11
-81.7673
 21
81.6791
  0
LINE
  8
0
 10
-81.7673
 20
81.6791
 11
-84.3635
 21
82.0253
  0
LINE
  8
0
 10
-84.3635
 20
82.0253
 11
-86.972
 21
82.2862
  0
LINE
  8
0
 10
-86.972
 20
82.2862
 11
-88.8413
 21
82.4454
  0
LINE
  8
0
 10
-88.8413
 20
82.4454
 11
-90.7101
 21
82.5278
  0
LINE
  8
0
 10
-90.7101
 20
82.5278
 11
-94.4366
 21
82.4647
  0
LINE
  8
0
 10
-94.4366
 20
82.4647
 11
-98.1332
 21
82.1011
  0
LINE
  8
0
 10
-98.1332
 20
82.1011
 11
-101.782
 21
81.4409
  0
LINE
  8
0
 10
-101.782
 20
81.4409
 11
-105.363
 21
80.4884
  0
LINE
  8
0
 10
-105.363
 20
80.4884
 11
-108.86
 21
79.2476
  0
LINE
  8
0
 10
-108.86
 20
79.2476
 11
-112.253
 21
77.7225
  0
LINE
  8
0
 10
-112.253
 20
77.7225
 11
-113.906
 21
76.8547
  0
LINE
  8
0
 10
-113.906
 20
76.8547
 11
-115.526
 21
75.9174
  0
LINE
  8
0
 10
-115.526
 20
75.9174
 11
-117.117
 21
74.8446
  0
LINE
  8
0
 10
-117.117
 20
74.8446
 11
-118.641
 21
73.6835
  0
LINE
  8
0
 10
-118.641
 20
73.6835
 11
-120.096
 21
72.4372
  0
LINE
  8
0
 10
-120.096
 20
72.4372
 11
-121.476
 21
71.1088
  0
LINE
  8
0
 10
-121.476
 20
71.1088
 11
-127.476
 21
65.1088
  0
LINE
  8
0
 10
-127.476
 20
65.1088
 11
-129.21
 21
63.0309
  0
LINE
  8
0
 10
-129.21
 20
63.0309
 11
-130.811
 21
60.8599
  0
LINE
  8
0
 10
-130.811
 20
60.8599
 11
-132.275
 21
58.6022
  0
LINE
  8
0
 10
-132.275
 20
58.6022
 11
-133.6
 21
56.2642
  0
LINE
  8
0
 10
-133.6
 20
56.2642
 11
-134.781
 21
53.8523
  0
LINE
  8
0
 10
-134.781
 20
53.8523
 11
-135.816
 21
51.3728
  0
LINE
  8
0
 10
-135.816
 20
51.3728
 11
-136.702
 21
48.8322
  0
LINE
  8
0
 10
-136.702
 20
48.8322
 11
-137.434
 21
46.2367
  0
LINE
  8
0
 10
-137.434
 20
46.2367
 11
-138.303
 21
42.3587
  0
LINE
  8
0
 10
-138.303
 20
42.3587
 11
-138.986
 21
38.4509
  0
LINE
  8
0
 10
-138.986
 20
38.4509
 11
-139.481
 21
34.5199
  0
LINE
  8
0
 10
-139.481
 20
34.5199
 11
-139.789
 21
30.5724
  0
LINE
  8
0
 10
-139.789
 20
30.5724
 11
-139.909
 21
26.6149
  0
LINE
  8
0
 10
-139.909
 20
26.6149
 11
-139.84
 21
22.654
  0
LINE
  8
0
 10
-139.84
 20
22.654
 11
-139.583
 21
18.6964
  0
LINE
  8
0
 10
-139.583
 20
18.6964
 11
-139.136
 21
14.748
  0
LINE
  8
0
 10
-139.136
 20
14.748
 11
-138.258
 21
10.251
  0
LINE
  8
0
 10
-138.258
 20
10.251
 11
-137.236
 21
5.78401
  0
LINE
  8
0
 10
-137.236
 20
5.78401
 11
-136.071
 21
1.35141
  0
LINE
  8
0
 10
-136.071
 20
1.35141
 11
-134.765
 21
-3.04367
  0
LINE
  8
0
 10
-134.765
 20
-3.04367
 11
-133.269
 21
-7.64304
  0
LINE
  8
0
 10
-133.269
 20
-7.64304
 11
-131.657
 21
-12.203
  0
LINE
  8
0
 10
-131.657
 20
-12.203
 11
-129.929
 21
-16.7215
  0
LINE
  8
0
 10
-129.929
 20
-16.7215
 11
-128.087
 21
-21.1964
  0
LINE
  8
0
 10
-128.087
 20
-21.1964
 11
-125.023
 21
-28.3745
  0
LINE
  8
0
 10
-125.023
 20
-28.3745
 11
-122.128
 21
-35.6209
  0
LINE
  8
0
 10
-122.128
 20
-35.6209
 11
-120.353
 21
-39.5834
  0
LINE
  8
0
 10
-120.353
 20
-39.5834
 11
-118.837
 21
-43.6363
  0
LINE
  8
0
 10
-118.837
 20
-43.6363
 11
-117.583
 21
-47.767
  0
LINE
  8
0
 10
-117.583
 20
-47.767
 11
-116.594
 21
-51.9631
  0
LINE
  8
0
 10
-116.594
 20
-51.9631
 11
-115.871
 21
-56.2122
  0
LINE
  8
0
 10
-115.871
 20
-56.2122
 11
-115.417
 21
-60.5018
  0
LINE
  8
0
 10
-115.417
 20
-60.5018
 11
-115.235
 21
-64.8193
  0
LINE
  8
0
 10
-115.235
 20
-64.8193
 11
-115.327
 21
-69.1528
  0
LINE
  8
0
 10
-115.327
 20
-69.1528
 11
-115.786
 21
-72.8547
  0
LINE
  8
0
 10
-115.786
 20
-72.8547
 11
-116.399
 21
-76.5299
  0
LINE
  8
0
 10
-116.399
 20
-76.5299
 11
-117.164
 21
-80.1738
  0
LINE
  8
0
 10
-117.164
 20
-80.1738
 11
-118.08
 21
-83.7819
  0
LINE
  8
0
 10
-118.08
 20
-83.7819
 11
-119.146
 21
-87.3495
  0
LINE
  8
0
 10
-119.146
 20
-87.3495
 11
-120.36
 21
-90.8721
  0
LINE
  8
0
 10
-120.36
 20
-90.8721
 11
-121.722
 21
-94.345
  0
LINE
  8
0
 10
-121.722
 20
-94.345
 11
-123.229
 21
-97.7638
  0
LINE
  8
0
 10
-123.229
 20
-97.7638
 11
-126.802
 21
-105.993
  0
LINE
  8
0
 10
-126.802
 20
-105.993
 11
-130.632
 21
-114.108
  0
LINE
  8
0
 10
-130.632
 20
-114.108
 11
-133.774
 21
-120.118
  0
LINE
  8
0
 10
-133.774
 20
-120.118
 11
-136.793
 21
-126.188
  0
LINE
  8
0
 10
-136.793
 20
-126.188
 11
-139.687
 21
-132.316
  0
LINE
  8
0
 10
-139.687
 20
-132.316
 11
-142.456
 21
-138.499
  0
LINE
  8
0
 10
-142.456
 20
-138.499
 11
-145.098
 21
-144.735
  0
LINE
  8
0
 10
-145.098
 20
-144.735
 11
-147.614
 21
-151.024
  0
LINE
  8
0
 10
-147.614
 20
-151.024
 11
-150.002
 21
-157.363
  0
LINE
  8
0
 10
-150.002
 20
-157.363
 11
-152.261
 21
-163.75
  0
LINE
  8
0
 10
-152.261
 20
-163.75
 11
-153.492
 21
-167.313
  0
LINE
  8
0
 10
-153.492
 20
-167.313
 11
-154.628
 21
-170.905
  0
LINE
  8
0
 10
-154.628
 20
-170.905
 11
-155.669
 21
-174.524
  0
LINE
  8
0
 10
-155.669
 20
-174.524
 11
-156.614
 21
-178.168
  0
LINE
  8
0
 10
-156.614
 20
-178.168
 11
-157.462
 21
-181.835
  0
LINE
  8
0
 10
-157.462
 20
-181.835
 11
-158.214
 21
-185.524
  0
LINE
  8
0
 10
-158.214
 20
-185.524
 11
-158.869
 21
-189.232
  0
LINE
  8
0
 10
-158.869
 20
-189.232
 11
-159.425
 21
-192.957
  0
LINE
  8
0
 10
-159.425
 20
-192.957
 11
-160.245
 21
-199.205
  0
LINE
  8
0
 10
-160.245
 20
-199.205
 11
-160.763
 21
-205.481
  0
LINE
  8
0
 10
-160.763
 20
-205.481
 11
-160.978
 21
-211.775
  0
LINE
  8
0
 10
-160.978
 20
-211.775
 11
-160.89
 21
-218.075
  0
LINE
  8
0
 10
-160.89
 20
-218.075
 11
-160.712
 21
-220.976
  0
LINE
  8
0
 10
-160.712
 20
-220.976
 11
-160.441
 21
-223.857
  0
LINE
  8
0
 10
-160.441
 20
-223.857
 11
-160.077
 21
-226.718
  0
LINE
  8
0
 10
-160.077
 20
-226.718
 11
-159.624
 21
-229.557
  0
LINE
  8
0
 10
-159.624
 20
-229.557
 11
-159.08
 21
-232.371
  0
LINE
  8
0
 10
-159.08
 20
-232.371
 11
-158.449
 21
-235.159
  0
LINE
  8
0
 10
-158.449
 20
-235.159
 11
-157.73
 21
-237.919
  0
LINE
  8
0
 10
-157.73
 20
-237.919
 11
-156.925
 21
-240.65
  0
LINE
  8
0
 10
-156.925
 20
-240.65
 11
-156.035
 21
-243.349
  0
LINE
  8
0
 10
-156.035
 20
-243.349
 11
-155.061
 21
-246.014
  0
LINE
  8
0
 10
-155.061
 20
-246.014
 11
-154.004
 21
-248.645
  0
LINE
  8
0
 10
-154.004
 20
-248.645
 11
-152.866
 21
-251.238
  0
LINE
  8
0
 10
-152.866
 20
-251.238
 11
-151.647
 21
-253.793
  0
LINE
  8
0
 10
-151.647
 20
-253.793
 11
-150.349
 21
-256.306
  0
LINE
  8
0
 10
-150.349
 20
-256.306
 11
-148.973
 21
-258.778
  0
LINE
  8
0
 10
-148.973
 20
-258.778
 11
-147.52
 21
-261.205
  0
LINE
  8
0
 10
-147.52
 20
-261.205
 11
-145.99
 21
-263.586
  0
LINE
  8
0
 10
-145.99
 20
-263.586
 11
-144.386
 21
-265.919
  0
LINE
  8
0
 10
-144.386
 20
-265.919
 11
-142.708
 21
-268.202
  0
LINE
  8
0
 10
-142.708
 20
-268.202
 11
-140.958
 21
-270.433
  0
LINE
  8
0
 10
-140.958
 20
-270.433
 11
-139.136
 21
-272.611
  0
LINE
  8
0
 10
-139.136
 20
-272.611
 11
-137.244
 21
-274.734
  0
LINE
  8
0
 10
-137.244
 20
-274.734
 11
-135.283
 21
-276.8
  0
LINE
  8
0
 10
-135.283
 20
-276.8
 11
-129.283
 21
-282.8
  0
LINE
  8
0
 10
-129.283
 20
-282.8
 11
-127.253
 21
-284.807
  0
LINE
  8
0
 10
-127.253
 20
-284.807
 11
-125.157
 21
-286.753
  0
LINE
  8
0
 10
-125.157
 20
-286.753
 11
-122.995
 21
-288.637
  0
LINE
  8
0
 10
-122.995
 20
-288.637
 11
-120.768
 21
-290.457
  0
LINE
  8
0
 10
-120.768
 20
-290.457
 11
-118.478
 21
-292.21
  0
LINE
  8
0
 10
-118.478
 20
-292.21
 11
-116.125
 21
-293.895
  0
LINE
  8
0
 10
-116.125
 20
-293.895
 11
-113.711
 21
-295.511
  0
LINE
  8
0
 10
-113.711
 20
-295.511
 11
-111.237
 21
-297.055
  0
LINE
  8
0
 10
-111.237
 20
-297.055
 11
-108.704
 21
-298.525
  0
LINE
  8
0
 10
-108.704
 20
-298.525
 11
-106.471
 21
-299.699
  0
LINE
  8
0
 10
-106.471
 20
-299.699
 11
-104.177
 21
-300.758
  0
LINE
  8
0
 10
-104.177
 20
-300.758
 11
-101.043
 21
-302.056
  0
LINE
  8
0
 10
-101.043
 20
-302.056
 11
-97.8734
 21
-303.266
  0
LINE
  8
0
 10
-97.8734
 20
-303.266
 11
-94.6711
 21
-304.389
  0
LINE
  8
0
 10
-94.6711
 20
-304.389
 11
-91.4376
 21
-305.422
  0
LINE
  8
0
 10
-91.4376
 20
-305.422
 11
-88.3103
 21
-306.318
  0
LINE
  8
0
 10
-88.3103
 20
-306.318
 11
-85.1542
 21
-307.11
  0
LINE
  8
0
 10
-85.1542
 20
-307.11
 11
-81.9731
 21
-307.796
  0
LINE
  8
0
 10
-81.9731
 20
-307.796
 11
-78.7687
 21
-308.377
  0
LINE
  8
0
 10
-78.7687
 20
-308.377
 11
-69.6052
 21
-309.756
  0
LINE
  8
0
 10
-69.6052
 20
-309.756
 11
-60.4088
 21
-310.887
  0
LINE
  8
0
 10
-60.4088
 20
-310.887
 11
-51.1846
 21
-311.769
  0
LINE
  8
0
 10
-51.1846
 20
-311.769
 11
-41.9374
 21
-312.403
  0
LINE
  8
0
 10
-41.9374
 20
-312.403
 11
-41.1491
 21
-312.438
  0
LINE
  8
0
 10
-41.1491
 20
-312.438
 11
-30.813
 21
-312.741
  0
LINE
  8
0
 10
-30.813
 20
-312.741
 11
-20.4753
 21
-312.957
  0
LINE
  8
0
 10
-20.4753
 20
-312.957
 11
-10.1364
 21
-313.086
  0
LINE
  8
0
 10
-10.1364
 20
-313.086
 11
0.202896
 21
-313.128
  0
LINE
  8
0
 10
0.202896
 20
-313.128
 11
10.5423
 21
-313.083
  0
LINE
  8
0
 10
-101.064
 20
73.838
 11
-101.851
 21
74.625
  0
LINE
  8
0
 10
-101.851
 20
74.625
 11
-102.139
 21
75.7
  0
LINE
  8
0
 10
-102.139
 20
75.7
 11
-101.851
 21
76.775
  0
LINE
  8
0
 10
-101.851
 20
76.775
 11
-101.064
 21
77.562
  0
LINE
  8
0
 10
-101.064
 20
77.562
 11
-99.989
 21
77.85
  0
LINE
  8
0
 10
-99.989
 20
77.85
 11
-98.914
 21
77.562
  0
LINE
  8
0
 10
-98.914
 20
77.562
 11
-98.127
 21
76.775
  0
LINE
  8
0
 10
-98.127
 20
76.775
 11
-97.839
 21
75.7
  0
LINE
  8
0
 10
-97.839
 20
75.7
 11
-98.127
 21
74.625
  0
LINE
  8
0
 10
-98.127
 20
74.625
 11
-98.914
 21
73.838
  0
LINE
  8
0
 10
-98.914
 20
73.838
 11
-99.989
 21
73.55
  0
LINE
  8
0
 10
-99.989
 20
73.55
 11
-101.064
 21
73.838
  0
LINE
  8
0
 10
106.936
 20
67.638
 11
106.149
 21
68.425
  0
LINE
  8
0
 10
106.149
 20
68.425
 11
105.861
 21
69.5
  0
LINE
  8
0
 10
105.861
 20
69.5
 11
106.149
 21
70.575
  0
LINE
  8
0
 10
106.149
 20
70.575
 11
106.936
 21
71.362
  0
LINE
  8
0
 10
106.936
 20
71.362
 11
108.011
 21
71.65
  0
LINE
  8
0
 10
108.011
 20
71.65
 11
109.086
 21
71.362
  0
LINE
  8
0
 10
109.086
 20
71.362
 11
109.873
 21
70.575
  0
LINE
  8
0
 10
109.873
 20
70.575
 11
110.161
 21
69.5
  0
LINE
  8
0
 10
110.161
 20
69.5
 11
109.873
 21
68.425
  0
LINE
  8
0
 10
109.873
 20
68.425
 11
109.086
 21
67.638
  0
LINE
  8
0
 10
109.086
 20
67.638
 11
108.011
 21
67.35
  0
LINE
  8
0
 10
108.011
 20
67.35
 11
106.936
 21
67.638
  0
LINE
  8
0
 10
-36.064
 20
48.488
 11
-36.851
 21
49.275
  0
LINE
  8
0
 10
-36.851
 20
49.275
 11
-37.139
 21
50.35
  0
LINE
  8
0
 10
-37.139
 20
50.35
 11
-36.851
 21
51.425
  0
LINE
  8
0
 10
-36.851
 20
51.425
 11
-36.064
 21
52.2119
  0
LINE
  8
0
 10
-36.064
 20
52.2119
 11
-34.989
 21
52.5
  0
LINE
  8
0
 10
-34.989
 20
52.5
 11
-33.914
 21
52.2119
  0
LINE
  8
0
 10
-33.914
 20
52.2119
 11
-33.127
 21
51.425
  0
LINE
  8
0
 10
-33.127
 20
51.425
 11
-32.839
 21
50.35
  0
LINE
  8
0
 10
-32.839
 20
50.35
 11
-33.127
 21
49.275
  0
LINE
  8
0
 10
-33.127
 20
49.275
 11
-33.914
 21
48.488
  0
LINE
  8
0
 10
-33.914
 20
48.488
 11
-34.989
 21
48.2
  0
LINE
  8
0
 10
-34.989
 20
48.2
 11
-36.064
 21
48.488
  0
LINE
  8
0
 10
80.936
 20
27.638
 11
80.149
 21
28.425
  0
LINE
  8
0
 10
80.149
 20
28.425
 11
79.861
 21
29.5
  0
LINE
  8
0
 10
79.861
 20
29.5
 11
80.149
 21
30.575
  0
LINE
  8
0
 10
80.149
 20
30.575
 11
80.936
 21
31.362
  0
LINE
  8
0
 10
80.936
 20
31.362
 11
82.011
 21
31.65
  0
LINE
  8
0
 10
82.011
 20
31.65
 11
83.086
 21
31.362
  0
LINE
  8
0
 10
83.086
 20
31.362
 11
83.873
 21
30.575
  0
LINE
  8
0
 10
83.873
 20
30.575
 11
84.161
 21
29.5
  0
LINE
  8
0
 10
84.161
 20
29.5
 11
83.873
 21
28.425
  0
LINE
  8
0
 10
83.873
 20
28.425
 11
83.086
 21
27.638
  0
LINE
  8
0
 10
83.086
 20
27.638
 11
82.011
 21
27.35
  0
LINE
  8
0
 10
82.011
 20
27.35
 11
80.936
 21
27.638
  0
LINE
  8
0
 10
130.686
 20
8.13799
 11
129.899
 21
8.92494
  0
LINE
  8
0
 10
129.899
 20
8.92494
 11
129.611
 21
9.99995
  0
LINE
  8
0
 10
129.611
 20
9.99995
 11
129.899
 21
11.075
  0
LINE
  8
0
 10
129.899
 20
11.075
 11
130.686
 21
11.862
  0
LINE
  8
0
 10
130.686
 20
11.862
 11
131.761
 21
12.1499
  0
LINE
  8
0
 10
131.761
 20
12.1499
 11
132.836
 21
11.862
  0
LINE
  8
0
 10
132.836
 20
11.862
 11
133.623
 21
11.075
  0
LINE
  8
0
 10
133.623
 20
11.075
 11
133.911
 21
9.99995
  0
LINE
  8
0
 10
133.911
 20
9.99995
 11
133.623
 21
8.92494
  0
LINE
  8
0
 10
133.623
 20
8.92494
 11
132.836
 21
8.13799
  0
LINE
  8
0
 10
132.836
 20
8.13799
 11
131.761
 21
7.84995
  0
LINE
  8
0
 10
131.761
 20
7.84995
 11
130.686
 21
8.13799
  0
LINE
  8
0
 10
-132.814
 20
8.13799
 11
-133.601
 21
8.92494
  0
LINE
  8
0
 10
-133.601
 20
8.92494
 11
-133.889
 21
9.99995
  0
LINE
  8
0
 10
-133.889
 20
9.99995
 11
-133.601
 21
11.075
  0
LINE
  8
0
 10
-133.601
 20
11.075
 11
-132.814
 21
11.862
  0
LINE
  8
0
 10
-132.814
 20
11.862
 11
-131.739
 21
12.1499
  0
LINE
  8
0
 10
-131.739
 20
12.1499
 11
-130.664
 21
11.862
  0
LINE
  8
0
 10
-130.664
 20
11.862
 11
-129.877
 21
11.075
  0
LINE
  8
0
 10
-129.877
 20
11.075
 11
-129.589
 21
9.99995
  0
LINE
  8
0
 10
-129.589
 20
9.99995
 11
-129.877
 21
8.92494
  0
LINE
  8
0
 10
-129.877
 20
8.92494
 11
-130.664
 21
8.13799
  0
LINE
  8
0
 10
-130.664
 20
8.13799
 11
-131.739
 21
7.84995
  0
LINE
  8
0
 10
-131.739
 20
7.84995
 11
-132.814
 21
8.13799
  0
LINE
  8
0
 10
38.936
 20
7.93799
 11
38.149
 21
8.72495
  0
LINE
  8
0
 10
38.149
 20
8.72495
 11
37.861
 21
9.79994
  0
LINE
  8
0
 10
37.861
 20
9.79994
 11
38.149
 21
10.875
  0
LINE
  8
0
 10
38.149
 20
10.875
 11
38.936
 21
11.6618
  0
LINE
  8
0
 10
38.936
 20
11.6618
 11
40.011
 21
11.95
  0
LINE
  8
0
 10
40.011
 20
11.95
 11
41.086
 21
11.6618
  0
LINE
  8
0
 10
41.086
 20
11.6618
 11
41.873
 21
10.875
  0
LINE
  8
0
 10
41.873
 20
10.875
 11
42.161
 21
9.79994
  0
LINE
  8
0
 10
42.161
 20
9.79994
 11
41.873
 21
8.72495
  0
LINE
  8
0
 10
41.873
 20
8.72495
 11
41.086
 21
7.93799
  0
LINE
  8
0
 10
41.086
 20
7.93799
 11
40.011
 21
7.64995
  0
LINE
  8
0
 10
40.011
 20
7.64995
 11
38.936
 21
7.93799
  0
LINE
  8
0
 10
-39.275
 20
-11.862
 11
-40.062
 21
-11.075
  0
LINE
  8
0
 10
-40.062
 20
-11.075
 11
-40.35
 21
-10
  0
LINE
  8
0
 10
-40.35
 20
-10
 11
-40.062
 21
-8.92499
  0
LINE
  8
0
 10
-40.062
 20
-8.92499
 11
-39.275
 21
-8.13803
  0
LINE
  8
0
 10
-39.275
 20
-8.13803
 11
-38.2
 21
-7.84999
  0
LINE
  8
0
 10
-38.2
 20
-7.84999
 11
-37.125
 21
-8.13803
  0
LINE
  8
0
 10
-37.125
 20
-8.13803
 11
-36.338
 21
-8.92499
  0
LINE
  8
0
 10
-36.338
 20
-8.92499
 11
-36.05
 21
-10
  0
LINE
  8
0
 10
-36.05
 20
-10
 11
-36.338
 21
-11.075
  0
LINE
  8
0
 10
-36.338
 20
-11.075
 11
-37.125
 21
-11.862
  0
LINE
  8
0
 10
-37.125
 20
-11.862
 11
-38.2
 21
-12.15
  0
LINE
  8
0
 10
-38.2
 20
-12.15
 11
-39.275
 21
-11.862
  0
LINE
  8
0
 10
37.125
 20
-11.862
 11
36.338
 21
-11.075
  0
LINE
  8
0
 10
36.338
 20
-11.075
 11
36.05
 21
-10
  0
LINE
  8
0
 10
36.05
 20
-10
 11
36.338
 21
-8.92499
  0
LINE
  8
0
 10
36.338
 20
-8.92499
 11
37.125
 21
-8.13803
  0
LINE
  8
0
 10
37.125
 20
-8.13803
 11
38.2
 21
-7.84999
  0
LINE
  8
0
 10
38.2
 20
-7.84999
 11
39.275
 21
-8.13803
  0
LINE
  8
0
 10
39.275
 20
-8.13803
 11
40.062
 21
-8.92499
  0
LINE
  8
0
 10
40.062
 20
-8.92499
 11
40.35
 21
-10
  0
LINE
  8
0
 10
40.35
 20
-10
 11
40.062
 21
-11.075
  0
LINE
  8
0
 10
40.062
 20
-11.075
 11
39.275
 21
-11.862
  0
LINE
  8
0
 10
39.275
 20
-11.862
 11
38.2
 21
-12.15
  0
LINE
  8
0
 10
38.2
 20
-12.15
 11
37.125
 21
-11.862
  0
LINE
  8
0
 10
-73.075
 20
-51.862
 11
-73.862
 21
-51.075
  0
LINE
  8
0
 10
-73.862
 20
-51.075
 11
-74.15
 21
-50
  0
LINE
  8
0
 10
-74.15
 20
-50
 11
-73.862
 21
-48.925
  0
LINE
  8
0
 10
-73.862
 20
-48.925
 11
-73.075
 21
-48.138
  0
LINE
  8
0
 10
-73.075
 20
-48.138
 11
-72
 21
-47.85
  0
LINE
  8
0
 10
-72
 20
-47.85
 11
-70.925
 21
-48.138
  0
LINE
  8
0
 10
-70.925
 20
-48.138
 11
-70.138
 21
-48.925
  0
LINE
  8
0
 10
-70.138
 20
-48.925
 11
-69.85
 21
-50
  0
LINE
  8
0
 10
-69.85
 20
-50
 11
-70.138
 21
-51.075
  0
LINE
  8
0
 10
-70.138
 20
-51.075
 11
-70.925
 21
-51.862
  0
LINE
  8
0
 10
-70.925
 20
-51.862
 11
-72
 21
-52.15
  0
LINE
  8
0
 10
-72
 20
-52.15
 11
-73.075
 21
-51.862
  0
LINE
  8
0
 10
70.925
 20
-51.862
 11
70.138
 21
-51.075
  0
LINE
  8
0
 10
70.138
 20
-51.075
 11
69.85
 21
-50
  0
LINE
  8
0
 10
69.85
 20
-50
 11
70.138
 21
-48.925
  0
LINE
  8
0
 10
70.138
 20
-48.925
 11
70.925
 21
-48.138
  0
LINE
  8
0
 10
70.925
 20
-48.138
 11
72
 21
-47.85
  0
LINE
  8
0
 10
72
 20
-47.85
 11
73.075
 21
-48.138
  0
LINE
  8
0
 10
73.075
 20
-48.138
 11
73.862
 21
-48.925
  0
LINE
  8
0
 10
73.862
 20
-48.925
 11
74.15
 21
-50
  0
LINE
  8
0
 10
74.15
 20
-50
 11
73.862
 21
-51.075
  0
LINE
  8
0
 10
73.862
 20
-51.075
 11
73.075
 21
-51.862
  0
LINE
  8
0
 10
73.075
 20
-51.862
 11
72
 21
-52.15
  0
LINE
  8
0
 10
72
 20
-52.15
 11
70.925
 21
-51.862
  0
LINE
  8
0
 10
108.136
 20
-66.8621
 11
107.349
 21
-66.0751
  0
LINE
  8
0
 10
107.349
 20
-66.0751
 11
107.061
 21
-65.0001
  0
LINE
  8
0
 10
107.061
 20
-65.0001
 11
107.349
 21
-63.9251
  0
LINE
  8
0
 10
107.349
 20
-63.9251
 11
108.136
 21
-63.1381
  0
LINE
  8
0
 10
108.136
 20
-63.1381
 11
109.211
 21
-62.8501
  0
LINE
  8
0
 10
109.211
 20
-62.8501
 11
110.286
 21
-63.1381
  0
LINE
  8
0
 10
110.286
 20
-63.1381
 11
111.073
 21
-63.9251
  0
LINE
  8
0
 10
111.073
 20
-63.9251
 11
111.361
 21
-65.0001
  0
LINE
  8
0
 10
111.361
 20
-65.0001
 11
111.073
 21
-66.0751
  0
LINE
  8
0
 10
111.073
 20
-66.0751
 11
110.286
 21
-66.8621
  0
LINE
  8
0
 10
110.286
 20
-66.8621
 11
109.211
 21
-67.1501
  0
LINE
  8
0
 10
109.211
 20
-67.1501
 11
108.136
 21
-66.8621
  0
LINE
  8
0
 10
-110.264
 20
-66.8621
 11
-111.051
 21
-66.0751
  0
LINE
  8
0
 10
-111.051
 20
-66.0751
 11
-111.339
 21
-65.0001
  0
LINE
  8
0
 10
-111.339
 20
-65.0001
 11
-111.051
 21
-63.9251
  0
LINE
  8
0
 10
-111.051
 20
-63.9251
 11
-110.264
 21
-63.1381
  0
LINE
  8
0
 10
-110.264
 20
-63.1381
 11
-109.189
 21
-62.8501
  0
LINE
  8
0
 10
-109.189
 20
-62.8501
 11
-108.114
 21
-63.1381
  0
LINE
  8
0
 10
-108.114
 20
-63.1381
 11
-107.327
 21
-63.9251
  0
LINE
  8
0
 10
-107.327
 20
-63.9251
 11
-107.039
 21
-65.0001
  0
LINE
  8
0
 10
-107.039
 20
-65.0001
 11
-107.327
 21
-66.0751
  0
LINE
  8
0
 10
-107.327
 20
-66.0751
 11
-108.114
 21
-66.8621
  0
LINE
  8
0
 10
-108.114
 20
-66.8621
 11
-109.189
 21
-67.1501
  0
LINE
  8
0
 10
-109.189
 20
-67.1501
 11
-110.264
 21
-66.8621
  0
LINE
  8
0
 10
134.936
 20
-139.862
 11
134.149
 21
-139.075
  0
LINE
  8
0
 10
134.149
 20
-139.075
 11
133.861
 21
-138
  0
LINE
  8
0
 10
133.861
 20
-138
 11
134.149
 21
-136.925
  0
LINE
  8
0
 10
134.149
 20
-136.925
 11
134.936
 21
-136.138
  0
LINE
  8
0
 10
134.936
 20
-136.138
 11
136.011
 21
-135.85
  0
LINE
  8
0
 10
136.011
 20
-135.85
 11
137.086
 21
-136.138
  0
LINE
  8
0
 10
137.086
 20
-136.138
 11
137.873
 21
-136.925
  0
LINE
  8
0
 10
137.873
 20
-136.925
 11
138.161
 21
-138
  0
LINE
  8
0
 10
138.161
 20
-138
 11
137.873
 21
-139.075
  0
LINE
  8
0
 10
137.873
 20
-139.075
 11
137.086
 21
-139.862
  0
LINE
  8
0
 10
137.086
 20
-139.862
 11
136.011
 21
-140.15
  0
LINE
  8
0
 10
136.011
 20
-140.15
 11
134.936
 21
-139.862
  0
LINE
  8
0
 10
-137.064
 20
-139.862
 11
-137.851
 21
-139.075
  0
LINE
  8
0
 10
-137.851
 20
-139.075
 11
-138.139
 21
-138
  0
LINE
  8
0
 10
-138.139
 20
-138
 11
-137.851
 21
-136.925
  0
LINE
  8
0
 10
-137.851
 20
-136.925
 11
-137.064
 21
-136.138
  0
LINE
  8
0
 10
-137.064
 20
-136.138
 11
-135.989
 21
-135.85
  0
LINE
  8
0
 10
-135.989
 20
-135.85
 11
-134.914
 21
-136.138
  0
LINE
  8
0
 10
-134.914
 20
-136.138
 11
-134.127
 21
-136.925
  0
LINE
  8
0
 10
-134.127
 20
-136.925
 11
-133.839
 21
-138
  0
LINE
  8
0
 10
-133.839
 20
-138
 11
-134.127
 21
-139.075
  0
LINE
  8
0
 10
-134.127
 20
-139.075
 11
-134.914
 21
-139.862
  0
LINE
  8
0
 10
-134.914
 20
-139.862
 11
-135.989
 21
-140.15
  0
LINE
  8
0
 10
-135.989
 20
-140.15
 11
-137.064
 21
-139.862
  0
LINE
  8
0
 10
70.925
 20
-146.862
 11
70.138
 21
-146.075
  0
LINE
  8
0
 10
70.138
 20
-146.075
 11
69.85
 21
-145
  0
LINE
  8
0
 10
69.85
 20
-145
 11
70.138
 21
-143.925
  0
LINE
  8
0
 10
70.138
 20
-143.925
 11
70.925
 21
-143.138
  0
LINE
  8
0
 10
70.925
 20
-143.138
 11
72
 21
-142.85
  0
LINE
  8
0
 10
72
 20
-142.85
 11
73.075
 21
-143.138
  0
LINE
  8
0
 10
73.075
 20
-143.138
 11
73.862
 21
-143.925
  0
LINE
  8
0
 10
73.862
 20
-143.925
 11
74.15
 21
-145
  0
LINE
  8
0
 10
74.15
 20
-145
 11
73.862
 21
-146.075
  0
LINE
  8
0
 10
73.862
 20
-146.075
 11
73.075
 21
-146.862
  0
LINE
  8
0
 10
73.075
 20
-146.862
 11
72
 21
-147.15
  0
LINE
  8
0
 10
72
 20
-147.15
 11
70.925
 21
-146.862
  0
LINE
  8
0
 10
-73.075
 20
-146.862
 11
-73.862
 21
-146.075
  0
LINE
  8
0
 10
-73.862
 20
-146.075
 11
-74.15
 21
-145
  0
LINE
  8
0
 10
-74.15
 20
-145
 11
-73.862
 21
-143.925
  0
LINE
  8
0
 10
-73.862
 20
-143.925
 11
-73.075
 21
-143.138
  0
LINE
  8
0
 10
-73.075
 20
-143.138
 11
-72
 21
-142.85
  0
LINE
  8
0
 10
-72
 20
-142.85
 11
-70.925
 21
-143.138
  0
LINE
  8
0
 10
-70.925
 20
-143.138
 11
-70.138
 21
-143.925
  0
LINE
  8
0
 10
-70.138
 20
-143.925
 11
-69.85
 21
-145
  0
LINE
  8
0
 10
-69.85
 20
-145
 11
-70.138
 21
-146.075
  0
LINE
  8
0
 10
-70.138
 20
-146.075
 11
-70.925
 21
-146.862
  0
LINE
  8
0
 10
-70.925
 20
-146.862
 11
-72
 21
-147.15
  0
LINE
  8
0
 10
-72
 20
-147.15
 11
-73.075
 21
-146.862
  0
LINE
  8
0
 10
-155.864
 20
-218.862
 11
-156.651
 21
-218.075
  0
LINE
  8
0
 10
-156.651
 20
-218.075
 11
-156.939
 21
-217
  0
LINE
  8
0
 10
-156.939
 20
-217
 11
-156.651
 21
-215.925
  0
LINE
  8
0
 10
-156.651
 20
-215.925
 11
-155.864
 21
-215.138
  0
LINE
  8
0
 10
-155.864
 20
-215.138
 11
-154.789
 21
-214.85
  0
LINE
  8
0
 10
-154.789
 20
-214.85
 11
-153.714
 21
-215.138
  0
LINE
  8
0
 10
-153.714
 20
-215.138
 11
-152.927
 21
-215.925
  0
LINE
  8
0
 10
-152.927
 20
-215.925
 11
-152.639
 21
-217
  0
LINE
  8
0
 10
-152.639
 20
-217
 11
-152.927
 21
-218.075
  0
LINE
  8
0
 10
-152.927
 20
-218.075
 11
-153.714
 21
-218.862
  0
LINE
  8
0
 10
-153.714
 20
-218.862
 11
-154.789
 21
-219.15
  0
LINE
  8
0
 10
-154.789
 20
-219.15
 11
-155.864
 21
-218.862
  0
LINE
  8
0
 10
153.736
 20
-218.862
 11
152.949
 21
-218.075
  0
LINE
  8
0
 10
152.949
 20
-218.075
 11
152.661
 21
-217
  0
LINE
  8
0
 10
152.661
 20
-217
 11
152.949
 21
-215.925
  0
LINE
  8
0
 10
152.949
 20
-215.925
 11
153.736
 21
-215.138
  0
LINE
  8
0
 10
153.736
 20
-215.138
 11
154.811
 21
-214.85
  0
LINE
  8
0
 10
154.811
 20
-214.85
 11
155.886
 21
-215.138
  0
LINE
  8
0
 10
155.886
 20
-215.138
 11
156.673
 21
-215.925
  0
LINE
  8
0
 10
156.673
 20
-215.925
 11
156.961
 21
-217
  0
LINE
  8
0
 10
156.961
 20
-217
 11
156.673
 21
-218.075
  0
LINE
  8
0
 10
156.673
 20
-218.075
 11
155.886
 21
-218.862
  0
LINE
  8
0
 10
155.886
 20
-218.862
 11
154.811
 21
-219.15
  0
LINE
  8
0
 10
154.811
 20
-219.15
 11
153.736
 21
-218.862
  0
LINE
  8
0
 10
70.925
 20
-241.862
 11
70.138
 21
-241.075
  0
LINE
  8
0
 10
70.138
 20
-241.075
 11
69.85
 21
-240
  0
LINE
  8
0
 10
69.85
 20
-240
 11
70.138
 21
-238.925
  0
LINE
  8
0
 10
70.138
 20
-238.925
 11
70.925
 21
-238.138
  0
LINE
  8
0
 10
70.925
 20
-238.138
 11
72
 21
-237.85
  0
LINE
  8
0
 10
72
 20
-237.85
 11
73.075
 21
-238.138
  0
LINE
  8
0
 10
73.075
 20
-238.138
 11
73.862
 21
-238.925
  0
LINE
  8
0
 10
73.862
 20
-238.925
 11
74.15
 21
-240
  0
LINE
  8
0
 10
74.15
 20
-240
 11
73.862
 21
-241.075
  0
LINE
  8
0
 10
73.862
 20
-241.075
 11
73.075
 21
-241.862
  0
LINE
  8
0
 10
73.075
 20
-241.862
 11
72
 21
-242.15
  0
LINE
  8
0
 10
72
 20
-242.15
 11
70.925
 21
-241.862
  0
LINE
  8
0
 10
-73.075
 20
-241.862
 11
-73.862
 21
-241.075
  0
LINE
  8
0
 10
-73.862
 20
-241.075
 11
-74.15
 21
-240
  0
LINE
  8
0
 10
-74.15
 20
-240
 11
-73.862
 21
-238.925
  0
LINE
  8
0
 10
-73.862
 20
-238.925
 11
-73.075
 21
-238.138
  0
LINE
  8
0
 10
-73.075
 20
-238.138
 11
-72
 21
-237.85
  0
LINE
  8
0
 10
-72
 20
-237.85
 11
-70.925
 21
-238.138
  0
LINE
  8
0
 10
-70.925
 20
-238.138
 11
-70.138
 21
-238.925
  0
LINE
  8
0
 10
-70.138
 20
-238.925
 11
-69.85
 21
-240
  0
LINE
  8
0
 10
-69.85
 20
-240
 11
-70.138
 21
-241.075
  0
LINE
  8
0
 10
-70.138
 20
-241.075
 11
-70.925
 21
-241.862
  0
LINE
  8
0
 10
-70.925
 20
-241.862
 11
-72
 21
-242.15
  0
LINE
  8
0
 10
-72
 20
-242.15
 11
-73.075
 21
-241.862
  0
LINE
  8
0
 10
-29.138
 20
-278.925
 11
-28.85
 21
-280
  0
LINE
  8
0
 10
-28.85
 20
-280
 11
-29.138
 21
-281.075
  0
LINE
  8
0
 10
-29.138
 20
-281.075
 11
-29.925
 21
-281.862
  0
LINE
  8
0
 10
-29.925
 20
-281.862
 11
-31
 21
-282.15
  0
LINE
  8
0
 10
-31
 20
-282.15
 11
-32.075
 21
-281.862
  0
LINE
  8
0
 10
-32.075
 20
-281.862
 11
-32.862
 21
-281.075
  0
LINE
  8
0
 10
-32.862
 20
-281.075
 11
-33.15
 21
-280
  0
LINE
  8
0
 10
-33.15
 20
-280
 11
-32.862
 21
-278.925
  0
LINE
  8
0
 10
-32.862
 20
-278.925
 11
-32.075
 21
-278.138
  0
LINE
  8
0
 10
-32.075
 20
-278.138
 11
-31
 21
-277.85
  0
LINE
  8
0
 10
-31
 20
-277.85
 11
-29.925
 21
-278.138
  0
LINE
  8
0
 10
-29.925
 20
-278.138
 11
-29.138
 21
-278.925
  0
LINE
  8
0
 10
29.925
 20
-281.862
 11
29.138
 21
-281.075
  0
LINE
  8
0
 10
29.138
 20
-281.075
 11
28.85
 21
-280
  0
LINE
  8
0
 10
28.85
 20
-280
 11
29.138
 21
-278.925
  0
LINE
  8
0
 10
29.138
 20
-278.925
 11
29.925
 21
-278.138
  0
LINE
  8
0
 10
29.925
 20
-278.138
 11
31
 21
-277.85
  0
LINE
  8
0
 10
31
 20
-277.85
 11
32.075
 21
-278.138
  0
LINE
  8
0
 10
32.075
 20
-278.138
 11
32.862
 21
-278.925
  0
LINE
  8
0
 10
32.862
 20
-278.925
 11
33.15
 21
-280
  0
LINE
  8
0
 10
33.15
 20
-280
 11
32.862
 21
-281.075
  0
LINE
  8
0
 10
32.862
 20
-281.075
 11
32.075
 21
-281.862
  0
LINE
  8
0
 10
32.075
 20
-281.862
 11
31
 21
-282.15
  0
LINE
  8
0
 10
31
 20
-282.15
 11
29.925
 21
-281.862
  0
LINE
  8
0
 10
-115.064
 20
-290.862
 11
-115.851
 21
-290.075
  0
LINE
  8
0
 10
-115.851
 20
-290.075
 11
-116.139
 21
-289
  0
LINE
  8
0
 10
-116.139
 20
-289
 11
-115.851
 21
-287.925
  0
LINE
  8
0
 10
-115.851
 20
-287.925
 11
-115.064
 21
-287.138
  0
LINE
  8
0
 10
-115.064
 20
-287.138
 11
-113.989
 21
-286.85
  0
LINE
  8
0
 10
-113.989
 20
-286.85
 11
-112.914
 21
-287.138
  0
LINE
  8
0
 10
-112.914
 20
-287.138
 11
-112.127
 21
-287.925
  0
LINE
  8
0
 10
-112.127
 20
-287.925
 11
-111.839
 21
-289
  0
LINE
  8
0
 10
-111.839
 20
-289
 11
-112.127
 21
-290.075
  0
LINE
  8
0
 10
-112.127
 20
-290.075
 11
-112.914
 21
-290.862
  0
LINE
  8
0
 10
-112.914
 20
-290.862
 11
-113.989
 21
-291.15
  0
LINE
  8
0
 10
-113.989
 20
-291.15
 11
-115.064
 21
-290.862
  0
LINE
  8
0
 10
112.936
 20
-290.862
 11
112.149
 21
-290.075
  0
LINE
  8
0
 10
112.149
 20
-290.075
 11
111.861
 21
-289
  0
LINE
  8
0
 10
111.861
 20
-289
 11
112.149
 21
-287.925
  0
LINE
  8
0
 10
112.149
 20
-287.925
 11
112.936
 21
-287.138
  0
LINE
  8
0
 10
112.936
 20
-287.138
 11
114.011
 21
-286.85
  0
LINE
  8
0
 10
114.011
 20
-286.85
 11
115.086
 21
-287.138
  0
LINE
  8
0
 10
115.086
 20
-287.138
 11
115.873
 21
-287.925
  0
LINE
  8
0
 10
115.873
 20
-287.925
 11
116.161
 21
-289
  0
LINE
  8
0
 10
116.161
 20
-289
 11
115.873
 21
-290.075
  0
LINE
  8
0
 10
115.873
 20
-290.075
 11
115.086
 21
-290.862
  0
LINE
  8
0
 10
115.086
 20
-290.862
 11
114.011
 21
-291.15
  0
LINE
  8
0
 10
114.011
 20
-291.15
 11
112.936
 21
-290.862
  0
LINE
  8
0
 10
-41.064
 20
-308.362
 11
-41.851
 21
-307.575
  0
LINE
  8
0
 10
-41.851
 20
-307.575
 11
-42.139
 21
-306.5
  0
LINE
  8
0
 10
-42.139
 20
-306.5
 11
-41.851
 21
-305.425
  0
LINE
  8
0
 10
-41.851
 20
-305.425
 11
-41.064
 21
-304.638
  0
LINE
  8
0
 10
-41.064
 20
-304.638
 11
-39.989
 21
-304.35
  0
LINE
  8
0
 10
-39.989
 20
-304.35
 11
-38.914
 21
-304.638
  0
LINE
  8
0
 10
-38.914
 20
-304.638
 11
-38.127
 21
-305.425
  0
LINE
  8
0
 10
-38.127
 20
-305.425
 11
-37.839
 21
-306.5
  0
LINE
  8
0
 10
-37.839
 20
-306.5
 11
-38.127
 21
-307.575
  0
LINE
  8
0
 10
-38.127
 20
-307.575
 11
-38.914
 21
-308.362
  0
LINE
  8
0
 10
-38.914
 20
-308.362
 11
-39.989
 21
-308.65
  0
LINE
  8
0
 10
-39.989
 20
-308.65
 11
-41.064
 21
-308.362
  0
LINE
  8
0
 10
38.936
 20
-308.362
 11
38.149
 21
-307.575
  0
LINE
  8
0
 10
38.149
 20
-307.575
 11
37.861
 21
-306.5
  0
LINE
  8
0
 10
37.861
 20
-306.5
 11
38.149
 21
-305.425
  0
LINE
  8
0
 10
38.149
 20
-305.425
 11
38.936
 21
-304.638
  0
LINE
  8
0
 10
38.936
 20
-304.638
 11
40.011
 21
-304.35
  0
LINE
  8
0
 10
40.011
 20
-304.35
 11
41.086
 21
-304.638
  0
LINE
  8
0
 10
41.086
 20
-304.638
 11
41.873
 21
-305.425
  0
LINE
  8
0
 10
41.873
 20
-305.425
 11
42.161
 21
-306.5
  0
LINE
  8
0
 10
42.161
 20
-306.5
 11
41.873
 21
-307.575
  0
LINE
  8
0
 10
41.873
 20
-307.575
 11
41.086
 21
-308.362
  0
LINE
  8
0
 10
41.086
 20
-308.362
 11
40.011
 21
-308.65
  0
LINE
  8
0
 10
40.011
 20
-308.65
 11
38.936
 21
-308.362
  0
ENDSEC
  0
SECTION
  2
OBJECTS
  0
DICTIONARY
  0
ENDSEC
  0
EOF
