M48
; DRILL file {KiCad 6.0.0} date So 02 Jan 2022 16:56:45 CET
; FORMAT={-:-/ absolute / metric / decimal}
; #@! TF.CreationDate,2022-01-02T16:56:45+01:00
; #@! TF.GenerationSoftware,Kicad,Pcbnew,6.0.0
; #@! TF.FileFunction,Plated,1,2,PTH
FMAT,2
METRIC
; #@! TA.AperFunction,Plated,PTH,ViaDrill
T1C0.600
; #@! TA.AperFunction,Plated,PTH,ComponentDrill
T2C1.000
%
G90
G05
T1
X6.45Y44.386
X10.108Y41.389
X11.262Y6.431
X11.53Y44.403
X15.188Y41.389
X15.823Y33.058
X16.469Y6.431
X16.661Y44.437
X20.903Y33.058
X21.676Y6.431
X21.741Y44.437
X26.629Y6.431
X26.77Y44.437
X31.709Y6.431
X31.85Y44.437
X36.789Y6.431
X36.88Y44.44
X41.869Y6.431
X42.061Y44.488
T2
X3.352Y46.774
X3.352Y44.234
X3.352Y41.694
X5.658Y35.979
X5.663Y33.439
X5.663Y30.899
X5.663Y28.359
X5.663Y25.819
X5.663Y23.279
X5.663Y20.739
X8.198Y35.979
X8.203Y20.739
X9.712Y53.759
X9.752Y3.137
X10.738Y35.979
X10.743Y20.739
X12.252Y53.759
X12.292Y3.137
X13.278Y35.979
X13.283Y20.739
X14.792Y53.759
X14.832Y3.137
X15.818Y35.979
X15.823Y20.739
X18.358Y35.979
X18.363Y20.739
X20.898Y35.979
X20.903Y20.739
X21.69Y53.835
X22.305Y3.112
X23.438Y35.979
X23.443Y20.739
X24.23Y53.835
X24.845Y3.112
X25.978Y35.979
X25.983Y20.739
X26.77Y53.835
X27.385Y3.112
X28.518Y35.979
X28.523Y20.739
X29.31Y53.835
X29.925Y3.112
X31.058Y35.979
X31.063Y20.739
X31.85Y53.835
X32.465Y3.112
X33.598Y35.979
X33.603Y20.739
X34.39Y53.835
X35.005Y3.112
X36.138Y35.979
X36.143Y20.739
X36.93Y53.835
X37.545Y3.112
X38.678Y35.979
X38.683Y20.739
X39.47Y53.835
X41.218Y35.979
X41.223Y20.739
X43.758Y35.979
X43.763Y20.739
X46.298Y35.979
X46.303Y20.739
X46.303Y3.086
X46.313Y53.759
X48.838Y35.979
X48.843Y20.739
X48.843Y3.086
X48.853Y53.759
X51.378Y35.979
X51.383Y20.739
X51.383Y3.086
X51.393Y53.759
X53.918Y35.979
X53.923Y20.739
X53.923Y3.086
X53.933Y53.759
X56.458Y35.979
X56.463Y20.739
X56.463Y3.086
X56.473Y53.759
X58.998Y35.979
X59.003Y20.739
X59.003Y3.086
X59.013Y53.759
X61.538Y35.979
X61.543Y20.739
X61.543Y3.086
X61.553Y53.759
X64.078Y35.979
X64.083Y20.739
X64.083Y3.086
X64.093Y53.759
X66.618Y35.979
X66.623Y20.739
X66.623Y3.086
X66.633Y53.759
X69.158Y35.979
X69.163Y20.739
X69.163Y3.086
X69.173Y53.759
X71.698Y35.979
X71.703Y20.739
X71.703Y3.086
X71.713Y53.759
X74.238Y35.979
X74.243Y20.739
X74.243Y3.086
X74.253Y53.759
X76.778Y35.979
X76.783Y20.739
X76.783Y3.086
X76.793Y53.759
X79.318Y35.979
X79.323Y29.629
X79.323Y27.089
X79.323Y20.739
X79.323Y3.086
X79.333Y53.759
X79.348Y49.974
X79.348Y47.434
X79.348Y44.894
X79.348Y42.354
X79.348Y39.814
T0
M30
