%TF.GenerationSoftware,KiCad,Pcbnew,6.0.0*%
%TF.CreationDate,2022-01-02T16:56:47+01:00*%
%TF.ProjectId,kaugummi_motherboard,6b617567-756d-46d6-995f-6d6f74686572,rev?*%
%TF.SameCoordinates,PX328b740PY6cb8080*%
%TF.FileFunction,Copper,L1,Top*%
%TF.FilePolarity,Positive*%
%FSLAX46Y46*%
G04 Gerber Fmt 4.6, Leading zero omitted, Abs format (unit mm)*
G04 Created by KiCad (PCBNEW 6.0.0) date 2022-01-02 16:56:47*
%MOMM*%
%LPD*%
G01*
G04 APERTURE LIST*
G04 Aperture macros list*
%AMRoundRect*
0 Rectangle with rounded corners*
0 $1 Rounding radius*
0 $2 $3 $4 $5 $6 $7 $8 $9 X,Y pos of 4 corners*
0 Add a 4 corners polygon primitive as box body*
4,1,4,$2,$3,$4,$5,$6,$7,$8,$9,$2,$3,0*
0 Add four circle primitives for the rounded corners*
1,1,$1+$1,$2,$3*
1,1,$1+$1,$4,$5*
1,1,$1+$1,$6,$7*
1,1,$1+$1,$8,$9*
0 Add four rect primitives between the rounded corners*
20,1,$1+$1,$2,$3,$4,$5,0*
20,1,$1+$1,$4,$5,$6,$7,0*
20,1,$1+$1,$6,$7,$8,$9,0*
20,1,$1+$1,$8,$9,$2,$3,0*%
G04 Aperture macros list end*
%TA.AperFunction,ComponentPad*%
%ADD10R,1.700000X1.700000*%
%TD*%
%TA.AperFunction,ComponentPad*%
%ADD11O,1.700000X1.700000*%
%TD*%
%TA.AperFunction,ComponentPad*%
%ADD12C,1.700000*%
%TD*%
%TA.AperFunction,SMDPad,CuDef*%
%ADD13RoundRect,0.250000X-0.450000X0.350000X-0.450000X-0.350000X0.450000X-0.350000X0.450000X0.350000X0*%
%TD*%
%TA.AperFunction,SMDPad,CuDef*%
%ADD14RoundRect,0.250000X0.350000X0.450000X-0.350000X0.450000X-0.350000X-0.450000X0.350000X-0.450000X0*%
%TD*%
%TA.AperFunction,SMDPad,CuDef*%
%ADD15RoundRect,0.250000X-0.337500X-0.475000X0.337500X-0.475000X0.337500X0.475000X-0.337500X0.475000X0*%
%TD*%
%TA.AperFunction,SMDPad,CuDef*%
%ADD16RoundRect,0.250000X-0.475000X0.337500X-0.475000X-0.337500X0.475000X-0.337500X0.475000X0.337500X0*%
%TD*%
%TA.AperFunction,SMDPad,CuDef*%
%ADD17RoundRect,0.250000X0.337500X0.475000X-0.337500X0.475000X-0.337500X-0.475000X0.337500X-0.475000X0*%
%TD*%
%TA.AperFunction,ViaPad*%
%ADD18C,1.500000*%
%TD*%
%TA.AperFunction,ViaPad*%
%ADD19C,2.000000*%
%TD*%
%TA.AperFunction,Conductor*%
%ADD20C,0.500000*%
%TD*%
G04 APERTURE END LIST*
D10*
%TO.P,J12,1,Pin_1*%
%TO.N,GNDREF*%
X79348400Y49974400D03*
%TO.P,J12,2,Pin_2*%
X79348400Y47434400D03*
%TO.P,J12,3,Pin_3*%
X79348400Y44894400D03*
%TO.P,J12,4,Pin_4*%
X79348400Y42354400D03*
%TO.P,J12,5,Pin_5*%
X79348400Y39814400D03*
%TD*%
%TO.P,J11,1,Pin_1*%
%TO.N,GNDA*%
X3351600Y46774000D03*
%TO.P,J11,2,Pin_2*%
X3351600Y44234000D03*
%TO.P,J11,3,Pin_3*%
X3351600Y41694000D03*
%TD*%
D11*
%TO.P,J10,14,Pin_14*%
%TO.N,Net-(J4-Pad17)*%
X46303000Y3086000D03*
%TO.P,J10,13,Pin_13*%
%TO.N,Net-(J4-Pad18)*%
X48843000Y3086000D03*
%TO.P,J10,12,Pin_12*%
%TO.N,Net-(J4-Pad19)*%
X51383000Y3086000D03*
%TO.P,J10,11,Pin_11*%
%TO.N,Net-(J4-Pad20)*%
X53923000Y3086000D03*
%TO.P,J10,10,Pin_10*%
%TO.N,Net-(J4-Pad21)*%
X56463000Y3086000D03*
%TO.P,J10,9,Pin_9*%
%TO.N,Net-(J4-Pad22)*%
X59003000Y3086000D03*
%TO.P,J10,8,Pin_8*%
%TO.N,Net-(J4-Pad23)*%
X61543000Y3086000D03*
%TO.P,J10,7,Pin_7*%
%TO.N,Net-(J4-Pad24)*%
X64083000Y3086000D03*
%TO.P,J10,6,Pin_6*%
%TO.N,Net-(J4-Pad25)*%
X66623000Y3086000D03*
%TO.P,J10,5,Pin_5*%
%TO.N,Net-(J4-Pad26)*%
X69163000Y3086000D03*
%TO.P,J10,4,Pin_4*%
%TO.N,Net-(J4-Pad27)*%
X71703000Y3086000D03*
%TO.P,J10,3,Pin_3*%
%TO.N,Net-(J4-Pad28)*%
X74243000Y3086000D03*
%TO.P,J10,2,Pin_2*%
%TO.N,Net-(J4-Pad29)*%
X76783000Y3086000D03*
D12*
%TO.P,J10,1,Pin_1*%
%TO.N,VCC*%
X79323000Y3086000D03*
%TD*%
%TO.P,J9,1,Pin_1*%
%TO.N,Net-(J3-Pad14)*%
X46313000Y53759000D03*
D11*
%TO.P,J9,2,Pin_2*%
%TO.N,Net-(J3-Pad13)*%
X48853000Y53759000D03*
%TO.P,J9,3,Pin_3*%
%TO.N,Net-(J3-Pad12)*%
X51393000Y53759000D03*
%TO.P,J9,4,Pin_4*%
%TO.N,Net-(J3-Pad11)*%
X53933000Y53759000D03*
%TO.P,J9,5,Pin_5*%
%TO.N,Net-(J3-Pad10)*%
X56473000Y53759000D03*
%TO.P,J9,6,Pin_6*%
%TO.N,Net-(J3-Pad9)*%
X59013000Y53759000D03*
%TO.P,J9,7,Pin_7*%
%TO.N,Net-(J3-Pad8)*%
X61553000Y53759000D03*
%TO.P,J9,8,Pin_8*%
%TO.N,Net-(J3-Pad7)*%
X64093000Y53759000D03*
%TO.P,J9,9,Pin_9*%
%TO.N,Net-(J3-Pad6)*%
X66633000Y53759000D03*
%TO.P,J9,10,Pin_10*%
%TO.N,Net-(J3-Pad5)*%
X69173000Y53759000D03*
%TO.P,J9,11,Pin_11*%
%TO.N,Net-(J3-Pad4)*%
X71713000Y53759000D03*
%TO.P,J9,12,Pin_12*%
%TO.N,Net-(J3-Pad3)*%
X74253000Y53759000D03*
%TO.P,J9,13,Pin_13*%
%TO.N,Net-(J3-Pad2)*%
X76793000Y53759000D03*
D10*
%TO.P,J9,14,Pin_14*%
%TO.N,GNDREF*%
X79333000Y53759000D03*
%TD*%
D13*
%TO.P,R40,2*%
%TO.N,Net-(C32-Pad1)*%
X8330000Y45266000D03*
%TO.P,R40,1*%
%TO.N,/inFI_8*%
X8330000Y47266000D03*
%TD*%
%TO.P,R39,2*%
%TO.N,Net-(C31-Pad1)*%
X13410000Y45266000D03*
%TO.P,R39,1*%
%TO.N,/inFI_7*%
X13410000Y47266000D03*
%TD*%
%TO.P,R38,2*%
%TO.N,Net-(C30-Pad1)*%
X18490000Y45266000D03*
%TO.P,R38,1*%
%TO.N,/inFI_6*%
X18490000Y47266000D03*
%TD*%
%TO.P,R37,2*%
%TO.N,Net-(C29-Pad1)*%
X23570000Y45266000D03*
%TO.P,R37,1*%
%TO.N,/inFI_5*%
X23570000Y47266000D03*
%TD*%
D14*
%TO.P,R21,2*%
%TO.N,GNDA*%
X6457000Y49187000D03*
%TO.P,R21,1*%
%TO.N,/inFI_8*%
X8457000Y49187000D03*
%TD*%
%TO.P,R20,2*%
%TO.N,GNDA*%
X11521000Y49187000D03*
%TO.P,R20,1*%
%TO.N,/inFI_7*%
X13521000Y49187000D03*
%TD*%
%TO.P,R19,2*%
%TO.N,GNDA*%
X16601000Y49187000D03*
%TO.P,R19,1*%
%TO.N,/inFI_6*%
X18601000Y49187000D03*
%TD*%
%TO.P,R18,2*%
%TO.N,GNDA*%
X21681000Y49187000D03*
%TO.P,R18,1*%
%TO.N,/inFI_5*%
X23681000Y49187000D03*
%TD*%
D13*
%TO.P,R17,2*%
%TO.N,Net-(C14-Pad1)*%
X28650000Y45266000D03*
%TO.P,R17,1*%
%TO.N,/inFI_4*%
X28650000Y47266000D03*
%TD*%
%TO.P,R16,2*%
%TO.N,Net-(C13-Pad1)*%
X33730000Y45266000D03*
%TO.P,R16,1*%
%TO.N,/inFI_3*%
X33730000Y47266000D03*
%TD*%
%TO.P,R15,2*%
%TO.N,Net-(C12-Pad1)*%
X38810000Y45266000D03*
%TO.P,R15,1*%
%TO.N,/inFI_2*%
X38810000Y47266000D03*
%TD*%
%TO.P,R14,2*%
%TO.N,Net-(C11-Pad1)*%
X43890000Y45266000D03*
%TO.P,R14,1*%
%TO.N,/inFI_1*%
X43890000Y47266000D03*
%TD*%
D14*
%TO.P,R13,2*%
%TO.N,GNDA*%
X26761000Y49187000D03*
%TO.P,R13,1*%
%TO.N,/inFI_4*%
X28761000Y49187000D03*
%TD*%
%TO.P,R12,2*%
%TO.N,GNDA*%
X31841000Y49187000D03*
%TO.P,R12,1*%
%TO.N,/inFI_3*%
X33841000Y49187000D03*
%TD*%
%TO.P,R11,2*%
%TO.N,GNDA*%
X36921000Y49187000D03*
%TO.P,R11,1*%
%TO.N,/inFI_2*%
X38921000Y49187000D03*
%TD*%
%TO.P,R10,2*%
%TO.N,GNDA*%
X42001000Y49187000D03*
%TO.P,R10,1*%
%TO.N,/inFI_1*%
X44001000Y49187000D03*
%TD*%
D10*
%TO.P,J8,3,Pin_3*%
%TO.N,GNDA*%
X9752400Y3136800D03*
D11*
%TO.P,J8,2,Pin_2*%
%TO.N,/outFO_8+*%
X12292400Y3136800D03*
D12*
%TO.P,J8,1,Pin_1*%
%TO.N,/outFO_7+*%
X14832400Y3136800D03*
%TD*%
D10*
%TO.P,J7,1,Pin_1*%
%TO.N,GNDA*%
X14792000Y53759000D03*
D11*
%TO.P,J7,2,Pin_2*%
%TO.N,/inFI_7*%
X12252000Y53759000D03*
%TO.P,J7,3,Pin_3*%
%TO.N,/inFI_8*%
X9712000Y53759000D03*
%TD*%
D12*
%TO.P,J6,1,Pin_1*%
%TO.N,/outFO_1+*%
X37545000Y3112000D03*
D11*
%TO.P,J6,2,Pin_2*%
%TO.N,/outFO_2+*%
X35005000Y3112000D03*
%TO.P,J6,3,Pin_3*%
%TO.N,/outFO_3+*%
X32465000Y3112000D03*
%TO.P,J6,4,Pin_4*%
%TO.N,/outFO_4+*%
X29925000Y3112000D03*
%TO.P,J6,5,Pin_5*%
%TO.N,/outFO_5+*%
X27385000Y3112000D03*
%TO.P,J6,6,Pin_6*%
%TO.N,/outFO_6+*%
X24845000Y3112000D03*
D10*
%TO.P,J6,7,Pin_7*%
%TO.N,GNDA*%
X22305000Y3112000D03*
%TD*%
D15*
%TO.P,C36,2*%
%TO.N,/inFO_8*%
X8351500Y39408000D03*
%TO.P,C36,1*%
%TO.N,GNDA*%
X6276500Y39408000D03*
%TD*%
%TO.P,C35,1*%
%TO.N,GNDA*%
X11356500Y39408000D03*
%TO.P,C35,2*%
%TO.N,/inFO_7*%
X13431500Y39408000D03*
%TD*%
%TO.P,C34,2*%
%TO.N,/inFO_6*%
X18511500Y39408000D03*
%TO.P,C34,1*%
%TO.N,GNDA*%
X16436500Y39408000D03*
%TD*%
%TO.P,C33,2*%
%TO.N,/inFO_5*%
X23591500Y39408000D03*
%TO.P,C33,1*%
%TO.N,GNDA*%
X21516500Y39408000D03*
%TD*%
D16*
%TO.P,C32,2*%
%TO.N,/inFO_8*%
X8330000Y41418500D03*
%TO.P,C32,1*%
%TO.N,Net-(C32-Pad1)*%
X8330000Y43493500D03*
%TD*%
%TO.P,C31,2*%
%TO.N,/inFO_7*%
X13410000Y41418500D03*
%TO.P,C31,1*%
%TO.N,Net-(C31-Pad1)*%
X13410000Y43493500D03*
%TD*%
%TO.P,C30,2*%
%TO.N,/inFO_6*%
X18490000Y41418500D03*
%TO.P,C30,1*%
%TO.N,Net-(C30-Pad1)*%
X18490000Y43493500D03*
%TD*%
%TO.P,C29,2*%
%TO.N,/inFO_5*%
X23570000Y41418500D03*
%TO.P,C29,1*%
%TO.N,Net-(C29-Pad1)*%
X23570000Y43493500D03*
%TD*%
D15*
%TO.P,C18,2*%
%TO.N,/inFO_4*%
X28671500Y39408000D03*
%TO.P,C18,1*%
%TO.N,GNDA*%
X26596500Y39408000D03*
%TD*%
%TO.P,C17,2*%
%TO.N,/inFO_3*%
X33751500Y39408000D03*
%TO.P,C17,1*%
%TO.N,GNDA*%
X31676500Y39408000D03*
%TD*%
%TO.P,C16,2*%
%TO.N,/inFO_2*%
X38831500Y39408000D03*
%TO.P,C16,1*%
%TO.N,GNDA*%
X36756500Y39408000D03*
%TD*%
%TO.P,C15,2*%
%TO.N,/inFO_1*%
X43911500Y39408000D03*
%TO.P,C15,1*%
%TO.N,GNDA*%
X41836500Y39408000D03*
%TD*%
D16*
%TO.P,C14,2*%
%TO.N,/inFO_4*%
X28650000Y41418500D03*
%TO.P,C14,1*%
%TO.N,Net-(C14-Pad1)*%
X28650000Y43493500D03*
%TD*%
%TO.P,C13,2*%
%TO.N,/inFO_3*%
X33730000Y41418500D03*
%TO.P,C13,1*%
%TO.N,Net-(C13-Pad1)*%
X33730000Y43493500D03*
%TD*%
%TO.P,C12,2*%
%TO.N,/inFO_2*%
X38810000Y41418500D03*
%TO.P,C12,1*%
%TO.N,Net-(C12-Pad1)*%
X38810000Y43493500D03*
%TD*%
%TO.P,C11,2*%
%TO.N,/inFO_1*%
X43890000Y41418500D03*
%TO.P,C11,1*%
%TO.N,Net-(C11-Pad1)*%
X43890000Y43493500D03*
%TD*%
%TO.P,C8,1*%
%TO.N,Net-(C8-Pad1)*%
X36143000Y32571500D03*
%TO.P,C8,2*%
%TO.N,GNDA*%
X36143000Y30496500D03*
%TD*%
D12*
%TO.P,J1,1,Pin_1*%
%TO.N,VCC*%
X79323000Y27089000D03*
D10*
%TO.P,J1,2,Pin_2*%
%TO.N,GNDREF*%
X79323000Y29629000D03*
%TD*%
D13*
%TO.P,R25,1*%
%TO.N,Net-(C22-Pad2)*%
X21305500Y14373000D03*
%TO.P,R25,2*%
%TO.N,GNDA*%
X21305500Y12373000D03*
%TD*%
D11*
%TO.P,J3,30,Pin_30*%
%TO.N,GNDA*%
X5658000Y35979000D03*
%TO.P,J3,29,Pin_29*%
%TO.N,unconnected-(J3-Pad29)*%
X8198000Y35979000D03*
%TO.P,J3,28,Pin_28*%
%TO.N,unconnected-(J3-Pad28)*%
X10738000Y35979000D03*
%TO.P,J3,27,Pin_27*%
%TO.N,unconnected-(J3-Pad27)*%
X13278000Y35979000D03*
%TO.P,J3,26,Pin_26*%
%TO.N,/inFO_8*%
X15818000Y35979000D03*
%TO.P,J3,25,Pin_25*%
%TO.N,/inFO_6*%
X18358000Y35979000D03*
%TO.P,J3,24,Pin_24*%
%TO.N,/inFO_7*%
X20898000Y35979000D03*
%TO.P,J3,23,Pin_23*%
%TO.N,/inFO_5*%
X23438000Y35979000D03*
%TO.P,J3,22,Pin_22*%
%TO.N,Net-(C10-Pad1)*%
X25978000Y35979000D03*
%TO.P,J3,21,Pin_21*%
%TO.N,/inFO_4*%
X28518000Y35979000D03*
%TO.P,J3,20,Pin_20*%
%TO.N,Net-(C9-Pad1)*%
X31058000Y35979000D03*
%TO.P,J3,19,Pin_19*%
%TO.N,/inFO_3*%
X33598000Y35979000D03*
%TO.P,J3,18,Pin_18*%
%TO.N,Net-(C8-Pad1)*%
X36138000Y35979000D03*
%TO.P,J3,17,Pin_17*%
%TO.N,/inFO_2*%
X38678000Y35979000D03*
%TO.P,J3,16,Pin_16*%
%TO.N,Net-(C7-Pad1)*%
X41218000Y35979000D03*
%TO.P,J3,15,Pin_15*%
%TO.N,/inFO_1*%
X43758000Y35979000D03*
%TO.P,J3,14,Pin_14*%
%TO.N,Net-(J3-Pad14)*%
X46298000Y35979000D03*
%TO.P,J3,13,Pin_13*%
%TO.N,Net-(J3-Pad13)*%
X48838000Y35979000D03*
%TO.P,J3,12,Pin_12*%
%TO.N,Net-(J3-Pad12)*%
X51378000Y35979000D03*
%TO.P,J3,11,Pin_11*%
%TO.N,Net-(J3-Pad11)*%
X53918000Y35979000D03*
%TO.P,J3,10,Pin_10*%
%TO.N,Net-(J3-Pad10)*%
X56458000Y35979000D03*
%TO.P,J3,9,Pin_9*%
%TO.N,Net-(J3-Pad9)*%
X58998000Y35979000D03*
%TO.P,J3,8,Pin_8*%
%TO.N,Net-(J3-Pad8)*%
X61538000Y35979000D03*
%TO.P,J3,7,Pin_7*%
%TO.N,Net-(J3-Pad7)*%
X64078000Y35979000D03*
%TO.P,J3,6,Pin_6*%
%TO.N,Net-(J3-Pad6)*%
X66618000Y35979000D03*
%TO.P,J3,5,Pin_5*%
%TO.N,Net-(J3-Pad5)*%
X69158000Y35979000D03*
%TO.P,J3,4,Pin_4*%
%TO.N,Net-(J3-Pad4)*%
X71698000Y35979000D03*
%TO.P,J3,3,Pin_3*%
%TO.N,Net-(J3-Pad3)*%
X74238000Y35979000D03*
%TO.P,J3,2,Pin_2*%
%TO.N,Net-(J3-Pad2)*%
X76778000Y35979000D03*
D10*
%TO.P,J3,1,Pin_1*%
%TO.N,GNDREF*%
X79318000Y35979000D03*
%TD*%
D14*
%TO.P,R6,2*%
%TO.N,GNDA*%
X41895500Y7912000D03*
%TO.P,R6,1*%
%TO.N,/outFO_1+*%
X43895500Y7912000D03*
%TD*%
%TO.P,R9,1*%
%TO.N,/outFO_7+*%
X13288500Y7912000D03*
%TO.P,R9,2*%
%TO.N,GNDA*%
X11288500Y7912000D03*
%TD*%
D13*
%TO.P,R29,1*%
%TO.N,Net-(C21-Pad2)*%
X28925500Y14373000D03*
%TO.P,R29,2*%
%TO.N,/outFO_4+*%
X28925500Y12373000D03*
%TD*%
%TO.P,R5,2*%
%TO.N,/outFO_1+*%
X44165500Y12373000D03*
%TO.P,R5,1*%
%TO.N,Net-(C3-Pad2)*%
X44165500Y14373000D03*
%TD*%
D17*
%TO.P,C26,1*%
%TO.N,/outFO_4+*%
X28693000Y10198000D03*
%TO.P,C26,2*%
%TO.N,GNDA*%
X26618000Y10198000D03*
%TD*%
%TO.P,C6,1*%
%TO.N,/outFO_7+*%
X13326000Y10198000D03*
%TO.P,C6,2*%
%TO.N,GNDA*%
X11251000Y10198000D03*
%TD*%
D15*
%TO.P,C2,1*%
%TO.N,/outFI_7+*%
X11378000Y16548000D03*
%TO.P,C2,2*%
%TO.N,Net-(C2-Pad2)*%
X13453000Y16548000D03*
%TD*%
D16*
%TO.P,C7,1*%
%TO.N,Net-(C7-Pad1)*%
X41223000Y32571500D03*
%TO.P,C7,2*%
%TO.N,GNDA*%
X41223000Y30496500D03*
%TD*%
D15*
%TO.P,C21,1*%
%TO.N,/outFI_4+*%
X26618000Y16548000D03*
%TO.P,C21,2*%
%TO.N,Net-(C21-Pad2)*%
X28693000Y16548000D03*
%TD*%
D13*
%TO.P,R30,1*%
%TO.N,Net-(C22-Pad2)*%
X23845500Y14373000D03*
%TO.P,R30,2*%
%TO.N,/outFO_5+*%
X23845500Y12373000D03*
%TD*%
D16*
%TO.P,C9,1*%
%TO.N,Net-(C9-Pad1)*%
X31063000Y32571500D03*
%TO.P,C9,2*%
%TO.N,GNDA*%
X31063000Y30496500D03*
%TD*%
D14*
%TO.P,R36,1*%
%TO.N,/outFO_6+*%
X18495500Y7912000D03*
%TO.P,R36,2*%
%TO.N,GNDA*%
X16495500Y7912000D03*
%TD*%
D13*
%TO.P,R4,2*%
%TO.N,GNDA*%
X41625500Y12373000D03*
%TO.P,R4,1*%
%TO.N,Net-(C3-Pad2)*%
X41625500Y14373000D03*
%TD*%
D15*
%TO.P,C19,1*%
%TO.N,/outFI_2+*%
X36778000Y16548000D03*
%TO.P,C19,2*%
%TO.N,Net-(C19-Pad2)*%
X38853000Y16548000D03*
%TD*%
D17*
%TO.P,C28,1*%
%TO.N,/outFO_6+*%
X18533000Y10198000D03*
%TO.P,C28,2*%
%TO.N,GNDA*%
X16458000Y10198000D03*
%TD*%
%TO.P,C25,1*%
%TO.N,/outFO_3+*%
X33773000Y10198000D03*
%TO.P,C25,2*%
%TO.N,GNDA*%
X31698000Y10198000D03*
%TD*%
D13*
%TO.P,R28,1*%
%TO.N,Net-(C20-Pad2)*%
X34005500Y14373000D03*
%TO.P,R28,2*%
%TO.N,/outFO_3+*%
X34005500Y12373000D03*
%TD*%
D17*
%TO.P,C24,1*%
%TO.N,/outFO_2+*%
X38853000Y10198000D03*
%TO.P,C24,2*%
%TO.N,GNDA*%
X36778000Y10198000D03*
%TD*%
D15*
%TO.P,C1,1*%
%TO.N,/outFI_8+*%
X6190900Y16553500D03*
%TO.P,C1,2*%
%TO.N,Net-(C1-Pad2)*%
X8265900Y16553500D03*
%TD*%
D14*
%TO.P,R33,1*%
%TO.N,/outFO_3+*%
X33735500Y7912000D03*
%TO.P,R33,2*%
%TO.N,GNDA*%
X31735500Y7912000D03*
%TD*%
D13*
%TO.P,R2,1*%
%TO.N,Net-(C2-Pad2)*%
X11145500Y14373000D03*
%TO.P,R2,2*%
%TO.N,GNDA*%
X11145500Y12373000D03*
%TD*%
D15*
%TO.P,C23,1*%
%TO.N,/outFI_6+*%
X16458000Y16548000D03*
%TO.P,C23,2*%
%TO.N,Net-(C23-Pad2)*%
X18533000Y16548000D03*
%TD*%
D13*
%TO.P,R27,2*%
%TO.N,/outFO_2+*%
X39085500Y12373000D03*
%TO.P,R27,1*%
%TO.N,Net-(C19-Pad2)*%
X39085500Y14373000D03*
%TD*%
D14*
%TO.P,R34,1*%
%TO.N,/outFO_4+*%
X28655500Y7912000D03*
%TO.P,R34,2*%
%TO.N,GNDA*%
X26655500Y7912000D03*
%TD*%
D15*
%TO.P,C20,1*%
%TO.N,/outFI_3+*%
X31698000Y16548000D03*
%TO.P,C20,2*%
%TO.N,Net-(C20-Pad2)*%
X33773000Y16548000D03*
%TD*%
D13*
%TO.P,R23,1*%
%TO.N,Net-(C20-Pad2)*%
X31465500Y14373000D03*
%TO.P,R23,2*%
%TO.N,GNDA*%
X31465500Y12373000D03*
%TD*%
D17*
%TO.P,C4,2*%
%TO.N,GNDA*%
X41858000Y10198000D03*
%TO.P,C4,1*%
%TO.N,/outFO_1+*%
X43933000Y10198000D03*
%TD*%
D13*
%TO.P,R24,1*%
%TO.N,Net-(C21-Pad2)*%
X26385500Y14373000D03*
%TO.P,R24,2*%
%TO.N,GNDA*%
X26385500Y12373000D03*
%TD*%
D10*
%TO.P,J5,1,Pin_1*%
%TO.N,unconnected-(J5-Pad1)*%
X5663000Y33439000D03*
D11*
%TO.P,J5,2,Pin_2*%
%TO.N,unconnected-(J5-Pad2)*%
X5663000Y30899000D03*
%TO.P,J5,3,Pin_3*%
%TO.N,GNDA*%
X5663000Y28359000D03*
%TO.P,J5,4,Pin_4*%
%TO.N,unconnected-(J5-Pad4)*%
X5663000Y25819000D03*
%TO.P,J5,5,Pin_5*%
%TO.N,unconnected-(J5-Pad5)*%
X5663000Y23279000D03*
%TD*%
D13*
%TO.P,R31,1*%
%TO.N,Net-(C23-Pad2)*%
X18765500Y14373000D03*
%TO.P,R31,2*%
%TO.N,/outFO_6+*%
X18765500Y12373000D03*
%TD*%
D14*
%TO.P,R32,1*%
%TO.N,/outFO_2+*%
X38815500Y7912000D03*
%TO.P,R32,2*%
%TO.N,GNDA*%
X36815500Y7912000D03*
%TD*%
D17*
%TO.P,C5,1*%
%TO.N,/outFO_8+*%
X8265900Y10203500D03*
%TO.P,C5,2*%
%TO.N,GNDA*%
X6190900Y10203500D03*
%TD*%
D13*
%TO.P,R22,1*%
%TO.N,Net-(C19-Pad2)*%
X36545500Y14373000D03*
%TO.P,R22,2*%
%TO.N,GNDA*%
X36545500Y12373000D03*
%TD*%
D16*
%TO.P,C10,1*%
%TO.N,Net-(C10-Pad1)*%
X25983000Y32571500D03*
%TO.P,C10,2*%
%TO.N,GNDA*%
X25983000Y30496500D03*
%TD*%
D15*
%TO.P,C3,2*%
%TO.N,Net-(C3-Pad2)*%
X44165500Y16548000D03*
%TO.P,C3,1*%
%TO.N,/outFI_1+*%
X42090500Y16548000D03*
%TD*%
D17*
%TO.P,C27,1*%
%TO.N,/outFO_5+*%
X23613000Y10198000D03*
%TO.P,C27,2*%
%TO.N,GNDA*%
X21538000Y10198000D03*
%TD*%
D12*
%TO.P,J2,1,Pin_1*%
%TO.N,/inFI_1*%
X39470400Y53835200D03*
D11*
%TO.P,J2,2,Pin_2*%
%TO.N,/inFI_2*%
X36930400Y53835200D03*
%TO.P,J2,3,Pin_3*%
%TO.N,/inFI_3*%
X34390400Y53835200D03*
%TO.P,J2,4,Pin_4*%
%TO.N,/inFI_4*%
X31850400Y53835200D03*
%TO.P,J2,5,Pin_5*%
%TO.N,/inFI_5*%
X29310400Y53835200D03*
%TO.P,J2,6,Pin_6*%
%TO.N,/inFI_6*%
X26770400Y53835200D03*
%TO.P,J2,7,Pin_7*%
%TO.N,unconnected-(J2-Pad7)*%
X24230400Y53835200D03*
D10*
%TO.P,J2,8,Pin_8*%
%TO.N,GNDA*%
X21690400Y53835200D03*
%TD*%
D13*
%TO.P,R3,1*%
%TO.N,Net-(C1-Pad2)*%
X8498400Y14378500D03*
%TO.P,R3,2*%
%TO.N,/outFO_8+*%
X8498400Y12378500D03*
%TD*%
%TO.P,R1,1*%
%TO.N,Net-(C1-Pad2)*%
X5958400Y14378500D03*
%TO.P,R1,2*%
%TO.N,GNDA*%
X5958400Y12378500D03*
%TD*%
D14*
%TO.P,R35,1*%
%TO.N,/outFO_5+*%
X23575500Y7912000D03*
%TO.P,R35,2*%
%TO.N,GNDA*%
X21575500Y7912000D03*
%TD*%
D15*
%TO.P,C22,1*%
%TO.N,/outFI_5+*%
X21538000Y16548000D03*
%TO.P,C22,2*%
%TO.N,Net-(C22-Pad2)*%
X23613000Y16548000D03*
%TD*%
D13*
%TO.P,R26,1*%
%TO.N,Net-(C23-Pad2)*%
X16225500Y14373000D03*
%TO.P,R26,2*%
%TO.N,GNDA*%
X16225500Y12373000D03*
%TD*%
%TO.P,R7,1*%
%TO.N,Net-(C2-Pad2)*%
X13558500Y14373000D03*
%TO.P,R7,2*%
%TO.N,/outFO_7+*%
X13558500Y12373000D03*
%TD*%
D10*
%TO.P,J4,1,Pin_1*%
%TO.N,/outFI_8-*%
X5663000Y20739000D03*
D11*
%TO.P,J4,2,Pin_2*%
%TO.N,/outFI_8+*%
X8203000Y20739000D03*
%TO.P,J4,3,Pin_3*%
%TO.N,/outFI_7-*%
X10743000Y20739000D03*
%TO.P,J4,4,Pin_4*%
%TO.N,/outFI_7+*%
X13283000Y20739000D03*
%TO.P,J4,5,Pin_5*%
%TO.N,/outFI_6-*%
X15823000Y20739000D03*
%TO.P,J4,6,Pin_6*%
%TO.N,/outFI_6+*%
X18363000Y20739000D03*
%TO.P,J4,7,Pin_7*%
%TO.N,/outFI_5-*%
X20903000Y20739000D03*
%TO.P,J4,8,Pin_8*%
%TO.N,/outFI_5+*%
X23443000Y20739000D03*
%TO.P,J4,9,Pin_9*%
%TO.N,/outFI_4-*%
X25983000Y20739000D03*
%TO.P,J4,10,Pin_10*%
%TO.N,/outFI_4+*%
X28523000Y20739000D03*
%TO.P,J4,11,Pin_11*%
%TO.N,/outFI_3-*%
X31063000Y20739000D03*
%TO.P,J4,12,Pin_12*%
%TO.N,/outFI_3+*%
X33603000Y20739000D03*
%TO.P,J4,13,Pin_13*%
%TO.N,/outFI_2-*%
X36143000Y20739000D03*
%TO.P,J4,14,Pin_14*%
%TO.N,/outFI_2+*%
X38683000Y20739000D03*
%TO.P,J4,15,Pin_15*%
%TO.N,/outFI_1-*%
X41223000Y20739000D03*
%TO.P,J4,16,Pin_16*%
%TO.N,/outFI_1+*%
X43763000Y20739000D03*
%TO.P,J4,17,Pin_17*%
%TO.N,Net-(J4-Pad17)*%
X46303000Y20739000D03*
%TO.P,J4,18,Pin_18*%
%TO.N,Net-(J4-Pad18)*%
X48843000Y20739000D03*
%TO.P,J4,19,Pin_19*%
%TO.N,Net-(J4-Pad19)*%
X51383000Y20739000D03*
%TO.P,J4,20,Pin_20*%
%TO.N,Net-(J4-Pad20)*%
X53923000Y20739000D03*
%TO.P,J4,21,Pin_21*%
%TO.N,Net-(J4-Pad21)*%
X56463000Y20739000D03*
%TO.P,J4,22,Pin_22*%
%TO.N,Net-(J4-Pad22)*%
X59003000Y20739000D03*
%TO.P,J4,23,Pin_23*%
%TO.N,Net-(J4-Pad23)*%
X61543000Y20739000D03*
%TO.P,J4,24,Pin_24*%
%TO.N,Net-(J4-Pad24)*%
X64083000Y20739000D03*
%TO.P,J4,25,Pin_25*%
%TO.N,Net-(J4-Pad25)*%
X66623000Y20739000D03*
%TO.P,J4,26,Pin_26*%
%TO.N,Net-(J4-Pad26)*%
X69163000Y20739000D03*
%TO.P,J4,27,Pin_27*%
%TO.N,Net-(J4-Pad27)*%
X71703000Y20739000D03*
%TO.P,J4,28,Pin_28*%
%TO.N,Net-(J4-Pad28)*%
X74243000Y20739000D03*
%TO.P,J4,29,Pin_29*%
%TO.N,Net-(J4-Pad29)*%
X76783000Y20739000D03*
%TO.P,J4,30,Pin_30*%
%TO.N,VCC*%
X79323000Y20739000D03*
%TD*%
D14*
%TO.P,R8,1*%
%TO.N,/outFO_8+*%
X8228400Y7917500D03*
%TO.P,R8,2*%
%TO.N,GNDA*%
X6228400Y7917500D03*
%TD*%
D18*
%TO.N,GNDA*%
X42061200Y44488000D03*
X36879600Y44440203D03*
X31850400Y44437200D03*
X26770400Y44437200D03*
X21741200Y44437200D03*
X16661200Y44437200D03*
X11530400Y44402520D03*
X6450400Y44386400D03*
X11262000Y6431000D03*
X16469000Y6431000D03*
X21676000Y6431000D03*
X26629000Y6431000D03*
X31709000Y6431000D03*
X36789000Y6431000D03*
X41869000Y6431000D03*
%TO.N,/inFO_8*%
X10108000Y41389200D03*
%TO.N,/inFO_7*%
X15188000Y41389200D03*
D19*
%TO.N,/inFO_8*%
X15823000Y33058000D03*
%TO.N,/inFO_7*%
X20903000Y33058000D03*
%TD*%
D20*
%TO.N,/outFO_2+*%
X38815500Y7912000D02*
X38815500Y5917500D01*
X38815500Y5917500D02*
X37805000Y4907000D01*
X37805000Y4907000D02*
X35398600Y4907000D01*
X35398600Y4907000D02*
X35005000Y4513400D01*
X35005000Y4513400D02*
X35005000Y3112000D01*
%TO.N,/outFO_3+*%
X32725000Y5161000D02*
X32465000Y4901000D01*
X32465000Y4901000D02*
X32465000Y3112000D01*
X33735500Y7912000D02*
X33735500Y6171500D01*
X33735500Y6171500D02*
X32727800Y5163800D01*
%TO.N,/outFO_5+*%
X23575500Y7912000D02*
X23575500Y6941300D01*
X23575500Y6941300D02*
X25195600Y5321200D01*
X25195600Y5321200D02*
X25198800Y5321200D01*
X25198800Y5321200D02*
X26006600Y4513400D01*
X26006600Y4513400D02*
X27385000Y4513400D01*
X27385000Y4513400D02*
X27385000Y3112000D01*
%TO.N,/outFO_6+*%
X18495500Y7912000D02*
X18495500Y7071500D01*
X18495500Y7071500D02*
X20660000Y4907000D01*
X20660000Y4907000D02*
X24136600Y4907000D01*
X24845000Y4198600D02*
X24845000Y3112000D01*
X24136600Y4907000D02*
X24845000Y4198600D01*
%TO.N,/outFO_8+*%
X11643000Y4907000D02*
X9865000Y4907000D01*
X12292400Y3136800D02*
X12292400Y4257600D01*
X12292400Y4257600D02*
X11643000Y4907000D01*
X9865000Y4907000D02*
X8228400Y6543600D01*
X8228400Y6543600D02*
X8228400Y7917500D01*
X8335500Y7449300D02*
X8335500Y7198500D01*
%TO.N,/outFO_1+*%
X43895500Y7912000D02*
X43895500Y5409500D01*
X43895500Y5409500D02*
X41598000Y3112000D01*
X41598000Y3112000D02*
X37545000Y3112000D01*
%TO.N,GNDA*%
X41869000Y6431000D02*
X41869000Y7885500D01*
X41869000Y7885500D02*
X41895500Y7912000D01*
X36789000Y6431000D02*
X36789000Y7885500D01*
X36789000Y7885500D02*
X36815500Y7912000D01*
X31709000Y6431000D02*
X31709000Y7885500D01*
X31709000Y7885500D02*
X31735500Y7912000D01*
X26629000Y6431000D02*
X26629000Y7885500D01*
X26629000Y7885500D02*
X26655500Y7912000D01*
X21676000Y6431000D02*
X21676000Y7811500D01*
X21676000Y7811500D02*
X21575500Y7912000D01*
X16458000Y6184800D02*
X16458000Y6823000D01*
X16458000Y6823000D02*
X16458000Y7874500D01*
X16850000Y6431000D02*
X16458000Y6823000D01*
X11262000Y6431000D02*
X11262000Y7885500D01*
X11262000Y7885500D02*
X11288500Y7912000D01*
X3351600Y46774000D02*
X3351600Y44234000D01*
X3351600Y41694000D02*
X3351600Y44234000D01*
X3351600Y41694000D02*
X3351600Y35394800D01*
X3351600Y35394800D02*
X3300800Y35344000D01*
%TO.N,/inFO_4*%
X28671500Y39408000D02*
X28671500Y36132500D01*
X28671500Y36132500D02*
X28518000Y35979000D01*
%TO.N,GNDA*%
X16661200Y44437200D02*
X16661200Y39632700D01*
X16661200Y39632700D02*
X16436500Y39408000D01*
X11530400Y44402520D02*
X11530400Y39581900D01*
X11530400Y39581900D02*
X11356500Y39408000D01*
%TO.N,/inFO_8*%
X8330000Y41418500D02*
X10078700Y41418500D01*
X10078700Y41418500D02*
X10108000Y41389200D01*
%TO.N,GNDA*%
X21741200Y44437200D02*
X21741200Y39632700D01*
X21741200Y39632700D02*
X21516500Y39408000D01*
X26770400Y44437200D02*
X26770400Y39581900D01*
X26770400Y39581900D02*
X26596500Y39408000D01*
X31850400Y44437200D02*
X31850400Y39581900D01*
X31850400Y39581900D02*
X31676500Y39408000D01*
X36879600Y44440203D02*
X36879600Y39531100D01*
X36879600Y39531100D02*
X36756500Y39408000D01*
X42061200Y44488000D02*
X42061200Y39632700D01*
X42061200Y39632700D02*
X41836500Y39408000D01*
X42061200Y44488000D02*
X42061200Y49126800D01*
X42061200Y49126800D02*
X42001000Y49187000D01*
X36879600Y44440203D02*
X36879600Y49145600D01*
X36879600Y49145600D02*
X36921000Y49187000D01*
X31850400Y44437200D02*
X31850400Y49177600D01*
X31850400Y49177600D02*
X31841000Y49187000D01*
X26770400Y44437200D02*
X26770400Y49177600D01*
X26770400Y49177600D02*
X26761000Y49187000D01*
X21741200Y44437200D02*
X21741200Y49126800D01*
X21741200Y49126800D02*
X21681000Y49187000D01*
X16661200Y44437200D02*
X16661200Y49126800D01*
X16661200Y49126800D02*
X16601000Y49187000D01*
X11530400Y44402520D02*
X11530400Y49177600D01*
X11530400Y49177600D02*
X11521000Y49187000D01*
X6450400Y44386400D02*
X6450400Y39581900D01*
X6450400Y39581900D02*
X6276500Y39408000D01*
X6450400Y44386400D02*
X6450400Y49180400D01*
X6450400Y49180400D02*
X6457000Y49187000D01*
X14792000Y53759000D02*
X21614200Y53759000D01*
X21614200Y53759000D02*
X21690400Y53835200D01*
X14792000Y53759000D02*
X14792000Y52707200D01*
X14792000Y52707200D02*
X16601000Y50898200D01*
X16601000Y50898200D02*
X16601000Y49187000D01*
X16444700Y7861200D02*
X16495500Y7912000D01*
X41844700Y7861200D02*
X41895500Y7912000D01*
X19530800Y3112000D02*
X16458000Y6184800D01*
X22305000Y3112000D02*
X19530800Y3112000D01*
X16458000Y7874500D02*
X16495500Y7912000D01*
X9752400Y3136800D02*
X9752400Y2222400D01*
X9752400Y2222400D02*
X10616000Y1358800D01*
X22305000Y3040200D02*
X22305000Y3112000D01*
X10616000Y1358800D02*
X20623600Y1358800D01*
X20623600Y1358800D02*
X22305000Y3040200D01*
X3300800Y13550800D02*
X3300800Y28333600D01*
X3300800Y28333600D02*
X3300800Y35344000D01*
X5663000Y28359000D02*
X3326200Y28359000D01*
X3326200Y28359000D02*
X3300800Y28333600D01*
X6065500Y12373000D02*
X4478600Y12373000D01*
X4478600Y12373000D02*
X3300800Y13550800D01*
X3300800Y35344000D02*
X3935800Y35979000D01*
X3935800Y35979000D02*
X5658000Y35979000D01*
X9752400Y3136800D02*
X6450400Y6438800D01*
X6450400Y6438800D02*
X6450400Y7797100D01*
X6343300Y7802600D02*
X6228400Y7917500D01*
%TO.N,/outFO_4+*%
X28655500Y7912000D02*
X28655500Y5874500D01*
X28655500Y5874500D02*
X29925000Y4605000D01*
X29925000Y4605000D02*
X29925000Y3112000D01*
%TO.N,/outFO_7+*%
X13288500Y6560300D02*
X14832400Y5016400D01*
X14832400Y5016400D02*
X14832400Y3136800D01*
X13288500Y7912000D02*
X13288500Y6560300D01*
%TO.N,GNDA*%
X6190900Y10203500D02*
X6190900Y7955000D01*
X6190900Y7955000D02*
X6228400Y7917500D01*
X5958400Y12378500D02*
X5958400Y10436000D01*
X5958400Y10436000D02*
X6190900Y10203500D01*
%TO.N,/outFO_8+*%
X8265900Y10203500D02*
X8265900Y7955000D01*
X8265900Y7955000D02*
X8228400Y7917500D01*
X8498400Y12378500D02*
X8498400Y10436000D01*
X8498400Y10436000D02*
X8265900Y10203500D01*
%TO.N,GNDA*%
X11251000Y10198000D02*
X11251000Y7949500D01*
X11251000Y7949500D02*
X11288500Y7912000D01*
X11145500Y12373000D02*
X11145500Y10303500D01*
X11145500Y10303500D02*
X11251000Y10198000D01*
%TO.N,/outFO_7+*%
X13326000Y10198000D02*
X13326000Y7949500D01*
X13326000Y7949500D02*
X13288500Y7912000D01*
X13558500Y12373000D02*
X13558500Y10430500D01*
X13558500Y10430500D02*
X13326000Y10198000D01*
%TO.N,GNDA*%
X16458000Y10198000D02*
X16458000Y7949500D01*
X16458000Y7949500D02*
X16495500Y7912000D01*
X16225500Y12373000D02*
X16225500Y10430500D01*
X16225500Y10430500D02*
X16458000Y10198000D01*
%TO.N,/outFO_6+*%
X18533000Y10198000D02*
X18533000Y7949500D01*
X18533000Y7949500D02*
X18495500Y7912000D01*
X18765500Y12373000D02*
X18765500Y10430500D01*
X18765500Y10430500D02*
X18533000Y10198000D01*
%TO.N,GNDA*%
X21538000Y10198000D02*
X21538000Y7949500D01*
X21538000Y7949500D02*
X21575500Y7912000D01*
X21305500Y12373000D02*
X21305500Y10430500D01*
X21305500Y10430500D02*
X21538000Y10198000D01*
%TO.N,/outFO_5+*%
X23613000Y10198000D02*
X23613000Y7949500D01*
X23613000Y7949500D02*
X23575500Y7912000D01*
X23845500Y12373000D02*
X23845500Y10430500D01*
X23845500Y10430500D02*
X23613000Y10198000D01*
%TO.N,GNDA*%
X26618000Y10198000D02*
X26618000Y7949500D01*
X26618000Y7949500D02*
X26655500Y7912000D01*
X26385500Y12373000D02*
X26385500Y10430500D01*
X26385500Y10430500D02*
X26618000Y10198000D01*
%TO.N,/outFO_4+*%
X28693000Y10198000D02*
X28693000Y7949500D01*
X28693000Y7949500D02*
X28655500Y7912000D01*
X28925500Y12373000D02*
X28925500Y10430500D01*
X28925500Y10430500D02*
X28693000Y10198000D01*
%TO.N,GNDA*%
X31698000Y10198000D02*
X31698000Y7949500D01*
X31698000Y7949500D02*
X31735500Y7912000D01*
X31465500Y12373000D02*
X31465500Y10430500D01*
X31465500Y10430500D02*
X31698000Y10198000D01*
%TO.N,/outFO_3+*%
X33773000Y10198000D02*
X33773000Y7949500D01*
X33773000Y7949500D02*
X33735500Y7912000D01*
X34005500Y12373000D02*
X34005500Y10430500D01*
X34005500Y10430500D02*
X33773000Y10198000D01*
%TO.N,GNDA*%
X36778000Y10198000D02*
X36778000Y7949500D01*
X36778000Y7949500D02*
X36815500Y7912000D01*
X36545500Y12373000D02*
X36545500Y10430500D01*
X36545500Y10430500D02*
X36778000Y10198000D01*
%TO.N,/outFO_2+*%
X38853000Y10198000D02*
X38853000Y7949500D01*
X38853000Y7949500D02*
X38815500Y7912000D01*
X39085500Y12373000D02*
X39085500Y10430500D01*
X39085500Y10430500D02*
X38853000Y10198000D01*
%TO.N,GNDA*%
X41858000Y10198000D02*
X41858000Y7949500D01*
X41858000Y7949500D02*
X41895500Y7912000D01*
X41625500Y12373000D02*
X41625500Y10430500D01*
X41625500Y10430500D02*
X41858000Y10198000D01*
%TO.N,/outFO_1+*%
X43933000Y10198000D02*
X43933000Y7949500D01*
X43933000Y7949500D02*
X43895500Y7912000D01*
X44165500Y12373000D02*
X44165500Y10430500D01*
X44165500Y10430500D02*
X43933000Y10198000D01*
%TO.N,Net-(C3-Pad2)*%
X44165500Y14373000D02*
X41625500Y14373000D01*
X44165500Y16548000D02*
X44165500Y14373000D01*
%TO.N,Net-(C19-Pad2)*%
X39085500Y14373000D02*
X36545500Y14373000D01*
X38853000Y16548000D02*
X38853000Y14605500D01*
X38853000Y14605500D02*
X39085500Y14373000D01*
%TO.N,Net-(C20-Pad2)*%
X34005500Y14373000D02*
X31465500Y14373000D01*
X33773000Y16548000D02*
X33773000Y14605500D01*
X33773000Y14605500D02*
X34005500Y14373000D01*
%TO.N,Net-(C21-Pad2)*%
X28925500Y14373000D02*
X26385500Y14373000D01*
X28693000Y16548000D02*
X28693000Y14605500D01*
X28693000Y14605500D02*
X28925500Y14373000D01*
%TO.N,Net-(C22-Pad2)*%
X23845500Y14373000D02*
X21305500Y14373000D01*
X23613000Y16548000D02*
X23613000Y14605500D01*
X23613000Y14605500D02*
X23845500Y14373000D01*
%TO.N,Net-(C23-Pad2)*%
X18765500Y14373000D02*
X16225500Y14373000D01*
X18533000Y16548000D02*
X18533000Y14605500D01*
X18533000Y14605500D02*
X18765500Y14373000D01*
%TO.N,Net-(C2-Pad2)*%
X13558500Y14373000D02*
X11145500Y14373000D01*
X13453000Y16548000D02*
X13453000Y14478500D01*
X13453000Y14478500D02*
X13558500Y14373000D01*
%TO.N,Net-(C1-Pad2)*%
X8498400Y14378500D02*
X5958400Y14378500D01*
X8265900Y16553500D02*
X8265900Y14611000D01*
X8265900Y14611000D02*
X8498400Y14378500D01*
%TO.N,/outFI_1+*%
X43763000Y20739000D02*
X43763000Y19469000D01*
X43763000Y19469000D02*
X42090500Y17796500D01*
X42090500Y17796500D02*
X42090500Y16548000D01*
%TO.N,/outFI_2+*%
X38683000Y20739000D02*
X38683000Y19469000D01*
X38683000Y19469000D02*
X36778000Y17564000D01*
X36778000Y17564000D02*
X36778000Y16548000D01*
%TO.N,/outFI_3+*%
X33603000Y20739000D02*
X33603000Y19367400D01*
X33603000Y19367400D02*
X31698000Y17462400D01*
X31698000Y17462400D02*
X31698000Y16548000D01*
%TO.N,/outFI_4+*%
X28523000Y20739000D02*
X28523000Y19367400D01*
X28523000Y19367400D02*
X26618000Y17462400D01*
X26618000Y17462400D02*
X26618000Y16548000D01*
%TO.N,/outFI_5+*%
X23443000Y20739000D02*
X23443000Y19316600D01*
X23443000Y19316600D02*
X21538000Y17411600D01*
X21538000Y17411600D02*
X21538000Y16548000D01*
%TO.N,/outFI_6+*%
X18363000Y20739000D02*
X18363000Y19367400D01*
X18363000Y19367400D02*
X16458000Y17462400D01*
X16458000Y17462400D02*
X16458000Y16548000D01*
%TO.N,/outFI_7+*%
X13283000Y20739000D02*
X13283000Y19519800D01*
X13283000Y19519800D02*
X11378000Y17614800D01*
X11378000Y17614800D02*
X11378000Y16548000D01*
%TO.N,/outFI_8+*%
X8203000Y20739000D02*
X8203000Y19316600D01*
X8203000Y19316600D02*
X6298000Y17411600D01*
X6190900Y17417100D02*
X6190900Y16553500D01*
%TO.N,GNDA*%
X5658000Y35979000D02*
X5658000Y38789500D01*
X5658000Y38789500D02*
X6276500Y39408000D01*
%TO.N,/inFI_7*%
X13521000Y50625400D02*
X12241600Y51904800D01*
X13521000Y49187000D02*
X13521000Y50625400D01*
X12241600Y51904800D02*
X12252000Y51915200D01*
X12252000Y51915200D02*
X12252000Y53759000D01*
%TO.N,/inFI_8*%
X8457000Y49187000D02*
X8457000Y50812600D01*
X8457000Y50812600D02*
X9712000Y52067600D01*
X9712000Y52067600D02*
X9712000Y53759000D01*
%TO.N,/inFI_6*%
X26770400Y53835200D02*
X26770400Y52057200D01*
X26770400Y52057200D02*
X26516400Y51803200D01*
X26516400Y51803200D02*
X21217200Y51803200D01*
X21217200Y51803200D02*
X18601000Y49187000D01*
%TO.N,/inFI_5*%
X29310400Y53835200D02*
X29310400Y52412800D01*
X29310400Y52412800D02*
X27634000Y50736400D01*
X24281200Y50736400D02*
X23681000Y50136200D01*
X27634000Y50736400D02*
X24281200Y50736400D01*
X23681000Y50136200D02*
X23681000Y49187000D01*
%TO.N,/inFI_4*%
X31850400Y53835200D02*
X31850400Y52108000D01*
X31037600Y51295200D02*
X30123200Y51295200D01*
X31850400Y52108000D02*
X31037600Y51295200D01*
X30123200Y51295200D02*
X28761000Y49933000D01*
X28761000Y49933000D02*
X28761000Y49187000D01*
%TO.N,/inFI_3*%
X34390400Y52362000D02*
X33730000Y51701600D01*
X34390400Y53835200D02*
X34390400Y52362000D01*
X33730000Y51701600D02*
X33730000Y49298000D01*
X33730000Y49298000D02*
X33841000Y49187000D01*
%TO.N,/inFI_2*%
X36930400Y53835200D02*
X36930400Y52412800D01*
X36930400Y52412800D02*
X38921000Y50422200D01*
X38921000Y50422200D02*
X38921000Y49187000D01*
%TO.N,/inFI_1*%
X44001000Y51031800D02*
X41197600Y53835200D01*
X44001000Y49187000D02*
X44001000Y51031800D01*
X41197600Y53835200D02*
X39470400Y53835200D01*
%TO.N,Net-(J4-Pad17)*%
X46303000Y20739000D02*
X46303000Y3086000D01*
%TO.N,Net-(J4-Pad18)*%
X48843000Y3086000D02*
X48843000Y20739000D01*
%TO.N,Net-(J4-Pad19)*%
X51383000Y20739000D02*
X51383000Y3086000D01*
%TO.N,Net-(J4-Pad20)*%
X53923000Y3086000D02*
X53923000Y20739000D01*
%TO.N,Net-(J4-Pad21)*%
X56463000Y20739000D02*
X56463000Y3086000D01*
%TO.N,Net-(J4-Pad22)*%
X59003000Y3086000D02*
X59003000Y20739000D01*
%TO.N,Net-(J4-Pad23)*%
X61543000Y20739000D02*
X61543000Y3086000D01*
%TO.N,Net-(J4-Pad24)*%
X64083000Y3086000D02*
X64083000Y20739000D01*
%TO.N,Net-(J4-Pad25)*%
X66623000Y20739000D02*
X66623000Y3086000D01*
%TO.N,Net-(J4-Pad26)*%
X69163000Y20739000D02*
X69163000Y3086000D01*
%TO.N,Net-(J4-Pad27)*%
X71703000Y3086000D02*
X71703000Y20739000D01*
%TO.N,Net-(J4-Pad28)*%
X74243000Y20739000D02*
X74243000Y3086000D01*
%TO.N,Net-(J4-Pad29)*%
X76783000Y20739000D02*
X76783000Y3086000D01*
%TO.N,VCC*%
X79323000Y20739000D02*
X79323000Y3086000D01*
%TO.N,Net-(J3-Pad14)*%
X46313000Y53759000D02*
X46313000Y35994000D01*
X46313000Y35994000D02*
X46298000Y35979000D01*
%TO.N,Net-(J3-Pad13)*%
X48838000Y35979000D02*
X48838000Y53744000D01*
X48838000Y53744000D02*
X48853000Y53759000D01*
%TO.N,Net-(J3-Pad12)*%
X51393000Y53759000D02*
X51393000Y35994000D01*
X51393000Y35994000D02*
X51378000Y35979000D01*
%TO.N,Net-(J3-Pad11)*%
X53918000Y35979000D02*
X53918000Y53744000D01*
X53918000Y53744000D02*
X53933000Y53759000D01*
%TO.N,Net-(J3-Pad10)*%
X56473000Y53759000D02*
X56473000Y35994000D01*
X56473000Y35994000D02*
X56458000Y35979000D01*
%TO.N,Net-(J3-Pad9)*%
X58998000Y35979000D02*
X58998000Y53744000D01*
X58998000Y53744000D02*
X59013000Y53759000D01*
%TO.N,Net-(J3-Pad8)*%
X61553000Y53759000D02*
X61553000Y35994000D01*
X61553000Y35994000D02*
X61538000Y35979000D01*
%TO.N,Net-(J3-Pad7)*%
X64078000Y35979000D02*
X64078000Y53744000D01*
X64078000Y53744000D02*
X64093000Y53759000D01*
%TO.N,Net-(J3-Pad6)*%
X66633000Y53759000D02*
X66633000Y35994000D01*
X66633000Y35994000D02*
X66618000Y35979000D01*
%TO.N,Net-(J3-Pad5)*%
X69158000Y35979000D02*
X69158000Y53744000D01*
X69158000Y53744000D02*
X69173000Y53759000D01*
%TO.N,Net-(J3-Pad4)*%
X71713000Y53759000D02*
X71713000Y35994000D01*
X71713000Y35994000D02*
X71698000Y35979000D01*
%TO.N,Net-(J3-Pad3)*%
X74253000Y53759000D02*
X74253000Y35994000D01*
X74253000Y35994000D02*
X74238000Y35979000D01*
%TO.N,Net-(J3-Pad2)*%
X76793000Y53622000D02*
X76910000Y53505000D01*
X76793000Y53759000D02*
X76793000Y53622000D01*
X76910000Y53505000D02*
X76778000Y53373000D01*
X76778000Y53373000D02*
X76778000Y35979000D01*
%TO.N,GNDREF*%
X79333000Y53759000D02*
X79333000Y35994000D01*
X79333000Y35994000D02*
X79318000Y35979000D01*
%TO.N,VCC*%
X79323000Y27089000D02*
X79323000Y20739000D01*
%TO.N,GNDREF*%
X79318000Y35979000D02*
X79318000Y29634000D01*
X79318000Y29634000D02*
X79323000Y29629000D01*
%TO.N,/inFI_8*%
X8457000Y49187000D02*
X8457000Y47393000D01*
X8457000Y47393000D02*
X8330000Y47266000D01*
%TO.N,/inFI_7*%
X13521000Y49187000D02*
X13521000Y47377000D01*
X13521000Y47377000D02*
X13410000Y47266000D01*
%TO.N,/inFI_6*%
X18601000Y49187000D02*
X18601000Y47377000D01*
X18601000Y47377000D02*
X18490000Y47266000D01*
%TO.N,/inFI_5*%
X23681000Y49187000D02*
X23681000Y47377000D01*
X23681000Y47377000D02*
X23570000Y47266000D01*
%TO.N,/inFI_4*%
X28761000Y49187000D02*
X28761000Y47377000D01*
X28761000Y47377000D02*
X28650000Y47266000D01*
%TO.N,/inFI_3*%
X33841000Y49187000D02*
X33841000Y47377000D01*
X33841000Y47377000D02*
X33730000Y47266000D01*
%TO.N,/inFI_2*%
X38921000Y49187000D02*
X38921000Y47377000D01*
X38921000Y47377000D02*
X38810000Y47266000D01*
%TO.N,/inFI_1*%
X44001000Y49187000D02*
X44001000Y47377000D01*
X44001000Y47377000D02*
X43890000Y47266000D01*
%TO.N,Net-(C32-Pad1)*%
X8330000Y45266000D02*
X8330000Y43493500D01*
%TO.N,Net-(C31-Pad1)*%
X13410000Y45266000D02*
X13410000Y43493500D01*
%TO.N,Net-(C30-Pad1)*%
X18490000Y45266000D02*
X18490000Y43493500D01*
%TO.N,Net-(C29-Pad1)*%
X23570000Y45266000D02*
X23570000Y43493500D01*
%TO.N,Net-(C14-Pad1)*%
X28650000Y45266000D02*
X28650000Y43493500D01*
%TO.N,Net-(C13-Pad1)*%
X33730000Y45266000D02*
X33730000Y43493500D01*
%TO.N,Net-(C12-Pad1)*%
X38810000Y45266000D02*
X38810000Y43493500D01*
%TO.N,Net-(C11-Pad1)*%
X43890000Y45266000D02*
X43890000Y43493500D01*
%TO.N,/inFO_8*%
X8330000Y41418500D02*
X8330000Y39429500D01*
X8330000Y39429500D02*
X8351500Y39408000D01*
%TO.N,/inFO_7*%
X13410000Y41418500D02*
X13410000Y39429500D01*
X13410000Y39429500D02*
X13431500Y39408000D01*
%TO.N,/inFO_6*%
X18490000Y41418500D02*
X18490000Y39429500D01*
X18490000Y39429500D02*
X18511500Y39408000D01*
%TO.N,/inFO_5*%
X23570000Y41418500D02*
X23570000Y39429500D01*
X23570000Y39429500D02*
X23591500Y39408000D01*
%TO.N,/inFO_4*%
X28650000Y41418500D02*
X28650000Y39429500D01*
X28650000Y39429500D02*
X28671500Y39408000D01*
%TO.N,/inFO_3*%
X33730000Y41418500D02*
X33730000Y39429500D01*
X33730000Y39429500D02*
X33751500Y39408000D01*
%TO.N,/inFO_2*%
X38810000Y41418500D02*
X38810000Y39429500D01*
X38810000Y39429500D02*
X38831500Y39408000D01*
%TO.N,/inFO_1*%
X43890000Y41418500D02*
X43890000Y39429500D01*
X43890000Y39429500D02*
X43911500Y39408000D01*
%TO.N,/inFO_6*%
X18511500Y39408000D02*
X18511500Y36132500D01*
X18511500Y36132500D02*
X18358000Y35979000D01*
%TO.N,/inFO_5*%
X23591500Y39408000D02*
X23591500Y36132500D01*
X23591500Y36132500D02*
X23438000Y35979000D01*
%TO.N,/inFO_3*%
X33751500Y39408000D02*
X33751500Y36132500D01*
X33751500Y36132500D02*
X33598000Y35979000D01*
%TO.N,/inFO_2*%
X38831500Y39408000D02*
X38831500Y36132500D01*
X38831500Y36132500D02*
X38678000Y35979000D01*
%TO.N,/inFO_1*%
X43911500Y39408000D02*
X43911500Y36132500D01*
X43911500Y36132500D02*
X43758000Y35979000D01*
%TO.N,/inFO_8*%
X15818000Y35979000D02*
X15818000Y33063000D01*
X15818000Y33063000D02*
X15823000Y33058000D01*
%TO.N,/inFO_7*%
X20898000Y35979000D02*
X20898000Y33063000D01*
X20898000Y33063000D02*
X20903000Y33058000D01*
%TO.N,GNDA*%
X25983000Y30496500D02*
X10467500Y30496500D01*
X10467500Y30496500D02*
X8330000Y28359000D01*
X8330000Y28359000D02*
X5663000Y28359000D01*
X31063000Y30496500D02*
X25983000Y30496500D01*
X36143000Y30496500D02*
X31063000Y30496500D01*
X41223000Y30496500D02*
X36143000Y30496500D01*
%TO.N,Net-(C10-Pad1)*%
X25978000Y35979000D02*
X25978000Y32576500D01*
X25978000Y32576500D02*
X25983000Y32571500D01*
%TO.N,Net-(C9-Pad1)*%
X31058000Y35979000D02*
X31058000Y32576500D01*
X31058000Y32576500D02*
X31063000Y32571500D01*
%TO.N,Net-(C8-Pad1)*%
X36138000Y35979000D02*
X36138000Y32576500D01*
X36138000Y32576500D02*
X36143000Y32571500D01*
%TO.N,Net-(C7-Pad1)*%
X41218000Y35979000D02*
X41218000Y32576500D01*
X41218000Y32576500D02*
X41223000Y32571500D01*
%TD*%
M02*
