<?xml version="1.0" standalone="no"?>
<!DOCTYPE svg PUBLIC "-//W3C//DTD SVG 20010904//EN"
 "http://www.w3.org/TR/2001/REC-SVG-20010904/DTD/svg10.dtd">
<svg version="1.0" xmlns="http://www.w3.org/2000/svg"
 width="3241.000000pt" height="2414.000000pt" viewBox="0 0 3241.000000 2414.000000"
 preserveAspectRatio="xMidYMid meet">

<g transform="translate(0.000000,2414.000000) scale(0.100000,-0.100000)"
fill="#000000" stroke="none">
<path d="M372 23868 c-18 -18 -18 -23578 0 -23596 18 -18 31648 -18 31666 0
18 18 18 23578 0 23596 -18 18 -31648 18 -31666 0z m18463 -35 c-40 -8 -99
-59 -121 -103 -13 -26 -27 -81 -33 -130 -12 -98 -38 -221 -50 -233 -12 -12
-510 -180 -734 -248 -224 -67 -257 -78 -437 -142 -114 -41 -376 -144 -425
-167 -11 -5 -49 -21 -85 -36 -36 -14 -83 -34 -105 -44 -22 -10 -71 -32 -108
-49 -38 -17 -70 -31 -72 -31 -2 0 -46 -20 -99 -45 -53 -25 -98 -45 -100 -45
-2 0 -42 -17 -88 -39 -45 -21 -117 -53 -158 -71 -41 -18 -109 -48 -150 -67
-116 -54 -213 -83 -273 -83 -30 0 -115 9 -188 20 -74 11 -161 25 -194 30 -57
8 -147 22 -355 55 -181 29 -646 93 -750 104 -113 12 -266 24 -590 46 -113 8
-344 24 -515 35 -393 27 -578 24 -652 -9 -181 -80 -222 -305 -144 -776 6 -33
24 -144 41 -248 16 -103 43 -269 60 -370 46 -285 54 -348 46 -400 l-7 -48
-132 6 c-73 3 -206 10 -297 15 -91 5 -302 14 -470 21 -250 9 -337 16 -485 40
-465 75 -749 100 -1115 100 -278 0 -452 -13 -612 -46 -93 -19 -315 -73 -348
-85 -14 -4 -86 -25 -160 -45 -74 -20 -182 -54 -240 -75 -180 -66 -216 -74
-335 -74 -97 0 -118 3 -180 28 -57 23 -94 29 -205 36 -74 5 -220 16 -325 25
-104 8 -273 22 -375 30 -248 19 -510 41 -710 60 -91 8 -248 22 -350 30 -102 8
-207 17 -235 20 -200 22 -757 35 -1460 35 -958 -1 -1089 -6 -1329 -55 -99 -20
-187 -40 -195 -45 -27 -14 -121 -30 -271 -45 -308 -32 -560 -75 -780 -132
-167 -43 -253 -73 -445 -153 -82 -35 -195 -80 -250 -100 -260 -98 -370 -154
-448 -229 -60 -58 -93 -116 -109 -192 -10 -51 -9 -72 5 -143 35 -166 84 -253
168 -296 39 -20 132 -44 216 -55 33 -4 92 -27 165 -64 62 -32 201 -103 308
-158 267 -136 683 -289 1260 -463 365 -110 422 -125 1160 -307 80 -19 155 -39
167 -44 22 -8 20 -13 -67 -185 -81 -160 -96 -182 -159 -243 -78 -75 -107 -128
-142 -261 -11 -45 -48 -134 -83 -203 -115 -225 -117 -372 -7 -587 82 -161 129
-301 181 -535 20 -90 52 -220 220 -910 48 -195 80 -328 175 -720 142 -589 159
-647 269 -959 25 -71 46 -132 46 -136 0 -4 -129 -10 -287 -14 -182 -4 -321
-12 -378 -22 -371 -63 -744 -240 -1175 -557 -147 -108 -206 -163 -253 -235
-46 -69 -150 -291 -231 -490 -76 -187 -96 -236 -106 -257 -5 -11 -52 -123
-106 -250 -53 -126 -130 -299 -171 -382 -68 -140 -82 -161 -169 -255 -248
-267 -447 -634 -498 -919 -30 -165 -14 -398 44 -634 46 -190 60 -254 60 -279
l0 -26 -213 0 c-251 0 -296 -9 -357 -70 -47 -47 -72 -122 -95 -285 -21 -149
-47 -230 -93 -295 -56 -78 -96 -155 -116 -225 -10 -33 -20 -64 -21 -70 -2 -5
-4 3472 -4 7728 l-1 7737 9228 -1 c5075 -1 9218 -4 9207 -6z m13174 -9870 c-1
-5433 -4 -9864 -6 -9848 -61 498 -278 940 -635 1292 -356 352 -634 460 -1133
439 -172 -7 -527 -32 -585 -42 -155 -26 -390 -149 -685 -359 -81 -58 -152
-105 -156 -105 -5 0 -9 112 -9 249 0 668 -99 1261 -295 1761 -165 420 -483
929 -810 1295 -130 145 -318 304 -565 477 -136 95 -580 509 -631 587 -33 51
-110 281 -248 741 -18 58 -36 115 -42 128 -13 32 -6 39 44 47 236 36 281 47
385 94 232 105 302 114 801 99 l215 -6 48 -60 c58 -73 114 -114 198 -142 128
-43 290 -36 481 21 133 39 185 43 324 25 65 -9 151 -16 190 -16 85 0 283 22
465 50 136 21 241 34 360 45 77 8 134 33 177 77 34 36 63 110 63 163 0 50 27
124 64 172 17 22 66 67 109 99 88 65 227 227 340 397 143 213 272 516 337 792
104 438 100 980 -9 1405 -43 168 -84 279 -235 630 l-135 314 147 151 c204 208
311 355 436 601 112 222 175 405 229 664 77 366 87 770 32 1190 -54 403 -115
636 -239 903 -20 43 -36 80 -36 83 0 11 -155 282 -207 360 -92 141 -247 342
-553 719 -373 458 -388 477 -447 565 -199 299 -279 592 -244 894 10 82 10 125
1 197 -19 147 -53 208 -136 246 -73 33 -163 39 -368 23 l-173 -13 -162 122
c-176 133 -228 163 -309 180 -74 15 -189 14 -249 -4 -70 -21 -119 -58 -343
-266 -241 -224 -264 -232 -575 -210 -358 26 -720 66 -1080 121 -332 51 -491
63 -765 57 -138 -3 -292 -12 -353 -21 -111 -16 -308 -57 -387 -80 -25 -8 -72
-21 -105 -31 -616 -173 -1036 -432 -1324 -813 -135 -180 -273 -439 -331 -622
-18 -58 -35 -112 -38 -120 -3 -8 -9 17 -13 56 -15 151 -92 245 -276 338 -61
30 -151 79 -200 109 -123 75 -176 104 -338 185 -139 70 -414 202 -420 202 -2
0 -43 18 -92 41 -48 22 -158 70 -243 105 -85 36 -164 69 -175 74 -11 5 -78 32
-150 60 -71 28 -139 54 -150 59 -53 22 -253 98 -365 138 -69 25 -156 56 -195
70 -148 53 -450 158 -695 240 -140 47 -259 89 -263 93 -12 10 40 64 600 625
268 270 509 517 534 550 137 181 199 359 199 571 0 199 -44 310 -142 358 -62
30 -236 66 -323 66 -63 0 -262 -23 -350 -40 -258 -51 -429 -63 -489 -35 -41
19 -80 72 -92 120 -17 71 -70 142 -124 164 -17 6 2148 10 6448 10 l6472 1 -1
-9877z m-11745 9401 c64 -22 132 -89 142 -139 14 -77 -1 -149 -52 -245 -85
-160 -188 -275 -758 -846 -518 -517 -549 -546 -719 -673 -129 -96 -182 -130
-190 -122 -8 8 -7 18 4 38 8 16 236 251 507 523 874 876 881 884 1048 1130 64
96 74 116 74 154 0 75 -52 106 -177 106 -99 0 -222 -21 -763 -130 -85 -17
-177 -35 -205 -40 -27 -5 -104 -20 -170 -34 -66 -13 -169 -34 -230 -46 -60
-11 -184 -39 -274 -61 -130 -32 -166 -37 -172 -27 -9 13 -12 38 -6 38 4 0 106
36 227 80 47 17 117 38 156 45 40 8 98 28 130 44 177 89 406 139 769 166 141
10 348 36 405 51 68 17 187 12 254 -12z m-150 -253 c19 -30 -274 -355 -733
-811 -359 -357 -495 -489 -666 -645 -71 -66 -132 -122 -135 -125 -18 -18 -212
-191 -300 -266 -136 -115 -230 -187 -236 -181 -8 8 226 788 392 1307 99 309
103 318 136 365 45 65 61 71 343 130 33 7 94 20 135 30 91 20 426 89 730 151
124 25 227 48 229 50 8 8 100 4 105 -5z m-1773 -317 c-6 -22 -20 -77 -31 -124
-11 -47 -25 -96 -30 -110 -4 -14 -18 -59 -30 -100 -12 -41 -28 -94 -36 -117
-7 -23 -29 -95 -48 -160 -37 -126 -146 -483 -221 -728 -26 -82 -51 -166 -57
-185 -5 -19 -16 -53 -23 -75 -8 -22 -35 -107 -60 -190 -56 -182 -77 -241 -109
-304 -50 -98 -81 -121 -761 -576 -611 -407 -779 -506 -1030 -599 -167 -62
-334 -132 -460 -191 -506 -238 -518 -243 -664 -255 -64 -5 -122 -10 -130 -10
-22 0 -5 -45 47 -124 240 -368 328 -783 277 -1317 -24 -264 -28 -368 -16 -544
14 -209 21 -293 27 -325 2 -14 11 -86 19 -160 33 -292 53 -445 88 -672 8 -49
12 -90 10 -92 -3 -2 -33 16 -68 40 -174 122 -444 197 -640 179 -274 -26 -472
-120 -651 -308 -162 -169 -282 -405 -346 -677 -28 -123 -35 -356 -14 -480 73
-423 312 -682 704 -761 109 -22 304 -25 394 -7 31 7 60 9 64 5 14 -13 -96
-158 -206 -271 -124 -127 -248 -225 -485 -383 -134 -89 -249 -159 -660 -401
-161 -94 -263 -162 -247 -162 43 0 508 223 677 325 186 113 422 285 585 424
118 101 386 371 483 486 84 99 270 335 286 363 6 10 28 3 97 -28 49 -23 115
-53 147 -66 32 -14 87 -38 122 -54 36 -17 95 -44 133 -61 91 -42 913 -453
1192 -597 319 -164 343 -179 529 -336 104 -87 174 -124 248 -132 26 -3 122 2
213 9 181 16 533 19 705 6 131 -10 302 -33 440 -60 100 -19 396 -90 404 -96
16 -12 -22 -10 -140 7 -132 19 -261 35 -509 64 -511 61 -939 51 -1428 -34 -79
-13 -351 -75 -419 -95 -29 -8 -74 -21 -100 -29 -168 -48 -374 -131 -578 -231
-306 -151 -574 -323 -1010 -648 -186 -139 -517 -360 -582 -389 -25 -11 -92
-31 -149 -43 -321 -73 -603 -200 -839 -378 -488 -369 -838 -976 -949 -1649
-26 -156 -37 -411 -25 -607 5 -96 12 -184 14 -195 9 -40 41 -464 75 -1011 5
-88 12 -187 15 -220 12 -146 26 -328 32 -416 8 -129 -1 -144 -138 -223 -119
-68 -313 -194 -317 -205 -6 -18 215 -215 304 -272 76 -49 138 -115 166 -177
27 -58 27 -98 10 -567 -20 -575 -27 -682 -41 -699 -12 -14 -65 -16 -468 -16
-498 0 -479 2 -539 -62 -45 -47 -54 -68 -80 -192 -93 -444 -269 -827 -530
-1156 -70 -87 -368 -395 -392 -405 -18 -7 -13 1 103 148 55 71 115 147 133
170 357 459 582 951 686 1502 36 189 56 411 86 944 16 279 25 316 103 412 148
184 220 341 251 555 23 152 30 172 86 257 129 198 165 338 180 687 6 124 13
260 16 303 4 42 4 77 1 77 -4 0 -45 -30 -92 -66 -57 -44 -87 -61 -90 -52 -2 7
-11 78 -20 158 -8 80 -22 201 -30 270 -9 69 -22 181 -30 250 -8 69 -21 186
-30 260 -9 74 -22 182 -28 240 -7 57 -16 103 -20 103 -5 -1 -74 -64 -154 -140
-80 -76 -152 -142 -162 -146 -9 -5 -28 -4 -41 1 -24 9 -33 40 -154 528 -151
609 -157 634 -166 634 -4 0 -11 -15 -17 -32 -67 -204 -183 -502 -232 -593 -42
-79 -169 -265 -180 -265 -4 0 -55 27 -114 61 -59 33 -112 57 -118 54 -6 -4
-44 -52 -84 -106 -171 -229 -223 -436 -159 -627 14 -42 32 -87 40 -99 8 -12
14 -33 14 -46 0 -30 47 -96 92 -131 45 -34 130 -71 201 -86 32 -8 60 -16 62
-20 2 -3 -37 -71 -87 -151 -128 -202 -165 -284 -184 -410 -32 -217 22 -435
160 -649 40 -61 145 -195 383 -487 50 -61 116 -147 146 -190 l55 -79 -18 -124
c-98 -660 -334 -1165 -742 -1586 -244 -251 -488 -387 -862 -479 -446 -109
-855 -109 -1191 0 -107 35 -311 136 -360 178 -49 42 -85 111 -85 164 0 143
-102 635 -196 948 -78 258 -81 267 -204 625 -50 146 -104 303 -120 350 -16 47
-61 177 -99 290 -39 113 -71 208 -71 212 0 7 60 37 169 83 224 94 379 183 530
306 117 95 195 175 336 344 106 126 137 162 295 330 132 139 176 192 224 265
26 39 49 77 52 84 4 9 -50 54 -158 131 -104 74 -163 123 -162 133 1 10 18 73
38 142 94 314 99 333 81 346 -9 7 -51 17 -93 23 -134 20 -204 4 -557 -124
-505 -183 -847 -282 -1196 -346 -185 -34 -180 -33 -220 -31 -46 3 -57 22 -74
122 -9 52 -24 131 -32 175 -13 66 -16 250 -23 1085 -8 1060 -12 1173 -61 1475
-69 434 -204 813 -382 1075 -243 356 -549 619 -955 820 -73 36 -132 68 -132
71 0 3 34 19 75 34 73 28 74 29 97 84 18 44 23 75 23 141 -1 101 -19 143 -139
324 -184 276 -296 573 -416 1101 -11 50 -25 108 -30 130 -29 123 -108 490
-160 740 -17 83 -37 179 -45 215 -8 36 -28 133 -45 215 -17 83 -37 177 -44
210 -16 68 -41 187 -62 290 -9 43 -36 111 -69 175 -30 58 -58 125 -64 149 -15
70 3 160 72 341 13 36 30 92 37 125 11 56 16 62 63 95 66 45 118 120 162 235
21 53 48 103 63 118 15 14 114 77 220 141 l194 116 141 -122 c101 -86 142
-127 141 -142 0 -12 -8 -45 -17 -73 -9 -29 -12 -53 -8 -53 5 0 28 15 52 33 24
19 80 59 125 90 l81 57 259 -273 c142 -149 300 -314 349 -367 50 -52 146 -153
215 -225 69 -72 180 -189 247 -261 l122 -130 -70 -140 c-122 -244 -173 -395
-204 -605 -42 -291 9 -610 149 -938 103 -239 343 -695 467 -886 238 -366 373
-515 1034 -1141 220 -209 226 -214 265 -214 17 0 30 4 28 8 -1 5 -41 40 -88
77 -182 147 -500 451 -635 610 -33 38 -68 79 -78 90 -121 131 -360 464 -501
694 -90 149 -186 323 -186 339 0 5 28 -5 63 -23 137 -73 258 -105 399 -105
170 0 303 48 463 168 303 225 460 567 442 957 -11 238 -71 414 -211 625 -95
142 -199 237 -328 298 -153 73 -219 87 -423 87 -131 0 -187 -4 -245 -18 -108
-27 -283 -115 -353 -177 -32 -29 -59 -51 -61 -49 -2 2 32 76 75 164 137 281
248 596 309 875 6 30 18 84 26 120 16 70 69 348 85 445 16 94 72 291 107 375
6 14 36 89 67 168 30 78 96 235 146 349 84 193 89 208 73 220 -30 22 -40 15
-75 -49 -224 -421 -295 -548 -304 -548 -5 1 -28 14 -50 31 l-40 31 -935 -3
c-840 -2 -945 -1 -1032 15 -304 52 -567 172 -823 375 -228 180 -510 509 -661
769 -118 204 -262 498 -273 557 -6 32 -11 62 -11 66 0 22 294 65 580 84 224
15 1208 12 1555 -4 924 -44 1851 -124 2390 -206 88 -14 290 -47 360 -61 44 -8
108 -20 143 -26 69 -13 75 -23 42 -73 -49 -74 -11 -72 178 6 81 34 269 113
417 176 149 63 303 126 343 139 384 127 798 153 1372 89 25 -3 106 -9 180 -15
134 -10 199 -15 545 -45 206 -18 472 -46 690 -74 83 -11 188 -22 235 -25 654
-49 861 -102 1220 -314 129 -76 166 -92 179 -79 21 21 12 33 -69 93 -44 32
-80 62 -80 66 0 6 131 118 330 279 406 330 917 696 1365 976 168 104 365 223
371 223 2 0 22 11 43 24 115 73 514 286 778 417 166 82 304 149 307 149 2 0
42 17 88 39 94 44 442 192 563 241 356 142 1024 374 1038 360 5 -4 4 -25 -2
-46z m-5226 -540 c220 -26 426 -48 730 -79 273 -28 431 -45 547 -60 359 -46
397 -52 828 -120 245 -39 291 -46 375 -59 117 -18 213 -53 194 -71 -8 -6 -79
-52 -159 -102 -80 -49 -210 -130 -290 -180 -80 -50 -210 -128 -290 -173 -444
-251 -597 -357 -1140 -785 -468 -369 -505 -395 -567 -395 -15 0 -53 13 -84 30
-31 16 -82 39 -114 51 -64 24 -117 66 -139 110 -8 17 -24 98 -35 182 -34 245
-60 433 -87 602 -7 50 -25 164 -39 255 -13 91 -36 233 -50 315 -15 83 -29 196
-32 251 -5 92 -4 106 17 148 23 49 58 74 120 87 55 11 76 10 215 -7z m5545
-1033 c19 -5 154 -50 299 -100 145 -50 383 -131 530 -181 146 -49 345 -117
441 -150 96 -34 186 -65 200 -70 57 -18 397 -147 555 -210 307 -123 503 -214
1197 -559 332 -165 466 -237 518 -277 l70 -55 -28 -42 c-15 -23 -86 -128 -159
-234 -289 -420 -397 -589 -441 -688 -25 -55 -50 -106 -57 -113 -10 -11 -34
-11 -126 -3 -177 17 -447 14 -532 -5 -178 -40 -263 -132 -342 -367 -46 -137
-66 -229 -121 -560 -25 -147 -49 -278 -53 -290 -5 -12 -82 -132 -171 -267
-241 -365 -292 -481 -380 -875 -12 -55 -25 -113 -30 -130 -5 -16 -11 -42 -14
-57 -4 -15 -79 -116 -168 -225 -89 -109 -203 -252 -252 -317 -106 -139 -154
-176 -227 -176 -64 0 -84 8 -424 175 -165 81 -372 182 -460 225 -88 43 -254
124 -370 180 -115 57 -282 138 -370 180 -88 43 -248 120 -355 173 -107 52
-287 139 -400 194 -359 175 -592 290 -1119 550 -283 139 -518 250 -523 245
-20 -20 -48 -151 -49 -227 0 -44 -4 -114 -8 -155 -7 -69 -5 -81 20 -140 14
-36 59 -144 98 -240 40 -96 76 -184 81 -195 21 -47 43 -101 120 -285 44 -107
85 -204 90 -215 5 -11 46 -108 90 -215 45 -107 114 -274 155 -370 197 -472
217 -523 222 -580 9 -98 -8 -126 -166 -275 -35 -33 -109 -115 -163 -182 -54
-68 -100 -123 -102 -123 -1 0 -20 9 -42 19 -117 57 -406 194 -539 256 -91 42
-89 38 -39 110 97 139 161 306 185 482 7 55 10 148 6 248 -5 155 -11 204 -62
520 -14 83 -29 191 -35 240 -56 470 -77 661 -100 880 -11 110 -25 236 -31 280
-17 140 -22 403 -9 510 7 55 14 183 17 285 10 354 -53 685 -182 965 -29 62
-75 174 -75 182 0 1 26 11 58 23 86 32 185 70 207 80 11 5 43 18 70 30 28 12
59 25 70 30 11 5 45 19 75 30 30 11 64 25 75 30 11 5 85 35 165 66 524 203
755 326 1350 720 539 356 923 647 1513 1142 53 45 98 82 100 82 1 0 20 7 42
15 47 17 59 17 105 6z m9623 -43 c8 -13 20 -49 26 -80 7 -32 14 -58 17 -58 2
0 34 12 70 26 40 17 69 23 73 17 3 -5 28 -45 55 -89 105 -168 127 -183 200
-140 45 26 72 32 344 68 45 6 84 9 86 7 6 -5 23 -166 36 -329 32 -417 48 -557
81 -709 25 -121 56 -196 137 -340 36 -64 84 -154 108 -201 49 -97 464 -1127
490 -1216 25 -88 15 -191 -28 -285 -87 -187 -343 -428 -574 -540 -152 -74
-271 -107 -469 -133 -308 -41 -672 9 -1025 140 -106 39 -348 150 -483 220
-101 52 -122 78 -197 244 -23 52 -55 122 -70 155 -15 33 -49 107 -75 165 -144
318 -169 368 -198 398 -18 19 -44 40 -59 48 -40 21 -134 17 -303 -11 -82 -14
-188 -32 -235 -40 -116 -19 -180 -31 -355 -67 -220 -44 -247 -36 -385 108
-156 164 -260 326 -314 489 -9 28 -41 88 -71 134 -40 61 -53 90 -49 105 16 53
152 301 212 386 143 203 362 390 574 489 266 125 885 332 1452 485 289 78 446
147 606 266 84 62 218 198 253 257 35 58 49 65 70 31z m-2510 -229 c130 -10
300 -28 382 -39 39 -5 151 -19 250 -31 99 -11 250 -29 335 -40 85 -11 196 -24
245 -30 50 -5 132 -17 183 -25 83 -15 93 -19 90 -37 -2 -15 -23 -26 -98 -49
-92 -29 -374 -111 -495 -144 -591 -162 -863 -294 -1163 -562 -250 -223 -460
-573 -542 -902 -52 -207 -71 -259 -125 -344 -75 -117 -174 -163 -297 -137 -86
18 -224 94 -345 188 -146 114 -290 235 -296 249 -9 18 19 154 48 239 56 162
155 325 295 484 45 51 80 94 77 97 -10 10 -84 -16 -126 -44 -166 -112 -307
-341 -382 -623 -31 -113 -33 -324 -5 -414 20 -66 65 -161 96 -205 11 -15 20
-33 20 -40 0 -8 -83 -10 -314 -8 -297 3 -315 4 -336 23 -45 41 -53 72 -61 250
-15 338 -12 455 21 613 48 239 110 390 237 579 78 116 122 170 234 282 186
186 454 361 714 466 50 20 99 40 110 45 61 29 218 74 420 120 51 12 262 39
340 43 104 6 391 4 488 -4z m1987 -39 c0 -5 -4 -10 -10 -10 -5 0 -10 5 -10 10
0 6 5 10 10 10 6 0 10 -4 10 -10z m-24801 -395 c17 -4 31 -12 31 -18 0 -14
-158 -78 -261 -106 -41 -11 -117 -23 -169 -26 -135 -9 -187 -24 -788 -225
-733 -244 -732 -244 -732 -270 0 -42 623 -371 976 -515 49 -20 103 -42 119
-49 17 -8 89 -35 160 -61 72 -26 139 -51 150 -55 69 -29 569 -186 700 -220 17
-4 66 -18 110 -30 186 -51 511 -133 790 -200 260 -62 340 -82 347 -86 6 -4 -8
-61 -17 -72 -2 -2 -45 4 -97 13 -51 9 -136 23 -188 32 -247 41 -905 202 -1290
316 -255 76 -610 204 -835 302 -347 151 -959 457 -981 491 -24 36 -29 105 -11
140 26 50 89 115 141 149 28 17 107 57 176 88 450 202 904 322 1535 405 64 8
85 8 134 -3z m-57 -185 c34 -10 108 -80 108 -103 0 -18 150 -316 223 -444 161
-280 325 -499 549 -730 70 -72 85 -93 69 -93 -54 0 -429 82 -706 155 -309 81
-855 270 -1080 375 -11 5 -63 28 -115 50 -157 68 -226 101 -415 195 -170 85
-180 92 -180 118 0 26 6 31 70 54 136 49 431 150 475 162 61 16 299 75 385 94
278 63 359 88 456 138 39 20 85 35 114 38 6 0 27 -4 47 -9z m26552 -613 c67
-106 169 -238 257 -332 166 -177 671 -839 840 -1100 173 -266 282 -541 335
-845 25 -143 23 -434 -4 -560 -31 -143 -86 -303 -171 -499 -23 -52 -41 -98
-41 -102 0 -4 -14 -29 -32 -55 -17 -25 -44 -80 -60 -120 -32 -84 -174 -323
-219 -370 -77 -80 -176 -52 -258 71 l-26 40 1 325 c1 238 6 364 18 470 17 145
24 183 91 555 62 342 60 640 -6 970 -29 145 -62 226 -159 395 -56 99 -620
1203 -620 1215 0 18 20 -4 54 -58z m-6599 -486 c17 -85 19 -148 5 -246 -18
-123 -28 -146 -83 -200 -59 -58 -128 -85 -211 -85 -60 1 -150 30 -154 51 -2
14 57 108 210 329 99 144 146 234 179 340 l24 75 7 -95 c4 -52 14 -128 23
-169z m2338 -443 c316 -447 310 -438 290 -453 -30 -23 -138 -22 -223 2 -122
35 -219 100 -245 165 -21 53 -21 170 0 251 19 72 61 167 74 167 6 0 52 -60
104 -132z m-1073 -120 c49 -35 89 -69 90 -75 0 -21 -90 -16 -126 6 -27 16 -84
109 -84 136 0 13 30 -4 120 -67z m-983 -130 c12 -27 8 -38 -13 -38 -18 0 -35
55 -21 69 12 12 18 7 34 -31z m1763 28 c0 -2 3 -11 6 -19 7 -19 -64 -63 -79
-48 -8 8 -2 20 18 41 24 26 55 40 55 26z m-2595 -102 c85 -24 108 -38 89 -56
-6 -7 -185 41 -198 52 -8 8 -1 30 10 30 2 0 47 -12 99 -26z m4431 -21 c89 -30
136 -70 179 -153 24 -45 114 -307 307 -887 140 -422 155 -463 175 -463 32 0
36 14 34 100 -1 43 2 81 7 84 8 4 156 -73 372 -194 19 -11 83 -46 142 -78 60
-31 108 -62 108 -68 0 -6 -35 -26 -77 -45 -97 -42 -164 -106 -216 -208 -53
-104 -51 -138 14 -260 165 -307 361 -584 544 -767 178 -179 255 -208 400 -154
56 21 276 111 320 130 11 5 88 36 170 70 l150 61 28 -33 c341 -396 795 -1211
980 -1758 109 -324 122 -394 122 -665 -1 -268 -4 -288 -95 -630 -14 -54 -68
-198 -113 -307 -97 -231 -191 -373 -352 -533 -100 -100 -260 -227 -269 -214
-1 2 -10 44 -19 93 -21 104 -59 184 -132 281 -87 115 -277 275 -923 780 -199
155 -204 160 -197 190 20 94 37 197 56 330 24 168 22 312 -6 425 -8 36 -18 97
-21 135 -6 64 -3 77 24 137 25 56 52 89 169 205 191 192 338 288 507 332 111
29 274 29 402 -1 90 -21 96 -21 130 -4 31 14 34 19 23 32 -54 65 -181 104
-340 104 -277 0 -511 -118 -833 -422 -72 -68 -138 -129 -147 -135 -17 -14 -36
8 -319 375 -73 94 -138 172 -145 172 -7 0 -24 -9 -39 -21 l-26 -21 27 -50 c15
-28 63 -91 107 -140 127 -145 213 -266 271 -383 106 -214 118 -284 113 -660
l-3 -280 -31 3 c-21 2 -52 -8 -89 -28 -88 -47 -193 -100 -380 -190 -326 -157
-436 -206 -670 -295 -38 -15 -90 -35 -115 -45 -25 -10 -115 -44 -200 -75 -159
-58 -220 -81 -255 -96 -11 -5 -87 -34 -170 -65 -196 -72 -292 -119 -392 -191
-108 -77 -158 -124 -199 -189 -41 -64 -68 -171 -60 -233 3 -25 3 -74 0 -109
l-7 -65 -106 7 c-58 4 -143 11 -187 17 -45 6 -94 9 -110 7 -26 -3 -20 -8 64
-62 50 -32 92 -61 92 -65 0 -7 -106 -101 -113 -101 -3 0 -7 10 -11 23 -3 15
-21 30 -48 42 -24 10 -144 68 -268 128 -465 226 -664 298 -1050 381 -297 63
-379 71 -730 71 -329 -1 -349 -2 -595 -55 -330 -71 -701 -240 -956 -436 -128
-99 -217 -183 -411 -392 -104 -111 -214 -228 -245 -260 -53 -53 -210 -245
-263 -321 -31 -45 -40 -158 -16 -215 22 -53 20 -73 -13 -190 -33 -115 -36
-144 -51 -704 -11 -376 -9 -363 -78 -612 -22 -80 -52 -191 -67 -247 -19 -72
-32 -103 -42 -103 -29 0 -84 33 -107 64 -38 50 -40 83 -12 197 29 116 31 145
15 221 -22 103 -31 117 -428 618 -59 74 -197 250 -306 390 -109 140 -224 287
-254 326 -31 39 -96 122 -146 185 -339 433 -781 978 -931 1149 -353 403 -798
668 -1309 779 -242 53 -463 71 -887 71 -131 0 -238 4 -238 8 0 5 21 16 48 25
26 9 79 28 117 42 172 64 468 143 680 181 391 70 880 81 1285 29 449 -59 879
-174 1353 -362 76 -30 140 -53 142 -51 6 5 -107 94 -199 155 -103 70 -331 181
-461 226 -227 78 -461 128 -760 161 -262 29 -330 35 -473 42 -79 4 -139 11
-135 15 23 23 256 42 518 43 445 0 803 -56 1340 -211 66 -19 140 -40 165 -48
74 -21 213 -65 250 -80 214 -84 304 -123 475 -210 265 -134 483 -267 931 -567
204 -136 375 -248 380 -248 5 0 17 12 27 26 l19 25 -59 62 c-75 80 -140 134
-288 239 -329 235 -632 416 -977 586 -119 59 -217 110 -217 115 -1 4 11 7 25
7 41 0 93 30 120 69 13 20 36 74 50 121 14 47 29 96 34 110 5 14 18 59 30 100
12 41 25 84 29 95 5 11 57 166 115 345 71 216 121 349 148 398 l40 73 72 -68
c39 -38 134 -114 211 -169 224 -162 285 -225 366 -379 154 -293 349 -505 719
-781 74 -56 194 -141 265 -189 72 -48 136 -93 143 -99 11 -10 0 -34 -54 -125
-62 -103 -66 -113 -51 -128 14 -15 21 -12 75 35 33 29 63 52 66 52 4 0 12 -13
17 -30 6 -16 16 -30 23 -30 6 0 32 20 56 45 24 25 50 45 58 45 7 0 52 -9 98
-21 67 -16 88 -18 99 -9 8 7 15 16 15 21 0 4 -35 32 -77 62 -43 30 -148 110
-233 177 -85 66 -199 156 -254 198 -121 94 -370 292 -491 391 -144 117 -225
202 -329 347 l-98 136 22 23 21 23 127 -85 c128 -86 164 -114 333 -257 162
-137 361 -254 579 -340 128 -51 565 -195 725 -240 367 -102 672 -139 980 -117
149 11 198 17 410 47 61 9 195 19 299 21 l188 6 -7 -54 c-9 -69 -52 -162 -100
-217 -20 -23 -105 -93 -188 -155 -84 -63 -158 -121 -166 -130 -12 -15 -9 -17
31 -17 86 0 198 49 305 134 88 71 163 163 205 252 27 58 32 81 33 146 0 88
-18 124 -76 146 -57 21 -379 2 -729 -44 -266 -34 -574 -28 -790 16 -77 15
-294 69 -485 120 -336 89 -634 202 -867 330 -178 97 -185 115 -27 69 162 -47
363 -95 489 -118 63 -12 138 -25 165 -31 192 -36 325 -45 670 -45 357 1 433 6
685 51 263 46 588 142 795 234 11 5 63 27 115 50 300 132 668 358 953 588 63
51 99 65 65 25 -8 -10 -43 -65 -78 -123 -35 -58 -118 -177 -183 -264 -382
-512 -599 -934 -718 -1394 -35 -138 -42 -208 -32 -332 l8 -95 45 2 c144 5 402
187 636 448 205 230 325 436 340 584 7 60 6 61 -22 72 -45 17 -196 4 -298 -26
-88 -26 -151 -50 -299 -119 -94 -44 -95 -50 7 137 230 418 443 714 711 983
168 169 211 206 381 334 171 128 224 197 240 313 7 48 -19 157 -37 157 -6 0
-77 -41 -158 -92 -80 -50 -192 -120 -247 -155 -56 -34 -108 -63 -116 -63 -8 0
-30 16 -49 36 -44 45 -58 43 -208 -39 -333 -181 -599 -244 -1135 -272 -175 -9
-402 -40 -806 -108 -240 -41 -352 -59 -550 -87 -80 -12 -203 -30 -275 -41
-223 -33 -547 -80 -615 -89 -36 -5 -189 -28 -340 -50 -151 -22 -305 -40 -343
-40 l-67 0 -428 216 c-235 119 -474 242 -532 274 -58 31 -141 77 -185 100
-206 112 -359 211 -472 306 -146 123 -441 424 -454 461 -20 61 -4 119 78 286
91 184 64 173 258 102 456 -166 493 -177 600 -178 149 -3 188 6 240 56 72 70
72 88 -20 522 -63 299 -171 737 -197 800 -31 75 -105 180 -164 234 -83 76
-178 88 -261 34 -22 -15 -22 -17 -8 -33 15 -17 8 -35 -101 -246 -134 -263
-164 -317 -170 -311 -8 8 16 215 37 315 10 52 35 142 54 200 81 242 195 407
575 837 232 262 224 251 196 275 -18 14 -12 18 -164 -97 -66 -51 -124 -93
-127 -93 -16 0 40 340 75 455 101 332 161 440 278 499 127 64 353 61 848 -10
133 -19 247 -34 253 -34 25 0 7 -20 -56 -61 -36 -24 -71 -47 -76 -51 -8 -4 -7
-14 0 -31 11 -22 16 -24 60 -20 26 3 86 13 133 23 425 89 425 89 745 140 335
54 881 75 1265 50 244 -16 545 -56 660 -87 120 -33 353 -117 357 -129 2 -5
-22 -42 -53 -82 -48 -63 -54 -76 -43 -90 8 -9 14 -18 14 -19 3 -5 124 46 235
99 63 31 138 65 165 77 28 12 59 26 70 31 403 179 914 290 1081 233z m-19839
-40 c-3 -21 -26 -128 -52 -238 -68 -296 -97 -426 -180 -805 -26 -118 -50 -228
-54 -245 -4 -16 -10 -29 -15 -28 -18 4 -316 287 -517 489 -207 210 -293 313
-369 439 -65 108 -124 179 -174 210 -43 26 -59 30 -120 30 -40 -1 -97 -9 -129
-19 -48 -15 -60 -16 -75 -5 -31 25 -202 172 -202 175 0 1 7 10 16 18 14 14
113 16 946 16 l931 0 -6 -37z m23119 -901 c-9 -99 -30 -188 -68 -287 -170
-439 -543 -813 -955 -955 l-62 -21 -238 197 c-131 109 -274 228 -318 264 -156
129 -340 264 -420 311 -75 43 -209 109 -221 109 -19 0 -239 119 -281 152 -44
34 -51 43 -43 58 22 41 27 40 205 -45 333 -159 577 -226 951 -260 215 -19 285
-19 426 0 314 43 590 196 953 529 72 66 81 60 71 -52z m10 -479 c-3 -10 -21
-148 -41 -308 -19 -159 -40 -330 -47 -380 -6 -49 -12 -184 -12 -300 -1 -200 0
-213 22 -262 27 -58 116 -149 200 -203 28 -18 52 -37 52 -41 0 -11 -328 -239
-343 -239 -11 0 -773 777 -820 836 l-17 22 97 49 c122 61 260 147 367 226 166
125 387 373 492 552 36 62 62 86 50 48z m-1557 -545 c141 -128 373 -336 514
-463 l256 -230 -32 -28 c-45 -40 -181 -129 -252 -165 -187 -93 -371 -105 -448
-28 -46 46 -291 368 -456 600 -124 174 -141 203 -141 238 0 80 40 126 225 257
39 27 71 50 73 50 1 1 119 -104 261 -231z m-21152 36 c193 -44 324 -126 439
-275 343 -446 233 -1132 -231 -1432 -109 -70 -134 -78 -284 -92 -192 -17 -438
81 -534 213 -61 83 -177 395 -229 612 -29 122 -37 438 -14 530 58 229 224 373
506 440 97 23 258 25 347 4z m8580 -33 c146 -74 1263 -621 1268 -621 1 0 72
-33 156 -74 150 -71 189 -89 334 -156 87 -39 368 -181 495 -249 190 -102 508
-260 625 -311 66 -28 134 -58 150 -65 67 -30 297 -104 400 -129 61 -15 123
-30 138 -34 28 -7 29 -8 32 -92 4 -114 28 -219 70 -307 65 -138 111 -186 467
-490 106 -90 182 -163 182 -172 -1 -9 -29 -106 -64 -216 -34 -110 -79 -258
-101 -330 -21 -71 -43 -141 -48 -155 -5 -14 -21 -64 -36 -112 -22 -73 -30 -88
-47 -88 -11 0 -75 18 -141 41 -398 134 -633 189 -1022 240 -133 18 -229 22
-570 26 -514 5 -502 2 -663 162 -103 101 -195 170 -342 253 -63 36 -160 91
-215 122 -55 32 -214 114 -352 182 -139 69 -253 129 -253 133 0 4 21 27 46 51
63 61 118 148 145 227 36 109 27 300 -21 433 -53 147 -336 839 -440 1075 -5
11 -46 108 -90 215 -45 107 -85 204 -90 215 -5 11 -25 58 -44 105 -19 47 -42
102 -50 123 -9 20 -12 37 -6 37 5 0 44 -18 87 -39z m4741 -127 c86 -103 188
-383 246 -669 39 -192 48 -281 45 -433 -4 -157 -8 -166 -63 -151 -17 4 -105
22 -196 40 l-166 31 3 291 c4 366 18 629 38 732 21 107 46 195 56 195 4 0 21
-16 37 -36z m-242 -166 c-3 -29 -10 -125 -16 -213 -6 -88 -13 -196 -16 -240
-3 -44 -11 -174 -19 -289 -8 -114 -16 -210 -18 -212 -6 -7 -75 26 -123 58 -58
38 -78 85 -70 162 3 33 11 74 16 90 5 17 26 85 46 151 71 238 184 545 200 545
4 0 4 -24 0 -52z m-5726 -328 c206 -43 267 -68 338 -139 26 -26 60 -73 75
-105 30 -60 67 -227 67 -299 0 -23 7 -98 17 -167 14 -104 14 -140 5 -215 -26
-202 -96 -391 -194 -525 -18 -24 -151 -166 -303 -324 -131 -135 -299 -181
-512 -141 -317 60 -535 285 -621 640 -21 87 -23 300 -3 400 94 489 397 843
766 895 84 12 253 3 365 -20z m12055 -1720 c0 -15 -357 -310 -375 -310 -25 0
0 27 132 142 78 67 158 138 178 155 36 34 65 39 65 13z m-545 -179 c0 -14
-186 -188 -293 -273 -202 -161 -437 -304 -690 -419 -446 -204 -806 -311 -1237
-365 -169 -22 -616 -25 -765 -6 -265 34 -551 87 -670 122 -16 5 -64 19 -105
31 -579 165 -1069 402 -1442 697 -38 29 -68 55 -68 57 0 5 31 -6 45 -15 6 -5
60 -34 120 -65 61 -32 160 -83 220 -115 349 -184 574 -291 640 -306 50 -11
148 -17 340 -21 401 -8 853 21 1525 98 146 16 301 34 345 39 44 5 141 16 215
25 74 8 203 22 285 31 194 19 225 28 615 169 41 15 93 33 115 40 22 8 99 35
170 60 72 26 166 60 210 75 96 34 326 116 375 135 45 16 50 17 50 6z m-21609
-737 c362 -61 726 -270 1074 -619 177 -177 282 -320 384 -525 126 -253 186
-450 232 -770 21 -145 25 -280 34 -1125 3 -258 9 -573 15 -700 5 -126 16 -403
25 -615 13 -314 18 -387 30 -396 12 -9 2 -17 -51 -39 l-66 -28 35 -35 c44 -44
82 -51 277 -51 183 0 318 29 803 175 26 8 68 20 95 28 186 55 240 71 342 102
433 132 669 198 678 190 4 -5 -7 -55 -39 -171 -30 -111 -30 -217 0 -270 30
-52 60 -92 132 -173 32 -36 59 -71 59 -77 0 -5 -79 -102 -176 -215 -97 -113
-230 -270 -297 -349 -129 -153 -201 -220 -336 -308 -74 -49 -139 -87 -418
-248 -110 -64 -232 -100 -438 -130 -139 -20 -290 -54 -310 -69 -13 -9 -14 -17
-6 -39 l11 -27 223 0 224 0 16 -42 c8 -24 38 -110 66 -193 47 -140 119 -347
177 -510 40 -110 179 -532 204 -615 12 -41 25 -86 30 -100 25 -71 106 -390
134 -530 60 -298 86 -526 89 -787 1 -110 -1 -204 -5 -208 -4 -4 -24 6 -45 23
-81 64 -205 121 -343 158 -139 38 -501 16 -569 -34 -49 -36 -103 -109 -97
-130 11 -32 60 -35 121 -7 121 55 174 67 314 73 107 3 146 1 200 -13 273 -73
438 -258 490 -549 21 -117 10 -406 -24 -631 -25 -160 -69 -365 -86 -397 -5
-10 -9 -23 -9 -30 0 -22 -57 -135 -100 -198 -64 -94 -176 -200 -299 -281 -104
-69 -111 -76 -111 -107 0 -31 2 -33 28 -28 15 2 61 8 102 11 88 7 100 1 167
-87 81 -105 114 -189 116 -291 2 -74 -19 -170 -35 -165 -5 2 -22 32 -38 68
-57 128 -109 170 -211 170 -136 0 -212 -50 -279 -185 -23 -47 -47 -85 -54 -85
-6 0 -31 19 -56 43 -113 107 -179 147 -244 147 -33 0 -138 -33 -161 -50 -5 -4
-42 -22 -82 -39 l-72 -31 -38 26 c-72 49 -166 87 -228 92 -86 6 -146 -21 -226
-105 -66 -68 -78 -70 -85 -12 -24 203 -25 178 17 301 41 118 57 214 66 411 4
87 1 108 -23 183 -16 53 -48 119 -82 172 -84 132 -102 170 -102 220 0 62 19
97 116 203 369 406 557 847 641 1499 15 110 18 214 18 555 0 419 -3 465 -41
720 -109 725 -381 1410 -829 2085 -171 259 -222 322 -489 603 -78 81 -141 153
-141 160 0 6 36 32 80 57 291 164 473 332 589 544 21 37 24 51 15 62 -28 34
-96 -3 -179 -100 -346 -404 -943 -663 -1707 -742 -215 -22 -648 -22 -755 -1
-147 30 -291 102 -411 206 -72 62 -228 242 -375 430 -337 432 -325 414 -320
464 3 30 13 19 165 -178 284 -369 388 -482 560 -607 85 -63 245 -140 343 -167
93 -26 306 -51 425 -51 107 0 338 24 450 45 661 130 1287 475 1803 995 121
121 134 141 135 198 1 48 -34 131 -59 139 -6 2 -17 -17 -23 -43 -18 -71 -45
-117 -94 -160 -62 -55 -117 -71 -306 -95 -91 -11 -173 -22 -181 -24 -30 -9
-651 -113 -830 -140 -112 -16 -336 -48 -460 -65 -574 -78 -990 -71 -1305 23
-200 61 -323 118 -488 227 -121 80 -299 244 -357 330 -111 164 -135 240 -135
430 0 137 2 150 33 240 72 210 241 458 454 667 72 72 74 73 108 63 87 -25 214
1 279 56 84 73 121 161 235 559 19 66 67 265 106 440 17 77 35 156 40 176 20
75 6 309 -19 317 -22 7 -8 28 60 87 207 178 597 412 856 515 275 108 574 146
824 104z m23649 -440 c0 -3 -18 -49 -40 -102 -207 -498 -544 -957 -894 -1218
-213 -159 -437 -253 -641 -271 l-71 -6 -33 41 c-47 60 -120 109 -186 127 -51
13 -66 13 -129 0 -39 -8 -94 -24 -123 -36 -47 -19 -53 -19 -81 -5 -78 40 -138
159 -129 254 9 102 67 186 196 281 128 95 211 131 802 350 328 121 361 135
564 224 122 54 490 232 685 332 67 34 80 39 80 29z m262 -232 c222 -164 854
-695 939 -790 61 -67 119 -187 119 -244 -1 -78 -42 -108 -187 -137 -112 -22
-149 -35 -210 -74 l-40 -26 -59 30 c-80 40 -188 76 -250 84 -68 9 -147 -13
-249 -72 -74 -43 -81 -45 -110 -33 -95 38 -155 52 -235 53 -73 1 -93 -3 -142
-27 -31 -15 -79 -47 -106 -71 l-49 -44 -25 27 c-14 15 -73 89 -133 165 -59 75
-110 137 -114 137 -4 0 -15 -6 -25 -13 -17 -13 -17 -16 -2 -63 9 -27 20 -58
25 -69 31 -69 58 -151 53 -156 -4 -4 -72 -9 -152 -13 -80 -3 -192 -9 -250 -12
-93 -6 -107 -5 -120 11 -12 15 -12 19 2 29 9 6 57 40 108 75 328 231 605 559
896 1067 51 90 107 191 124 224 22 44 34 59 43 52 7 -5 74 -55 149 -110z
m-2462 -158 c0 -10 -656 -717 -669 -722 -25 -9 -29 211 -5 307 48 193 181 326
386 385 85 24 288 45 288 30z m-23252 -99 c2 -2 -23 -59 -56 -127 -33 -67 -83
-172 -112 -233 -64 -133 -68 -139 -86 -124 -21 17 -7 85 31 149 18 30 39 73
46 95 8 22 23 56 35 76 12 19 38 68 58 108 33 64 39 71 59 65 12 -3 23 -8 25
-9z m13542 -145 c231 -9 451 -29 580 -51 159 -27 416 -94 462 -119 10 -6 23
-10 30 -10 7 -1 31 -9 53 -20 22 -11 43 -19 47 -20 35 -1 319 -158 432 -238
260 -184 365 -301 1020 -1137 64 -82 154 -197 200 -255 542 -691 1037 -1337
1064 -1389 27 -54 32 -74 32 -135 0 -80 -25 -166 -49 -166 -21 0 -515 499
-662 670 -257 299 -385 454 -804 975 -324 404 -666 808 -860 1018 -343 371
-639 558 -1110 700 -62 19 -215 52 -315 68 -111 17 -385 15 -505 -6 -215 -36
-349 -83 -593 -210 -48 -25 -50 -12 -3 21 23 16 74 53 114 82 269 199 374 244
547 236 47 -3 191 -9 320 -14z m120 -265 c202 -33 391 -95 580 -189 477 -239
823 -540 1370 -1196 80 -95 267 -318 415 -494 149 -177 302 -359 341 -406 40
-47 129 -152 198 -235 70 -82 207 -244 304 -359 97 -115 231 -272 297 -350
223 -260 236 -276 228 -276 -4 0 -71 51 -148 113 -171 137 -191 160 -875 992
-122 149 -250 304 -284 345 -34 41 -141 170 -236 285 -387 467 -527 619 -738
803 -37 31 -106 92 -154 134 -120 104 -140 110 -362 107 -235 -3 -481 -33
-561 -69 -11 -5 -71 -30 -132 -55 l-113 -47 -62 50 c-233 184 -559 308 -998
378 -91 14 -170 28 -177 30 -15 4 4 80 35 139 65 129 313 247 637 304 81 14
341 12 435 -4z m7145 -210 c743 -57 1267 -237 1705 -585 121 -96 305 -289 374
-393 56 -84 60 -94 82 -210 13 -67 28 -140 34 -162 15 -52 69 -214 80 -240 5
-11 37 -99 71 -195 34 -96 74 -200 89 -232 38 -76 117 -419 140 -602 24 -197
-31 -432 -151 -642 -32 -56 -47 -73 -58 -68 -27 11 -40 7 -220 -60 -95 -36
-177 -66 -182 -66 -7 0 -202 227 -298 347 l-34 42 28 58 c85 180 132 397 160
743 8 107 20 247 25 310 6 63 15 176 21 250 18 237 55 379 129 497 41 66 41
66 22 86 -20 19 -20 19 -79 -40 -58 -59 -59 -59 -76 -153 -27 -150 -55 -351
-122 -890 -83 -662 -86 -677 -149 -746 -37 -41 -47 -46 -110 -57 -64 -11 -70
-14 -94 -52 -14 -22 -43 -87 -63 -145 -59 -170 -109 -259 -245 -440 -74 -97
-258 -331 -320 -407 -29 -35 -66 -58 -227 -136 -259 -127 -332 -154 -517 -194
-123 -26 -581 -26 -755 0 -628 96 -870 161 -1205 325 -163 80 -383 224 -439
288 -59 67 -54 77 24 48 22 -8 60 -22 85 -30 79 -28 214 -87 253 -111 79 -49
235 -122 312 -147 228 -72 423 -72 725 -1 94 23 300 53 410 60 52 3 142 10
200 16 58 5 247 14 420 19 364 11 439 19 572 60 185 58 206 73 223 163 l7 37
-43 -18 c-215 -92 -441 -121 -929 -122 -173 0 -355 -5 -405 -10 -302 -30 -404
-46 -530 -82 -109 -31 -245 -57 -305 -57 -76 -1 -217 25 -303 56 -40 14 -137
57 -217 95 -151 73 -267 123 -505 213 -298 113 -394 164 -436 232 -42 68 -8
194 86 325 33 46 34 46 77 37 82 -16 261 -22 304 -10 104 28 149 96 180 269
27 150 27 483 0 627 -53 286 -148 562 -218 634 -48 49 -82 63 -154 62 -35 0
-64 3 -64 8 0 5 41 64 92 132 492 666 934 1011 1518 1182 170 50 494 93 715
96 55 0 186 -6 290 -14z m-8455 -81 c17 -36 30 -67 30 -69 0 -1 -17 -5 -37 -8
-21 -3 -80 -13 -132 -22 -99 -18 -127 -12 -101 21 18 20 190 144 202 144 5 0
22 -30 38 -66z m14835 -74 c-3 -5 -11 -10 -16 -10 -6 0 -7 5 -4 10 3 6 11 10
16 10 6 0 7 -4 4 -10z m-158 -132 c-3 -7 -18 -50 -33 -95 -16 -46 -31 -83 -35
-83 -8 0 -86 91 -90 105 -2 10 125 82 149 84 8 0 11 -5 9 -11z m-14501 -68
c593 -46 1010 -229 1362 -595 385 -400 659 -973 801 -1670 62 -307 84 -478
121 -935 21 -248 56 -508 82 -605 76 -283 181 -536 336 -809 34 -60 62 -109
62 -111 0 -1 27 -46 59 -100 33 -55 58 -102 56 -105 -2 -3 -41 -25 -87 -47
-552 -274 -688 -344 -806 -414 -244 -147 -419 -292 -577 -480 -78 -93 -188
-251 -245 -352 -31 -56 -32 -58 -14 -78 10 -11 23 -18 29 -17 7 2 65 65 129
141 174 207 253 292 399 425 278 256 447 365 777 502 112 47 535 227 745 318
124 53 114 56 162 -45 22 -48 77 -162 121 -253 102 -211 107 -229 88 -323
-167 -803 -519 -1507 -1006 -2011 -176 -182 -272 -261 -439 -361 -83 -49 -151
-94 -151 -100 1 -30 16 -35 76 -24 211 39 589 328 815 624 248 325 353 528
624 1205 54 135 100 247 102 249 9 12 137 -130 237 -264 565 -757 899 -1511
991 -2242 30 -235 14 -561 -39 -796 -44 -193 -173 -488 -293 -672 -75 -113
-215 -289 -248 -311 -24 -16 -28 -15 -102 24 -133 68 -195 85 -308 85 -112 1
-161 -14 -262 -79 l-56 -36 -259 259 c-288 288 -279 270 -142 272 65 1 72 3
77 23 11 40 -58 91 -172 128 -110 35 -246 41 -906 38 -446 -2 -677 1 -790 10
-675 54 -1212 194 -1740 452 -370 181 -676 391 -891 612 -185 189 -307 364
-489 705 -16 28 -45 71 -66 95 -32 35 -40 40 -48 28 -15 -22 -24 -112 -16
-158 29 -177 381 -635 685 -894 299 -254 661 -470 1063 -635 71 -29 97 -45 97
-58 0 -15 -117 -190 -201 -300 -142 -189 -275 -321 -454 -455 -84 -63 -230
-151 -273 -164 -19 -6 -100 29 -351 151 -97 48 -145 78 -177 111 -55 56 -234
354 -341 567 -162 321 -337 761 -429 1078 -8 26 -20 68 -28 95 -132 439 -203
772 -253 1192 -21 177 -23 683 -5 920 41 514 50 965 28 1360 -9 162 -19 315
-21 340 -3 25 -12 131 -20 235 -9 105 -22 276 -30 380 -24 294 -59 874 -67
1100 l-3 80 125 21 c69 12 180 29 247 39 l121 19 6 70 c4 39 13 175 21 301 9
127 22 331 30 455 23 332 43 647 59 897 l14 223 38 46 c54 65 173 174 279 253
120 91 226 150 410 231 156 68 436 122 715 136 69 4 127 8 129 10 9 8 365 3
487 -6z m13596 -88 c25 -11 76 -49 114 -84 l68 -65 -23 -36 c-12 -21 -26 -37
-30 -37 -11 0 -431 139 -443 146 -21 13 57 74 122 95 40 13 142 3 192 -19z
m588 -7 c37 -23 97 -101 87 -112 -3 -2 -54 3 -113 11 -60 9 -146 21 -191 28
-46 6 -83 15 -83 19 0 5 15 16 33 26 110 60 201 69 267 28z m-1135 -30 l60
-26 -25 -21 c-14 -11 -78 -59 -144 -106 -106 -76 -121 -84 -145 -76 -30 11
-38 37 -40 127 -1 49 3 62 24 83 61 61 161 68 270 19z m-10757 -430 c37 -11
77 -37 140 -89 190 -159 387 -383 1092 -1241 459 -559 556 -674 936 -1104
l111 -126 -67 -12 c-108 -18 -161 -56 -199 -143 -30 -70 -34 -141 -21 -372
l12 -213 -37 -72 c-52 -102 -60 -169 -48 -389 9 -179 9 -180 41 -226 32 -47
115 -123 486 -448 110 -95 247 -216 305 -268 398 -355 740 -550 1081 -617 126
-25 168 -49 201 -115 16 -30 45 -113 65 -185 39 -137 90 -283 131 -375 73
-162 130 -283 208 -445 187 -385 245 -508 245 -516 0 -5 -34 -55 -76 -111
-122 -166 -209 -361 -256 -575 -30 -141 -30 -446 1 -618 33 -185 69 -328 127
-500 44 -135 47 -159 24 -241 -82 -299 98 -662 406 -818 101 -52 198 -70 304
-56 93 11 276 24 580 40 193 10 260 17 475 46 216 29 611 109 767 155 76 22
137 64 185 127 41 54 53 96 60 207 5 82 -18 460 -34 558 l-6 40 119 -8 c65 -4
183 -14 262 -24 l143 -16 4 -340 c2 -187 8 -365 14 -396 6 -30 13 -111 15
-180 2 -73 10 -144 19 -172 34 -107 99 -165 207 -186 30 -5 109 -20 175 -32
66 -12 161 -35 210 -51 89 -29 229 -101 272 -140 27 -25 196 -58 298 -58 156
0 344 56 484 145 70 44 144 55 419 65 327 12 355 19 425 101 56 65 60 98 77
564 10 285 23 451 40 530 5 22 12 53 15 69 l6 29 162 -6 c89 -3 241 -13 337
-22 265 -24 527 -33 705 -24 155 8 215 13 490 44 72 8 216 21 320 30 352 30
533 56 725 106 462 120 754 336 940 693 147 283 258 631 293 921 2 17 5 -743
6 -1687 l1 -1718 -12342 1 c-6789 1 -12320 5 -12292 9 108 16 289 125 398 240
78 83 197 249 227 315 34 77 47 334 29 570 -18 239 -17 267 14 319 14 24 32
46 40 49 8 3 145 -3 303 -15 280 -21 295 -21 523 -5 328 24 497 57 763 151
561 198 1045 577 1436 1124 227 318 436 729 591 1161 28 79 56 153 61 163 9
17 26 18 272 16 l262 -3 7 -126 c4 -69 16 -171 27 -225 11 -54 41 -198 66
-319 25 -121 50 -240 55 -265 5 -25 29 -133 54 -240 41 -172 61 -253 119 -470
27 -100 86 -293 126 -410 110 -320 199 -524 350 -800 152 -278 182 -384 186
-651 3 -140 6 -174 23 -211 49 -111 138 -148 405 -168 392 -30 754 52 1062
243 205 127 352 274 696 697 33 41 38 43 54 30 34 -28 66 -91 81 -160 13 -57
14 -88 6 -182 -14 -146 0 -281 36 -353 36 -75 100 -115 212 -134 81 -13 628
-22 730 -11 490 51 708 144 911 390 67 81 291 331 313 349 21 18 23 16 421
-378 403 -399 464 -450 633 -528 136 -63 200 -77 362 -77 167 0 228 13 357 75
63 30 103 59 174 127 158 149 353 396 470 593 324 546 423 1161 294 1829 -97
502 -130 883 -145 1670 -7 389 -10 441 -27 495 -35 108 -76 166 -156 217 -73
48 -120 63 -302 98 -88 17 -194 37 -235 45 -41 7 -119 22 -173 31 -159 27
-179 58 -151 230 55 341 87 657 88 864 1 193 1 195 -26 246 -64 122 -181 173
-399 174 -117 0 -194 -11 -284 -41 -74 -25 -190 -87 -252 -134 -43 -32 -47
-34 -58 -18 -15 22 -115 218 -115 225 0 3 8 8 18 10 15 4 21 27 35 124 10 65
22 146 27 179 17 113 21 169 21 274 -1 86 -4 111 -22 145 -43 84 -118 141
-259 196 -47 18 -91 38 -97 43 -7 5 -13 30 -13 56 0 147 -68 668 -126 961 -71
364 -199 798 -305 1037 -11 23 -19 44 -19 47 0 2 -14 35 -31 73 -80 175 -123
264 -184 373 -36 66 -65 121 -65 124 0 18 258 19 318 1z m-4618 -512 c0 -10
-4 -24 -9 -32 -7 -11 -10 -9 -16 8 -7 22 0 41 16 41 5 0 9 -8 9 -17z m8074
-141 c8 -16 20 -58 26 -93 22 -128 -34 -283 -130 -357 -24 -18 -46 -29 -50
-25 -15 16 19 254 48 337 25 72 74 166 87 166 2 0 11 -13 19 -28z m-8189 -173
c-1 -30 -8 -128 -18 -219 -9 -91 -23 -226 -31 -300 -8 -74 -24 -234 -36 -355
-27 -276 -24 -265 -57 -265 -25 0 -26 1 -20 53 8 74 54 458 73 607 8 69 22
181 30 250 31 259 36 291 48 287 6 -2 11 -26 11 -58z m-1642 -516 c9 -38 26
-108 37 -158 40 -173 52 -220 66 -263 35 -107 87 -176 159 -215 35 -19 56 -22
163 -22 67 0 122 -2 122 -4 0 -6 34 -225 61 -389 39 -245 56 -309 107 -416 27
-56 54 -118 60 -137 25 -78 44 -231 45 -359 1 -123 -1 -142 -25 -210 -15 -41
-36 -100 -47 -130 -10 -30 -23 -56 -28 -57 -4 -2 -80 115 -168 258 -88 143
-163 263 -166 265 -3 2 -15 -15 -25 -39 -14 -30 -19 -64 -19 -127 0 -96 8
-115 97 -246 149 -220 166 -584 37 -811 -38 -67 -89 -109 -155 -128 -77 -22
-89 -20 -115 23 -42 69 -122 176 -289 382 -284 352 -349 442 -399 553 -80 177
-78 385 4 547 35 70 83 140 110 161 30 25 162 220 192 285 32 70 41 170 23
254 -7 33 -17 63 -21 66 -5 2 -34 -33 -65 -80 -54 -82 -58 -85 -88 -79 -43 8
-57 18 -165 118 -100 94 -100 94 -192 70 -25 -6 -27 -4 -49 65 -18 57 -22 84
-17 140 7 80 55 194 106 253 l33 37 94 0 c203 0 320 84 429 306 25 51 45 95
45 98 0 9 19 56 23 56 3 0 11 -30 20 -67z m1748 32 c-12 -73 -11 -200 3 -277
23 -121 20 -211 -7 -278 -21 -52 -25 -55 -56 -53 -18 0 -35 3 -38 6 -2 3 0 61
6 129 6 67 18 204 27 302 8 99 17 183 20 188 3 5 16 8 27 6 16 -2 21 -9 18
-23z m-347 -327 c-8 -123 -24 -155 -24 -47 0 88 9 149 22 149 5 0 6 -42 2
-102z m13833 2 c91 -87 101 -100 113 -150 14 -56 18 -349 11 -675 -7 -250 40
-388 229 -687 156 -245 197 -307 266 -398 162 -218 239 -380 291 -615 13 -59
17 -125 17 -250 0 -173 -10 -248 -55 -425 -35 -132 -58 -265 -105 -605 -37
-267 12 -409 302 -875 353 -565 395 -666 398 -940 1 -129 -1 -148 -19 -175
-25 -39 -127 -155 -135 -155 -3 0 -17 19 -30 43 -13 23 -53 94 -90 157 -61
105 -206 360 -268 470 -56 100 -222 376 -340 564 -158 252 -201 345 -252 545
-29 115 -41 311 -30 473 9 120 18 177 66 413 34 167 73 453 95 689 20 218 -14
392 -115 597 -87 174 -263 423 -408 578 -196 207 -236 281 -243 451 -5 104 20
259 55 345 64 157 72 181 86 260 7 44 18 136 24 205 19 229 23 261 30 258 4
-2 52 -46 107 -98z m-21149 -102 c2 -11 -66 -63 -240 -180 -134 -91 -248 -168
-255 -171 -7 -4 -26 13 -48 44 -43 58 -42 65 23 153 66 90 165 137 337 162
119 16 179 14 183 -8z m-2844 -128 c76 -27 141 -52 144 -55 7 -6 -109 -132
-123 -133 -17 -1 -175 195 -175 217 0 12 3 21 8 21 4 0 70 -22 146 -50z
m18634 -17 c103 -26 104 -27 76 -41 -16 -8 -54 -15 -84 -16 -47 -1 -62 4 -93
27 -20 15 -42 37 -48 49 -13 24 -24 25 149 -19z m-16605 12 c65 -17 137 -51
137 -64 0 -15 -64 -120 -75 -124 -5 -2 -37 1 -70 8 -33 7 -103 20 -155 29 -52
10 -142 26 -200 36 -58 11 -122 22 -142 26 -73 12 -64 15 232 80 125 27 195
29 273 9z m-3103 -89 c185 -80 252 -109 345 -151 17 -7 73 -32 125 -55 52 -23
114 -50 137 -61 23 -10 44 -19 47 -19 2 0 37 -15 78 -34 40 -18 107 -48 148
-66 64 -27 90 -47 171 -129 99 -99 233 -201 341 -259 78 -41 217 -102 234
-102 26 0 24 -22 -6 -127 -18 -60 -38 -128 -45 -153 -29 -99 -108 -368 -122
-415 -8 -27 -18 -63 -22 -80 -40 -147 -174 -592 -182 -599 -5 -6 -17 -2 -31
10 -13 11 -45 35 -73 54 -291 198 -575 455 -1043 945 -163 171 -383 398 -489
506 -106 107 -193 198 -193 202 0 3 19 19 43 35 166 116 236 267 208 445 -7
45 -16 97 -18 116 l-5 33 73 -4 c66 -4 96 -13 279 -92z m25462 -45 c171 -110
202 -135 403 -336 352 -350 559 -624 745 -990 130 -255 213 -490 289 -825 12
-52 26 -113 31 -135 76 -329 109 -784 81 -1091 -24 -248 -69 -409 -230 -814
-43 -107 -90 -227 -105 -267 -18 -48 -36 -77 -54 -89 -25 -17 -28 -16 -81 12
-66 34 -136 103 -214 210 -31 43 -86 117 -120 165 -162 221 -220 404 -220 694
0 194 10 266 78 540 60 242 76 353 76 520 1 329 -96 622 -298 901 -66 93 -113
170 -113 187 0 7 19 34 43 59 l42 47 240 6 c132 4 261 10 287 15 51 10 104 39
91 50 -38 31 -335 84 -583 104 -36 3 -123 11 -193 17 l-128 12 -33 41 c-88
108 -141 252 -157 425 -13 144 7 601 26 601 2 0 46 -27 97 -59z m-23692 -26
c401 -21 739 -43 850 -54 138 -15 301 -41 330 -54 33 -15 110 -76 110 -87 0
-5 -21 -29 -47 -54 -34 -32 -71 -54 -128 -75 -309 -116 -657 -161 -1018 -131
-171 14 -249 41 -413 140 -117 71 -122 79 -154 210 -17 70 -17 76 -2 103 l17
29 85 -6 c47 -3 213 -13 370 -21z m1515 -122 c-4 -10 -10 -26 -12 -35 -3 -10
-12 -18 -19 -18 -18 0 -17 4 1 40 17 32 42 42 30 13z m20535 -220 c52 -69 126
-159 163 -199 132 -142 179 -150 356 -59 60 31 115 55 122 53 6 -2 35 -68 65
-146 60 -160 64 -169 73 -154 15 25 37 10 161 -113 163 -160 216 -238 530
-770 l82 -140 14 -118 c17 -143 9 -189 -42 -238 -30 -29 -41 -33 -87 -33 -103
0 -252 73 -601 294 -124 78 -189 107 -296 131 -104 23 -182 24 -291 3 -145
-27 -181 -42 -274 -118 -27 -22 -52 -42 -54 -43 -2 -2 1 -14 7 -27 l11 -24 43
16 c24 10 68 33 98 53 98 63 179 88 280 89 115 0 138 -9 640 -266 118 -61 284
-142 368 -182 l152 -71 0 -39 c0 -103 -122 -255 -265 -329 -108 -56 -190 -74
-345 -74 -395 -1 -744 200 -947 546 -33 55 -147 303 -213 460 -23 55 -50 119
-61 142 -10 24 -19 45 -19 48 0 7 -46 107 -106 230 -43 88 -71 131 -144 213
l-90 103 28 42 c16 23 51 78 79 122 63 102 420 673 439 703 8 12 18 22 22 22
4 -1 50 -57 102 -127z m-24772 -313 c40 -112 80 -161 322 -400 131 -129 278
-284 326 -345 147 -184 182 -224 343 -388 229 -233 488 -445 781 -639 162
-107 174 -136 200 -488 43 -579 63 -741 115 -960 54 -224 42 -430 -32 -575
-41 -79 -117 -172 -238 -290 -278 -272 -386 -498 -425 -894 -28 -283 6 -556
95 -756 31 -70 31 -73 2 -84 -12 -5 -43 -18 -67 -29 -25 -12 -67 -30 -95 -41
-78 -30 -189 -82 -461 -217 -296 -147 -350 -188 -408 -307 -101 -211 -60 -529
90 -696 99 -110 209 -164 504 -245 303 -84 642 -107 960 -66 239 32 378 39
733 40 329 0 441 8 677 46 199 32 568 111 721 155 115 33 214 111 264 208 66
130 64 269 -11 766 -27 175 -29 163 48 215 117 78 247 111 373 95 76 -9 119
-48 168 -152 75 -161 91 -275 69 -488 -20 -184 -26 -441 -13 -535 25 -179 93
-326 206 -449 118 -128 313 -229 490 -254 17 -2 -1274 -5 -2867 -6 l-2898 -1
1 3933 c1 2162 3 3923 6 3912 2 -11 12 -40 21 -65z m4434 13 c81 -31 153 -88
304 -238 277 -276 451 -535 713 -1065 374 -756 513 -1341 514 -2175 2 -503
-59 -859 -209 -1234 -106 -262 -198 -418 -390 -656 -160 -199 -148 -190 -252
-189 -164 2 -521 75 -742 153 -240 84 -446 192 -640 335 -109 80 -600 561
-745 729 -180 208 -295 408 -379 657 -74 220 -108 378 -181 845 -105 664 -86
1193 64 1796 23 90 45 175 50 189 5 14 19 59 31 100 28 95 49 156 100 300 23
63 49 136 58 162 9 27 23 50 32 53 9 3 97 12 195 20 637 52 884 93 1175 194
132 46 227 54 302 24z m16131 -276 c238 -63 411 -163 756 -439 186 -149 239
-215 351 -438 99 -199 119 -279 100 -407 -19 -127 -64 -298 -147 -557 -33
-105 -62 -139 -135 -161 -68 -20 -109 -19 -251 5 -318 54 -589 207 -927 524
-190 179 -340 332 -340 348 0 17 -45 58 -64 58 -7 0 -39 23 -71 51 -64 55
-187 139 -297 203 -96 56 -96 69 -9 161 47 50 81 98 105 148 32 66 36 83 36
155 0 114 -19 159 -135 318 -6 9 -5 18 3 26 19 19 377 37 677 33 232 -2 257
-4 348 -28z m6132 -250 c16 -13 15 -14 -13 -9 -18 2 -32 8 -32 13 0 13 24 11
45 -4z m-2701 -63 c14 -37 6 -50 -41 -63 -27 -8 -95 -29 -153 -47 -142 -46
-158 -43 -77 11 143 96 256 137 271 99z m219 -261 c177 -408 278 -640 287
-658 27 -58 50 -115 50 -124 0 -23 -261 -84 -505 -118 -104 -14 -198 -18 -470
-17 -343 0 -462 8 -760 50 -284 40 -724 138 -868 193 l-27 11 0 320 0 321 35
-6 c19 -3 50 -7 68 -10 414 -64 1023 -87 1312 -51 280 34 530 98 734 187 36
15 71 28 77 29 7 0 37 -57 67 -127z m-2551 42 c46 -14 89 -29 96 -33 9 -6 12
-38 10 -123 -3 -96 -6 -114 -19 -117 -11 -2 -47 39 -111 125 -52 70 -98 134
-102 141 -10 16 13 45 31 38 7 -3 50 -17 95 -31z m-3077 -599 c18 -13 18 -19
-4 -217 -13 -112 -29 -255 -36 -317 -7 -62 -15 -115 -18 -118 -11 -12 -99 154
-123 235 -23 73 -26 98 -22 192 4 125 12 142 99 201 60 41 76 45 104 24z
m-6390 -218 c3 -76 5 -138 3 -138 -2 0 -55 22 -118 49 -156 66 -157 72 -13
168 59 40 110 69 114 65 4 -4 10 -69 14 -144z m9790 -58 c22 -6 139 -30 260
-55 479 -97 658 -134 662 -139 4 -4 72 -286 93 -391 5 -22 39 -168 75 -325 36
-157 70 -303 74 -325 5 -22 25 -110 46 -195 20 -85 40 -173 45 -195 21 -102
39 -182 46 -199 7 -17 3 -18 -52 -12 -32 4 -99 14 -149 21 -49 8 -192 30 -317
50 -312 49 -327 52 -363 79 -55 42 -622 862 -668 965 -38 85 -14 194 139 627
40 112 38 111 109 94z m2692 -147 c68 -104 110 -151 198 -223 97 -80 202 -143
362 -221 73 -35 132 -69 132 -75 1 -11 -109 -222 -260 -499 -55 -101 -113
-210 -249 -466 l-121 -226 -567 -8 c-312 -4 -580 -4 -597 1 -50 12 -100 41
-113 66 -57 110 -195 542 -265 828 -51 209 -96 525 -97 676 0 93 0 93 170 83
398 -22 767 -1 1065 61 90 19 266 67 274 76 11 10 21 -1 68 -73z m-13662 -211
l30 -57 -3 -195 c-3 -240 -27 -619 -48 -760 -31 -213 -111 -524 -169 -655 -7
-16 -30 -68 -51 -115 -155 -351 -397 -687 -717 -996 -144 -139 -246 -214 -481
-354 -93 -55 -158 -87 -197 -96 -33 -8 -85 -25 -117 -38 -189 -79 -429 -141
-687 -178 -140 -20 -531 -16 -692 6 -126 18 -234 18 -250 2 -5 -5 11 -25 34
-46 53 -47 173 -87 299 -100 226 -24 598 -1 839 51 244 53 402 101 537 162 74
34 78 37 84 75 7 47 23 74 31 54 9 -22 61 -43 90 -36 34 9 50 18 216 123 179
115 263 180 422 327 74 69 135 121 135 116 0 -5 -23 -45 -51 -88 -234 -360
-619 -664 -1086 -858 -577 -240 -1152 -283 -1594 -119 l-71 26 5 56 c4 31 13
106 22 166 8 61 22 220 30 355 17 268 12 371 -26 482 -31 94 -41 200 -29 324
6 60 14 152 17 204 3 52 11 98 17 102 14 10 32 4 141 -42 281 -118 546 -170
875 -170 374 0 678 67 995 220 428 205 749 518 960 935 93 184 152 350 265
755 59 212 83 289 100 320 14 26 80 100 89 100 3 0 20 -26 36 -58z m15245
-114 c0 -2 -9 -32 -21 -68 -33 -105 -59 -246 -71 -384 -38 -437 111 -895 449
-1384 35 -52 63 -95 61 -97 -2 -1 -41 4 -88 11 -111 17 -345 17 -440 0 -278
-50 -539 -220 -692 -452 -100 -151 -173 -334 -223 -564 -9 -41 -18 -80 -20
-87 -3 -8 -43 -1 -132 22 -70 18 -182 43 -248 55 -137 24 -190 39 -295 83
-247 103 -421 272 -583 567 -19 36 -123 220 -230 410 l-194 345 246 7 c135 4
405 15 598 24 194 9 372 13 395 9 62 -10 145 -57 224 -127 87 -76 84 -73 304
-258 178 -149 301 -240 325 -240 7 0 20 9 29 19 17 19 17 21 -12 63 -36 51
-84 97 -217 208 -55 46 -122 103 -150 126 -123 103 -219 184 -303 254 -50 41
-91 80 -91 86 -1 6 63 126 140 265 78 140 174 313 214 384 39 72 109 198 155
280 46 83 95 171 109 198 l26 47 90 0 c103 0 250 22 345 51 78 24 213 89 255
124 26 21 45 31 45 23z m-4488 -545 c391 -551 508 -741 508 -825 -1 -59 -62
-321 -80 -341 -8 -9 -156 208 -211 308 -145 266 -246 507 -374 890 -71 213
-80 255 -56 255 5 0 101 -129 213 -287z m8143 53 c357 -49 566 -179 841 -522
236 -295 405 -695 408 -969 1 -108 -17 -155 -110 -280 -33 -44 -113 -163 -179
-265 -182 -281 -252 -378 -336 -461 -88 -87 -204 -159 -317 -197 -69 -24 -92
-26 -227 -26 -135 0 -158 2 -228 26 -194 65 -371 221 -473 418 -27 51 -29 63
-28 160 1 147 39 272 128 423 125 211 293 291 506 242 165 -38 305 -139 368
-265 26 -52 27 -62 25 -185 -2 -97 -7 -146 -22 -194 -11 -35 -18 -68 -15 -73
6 -10 93 34 116 59 9 10 30 45 45 78 24 52 28 75 31 176 5 139 -10 206 -69
327 -75 152 -203 262 -342 293 -166 36 -500 -95 -659 -258 -55 -57 -104 -140
-153 -264 -107 -266 -124 -547 -48 -789 70 -222 -6 -356 -208 -368 -142 -8
-260 36 -373 140 -94 85 -163 195 -328 523 -81 160 -192 365 -248 458 -60 99
-98 172 -94 180 47 79 387 606 485 752 160 238 229 324 361 450 340 327 730
467 1143 411z m-10968 -285 c26 -6 95 -17 153 -26 102 -16 287 -51 323 -61 30
-9 77 -55 100 -98 22 -40 22 -49 25 -493 2 -249 0 -453 -5 -453 -4 0 -59 84
-122 188 -62 103 -145 239 -184 302 -153 250 -387 641 -387 645 0 8 45 6 97
-4z m3730 -642 c70 -10 220 -28 333 -39 242 -24 332 -48 404 -109 38 -32 94
-133 155 -276 66 -156 127 -260 458 -782 166 -262 183 -294 174 -311 -5 -9
-37 -87 -71 -172 -35 -85 -64 -157 -66 -158 -7 -9 -223 112 -353 198 -171 115
-295 213 -589 468 -394 342 -589 496 -764 605 -43 27 -78 53 -78 59 0 9 41
184 81 343 11 44 29 109 41 144 l20 63 64 -7 c35 -3 121 -15 191 -26z m-20092
-461 c89 -154 293 -430 409 -554 332 -354 671 -620 1096 -865 63 -36 114 -70
112 -75 -2 -5 -101 -148 -220 -318 -119 -171 -218 -316 -220 -323 -2 -7 40
-58 93 -112 53 -54 102 -107 110 -117 7 -11 34 -70 59 -132 l47 -113 -19 -43
c-23 -50 -73 -102 -120 -122 -18 -8 -63 -21 -100 -29 -108 -22 -152 -34 -175
-49 -46 -29 -186 -45 -627 -72 -462 -27 -531 -29 -541 -13 -13 21 -12 25 26
50 32 22 48 59 26 59 -6 0 -124 -25 -264 -55 -139 -30 -257 -55 -260 -55 -4 0
-23 33 -42 72 -63 130 -100 153 -312 194 -18 3 -23 11 -23 35 0 72 -48 118
-170 164 -96 36 -191 99 -173 115 7 6 140 60 353 143 36 14 119 49 185 77 66
29 134 58 150 65 17 7 47 19 67 26 l37 13 216 -163 c119 -89 221 -161 226
-159 12 4 149 230 144 239 -5 6 -87 48 -228 114 -320 149 -562 404 -647 680
-30 98 -30 268 0 380 54 203 192 424 399 639 102 105 348 336 359 336 4 0 16
-15 27 -32z m23860 -275 c276 -349 285 -362 321 -469 36 -109 45 -250 34 -549
-14 -399 -67 -692 -177 -975 -43 -111 -182 -438 -248 -585 -34 -77 -73 -165
-86 -195 -32 -77 -53 -105 -94 -124 -63 -30 -124 -6 -226 88 -119 110 -276
163 -449 154 l-85 -5 0 311 c-1 263 -4 340 -24 496 -62 498 -76 784 -47 987
63 441 240 726 541 876 117 58 280 97 395 94 l65 -2 80 -102z m184 57 c103
-42 126 -58 212 -147 97 -100 154 -179 212 -290 115 -224 165 -478 153 -783
-9 -245 -36 -844 -45 -1010 -4 -80 -8 -237 -10 -349 -1 -113 -5 -209 -8 -214
-8 -13 -113 1 -253 35 -94 23 -149 31 -225 31 -103 1 -140 -9 -206 -54 -20
-14 -29 -15 -37 -7 -17 17 -15 24 17 104 36 89 50 116 95 184 49 74 121 224
163 340 106 292 153 679 153 1264 0 370 -4 398 -71 526 -22 41 -62 102 -89
135 -97 117 -160 204 -160 222 0 14 17 43 25 43 0 0 33 -14 74 -30z m-4099
-171 c388 -313 548 -489 686 -756 74 -144 137 -236 291 -428 210 -262 308
-412 413 -629 90 -187 99 -259 43 -326 -33 -39 -71 -55 -169 -69 -43 -6 -119
-18 -169 -26 -141 -21 -499 -74 -615 -90 -58 -8 -231 -32 -385 -55 -154 -22
-285 -40 -292 -40 -12 0 -73 81 -73 97 0 5 46 26 103 47 127 48 130 51 109 96
l-17 35 -184 2 c-101 1 -189 4 -197 7 -30 11 -10 46 111 196 l125 154 -49 51
c-228 236 -354 500 -368 775 -12 242 48 448 189 658 54 80 210 247 302 324 51
43 60 47 75 35 9 -7 41 -33 71 -58z m5443 -106 c53 -87 145 -251 205 -364 131
-246 203 -364 285 -467 88 -111 169 -185 251 -229 69 -37 73 -38 176 -38 95 0
112 3 176 31 40 17 106 52 149 78 l77 46 71 -61 c112 -96 169 -151 163 -156
-9 -10 -235 -41 -376 -53 -303 -25 -617 -23 -1005 6 -156 11 -609 59 -762 79
l-53 8 0 293 0 293 46 23 c107 53 175 140 289 367 36 74 80 155 97 180 33 49
98 121 109 121 4 0 50 -71 102 -157z m3087 -122 c-97 -433 -415 -803 -800
-932 -140 -46 -327 -61 -484 -39 -189 28 -372 193 -430 391 -18 60 -20 89 -7
89 5 0 33 -19 63 -43 213 -172 406 -250 622 -249 165 1 289 39 444 139 154 99
261 222 478 546 65 99 120 173 122 167 3 -7 -1 -38 -8 -69z m-6475 -516 c289
-78 346 -94 405 -110 25 -7 74 -20 110 -30 108 -29 107 -27 108 -82 1 -26 4
-94 8 -149 l6 -102 -28 -5 c-70 -14 -249 -17 -364 -8 -154 13 -279 39 -429 90
-172 59 -214 79 -206 99 4 9 11 31 17 47 5 17 14 39 19 50 5 11 21 52 35 90
59 158 66 175 72 175 4 0 115 -29 247 -65z m-1247 36 c15 -11 140 -93 277
-183 283 -186 428 -281 434 -285 2 -1 -1 -19 -7 -40 -12 -47 -111 -333 -121
-351 -5 -9 -93 101 -259 325 -416 559 -392 526 -380 540 14 17 24 16 56 -6z
m-7473 -1257 c110 -8 290 -21 400 -29 110 -8 299 -22 420 -31 121 -8 243 -18
272 -22 l52 -7 -192 -196 c-106 -108 -219 -214 -252 -236 -127 -85 -286 -126
-409 -105 -123 20 -308 109 -431 209 -65 52 -81 79 -184 308 -30 66 -57 124
-59 129 -3 6 33 6 89 2 52 -4 184 -13 294 -22z m-14659 -129 c3 -12 -161 -142
-210 -167 -19 -10 -53 -22 -76 -27 -44 -10 -110 -4 -110 10 0 4 23 32 51 63
49 53 131 109 187 126 36 12 155 8 158 -5z m224 -142 c29 -15 55 -33 57 -41 7
-17 -39 -112 -66 -136 -24 -22 -98 -41 -240 -61 l-104 -15 -33 25 c-19 14 -34
28 -34 31 0 3 16 25 36 49 42 51 128 118 181 141 21 9 45 20 53 25 32 17 98 9
150 -18z m373 -237 c20 -10 40 -23 44 -29 11 -18 -73 -84 -121 -96 -58 -14
-276 -15 -276 0 0 17 98 106 138 125 73 35 140 35 215 0z m5215 -76 c47 -88
16 -222 -73 -314 -42 -42 -141 -116 -157 -116 -15 0 -38 107 -38 179 0 182 85
306 204 299 36 -3 42 -8 64 -48z m-653 -46 c98 -46 108 -77 81 -264 l-12 -85
-33 2 c-18 0 -55 16 -86 37 -147 97 -170 243 -50 317 38 24 36 24 100 -7z
m-479 -36 c69 -47 104 -118 104 -216 0 -76 -16 -162 -31 -162 -28 0 -242 113
-277 147 l-42 40 0 79 c0 133 9 142 126 143 65 1 76 -2 120 -31z m12985 -8
c49 -24 119 -87 119 -106 0 -15 -72 -75 -117 -98 -46 -23 -127 -21 -179 5 -23
12 -66 46 -95 75 -47 47 -51 55 -38 70 20 24 89 66 124 75 49 13 138 3 186
-21z"/>
<path d="M4779 23537 c-26 -21 -32 -49 -193 -961 l-165 -939 22 -28 22 -28
480 0 480 0 26 23 c23 20 29 41 53 179 26 147 26 157 10 181 l-16 26 -300 0
c-296 0 -300 0 -295 20 3 11 18 94 33 185 l29 165 158 0 c143 0 162 2 187 20
31 22 30 19 64 208 l23 134 -24 29 -25 29 -155 0 -155 0 5 23 c3 12 18 95 33
185 l28 162 307 0 c288 0 307 1 323 19 11 12 27 73 45 173 28 150 28 154 10
183 l-18 30 -483 2 -483 2 -26 -22z"/>
<path d="M919 23531 c-23 -18 -34 -75 -190 -957 l-166 -939 19 -27 19 -28 168
0 c161 0 168 1 188 23 18 18 31 80 77 342 31 176 59 330 61 343 5 22 8 22 148
22 79 0 170 5 203 11 146 27 281 138 333 276 11 28 41 168 66 310 67 371 60
457 -42 555 -21 20 -60 47 -88 60 -49 22 -59 23 -411 26 -345 3 -362 2 -385
-17z m551 -398 c0 -5 -15 -93 -34 -197 -26 -145 -38 -193 -52 -203 -25 -18
-218 -19 -212 0 3 6 20 101 39 210 l34 197 112 0 c62 0 113 -3 113 -7z"/>
<path d="M2409 23536 c-100 -27 -202 -114 -249 -213 -34 -72 -273 -1428 -264
-1498 15 -115 78 -198 175 -230 40 -14 92 -16 321 -13 l274 3 66 33 c43 21 83
51 114 85 91 100 91 101 225 862 117 659 122 693 111 754 -14 86 -54 148 -120
187 -28 17 -69 34 -89 38 -70 11 -515 5 -564 -8z m341 -412 c0 -8 -43 -262
-96 -562 -71 -404 -100 -550 -112 -559 -19 -15 -212 -18 -212 -4 0 27 192
1099 200 1119 9 21 15 22 115 22 89 0 105 -2 105 -16z"/>
<path d="M3503 23528 c-17 -19 -47 -178 -182 -943 -89 -506 -161 -929 -161
-940 0 -11 9 -30 19 -42 19 -22 25 -23 183 -23 158 0 165 1 186 23 17 18 29
67 62 249 22 125 40 231 40 235 1 4 36 -102 80 -237 48 -150 86 -249 96 -257
13 -9 64 -13 179 -13 l161 0 22 30 c12 16 22 34 22 41 0 6 -63 208 -141 448
-77 240 -141 443 -142 452 0 8 135 216 301 462 166 245 302 452 302 460 0 8
-5 28 -11 46 l-11 31 -165 0 c-90 0 -172 -4 -182 -10 -10 -5 -90 -115 -177
-244 -87 -130 -159 -235 -160 -233 -1 1 16 101 37 221 l40 219 -22 24 c-22 22
-27 23 -189 23 -160 0 -167 -1 -187 -22z"/>
<path d="M6077 23528 c-22 -21 -36 -89 -186 -948 -89 -509 -161 -932 -161
-940 0 -8 9 -25 19 -37 19 -22 25 -23 183 -23 211 0 198 -11 237 206 l28 159
-5 -166 c-6 -207 -13 -199 158 -199 108 0 118 2 137 23 12 12 40 84 64 159 23
76 44 136 46 135 2 -2 -7 -62 -19 -133 -22 -129 -22 -130 -2 -157 l19 -26 160
0 c142 -1 163 2 185 19 24 18 32 60 191 957 l166 938 -19 28 -19 27 -238 0
c-218 0 -239 -2 -254 -18 -10 -10 -54 -141 -99 -290 -45 -149 -84 -269 -86
-267 -3 2 1 119 8 260 10 203 10 261 0 285 l-12 30 -239 0 c-233 0 -238 0
-262 -22z"/>
<path d="M7787 23539 c-107 -25 -228 -131 -265 -232 -12 -30 -75 -364 -142
-743 -131 -739 -131 -739 -89 -834 28 -63 74 -107 136 -130 49 -18 78 -20 312
-20 285 0 320 5 405 62 62 40 130 127 157 198 27 72 252 1335 252 1420 1 141
-66 239 -187 275 -38 12 -106 15 -295 14 -135 -1 -263 -5 -284 -10z m333 -412
c0 -7 -43 -254 -95 -550 -52 -296 -95 -542 -95 -547 0 -5 -7 -16 -16 -24 -20
-20 -214 -24 -214 -4 0 32 193 1104 201 1120 8 16 24 18 114 18 78 0 105 -3
105 -13z"/>
<path d="M8873 23528 c-18 -20 -46 -164 -186 -958 l-164 -935 20 -27 21 -28
162 0 c155 0 164 1 188 23 22 20 29 50 81 347 31 179 59 333 63 343 4 11 30
-126 61 -330 47 -307 56 -350 75 -365 18 -15 45 -18 182 -18 157 0 161 1 183
24 20 21 41 128 187 960 159 899 165 936 148 960 l-16 26 -167 0 c-149 -1
-168 -3 -189 -20 -20 -17 -30 -57 -85 -372 -34 -194 -64 -344 -66 -333 -2 11
-27 169 -55 352 -41 259 -56 337 -71 353 -17 19 -30 20 -185 20 -160 0 -167
-1 -187 -22z"/>
<path d="M8565 18579 c-302 -31 -517 -196 -683 -524 -64 -127 -86 -212 -87
-335 0 -115 12 -172 57 -265 69 -143 194 -248 356 -302 78 -25 101 -28 217
-28 144 0 215 17 325 78 222 122 395 381 445 667 35 198 1 353 -109 494 -124
160 -310 237 -521 215z m317 -141 c72 -25 124 -72 158 -142 29 -58 33 -76 33
-146 0 -66 -5 -89 -28 -135 -53 -110 -166 -194 -269 -203 -110 -9 -233 72
-301 198 -26 48 -30 65 -30 135 0 63 5 89 23 122 81 154 256 226 414 171z
m-615 -267 c2 -186 97 -357 257 -462 83 -55 168 -79 277 -79 49 0 89 -4 89 -8
0 -20 -102 -152 -147 -190 -123 -106 -286 -145 -436 -106 -83 21 -132 48 -192
105 -58 55 -87 107 -111 199 -34 133 -1 276 96 423 41 62 155 207 163 207 2 0
3 -40 4 -89z"/>
<path d="M13219 18201 c-281 -72 -471 -324 -473 -626 -2 -353 227 -715 513
-810 69 -23 210 -23 305 0 225 53 409 213 493 428 26 66 28 83 27 197 0 138
-15 192 -94 350 -111 220 -310 417 -469 464 -71 21 -215 20 -302 -3z m186
-115 c60 -27 117 -84 147 -146 18 -36 22 -62 23 -136 0 -81 -3 -96 -30 -149
-76 -148 -270 -204 -430 -123 -56 28 -102 74 -133 133 -35 67 -38 195 -5 266
40 90 118 156 210 179 56 14 161 2 218 -24z m387 -433 c43 -49 88 -190 88
-274 0 -65 -27 -157 -61 -211 -71 -110 -215 -205 -348 -229 -62 -11 -78 -10
-134 5 -112 30 -234 143 -293 271 -23 51 -45 131 -37 138 2 3 36 -8 76 -24
111 -43 194 -55 264 -39 80 17 140 50 208 112 56 51 205 239 205 259 0 14 16
11 32 -8z"/>
<path d="M10670 17222 c0 -11 110 -115 144 -136 38 -24 111 -24 156 -2 42 22
151 126 144 138 -7 10 -444 11 -444 0z"/>
<path d="M10647 16351 c-477 -252 -857 -311 -1237 -192 -52 17 -139 53 -192
80 l-97 50 -7 -37 c-4 -20 -3 -38 2 -39 5 -2 81 -41 169 -86 l160 -82 42 -165
c23 -91 45 -176 49 -190 82 -328 142 -505 287 -845 143 -334 210 -478 389
-833 148 -294 160 -315 222 -380 63 -67 126 -95 201 -90 108 7 157 40 356 238
340 337 505 550 705 910 39 69 93 172 121 230 77 157 193 401 193 405 0 5 55
124 116 251 64 134 109 179 217 220 116 43 297 137 297 155 0 12 1 12 -88 -12
-269 -73 -324 -83 -462 -83 -279 0 -516 97 -1065 439 -173 108 -220 136 -227
135 -2 -1 -69 -36 -151 -79z m207 -156 c71 -19 107 -35 206 -94 41 -24 265
-138 497 -253 436 -215 431 -212 403 -253 -3 -5 -17 -38 -30 -72 -14 -35 -28
-63 -32 -63 -5 0 -52 33 -106 73 -92 70 -275 184 -352 219 -412 191 -783 210
-1190 58 -144 -53 -356 -168 -476 -257 -17 -13 -35 -23 -40 -23 -5 0 -18 44
-28 98 -10 53 -24 122 -31 152 -8 30 -16 72 -19 92 l-7 36 53 15 c29 8 109 17
178 21 202 9 407 66 639 177 187 90 234 100 335 74z m47 -421 c262 -38 506
-127 680 -245 89 -60 199 -168 238 -234 l35 -57 -29 -85 c-23 -69 -66 -143
-240 -411 -498 -772 -556 -849 -735 -969 -139 -93 -202 -114 -281 -93 -94 26
-119 63 -289 435 -40 88 -86 189 -102 225 -29 62 -64 139 -93 205 -7 17 -38
85 -69 153 -31 68 -56 125 -56 127 0 2 -15 36 -34 77 -85 186 -156 358 -156
379 1 72 71 149 239 263 180 122 336 187 546 226 125 23 213 24 346 4z"/>
<path d="M10040 4882 c-75 -4 -317 -31 -610 -67 -208 -26 -386 -45 -570 -60
-456 -38 -547 -46 -580 -51 -78 -11 -202 -48 -207 -61 -12 -31 13 -35 119 -24
56 6 231 22 388 36 157 14 357 32 445 40 88 8 239 21 335 30 96 9 247 22 335
30 171 16 464 42 583 53 40 4 73 11 73 16 1 26 -205 64 -311 58z"/>
<path d="M24005 17870 c-60 -13 -277 -76 -445 -129 -206 -65 -517 -179 -605
-222 -33 -16 -100 -59 -150 -95 -49 -36 -106 -76 -127 -89 -20 -13 -39 -29
-43 -34 -6 -11 41 -112 77 -164 73 -106 179 -204 343 -319 113 -78 156 -98
213 -98 63 0 103 17 232 100 126 81 396 246 465 285 80 45 196 169 233 248 83
175 76 425 -12 492 -37 28 -117 39 -181 25z m81 -226 c15 -126 -16 -233 -88
-300 -88 -83 -620 -417 -684 -428 -63 -12 -111 3 -182 56 -86 65 -312 259
-312 267 0 19 351 211 515 280 231 99 521 173 702 180 l42 1 7 -56z"/>
<path d="M21999 16866 c-116 -32 -258 -141 -337 -258 l-32 -47 32 -38 c107
-122 284 -223 392 -223 64 0 134 28 177 71 55 55 64 111 45 282 -16 147 -31
189 -76 212 -35 18 -136 19 -201 1z m111 -266 c0 -97 -3 -130 -12 -130 -7 0
-62 17 -123 39 -96 33 -110 41 -113 62 -2 21 11 33 110 91 62 37 119 67 126
68 9 0 12 -32 12 -130z"/>
<path d="M20521 16862 c-14 -4 -26 -12 -28 -17 -2 -6 43 -39 99 -75 57 -36
182 -115 278 -177 117 -76 176 -108 178 -99 2 8 -11 44 -27 81 -44 96 -152
202 -256 251 -62 30 -91 38 -148 40 -40 2 -83 0 -96 -4z"/>
<path d="M25034 16432 c-65 -51 -132 -127 -191 -215 -78 -118 -276 -522 -296
-603 -21 -89 -21 -99 2 -149 l18 -40 116 230 c63 127 181 360 261 519 80 159
144 291 142 293 -2 2 -25 -14 -52 -35z"/>
<path d="M25761 16370 c-84 -23 -184 -85 -333 -209 -291 -243 -523 -575 -649
-928 -60 -168 10 -265 218 -303 47 -8 97 -7 219 4 511 48 919 96 996 116 63
17 107 55 136 118 24 52 25 61 19 176 -22 428 -166 717 -433 868 -30 16 -54
32 -54 36 0 3 11 20 25 38 32 42 31 47 -6 78 -36 31 -41 31 -138 6z m112 -254
c77 -51 129 -98 174 -158 82 -108 122 -203 172 -408 54 -223 52 -302 -9 -354
-35 -29 -118 -50 -165 -42 -33 7 -35 9 -35 48 0 64 -30 354 -46 453 -27 162
-73 304 -140 439 -39 76 -35 78 49 22z m-189 -42 c72 -190 137 -533 152 -802
l7 -118 -79 -22 c-43 -13 -95 -27 -114 -32 -19 -6 -104 -18 -187 -27 -143 -16
-163 -16 -298 -1 -84 9 -152 22 -162 29 -19 17 -53 93 -53 121 0 26 103 241
160 333 61 101 168 240 251 329 79 85 277 248 294 243 5 -2 18 -26 29 -53z"/>
<path d="M25469 15756 c-123 -43 -199 -150 -199 -281 0 -89 29 -162 85 -214
57 -52 107 -57 153 -13 43 40 52 63 52 134 0 76 -37 369 -47 379 -5 4 -24 2
-44 -5z m-30 -162 c36 -56 47 -111 31 -161 -14 -42 -56 -103 -71 -103 -5 0 -9
64 -9 155 0 99 4 155 10 155 6 0 24 -21 39 -46z"/>
<path d="M23835 16256 c-22 -8 -65 -21 -95 -30 -362 -104 -387 -114 -425 -161
-27 -33 -30 -44 -30 -108 1 -131 79 -244 212 -308 56 -27 77 -31 142 -31 92 0
142 20 278 110 111 73 151 122 232 281 61 120 69 141 51 141 -5 0 -68 27 -140
60 -137 63 -160 67 -225 46z m161 -181 c12 -30 -8 -66 -70 -133 -76 -80 -153
-128 -243 -153 -65 -18 -67 -18 -96 0 -16 10 -53 46 -83 81 -49 55 -54 66 -48
94 3 17 9 34 13 38 5 5 453 82 509 87 7 0 15 -6 18 -14z"/>
<path d="M21435 14120 c-18 -20 -17 -21 25 -58 77 -66 76 -66 100 -33 l21 30
-60 40 c-33 23 -62 41 -64 41 -2 0 -12 -9 -22 -20z"/>
<path d="M22527 14007 l-69 -62 41 -43 42 -44 70 62 69 62 -37 43 c-21 24 -40
43 -43 44 -3 0 -36 -28 -73 -62z"/>
<path d="M27669 14051 c-31 -10 -78 -33 -103 -51 -95 -69 -325 -332 -377 -432
-10 -21 -19 -57 -19 -81 0 -36 6 -49 33 -75 41 -40 91 -57 220 -77 171 -26
288 -29 452 -11 171 19 241 35 283 65 43 30 91 87 98 117 10 40 -22 179 -58
252 -63 129 -224 262 -357 297 -74 19 -102 18 -172 -4z m195 -181 c62 -24 141
-95 182 -167 49 -82 31 -173 -40 -206 -119 -56 -473 -38 -611 31 -16 8 -32 16
-33 18 -7 6 51 111 88 159 61 80 141 135 240 166 74 23 109 23 174 -1z"/>
<path d="M29453 13934 c-159 -35 -286 -153 -285 -264 1 -94 53 -159 311 -392
150 -136 257 -218 283 -218 7 0 23 22 36 49 12 27 42 76 66 108 87 116 116
202 116 344 0 223 -86 330 -298 372 -96 20 -144 20 -229 1z m263 -186 c29 -13
56 -36 72 -61 24 -36 27 -50 27 -128 0 -82 -2 -91 -40 -165 -22 -42 -48 -82
-56 -87 -13 -8 -51 21 -195 153 -99 90 -181 167 -182 172 -9 23 99 100 171
123 67 21 150 18 203 -7z"/>
<path d="M21005 12895 c-105 -33 -335 -174 -398 -245 -44 -48 -82 -122 -74
-143 3 -8 90 -63 194 -122 103 -59 234 -140 291 -181 112 -80 154 -94 211 -74
92 31 225 142 267 221 24 46 24 142 0 188 -10 19 -40 58 -65 85 -26 28 -73 85
-104 127 -31 42 -73 89 -92 103 -69 53 -148 67 -230 41z m127 -180 c46 -18
128 -109 178 -195 22 -38 40 -72 40 -77 0 -5 -22 -30 -49 -57 -33 -32 -54 -46
-63 -41 -7 5 -97 67 -201 139 -216 150 -211 136 -72 206 87 43 114 48 167 25z"/>
<path d="M20653 15960 c-32 -19 -39 -34 -62 -140 -14 -65 -25 -269 -17 -322
12 -80 74 -120 161 -104 72 14 84 48 87 236 2 137 -28 284 -65 317 -34 31 -68
35 -104 13z m57 -289 c0 -146 -8 -197 -24 -155 -8 21 -8 299 1 307 19 20 23
-7 23 -152z"/>
<path d="M5123 12210 c-66 -24 -126 -65 -183 -126 -50 -54 -115 -155 -125
-195 -7 -30 15 -55 39 -42 42 24 455 360 456 371 0 19 -125 14 -187 -8z"/>
<path d="M5250 11960 c-52 -9 -110 -43 -184 -105 -116 -99 -132 -127 -196
-345 -12 -41 -25 -86 -30 -100 -47 -132 -220 -827 -220 -881 0 -83 25 -132
104 -207 201 -187 534 -244 806 -137 81 32 121 57 165 106 62 69 66 84 110
469 54 469 -44 832 -295 1090 -86 90 -171 125 -260 110z m-32 -203 c63 -67 74
-213 27 -352 -40 -119 -82 -193 -151 -262 -56 -57 -66 -63 -103 -63 -46 0 -99
19 -119 42 -10 12 -8 25 12 69 13 30 44 119 70 199 26 80 62 172 79 205 29 54
139 185 156 185 4 0 17 -10 29 -23z m372 -999 c0 -27 -31 -173 -46 -217 -40
-119 -106 -209 -174 -238 -40 -18 -144 -18 -234 -2 -137 24 -254 107 -287 203
-15 42 -15 46 0 46 9 0 27 -6 41 -13 136 -70 328 -98 416 -61 90 37 199 149
250 257 18 37 34 49 34 25z"/>
<path d="M2303 9730 c-26 -11 -26 -12 -14 -60 5 -19 12 -52 15 -72 10 -54 28
-68 93 -68 30 0 53 4 51 9 -1 5 -23 52 -48 105 -46 97 -53 103 -97 86z"/>
<path d="M3115 9520 c-33 -39 -61 -75 -63 -79 -8 -23 106 -13 135 11 17 14 14
111 -3 128 -6 6 -32 -16 -69 -60z"/>
<path d="M7985 8589 c-87 -13 -195 -62 -195 -88 0 -9 61 -19 278 -47 72 -10
132 -21 132 -24 0 -4 -32 -79 -70 -166 -39 -88 -69 -164 -68 -170 6 -25 96 17
141 65 57 61 102 186 95 266 -11 127 -131 190 -313 164z"/>
<path d="M24137 10366 c-109 -45 -174 -104 -261 -235 -105 -161 -176 -325
-218 -507 -20 -88 -23 -125 -23 -329 0 -189 3 -244 19 -310 44 -188 126 -280
306 -341 166 -56 371 -68 587 -35 142 22 197 45 251 106 42 47 63 115 98 300
23 126 23 373 0 480 -46 208 -146 399 -282 537 -53 53 -112 98 -299 226 -62
43 -71 53 -79 90 -10 50 -18 51 -99 18z m-26 -337 c39 -41 52 -98 46 -189 -7
-99 -37 -177 -95 -241 -78 -87 -162 -110 -256 -69 l-46 19 15 33 c8 18 41 101
74 185 79 200 103 246 143 271 49 30 85 28 119 -9z m484 -729 c19 -92 19 -179
-1 -276 -29 -140 -80 -226 -155 -264 -48 -25 -183 -27 -273 -4 -89 22 -216 87
-256 130 -25 26 -29 35 -15 29 124 -47 133 -49 220 -50 77 0 98 4 145 26 151
71 259 235 275 415 4 38 9 80 11 94 l6 25 14 -27 c8 -15 21 -59 29 -98z m185
-153 c0 -111 -15 -196 -45 -254 -29 -56 -71 -110 -79 -103 -2 3 6 44 18 90 13
47 38 147 56 222 18 75 37 135 42 132 4 -3 8 -42 8 -87z"/>
<path d="M21555 8238 l-27 -24 87 -92 c85 -90 87 -91 111 -76 30 21 32 62 3
120 -22 46 -63 77 -115 88 -25 6 -38 2 -59 -16z"/>
<path d="M22390 8135 c-41 -35 -76 -68 -78 -73 -4 -12 71 -42 103 -42 15 0 30
9 39 23 16 25 33 157 20 157 -5 -1 -43 -30 -84 -65z"/>
<path d="M15648 10871 c-72 -28 -112 -57 -169 -119 -61 -66 -135 -213 -149
-294 -5 -29 -25 -145 -44 -258 -83 -484 -95 -605 -122 -1218 l-7 -152 662 2
663 3 14 40 c18 47 19 29 -36 630 -26 285 -65 609 -86 710 -49 232 -119 378
-247 512 -111 116 -213 163 -351 163 -54 -1 -97 -7 -128 -19z m165 -123 c5
-16 -5 -36 -33 -73 -103 -133 -155 -285 -180 -520 -19 -188 -32 -563 -28 -868
3 -284 1 -328 -12 -331 -8 -3 -73 -8 -144 -11 l-129 -7 6 268 c9 439 70 939
143 1163 30 94 125 290 152 314 24 22 170 85 198 86 14 1 24 -7 27 -21z m205
-154 c40 -25 27 -53 -67 -150 -52 -54 -93 -106 -99 -125 -20 -61 -42 -305 -42
-453 0 -224 36 -403 116 -574 84 -182 166 -240 254 -179 35 23 101 131 122
200 11 36 28 51 28 24 0 -7 9 -86 20 -176 12 -90 19 -165 17 -167 -2 -3 -145
-5 -318 -5 l-314 -1 -7 213 c-7 193 -4 471 7 589 2 25 7 81 10 125 8 100 37
268 69 393 22 87 86 278 102 303 7 12 72 1 102 -17z m71 -300 c39 -122 55
-236 47 -346 -7 -101 -35 -218 -52 -218 -16 0 -62 90 -81 157 -21 75 -24 297
-4 368 28 105 44 146 52 138 4 -4 21 -49 38 -99z m204 -688 l17 -105 -91 -130
c-51 -72 -95 -128 -99 -126 -12 7 -123 265 -117 271 11 11 262 192 268 193 3
1 13 -46 22 -103z"/>
<path d="M12906 8510 c-18 -67 -18 -73 -2 -115 21 -53 93 -120 145 -135 20 -5
70 -10 111 -10 160 0 201 -33 274 -221 221 -561 341 -811 532 -1099 178 -269
338 -357 566 -309 167 35 277 159 343 386 97 333 123 674 75 987 -35 231 -23
314 58 398 32 34 35 42 36 99 1 52 -2 63 -21 76 -20 14 -23 13 -36 -14 -25
-48 -95 -120 -141 -146 -100 -56 -205 -62 -431 -27 -232 36 -446 36 -1160 3
-119 -5 -135 -4 -178 15 -54 24 -75 61 -80 134 -2 41 -3 43 -37 46 l-36 3 -18
-71z m1464 -315 c0 -2 -89 -148 -197 -322 -108 -175 -217 -351 -242 -391 -24
-40 -48 -69 -52 -65 -4 4 -29 60 -54 123 -25 63 -50 124 -55 135 -5 11 -30 72
-56 135 -26 63 -68 167 -94 230 -26 63 -51 125 -54 138 l-7 22 405 0 c223 0
406 -2 406 -5z m377 -67 c14 -17 23 -49 32 -116 6 -51 9 -97 6 -103 -4 -5 -87
-9 -194 -9 -185 0 -212 4 -211 35 1 11 318 215 336 215 6 0 20 -10 31 -22z
m48 -377 l30 -6 -2 -164 c-5 -348 -78 -595 -218 -737 -53 -54 -68 -63 -116
-73 -73 -15 -133 -2 -207 46 -84 53 -178 152 -208 218 -24 52 -26 65 -22 158
5 102 14 140 69 290 58 158 144 239 282 266 49 10 348 12 392 2z"/>
<path d="M17232 7101 c-30 -19 -173 -223 -227 -324 -18 -33 -18 -38 -3 -49 10
-9 18 -36 21 -79 7 -76 37 -163 69 -200 81 -93 184 -72 340 69 47 42 105 94
130 114 55 45 88 108 88 169 0 86 -115 241 -215 289 -67 33 -160 37 -203 11z
m136 -157 c57 -23 89 -61 113 -131 20 -62 21 -65 3 -78 -11 -8 -22 -15 -25
-15 -16 0 -285 72 -292 79 -10 10 79 123 113 145 32 20 42 20 88 0z m-127
-249 c22 -14 43 -33 46 -42 6 -14 -32 -98 -49 -109 -4 -3 -19 18 -33 45 -25
51 -34 131 -15 131 6 0 29 -11 51 -25z"/>
<path d="M16160 6240 c-113 -15 -223 -91 -272 -189 -20 -39 -23 -61 -23 -151
1 -96 3 -111 32 -172 85 -182 253 -263 430 -210 122 37 197 104 250 220 23 49
27 71 27 157 0 89 -3 106 -27 156 -32 67 -99 132 -164 160 -38 16 -171 42
-193 37 -3 0 -30 -4 -60 -8z m200 -168 c75 -33 120 -94 120 -164 0 -42 -28
-134 -45 -148 -10 -8 -30 -9 -67 -3 l-53 8 -24 68 -24 67 -36 -6 c-20 -3 -67
-12 -106 -20 -103 -21 -111 -19 -119 18 -18 88 30 172 114 199 44 15 191 3
240 -19z m-150 -298 c47 -9 87 -18 89 -20 2 -1 -10 -21 -25 -43 -22 -31 -36
-41 -58 -41 -38 0 -146 60 -146 81 0 34 12 51 34 45 11 -2 59 -12 106 -22z"/>
<path d="M13163 6045 c-133 -36 -208 -109 -249 -244 -19 -62 -18 -173 2 -236
36 -112 135 -217 237 -251 71 -24 176 -16 250 18 76 36 165 125 202 203 134
283 -134 593 -442 510z m170 -126 c78 -21 146 -118 162 -233 6 -44 5 -48 -12
-44 -167 43 -294 70 -307 65 -9 -4 -16 -15 -16 -25 0 -15 24 -28 121 -63 67
-24 123 -50 126 -57 15 -37 -69 -102 -133 -102 -67 0 -151 76 -209 190 -24 47
-25 136 -1 175 47 79 170 122 269 94z"/>
<path d="M14663 5731 c-248 -64 -358 -345 -217 -557 65 -98 150 -159 262 -188
103 -28 208 3 293 86 93 91 136 206 126 343 -10 142 -72 238 -189 290 -50 23
-80 29 -153 31 -49 2 -104 -1 -122 -5z m231 -160 c20 -13 45 -40 55 -60 23
-43 51 -147 43 -155 -11 -12 -190 -5 -314 11 l-128 17 0 35 c0 19 9 54 21 78
37 75 99 104 215 99 53 -2 81 -9 108 -25z m-115 -306 c57 -7 106 -16 108 -19
10 -10 -27 -56 -60 -76 -59 -36 -111 -20 -171 53 -44 54 -46 71 -8 63 15 -3
74 -13 131 -21z"/>
<path d="M11258 8498 c-78 -358 -108 -572 -108 -765 0 -132 18 -290 40 -353 4
-14 16 -50 25 -80 9 -30 28 -79 41 -108 l24 -53 49 26 c45 25 49 31 65 88 29
104 67 290 62 303 -3 7 -33 15 -70 19 l-66 7 0 232 c0 154 5 264 15 330 24
161 21 209 -21 291 -43 85 -50 93 -56 63z"/>
<path d="M1290 8551 c-36 -11 -121 -57 -145 -78 -11 -10 -30 -31 -43 -47 -47
-61 -15 -185 68 -259 47 -43 132 -87 168 -87 29 0 71 21 95 48 18 20 17 21
-123 93 -77 39 -139 76 -138 80 2 5 56 65 121 134 l118 125 -48 -1 c-26 0 -59
-4 -73 -8z"/>
<path d="M25123 7964 c-109 -53 -182 -177 -190 -322 -4 -78 -2 -92 19 -132 47
-88 179 -140 353 -140 75 0 104 4 133 19 89 46 131 126 132 247 0 70 -4 89
-30 141 -37 73 -120 154 -192 188 -72 34 -154 33 -225 -1z m182 -75 c61 -32
113 -87 147 -156 25 -51 30 -71 26 -108 -15 -128 -135 -191 -285 -150 -53 14
-76 28 -115 65 -47 46 -48 47 -48 109 0 99 59 199 142 240 54 26 83 26 133 0z"/>
<path d="M20490 7635 c-162 -84 -240 -144 -240 -184 0 -17 21 -84 46 -150 l47
-121 -33 -77 c-30 -72 -31 -78 -14 -90 9 -7 23 -9 30 -5 34 19 224 199 224
212 0 8 -23 42 -51 75 -28 33 -63 76 -80 96 l-29 37 20 25 c13 16 48 34 107
53 94 30 137 62 149 109 7 30 -15 78 -38 82 -7 2 -69 -27 -138 -62z"/>
</g>
</svg>
