  0
SECTION
  2
BLOCKS
  0
ENDSEC
  0
SECTION
  2
ENTITIES
  0
LINE
  8
0
 10
19.9448
 20
270.667
 11
20.0912
 21
271.021
  0
LINE
  8
0
 10
20.0912
 20
271.021
 11
19.9448
 21
271.374
  0
LINE
  8
0
 10
19.9448
 20
271.374
 11
19.5912
 21
271.521
  0
LINE
  8
0
 10
19.5912
 20
271.521
 11
19.2377
 21
271.374
  0
LINE
  8
0
 10
19.2377
 20
271.374
 11
19.0912
 21
271.021
  0
LINE
  8
0
 10
19.0912
 20
271.021
 11
19.2377
 21
270.667
  0
LINE
  8
0
 10
19.2377
 20
270.667
 11
19.5912
 21
270.521
  0
LINE
  8
0
 10
19.5912
 20
270.521
 11
19.9448
 21
270.667
  0
LINE
  8
0
 10
25.8535
 20
261.117
 11
26
 21
261.471
  0
LINE
  8
0
 10
26
 20
261.471
 11
25.8535
 21
261.824
  0
LINE
  8
0
 10
25.8535
 20
261.824
 11
25.5
 21
261.971
  0
LINE
  8
0
 10
25.5
 20
261.971
 11
25.1464
 21
261.824
  0
LINE
  8
0
 10
25.1464
 20
261.824
 11
25
 21
261.471
  0
LINE
  8
0
 10
25
 20
261.471
 11
25.1464
 21
261.117
  0
LINE
  8
0
 10
25.1464
 20
261.117
 11
25.5
 21
260.971
  0
LINE
  8
0
 10
25.5
 20
260.971
 11
25.8535
 21
261.117
  0
LINE
  8
0
 10
28.2048
 20
247.762
 11
28.3513
 21
248.116
  0
LINE
  8
0
 10
28.3513
 20
248.116
 11
28.2048
 21
248.47
  0
LINE
  8
0
 10
28.2048
 20
248.47
 11
27.8513
 21
248.616
  0
LINE
  8
0
 10
27.8513
 20
248.616
 11
27.4977
 21
248.47
  0
LINE
  8
0
 10
27.4977
 20
248.47
 11
27.3513
 21
248.116
  0
LINE
  8
0
 10
27.3513
 20
248.116
 11
27.4977
 21
247.762
  0
LINE
  8
0
 10
27.4977
 20
247.762
 11
27.8513
 21
247.616
  0
LINE
  8
0
 10
27.8513
 20
247.616
 11
28.2048
 21
247.762
  0
LINE
  8
0
 10
25.8535
 20
238.312
 11
26
 21
238.666
  0
LINE
  8
0
 10
26
 20
238.666
 11
25.8535
 21
239.02
  0
LINE
  8
0
 10
25.8535
 20
239.02
 11
25.5
 21
239.166
  0
LINE
  8
0
 10
25.5
 20
239.166
 11
25.1464
 21
239.02
  0
LINE
  8
0
 10
25.1464
 20
239.02
 11
25
 21
238.666
  0
LINE
  8
0
 10
25
 20
238.666
 11
25.1464
 21
238.312
  0
LINE
  8
0
 10
25.1464
 20
238.312
 11
25.5
 21
238.166
  0
LINE
  8
0
 10
25.5
 20
238.166
 11
25.8535
 21
238.312
  0
LINE
  8
0
 10
20.0631
 20
223.702
 11
20.2096
 21
224.055
  0
LINE
  8
0
 10
20.2096
 20
224.055
 11
20.0631
 21
224.409
  0
LINE
  8
0
 10
20.0631
 20
224.409
 11
19.7096
 21
224.555
  0
LINE
  8
0
 10
19.7096
 20
224.555
 11
19.356
 21
224.409
  0
LINE
  8
0
 10
19.356
 20
224.409
 11
19.2096
 21
224.055
  0
LINE
  8
0
 10
19.2096
 20
224.055
 11
19.356
 21
223.702
  0
LINE
  8
0
 10
19.356
 20
223.702
 11
19.7096
 21
223.555
  0
LINE
  8
0
 10
19.7096
 20
223.555
 11
20.0631
 21
223.702
  0
LINE
  8
0
 10
25.8535
 20
214.152
 11
26
 21
214.505
  0
LINE
  8
0
 10
26
 20
214.505
 11
25.8535
 21
214.859
  0
LINE
  8
0
 10
25.8535
 20
214.859
 11
25.5
 21
215.005
  0
LINE
  8
0
 10
25.5
 20
215.005
 11
25.1464
 21
214.859
  0
LINE
  8
0
 10
25.1464
 20
214.859
 11
25
 21
214.505
  0
LINE
  8
0
 10
25
 20
214.505
 11
25.1464
 21
214.152
  0
LINE
  8
0
 10
25.1464
 20
214.152
 11
25.5
 21
214.005
  0
LINE
  8
0
 10
25.5
 20
214.005
 11
25.8535
 21
214.152
  0
LINE
  8
0
 10
76.8535
 20
213.651
 11
77
 21
214.005
  0
LINE
  8
0
 10
77
 20
214.005
 11
76.8535
 21
214.358
  0
LINE
  8
0
 10
76.8535
 20
214.358
 11
76.5
 21
214.505
  0
LINE
  8
0
 10
76.5
 20
214.505
 11
76.1464
 21
214.358
  0
LINE
  8
0
 10
76.1464
 20
214.358
 11
76
 21
214.005
  0
LINE
  8
0
 10
76
 20
214.005
 11
76.1464
 21
213.651
  0
LINE
  8
0
 10
76.1464
 20
213.651
 11
76.5
 21
213.505
  0
LINE
  8
0
 10
76.5
 20
213.505
 11
76.8535
 21
213.651
  0
LINE
  8
0
 10
74.3906
 20
204.201
 11
74.537
 21
204.555
  0
LINE
  8
0
 10
74.537
 20
204.555
 11
74.3906
 21
204.908
  0
LINE
  8
0
 10
74.3906
 20
204.908
 11
74.037
 21
205.055
  0
LINE
  8
0
 10
74.037
 20
205.055
 11
73.6835
 21
204.908
  0
LINE
  8
0
 10
73.6835
 20
204.908
 11
73.537
 21
204.555
  0
LINE
  8
0
 10
73.537
 20
204.555
 11
73.6835
 21
204.201
  0
LINE
  8
0
 10
73.6835
 20
204.201
 11
74.037
 21
204.055
  0
LINE
  8
0
 10
74.037
 20
204.055
 11
74.3906
 21
204.201
  0
LINE
  8
0
 10
28.0795
 20
198.005
 11
28.2259
 21
198.358
  0
LINE
  8
0
 10
28.2259
 20
198.358
 11
28.0795
 21
198.712
  0
LINE
  8
0
 10
28.0795
 20
198.712
 11
27.7259
 21
198.858
  0
LINE
  8
0
 10
27.7259
 20
198.858
 11
27.3724
 21
198.712
  0
LINE
  8
0
 10
27.3724
 20
198.712
 11
27.2259
 21
198.358
  0
LINE
  8
0
 10
27.2259
 20
198.358
 11
27.3724
 21
198.005
  0
LINE
  8
0
 10
27.3724
 20
198.005
 11
27.7259
 21
197.858
  0
LINE
  8
0
 10
27.7259
 20
197.858
 11
28.0795
 21
198.005
  0
LINE
  8
0
 10
76.8535
 20
193.334
 11
77
 21
193.688
  0
LINE
  8
0
 10
77
 20
193.688
 11
76.8535
 21
194.041
  0
LINE
  8
0
 10
76.8535
 20
194.041
 11
76.5
 21
194.188
  0
LINE
  8
0
 10
76.5
 20
194.188
 11
76.1464
 21
194.041
  0
LINE
  8
0
 10
76.1464
 20
194.041
 11
76
 21
193.688
  0
LINE
  8
0
 10
76
 20
193.688
 11
76.1464
 21
193.334
  0
LINE
  8
0
 10
76.1464
 20
193.334
 11
76.5
 21
193.188
  0
LINE
  8
0
 10
76.5
 20
193.188
 11
76.8535
 21
193.334
  0
LINE
  8
0
 10
25.8535
 20
188.555
 11
26
 21
188.908
  0
LINE
  8
0
 10
26
 20
188.908
 11
25.8535
 21
189.262
  0
LINE
  8
0
 10
25.8535
 20
189.262
 11
25.5
 21
189.408
  0
LINE
  8
0
 10
25.5
 20
189.408
 11
25.1464
 21
189.262
  0
LINE
  8
0
 10
25.1464
 20
189.262
 11
25
 21
188.908
  0
LINE
  8
0
 10
25
 20
188.908
 11
25.1464
 21
188.555
  0
LINE
  8
0
 10
25.1464
 20
188.555
 11
25.5
 21
188.408
  0
LINE
  8
0
 10
25.5
 20
188.408
 11
25.8535
 21
188.555
  0
LINE
  8
0
 10
82.8677
 20
183.784
 11
83.0142
 21
184.138
  0
LINE
  8
0
 10
83.0142
 20
184.138
 11
82.8677
 21
184.491
  0
LINE
  8
0
 10
82.8677
 20
184.491
 11
82.5142
 21
184.638
  0
LINE
  8
0
 10
82.5142
 20
184.638
 11
82.1606
 21
184.491
  0
LINE
  8
0
 10
82.1606
 20
184.491
 11
82.0142
 21
184.138
  0
LINE
  8
0
 10
82.0142
 20
184.138
 11
82.1606
 21
183.784
  0
LINE
  8
0
 10
82.1606
 20
183.784
 11
82.5142
 21
183.638
  0
LINE
  8
0
 10
82.5142
 20
183.638
 11
82.8677
 21
183.784
  0
LINE
  8
0
 10
76.8535
 20
174.158
 11
77
 21
174.511
  0
LINE
  8
0
 10
77
 20
174.511
 11
76.8535
 21
174.865
  0
LINE
  8
0
 10
76.8535
 20
174.865
 11
76.5
 21
175.011
  0
LINE
  8
0
 10
76.5
 20
175.011
 11
76.1464
 21
174.865
  0
LINE
  8
0
 10
76.1464
 20
174.865
 11
76
 21
174.511
  0
LINE
  8
0
 10
76
 20
174.511
 11
76.1464
 21
174.158
  0
LINE
  8
0
 10
76.1464
 20
174.158
 11
76.5
 21
174.011
  0
LINE
  8
0
 10
76.5
 20
174.011
 11
76.8535
 21
174.158
  0
LINE
  8
0
 10
20.1959
 20
170.985
 11
20.3424
 21
171.339
  0
LINE
  8
0
 10
20.3424
 20
171.339
 11
20.1959
 21
171.692
  0
LINE
  8
0
 10
20.1959
 20
171.692
 11
19.8424
 21
171.839
  0
LINE
  8
0
 10
19.8424
 20
171.839
 11
19.4888
 21
171.692
  0
LINE
  8
0
 10
19.4888
 20
171.692
 11
19.3424
 21
171.339
  0
LINE
  8
0
 10
19.3424
 20
171.339
 11
19.4888
 21
170.985
  0
LINE
  8
0
 10
19.4888
 20
170.985
 11
19.8424
 21
170.839
  0
LINE
  8
0
 10
19.8424
 20
170.839
 11
20.1959
 21
170.985
  0
LINE
  8
0
 10
74.2911
 20
164.708
 11
74.4375
 21
165.061
  0
LINE
  8
0
 10
74.4375
 20
165.061
 11
74.2911
 21
165.415
  0
LINE
  8
0
 10
74.2911
 20
165.415
 11
73.9375
 21
165.561
  0
LINE
  8
0
 10
73.9375
 20
165.561
 11
73.584
 21
165.415
  0
LINE
  8
0
 10
73.584
 20
165.415
 11
73.4375
 21
165.061
  0
LINE
  8
0
 10
73.4375
 20
165.061
 11
73.584
 21
164.708
  0
LINE
  8
0
 10
73.584
 20
164.708
 11
73.9375
 21
164.561
  0
LINE
  8
0
 10
73.9375
 20
164.561
 11
74.2911
 21
164.708
  0
LINE
  8
0
 10
25.8535
 20
161.435
 11
26
 21
161.789
  0
LINE
  8
0
 10
26
 20
161.789
 11
25.8535
 21
162.142
  0
LINE
  8
0
 10
25.8535
 20
162.142
 11
25.5
 21
162.289
  0
LINE
  8
0
 10
25.5
 20
162.289
 11
25.1464
 21
162.142
  0
LINE
  8
0
 10
25.1464
 20
162.142
 11
25
 21
161.789
  0
LINE
  8
0
 10
25
 20
161.789
 11
25.1464
 21
161.435
  0
LINE
  8
0
 10
25.1464
 20
161.435
 11
25.5
 21
161.289
  0
LINE
  8
0
 10
25.5
 20
161.289
 11
25.8535
 21
161.435
  0
LINE
  8
0
 10
76.8535
 20
156.057
 11
77
 21
156.411
  0
LINE
  8
0
 10
77
 20
156.411
 11
76.8535
 21
156.765
  0
LINE
  8
0
 10
76.8535
 20
156.765
 11
76.5
 21
156.911
  0
LINE
  8
0
 10
76.5
 20
156.911
 11
76.1464
 21
156.765
  0
LINE
  8
0
 10
76.1464
 20
156.765
 11
76
 21
156.411
  0
LINE
  8
0
 10
76
 20
156.411
 11
76.1464
 21
156.057
  0
LINE
  8
0
 10
76.1464
 20
156.057
 11
76.5
 21
155.911
  0
LINE
  8
0
 10
76.5
 20
155.911
 11
76.8535
 21
156.057
  0
LINE
  8
0
 10
82.9616
 20
146.507
 11
83.1081
 21
146.861
  0
LINE
  8
0
 10
83.1081
 20
146.861
 11
82.9616
 21
147.215
  0
LINE
  8
0
 10
82.9616
 20
147.215
 11
82.6081
 21
147.361
  0
LINE
  8
0
 10
82.6081
 20
147.361
 11
82.2545
 21
147.215
  0
LINE
  8
0
 10
82.2545
 20
147.215
 11
82.1081
 21
146.861
  0
LINE
  8
0
 10
82.1081
 20
146.861
 11
82.2545
 21
146.507
  0
LINE
  8
0
 10
82.2545
 20
146.507
 11
82.6081
 21
146.361
  0
LINE
  8
0
 10
82.6081
 20
146.361
 11
82.9616
 21
146.507
  0
LINE
  8
0
 10
27.9388
 20
142.154
 11
28.0852
 21
142.507
  0
LINE
  8
0
 10
28.0852
 20
142.507
 11
27.9388
 21
142.861
  0
LINE
  8
0
 10
27.9388
 20
142.861
 11
27.5852
 21
143.007
  0
LINE
  8
0
 10
27.5852
 20
143.007
 11
27.2317
 21
142.861
  0
LINE
  8
0
 10
27.2317
 20
142.861
 11
27.0852
 21
142.507
  0
LINE
  8
0
 10
27.0852
 20
142.507
 11
27.2317
 21
142.154
  0
LINE
  8
0
 10
27.2317
 20
142.154
 11
27.5852
 21
142.007
  0
LINE
  8
0
 10
27.5852
 20
142.007
 11
27.9388
 21
142.154
  0
LINE
  8
0
 10
76.8535
 20
138.973
 11
77
 21
139.327
  0
LINE
  8
0
 10
77
 20
139.327
 11
76.8535
 21
139.68
  0
LINE
  8
0
 10
76.8535
 20
139.68
 11
76.5
 21
139.827
  0
LINE
  8
0
 10
76.5
 20
139.827
 11
76.1464
 21
139.68
  0
LINE
  8
0
 10
76.1464
 20
139.68
 11
76
 21
139.327
  0
LINE
  8
0
 10
76
 20
139.327
 11
76.1464
 21
138.973
  0
LINE
  8
0
 10
76.1464
 20
138.973
 11
76.5
 21
138.827
  0
LINE
  8
0
 10
76.5
 20
138.827
 11
76.8535
 21
138.973
  0
LINE
  8
0
 10
25.8535
 20
132.704
 11
26
 21
133.057
  0
LINE
  8
0
 10
26
 20
133.057
 11
25.8535
 21
133.411
  0
LINE
  8
0
 10
25.8535
 20
133.411
 11
25.5
 21
133.557
  0
LINE
  8
0
 10
25.5
 20
133.557
 11
25.1464
 21
133.411
  0
LINE
  8
0
 10
25.1464
 20
133.411
 11
25
 21
133.057
  0
LINE
  8
0
 10
25
 20
133.057
 11
25.1464
 21
132.704
  0
LINE
  8
0
 10
25.1464
 20
132.704
 11
25.5
 21
132.557
  0
LINE
  8
0
 10
25.5
 20
132.557
 11
25.8535
 21
132.704
  0
LINE
  8
0
 10
74.2024
 20
129.523
 11
74.3489
 21
129.877
  0
LINE
  8
0
 10
74.3489
 20
129.877
 11
74.2024
 21
130.23
  0
LINE
  8
0
 10
74.2024
 20
130.23
 11
73.8489
 21
130.377
  0
LINE
  8
0
 10
73.8489
 20
130.377
 11
73.4953
 21
130.23
  0
LINE
  8
0
 10
73.4953
 20
130.23
 11
73.3489
 21
129.877
  0
LINE
  8
0
 10
73.3489
 20
129.877
 11
73.4953
 21
129.523
  0
LINE
  8
0
 10
73.4953
 20
129.523
 11
73.8489
 21
129.377
  0
LINE
  8
0
 10
73.8489
 20
129.377
 11
74.2024
 21
129.523
  0
LINE
  8
0
 10
76.8535
 20
122.847
 11
77
 21
123.201
  0
LINE
  8
0
 10
77
 20
123.201
 11
76.8535
 21
123.555
  0
LINE
  8
0
 10
76.8535
 20
123.555
 11
76.5
 21
123.701
  0
LINE
  8
0
 10
76.5
 20
123.701
 11
76.1464
 21
123.555
  0
LINE
  8
0
 10
76.1464
 20
123.555
 11
76
 21
123.201
  0
LINE
  8
0
 10
76
 20
123.201
 11
76.1464
 21
122.847
  0
LINE
  8
0
 10
76.1464
 20
122.847
 11
76.5
 21
122.701
  0
LINE
  8
0
 10
76.5
 20
122.701
 11
76.8535
 21
122.847
  0
LINE
  8
0
 10
83.0453
 20
113.297
 11
83.1917
 21
113.651
  0
LINE
  8
0
 10
83.1917
 20
113.651
 11
83.0453
 21
114.005
  0
LINE
  8
0
 10
83.0453
 20
114.005
 11
82.6917
 21
114.151
  0
LINE
  8
0
 10
82.6917
 20
114.151
 11
82.3382
 21
114.005
  0
LINE
  8
0
 10
82.3382
 20
114.005
 11
82.1917
 21
113.651
  0
LINE
  8
0
 10
82.1917
 20
113.651
 11
82.3382
 21
113.297
  0
LINE
  8
0
 10
82.3382
 20
113.297
 11
82.6917
 21
113.151
  0
LINE
  8
0
 10
82.6917
 20
113.151
 11
83.0453
 21
113.297
  0
LINE
  8
0
 10
20.345
 20
111.814
 11
20.4915
 21
112.167
  0
LINE
  8
0
 10
20.4915
 20
112.167
 11
20.345
 21
112.521
  0
LINE
  8
0
 10
20.345
 20
112.521
 11
19.9915
 21
112.667
  0
LINE
  8
0
 10
19.9915
 20
112.667
 11
19.6379
 21
112.521
  0
LINE
  8
0
 10
19.6379
 20
112.521
 11
19.4915
 21
112.167
  0
LINE
  8
0
 10
19.4915
 20
112.167
 11
19.6379
 21
111.814
  0
LINE
  8
0
 10
19.6379
 20
111.814
 11
19.9915
 21
111.667
  0
LINE
  8
0
 10
19.9915
 20
111.667
 11
20.345
 21
111.814
  0
LINE
  8
0
 10
76.8535
 20
107.627
 11
77
 21
107.98
  0
LINE
  8
0
 10
77
 20
107.98
 11
76.8535
 21
108.334
  0
LINE
  8
0
 10
76.8535
 20
108.334
 11
76.5
 21
108.48
  0
LINE
  8
0
 10
76.5
 20
108.48
 11
76.1464
 21
108.334
  0
LINE
  8
0
 10
76.1464
 20
108.334
 11
76
 21
107.98
  0
LINE
  8
0
 10
76
 20
107.98
 11
76.1464
 21
107.627
  0
LINE
  8
0
 10
76.1464
 20
107.627
 11
76.5
 21
107.48
  0
LINE
  8
0
 10
76.5
 20
107.48
 11
76.8535
 21
107.627
  0
LINE
  8
0
 10
25.8535
 20
102.264
 11
26
 21
102.617
  0
LINE
  8
0
 10
26
 20
102.617
 11
25.8535
 21
102.971
  0
LINE
  8
0
 10
25.8535
 20
102.971
 11
25.5
 21
103.117
  0
LINE
  8
0
 10
25.5
 20
103.117
 11
25.1464
 21
102.971
  0
LINE
  8
0
 10
25.1464
 20
102.971
 11
25
 21
102.617
  0
LINE
  8
0
 10
25
 20
102.617
 11
25.1464
 21
102.264
  0
LINE
  8
0
 10
25.1464
 20
102.264
 11
25.5
 21
102.117
  0
LINE
  8
0
 10
25.5
 20
102.117
 11
25.8535
 21
102.264
  0
LINE
  8
0
 10
74.1235
 20
98.1768
 11
74.2699
 21
98.5304
  0
LINE
  8
0
 10
74.2699
 20
98.5304
 11
74.1235
 21
98.8839
  0
LINE
  8
0
 10
74.1235
 20
98.8839
 11
73.7699
 21
99.0304
  0
LINE
  8
0
 10
73.7699
 20
99.0304
 11
73.4164
 21
98.8839
  0
LINE
  8
0
 10
73.4164
 20
98.8839
 11
73.2699
 21
98.5304
  0
LINE
  8
0
 10
73.2699
 20
98.5304
 11
73.4164
 21
98.1768
  0
LINE
  8
0
 10
73.4164
 20
98.1768
 11
73.7699
 21
98.0304
  0
LINE
  8
0
 10
73.7699
 20
98.0304
 11
74.1235
 21
98.1768
  0
LINE
  8
0
 10
76.8535
 20
93.2605
 11
77
 21
93.614
  0
LINE
  8
0
 10
77
 20
93.614
 11
76.8535
 21
93.9676
  0
LINE
  8
0
 10
76.8535
 20
93.9676
 11
76.5
 21
94.114
  0
LINE
  8
0
 10
76.5
 20
94.114
 11
76.1464
 21
93.9676
  0
LINE
  8
0
 10
76.1464
 20
93.9676
 11
76
 21
93.614
  0
LINE
  8
0
 10
76
 20
93.614
 11
76.1464
 21
93.2605
  0
LINE
  8
0
 10
76.1464
 20
93.2605
 11
76.5
 21
93.114
  0
LINE
  8
0
 10
76.5
 20
93.114
 11
76.8535
 21
93.2605
  0
LINE
  8
0
 10
83.1198
 20
83.7104
 11
83.2663
 21
84.064
  0
LINE
  8
0
 10
83.2663
 20
84.064
 11
83.1198
 21
84.4176
  0
LINE
  8
0
 10
83.1198
 20
84.4176
 11
82.7663
 21
84.564
  0
LINE
  8
0
 10
82.7663
 20
84.564
 11
82.4127
 21
84.4176
  0
LINE
  8
0
 10
82.4127
 20
84.4176
 11
82.2663
 21
84.064
  0
LINE
  8
0
 10
82.2663
 20
84.064
 11
82.4127
 21
83.7104
  0
LINE
  8
0
 10
82.4127
 20
83.7104
 11
82.7663
 21
83.564
  0
LINE
  8
0
 10
82.7663
 20
83.564
 11
83.1198
 21
83.7104
  0
LINE
  8
0
 10
76.8535
 20
79.7004
 11
77
 21
80.0539
  0
LINE
  8
0
 10
77
 20
80.0539
 11
76.8535
 21
80.4075
  0
LINE
  8
0
 10
76.8535
 20
80.4075
 11
76.5
 21
80.5539
  0
LINE
  8
0
 10
76.5
 20
80.5539
 11
76.1464
 21
80.4075
  0
LINE
  8
0
 10
76.1464
 20
80.4075
 11
76
 21
80.0539
  0
LINE
  8
0
 10
76
 20
80.0539
 11
76.1464
 21
79.7004
  0
LINE
  8
0
 10
76.1464
 20
79.7004
 11
76.5
 21
79.5539
  0
LINE
  8
0
 10
76.5
 20
79.5539
 11
76.8535
 21
79.7004
  0
LINE
  8
0
 10
27.7808
 20
79.4634
 11
27.9273
 21
79.817
  0
LINE
  8
0
 10
27.9273
 20
79.817
 11
27.7808
 21
80.1705
  0
LINE
  8
0
 10
27.7808
 20
80.1705
 11
27.4273
 21
80.317
  0
LINE
  8
0
 10
27.4273
 20
80.317
 11
27.0737
 21
80.1705
  0
LINE
  8
0
 10
27.0737
 20
80.1705
 11
26.9273
 21
79.817
  0
LINE
  8
0
 10
26.9273
 20
79.817
 11
27.0737
 21
79.4634
  0
LINE
  8
0
 10
27.0737
 20
79.4634
 11
27.4273
 21
79.317
  0
LINE
  8
0
 10
27.4273
 20
79.317
 11
27.7808
 21
79.4634
  0
LINE
  8
0
 10
74.0531
 20
70.2504
 11
74.1996
 21
70.6039
  0
LINE
  8
0
 10
74.1996
 20
70.6039
 11
74.0531
 21
70.9575
  0
LINE
  8
0
 10
74.0531
 20
70.9575
 11
73.6996
 21
71.1039
  0
LINE
  8
0
 10
73.6996
 20
71.1039
 11
73.346
 21
70.9575
  0
LINE
  8
0
 10
73.346
 20
70.9575
 11
73.1996
 21
70.6039
  0
LINE
  8
0
 10
73.1996
 20
70.6039
 11
73.346
 21
70.2504
  0
LINE
  8
0
 10
73.346
 20
70.2504
 11
73.6996
 21
70.1039
  0
LINE
  8
0
 10
73.6996
 20
70.1039
 11
74.0531
 21
70.2504
  0
LINE
  8
0
 10
25.8535
 20
70.0134
 11
26
 21
70.367
  0
LINE
  8
0
 10
26
 20
70.367
 11
25.8535
 21
70.7205
  0
LINE
  8
0
 10
25.8535
 20
70.7205
 11
25.5
 21
70.867
  0
LINE
  8
0
 10
25.5
 20
70.867
 11
25.1464
 21
70.7205
  0
LINE
  8
0
 10
25.1464
 20
70.7205
 11
25
 21
70.367
  0
LINE
  8
0
 10
25
 20
70.367
 11
25.1464
 21
70.0134
  0
LINE
  8
0
 10
25.1464
 20
70.0134
 11
25.5
 21
69.867
  0
LINE
  8
0
 10
25.5
 20
69.867
 11
25.8535
 21
70.0134
  0
LINE
  8
0
 10
76.8535
 20
66.9013
 11
77
 21
67.2549
  0
LINE
  8
0
 10
77
 20
67.2549
 11
76.8535
 21
67.6084
  0
LINE
  8
0
 10
76.8535
 20
67.6084
 11
76.5
 21
67.7549
  0
LINE
  8
0
 10
76.5
 20
67.7549
 11
76.1464
 21
67.6084
  0
LINE
  8
0
 10
76.1464
 20
67.6084
 11
76
 21
67.2549
  0
LINE
  8
0
 10
76
 20
67.2549
 11
76.1464
 21
66.9013
  0
LINE
  8
0
 10
76.1464
 20
66.9013
 11
76.5
 21
66.7549
  0
LINE
  8
0
 10
76.5
 20
66.7549
 11
76.8535
 21
66.9013
  0
LINE
  8
0
 10
83.1862
 20
57.3513
 11
83.3327
 21
57.7049
  0
LINE
  8
0
 10
83.3327
 20
57.7049
 11
83.1862
 21
58.0584
  0
LINE
  8
0
 10
83.1862
 20
58.0584
 11
82.8327
 21
58.2049
  0
LINE
  8
0
 10
82.8327
 20
58.2049
 11
82.4791
 21
58.0584
  0
LINE
  8
0
 10
82.4791
 20
58.0584
 11
82.3327
 21
57.7049
  0
LINE
  8
0
 10
82.3327
 20
57.7049
 11
82.4791
 21
57.3513
  0
LINE
  8
0
 10
82.4791
 20
57.3513
 11
82.8327
 21
57.2049
  0
LINE
  8
0
 10
82.8327
 20
57.2049
 11
83.1862
 21
57.3513
  0
LINE
  8
0
 10
76.8535
 20
54.8206
 11
77
 21
55.1741
  0
LINE
  8
0
 10
77
 20
55.1741
 11
76.8535
 21
55.5277
  0
LINE
  8
0
 10
76.8535
 20
55.5277
 11
76.5
 21
55.6741
  0
LINE
  8
0
 10
76.5
 20
55.6741
 11
76.1464
 21
55.5277
  0
LINE
  8
0
 10
76.1464
 20
55.5277
 11
76
 21
55.1741
  0
LINE
  8
0
 10
76
 20
55.1741
 11
76.1464
 21
54.8206
  0
LINE
  8
0
 10
76.1464
 20
54.8206
 11
76.5
 21
54.6741
  0
LINE
  8
0
 10
76.5
 20
54.6741
 11
76.8535
 21
54.8206
  0
LINE
  8
0
 10
20.5123
 20
45.3957
 11
20.6588
 21
45.7493
  0
LINE
  8
0
 10
20.6588
 20
45.7493
 11
20.5123
 21
46.1028
  0
LINE
  8
0
 10
20.5123
 20
46.1028
 11
20.1588
 21
46.2493
  0
LINE
  8
0
 10
20.1588
 20
46.2493
 11
19.8052
 21
46.1028
  0
LINE
  8
0
 10
19.8052
 20
46.1028
 11
19.6588
 21
45.7493
  0
LINE
  8
0
 10
19.6588
 20
45.7493
 11
19.8052
 21
45.3957
  0
LINE
  8
0
 10
19.8052
 20
45.3957
 11
20.1588
 21
45.2493
  0
LINE
  8
0
 10
20.1588
 20
45.2493
 11
20.5123
 21
45.3957
  0
LINE
  8
0
 10
73.9904
 20
45.3706
 11
74.1369
 21
45.7241
  0
LINE
  8
0
 10
74.1369
 20
45.7241
 11
73.9904
 21
46.0777
  0
LINE
  8
0
 10
73.9904
 20
46.0777
 11
73.6369
 21
46.2241
  0
LINE
  8
0
 10
73.6369
 20
46.2241
 11
73.2833
 21
46.0777
  0
LINE
  8
0
 10
73.2833
 20
46.0777
 11
73.1369
 21
45.7241
  0
LINE
  8
0
 10
73.1369
 20
45.7241
 11
73.2833
 21
45.3706
  0
LINE
  8
0
 10
73.2833
 20
45.3706
 11
73.6369
 21
45.2241
  0
LINE
  8
0
 10
73.6369
 20
45.2241
 11
73.9904
 21
45.3706
  0
LINE
  8
0
 10
76.8535
 20
43.4178
 11
77
 21
43.7714
  0
LINE
  8
0
 10
77
 20
43.7714
 11
76.8535
 21
44.125
  0
LINE
  8
0
 10
76.8535
 20
44.125
 11
76.5
 21
44.2714
  0
LINE
  8
0
 10
76.5
 20
44.2714
 11
76.1464
 21
44.125
  0
LINE
  8
0
 10
76.1464
 20
44.125
 11
76
 21
43.7714
  0
LINE
  8
0
 10
76
 20
43.7714
 11
76.1464
 21
43.4178
  0
LINE
  8
0
 10
76.1464
 20
43.4178
 11
76.5
 21
43.2714
  0
LINE
  8
0
 10
76.5
 20
43.2714
 11
76.8535
 21
43.4178
  0
LINE
  8
0
 10
25.8535
 20
35.8457
 11
26
 21
36.1993
  0
LINE
  8
0
 10
26
 20
36.1993
 11
25.8535
 21
36.5528
  0
LINE
  8
0
 10
25.8535
 20
36.5528
 11
25.5
 21
36.6993
  0
LINE
  8
0
 10
25.5
 20
36.6993
 11
25.1464
 21
36.5528
  0
LINE
  8
0
 10
25.1464
 20
36.5528
 11
25
 21
36.1993
  0
LINE
  8
0
 10
25
 20
36.1993
 11
25.1464
 21
35.8457
  0
LINE
  8
0
 10
25.1464
 20
35.8457
 11
25.5
 21
35.6993
  0
LINE
  8
0
 10
25.5
 20
35.6993
 11
25.8535
 21
35.8457
  0
LINE
  8
0
 10
83.2454
 20
33.8678
 11
83.3918
 21
34.2214
  0
LINE
  8
0
 10
83.3918
 20
34.2214
 11
83.2454
 21
34.575
  0
LINE
  8
0
 10
83.2454
 20
34.575
 11
82.8918
 21
34.7214
  0
LINE
  8
0
 10
82.8918
 20
34.7214
 11
82.5383
 21
34.575
  0
LINE
  8
0
 10
82.5383
 20
34.575
 11
82.3918
 21
34.2214
  0
LINE
  8
0
 10
82.3918
 20
34.2214
 11
82.5383
 21
33.8678
  0
LINE
  8
0
 10
82.5383
 20
33.8678
 11
82.8918
 21
33.7214
  0
LINE
  8
0
 10
82.8918
 20
33.7214
 11
83.2454
 21
33.8678
  0
LINE
  8
0
 10
76.8535
 20
32.6551
 11
77
 21
33.0086
  0
LINE
  8
0
 10
77
 20
33.0086
 11
76.8535
 21
33.3622
  0
LINE
  8
0
 10
76.8535
 20
33.3622
 11
76.5
 21
33.5086
  0
LINE
  8
0
 10
76.5
 20
33.5086
 11
76.1464
 21
33.3622
  0
LINE
  8
0
 10
76.1464
 20
33.3622
 11
76
 21
33.0086
  0
LINE
  8
0
 10
76
 20
33.0086
 11
76.1464
 21
32.6551
  0
LINE
  8
0
 10
76.1464
 20
32.6551
 11
76.5
 21
32.5086
  0
LINE
  8
0
 10
76.5
 20
32.5086
 11
76.8535
 21
32.6551
  0
LINE
  8
0
 10
73.9346
 20
23.2051
 11
74.081
 21
23.5586
  0
LINE
  8
0
 10
74.081
 20
23.5586
 11
73.9346
 21
23.9122
  0
LINE
  8
0
 10
73.9346
 20
23.9122
 11
73.581
 21
24.0586
  0
LINE
  8
0
 10
73.581
 20
24.0586
 11
73.2275
 21
23.9122
  0
LINE
  8
0
 10
73.2275
 20
23.9122
 11
73.081
 21
23.5586
  0
LINE
  8
0
 10
73.081
 20
23.5586
 11
73.2275
 21
23.2051
  0
LINE
  8
0
 10
73.2275
 20
23.2051
 11
73.581
 21
23.0586
  0
LINE
  8
0
 10
73.581
 20
23.0586
 11
73.9346
 21
23.2051
  0
LINE
  8
0
 10
83.2981
 20
12.9463
 11
83.4446
 21
13.2999
  0
LINE
  8
0
 10
83.4446
 20
13.2999
 11
83.2981
 21
13.6534
  0
LINE
  8
0
 10
83.2981
 20
13.6534
 11
82.9446
 21
13.7999
  0
LINE
  8
0
 10
82.9446
 20
13.7999
 11
82.591
 21
13.6534
  0
LINE
  8
0
 10
82.591
 20
13.6534
 11
82.4446
 21
13.2999
  0
LINE
  8
0
 10
82.4446
 20
13.2999
 11
82.591
 21
12.9463
  0
LINE
  8
0
 10
82.591
 20
12.9463
 11
82.9446
 21
12.7999
  0
LINE
  8
0
 10
82.9446
 20
12.7999
 11
83.2981
 21
12.9463
  0
LINE
  8
0
 10
27.6035
 20
9.09644
 11
27.75
 21
9.45
  0
LINE
  8
0
 10
27.75
 20
9.45
 11
27.6035
 21
9.80354
  0
LINE
  8
0
 10
27.6035
 20
9.80354
 11
27.25
 21
9.95
  0
LINE
  8
0
 10
27.25
 20
9.95
 11
26.8964
 21
9.80354
  0
LINE
  8
0
 10
26.8964
 20
9.80354
 11
26.75
 21
9.45
  0
LINE
  8
0
 10
26.75
 20
9.45
 11
26.8964
 21
9.09644
  0
LINE
  8
0
 10
26.8964
 20
9.09644
 11
27.25
 21
8.95
  0
LINE
  8
0
 10
27.25
 20
8.95
 11
27.6035
 21
9.09644
  0
LINE
  8
0
 10
73.8848
 20
3.45775
 11
74.0313
 21
3.81129
  0
LINE
  8
0
 10
74.0313
 20
3.81129
 11
73.8848
 21
4.16486
  0
LINE
  8
0
 10
73.8848
 20
4.16486
 11
73.5313
 21
4.31129
  0
LINE
  8
0
 10
73.5313
 20
4.31129
 11
73.1777
 21
4.16486
  0
LINE
  8
0
 10
73.1777
 20
4.16486
 11
73.0313
 21
3.81129
  0
LINE
  8
0
 10
73.0313
 20
3.81129
 11
73.1777
 21
3.45775
  0
LINE
  8
0
 10
73.1777
 20
3.45775
 11
73.5313
 21
3.31129
  0
LINE
  8
0
 10
73.5313
 20
3.31129
 11
73.8848
 21
3.45775
  0
LINE
  8
0
 10
76.8535
 20
1.53275
 11
77
 21
1.88629
  0
LINE
  8
0
 10
77
 20
1.88629
 11
76.8535
 21
2.23985
  0
LINE
  8
0
 10
76.8535
 20
2.23985
 11
76.5
 21
2.38629
  0
LINE
  8
0
 10
76.5
 20
2.38629
 11
76.1464
 21
2.23985
  0
LINE
  8
0
 10
76.1464
 20
2.23985
 11
76
 21
1.88629
  0
LINE
  8
0
 10
76
 20
1.88629
 11
76.1464
 21
1.53275
  0
LINE
  8
0
 10
76.1464
 20
1.53275
 11
76.5
 21
1.38629
  0
LINE
  8
0
 10
76.5
 20
1.38629
 11
76.8535
 21
1.53275
  0
LINE
  8
0
 10
20.6035
 20
0.146439
 11
20.75
 21
0.5
  0
LINE
  8
0
 10
20.75
 20
0.5
 11
20.6035
 21
0.853546
  0
LINE
  8
0
 10
20.6035
 20
0.853546
 11
20.25
 21
1
  0
LINE
  8
0
 10
20.25
 20
1
 11
19.8964
 21
0.853546
  0
LINE
  8
0
 10
19.8964
 20
0.853546
 11
19.75
 21
0.5
  0
LINE
  8
0
 10
19.75
 20
0.5
 11
19.8964
 21
0.146439
  0
LINE
  8
0
 10
19.8964
 20
0.146439
 11
20.25
 21
0
  0
LINE
  8
0
 10
20.25
 20
0
 11
20.6035
 21
0.146439
  0
ENDSEC
  0
SECTION
  2
OBJECTS
  0
DICTIONARY
  0
ENDSEC
  0
EOF
