<?xml version="1.0" standalone="no"?>
<!DOCTYPE svg PUBLIC "-//W3C//DTD SVG 1.1//EN" "http://www.w3.org/Graphics/SVG/1.1/DTD/svg11.dtd">
<svg width="64mm" height="272mm" viewBox="19 8 64 272" xmlns="http://www.w3.org/2000/svg" version="1.1">
<title>OpenSCAD Model</title>
<path d="
M 19.5963,8.97937 L 19.5928,8.97461 L 19.5872,8.97643 L 19.5872,8.98232 L 19.5928,8.98413 z
M 25.505,18.5294 L 25.5015,18.5246 L 25.496,18.5264 L 25.496,18.5323 L 25.5015,18.5341 z
M 27.8563,31.884 L 27.8528,31.8793 L 27.8472,31.8811 L 27.8472,31.887 L 27.8528,31.8888 z
M 25.505,41.334 L 25.5015,41.3293 L 25.496,41.3311 L 25.496,41.337 L 25.5015,41.3388 z
M 19.7146,55.9447 L 19.7111,55.9399 L 19.7055,55.9417 L 19.7055,55.9476 L 19.7111,55.9494 z
M 25.505,65.4946 L 25.5015,65.4899 L 25.496,65.4917 L 25.496,65.4976 L 25.5015,65.4994 z
M 76.504,65.9984 L 76.504,65.9925 L 76.4985,65.9907 L 76.495,65.9954 L 76.4985,66.0002 z
M 74.0411,75.4483 L 74.0411,75.4425 L 74.0355,75.4407 L 74.032,75.4454 L 74.0355,75.4502 z
M 27.7309,81.6419 L 27.7275,81.6371 L 27.7219,81.6389 L 27.7219,81.6448 L 27.7275,81.6466 z
M 76.504,86.3151 L 76.504,86.3092 L 76.4985,86.3074 L 76.495,86.3122 L 76.4985,86.3169 z
M 25.505,91.0919 L 25.5015,91.0871 L 25.496,91.0889 L 25.496,91.0948 L 25.5015,91.0966 z
M 82.5182,95.8651 L 82.5182,95.8592 L 82.5126,95.8574 L 82.5092,95.8622 L 82.5126,95.8669 z
M 76.504,105.492 L 76.504,105.486 L 76.4985,105.484 L 76.495,105.489 L 76.4985,105.493 z
M 19.8474,108.661 L 19.8439,108.656 L 19.8383,108.658 L 19.8383,108.664 L 19.8439,108.666 z
M 73.9416,114.942 L 73.9416,114.936 L 73.936,114.934 L 73.9325,114.939 L 73.936,114.943 z
M 25.505,118.211 L 25.5015,118.206 L 25.496,118.208 L 25.496,118.214 L 25.5015,118.216 z
M 76.504,123.592 L 76.504,123.586 L 76.4985,123.584 L 76.495,123.589 L 76.4985,123.594 z
M 82.6121,133.142 L 82.6121,133.136 L 82.6065,133.134 L 82.6031,133.139 L 82.6065,133.144 z
M 27.5902,137.493 L 27.5868,137.488 L 27.5812,137.49 L 27.5812,137.496 L 27.5868,137.498 z
M 76.504,140.676 L 76.504,140.67 L 76.4985,140.669 L 76.495,140.673 L 76.4985,140.678 z
M 25.505,146.943 L 25.5015,146.938 L 25.496,146.94 L 25.496,146.946 L 25.5015,146.948 z
M 73.8529,150.126 L 73.8529,150.12 L 73.8473,150.119 L 73.8439,150.123 L 73.8473,150.128 z
M 76.504,156.802 L 76.504,156.796 L 76.4985,156.794 L 76.495,156.799 L 76.4985,156.804 z
M 82.6958,166.352 L 82.6958,166.346 L 82.6902,166.344 L 82.6867,166.349 L 82.6902,166.354 z
M 19.9965,167.833 L 19.993,167.828 L 19.9874,167.83 L 19.9874,167.836 L 19.993,167.838 z
M 76.504,172.023 L 76.504,172.017 L 76.4985,172.015 L 76.495,172.02 L 76.4985,172.024 z
M 25.505,177.383 L 25.5015,177.378 L 25.496,177.38 L 25.496,177.386 L 25.5015,177.388 z
M 73.774,181.473 L 73.774,181.467 L 73.7684,181.465 L 73.7649,181.47 L 73.7684,181.474 z
M 76.504,186.389 L 76.504,186.383 L 76.4985,186.381 L 76.495,186.386 L 76.4985,186.391 z
M 82.7703,195.939 L 82.7703,195.933 L 82.7647,195.931 L 82.7613,195.936 L 82.7647,195.941 z
M 76.504,199.949 L 76.504,199.943 L 76.4985,199.941 L 76.495,199.946 L 76.4985,199.951 z
M 27.4323,200.183 L 27.4288,200.178 L 27.4232,200.18 L 27.4232,200.186 L 27.4288,200.188 z
M 73.7036,209.399 L 73.7036,209.393 L 73.698,209.391 L 73.6945,209.396 L 73.698,209.401 z
M 25.505,209.633 L 25.5015,209.628 L 25.496,209.63 L 25.496,209.636 L 25.5015,209.638 z
M 76.504,212.748 L 76.504,212.742 L 76.4985,212.74 L 76.495,212.745 L 76.4985,212.75 z
M 82.8367,222.298 L 82.8367,222.292 L 82.8311,222.29 L 82.8277,222.295 L 82.8311,222.3 z
M 76.504,224.829 L 76.504,224.823 L 76.4985,224.821 L 76.495,224.826 L 76.4985,224.831 z
M 20.1638,234.251 L 20.1603,234.246 L 20.1548,234.248 L 20.1548,234.254 L 20.1603,234.255 z
M 73.6409,234.279 L 73.6409,234.273 L 73.6353,234.271 L 73.6319,234.276 L 73.6353,234.281 z
M 76.504,236.232 L 76.504,236.226 L 76.4985,236.224 L 76.495,236.229 L 76.4985,236.233 z
M 25.505,243.801 L 25.5015,243.796 L 25.496,243.798 L 25.496,243.804 L 25.5015,243.805 z
M 82.8959,245.782 L 82.8959,245.776 L 82.8903,245.774 L 82.8869,245.779 L 82.8903,245.783 z
M 76.504,246.994 L 76.504,246.988 L 76.4985,246.987 L 76.495,246.991 L 76.4985,246.996 z
M 73.5851,256.444 L 73.5851,256.438 L 73.5795,256.437 L 73.576,256.441 L 73.5795,256.446 z
M 82.9486,266.703 L 82.9486,266.697 L 82.943,266.695 L 82.9396,266.7 L 82.943,266.705 z
M 27.255,270.55 L 27.2515,270.545 L 27.2459,270.547 L 27.2459,270.553 L 27.2515,270.555 z
M 73.5353,276.192 L 73.5353,276.186 L 73.5297,276.184 L 73.5263,276.189 L 73.5297,276.193 z
M 76.504,278.117 L 76.504,278.111 L 76.4985,278.109 L 76.495,278.114 L 76.4985,278.118 z
M 20.255,279.995 L 20.2515,279.99 L 20.246,279.992 L 20.246,279.998 L 20.2515,280 z
" stroke="black" fill="lightgray" stroke-width="0.5"/>
</svg>
