<?xml version="1.0" standalone="no"?>
<!DOCTYPE svg PUBLIC "-//W3C//DTD SVG 1.1//EN" "http://www.w3.org/Graphics/SVG/1.1/DTD/svg11.dtd">
<svg width="56mm" height="528mm" viewBox="-28 -495 56 528" xmlns="http://www.w3.org/2000/svg" version="1.1">
<title>OpenSCAD Model</title>
<path d="
M -24.4728,-485.076 L -26.8478,-485.076 L -26.8478,-494.739 L -27.5978,-494.739 L -27.5978,-484.326 L -25.9728,-484.326
 L -25.9728,-483.326 L -24.4728,-483.326 z
M 22.4728,-485.076 L 20.9728,-485.076 L 20.9728,-483.326 L 22.4728,-483.326 z
M 25.9728,-485.076 L 24.4728,-485.076 L 24.4728,-483.326 L 25.9728,-483.326 z
M -15.0837,-485.076 L -16.5837,-485.076 L -16.5837,-483.326 L -15.0837,-483.326 z
M 13.0837,-485.076 L 11.5837,-485.076 L 11.5837,-483.326 L 13.0837,-483.326 z
M 3.69455,-485.076 L 2.19455,-485.076 L 2.19455,-483.326 L 3.69455,-483.326 z
M 25.8448,-474.088 L 27.4698,-474.088 L 27.4698,-485.076 L 26.7198,-485.076 L 26.7198,-474.838 L 24.3448,-474.838
 L 24.3448,-473.088 L 25.8448,-473.088 z
M -5.69455,-485.076 L -7.19455,-485.076 L -7.19455,-483.326 L -5.69455,-483.326 z
M -5.69455,-480.326 L -7.19455,-480.326 L -7.19455,-479.326 L -9.01411,-479.326 L -9.01411,-485.076 L -13.0837,-485.076
 L -13.0837,-483.326 L -11.5837,-483.326 L -11.5837,-484.326 L -9.76411,-484.326 L -9.76411,-478.576 L -5.69455,-478.576
 z
M 3.69455,-480.326 L 2.19455,-480.326 L 2.19455,-479.326 L 0.375,-479.326 L 0.375,-485.076 L -3.69455,-485.076
 L -3.69455,-483.326 L -2.19455,-483.326 L -2.19455,-484.326 L -0.375,-484.326 L -0.375,-478.576 L 3.69455,-478.576
 z
M 22.4728,-480.326 L 20.9728,-480.326 L 20.9728,-479.326 L 19.1532,-479.326 L 19.1532,-485.076 L 15.0837,-485.076
 L 15.0837,-483.326 L 16.5837,-483.326 L 16.5837,-484.326 L 18.4032,-484.326 L 18.4032,-478.576 L 22.4728,-478.576
 z
M -15.0837,-480.326 L -16.5837,-480.326 L -16.5837,-479.326 L -18.4032,-479.326 L -18.4032,-485.076 L -22.4728,-485.076
 L -22.4728,-483.326 L -20.9728,-483.326 L -20.9728,-484.326 L -19.1532,-484.326 L -19.1532,-478.576 L -15.0837,-478.576
 z
M 13.0837,-480.326 L 11.5837,-480.326 L 11.5837,-479.326 L 9.76411,-479.326 L 9.76411,-485.076 L 5.69455,-485.076
 L 5.69455,-483.326 L 7.19455,-483.326 L 7.19455,-484.326 L 9.01411,-484.326 L 9.01411,-478.576 L 13.0837,-478.576
 z
M 25.9728,-480.326 L 24.4728,-480.326 L 24.4728,-478.576 L 25.9728,-478.576 z
M -2.19455,-480.326 L -3.69455,-480.326 L -3.69455,-478.576 L -2.19455,-478.576 z
M 16.5837,-480.326 L 15.0837,-480.326 L 15.0837,-478.576 L 16.5837,-478.576 z
M 7.19455,-480.326 L 5.69455,-480.326 L 5.69455,-478.576 L 7.19455,-478.576 z
M -24.4728,-480.326 L -25.9728,-480.326 L -25.9728,-478.576 L -24.4728,-478.576 z
M -20.9728,-480.326 L -22.4728,-480.326 L -22.4728,-478.576 L -20.9728,-478.576 z
M -11.5837,-480.326 L -13.0837,-480.326 L -13.0837,-478.576 L -11.5837,-478.576 z
M 22.3448,-470.088 L 20.8448,-470.088 L 20.8448,-469.088 L 19.0509,-469.088 L 19.0509,-474.838 L 15.0069,-474.838
 L 15.0069,-473.088 L 16.5069,-473.088 L 16.5069,-474.088 L 18.3009,-474.088 L 18.3009,-468.338 L 22.3448,-468.338
 z
M 3.66896,-470.088 L 2.16896,-470.088 L 2.16896,-469.088 L 0.375,-469.088 L 0.375,-474.838 L -3.66896,-474.838
 L -3.66896,-473.088 L -2.16896,-473.088 L -2.16896,-474.088 L -0.375,-474.088 L -0.375,-468.338 L 3.66896,-468.338
 z
M -15.0069,-470.088 L -16.5069,-470.088 L -16.5069,-469.088 L -18.3009,-469.088 L -18.3009,-474.838 L -22.3448,-474.838
 L -22.3448,-473.088 L -20.8448,-473.088 L -20.8448,-474.088 L -19.0509,-474.088 L -19.0509,-468.338 L -15.0069,-468.338
 z
M 13.0069,-470.088 L 11.5069,-470.088 L 11.5069,-469.088 L 9.71294,-469.088 L 9.71294,-474.838 L 5.66896,-474.838
 L 5.66896,-473.088 L 7.16896,-473.088 L 7.16896,-474.088 L 8.96294,-474.088 L 8.96294,-468.338 L 13.0069,-468.338
 z
M -5.66896,-470.088 L -7.16896,-470.088 L -7.16896,-469.088 L -8.96294,-469.088 L -8.96294,-474.838 L -13.0069,-474.838
 L -13.0069,-473.088 L -11.5069,-473.088 L -11.5069,-474.088 L -9.71294,-474.088 L -9.71294,-468.338 L -5.66896,-468.338
 z
M -24.2093,-463.992 L -26.5843,-463.992 L -26.5843,-474.838 L -27.3343,-474.838 L -27.3343,-463.242 L -25.7093,-463.242
 L -25.7093,-462.242 L -24.2093,-462.242 z
M -5.66896,-474.838 L -7.16896,-474.838 L -7.16896,-473.088 L -5.66896,-473.088 z
M -24.3448,-474.838 L -26.5228,-474.838 L -26.5228,-474.088 L -25.8448,-474.088 L -25.8448,-473.088 L -24.3448,-473.088
 z
M 3.66896,-474.838 L 2.16896,-474.838 L 2.16896,-473.088 L 3.66896,-473.088 z
M 13.0069,-474.838 L 11.5069,-474.838 L 11.5069,-473.088 L 13.0069,-473.088 z
M -15.0069,-474.838 L -16.5069,-474.838 L -16.5069,-473.088 L -15.0069,-473.088 z
M 22.3448,-474.838 L 20.8448,-474.838 L 20.8448,-473.088 L 22.3448,-473.088 z
M -2.16896,-470.088 L -3.66896,-470.088 L -3.66896,-468.338 L -2.16896,-468.338 z
M 7.16896,-470.088 L 5.66896,-470.088 L 5.66896,-468.338 L 7.16896,-468.338 z
M -11.5069,-470.088 L -13.0069,-470.088 L -13.0069,-468.338 L -11.5069,-468.338 z
M -24.3448,-470.088 L -25.8448,-470.088 L -25.8448,-468.338 L -24.3448,-468.338 z
M -20.8448,-470.088 L -22.3448,-470.088 L -22.3448,-468.338 L -20.8448,-468.338 z
M 16.5069,-470.088 L 15.0069,-470.088 L 15.0069,-468.338 L 16.5069,-468.338 z
M 25.8448,-470.088 L 24.3448,-470.088 L 24.3448,-468.338 L 25.8448,-468.338 z
M 22.2093,-459.242 L 20.7093,-459.242 L 20.7093,-458.242 L 18.9424,-458.242 L 18.9424,-463.992 L 14.9256,-463.992
 L 14.9256,-462.242 L 16.4256,-462.242 L 16.4256,-463.242 L 18.1924,-463.242 L 18.1924,-457.492 L 22.2093,-457.492
 z
M 12.9256,-459.242 L 11.4256,-459.242 L 11.4256,-458.242 L 9.65871,-458.242 L 9.65871,-463.992 L 5.64185,-463.992
 L 5.64185,-462.242 L 7.14185,-462.242 L 7.14185,-463.242 L 8.90871,-463.242 L 8.90871,-457.492 L 12.9256,-457.492
 z
M -14.9256,-459.242 L -16.4256,-459.242 L -16.4256,-458.242 L -18.1924,-458.242 L -18.1924,-463.992 L -22.2093,-463.992
 L -22.2093,-462.242 L -20.7093,-462.242 L -20.7093,-463.242 L -18.9424,-463.242 L -18.9424,-457.492 L -14.9256,-457.492
 z
M 3.64185,-459.242 L 2.14185,-459.242 L 2.14185,-458.242 L 0.375,-458.242 L 0.375,-463.992 L -3.64185,-463.992
 L -3.64185,-462.242 L -2.14185,-462.242 L -2.14185,-463.242 L -0.375,-463.242 L -0.375,-457.492 L 3.64185,-457.492
 z
M -5.64185,-459.242 L -7.14185,-459.242 L -7.14185,-458.242 L -8.90871,-458.242 L -8.90871,-463.992 L -12.9256,-463.992
 L -12.9256,-462.242 L -11.4256,-462.242 L -11.4256,-463.242 L -9.65871,-463.242 L -9.65871,-457.492 L -5.64185,-457.492
 z
M 25.5656,-451.751 L 27.1906,-451.751 L 27.1906,-463.992 L 26.4406,-463.992 L 26.4406,-452.501 L 24.0656,-452.501
 L 24.0656,-450.751 L 25.5656,-450.751 z
M 3.64185,-463.992 L 2.14185,-463.992 L 2.14185,-462.242 L 3.64185,-462.242 z
M -5.64185,-463.992 L -7.14185,-463.992 L -7.14185,-462.242 L -5.64185,-462.242 z
M -14.9256,-463.992 L -16.4256,-463.992 L -16.4256,-462.242 L -14.9256,-462.242 z
M 25.7093,-463.242 L 26.3949,-463.242 L 26.3949,-463.992 L 24.2093,-463.992 L 24.2093,-462.242 L 25.7093,-462.242
 z
M 12.9256,-463.992 L 11.4256,-463.992 L 11.4256,-462.242 L 12.9256,-462.242 z
M 22.2093,-463.992 L 20.7093,-463.992 L 20.7093,-462.242 L 22.2093,-462.242 z
M -11.4256,-459.242 L -12.9256,-459.242 L -12.9256,-457.492 L -11.4256,-457.492 z
M 7.14185,-459.242 L 5.64185,-459.242 L 5.64185,-457.492 L 7.14185,-457.492 z
M -24.2093,-459.242 L -25.7093,-459.242 L -25.7093,-457.492 L -24.2093,-457.492 z
M -2.14185,-459.242 L -3.64185,-459.242 L -3.64185,-457.492 L -2.14185,-457.492 z
M 25.7093,-459.242 L 24.2093,-459.242 L 24.2093,-457.492 L 25.7093,-457.492 z
M 16.4256,-459.242 L 14.9256,-459.242 L 14.9256,-457.492 L 16.4256,-457.492 z
M -20.7093,-459.242 L -22.2093,-459.242 L -22.2093,-457.492 L -20.7093,-457.492 z
M -24.0656,-452.501 L -25.1593,-452.501 L -25.1593,-452.501 L -26.2593,-452.501 L -26.2593,-451.751 L -25.5656,-451.751
 L -25.5656,-450.751 L -24.0656,-450.751 z
M -23.9135,-440.326 L -26.2885,-440.326 L -26.2885,-452.501 L -27.0385,-452.501 L -27.0385,-439.576 L -25.4135,-439.576
 L -25.4135,-438.576 L -23.9135,-438.576 z
M 3.61311,-447.751 L 2.11311,-447.751 L 2.11311,-446.751 L 0.375,-446.751 L 0.375,-452.501 L -3.61311,-452.501
 L -3.61311,-450.751 L -2.11311,-450.751 L -2.11311,-451.751 L -0.375,-451.751 L -0.375,-446.001 L 3.61311,-446.001
 z
M 12.8394,-447.751 L 11.3394,-447.751 L 11.3394,-446.751 L 9.60124,-446.751 L 9.60124,-452.501 L 5.61311,-452.501
 L 5.61311,-450.751 L 7.11311,-450.751 L 7.11311,-451.751 L 8.85124,-451.751 L 8.85124,-446.001 L 12.8394,-446.001
 z
M 22.0656,-447.751 L 20.5656,-447.751 L 20.5656,-446.751 L 18.8275,-446.751 L 18.8275,-452.501 L 14.8394,-452.501
 L 14.8394,-450.751 L 16.3394,-450.751 L 16.3394,-451.751 L 18.0775,-451.751 L 18.0775,-446.001 L 22.0656,-446.001
 z
M -14.8394,-447.751 L -16.3394,-447.751 L -16.3394,-446.751 L -18.0775,-446.751 L -18.0775,-452.501 L -22.0656,-452.501
 L -22.0656,-450.751 L -20.5656,-450.751 L -20.5656,-451.751 L -18.8275,-451.751 L -18.8275,-446.001 L -14.8394,-446.001
 z
M -5.61311,-447.751 L -7.11311,-447.751 L -7.11311,-446.751 L -8.85124,-446.751 L -8.85124,-452.501 L -12.8394,-452.501
 L -12.8394,-450.751 L -11.3394,-450.751 L -11.3394,-451.751 L -9.60124,-451.751 L -9.60124,-446.001 L -5.61311,-446.001
 z
M 3.61311,-452.501 L 2.11311,-452.501 L 2.11311,-450.751 L 3.61311,-450.751 z
M 12.8394,-452.501 L 11.3394,-452.501 L 11.3394,-450.751 L 12.8394,-450.751 z
M 22.0656,-452.501 L 20.5656,-452.501 L 20.5656,-450.751 L 22.0656,-450.751 z
M -5.61311,-452.501 L -7.11311,-452.501 L -7.11311,-450.751 L -5.61311,-450.751 z
M -14.8394,-452.501 L -16.3394,-452.501 L -16.3394,-450.751 L -14.8394,-450.751 z
M -2.11311,-447.751 L -3.61311,-447.751 L -3.61311,-446.001 L -2.11311,-446.001 z
M -11.3394,-447.751 L -12.8394,-447.751 L -12.8394,-446.001 L -11.3394,-446.001 z
M 7.11311,-447.751 L 5.61311,-447.751 L 5.61311,-446.001 L 7.11311,-446.001 z
M -24.0656,-447.751 L -25.5656,-447.751 L -25.5656,-446.001 L -24.0656,-446.001 z
M 25.5656,-447.751 L 24.0656,-447.751 L 24.0656,-446.001 L 25.5656,-446.001 z
M 16.3394,-447.751 L 14.8394,-447.751 L 14.8394,-446.001 L 16.3394,-446.001 z
M -20.5656,-447.751 L -22.0656,-447.751 L -22.0656,-446.001 L -20.5656,-446.001 z
M -14.7481,-440.326 L -16.2481,-440.326 L -16.2481,-438.576 L -14.7481,-438.576 z
M 3.58269,-435.576 L 2.08269,-435.576 L 2.08269,-434.576 L 0.375,-434.576 L 0.375,-440.326 L -3.58269,-440.326
 L -3.58269,-438.576 L -2.08269,-438.576 L -2.08269,-439.576 L -0.375,-439.576 L -0.375,-433.826 L 3.58269,-433.826
 z
M 12.7481,-435.576 L 11.2481,-435.576 L 11.2481,-434.576 L 9.54037,-434.576 L 9.54037,-440.326 L 5.58269,-440.326
 L 5.58269,-438.576 L 7.08269,-438.576 L 7.08269,-439.576 L 8.79037,-439.576 L 8.79037,-433.826 L 12.7481,-433.826
 z
M 21.9135,-435.576 L 20.4135,-435.576 L 20.4135,-434.576 L 18.7058,-434.576 L 18.7058,-440.326 L 14.7481,-440.326
 L 14.7481,-438.576 L 16.2481,-438.576 L 16.2481,-439.576 L 17.9558,-439.576 L 17.9558,-433.826 L 21.9135,-433.826
 z
M -14.7481,-435.576 L -16.2481,-435.576 L -16.2481,-434.576 L -17.9558,-434.576 L -17.9558,-440.326 L -21.9135,-440.326
 L -21.9135,-438.576 L -20.4135,-438.576 L -20.4135,-439.576 L -18.7058,-439.576 L -18.7058,-433.826 L -14.7481,-433.826
 z
M -5.58269,-435.576 L -7.08269,-435.576 L -7.08269,-434.576 L -8.79037,-434.576 L -8.79037,-440.326 L -12.7481,-440.326
 L -12.7481,-438.576 L -11.2481,-438.576 L -11.2481,-439.576 L -9.54037,-439.576 L -9.54037,-433.826 L -5.58269,-433.826
 z
M 21.9135,-440.326 L 20.4135,-440.326 L 20.4135,-438.576 L 21.9135,-438.576 z
M 12.7481,-440.326 L 11.2481,-440.326 L 11.2481,-438.576 L 12.7481,-438.576 z
M 3.58269,-440.326 L 2.08269,-440.326 L 2.08269,-438.576 L 3.58269,-438.576 z
M 25.4135,-439.576 L 26.1156,-439.576 L 26.1156,-440.326 L 23.9135,-440.326 L 23.9135,-438.576 L 25.4135,-438.576
 z
M -5.58269,-440.326 L -7.08269,-440.326 L -7.08269,-438.576 L -5.58269,-438.576 z
M 25.2522,-426.678 L 26.8772,-426.678 L 26.8772,-440.326 L 26.1272,-440.326 L 26.1272,-427.428 L 23.7522,-427.428
 L 23.7522,-425.678 L 25.2522,-425.678 z
M -11.2481,-435.576 L -12.7481,-435.576 L -12.7481,-433.826 L -11.2481,-433.826 z
M -2.08269,-435.576 L -3.58269,-435.576 L -3.58269,-433.826 L -2.08269,-433.826 z
M 16.2481,-435.576 L 14.7481,-435.576 L 14.7481,-433.826 L 16.2481,-433.826 z
M 25.4135,-435.576 L 23.9135,-435.576 L 23.9135,-433.826 L 25.4135,-433.826 z
M 7.08269,-435.576 L 5.58269,-435.576 L 5.58269,-433.826 L 7.08269,-433.826 z
M -23.9135,-435.576 L -25.4135,-435.576 L -25.4135,-433.826 L -23.9135,-433.826 z
M -20.4135,-435.576 L -21.9135,-435.576 L -21.9135,-433.826 L -20.4135,-433.826 z
M 3.55045,-422.678 L 2.05045,-422.678 L 2.05045,-421.678 L 0.375,-421.678 L 0.375,-427.428 L -3.55045,-427.428
 L -3.55045,-425.678 L -2.05045,-425.678 L -2.05045,-426.678 L -0.375,-426.678 L -0.375,-420.928 L 3.55045,-420.928
 z
M -23.5814,-413.763 L -25.9564,-413.763 L -25.9564,-426.678 L -25.2522,-426.678 L -25.2522,-425.678 L -23.7522,-425.678
 L -23.7522,-427.428 L -26.7064,-427.428 L -26.7064,-413.013 L -25.0814,-413.013 L -25.0814,-412.013 L -23.5814,-412.013
 z
M -5.55045,-422.678 L -7.05045,-422.678 L -7.05045,-421.678 L -8.72589,-421.678 L -8.72589,-427.428 L -12.6513,-427.428
 L -12.6513,-425.678 L -11.1513,-425.678 L -11.1513,-426.678 L -9.47589,-426.678 L -9.47589,-420.928 L -5.55045,-420.928
 z
M 12.6513,-422.678 L 11.1513,-422.678 L 11.1513,-421.678 L 9.47589,-421.678 L 9.47589,-427.428 L 5.55045,-427.428
 L 5.55045,-425.678 L 7.05045,-425.678 L 7.05045,-426.678 L 8.72589,-426.678 L 8.72589,-420.928 L 12.6513,-420.928
 z
M 21.7522,-422.678 L 20.2522,-422.678 L 20.2522,-421.678 L 18.5768,-421.678 L 18.5768,-427.428 L 14.6513,-427.428
 L 14.6513,-425.678 L 16.1513,-425.678 L 16.1513,-426.678 L 17.8268,-426.678 L 17.8268,-420.928 L 21.7522,-420.928
 z
M -14.6513,-422.678 L -16.1513,-422.678 L -16.1513,-421.678 L -17.8268,-421.678 L -17.8268,-427.428 L -21.7522,-427.428
 L -21.7522,-425.678 L -20.2522,-425.678 L -20.2522,-426.678 L -18.5768,-426.678 L -18.5768,-420.928 L -14.6513,-420.928
 z
M -5.55045,-427.428 L -7.05045,-427.428 L -7.05045,-425.678 L -5.55045,-425.678 z
M -14.6513,-427.428 L -16.1513,-427.428 L -16.1513,-425.678 L -14.6513,-425.678 z
M 3.55045,-427.428 L 2.05045,-427.428 L 2.05045,-425.678 L 3.55045,-425.678 z
M 21.7522,-427.428 L 20.2522,-427.428 L 20.2522,-425.678 L 21.7522,-425.678 z
M 12.6513,-427.428 L 11.1513,-427.428 L 11.1513,-425.678 L 12.6513,-425.678 z
M -11.1513,-422.678 L -12.6513,-422.678 L -12.6513,-420.928 L -11.1513,-420.928 z
M -2.05045,-422.678 L -3.55045,-422.678 L -3.55045,-420.928 L -2.05045,-420.928 z
M 16.1513,-422.678 L 14.6513,-422.678 L 14.6513,-420.928 L 16.1513,-420.928 z
M -23.7522,-422.678 L -25.2522,-422.678 L -25.2522,-420.928 L -23.7522,-420.928 z
M -20.2522,-422.678 L -21.7522,-422.678 L -21.7522,-420.928 L -20.2522,-420.928 z
M 25.2522,-422.678 L 23.7522,-422.678 L 23.7522,-420.928 L 25.2522,-420.928 z
M 7.05045,-422.678 L 5.55045,-422.678 L 5.55045,-420.928 L 7.05045,-420.928 z
M 3.51628,-409.013 L 2.01628,-409.013 L 2.01628,-408.013 L 0.375,-408.013 L 0.375,-413.763 L -3.51628,-413.763
 L -3.51628,-412.013 L -2.01628,-412.013 L -2.01628,-413.013 L -0.375,-413.013 L -0.375,-407.263 L 3.51628,-407.263
 z
M 21.5814,-409.013 L 20.0814,-409.013 L 20.0814,-408.013 L 18.4401,-408.013 L 18.4401,-413.763 L 14.5488,-413.763
 L 14.5488,-412.013 L 16.0488,-412.013 L 16.0488,-413.013 L 17.6901,-413.013 L 17.6901,-407.263 L 21.5814,-407.263
 z
M 12.5488,-409.013 L 11.0488,-409.013 L 11.0488,-408.013 L 9.40756,-408.013 L 9.40756,-413.763 L 5.51628,-413.763
 L 5.51628,-412.013 L 7.01628,-412.013 L 7.01628,-413.013 L 8.65756,-413.013 L 8.65756,-407.263 L 12.5488,-407.263
 z
M -5.51628,-409.013 L -7.01628,-409.013 L -7.01628,-408.013 L -8.65756,-408.013 L -8.65756,-413.763 L -12.5488,-413.763
 L -12.5488,-412.013 L -11.0488,-412.013 L -11.0488,-413.013 L -9.40756,-413.013 L -9.40756,-407.263 L -5.51628,-407.263
 z
M -14.5488,-409.013 L -16.0488,-409.013 L -16.0488,-408.013 L -17.6901,-408.013 L -17.6901,-413.763 L -21.5814,-413.763
 L -21.5814,-412.013 L -20.0814,-412.013 L -20.0814,-413.013 L -18.4401,-413.013 L -18.4401,-407.263 L -14.5488,-407.263
 z
M -14.5488,-413.763 L -16.0488,-413.763 L -16.0488,-412.013 L -14.5488,-412.013 z
M 3.51628,-413.763 L 2.01628,-413.763 L 2.01628,-412.013 L 3.51628,-412.013 z
M -5.51628,-413.763 L -7.01628,-413.763 L -7.01628,-412.013 L -5.51628,-412.013 z
M 12.5488,-413.763 L 11.0488,-413.763 L 11.0488,-412.013 L 12.5488,-412.013 z
M 21.5814,-413.763 L 20.0814,-413.763 L 20.0814,-412.013 L 21.5814,-412.013 z
M 24.9004,-398.535 L 26.5254,-398.535 L 26.5254,-413.763 L 23.5814,-413.763 L 23.5814,-412.013 L 25.0814,-412.013
 L 25.0814,-413.013 L 25.7754,-413.013 L 25.7754,-399.285 L 23.4004,-399.285 L 23.4004,-397.535 L 24.9004,-397.535
 z
M -20.0814,-409.013 L -21.5814,-409.013 L -21.5814,-407.263 L -20.0814,-407.263 z
M -2.01628,-409.013 L -3.51628,-409.013 L -3.51628,-407.263 L -2.01628,-407.263 z
M 16.0488,-409.013 L 14.5488,-409.013 L 14.5488,-407.263 L 16.0488,-407.263 z
M 7.01628,-409.013 L 5.51628,-409.013 L 5.51628,-407.263 L 7.01628,-407.263 z
M 25.0814,-409.013 L 23.5814,-409.013 L 23.5814,-407.263 L 25.0814,-407.263 z
M -23.5814,-409.013 L -25.0814,-409.013 L -25.0814,-407.263 L -23.5814,-407.263 z
M -11.0488,-409.013 L -12.5488,-409.013 L -12.5488,-407.263 L -11.0488,-407.263 z
M -23.2087,-383.947 L -25.5837,-383.947 L -25.5837,-398.535 L -24.9004,-398.535 L -24.9004,-397.535 L -23.4004,-397.535
 L -23.4004,-399.285 L -26.3337,-399.285 L -26.3337,-383.197 L -24.7087,-383.197 L -24.7087,-382.197 L -23.2087,-382.197
 z
M -5.48009,-394.535 L -6.98009,-394.535 L -6.98009,-393.535 L -8.58517,-393.535 L -8.58517,-399.285 L -12.4403,-399.285
 L -12.4403,-397.535 L -10.9403,-397.535 L -10.9403,-398.535 L -9.33517,-398.535 L -9.33517,-392.785 L -5.48009,-392.785
 z
M 12.4403,-394.535 L 10.9403,-394.535 L 10.9403,-393.535 L 9.33517,-393.535 L 9.33517,-399.285 L 5.48009,-399.285
 L 5.48009,-397.535 L 6.98009,-397.535 L 6.98009,-398.535 L 8.58517,-398.535 L 8.58517,-392.785 L 12.4403,-392.785
 z
M 3.48009,-394.535 L 1.98009,-394.535 L 1.98009,-393.535 L 0.375,-393.535 L 0.375,-399.285 L -3.48009,-399.285
 L -3.48009,-397.535 L -1.98009,-397.535 L -1.98009,-398.535 L -0.375,-398.535 L -0.375,-392.785 L 3.48009,-392.785
 z
M 21.4004,-394.535 L 19.9004,-394.535 L 19.9004,-393.535 L 18.2953,-393.535 L 18.2953,-399.285 L 14.4403,-399.285
 L 14.4403,-397.535 L 15.9403,-397.535 L 15.9403,-398.535 L 17.5453,-398.535 L 17.5453,-392.785 L 21.4004,-392.785
 z
M -14.4403,-394.535 L -15.9403,-394.535 L -15.9403,-393.535 L -17.5453,-393.535 L -17.5453,-399.285 L -21.4004,-399.285
 L -21.4004,-397.535 L -19.9004,-397.535 L -19.9004,-398.535 L -18.2953,-398.535 L -18.2953,-392.785 L -14.4403,-392.785
 z
M 12.4403,-399.285 L 10.9403,-399.285 L 10.9403,-397.535 L 12.4403,-397.535 z
M -14.4403,-399.285 L -15.9403,-399.285 L -15.9403,-397.535 L -14.4403,-397.535 z
M 21.4004,-399.285 L 19.9004,-399.285 L 19.9004,-397.535 L 21.4004,-397.535 z
M 3.48009,-399.285 L 1.98009,-399.285 L 1.98009,-397.535 L 3.48009,-397.535 z
M -5.48009,-399.285 L -6.98009,-399.285 L -6.98009,-397.535 L -5.48009,-397.535 z
M -23.4004,-394.535 L -24.9004,-394.535 L -24.9004,-392.785 L -23.4004,-392.785 z
M -1.98009,-394.535 L -3.48009,-394.535 L -3.48009,-392.785 L -1.98009,-392.785 z
M 24.9004,-394.535 L 23.4004,-394.535 L 23.4004,-392.785 L 24.9004,-392.785 z
M -10.9403,-394.535 L -12.4403,-394.535 L -12.4403,-392.785 L -10.9403,-392.785 z
M 6.98009,-394.535 L 5.48009,-394.535 L 5.48009,-392.785 L 6.98009,-392.785 z
M -19.9004,-394.535 L -21.4004,-394.535 L -21.4004,-392.785 L -19.9004,-392.785 z
M 15.9403,-394.535 L 14.4403,-394.535 L 14.4403,-392.785 L 15.9403,-392.785 z
M -5.44174,-379.197 L -6.94174,-379.197 L -6.94174,-378.197 L -8.50848,-378.197 L -8.50848,-383.947 L -12.3252,-383.947
 L -12.3252,-382.197 L -10.8252,-382.197 L -10.8252,-383.197 L -9.25848,-383.197 L -9.25848,-377.447 L -5.44174,-377.447
 z
M 21.2087,-379.197 L 19.7087,-379.197 L 19.7087,-378.197 L 18.142,-378.197 L 18.142,-383.947 L 14.3252,-383.947
 L 14.3252,-382.197 L 15.8252,-382.197 L 15.8252,-383.197 L 17.392,-383.197 L 17.392,-377.447 L 21.2087,-377.447
 z
M -14.3252,-379.197 L -15.8252,-379.197 L -15.8252,-378.197 L -17.392,-378.197 L -17.392,-383.947 L -21.2087,-383.947
 L -21.2087,-382.197 L -19.7087,-382.197 L -19.7087,-383.197 L -18.142,-383.197 L -18.142,-377.447 L -14.3252,-377.447
 z
M 3.44173,-379.197 L 1.94173,-379.197 L 1.94173,-378.197 L 0.375,-378.197 L 0.375,-383.947 L -3.44173,-383.947
 L -3.44173,-382.197 L -1.94173,-382.197 L -1.94173,-383.197 L -0.375,-383.197 L -0.375,-377.447 L 3.44173,-377.447
 z
M 12.3252,-379.197 L 10.8252,-379.197 L 10.8252,-378.197 L 9.25848,-378.197 L 9.25848,-383.947 L 5.44174,-383.947
 L 5.44174,-382.197 L 6.94174,-382.197 L 6.94174,-383.197 L 8.50848,-383.197 L 8.50848,-377.447 L 12.3252,-377.447
 z
M -14.3252,-383.947 L -15.8252,-383.947 L -15.8252,-382.197 L -14.3252,-382.197 z
M 24.5056,-366.946 L 26.1306,-366.946 L 26.1306,-383.947 L 23.2087,-383.947 L 23.2087,-382.197 L 24.7087,-382.197
 L 24.7087,-383.197 L 25.3806,-383.197 L 25.3806,-367.696 L 23.0056,-367.696 L 23.0056,-365.946 L 24.5056,-365.946
 z
M 12.3252,-383.947 L 10.8252,-383.947 L 10.8252,-382.197 L 12.3252,-382.197 z
M 21.2087,-383.947 L 19.7087,-383.947 L 19.7087,-382.197 L 21.2087,-382.197 z
M 3.44173,-383.947 L 1.94173,-383.947 L 1.94173,-382.197 L 3.44173,-382.197 z
M -5.44174,-383.947 L -6.94174,-383.947 L -6.94174,-382.197 L -5.44174,-382.197 z
M -1.94173,-379.197 L -3.44173,-379.197 L -3.44173,-377.447 L -1.94173,-377.447 z
M 6.94174,-379.197 L 5.44174,-379.197 L 5.44174,-377.447 L 6.94174,-377.447 z
M 24.7087,-379.197 L 23.2087,-379.197 L 23.2087,-377.447 L 24.7087,-377.447 z
M -23.2087,-379.197 L -24.7087,-379.197 L -24.7087,-377.447 L -23.2087,-377.447 z
M -19.7087,-379.197 L -21.2087,-379.197 L -21.2087,-377.447 L -19.7087,-377.447 z
M 15.8252,-379.197 L 14.3252,-379.197 L 14.3252,-377.447 L 15.8252,-377.447 z
M -10.8252,-379.197 L -12.3252,-379.197 L -12.3252,-377.447 L -10.8252,-377.447 z
M 3.40111,-362.946 L 1.90111,-362.946 L 1.90111,-361.946 L 0.375,-361.946 L 0.375,-367.696 L -3.40111,-367.696
 L -3.40111,-365.946 L -1.90111,-365.946 L -1.90111,-366.946 L -0.375,-366.946 L -0.375,-361.196 L 3.40111,-361.196
 z
M -22.7904,-350.479 L -25.1654,-350.479 L -25.1654,-366.946 L -24.5056,-366.946 L -24.5056,-365.946 L -23.0056,-365.946
 L -23.0056,-367.696 L -25.9154,-367.696 L -25.9154,-349.729 L -24.2904,-349.729 L -24.2904,-348.729 L -22.7904,-348.729
 z
M -5.40111,-362.946 L -6.90111,-362.946 L -6.90111,-361.946 L -8.42723,-361.946 L -8.42723,-367.696 L -12.2033,-367.696
 L -12.2033,-365.946 L -10.7033,-365.946 L -10.7033,-366.946 L -9.17723,-366.946 L -9.17723,-361.196 L -5.40111,-361.196
 z
M 21.0056,-362.946 L 19.5056,-362.946 L 19.5056,-361.946 L 17.9795,-361.946 L 17.9795,-367.696 L 14.2033,-367.696
 L 14.2033,-365.946 L 15.7033,-365.946 L 15.7033,-366.946 L 17.2295,-366.946 L 17.2295,-361.196 L 21.0056,-361.196
 z
M 12.2033,-362.946 L 10.7033,-362.946 L 10.7033,-361.946 L 9.17723,-361.946 L 9.17723,-367.696 L 5.40111,-367.696
 L 5.40111,-365.946 L 6.90111,-365.946 L 6.90111,-366.946 L 8.42723,-366.946 L 8.42723,-361.196 L 12.2033,-361.196
 z
M -14.2033,-362.946 L -15.7033,-362.946 L -15.7033,-361.946 L -17.2295,-361.946 L -17.2295,-367.696 L -21.0056,-367.696
 L -21.0056,-365.946 L -19.5056,-365.946 L -19.5056,-366.946 L -17.9795,-366.946 L -17.9795,-361.196 L -14.2033,-361.196
 z
M 3.40111,-367.696 L 1.90111,-367.696 L 1.90111,-365.946 L 3.40111,-365.946 z
M -14.2033,-367.696 L -15.7033,-367.696 L -15.7033,-365.946 L -14.2033,-365.946 z
M -5.40111,-367.696 L -6.90111,-367.696 L -6.90111,-365.946 L -5.40111,-365.946 z
M 21.0056,-367.696 L 19.5056,-367.696 L 19.5056,-365.946 L 21.0056,-365.946 z
M 12.2033,-367.696 L 10.7033,-367.696 L 10.7033,-365.946 L 12.2033,-365.946 z
M -10.7033,-362.946 L -12.2033,-362.946 L -12.2033,-361.196 L -10.7033,-361.196 z
M 24.5056,-362.946 L 23.0056,-362.946 L 23.0056,-361.196 L 24.5056,-361.196 z
M -1.90111,-362.946 L -3.40111,-362.946 L -3.40111,-361.196 L -1.90111,-361.196 z
M 15.7033,-362.946 L 14.2033,-362.946 L 14.2033,-361.196 L 15.7033,-361.196 z
M 6.90111,-362.946 L 5.40111,-362.946 L 5.40111,-361.196 L 6.90111,-361.196 z
M -23.0056,-362.946 L -24.5056,-362.946 L -24.5056,-361.196 L -23.0056,-361.196 z
M -19.5056,-362.946 L -21.0056,-362.946 L -21.0056,-361.196 L -19.5056,-361.196 z
M 3.35806,-345.729 L 1.85806,-345.729 L 1.85806,-344.729 L 0.375,-344.729 L 0.375,-350.479 L -3.35806,-350.479
 L -3.35806,-348.729 L -1.85806,-348.729 L -1.85806,-349.729 L -0.375,-349.729 L -0.375,-343.979 L 3.35806,-343.979
 z
M 3.35806,-350.479 L 1.85806,-350.479 L 1.85806,-348.729 L 3.35806,-348.729 z
M 12.0742,-345.729 L 10.5742,-345.729 L 10.5742,-344.729 L 9.09114,-344.729 L 9.09114,-350.479 L 5.35806,-350.479
 L 5.35806,-348.729 L 6.85806,-348.729 L 6.85806,-349.729 L 8.34114,-349.729 L 8.34114,-343.979 L 12.0742,-343.979
 z
M 20.7904,-345.729 L 19.2904,-345.729 L 19.2904,-344.729 L 17.8073,-344.729 L 17.8073,-350.479 L 14.0742,-350.479
 L 14.0742,-348.729 L 15.5742,-348.729 L 15.5742,-349.729 L 17.0573,-349.729 L 17.0573,-343.979 L 20.7904,-343.979
 z
M -14.0742,-345.729 L -15.5742,-345.729 L -15.5742,-344.729 L -17.0573,-344.729 L -17.0573,-350.479 L -20.7904,-350.479
 L -20.7904,-348.729 L -19.2904,-348.729 L -19.2904,-349.729 L -17.8073,-349.729 L -17.8073,-343.979 L -14.0742,-343.979
 z
M -5.35806,-345.729 L -6.85806,-345.729 L -6.85806,-344.729 L -8.34114,-344.729 L -8.34114,-350.479 L -12.0742,-350.479
 L -12.0742,-348.729 L -10.5742,-348.729 L -10.5742,-349.729 L -9.09114,-349.729 L -9.09114,-343.979 L -5.35806,-343.979
 z
M -5.35806,-350.479 L -6.85806,-350.479 L -6.85806,-348.729 L -5.35806,-348.729 z
M -14.0742,-350.479 L -15.5742,-350.479 L -15.5742,-348.729 L -14.0742,-348.729 z
M 24.0623,-331.489 L 25.6873,-331.489 L 25.6873,-350.479 L 22.7904,-350.479 L 22.7904,-348.729 L 24.2904,-348.729
 L 24.2904,-349.729 L 24.9373,-349.729 L 24.9373,-332.239 L 22.5623,-332.239 L 22.5623,-330.489 L 24.0623,-330.489
 z
M 12.0742,-350.479 L 10.5742,-350.479 L 10.5742,-348.729 L 12.0742,-348.729 z
M 20.7904,-350.479 L 19.2904,-350.479 L 19.2904,-348.729 L 20.7904,-348.729 z
M -19.2904,-345.729 L -20.7904,-345.729 L -20.7904,-343.979 L -19.2904,-343.979 z
M -1.85806,-345.729 L -3.35806,-345.729 L -3.35806,-343.979 L -1.85806,-343.979 z
M 6.85806,-345.729 L 5.35806,-345.729 L 5.35806,-343.979 L 6.85806,-343.979 z
M 24.2904,-345.729 L 22.7904,-345.729 L 22.7904,-343.979 L 24.2904,-343.979 z
M 15.5742,-345.729 L 14.0742,-345.729 L 14.0742,-343.979 L 15.5742,-343.979 z
M -10.5742,-345.729 L -12.0742,-345.729 L -12.0742,-343.979 L -10.5742,-343.979 z
M -22.7904,-345.729 L -24.2904,-345.729 L -24.2904,-343.979 L -22.7904,-343.979 z
M -22.3208,-312.913 L -24.6958,-312.913 L -24.6958,-331.489 L -24.0623,-331.489 L -24.0623,-330.489 L -22.5623,-330.489
 L -22.5623,-332.239 L -25.4458,-332.239 L -25.4458,-312.163 L -23.8208,-312.163 L -23.8208,-311.163 L -22.3208,-311.163
 z
M -5.31247,-327.489 L -6.81247,-327.489 L -6.81247,-326.489 L -8.24994,-326.489 L -8.24994,-332.239 L -11.9374,-332.239
 L -11.9374,-330.489 L -10.4374,-330.489 L -10.4374,-331.489 L -8.99994,-331.489 L -8.99994,-325.739 L -5.31247,-325.739
 z
M 3.31247,-327.489 L 1.81247,-327.489 L 1.81247,-326.489 L 0.375,-326.489 L 0.375,-332.239 L -3.31247,-332.239
 L -3.31247,-330.489 L -1.81247,-330.489 L -1.81247,-331.489 L -0.375,-331.489 L -0.375,-325.739 L 3.31247,-325.739
 z
M 11.9374,-327.489 L 10.4374,-327.489 L 10.4374,-326.489 L 8.99994,-326.489 L 8.99994,-332.239 L 5.31247,-332.239
 L 5.31247,-330.489 L 6.81247,-330.489 L 6.81247,-331.489 L 8.24994,-331.489 L 8.24994,-325.739 L 11.9374,-325.739
 z
M -13.9374,-327.489 L -15.4374,-327.489 L -15.4374,-326.489 L -16.8749,-326.489 L -16.8749,-332.239 L -20.5623,-332.239
 L -20.5623,-330.489 L -19.0623,-330.489 L -19.0623,-331.489 L -17.6249,-331.489 L -17.6249,-325.739 L -13.9374,-325.739
 z
M 20.5623,-327.489 L 19.0623,-327.489 L 19.0623,-326.489 L 17.6249,-326.489 L 17.6249,-332.239 L 13.9374,-332.239
 L 13.9374,-330.489 L 15.4374,-330.489 L 15.4374,-331.489 L 16.8749,-331.489 L 16.8749,-325.739 L 20.5623,-325.739
 z
M 3.31247,-332.239 L 1.81247,-332.239 L 1.81247,-330.489 L 3.31247,-330.489 z
M -13.9374,-332.239 L -15.4374,-332.239 L -15.4374,-330.489 L -13.9374,-330.489 z
M -5.31247,-332.239 L -6.81247,-332.239 L -6.81247,-330.489 L -5.31247,-330.489 z
M 20.5623,-332.239 L 19.0623,-332.239 L 19.0623,-330.489 L 20.5623,-330.489 z
M 11.9374,-332.239 L 10.4374,-332.239 L 10.4374,-330.489 L 11.9374,-330.489 z
M 6.81247,-327.489 L 5.31247,-327.489 L 5.31247,-325.739 L 6.81247,-325.739 z
M -19.0623,-327.489 L -20.5623,-327.489 L -20.5623,-325.739 L -19.0623,-325.739 z
M -1.81247,-327.489 L -3.31247,-327.489 L -3.31247,-325.739 L -1.81247,-325.739 z
M -22.5623,-327.489 L -24.0623,-327.489 L -24.0623,-325.739 L -22.5623,-325.739 z
M 15.4374,-327.489 L 13.9374,-327.489 L 13.9374,-325.739 L 15.4374,-325.739 z
M 24.0623,-327.489 L 22.5623,-327.489 L 22.5623,-325.739 L 24.0623,-325.739 z
M -10.4374,-327.489 L -11.9374,-327.489 L -11.9374,-325.739 L -10.4374,-325.739 z
M -5.26414,-312.913 L -6.76414,-312.913 L -6.76414,-311.163 L -5.26414,-311.163 z
M 11.7925,-308.163 L 10.2925,-308.163 L 10.2925,-307.163 L 8.90331,-307.163 L 8.90331,-312.913 L 5.26414,-312.913
 L 5.26414,-311.163 L 6.76414,-311.163 L 6.76414,-312.163 L 8.15331,-312.163 L 8.15331,-306.413 L 11.7925,-306.413
 z
M 20.3208,-308.163 L 18.8208,-308.163 L 18.8208,-307.163 L 17.4316,-307.163 L 17.4316,-312.913 L 13.7925,-312.913
 L 13.7925,-311.163 L 15.2925,-311.163 L 15.2925,-312.163 L 16.6816,-312.163 L 16.6816,-306.413 L 20.3208,-306.413
 z
M -5.26414,-308.163 L -6.76414,-308.163 L -6.76414,-307.163 L -8.15331,-307.163 L -8.15331,-312.913 L -11.7925,-312.913
 L -11.7925,-311.163 L -10.2925,-311.163 L -10.2925,-312.163 L -8.90331,-312.163 L -8.90331,-306.413 L -5.26414,-306.413
 z
M 3.26414,-308.163 L 1.76414,-308.163 L 1.76414,-307.163 L 0.375,-307.163 L 0.375,-312.913 L -3.26414,-312.913
 L -3.26414,-311.163 L -1.76414,-311.163 L -1.76414,-312.163 L -0.375,-312.163 L -0.375,-306.413 L 3.26414,-306.413
 z
M -13.7925,-308.163 L -15.2925,-308.163 L -15.2925,-307.163 L -16.6816,-307.163 L -16.6816,-312.913 L -20.3208,-312.913
 L -20.3208,-311.163 L -18.8208,-311.163 L -18.8208,-312.163 L -17.4316,-312.163 L -17.4316,-306.413 L -13.7925,-306.413
 z
M -13.7925,-312.913 L -15.2925,-312.913 L -15.2925,-311.163 L -13.7925,-311.163 z
M 23.5649,-291.689 L 25.1899,-291.689 L 25.1899,-312.913 L 22.3208,-312.913 L 22.3208,-311.163 L 23.8208,-311.163
 L 23.8208,-312.163 L 24.4399,-312.163 L 24.4399,-292.439 L 22.0649,-292.439 L 22.0649,-290.689 L 23.5649,-290.689
 z
M 20.3208,-312.913 L 18.8208,-312.913 L 18.8208,-311.163 L 20.3208,-311.163 z
M 11.7925,-312.913 L 10.2925,-312.913 L 10.2925,-311.163 L 11.7925,-311.163 z
M 3.26414,-312.913 L 1.76414,-312.913 L 1.76414,-311.163 L 3.26414,-311.163 z
M 15.2925,-308.163 L 13.7925,-308.163 L 13.7925,-306.413 L 15.2925,-306.413 z
M 23.8208,-308.163 L 22.3208,-308.163 L 22.3208,-306.413 L 23.8208,-306.413 z
M -1.76414,-308.163 L -3.26414,-308.163 L -3.26414,-306.413 L -1.76414,-306.413 z
M 6.76414,-308.163 L 5.26414,-308.163 L 5.26414,-306.413 L 6.76414,-306.413 z
M -18.8208,-308.163 L -20.3208,-308.163 L -20.3208,-306.413 L -18.8208,-306.413 z
M -10.2925,-308.163 L -11.7925,-308.163 L -11.7925,-306.413 L -10.2925,-306.413 z
M -22.3208,-308.163 L -23.8208,-308.163 L -23.8208,-306.413 L -22.3208,-306.413 z
M 3.21297,-287.689 L 1.71297,-287.689 L 1.71297,-286.689 L 0.375,-286.689 L 0.375,-292.439 L -3.21297,-292.439
 L -3.21297,-290.689 L -1.71297,-290.689 L -1.71297,-291.689 L -0.375,-291.689 L -0.375,-285.939 L 3.21297,-285.939
 z
M -13.6389,-287.689 L -15.1389,-287.689 L -15.1389,-286.689 L -16.4769,-286.689 L -16.4769,-292.439 L -20.0649,-292.439
 L -20.0649,-290.689 L -18.5649,-290.689 L -18.5649,-291.689 L -17.2269,-291.689 L -17.2269,-285.939 L -13.6389,-285.939
 z
M 11.6389,-287.689 L 10.1389,-287.689 L 10.1389,-286.689 L 8.80093,-286.689 L 8.80093,-292.439 L 5.21297,-292.439
 L 5.21297,-290.689 L 6.71297,-290.689 L 6.71297,-291.689 L 8.05093,-291.689 L 8.05093,-285.939 L 11.6389,-285.939
 z
M -5.21297,-287.689 L -6.71297,-287.689 L -6.71297,-286.689 L -8.05093,-286.689 L -8.05093,-292.439 L -11.6389,-292.439
 L -11.6389,-290.689 L -10.1389,-290.689 L -10.1389,-291.689 L -8.80093,-291.689 L -8.80093,-285.939 L -5.21297,-285.939
 z
M 20.0649,-287.689 L 18.5649,-287.689 L 18.5649,-286.689 L 17.2269,-286.689 L 17.2269,-292.439 L 13.6389,-292.439
 L 13.6389,-290.689 L 15.1389,-290.689 L 15.1389,-291.689 L 16.4769,-291.689 L 16.4769,-285.939 L 20.0649,-285.939
 z
M -21.7937,-270.748 L -24.1687,-270.748 L -24.1687,-291.689 L -23.5649,-291.689 L -23.5649,-290.689 L -22.0649,-290.689
 L -22.0649,-292.439 L -24.9187,-292.439 L -24.9187,-269.998 L -23.2937,-269.998 L -23.2937,-268.998 L -21.7937,-268.998
 z
M 3.21297,-292.439 L 1.71297,-292.439 L 1.71297,-290.689 L 3.21297,-290.689 z
M -5.21297,-292.439 L -6.71297,-292.439 L -6.71297,-290.689 L -5.21297,-290.689 z
M -13.6389,-292.439 L -15.1389,-292.439 L -15.1389,-290.689 L -13.6389,-290.689 z
M 20.0649,-292.439 L 18.5649,-292.439 L 18.5649,-290.689 L 20.0649,-290.689 z
M 11.6389,-292.439 L 10.1389,-292.439 L 10.1389,-290.689 L 11.6389,-290.689 z
M -1.71297,-287.689 L -3.21297,-287.689 L -3.21297,-285.939 L -1.71297,-285.939 z
M 23.5649,-287.689 L 22.0649,-287.689 L 22.0649,-285.939 L 23.5649,-285.939 z
M 6.71297,-287.689 L 5.21297,-287.689 L 5.21297,-285.939 L 6.71297,-285.939 z
M 15.1389,-287.689 L 13.6389,-287.689 L 13.6389,-285.939 L 15.1389,-285.939 z
M -22.0649,-287.689 L -23.5649,-287.689 L -23.5649,-285.939 L -22.0649,-285.939 z
M -10.1389,-287.689 L -11.6389,-287.689 L -11.6389,-285.939 L -10.1389,-285.939 z
M -18.5649,-287.689 L -20.0649,-287.689 L -20.0649,-285.939 L -18.5649,-285.939 z
M 19.7937,-265.998 L 18.2937,-265.998 L 18.2937,-264.998 L 17.01,-264.998 L 17.01,-270.748 L 13.4762,-270.748
 L 13.4762,-268.998 L 14.9762,-268.998 L 14.9762,-269.998 L 16.26,-269.998 L 16.26,-264.248 L 19.7937,-264.248
 z
M 11.4762,-265.998 L 9.97623,-265.998 L 9.97623,-264.998 L 8.69247,-264.998 L 8.69247,-270.748 L 5.15874,-270.748
 L 5.15874,-268.998 L 6.65874,-268.998 L 6.65874,-269.998 L 7.94247,-269.998 L 7.94247,-264.248 L 11.4762,-264.248
 z
M 3.15874,-265.998 L 1.65874,-265.998 L 1.65874,-264.998 L 0.375,-264.998 L 0.375,-270.748 L -3.15874,-270.748
 L -3.15874,-268.998 L -1.65874,-268.998 L -1.65874,-269.998 L -0.375,-269.998 L -0.375,-264.248 L 3.15874,-264.248
 z
M -13.4762,-265.998 L -14.9762,-265.998 L -14.9762,-264.998 L -16.26,-264.998 L -16.26,-270.748 L -19.7937,-270.748
 L -19.7937,-268.998 L -18.2937,-268.998 L -18.2937,-269.998 L -17.01,-269.998 L -17.01,-264.248 L -13.4762,-264.248
 z
M -5.15874,-265.998 L -6.65874,-265.998 L -6.65874,-264.998 L -7.94247,-264.998 L -7.94247,-270.748 L -11.4762,-270.748
 L -11.4762,-268.998 L -9.97623,-268.998 L -9.97623,-269.998 L -8.69247,-269.998 L -8.69247,-264.248 L -5.15874,-264.248
 z
M 3.15874,-270.748 L 1.65874,-270.748 L 1.65874,-268.998 L 3.15874,-268.998 z
M -5.15874,-270.748 L -6.65874,-270.748 L -6.65874,-268.998 L -5.15874,-268.998 z
M -13.4762,-270.748 L -14.9762,-270.748 L -14.9762,-268.998 L -13.4762,-268.998 z
M 23.0064,-247.016 L 24.6314,-247.016 L 24.6314,-270.748 L 21.7937,-270.748 L 21.7937,-268.998 L 23.2937,-268.998
 L 23.2937,-269.998 L 23.8814,-269.998 L 23.8814,-247.766 L 21.5064,-247.766 L 21.5064,-246.016 L 23.0064,-246.016
 z
M 19.7937,-270.748 L 18.2937,-270.748 L 18.2937,-268.998 L 19.7937,-268.998 z
M 11.4762,-270.748 L 9.97623,-270.748 L 9.97623,-268.998 L 11.4762,-268.998 z
M -1.65874,-265.998 L -3.15874,-265.998 L -3.15874,-264.248 L -1.65874,-264.248 z
M 23.2937,-265.998 L 21.7937,-265.998 L 21.7937,-264.248 L 23.2937,-264.248 z
M 6.65874,-265.998 L 5.15874,-265.998 L 5.15874,-264.248 L 6.65874,-264.248 z
M 14.9762,-265.998 L 13.4762,-265.998 L 13.4762,-264.248 L 14.9762,-264.248 z
M -18.2937,-265.998 L -19.7937,-265.998 L -19.7937,-264.248 L -18.2937,-264.248 z
M -9.97623,-265.998 L -11.4762,-265.998 L -11.4762,-264.248 L -9.97623,-264.248 z
M -21.7937,-265.998 L -23.2937,-265.998 L -23.2937,-264.248 L -21.7937,-264.248 z
M 3.10129,-243.016 L 1.60129,-243.016 L 1.60129,-242.016 L 0.375,-242.016 L 0.375,-247.766 L -3.10129,-247.766
 L -3.10129,-246.016 L -1.60129,-246.016 L -1.60129,-247.016 L -0.375,-247.016 L -0.375,-241.266 L 3.10129,-241.266
 z
M 11.3039,-243.016 L 9.80386,-243.016 L 9.80386,-242.016 L 8.57758,-242.016 L 8.57758,-247.766 L 5.10129,-247.766
 L 5.10129,-246.016 L 6.60129,-246.016 L 6.60129,-247.016 L 7.82758,-247.016 L 7.82758,-241.266 L 11.3039,-241.266
 z
M -5.10129,-243.016 L -6.60129,-243.016 L -6.60129,-242.016 L -7.82758,-242.016 L -7.82758,-247.766 L -11.3039,-247.766
 L -11.3039,-246.016 L -9.80386,-246.016 L -9.80386,-247.016 L -8.57758,-247.016 L -8.57758,-241.266 L -5.10129,-241.266
 z
M 19.5064,-243.016 L 18.0064,-243.016 L 18.0064,-242.016 L 16.7802,-242.016 L 16.7802,-247.766 L 13.3039,-247.766
 L 13.3039,-246.016 L 14.8039,-246.016 L 14.8039,-247.016 L 16.0302,-247.016 L 16.0302,-241.266 L 19.5064,-241.266
 z
M -13.3039,-243.016 L -14.8039,-243.016 L -14.8039,-242.016 L -16.0302,-242.016 L -16.0302,-247.766 L -19.5064,-247.766
 L -19.5064,-246.016 L -18.0064,-246.016 L -18.0064,-247.016 L -16.7802,-247.016 L -16.7802,-241.266 L -13.3039,-241.266
 z
M -21.2021,-223.418 L -23.5771,-223.418 L -23.5771,-247.016 L -23.0064,-247.016 L -23.0064,-246.016 L -21.5064,-246.016
 L -21.5064,-247.766 L -24.3271,-247.766 L -24.3271,-222.668 L -22.7021,-222.668 L -22.7021,-221.668 L -21.2021,-221.668
 z
M 11.3039,-247.766 L 9.80386,-247.766 L 9.80386,-246.016 L 11.3039,-246.016 z
M -5.10129,-247.766 L -6.60129,-247.766 L -6.60129,-246.016 L -5.10129,-246.016 z
M 3.10129,-247.766 L 1.60129,-247.766 L 1.60129,-246.016 L 3.10129,-246.016 z
M 19.5064,-247.766 L 18.0064,-247.766 L 18.0064,-246.016 L 19.5064,-246.016 z
M -13.3039,-247.766 L -14.8039,-247.766 L -14.8039,-246.016 L -13.3039,-246.016 z
M -1.60129,-243.016 L -3.10129,-243.016 L -3.10129,-241.266 L -1.60129,-241.266 z
M -21.5064,-243.016 L -23.0064,-243.016 L -23.0064,-241.266 L -21.5064,-241.266 z
M -9.80386,-243.016 L -11.3039,-243.016 L -11.3039,-241.266 L -9.80386,-241.266 z
M 14.8039,-243.016 L 13.3039,-243.016 L 13.3039,-241.266 L 14.8039,-241.266 z
M -18.0064,-243.016 L -19.5064,-243.016 L -19.5064,-241.266 L -18.0064,-241.266 z
M 23.0064,-243.016 L 21.5064,-243.016 L 21.5064,-241.266 L 23.0064,-241.266 z
M 6.60129,-243.016 L 5.10129,-243.016 L 5.10129,-241.266 L 6.60129,-241.266 z
M 3.04042,-223.418 L 1.54041,-223.418 L 1.54041,-221.668 L 3.04042,-221.668 z
M -5.04042,-223.418 L -6.54042,-223.418 L -6.54042,-221.668 L -5.04042,-221.668 z
M 19.2021,-223.418 L 17.7021,-223.418 L 17.7021,-221.668 L 19.2021,-221.668 z
M 11.1213,-223.418 L 9.62126,-223.418 L 9.62126,-221.668 L 11.1213,-221.668 z
M 22.3797,-196.873 L 24.0047,-196.873 L 24.0047,-223.418 L 21.2021,-223.418 L 21.2021,-221.668 L 22.7021,-221.668
 L 22.7021,-222.668 L 23.2547,-222.668 L 23.2547,-197.623 L 20.8797,-197.623 L 20.8797,-195.873 L 22.3797,-195.873
 z
M -13.1213,-223.418 L -14.6213,-223.418 L -14.6213,-221.668 L -13.1213,-221.668 z
M -13.1213,-218.668 L -14.6213,-218.668 L -14.6213,-217.668 L -15.7867,-217.668 L -15.7867,-223.418 L -19.2021,-223.418
 L -19.2021,-221.668 L -17.7021,-221.668 L -17.7021,-222.668 L -16.5367,-222.668 L -16.5367,-216.918 L -13.1213,-216.918
 z
M 19.2021,-218.668 L 17.7021,-218.668 L 17.7021,-217.668 L 16.5367,-217.668 L 16.5367,-223.418 L 13.1213,-223.418
 L 13.1213,-221.668 L 14.6213,-221.668 L 14.6213,-222.668 L 15.7867,-222.668 L 15.7867,-216.918 L 19.2021,-216.918
 z
M 11.1213,-218.668 L 9.62126,-218.668 L 9.62126,-217.668 L 8.45584,-217.668 L 8.45584,-223.418 L 5.04042,-223.418
 L 5.04042,-221.668 L 6.54042,-221.668 L 6.54042,-222.668 L 7.70584,-222.668 L 7.70584,-216.918 L 11.1213,-216.918
 z
M -5.04042,-218.668 L -6.54042,-218.668 L -6.54042,-217.668 L -7.70584,-217.668 L -7.70584,-223.418 L -11.1213,-223.418
 L -11.1213,-221.668 L -9.62126,-221.668 L -9.62126,-222.668 L -8.45584,-222.668 L -8.45584,-216.918 L -5.04042,-216.918
 z
M 3.04042,-218.668 L 1.54041,-218.668 L 1.54041,-217.668 L 0.375,-217.668 L 0.375,-223.418 L -3.04042,-223.418
 L -3.04042,-221.668 L -1.54041,-221.668 L -1.54041,-222.668 L -0.375,-222.668 L -0.375,-216.918 L 3.04042,-216.918
 z
M 22.7021,-218.668 L 21.2021,-218.668 L 21.2021,-216.918 L 22.7021,-216.918 z
M 6.54042,-218.668 L 5.04042,-218.668 L 5.04042,-216.918 L 6.54042,-216.918 z
M -1.54041,-218.668 L -3.04042,-218.668 L -3.04042,-216.918 L -1.54041,-216.918 z
M -17.7021,-218.668 L -19.2021,-218.668 L -19.2021,-216.918 L -17.7021,-216.918 z
M -9.62126,-218.668 L -11.1213,-218.668 L -11.1213,-216.918 L -9.62126,-216.918 z
M 14.6213,-218.668 L 13.1213,-218.668 L 13.1213,-216.918 L 14.6213,-216.918 z
M -21.2021,-218.668 L -22.7021,-218.668 L -22.7021,-216.918 L -21.2021,-216.918 z
M -4.97592,-192.873 L -6.47592,-192.873 L -6.47592,-191.873 L -7.57686,-191.873 L -7.57686,-197.623 L -10.9278,-197.623
 L -10.9278,-195.873 L -9.42778,-195.873 L -9.42778,-196.873 L -8.32686,-196.873 L -8.32686,-191.123 L -4.97592,-191.123
 z
M 2.97592,-192.873 L 1.47592,-192.873 L 1.47592,-191.873 L 0.375,-191.873 L 0.375,-197.623 L -2.97592,-197.623
 L -2.97592,-195.873 L -1.47592,-195.873 L -1.47592,-196.873 L -0.375,-196.873 L -0.375,-191.123 L 2.97592,-191.123
 z
M 10.9278,-192.873 L 9.42778,-192.873 L 9.42778,-191.873 L 8.32686,-191.873 L 8.32686,-197.623 L 4.97592,-197.623
 L 4.97592,-195.873 L 6.47592,-195.873 L 6.47592,-196.873 L 7.57686,-196.873 L 7.57686,-191.123 L 10.9278,-191.123
 z
M 18.8797,-192.873 L 17.3797,-192.873 L 17.3797,-191.873 L 16.2787,-191.873 L 16.2787,-197.623 L 12.9278,-197.623
 L 12.9278,-195.873 L 14.4278,-195.873 L 14.4278,-196.873 L 15.5287,-196.873 L 15.5287,-191.123 L 18.8797,-191.123
 z
M -12.9278,-192.873 L -14.4278,-192.873 L -14.4278,-191.873 L -15.5287,-191.873 L -15.5287,-197.623 L -18.8797,-197.623
 L -18.8797,-195.873 L -17.3797,-195.873 L -17.3797,-196.873 L -16.2787,-196.873 L -16.2787,-191.123 L -12.9278,-191.123
 z
M -20.538,-170.293 L -22.913,-170.293 L -22.913,-196.873 L -22.3797,-196.873 L -22.3797,-195.873 L -20.8797,-195.873
 L -20.8797,-197.623 L -23.663,-197.623 L -23.663,-169.543 L -22.038,-169.543 L -22.038,-168.543 L -20.538,-168.543
 z
M -12.9278,-197.623 L -14.4278,-197.623 L -14.4278,-195.873 L -12.9278,-195.873 z
M 10.9278,-197.623 L 9.42778,-197.623 L 9.42778,-195.873 L 10.9278,-195.873 z
M 18.8797,-197.623 L 17.3797,-197.623 L 17.3797,-195.873 L 18.8797,-195.873 z
M -4.97592,-197.623 L -6.47592,-197.623 L -6.47592,-195.873 L -4.97592,-195.873 z
M 2.97592,-197.623 L 1.47592,-197.623 L 1.47592,-195.873 L 2.97592,-195.873 z
M 22.3797,-192.873 L 20.8797,-192.873 L 20.8797,-191.123 L 22.3797,-191.123 z
M -20.8797,-192.873 L -22.3797,-192.873 L -22.3797,-191.123 L -20.8797,-191.123 z
M -17.3797,-192.873 L -18.8797,-192.873 L -18.8797,-191.123 L -17.3797,-191.123 z
M -1.47592,-192.873 L -2.97592,-192.873 L -2.97592,-191.123 L -1.47592,-191.123 z
M 6.47592,-192.873 L 4.97592,-192.873 L 4.97592,-191.123 L 6.47592,-191.123 z
M -9.42778,-192.873 L -10.9278,-192.873 L -10.9278,-191.123 L -9.42778,-191.123 z
M 14.4278,-192.873 L 12.9278,-192.873 L 12.9278,-191.123 L 14.4278,-191.123 z
M 10.7228,-165.543 L 9.22281,-165.543 L 9.22281,-164.543 L 8.1902,-164.543 L 8.1902,-170.293 L 4.90759,-170.293
 L 4.90759,-168.543 L 6.40759,-168.543 L 6.40759,-169.543 L 7.4402,-169.543 L 7.4402,-163.793 L 10.7228,-163.793
 z
M 2.90759,-165.543 L 1.40759,-165.543 L 1.40759,-164.543 L 0.375,-164.543 L 0.375,-170.293 L -2.90759,-170.293
 L -2.90759,-168.543 L -1.40759,-168.543 L -1.40759,-169.543 L -0.375,-169.543 L -0.375,-163.793 L 2.90759,-163.793
 z
M 18.538,-165.543 L 17.038,-165.543 L 17.038,-164.543 L 16.0054,-164.543 L 16.0054,-170.293 L 12.7228,-170.293
 L 12.7228,-168.543 L 14.2228,-168.543 L 14.2228,-169.543 L 15.2554,-169.543 L 15.2554,-163.793 L 18.538,-163.793
 z
M -12.7228,-165.543 L -14.2228,-165.543 L -14.2228,-164.543 L -15.2554,-164.543 L -15.2554,-170.293 L -18.538,-170.293
 L -18.538,-168.543 L -17.038,-168.543 L -17.038,-169.543 L -16.0054,-169.543 L -16.0054,-163.793 L -12.7228,-163.793
 z
M -4.90759,-165.543 L -6.40759,-165.543 L -6.40759,-164.543 L -7.4402,-164.543 L -7.4402,-170.293 L -10.7228,-170.293
 L -10.7228,-168.543 L -9.22281,-168.543 L -9.22281,-169.543 L -8.1902,-169.543 L -8.1902,-163.793 L -4.90759,-163.793
 z
M 10.7228,-170.293 L 9.22281,-170.293 L 9.22281,-168.543 L 10.7228,-168.543 z
M 21.6761,-140.589 L 23.3011,-140.589 L 23.3011,-170.293 L 20.538,-170.293 L 20.538,-168.543 L 22.038,-168.543
 L 22.038,-169.543 L 22.5511,-169.543 L 22.5511,-141.339 L 20.1761,-141.339 L 20.1761,-139.589 L 21.6761,-139.589
 z
M 2.90759,-170.293 L 1.40759,-170.293 L 1.40759,-168.543 L 2.90759,-168.543 z
M 18.538,-170.293 L 17.038,-170.293 L 17.038,-168.543 L 18.538,-168.543 z
M -12.7228,-170.293 L -14.2228,-170.293 L -14.2228,-168.543 L -12.7228,-168.543 z
M -4.90759,-170.293 L -6.40759,-170.293 L -6.40759,-168.543 L -4.90759,-168.543 z
M -1.40759,-165.543 L -2.90759,-165.543 L -2.90759,-163.793 L -1.40759,-163.793 z
M 14.2228,-165.543 L 12.7228,-165.543 L 12.7228,-163.793 L 14.2228,-163.793 z
M -20.538,-165.543 L -22.038,-165.543 L -22.038,-163.793 L -20.538,-163.793 z
M -17.038,-165.543 L -18.538,-165.543 L -18.538,-163.793 L -17.038,-163.793 z
M 6.40759,-165.543 L 4.90759,-165.543 L 4.90759,-163.793 L 6.40759,-163.793 z
M -9.22281,-165.543 L -10.7228,-165.543 L -10.7228,-163.793 L -9.22281,-163.793 z
M 22.038,-165.543 L 20.538,-165.543 L 20.538,-163.793 L 22.038,-163.793 z
M 2.83522,-136.589 L 1.33522,-136.589 L 1.33522,-135.589 L 0.375,-135.589 L 0.375,-141.339 L -2.83522,-141.339
 L -2.83522,-139.589 L -1.33522,-139.589 L -1.33522,-140.589 L -0.375,-140.589 L -0.375,-134.839 L 2.83522,-134.839
 z
M 10.5057,-136.589 L 9.00566,-136.589 L 9.00566,-135.589 L 8.04544,-135.589 L 8.04544,-141.339 L 4.83522,-141.339
 L 4.83522,-139.589 L 6.33522,-139.589 L 6.33522,-140.589 L 7.29544,-140.589 L 7.29544,-134.839 L 10.5057,-134.839
 z
M -4.83522,-136.589 L -6.33522,-136.589 L -6.33522,-135.589 L -7.29544,-135.589 L -7.29544,-141.339 L -10.5057,-141.339
 L -10.5057,-139.589 L -9.00566,-139.589 L -9.00566,-140.589 L -8.04544,-140.589 L -8.04544,-134.839 L -4.83522,-134.839
 z
M 18.1761,-136.589 L 16.6761,-136.589 L 16.6761,-135.589 L 15.7159,-135.589 L 15.7159,-141.339 L 12.5057,-141.339
 L 12.5057,-139.589 L 14.0057,-139.589 L 14.0057,-140.589 L 14.9659,-140.589 L 14.9659,-134.839 L 18.1761,-134.839
 z
M -19.7926,-110.663 L -22.1676,-110.663 L -22.1676,-140.589 L -21.6761,-140.589 L -21.6761,-139.589 L -20.1761,-139.589
 L -20.1761,-141.339 L -22.9176,-141.339 L -22.9176,-109.913 L -21.2926,-109.913 L -21.2926,-108.913 L -19.7926,-108.913
 z
M -12.5057,-136.589 L -14.0057,-136.589 L -14.0057,-135.589 L -14.9659,-135.589 L -14.9659,-141.339 L -18.1761,-141.339
 L -18.1761,-139.589 L -16.6761,-139.589 L -16.6761,-140.589 L -15.7159,-140.589 L -15.7159,-134.839 L -12.5057,-134.839
 z
M -12.5057,-141.339 L -14.0057,-141.339 L -14.0057,-139.589 L -12.5057,-139.589 z
M 18.1761,-141.339 L 16.6761,-141.339 L 16.6761,-139.589 L 18.1761,-139.589 z
M 10.5057,-141.339 L 9.00566,-141.339 L 9.00566,-139.589 L 10.5057,-139.589 z
M 2.83522,-141.339 L 1.33522,-141.339 L 1.33522,-139.589 L 2.83522,-139.589 z
M -4.83522,-141.339 L -6.33522,-141.339 L -6.33522,-139.589 L -4.83522,-139.589 z
M -9.00566,-136.589 L -10.5057,-136.589 L -10.5057,-134.839 L -9.00566,-134.839 z
M 6.33522,-136.589 L 4.83522,-136.589 L 4.83522,-134.839 L 6.33522,-134.839 z
M 21.6761,-136.589 L 20.1761,-136.589 L 20.1761,-134.839 L 21.6761,-134.839 z
M -1.33522,-136.589 L -2.83522,-136.589 L -2.83522,-134.839 L -1.33522,-134.839 z
M -20.1761,-136.589 L -21.6761,-136.589 L -21.6761,-134.839 L -20.1761,-134.839 z
M -16.6761,-136.589 L -18.1761,-136.589 L -18.1761,-134.839 L -16.6761,-134.839 z
M 14.0057,-136.589 L 12.5057,-136.589 L 12.5057,-134.839 L 14.0057,-134.839 z
M -4.75853,-105.913 L -6.25853,-105.913 L -6.25853,-104.913 L -7.14206,-104.913 L -7.14206,-110.663 L -10.2756,-110.663
 L -10.2756,-108.913 L -8.77559,-108.913 L -8.77559,-109.913 L -7.89206,-109.913 L -7.89206,-104.163 L -4.75853,-104.163
 z
M 10.2756,-105.913 L 8.77559,-105.913 L 8.77559,-104.913 L 7.89206,-104.913 L 7.89206,-110.663 L 4.75853,-110.663
 L 4.75853,-108.913 L 6.25853,-108.913 L 6.25853,-109.913 L 7.14206,-109.913 L 7.14206,-104.163 L 10.2756,-104.163
 z
M -12.2756,-105.913 L -13.7756,-105.913 L -13.7756,-104.913 L -14.6591,-104.913 L -14.6591,-110.663 L -17.7926,-110.663
 L -17.7926,-108.913 L -16.2926,-108.913 L -16.2926,-109.913 L -15.4091,-109.913 L -15.4091,-104.163 L -12.2756,-104.163
 z
M 2.75853,-105.913 L 1.25853,-105.913 L 1.25853,-104.913 L 0.375,-104.913 L 0.375,-110.663 L -2.75853,-110.663
 L -2.75853,-108.913 L -1.25853,-108.913 L -1.25853,-109.913 L -0.375,-109.913 L -0.375,-104.163 L 2.75853,-104.163
 z
M 17.7926,-105.913 L 16.2926,-105.913 L 16.2926,-104.913 L 15.4091,-104.913 L 15.4091,-110.663 L 12.2756,-110.663
 L 12.2756,-108.913 L 13.7756,-108.913 L 13.7756,-109.913 L 14.6591,-109.913 L 14.6591,-104.163 L 17.7926,-104.163
 z
M -4.75853,-110.663 L -6.25853,-110.663 L -6.25853,-108.913 L -4.75853,-108.913 z
M 17.7926,-110.663 L 16.2926,-110.663 L 16.2926,-108.913 L 17.7926,-108.913 z
M 10.2756,-110.663 L 8.77559,-110.663 L 8.77559,-108.913 L 10.2756,-108.913 z
M 20.8864,-77.4124 L 22.5114,-77.4124 L 22.5114,-110.663 L 19.7926,-110.663 L 19.7926,-108.913 L 21.2926,-108.913
 L 21.2926,-109.913 L 21.7614,-109.913 L 21.7614,-78.1624 L 19.3864,-78.1624 L 19.3864,-76.4124 L 20.8864,-76.4124
 z
M 2.75853,-110.663 L 1.25853,-110.663 L 1.25853,-108.913 L 2.75853,-108.913 z
M -12.2756,-110.663 L -13.7756,-110.663 L -13.7756,-108.913 L -12.2756,-108.913 z
M -1.25853,-105.913 L -2.75853,-105.913 L -2.75853,-104.163 L -1.25853,-104.163 z
M 6.25853,-105.913 L 4.75853,-105.913 L 4.75853,-104.163 L 6.25853,-104.163 z
M -19.7926,-105.913 L -21.2926,-105.913 L -21.2926,-104.163 L -19.7926,-104.163 z
M -16.2926,-105.913 L -17.7926,-105.913 L -17.7926,-104.163 L -16.2926,-104.163 z
M 21.2926,-105.913 L 19.7926,-105.913 L 19.7926,-104.163 L 21.2926,-104.163 z
M -8.77559,-105.913 L -10.2756,-105.913 L -10.2756,-104.163 L -8.77559,-104.163 z
M 13.7756,-105.913 L 12.2756,-105.913 L 12.2756,-104.163 L 13.7756,-104.163 z
M 17.3864,-73.4124 L 15.8864,-73.4124 L 15.8864,-72.4124 L 15.0841,-72.4124 L 15.0841,-78.1624 L 12.0318,-78.1624
 L 12.0318,-76.4124 L 13.5318,-76.4124 L 13.5318,-77.4124 L 14.3341,-77.4124 L 14.3341,-71.6624 L 17.3864,-71.6624
 z
M -18.956,-43.7299 L -21.331,-43.7299 L -21.331,-77.4124 L -20.8864,-77.4124 L -20.8864,-76.4124 L -19.3864,-76.4124
 L -19.3864,-78.1624 L -22.081,-78.1624 L -22.081,-42.9799 L -20.456,-42.9799 L -20.456,-41.9799 L -18.956,-41.9799
 z
M -4.67728,-73.4124 L -6.17728,-73.4124 L -6.17728,-72.4124 L -6.97955,-72.4124 L -6.97955,-78.1624 L -10.0318,-78.1624
 L -10.0318,-76.4124 L -8.53183,-76.4124 L -8.53183,-77.4124 L -7.72955,-77.4124 L -7.72955,-71.6624 L -4.67728,-71.6624
 z
M 2.67728,-73.4124 L 1.17728,-73.4124 L 1.17728,-72.4124 L 0.375,-72.4124 L 0.375,-78.1624 L -2.67728,-78.1624
 L -2.67728,-76.4124 L -1.17728,-76.4124 L -1.17728,-77.4124 L -0.375,-77.4124 L -0.375,-71.6624 L 2.67728,-71.6624
 z
M -12.0318,-73.4124 L -13.5318,-73.4124 L -13.5318,-72.4124 L -14.3341,-72.4124 L -14.3341,-78.1624 L -17.3864,-78.1624
 L -17.3864,-76.4124 L -15.8864,-76.4124 L -15.8864,-77.4124 L -15.0841,-77.4124 L -15.0841,-71.6624 L -12.0318,-71.6624
 z
M 10.0318,-73.4124 L 8.53183,-73.4124 L 8.53183,-72.4124 L 7.72955,-72.4124 L 7.72955,-78.1624 L 4.67728,-78.1624
 L 4.67728,-76.4124 L 6.17728,-76.4124 L 6.17728,-77.4124 L 6.97955,-77.4124 L 6.97955,-71.6624 L 10.0318,-71.6624
 z
M -12.0318,-78.1624 L -13.5318,-78.1624 L -13.5318,-76.4124 L -12.0318,-76.4124 z
M -4.67728,-78.1624 L -6.17728,-78.1624 L -6.17728,-76.4124 L -4.67728,-76.4124 z
M 10.0318,-78.1624 L 8.53183,-78.1624 L 8.53183,-76.4124 L 10.0318,-76.4124 z
M 17.3864,-78.1624 L 15.8864,-78.1624 L 15.8864,-76.4124 L 17.3864,-76.4124 z
M 2.67728,-78.1624 L 1.17728,-78.1624 L 1.17728,-76.4124 L 2.67728,-76.4124 z
M -15.8864,-73.4124 L -17.3864,-73.4124 L -17.3864,-71.6624 L -15.8864,-71.6624 z
M 6.17728,-73.4124 L 4.67728,-73.4124 L 4.67728,-71.6624 L 6.17728,-71.6624 z
M -19.3864,-73.4124 L -20.8864,-73.4124 L -20.8864,-71.6624 L -19.3864,-71.6624 z
M -8.53183,-73.4124 L -10.0318,-73.4124 L -10.0318,-71.6624 L -8.53183,-71.6624 z
M -1.17728,-73.4124 L -2.67728,-73.4124 L -2.67728,-71.6624 L -1.17728,-71.6624 z
M 20.8864,-73.4124 L 19.3864,-73.4124 L 19.3864,-71.6624 L 20.8864,-71.6624 z
M 13.5318,-73.4124 L 12.0318,-73.4124 L 12.0318,-71.6624 L 13.5318,-71.6624 z
M -11.7736,-43.7299 L -13.2736,-43.7299 L -13.2736,-41.9799 L -11.7736,-41.9799 z
M -4.59119,-38.9799 L -6.09119,-38.9799 L -6.09119,-37.9799 L -6.80739,-37.9799 L -6.80739,-43.7299 L -9.77359,-43.7299
 L -9.77359,-41.9799 L -8.27359,-41.9799 L -8.27359,-42.9799 L -7.55739,-42.9799 L -7.55739,-37.2299 L -4.59119,-37.2299
 z
M -11.7736,-38.9799 L -13.2736,-38.9799 L -13.2736,-37.9799 L -13.9898,-37.9799 L -13.9898,-43.7299 L -16.956,-43.7299
 L -16.956,-41.9799 L -15.456,-41.9799 L -15.456,-42.9799 L -14.7398,-42.9799 L -14.7398,-37.2299 L -11.7736,-37.2299
 z
M 2.59119,-38.9799 L 1.09119,-38.9799 L 1.09119,-37.9799 L 0.375,-37.9799 L 0.375,-43.7299 L -2.59119,-43.7299
 L -2.59119,-41.9799 L -1.09119,-41.9799 L -1.09119,-42.9799 L -0.375,-42.9799 L -0.375,-37.2299 L 2.59119,-37.2299
 z
M 16.956,-38.9799 L 15.456,-38.9799 L 15.456,-37.9799 L 14.7398,-37.9799 L 14.7398,-43.7299 L 11.7736,-43.7299
 L 11.7736,-41.9799 L 13.2736,-41.9799 L 13.2736,-42.9799 L 13.9898,-42.9799 L 13.9898,-37.2299 L 16.956,-37.2299
 z
M 9.77359,-38.9799 L 8.27359,-38.9799 L 8.27359,-37.9799 L 7.55739,-37.9799 L 7.55739,-43.7299 L 4.59119,-43.7299
 L 4.59119,-41.9799 L 6.09119,-41.9799 L 6.09119,-42.9799 L 6.80739,-42.9799 L 6.80739,-37.2299 L 9.77359,-37.2299
 z
M 16.956,-43.7299 L 15.456,-43.7299 L 15.456,-41.9799 L 16.956,-41.9799 z
M 2.59119,-43.7299 L 1.09119,-43.7299 L 1.09119,-41.9799 L 2.59119,-41.9799 z
M 9.77359,-43.7299 L 8.27359,-43.7299 L 8.27359,-41.9799 L 9.77359,-41.9799 z
M -4.59119,-43.7299 L -6.09119,-43.7299 L -6.09119,-41.9799 L -4.59119,-41.9799 z
M 20,-6.5 L 21.625,-6.5 L 21.625,-43.7299 L 18.956,-43.7299 L 18.956,-41.9799 L 20.456,-41.9799
 L 20.456,-42.9799 L 20.875,-42.9799 L 20.875,-7.25 L 18.5,-7.25 L 18.5,-5.5 L 20,-5.5
 z
M 13.2736,-38.9799 L 11.7736,-38.9799 L 11.7736,-37.2299 L 13.2736,-37.2299 z
M -18.956,-38.9799 L -20.456,-38.9799 L -20.456,-37.2299 L -18.956,-37.2299 z
M -15.456,-38.9799 L -16.956,-38.9799 L -16.956,-37.2299 L -15.456,-37.2299 z
M 6.09119,-38.9799 L 4.59119,-38.9799 L 4.59119,-37.2299 L 6.09119,-37.2299 z
M -8.27359,-38.9799 L -9.77359,-38.9799 L -9.77359,-37.2299 L -8.27359,-37.2299 z
M 20.456,-38.9799 L 18.956,-38.9799 L 18.956,-37.2299 L 20.456,-37.2299 z
M -1.09119,-38.9799 L -2.59119,-38.9799 L -2.59119,-37.2299 L -1.09119,-37.2299 z
M 2.5,-2.5 L 1,-2.5 L 1,-1.5 L 0.375,-1.5 L 0.375,-7.25 L -2.5,-7.25
 L -2.5,-5.5 L -1,-5.5 L -1,-6.5 L -0.375,-6.5 L -0.375,-0.75 L 2.5,-0.75
 z
M 9.5,-2.5 L 8,-2.5 L 8,-1.5 L 7.375,-1.5 L 7.375,-7.25 L 4.5,-7.25
 L 4.5,-5.5 L 6,-5.5 L 6,-6.5 L 6.625,-6.5 L 6.625,-0.75 L 9.5,-0.75
 z
M 16.5,-2.5 L 15,-2.5 L 15,-1.5 L 14.375,-1.5 L 14.375,-7.25 L 11.5,-7.25
 L 11.5,-5.5 L 13,-5.5 L 13,-6.5 L 13.625,-6.5 L 13.625,-0.75 L 16.5,-0.75
 z
M 16.5,-7.25 L 15,-7.25 L 15,-5.5 L 16.5,-5.5 z
M -4.5,-2.5 L -6,-2.5 L -6,-1.5 L -6.625,-1.5 L -6.625,-7.25 L -9.5,-7.25
 L -9.5,-5.5 L -8,-5.5 L -8,-6.5 L -7.375,-6.5 L -7.375,-0.75 L -4.5,-0.75
 z
M -11.5,-2.5 L -13,-2.5 L -13,-1.5 L -13.625,-1.5 L -13.625,-7.25 L -16.5,-7.25
 L -16.5,-5.5 L -15,-5.5 L -15,-6.5 L -14.375,-6.5 L -14.375,-0.75 L -11.5,-0.75
 z
M 9.5,-7.25 L 8,-7.25 L 8,-5.5 L 9.5,-5.5 z
M 2.5,-7.25 L 1,-7.25 L 1,-5.5 L 2.5,-5.5 z
M -4.5,-7.25 L -6,-7.25 L -6,-5.5 L -4.5,-5.5 z
M -18.5,-7.25 L -21.006,-7.25 L -21.006,-6.5 L -20,-6.5 L -20,-5.5 L -18.5,-5.5
 z
M -11.5,-7.25 L -13,-7.25 L -13,-5.5 L -11.5,-5.5 z
M -15,-2.5 L -16.5,-2.5 L -16.5,-0.75 L -15,-0.75 z
M -18.5,-2.5 L -20,-2.5 L -20,-0.75 L -18.5,-0.75 z
M 13,-2.5 L 11.5,-2.5 L 11.5,-0.75 L 13,-0.75 z
M 6,-2.5 L 4.5,-2.5 L 4.5,-0.75 L 6,-0.75 z
M -1,-2.5 L -2.5,-2.5 L -2.5,-0.75 L -1,-0.75 z
M 20,-2.5 L 18.5,-2.5 L 18.5,-0.75 L 20,-0.75 z
M -8,-2.5 L -9.5,-2.5 L -9.5,-0.75 L -8,-0.75 z
M 20.55,31.399 L 19.45,31.399 L 19.45,32.149 L 20.55,32.149 z
" stroke="black" fill="lightgray" stroke-width="0.5"/>
</svg>
