<?xml version="1.0" standalone="no"?>
<!DOCTYPE svg PUBLIC "-//W3C//DTD SVG 1.1//EN" "http://www.w3.org/Graphics/SVG/1.1/DTD/svg11.dtd">
<svg width="105mm" height="280mm" viewBox="0 0 105 280" xmlns="http://www.w3.org/2000/svg" version="1.1">
<title>OpenSCAD Model</title>
<path d="
M 50.3799,-0 L 49.6298,-0 L 49.4279,16.5294 L 48.7937,16.5294 L 48.7937,15.5294 L 47.2937,15.5294
 L 47.2937,17.2794 L 49.4187,17.2794 L 50.1687,17.2885 z
M 7.20627,10.3294 L 14.0238,10.3294 L 14.0238,12.5294 L 15.5238,12.5294 L 15.5238,10.3294 L 22.3412,10.3294
 L 22.3412,12.5294 L 23.8412,12.5294 L 23.8412,10.3294 L 30.6587,10.3294 L 30.6587,12.5294 L 32.1587,12.5294
 L 32.1587,10.3294 L 38.9762,10.3294 L 38.9762,12.5294 L 40.4762,12.5294 L 40.4762,10.3294 L 47.2937,10.3294
 L 47.2937,12.5294 L 48.7937,12.5294 L 48.7937,9.57938 L 48.5741,9.04904 L 48.1114,8.85739 L 48.1114,8.82938
 L 45.4146,8.82938 L 45.5106,-0 L 44.0106,-0 L 43.9146,8.82938 L 37.0488,8.82938 L 37.1063,-0
 L 35.6063,-0 L 35.5488,8.82938 L 28.6829,8.82938 L 28.7021,-0 L 27.2021,-0 L 27.1829,8.82938
 L 20.7791,8.82938 L 20.4751,8.09549 L 20.3153,8.0293 L 20.2979,-0 L 18.7979,-0 L 18.8154,8.05075
 L 18.7074,8.09549 L 18.4034,8.82938 L 11.9512,8.82938 L 11.8936,-0 L 10.3936,-0 L 10.4512,8.82938
 L 3.58539,8.82938 L 3.48943,-0 L 1.98943,-0 L 2.09354,9.57938 L 2.3132,10.1097 L 2.79843,10.3107
 L 2.79843,10.3294 L 5.70627,10.3294 L 5.70627,12.5294 L 7.20627,12.5294 z
M 3.99355,33.584 L 1.85944,33.584 L 1.58997,11.5294 L 2.20627,11.5294 L 2.20627,12.5294 L 3.70627,12.5294
 L 3.70627,10.7794 L 1.58081,10.7794 L 1.58072,10.772 L 0.83078,10.7811 L 1.11855,34.334 L 1.49355,34.3295
 L 1.49355,34.334 L 2.49355,34.334 L 2.49355,35.334 L 3.99355,35.334 z
M 9.24002,11.5294 L 10.5238,11.5294 L 10.5238,12.5294 L 12.0238,12.5294 L 12.0238,10.7794 L 8.49002,10.7794
 L 8.49002,16.5294 L 7.20627,16.5294 L 7.20627,15.5294 L 5.70627,15.5294 L 5.70627,17.2794 L 9.24002,17.2794
 z
M 42.51,11.5294 L 43.7937,11.5294 L 43.7937,12.5294 L 45.2937,12.5294 L 45.2937,10.7794 L 41.76,10.7794
 L 41.76,16.5294 L 40.4762,16.5294 L 40.4762,15.5294 L 38.9762,15.5294 L 38.9762,17.2794 L 42.51,17.2794
 z
M 34.1925,11.5294 L 35.4762,11.5294 L 35.4762,12.5294 L 36.9762,12.5294 L 36.9762,10.7794 L 33.4425,10.7794
 L 33.4425,16.5294 L 32.1587,16.5294 L 32.1587,15.5294 L 30.6587,15.5294 L 30.6587,17.2794 L 34.1925,17.2794
 z
M 25.875,11.5294 L 27.1587,11.5294 L 27.1587,12.5294 L 28.6587,12.5294 L 28.6587,10.7794 L 25.125,10.7794
 L 25.125,16.5294 L 23.8412,16.5294 L 23.8412,15.5294 L 22.3412,15.5294 L 22.3412,17.2794 L 25.875,17.2794
 z
M 17.5575,11.5294 L 18.8412,11.5294 L 18.8412,12.5294 L 20.3412,12.5294 L 20.3412,10.7794 L 16.8075,10.7794
 L 16.8075,16.5294 L 15.5238,16.5294 L 15.5238,15.5294 L 14.0238,15.5294 L 14.0238,17.2794 L 17.5575,17.2794
 z
M 7.49355,33.134 L 14.1961,33.134 L 14.1961,35.334 L 15.6961,35.334 L 15.6961,33.134 L 22.3987,33.134
 L 22.3987,35.334 L 23.8987,35.334 L 23.8987,33.134 L 30.6013,33.134 L 30.6013,35.334 L 32.1013,35.334
 L 32.1013,33.134 L 38.8039,33.134 L 38.8039,35.334 L 40.3039,35.334 L 40.3039,33.134 L 47.0064,33.134
 L 47.0064,35.334 L 48.5064,35.334 L 48.5064,32.384 L 48.2868,31.8537 L 47.8241,31.662 L 47.8241,31.634
 L 45.1274,31.634 L 45.2855,17.2794 L 45.2937,17.2794 L 45.2937,15.5294 L 43.7937,15.5294 L 43.7937,16.5294
 L 43.6274,31.634 L 36.8765,31.634 L 36.9713,17.2794 L 36.9762,17.2794 L 36.9762,15.5294 L 35.4762,15.5294
 L 35.4762,16.5294 L 35.3765,31.634 L 28.9977,31.634 L 28.7352,31.0001 L 28.627,30.9553 L 28.6571,17.2794
 L 28.6587,17.2794 L 28.6587,15.5294 L 27.1587,15.5294 L 27.1587,16.5294 L 27.127,30.934 L 26.9674,31.0001
 L 26.7048,31.634 L 20.3745,31.634 L 20.3412,16.5294 L 20.3412,15.5294 L 18.8412,15.5294 L 18.8412,17.2794
 L 18.8429,17.2794 L 18.8745,31.634 L 12.1235,31.634 L 12.0238,16.5294 L 12.0238,15.5294 L 10.5238,15.5294
 L 10.5238,17.2794 L 10.5287,17.2794 L 10.6235,31.634 L 3.87254,31.634 L 3.70627,16.5294 L 3.70627,15.5294
 L 2.20627,15.5294 L 2.20627,17.2794 L 2.21452,17.2794 L 2.3808,32.384 L 2.60046,32.9144 L 3.08571,33.1154
 L 3.08571,33.134 L 5.99355,33.134 L 5.99355,35.334 L 7.49355,35.334 z
M 25.875,34.334 L 27.1013,34.334 L 27.1013,35.334 L 28.6013,35.334 L 28.6013,33.584 L 25.125,33.584
 L 25.125,39.334 L 23.8987,39.334 L 23.8987,38.334 L 22.3987,38.334 L 22.3987,40.084 L 25.875,40.084
 z
M 17.6724,34.334 L 18.8987,34.334 L 18.8987,35.334 L 20.3987,35.334 L 20.3987,33.584 L 16.9224,33.584
 L 16.9224,39.334 L 15.6961,39.334 L 15.6961,38.334 L 14.1961,38.334 L 14.1961,40.084 L 17.6724,40.084
 z
M 9.46983,34.334 L 10.6961,34.334 L 10.6961,35.334 L 12.1961,35.334 L 12.1961,33.584 L 8.71983,33.584
 L 8.71983,39.334 L 7.49355,39.334 L 7.49355,38.334 L 5.99355,38.334 L 5.99355,40.084 L 9.46983,40.084
 z
M 42.2802,34.334 L 43.5064,34.334 L 43.5064,35.334 L 45.0064,35.334 L 45.0064,33.584 L 41.5302,33.584
 L 41.5302,39.334 L 40.3039,39.334 L 40.3039,38.334 L 38.8039,38.334 L 38.8039,40.084 L 42.2802,40.084
 z
M 34.0776,34.334 L 35.3039,34.334 L 35.3039,35.334 L 36.8039,35.334 L 36.8039,33.584 L 33.3276,33.584
 L 33.3276,39.334 L 32.1013,39.334 L 32.1013,38.334 L 30.6013,38.334 L 30.6013,40.084 L 34.0776,40.084
 z
M 7.7979,57.2946 L 14.3787,57.2946 L 14.3787,59.4946 L 15.8787,59.4946 L 15.8787,57.2946 L 22.4596,57.2946
 L 22.4596,59.4946 L 23.9596,59.4946 L 23.9596,57.2946 L 30.5404,57.2946 L 30.5404,59.4946 L 32.0404,59.4946
 L 32.0404,57.2946 L 38.6213,57.2946 L 38.6213,59.4946 L 40.1213,59.4946 L 40.1213,57.2946 L 46.7021,57.2946
 L 46.7021,59.4946 L 48.2021,59.4946 L 48.2021,56.5446 L 47.9824,56.0143 L 47.5197,55.8227 L 47.5197,55.7946
 L 44.8232,55.7946 L 44.9981,40.084 L 45.0064,40.084 L 45.0064,38.334 L 43.5064,38.334 L 43.5064,39.334
 L 43.3232,55.7946 L 36.6939,55.7946 L 36.7989,40.084 L 36.8039,40.084 L 36.8039,38.334 L 35.3039,38.334
 L 35.3039,39.334 L 35.1939,55.7946 L 28.5646,55.7946 L 28.5996,40.084 L 28.6013,40.084 L 28.6013,38.334
 L 27.1013,38.334 L 27.1013,39.334 L 27.0646,55.7946 L 20.8974,55.7946 L 20.5935,55.0608 L 20.4336,54.9945
 L 20.3987,39.334 L 20.3987,38.334 L 18.8987,38.334 L 18.8987,40.084 L 18.9004,40.084 L 18.9336,55.0161
 L 18.8257,55.0608 L 18.5217,55.7946 L 12.3061,55.7946 L 12.1961,39.334 L 12.1961,38.334 L 10.6961,38.334
 L 10.6961,40.084 L 10.7011,40.084 L 10.8061,55.7946 L 4.1768,55.7946 L 3.99355,39.334 L 3.99355,38.334
 L 2.49355,38.334 L 2.49355,40.084 L 2.50189,40.084 L 2.68515,56.5446 L 2.90482,57.075 L 3.39005,57.276
 L 3.39005,57.2946 L 6.2979,57.2946 L 6.2979,59.4946 L 7.7979,59.4946 z
M 49.8814,39.345 L 49.7021,39.3429 L 49.7021,39.334 L 48.5064,39.334 L 48.5064,38.334 L 47.0064,38.334
 L 47.0064,40.084 L 49.1223,40.084 L 48.8363,63.4946 L 48.2021,63.4946 L 48.2021,62.4946 L 46.7021,62.4946
 L 46.7021,64.2446 L 48.8271,64.2446 L 49.577,64.2538 z
M 4.62033,83.3419 L 2.48624,83.3419 L 2.18265,58.4946 L 2.7979,58.4946 L 2.7979,59.4946 L 4.2979,59.4946
 L 4.2979,57.7446 L 2.17349,57.7446 L 2.1734,57.7375 L 1.42345,57.7466 L 1.74533,84.0919 L 2.12033,84.0873
 L 2.12033,84.0919 L 3.12033,84.0919 L 3.12033,85.0919 L 4.62033,85.0919 z
M 17.7942,58.4946 L 18.9596,58.4946 L 18.9596,59.4946 L 20.4596,59.4946 L 20.4596,57.7446 L 17.0442,57.7446
 L 17.0442,63.4946 L 15.8787,63.4946 L 15.8787,62.4946 L 14.3787,62.4946 L 14.3787,64.2446 L 17.7942,64.2446
 z
M 42.0367,58.4946 L 43.2021,58.4946 L 43.2021,59.4946 L 44.7021,59.4946 L 44.7021,57.7446 L 41.2867,57.7446
 L 41.2867,63.4946 L 40.1213,63.4946 L 40.1213,62.4946 L 38.6213,62.4946 L 38.6213,64.2446 L 42.0367,64.2446
 z
M 25.875,58.4946 L 27.0404,58.4946 L 27.0404,59.4946 L 28.5404,59.4946 L 28.5404,57.7446 L 25.125,57.7446
 L 25.125,63.4946 L 23.9596,63.4946 L 23.9596,62.4946 L 22.4596,62.4946 L 22.4596,64.2446 L 25.875,64.2446
 z
M 9.71332,58.4946 L 10.8787,58.4946 L 10.8787,59.4946 L 12.3787,59.4946 L 12.3787,57.7446 L 8.96332,57.7446
 L 8.96332,63.4946 L 7.7979,63.4946 L 7.7979,62.4946 L 6.2979,62.4946 L 6.2979,64.2446 L 9.71332,64.2446
 z
M 33.9558,58.4946 L 35.1213,58.4946 L 35.1213,59.4946 L 36.6213,59.4946 L 36.6213,57.7446 L 33.2058,57.7446
 L 33.2058,63.4946 L 32.0404,63.4946 L 32.0404,62.4946 L 30.5404,62.4946 L 30.5404,64.2446 L 33.9558,64.2446
 z
M 8.12033,82.8919 L 14.5722,82.8919 L 14.5722,85.0919 L 16.0722,85.0919 L 16.0722,82.8919 L 22.5241,82.8919
 L 22.5241,85.0919 L 24.0241,85.0919 L 24.0241,82.8919 L 30.4759,82.8919 L 30.4759,85.0919 L 31.9759,85.0919
 L 31.9759,82.8919 L 38.4278,82.8919 L 38.4278,85.0919 L 39.9278,85.0919 L 39.9278,82.8919 L 46.3797,82.8919
 L 46.3797,85.0919 L 47.8797,85.0919 L 47.8797,82.1419 L 47.66,81.6115 L 47.1973,81.4199 L 47.1973,81.3919
 L 44.5008,81.3919 L 44.6937,64.2446 L 44.7021,64.2446 L 44.7021,62.4946 L 43.2021,62.4946 L 43.2021,63.4946
 L 43.0008,81.3919 L 36.5005,81.3919 L 36.6162,64.2446 L 36.6213,64.2446 L 36.6213,62.4946 L 35.1213,62.4946
 L 35.1213,63.4946 L 35.0005,81.3919 L 28.8724,81.3919 L 28.6098,80.758 L 28.5017,80.7132 L 28.5387,64.2446
 L 28.5404,64.2446 L 28.5404,62.4946 L 27.0404,62.4946 L 27.0404,63.4946 L 27.0017,80.6918 L 26.842,80.758
 L 26.5795,81.3919 L 20.4998,81.3919 L 20.4596,63.4946 L 20.4596,62.4946 L 18.9596,62.4946 L 18.9596,64.2446
 L 18.9613,64.2446 L 18.9998,81.3919 L 12.4995,81.3919 L 12.3787,63.4946 L 12.3787,62.4946 L 10.8787,62.4946
 L 10.8787,64.2446 L 10.8838,64.2446 L 10.9995,81.3919 L 4.49916,81.3919 L 4.2979,63.4946 L 4.2979,62.4946
 L 2.7979,62.4946 L 2.7979,64.2446 L 2.80632,64.2446 L 3.0076,82.1419 L 3.22726,82.6722 L 3.71249,82.8732
 L 3.71249,82.8919 L 6.62033,82.8919 L 6.62033,85.0919 L 8.12033,85.0919 z
M 100.065,67.2454 L 100.057,67.2454 L 100.011,63 L 98.5106,63 L 98.5649,67.9954 L 98.5649,68.9954
 L 100.065,68.9954 z
M 57.9351,67.9954 L 57.9894,63 L 56.4894,63 L 56.4433,67.2454 L 56.4351,67.2454 L 56.4351,68.9954
 L 57.9351,68.9954 z
M 74.787,67.9954 L 74.7979,63 L 73.2979,63 L 73.2887,67.2454 L 73.287,67.2454 L 73.287,68.9954
 L 74.787,68.9954 z
M 66.3611,67.9954 L 66.3936,63 L 64.8936,63 L 64.866,67.2454 L 64.8611,67.2454 L 64.8611,68.9954
 L 66.3611,68.9954 z
M 91.6389,67.2454 L 91.634,67.2454 L 91.6063,63 L 90.1063,63 L 90.1389,67.9954 L 90.1389,68.9954
 L 91.6389,68.9954 z
M 83.213,67.2454 L 83.2113,67.2454 L 83.2021,63 L 81.7021,63 L 81.713,67.9954 L 81.713,68.9954
 L 83.213,68.9954 z
M 54.4351,67.2454 L 52.3183,67.2454 L 52.3702,63 L 51.6201,63 L 51.5592,67.9846 L 51.7063,67.9864
 L 51.7063,67.9954 L 52.9351,67.9954 L 52.9351,68.9954 L 54.4351,68.9954 z
M 68.4491,67.9954 L 69.787,67.9954 L 69.787,68.9954 L 71.287,68.9954 L 71.287,67.2454 L 67.6991,67.2454
 L 67.6991,72.9954 L 66.3611,72.9954 L 66.3611,71.9954 L 64.8611,71.9954 L 64.8611,73.7454 L 68.4491,73.7454
 z
M 76.875,67.9954 L 78.213,67.9954 L 78.213,68.9954 L 79.713,68.9954 L 79.713,67.2454 L 76.125,67.2454
 L 76.125,72.9954 L 74.787,72.9954 L 74.787,71.9954 L 73.287,71.9954 L 73.287,73.7454 L 76.875,73.7454
 z
M 60.0231,67.9954 L 61.3611,67.9954 L 61.3611,68.9954 L 62.8611,68.9954 L 62.8611,67.2454 L 59.2731,67.2454
 L 59.2731,72.9954 L 57.9351,72.9954 L 57.9351,71.9954 L 56.4351,71.9954 L 56.4351,73.7454 L 60.0231,73.7454
 z
M 85.3009,67.9954 L 86.6389,67.9954 L 86.6389,68.9954 L 88.1389,68.9954 L 88.1389,67.2454 L 84.5509,67.2454
 L 84.5509,72.9954 L 83.213,72.9954 L 83.213,71.9954 L 81.713,71.9954 L 81.713,73.7454 L 85.3009,73.7454
 z
M 93.7269,67.9954 L 95.0649,67.9954 L 95.0649,68.9954 L 96.5649,68.9954 L 96.5649,67.2454 L 92.9769,67.2454
 L 92.9769,72.9954 L 91.6389,72.9954 L 91.6389,71.9954 L 90.1389,71.9954 L 90.1389,73.7454 L 93.7269,73.7454
 z
M 57.6792,88.3122 L 57.8143,75.6954 L 64.7886,75.6954 L 64.7123,87.5622 L 64.7075,87.5622 L 64.7075,89.3122
 L 66.2075,89.3122 L 66.2075,88.3122 L 66.2886,75.6954 L 72.8906,75.6954 L 73.1531,76.3293 L 73.2614,76.3741
 L 73.2374,87.5622 L 73.2358,87.5622 L 73.2358,89.3122 L 74.7358,89.3122 L 74.7358,88.3122 L 74.7614,76.3954
 L 74.9209,76.3293 L 75.1835,75.6954 L 81.7371,75.6954 L 81.7642,88.3122 L 81.7642,89.3122 L 83.2642,89.3122
 L 83.2642,87.5622 L 83.2625,87.5622 L 83.2371,75.6954 L 90.2114,75.6954 L 90.2925,88.3122 L 90.2925,89.3122
 L 91.7925,89.3122 L 91.7925,87.5622 L 91.7877,87.5622 L 91.7114,75.6954 L 98.6856,75.6954 L 98.8208,88.3122
 L 98.8208,89.3122 L 100.321,89.3122 L 100.321,87.5622 L 100.313,87.5622 L 100.178,74.9454 L 99.9579,74.4151
 L 99.4727,74.2141 L 99.4727,74.1954 L 96.5649,74.1954 L 96.5649,71.9954 L 95.0649,71.9954 L 95.0649,74.1954
 L 88.1389,74.1954 L 88.1389,71.9954 L 86.6389,71.9954 L 86.6389,74.1954 L 79.713,74.1954 L 79.713,71.9954
 L 78.213,71.9954 L 78.213,74.1954 L 71.287,74.1954 L 71.287,71.9954 L 69.787,71.9954 L 69.787,74.1954
 L 62.8611,74.1954 L 62.8611,71.9954 L 61.3611,71.9954 L 61.3611,74.1954 L 54.4351,74.1954 L 54.4351,71.9954
 L 52.9351,71.9954 L 52.9351,74.9454 L 53.1548,75.4757 L 53.6175,75.6674 L 53.6175,75.6954 L 56.3143,75.6954
 L 56.1872,87.5622 L 56.1792,87.5622 L 56.1792,89.3122 L 57.6792,89.3122 z
M 101.697,94.0606 L 101.44,72.9954 L 101.065,73 L 101.065,72.9954 L 100.065,72.9954 L 100.065,71.9954
 L 98.5649,71.9954 L 98.5649,73.7454 L 100.699,73.7454 L 100.938,93.3122 L 100.321,93.3122 L 100.321,92.3122
 L 98.8208,92.3122 L 98.8208,94.0622 L 100.947,94.0622 L 100.947,94.0698 z
M 9.97127,84.0919 L 11.0722,84.0919 L 11.0722,85.0919 L 12.5722,85.0919 L 12.5722,83.3419 L 9.22127,83.3419
 L 9.22127,89.0919 L 8.12033,89.0919 L 8.12033,88.0919 L 6.62033,88.0919 L 6.62033,89.8419 L 9.97127,89.8419
 z
M 41.7787,84.0919 L 42.8797,84.0919 L 42.8797,85.0919 L 44.3797,85.0919 L 44.3797,83.3419 L 41.0287,83.3419
 L 41.0287,89.0919 L 39.9278,89.0919 L 39.9278,88.0919 L 38.4278,88.0919 L 38.4278,89.8419 L 41.7787,89.8419
 z
M 17.9231,84.0919 L 19.0241,84.0919 L 19.0241,85.0919 L 20.5241,85.0919 L 20.5241,83.3419 L 17.1731,83.3419
 L 17.1731,89.0919 L 16.0722,89.0919 L 16.0722,88.0919 L 14.5722,88.0919 L 14.5722,89.8419 L 17.9231,89.8419
 z
M 25.875,84.0919 L 26.9759,84.0919 L 26.9759,85.0919 L 28.4759,85.0919 L 28.4759,83.3419 L 25.125,83.3419
 L 25.125,89.0919 L 24.0241,89.0919 L 24.0241,88.0919 L 22.5241,88.0919 L 22.5241,89.8419 L 25.875,89.8419
 z
M 33.8269,84.0919 L 34.9278,84.0919 L 34.9278,85.0919 L 36.4278,85.0919 L 36.4278,83.3419 L 33.0769,83.3419
 L 33.0769,89.0919 L 31.9759,89.0919 L 31.9759,88.0919 L 30.4759,88.0919 L 30.4759,89.8419 L 33.8269,89.8419
 z
M 53.9376,106.739 L 51.8199,106.739 L 52.045,88.3122 L 52.6792,88.3122 L 52.6792,89.3122 L 54.1792,89.3122
 L 54.1792,87.5622 L 52.0542,87.5622 L 51.3043,87.553 L 51.0608,107.478 L 51.1792,107.479 L 51.1792,107.489
 L 52.4376,107.489 L 52.4376,108.489 L 53.9376,108.489 z
M 68.3467,88.3122 L 69.7358,88.3122 L 69.7358,89.3122 L 71.2358,89.3122 L 71.2358,87.5622 L 67.5967,87.5622
 L 67.5967,93.3122 L 66.2075,93.3122 L 66.2075,92.3122 L 64.7075,92.3122 L 64.7075,94.0622 L 68.3467,94.0622
 z
M 85.4033,88.3122 L 86.7925,88.3122 L 86.7925,89.3122 L 88.2925,89.3122 L 88.2925,87.5622 L 84.6533,87.5622
 L 84.6533,93.3122 L 83.2642,93.3122 L 83.2642,92.3122 L 81.7642,92.3122 L 81.7642,94.0622 L 85.4033,94.0622
 z
M 93.9316,88.3122 L 95.3208,88.3122 L 95.3208,89.3122 L 96.8208,89.3122 L 96.8208,87.5622 L 93.1816,87.5622
 L 93.1816,93.3122 L 91.7925,93.3122 L 91.7925,92.3122 L 90.2925,92.3122 L 90.2925,94.0622 L 93.9316,94.0622
 z
M 59.8184,88.3122 L 61.2075,88.3122 L 61.2075,89.3122 L 62.7075,89.3122 L 62.7075,87.5622 L 59.0684,87.5622
 L 59.0684,93.3122 L 57.6792,93.3122 L 57.6792,92.3122 L 56.1792,92.3122 L 56.1792,94.0622 L 59.8184,94.0622
 z
M 76.875,88.3122 L 78.2642,88.3122 L 78.2642,89.3122 L 79.7642,89.3122 L 79.7642,87.5622 L 76.125,87.5622
 L 76.125,93.3122 L 74.7358,93.3122 L 74.7358,92.3122 L 73.2358,92.3122 L 73.2358,94.0622 L 76.875,94.0622
 z
M 8.46196,110.011 L 14.7772,110.011 L 14.7772,112.211 L 16.2772,112.211 L 16.2772,110.011 L 22.5924,110.011
 L 22.5924,112.211 L 24.0924,112.211 L 24.0924,110.011 L 30.4076,110.011 L 30.4076,112.211 L 31.9076,112.211
 L 31.9076,110.011 L 38.2228,110.011 L 38.2228,112.211 L 39.7228,112.211 L 39.7228,110.011 L 46.038,110.011
 L 46.038,112.211 L 47.538,112.211 L 47.538,109.261 L 47.3184,108.731 L 46.8557,108.539 L 46.8557,108.511
 L 44.1593,108.511 L 44.3711,89.8419 L 44.3797,89.8419 L 44.3797,88.0919 L 42.8797,88.0919 L 42.8797,89.0919
 L 42.6593,108.511 L 36.2956,108.511 L 36.4227,89.8419 L 36.4278,89.8419 L 36.4278,88.0919 L 34.9278,88.0919
 L 34.9278,89.0919 L 34.7956,108.511 L 28.4319,108.511 L 28.4742,89.8419 L 28.4759,89.8419 L 28.4759,88.0919
 L 26.9759,88.0919 L 26.9759,89.0919 L 26.9319,108.511 L 21.0303,108.511 L 20.7263,107.777 L 20.5663,107.711
 L 20.5241,89.0919 L 20.5241,88.0919 L 19.0241,88.0919 L 19.0241,89.8419 L 19.0258,89.8419 L 19.0664,107.733
 L 18.9585,107.777 L 18.6545,108.511 L 12.7044,108.511 L 12.5722,89.0919 L 12.5722,88.0919 L 11.0722,88.0919
 L 11.0722,89.8419 L 11.0773,89.8419 L 11.2044,108.511 L 4.8407,108.511 L 4.62033,89.0919 L 4.62033,88.0919
 L 3.12033,88.0919 L 3.12033,89.8419 L 3.12885,89.8419 L 3.34921,109.261 L 3.56888,109.791 L 4.05412,109.992
 L 4.05412,110.011 L 6.96196,110.011 L 6.96196,112.211 L 8.46196,112.211 z
M 49.2534,89.1031 L 49.038,89.1005 L 49.038,89.0919 L 47.8797,89.0919 L 47.8797,88.0919 L 46.3797,88.0919
 L 46.3797,89.8419 L 48.4944,89.8419 L 48.1722,116.211 L 47.538,116.211 L 47.538,115.211 L 46.038,115.211
 L 46.038,116.961 L 48.163,116.961 L 48.913,116.97 z
M 57.4376,107.489 L 57.5586,96.0122 L 64.6351,96.0122 L 64.5673,106.739 L 64.5626,106.739 L 64.5626,108.489
 L 66.0626,108.489 L 66.0626,107.489 L 66.1351,96.0122 L 73.2117,96.0122 L 73.1891,106.739 L 73.1875,106.739
 L 73.1875,108.489 L 74.6875,108.489 L 74.6875,107.489 L 74.7117,96.0122 L 81.3263,96.0122 L 81.6303,96.746
 L 81.79,96.8122 L 81.8125,107.489 L 81.8125,108.489 L 83.3125,108.489 L 83.3125,106.739 L 83.3109,106.739
 L 83.2899,96.7908 L 83.398,96.746 L 83.702,96.0122 L 90.3649,96.0122 L 90.4374,107.489 L 90.4374,108.489
 L 91.9374,108.489 L 91.9374,106.739 L 91.9327,106.739 L 91.8649,96.0122 L 98.9414,96.0122 L 99.0623,107.489
 L 99.0623,108.489 L 100.562,108.489 L 100.562,106.739 L 100.554,106.739 L 100.434,95.2622 L 100.214,94.7318
 L 99.7286,94.5309 L 99.7286,94.5122 L 96.8208,94.5122 L 96.8208,92.3122 L 95.3208,92.3122 L 95.3208,94.5122
 L 88.2925,94.5122 L 88.2925,92.3122 L 86.7925,92.3122 L 86.7925,94.5122 L 79.7642,94.5122 L 79.7642,92.3122
 L 78.2642,92.3122 L 78.2642,94.5122 L 71.2358,94.5122 L 71.2358,92.3122 L 69.7358,92.3122 L 69.7358,94.5122
 L 62.7075,94.5122 L 62.7075,92.3122 L 61.2075,92.3122 L 61.2075,94.5122 L 54.1792,94.5122 L 54.1792,92.3122
 L 52.6792,92.3122 L 52.6792,95.2622 L 52.8989,95.7925 L 53.3616,95.9842 L 53.3616,96.0122 L 56.0586,96.0122
 L 55.9455,106.739 L 55.9376,106.739 L 55.9376,108.489 L 57.4376,108.489 z
M 76.875,107.489 L 78.3125,107.489 L 78.3125,108.489 L 79.8125,108.489 L 79.8125,106.739 L 76.125,106.739
 L 76.125,112.489 L 74.6875,112.489 L 74.6875,111.489 L 73.1875,111.489 L 73.1875,113.239 L 76.875,113.239
 z
M 59.6251,107.489 L 61.0626,107.489 L 61.0626,108.489 L 62.5626,108.489 L 62.5626,106.739 L 58.8751,106.739
 L 58.8751,112.489 L 57.4376,112.489 L 57.4376,111.489 L 55.9376,111.489 L 55.9376,113.239 L 59.6251,113.239
 z
M 85.4999,107.489 L 86.9374,107.489 L 86.9374,108.489 L 88.4374,108.489 L 88.4374,106.739 L 84.7499,106.739
 L 84.7499,112.489 L 83.3125,112.489 L 83.3125,111.489 L 81.8125,111.489 L 81.8125,113.239 L 85.4999,113.239
 z
M 94.1249,107.489 L 95.5623,107.489 L 95.5623,108.489 L 97.0623,108.489 L 97.0623,106.739 L 93.3749,106.739
 L 93.3749,112.489 L 91.9374,112.489 L 91.9374,111.489 L 90.4374,111.489 L 90.4374,113.239 L 94.1249,113.239
 z
M 68.25,107.489 L 69.6875,107.489 L 69.6875,108.489 L 71.1875,108.489 L 71.1875,106.739 L 67.5,106.739
 L 67.5,112.489 L 66.0626,112.489 L 66.0626,111.489 L 64.5626,111.489 L 64.5626,113.239 L 68.25,113.239
 z
M 5.32388,139.193 L 3.18977,139.193 L 2.8479,111.211 L 3.46196,111.211 L 3.46196,112.211 L 4.96196,112.211
 L 4.96196,110.461 L 2.83875,110.461 L 2.83865,110.454 L 2.08871,110.463 L 2.44888,139.943 L 2.82388,139.938
 L 2.82388,139.943 L 3.82388,139.943 L 3.82388,140.943 L 5.32388,140.943 z
M 25.875,111.211 L 26.9076,111.211 L 26.9076,112.211 L 28.4076,112.211 L 28.4076,110.461 L 25.125,110.461
 L 25.125,116.211 L 24.0924,116.211 L 24.0924,115.211 L 22.5924,115.211 L 22.5924,116.961 L 25.875,116.961
 z
M 10.2446,111.211 L 11.2772,111.211 L 11.2772,112.211 L 12.7772,112.211 L 12.7772,110.461 L 9.49457,110.461
 L 9.49457,116.211 L 8.46196,116.211 L 8.46196,115.211 L 6.96196,115.211 L 6.96196,116.961 L 10.2446,116.961
 z
M 41.5054,111.211 L 42.538,111.211 L 42.538,112.211 L 44.038,112.211 L 44.038,110.461 L 40.7554,110.461
 L 40.7554,116.211 L 39.7228,116.211 L 39.7228,115.211 L 38.2228,115.211 L 38.2228,116.961 L 41.5054,116.961
 z
M 18.0598,111.211 L 19.0924,111.211 L 19.0924,112.211 L 20.5924,112.211 L 20.5924,110.461 L 17.3098,110.461
 L 17.3098,116.211 L 16.2772,116.211 L 16.2772,115.211 L 14.7772,115.211 L 14.7772,116.961 L 18.0598,116.961
 z
M 33.6902,111.211 L 34.7228,111.211 L 34.7228,112.211 L 36.2228,112.211 L 36.2228,110.461 L 32.9402,110.461
 L 32.9402,116.211 L 31.9076,116.211 L 31.9076,115.211 L 30.4076,115.211 L 30.4076,116.961 L 33.6902,116.961
 z
M 57.2096,125.589 L 57.3171,115.189 L 64.4903,115.189 L 64.4304,124.839 L 64.4258,124.839 L 64.4258,126.589
 L 65.9258,126.589 L 65.9258,125.589 L 65.9903,115.189 L 72.7911,115.189 L 73.0536,115.823 L 73.162,115.867
 L 73.1435,124.839 L 73.1419,124.839 L 73.1419,126.589 L 74.6419,126.589 L 74.6419,125.589 L 74.662,115.889
 L 74.8214,115.823 L 75.084,115.189 L 81.8366,115.189 L 81.8581,125.589 L 81.8581,126.589 L 83.3581,126.589
 L 83.3581,124.839 L 83.3565,124.839 L 83.3366,115.189 L 90.5097,115.189 L 90.5742,125.589 L 90.5742,126.589
 L 92.0742,126.589 L 92.0742,124.839 L 92.0696,124.839 L 92.0097,115.189 L 99.1828,115.189 L 99.2904,125.589
 L 99.2904,126.589 L 100.79,126.589 L 100.79,124.839 L 100.783,124.839 L 100.675,114.439 L 100.455,113.908
 L 99.9702,113.707 L 99.9702,113.689 L 97.0623,113.689 L 97.0623,111.489 L 95.5623,111.489 L 95.5623,113.689
 L 88.4374,113.689 L 88.4374,111.489 L 86.9374,111.489 L 86.9374,113.689 L 79.8125,113.689 L 79.8125,111.489
 L 78.3125,111.489 L 78.3125,113.689 L 71.1875,113.689 L 71.1875,111.489 L 69.6875,111.489 L 69.6875,113.689
 L 62.5626,113.689 L 62.5626,111.489 L 61.0626,111.489 L 61.0626,113.689 L 53.9376,113.689 L 53.9376,111.489
 L 52.4376,111.489 L 52.4376,114.439 L 52.6573,114.969 L 53.12,115.161 L 53.12,115.189 L 55.8171,115.189
 L 55.7174,124.839 L 55.7096,124.839 L 55.7096,126.589 L 57.2096,126.589 z
M 102.168,131.338 L 101.937,112.489 L 101.562,112.493 L 101.562,112.489 L 100.562,112.489 L 100.562,111.489
 L 99.0623,111.489 L 99.0623,113.239 L 101.196,113.239 L 101.408,130.589 L 100.79,130.589 L 100.79,129.589
 L 99.2904,129.589 L 99.2904,131.339 L 101.418,131.339 L 101.418,131.347 z
M 8.82388,138.743 L 14.9943,138.743 L 14.9943,140.943 L 16.4943,140.943 L 16.4943,138.743 L 22.6648,138.743
 L 22.6648,140.943 L 24.1648,140.943 L 24.1648,138.743 L 30.3352,138.743 L 30.3352,140.943 L 31.8352,140.943
 L 31.8352,138.743 L 38.0057,138.743 L 38.0057,140.943 L 39.5057,140.943 L 39.5057,138.743 L 45.6761,138.743
 L 45.6761,140.943 L 47.1761,140.943 L 47.1761,137.993 L 46.9564,137.462 L 46.4937,137.271 L 46.4937,137.243
 L 43.7974,137.243 L 44.0294,116.961 L 44.038,116.961 L 44.038,115.211 L 42.538,115.211 L 42.538,116.211
 L 42.2974,137.243 L 36.0784,137.243 L 36.2177,116.961 L 36.2228,116.961 L 36.2228,115.211 L 34.7228,115.211
 L 34.7228,116.211 L 34.5784,137.243 L 28.7317,137.243 L 28.4691,136.609 L 28.361,136.564 L 28.4059,116.961
 L 28.4076,116.961 L 28.4076,115.211 L 26.9076,115.211 L 26.9076,116.211 L 26.8611,136.543 L 26.7013,136.609
 L 26.4388,137.243 L 20.6405,137.243 L 20.5924,116.211 L 20.5924,115.211 L 19.0924,115.211 L 19.0924,116.961
 L 19.0941,116.961 L 19.1405,137.243 L 12.9215,137.243 L 12.7772,116.211 L 12.7772,115.211 L 11.2772,115.211
 L 11.2772,116.961 L 11.2823,116.961 L 11.4215,137.243 L 5.20256,137.243 L 4.96196,116.211 L 4.96196,115.211
 L 3.46196,115.211 L 3.46196,116.961 L 3.47054,116.961 L 3.71114,137.993 L 3.93082,138.523 L 4.41605,138.724
 L 4.41605,138.743 L 7.32388,138.743 L 7.32388,140.943 L 8.82388,140.943 z
M 53.4944,141.923 L 51.3759,141.923 L 51.5755,125.589 L 52.2096,125.589 L 52.2096,126.589 L 53.7096,126.589
 L 53.7096,124.839 L 51.5846,124.839 L 50.8347,124.83 L 50.6168,142.663 L 50.7096,142.664 L 50.7096,142.673
 L 51.9944,142.673 L 51.9944,143.673 L 53.4944,143.673 z
M 85.5911,125.589 L 87.0742,125.589 L 87.0742,126.589 L 88.5742,126.589 L 88.5742,124.839 L 84.8411,124.839
 L 84.8411,130.589 L 83.3581,130.589 L 83.3581,129.589 L 81.8581,129.589 L 81.8581,131.339 L 85.5911,131.339
 z
M 76.875,125.589 L 78.3581,125.589 L 78.3581,126.589 L 79.8581,126.589 L 79.8581,124.839 L 76.125,124.839
 L 76.125,130.589 L 74.6419,130.589 L 74.6419,129.589 L 73.1419,129.589 L 73.1419,131.339 L 76.875,131.339
 z
M 94.3073,125.589 L 95.7904,125.589 L 95.7904,126.589 L 97.2904,126.589 L 97.2904,124.839 L 93.5573,124.839
 L 93.5573,130.589 L 92.0742,130.589 L 92.0742,129.589 L 90.5742,129.589 L 90.5742,131.339 L 94.3073,131.339
 z
M 68.1588,125.589 L 69.6419,125.589 L 69.6419,126.589 L 71.1419,126.589 L 71.1419,124.839 L 67.4088,124.839
 L 67.4088,130.589 L 65.9258,130.589 L 65.9258,129.589 L 64.4258,129.589 L 64.4258,131.339 L 68.1588,131.339
 z
M 59.4427,125.589 L 60.9258,125.589 L 60.9258,126.589 L 62.4258,126.589 L 62.4258,124.839 L 58.6927,124.839
 L 58.6927,130.589 L 57.2096,130.589 L 57.2096,129.589 L 55.7096,129.589 L 55.7096,131.339 L 59.4427,131.339
 z
M 56.9944,142.673 L 57.0893,133.289 L 64.3536,133.289 L 64.3012,141.923 L 64.2966,141.923 L 64.2966,143.673
 L 65.7966,143.673 L 65.7966,142.673 L 65.8536,133.289 L 73.1179,133.289 L 73.1004,141.923 L 73.0989,141.923
 L 73.0989,143.673 L 74.5989,143.673 L 74.5989,142.673 L 74.6179,133.289 L 81.4202,133.289 L 81.7242,134.023
 L 81.8837,134.089 L 81.9011,142.673 L 81.9011,143.673 L 83.4011,143.673 L 83.4011,141.923 L 83.3996,141.923
 L 83.3837,134.068 L 83.492,134.023 L 83.7959,133.289 L 90.6464,133.289 L 90.7033,142.673 L 90.7033,143.673
 L 92.2033,143.673 L 92.2033,141.923 L 92.1988,141.923 L 92.1464,133.289 L 99.4107,133.289 L 99.5056,142.673
 L 99.5056,143.673 L 101.006,143.673 L 101.006,141.923 L 100.998,141.923 L 100.903,132.539 L 100.683,132.009
 L 100.198,131.808 L 100.198,131.789 L 97.2904,131.789 L 97.2904,129.589 L 95.7904,129.589 L 95.7904,131.789
 L 88.5742,131.789 L 88.5742,129.589 L 87.0742,129.589 L 87.0742,131.789 L 79.8581,131.789 L 79.8581,129.589
 L 78.3581,129.589 L 78.3581,131.789 L 71.1419,131.789 L 71.1419,129.589 L 69.6419,129.589 L 69.6419,131.789
 L 62.4258,131.789 L 62.4258,129.589 L 60.9258,129.589 L 60.9258,131.789 L 53.7096,131.789 L 53.7096,129.589
 L 52.2096,129.589 L 52.2096,132.539 L 52.4293,133.069 L 52.892,133.261 L 52.892,133.289 L 55.5893,133.289
 L 55.502,141.923 L 55.4944,141.923 L 55.4944,143.673 L 56.9944,143.673 z
M 41.2159,139.943 L 42.1761,139.943 L 42.1761,140.943 L 43.6761,140.943 L 43.6761,139.193 L 40.4659,139.193
 L 40.4659,144.943 L 39.5057,144.943 L 39.5057,143.943 L 38.0057,143.943 L 38.0057,145.693 L 41.2159,145.693
 z
M 18.2045,139.943 L 19.1648,139.943 L 19.1648,140.943 L 20.6648,140.943 L 20.6648,139.193 L 17.4545,139.193
 L 17.4545,144.943 L 16.4943,144.943 L 16.4943,143.943 L 14.9943,143.943 L 14.9943,145.693 L 18.2045,145.693
 z
M 10.5341,139.943 L 11.4943,139.943 L 11.4943,140.943 L 12.9943,140.943 L 12.9943,139.193 L 9.7841,139.193
 L 9.7841,144.943 L 8.82388,144.943 L 8.82388,143.943 L 7.32388,143.943 L 7.32388,145.693 L 10.5341,145.693
 z
M 25.875,139.943 L 26.8352,139.943 L 26.8352,140.943 L 28.3352,140.943 L 28.3352,139.193 L 25.125,139.193
 L 25.125,144.943 L 24.1648,144.943 L 24.1648,143.943 L 22.6648,143.943 L 22.6648,145.693 L 25.875,145.693
 z
M 33.5454,139.943 L 34.5057,139.943 L 34.5057,140.943 L 36.0057,140.943 L 36.0057,139.193 L 32.7954,139.193
 L 32.7954,144.943 L 31.8352,144.943 L 31.8352,143.943 L 30.3352,143.943 L 30.3352,145.693 L 33.5454,145.693
 z
M 85.6772,142.673 L 87.2033,142.673 L 87.2033,143.673 L 88.7033,143.673 L 88.7033,141.923 L 84.9272,141.923
 L 84.9272,147.673 L 83.4011,147.673 L 83.4011,146.673 L 81.9011,146.673 L 81.9011,148.423 L 85.6772,148.423
 z
M 94.4795,142.673 L 96.0056,142.673 L 96.0056,143.673 L 97.5056,143.673 L 97.5056,141.923 L 93.7295,141.923
 L 93.7295,147.673 L 92.2033,147.673 L 92.2033,146.673 L 90.7033,146.673 L 90.7033,148.423 L 94.4795,148.423
 z
M 59.2705,142.673 L 60.7966,142.673 L 60.7966,143.673 L 62.2966,143.673 L 62.2966,141.923 L 58.5205,141.923
 L 58.5205,147.673 L 56.9944,147.673 L 56.9944,146.673 L 55.4944,146.673 L 55.4944,148.423 L 59.2705,148.423
 z
M 76.875,142.673 L 78.4011,142.673 L 78.4011,143.673 L 79.9011,143.673 L 79.9011,141.923 L 76.125,141.923
 L 76.125,147.673 L 74.5989,147.673 L 74.5989,146.673 L 73.0989,146.673 L 73.0989,148.423 L 76.875,148.423
 z
M 68.0728,142.673 L 69.5989,142.673 L 69.5989,143.673 L 71.0989,143.673 L 71.0989,141.923 L 67.3228,141.923
 L 67.3228,147.673 L 65.7966,147.673 L 65.7966,146.673 L 64.2966,146.673 L 64.2966,148.423 L 68.0728,148.423
 z
M 48.5486,144.954 L 48.2926,144.951 L 48.2926,144.943 L 47.1761,144.943 L 47.1761,143.943 L 45.6761,143.943
 L 45.6761,145.693 L 47.7896,145.693 L 47.4176,176.133 L 48.1676,176.142 z
M 9.20734,169.183 L 15.2244,169.183 L 15.2244,171.383 L 16.7244,171.383 L 16.7244,169.183 L 22.7415,169.183
 L 22.7415,171.383 L 24.2415,171.383 L 24.2415,169.183 L 30.2585,169.183 L 30.2585,171.383 L 31.7585,171.383
 L 31.7585,169.183 L 37.7756,169.183 L 37.7756,171.383 L 39.2756,171.383 L 39.2756,169.183 L 45.2926,169.183
 L 45.2926,171.383 L 46.7926,171.383 L 46.7926,168.433 L 46.573,167.903 L 46.1103,167.711 L 46.1103,167.683
 L 43.414,167.683 L 43.6675,145.693 L 43.6761,145.693 L 43.6761,143.943 L 42.1761,143.943 L 42.1761,144.943
 L 41.914,167.683 L 35.8484,167.683 L 36.0005,145.693 L 36.0057,145.693 L 36.0057,143.943 L 34.5057,143.943
 L 34.5057,144.943 L 34.3484,167.683 L 28.2828,167.683 L 28.3335,145.693 L 28.3352,145.693 L 28.3352,143.943
 L 26.8352,143.943 L 26.8352,144.943 L 26.7828,167.683 L 21.1793,167.683 L 20.8754,166.949 L 20.7153,166.883
 L 20.6648,144.943 L 20.6648,143.943 L 19.1648,143.943 L 19.1648,145.693 L 19.1665,145.693 L 19.2154,166.904
 L 19.1076,166.949 L 18.8036,167.683 L 13.1516,167.683 L 12.9943,144.943 L 12.9943,143.943 L 11.4943,143.943
 L 11.4943,145.693 L 11.4995,145.693 L 11.6516,167.683 L 5.58595,167.683 L 5.32388,144.943 L 5.32388,143.943
 L 3.82388,143.943 L 3.82388,145.693 L 3.83253,145.693 L 4.09459,168.433 L 4.31427,168.963 L 4.7995,169.164
 L 4.7995,169.183 L 7.70734,169.183 L 7.70734,171.383 L 9.20734,171.383 z
M 56.7913,158.799 L 56.8743,150.373 L 64.2246,150.373 L 64.1792,158.049 L 64.1748,158.049 L 64.1748,159.799
 L 65.6748,159.799 L 65.6748,158.799 L 65.7246,150.373 L 72.7024,150.373 L 72.965,151.007 L 73.0735,151.052
 L 73.0597,158.049 L 73.0583,158.049 L 73.0583,159.799 L 74.5583,159.799 L 74.5583,158.799 L 74.5735,151.073
 L 74.7328,151.007 L 74.9953,150.373 L 81.9251,150.373 L 81.9417,158.799 L 81.9417,159.799 L 83.4417,159.799
 L 83.4417,158.049 L 83.4403,158.049 L 83.4251,150.373 L 90.7754,150.373 L 90.8252,158.799 L 90.8252,159.799
 L 92.3252,159.799 L 92.3252,158.049 L 92.3208,158.049 L 92.2754,150.373 L 99.6257,150.373 L 99.7087,158.799
 L 99.7087,159.799 L 101.209,159.799 L 101.209,158.049 L 101.201,158.049 L 101.118,149.623 L 100.899,149.093
 L 100.413,148.892 L 100.413,148.873 L 97.5056,148.873 L 97.5056,146.673 L 96.0056,146.673 L 96.0056,148.873
 L 88.7033,148.873 L 88.7033,146.673 L 87.2033,146.673 L 87.2033,148.873 L 79.9011,148.873 L 79.9011,146.673
 L 78.4011,146.673 L 78.4011,148.873 L 71.0989,148.873 L 71.0989,146.673 L 69.5989,146.673 L 69.5989,148.873
 L 62.2966,148.873 L 62.2966,146.673 L 60.7966,146.673 L 60.7966,148.873 L 53.4944,148.873 L 53.4944,146.673
 L 51.9944,146.673 L 51.9944,149.623 L 52.2141,150.154 L 52.6768,150.345 L 52.6768,150.373 L 55.3743,150.373
 L 55.2987,158.049 L 55.2913,158.049 L 55.2913,159.799 L 56.7913,159.799 z
M 102.587,164.548 L 102.381,147.673 L 102.006,147.678 L 102.006,147.673 L 101.006,147.673 L 101.006,146.673
 L 99.5056,146.673 L 99.5056,148.423 L 101.64,148.423 L 101.828,163.799 L 101.209,163.799 L 101.209,162.799
 L 99.7087,162.799 L 99.7087,164.549 L 101.837,164.549 L 101.837,164.557 z
M 53.0995,173.27 L 50.9803,173.27 L 51.1663,158.049 L 50.4163,158.04 L 50.2212,174.009 L 50.2913,174.01
 L 50.2913,174.02 L 51.5995,174.02 L 51.5995,175.02 L 53.0995,175.02 z
M 59.108,158.799 L 60.6748,158.799 L 60.6748,159.799 L 62.1748,159.799 L 62.1748,158.049 L 58.358,158.049
 L 58.358,163.799 L 56.7913,163.799 L 56.7913,162.799 L 55.2913,162.799 L 55.2913,164.549 L 59.108,164.549
 z
M 67.9915,158.799 L 69.5583,158.799 L 69.5583,159.799 L 71.0583,159.799 L 71.0583,158.049 L 67.2415,158.049
 L 67.2415,163.799 L 65.6748,163.799 L 65.6748,162.799 L 64.1748,162.799 L 64.1748,164.549 L 67.9915,164.549
 z
M 85.7585,158.799 L 87.3252,158.799 L 87.3252,159.799 L 88.8252,159.799 L 88.8252,158.049 L 85.0085,158.049
 L 85.0085,163.799 L 83.4417,163.799 L 83.4417,162.799 L 81.9417,162.799 L 81.9417,164.549 L 85.7585,164.549
 z
M 53.2913,158.049 L 51.1663,158.049 L 51.1571,158.799 L 51.7913,158.799 L 51.7913,159.799 L 53.2913,159.799
 z
M 76.875,158.799 L 78.4417,158.799 L 78.4417,159.799 L 79.9417,159.799 L 79.9417,158.049 L 76.125,158.049
 L 76.125,163.799 L 74.5583,163.799 L 74.5583,162.799 L 73.0583,162.799 L 73.0583,164.549 L 76.875,164.549
 z
M 94.642,158.799 L 96.2087,158.799 L 96.2087,159.799 L 97.7087,159.799 L 97.7087,158.049 L 93.892,158.049
 L 93.892,163.799 L 92.3252,163.799 L 92.3252,162.799 L 90.8252,162.799 L 90.8252,164.549 L 94.642,164.549
 z
M 56.5995,174.02 L 56.6714,166.499 L 64.1028,166.499 L 64.064,173.27 L 64.0597,173.27 L 64.0597,175.02
 L 65.5597,175.02 L 65.5597,174.02 L 65.6028,166.499 L 73.0343,166.499 L 73.0213,173.27 L 73.0199,173.27
 L 73.0199,175.02 L 74.5199,175.02 L 74.5199,174.02 L 74.5343,166.499 L 81.5039,166.499 L 81.8079,167.233
 L 81.9672,167.299 L 81.9801,174.02 L 81.9801,175.02 L 83.4801,175.02 L 83.4801,173.27 L 83.4787,173.27
 L 83.4672,167.278 L 83.5756,167.233 L 83.8796,166.499 L 90.8972,166.499 L 90.9403,174.02 L 90.9403,175.02
 L 92.4403,175.02 L 92.4403,173.27 L 92.436,173.27 L 92.3972,166.499 L 99.8286,166.499 L 99.9004,174.02
 L 99.9004,175.02 L 101.4,175.02 L 101.4,173.27 L 101.393,173.27 L 101.321,165.749 L 101.102,165.219
 L 100.617,165.018 L 100.617,164.999 L 97.7087,164.999 L 97.7087,162.799 L 96.2087,162.799 L 96.2087,164.999
 L 88.8252,164.999 L 88.8252,162.799 L 87.3252,162.799 L 87.3252,164.999 L 79.9417,164.999 L 79.9417,162.799
 L 78.4417,162.799 L 78.4417,164.999 L 71.0583,164.999 L 71.0583,162.799 L 69.5583,162.799 L 69.5583,164.999
 L 62.1748,164.999 L 62.1748,162.799 L 60.6748,162.799 L 60.6748,164.999 L 53.2913,164.999 L 53.2913,162.799
 L 51.7913,162.799 L 51.7913,165.749 L 52.011,166.279 L 52.4736,166.471 L 52.4736,166.499 L 55.1714,166.499
 L 55.1067,173.27 L 55.0995,173.27 L 55.0995,175.02 L 56.5995,175.02 z
M 6.11359,201.883 L 3.97948,201.883 L 3.59462,170.383 L 4.20734,170.383 L 4.20734,171.383 L 5.70734,171.383
 L 5.70734,169.633 L 3.58545,169.633 L 3.58537,169.626 L 2.83542,169.635 L 3.23859,202.633 L 3.61359,202.628
 L 3.61359,202.633 L 4.61359,202.633 L 4.61359,203.633 L 6.11359,203.633 z
M 18.3579,170.383 L 19.2415,170.383 L 19.2415,171.383 L 20.7415,171.383 L 20.7415,169.633 L 17.6079,169.633
 L 17.6079,175.383 L 16.7244,175.383 L 16.7244,174.383 L 15.2244,174.383 L 15.2244,176.133 L 18.3579,176.133
 z
M 25.875,170.383 L 26.7585,170.383 L 26.7585,171.383 L 28.2585,171.383 L 28.2585,169.633 L 25.125,169.633
 L 25.125,175.383 L 24.2415,175.383 L 24.2415,174.383 L 22.7415,174.383 L 22.7415,176.133 L 25.875,176.133
 z
M 33.3921,170.383 L 34.2756,170.383 L 34.2756,171.383 L 35.7756,171.383 L 35.7756,169.633 L 32.6421,169.633
 L 32.6421,175.383 L 31.7585,175.383 L 31.7585,174.383 L 30.2585,174.383 L 30.2585,176.133 L 33.3921,176.133
 z
M 40.9091,170.383 L 41.7926,170.383 L 41.7926,171.383 L 43.2926,171.383 L 43.2926,169.633 L 40.1591,169.633
 L 40.1591,175.383 L 39.2756,175.383 L 39.2756,174.383 L 37.7756,174.383 L 37.7756,176.133 L 40.9091,176.133
 z
M 10.8409,170.383 L 11.7244,170.383 L 11.7244,171.383 L 13.2244,171.383 L 13.2244,169.633 L 10.0909,169.633
 L 10.0909,175.383 L 9.20734,175.383 L 9.20734,174.383 L 7.70734,174.383 L 7.70734,176.133 L 10.8409,176.133
 z
M 94.7953,174.02 L 96.4004,174.02 L 96.4004,175.02 L 97.9004,175.02 L 97.9004,173.27 L 94.0453,173.27
 L 94.0453,179.02 L 92.4403,179.02 L 92.4403,178.02 L 90.9403,178.02 L 90.9403,179.77 L 94.7953,179.77
 z
M 76.875,174.02 L 78.4801,174.02 L 78.4801,175.02 L 79.9801,175.02 L 79.9801,173.27 L 76.125,173.27
 L 76.125,179.02 L 74.5199,179.02 L 74.5199,178.02 L 73.0199,178.02 L 73.0199,179.77 L 76.875,179.77
 z
M 67.9148,174.02 L 69.5199,174.02 L 69.5199,175.02 L 71.0199,175.02 L 71.0199,173.27 L 67.1648,173.27
 L 67.1648,179.02 L 65.5597,179.02 L 65.5597,178.02 L 64.0597,178.02 L 64.0597,179.77 L 67.9148,179.77
 z
M 58.9546,174.02 L 60.5597,174.02 L 60.5597,175.02 L 62.0597,175.02 L 62.0597,173.27 L 58.2046,173.27
 L 58.2046,179.02 L 56.5995,179.02 L 56.5995,178.02 L 55.0995,178.02 L 55.0995,179.77 L 58.9546,179.77
 z
M 85.8352,174.02 L 87.4403,174.02 L 87.4403,175.02 L 88.9403,175.02 L 88.9403,173.27 L 85.0852,173.27
 L 85.0852,179.02 L 83.4801,179.02 L 83.4801,178.02 L 81.9801,178.02 L 81.9801,179.77 L 85.8352,179.77
 z
M 47.4268,175.383 L 46.7926,175.383 L 46.7926,174.383 L 45.2926,174.383 L 45.2926,176.133 L 47.4176,176.133
 z
M 9.61359,201.433 L 15.4682,201.433 L 15.4682,203.633 L 16.9682,203.633 L 16.9682,201.433 L 22.8227,201.433
 L 22.8227,203.633 L 24.3227,203.633 L 24.3227,201.433 L 30.1773,201.433 L 30.1773,203.633 L 31.6773,203.633
 L 31.6773,201.433 L 37.5318,201.433 L 37.5318,203.633 L 39.0318,203.633 L 39.0318,201.433 L 44.8864,201.433
 L 44.8864,203.633 L 46.3864,203.633 L 46.3864,200.683 L 46.1667,200.153 L 45.704,199.961 L 45.704,199.933
 L 43.0078,199.933 L 43.284,176.133 L 43.2926,176.133 L 43.2926,174.383 L 41.7926,174.383 L 41.7926,175.383
 L 41.5078,199.933 L 35.6047,199.933 L 35.7704,176.133 L 35.7756,176.133 L 35.7756,174.383 L 34.2756,174.383
 L 34.2756,175.383 L 34.1047,199.933 L 28.5737,199.933 L 28.3112,199.299 L 28.2031,199.254 L 28.2568,176.133
 L 28.2585,176.133 L 28.2585,174.383 L 26.7585,174.383 L 26.7585,175.383 L 26.7032,199.233 L 26.5434,199.299
 L 26.2808,199.933 L 20.7984,199.933 L 20.7415,175.383 L 20.7415,174.383 L 19.2415,174.383 L 19.2415,176.133
 L 19.2432,176.133 L 19.2984,199.933 L 13.3953,199.933 L 13.2244,175.383 L 13.2244,174.383 L 11.7244,174.383
 L 11.7244,176.133 L 11.7296,176.133 L 11.8953,199.933 L 5.99214,199.933 L 5.70734,175.383 L 5.70734,174.383
 L 4.20734,174.383 L 4.20734,176.133 L 4.21603,176.133 L 4.50084,200.683 L 4.72052,201.213 L 5.20575,201.414
 L 5.20575,201.433 L 8.11359,201.433 L 8.11359,203.633 L 9.61359,203.633 z
M 56.4186,188.386 L 56.4799,181.72 L 63.9879,181.72 L 63.9553,187.636 L 63.9511,187.636 L 63.9511,189.386
 L 65.4511,189.386 L 65.4512,188.386 L 65.4879,181.72 L 72.6235,181.72 L 72.886,182.354 L 72.9947,182.399
 L 72.9851,187.636 L 72.9837,187.636 L 72.9837,189.386 L 74.4837,189.386 L 74.4837,188.386 L 74.4947,182.419
 L 74.6538,182.354 L 74.9164,181.72 L 82.004,181.72 L 82.0163,188.386 L 82.0163,189.386 L 83.5163,189.386
 L 83.5163,187.636 L 83.5149,187.636 L 83.504,181.72 L 91.012,181.72 L 91.0488,188.386 L 91.0488,189.386
 L 92.5488,189.386 L 92.5488,187.636 L 92.5447,187.636 L 92.512,181.72 L 100.02,181.72 L 100.081,188.386
 L 100.081,189.386 L 101.581,189.386 L 101.581,187.636 L 101.575,187.636 L 101.513,180.97 L 101.294,180.439
 L 100.808,180.238 L 100.808,180.22 L 97.9004,180.22 L 97.9004,178.02 L 96.4004,178.02 L 96.4004,180.22
 L 88.9403,180.22 L 88.9403,178.02 L 87.4403,178.02 L 87.4403,180.22 L 79.9801,180.22 L 79.9801,178.02
 L 78.4801,178.02 L 78.4801,180.22 L 71.0199,180.22 L 71.0199,178.02 L 69.5199,178.02 L 69.5199,180.22
 L 62.0597,180.22 L 62.0597,178.02 L 60.5597,178.02 L 60.5597,180.22 L 53.0995,180.22 L 53.0995,178.02
 L 51.5995,178.02 L 51.5995,180.97 L 51.8192,181.5 L 52.2819,181.692 L 52.2819,181.72 L 54.9799,181.72
 L 54.9255,187.636 L 54.9186,187.636 L 54.9186,189.386 L 56.4186,189.386 z
M 102.96,194.135 L 102.775,179.02 L 102.4,179.024 L 102.4,179.02 L 101.4,179.02 L 101.4,178.02
 L 99.9004,178.02 L 99.9004,179.77 L 102.035,179.77 L 102.201,193.386 L 101.581,193.386 L 101.581,192.386
 L 100.081,192.386 L 100.081,194.136 L 102.21,194.136 L 102.21,194.144 z
M 52.7478,201.196 L 50.6279,201.196 L 50.7844,188.386 L 51.4186,188.386 L 51.4186,189.386 L 52.9186,189.386
 L 52.9186,187.636 L 50.7936,187.636 L 50.0436,187.627 L 49.8688,201.936 L 49.9186,201.936 L 49.9186,201.946
 L 51.2478,201.946 L 51.2478,202.946 L 52.7478,202.946 z
M 94.9401,188.386 L 96.5814,188.386 L 96.5814,189.386 L 98.0814,189.386 L 98.0814,187.636 L 94.1901,187.636
 L 94.1901,193.386 L 92.5488,193.386 L 92.5488,192.386 L 91.0488,192.386 L 91.0488,194.136 L 94.9401,194.136
 z
M 58.8099,188.386 L 60.4511,188.386 L 60.4511,189.386 L 61.9511,189.386 L 61.9511,187.636 L 58.0599,187.636
 L 58.0599,193.386 L 56.4186,193.386 L 56.4186,192.386 L 54.9186,192.386 L 54.9186,194.136 L 58.8099,194.136
 z
M 67.8424,188.386 L 69.4837,188.386 L 69.4837,189.386 L 70.9837,189.386 L 70.9837,187.636 L 67.0924,187.636
 L 67.0924,193.386 L 65.4511,193.386 L 65.4511,192.386 L 63.9511,192.386 L 63.9511,194.136 L 67.8424,194.136
 z
M 85.9076,188.386 L 87.5488,188.386 L 87.5488,189.386 L 89.0488,189.386 L 89.0488,187.636 L 85.1576,187.636
 L 85.1576,193.386 L 83.5163,193.386 L 83.5163,192.386 L 82.0163,192.386 L 82.0163,194.136 L 85.9076,194.136
 z
M 76.875,188.386 L 78.5163,188.386 L 78.5163,189.386 L 80.0163,189.386 L 80.0163,187.636 L 76.125,187.636
 L 76.125,193.386 L 74.4837,193.386 L 74.4837,192.386 L 72.9837,192.386 L 72.9837,194.136 L 76.875,194.136
 z
M 56.2478,201.946 L 56.2993,196.086 L 63.8795,196.086 L 63.8526,201.196 L 63.8487,201.196 L 63.8487,202.946
 L 65.3487,202.946 L 65.3487,201.946 L 65.3795,196.086 L 72.9599,196.086 L 72.9509,201.196 L 72.9496,201.196
 L 72.9496,202.946 L 74.4496,202.946 L 74.4496,201.946 L 74.4599,196.086 L 81.5784,196.086 L 81.8824,196.82
 L 82.0415,196.886 L 82.0504,201.946 L 82.0504,202.946 L 83.5504,202.946 L 83.5504,201.196 L 83.5491,201.196
 L 83.5415,196.865 L 83.6502,196.82 L 83.9541,196.086 L 91.1204,196.086 L 91.1513,201.946 L 91.1513,202.946
 L 92.6513,202.946 L 92.6513,201.196 L 92.6474,201.196 L 92.6204,196.086 L 100.201,196.086 L 100.252,201.946
 L 100.252,202.946 L 101.752,202.946 L 101.752,201.196 L 101.746,201.196 L 101.694,195.336 L 101.474,194.806
 L 100.989,194.605 L 100.989,194.586 L 98.0814,194.586 L 98.0814,192.386 L 96.5814,192.386 L 96.5814,194.586
 L 89.0488,194.586 L 89.0488,192.386 L 87.5488,192.386 L 87.5488,194.586 L 80.0163,194.586 L 80.0163,192.386
 L 78.5163,192.386 L 78.5163,194.586 L 70.9837,194.586 L 70.9837,192.386 L 69.4837,192.386 L 69.4837,194.586
 L 61.9511,194.586 L 61.9511,192.386 L 60.4511,192.386 L 60.4511,194.586 L 52.9186,194.586 L 52.9186,192.386
 L 51.4186,192.386 L 51.4186,195.336 L 51.6383,195.866 L 52.1009,196.058 L 52.1009,196.086 L 54.7993,196.086
 L 54.7544,201.196 L 54.7478,201.196 L 54.7478,202.946 L 56.2478,202.946 z
M 95.0768,201.946 L 96.7522,201.946 L 96.7522,202.946 L 98.2522,202.946 L 98.2522,201.196 L 94.3268,201.196
 L 94.3268,206.946 L 92.6513,206.946 L 92.6513,205.946 L 91.1513,205.946 L 91.1513,207.696 L 95.0768,207.696
 z
M 58.6732,201.946 L 60.3487,201.946 L 60.3487,202.946 L 61.8487,202.946 L 61.8487,201.196 L 57.9232,201.196
 L 57.9232,206.946 L 56.2478,206.946 L 56.2478,205.946 L 54.7478,205.946 L 54.7478,207.696 L 58.6732,207.696
 z
M 76.875,201.946 L 78.5504,201.946 L 78.5504,202.946 L 80.0504,202.946 L 80.0504,201.196 L 76.125,201.196
 L 76.125,206.946 L 74.4496,206.946 L 74.4496,205.946 L 72.9496,205.946 L 72.9496,207.696 L 76.875,207.696
 z
M 67.7741,201.946 L 69.4496,201.946 L 69.4496,202.946 L 70.9496,202.946 L 70.9496,201.196 L 67.0241,201.196
 L 67.0241,206.946 L 65.3487,206.946 L 65.3487,205.946 L 63.8487,205.946 L 63.8487,207.696 L 67.7741,207.696
 z
M 85.9759,201.946 L 87.6513,201.946 L 87.6513,202.946 L 89.1513,202.946 L 89.1513,201.196 L 85.2259,201.196
 L 85.2259,206.946 L 83.5504,206.946 L 83.5504,205.946 L 82.0504,205.946 L 82.0504,207.696 L 85.9759,207.696
 z
M 33.2296,202.633 L 34.0318,202.633 L 34.0318,203.633 L 35.5318,203.633 L 35.5318,201.883 L 32.4796,201.883
 L 32.4796,207.633 L 31.6773,207.633 L 31.6773,206.633 L 30.1773,206.633 L 30.1773,208.383 L 33.2296,208.383
 z
M 40.5841,202.633 L 41.3864,202.633 L 41.3864,203.633 L 42.8864,203.633 L 42.8864,201.883 L 39.8341,201.883
 L 39.8341,207.633 L 39.0318,207.633 L 39.0318,206.633 L 37.5318,206.633 L 37.5318,208.383 L 40.5841,208.383
 z
M 25.875,202.633 L 26.6773,202.633 L 26.6773,203.633 L 28.1773,203.633 L 28.1773,201.883 L 25.125,201.883
 L 25.125,207.633 L 24.3227,207.633 L 24.3227,206.633 L 22.8227,206.633 L 22.8227,208.383 L 25.875,208.383
 z
M 11.1659,202.633 L 11.9682,202.633 L 11.9682,203.633 L 13.4682,203.633 L 13.4682,201.883 L 10.4159,201.883
 L 10.4159,207.633 L 9.61359,207.633 L 9.61359,206.633 L 8.11359,206.633 L 8.11359,208.383 L 11.1659,208.383
 z
M 18.5204,202.633 L 19.3227,202.633 L 19.3227,203.633 L 20.8227,203.633 L 20.8227,201.883 L 17.7704,201.883
 L 17.7704,207.633 L 16.9682,207.633 L 16.9682,206.633 L 15.4682,206.633 L 15.4682,208.383 L 18.5204,208.383
 z
M 56.0865,214.745 L 56.1288,209.646 L 63.7773,209.646 L 63.7556,213.995 L 63.7519,213.995 L 63.7519,215.745
 L 65.2519,215.745 L 65.2519,214.745 L 65.2773,209.646 L 72.5531,209.646 L 72.8157,210.28 L 72.9246,210.325
 L 72.9185,213.995 L 72.9173,213.995 L 72.9173,215.745 L 74.4173,215.745 L 74.4173,214.745 L 74.4246,210.346
 L 74.5834,210.28 L 74.846,209.646 L 82.0742,209.646 L 82.0827,214.745 L 82.0827,215.745 L 83.5827,215.745
 L 83.5827,213.995 L 83.5815,213.995 L 83.5742,209.646 L 91.2227,209.646 L 91.2481,214.745 L 91.2481,215.745
 L 92.7481,215.745 L 92.7481,213.995 L 92.7443,213.995 L 92.7227,209.646 L 100.371,209.646 L 100.413,214.745
 L 100.413,215.745 L 101.913,215.745 L 101.913,213.995 L 101.907,213.995 L 101.865,208.896 L 101.645,208.366
 L 101.16,208.165 L 101.16,208.146 L 98.2522,208.146 L 98.2522,205.946 L 96.7522,205.946 L 96.7522,208.146
 L 89.1513,208.146 L 89.1513,205.946 L 87.6513,205.946 L 87.6513,208.146 L 80.0504,208.146 L 80.0504,205.946
 L 78.5504,205.946 L 78.5504,208.146 L 70.9496,208.146 L 70.9496,205.946 L 69.4496,205.946 L 69.4496,208.146
 L 61.8487,208.146 L 61.8487,205.946 L 60.3487,205.946 L 60.3487,208.146 L 52.7478,208.146 L 52.7478,205.946
 L 51.2478,205.946 L 51.2478,208.896 L 51.4674,209.426 L 51.9301,209.618 L 51.9301,209.646 L 54.6288,209.646
 L 54.5928,213.995 L 54.5865,213.995 L 54.5865,215.745 L 56.0865,215.745 z
M 103.293,220.494 L 103.127,206.946 L 102.752,206.951 L 102.752,206.946 L 101.752,206.946 L 101.752,205.946
 L 100.252,205.946 L 100.252,207.696 L 102.386,207.696 L 102.534,219.745 L 101.913,219.745 L 101.913,218.745
 L 100.413,218.745 L 100.413,220.495 L 102.543,220.495 L 102.543,220.503 z
M 47.7575,207.645 L 47.456,207.641 L 47.456,207.633 L 46.3864,207.633 L 46.3864,206.633 L 44.8864,206.633
 L 44.8864,208.383 L 46.9984,208.383 L 46.5901,241.801 L 45.956,241.801 L 45.956,240.801 L 44.456,240.801
 L 44.456,242.551 L 46.581,242.551 L 47.3309,242.56 z
M 10.044,235.601 L 15.7264,235.601 L 15.7264,237.801 L 17.2264,237.801 L 17.2264,235.601 L 22.9088,235.601
 L 22.9088,237.801 L 24.4088,237.801 L 24.4088,235.601 L 30.0912,235.601 L 30.0912,237.801 L 31.5912,237.801
 L 31.5912,235.601 L 37.2736,235.601 L 37.2736,237.801 L 38.7736,237.801 L 38.7736,235.601 L 44.456,235.601
 L 44.456,237.801 L 45.956,237.801 L 45.956,234.851 L 45.7363,234.32 L 45.2736,234.129 L 45.2736,234.101
 L 42.5775,234.101 L 42.8776,208.383 L 42.8864,208.383 L 42.8864,206.633 L 41.3864,206.633 L 41.3864,207.633
 L 41.0775,234.101 L 35.3465,234.101 L 35.5266,208.383 L 35.5318,208.383 L 35.5318,206.633 L 34.0318,206.633
 L 34.0318,207.633 L 33.8465,234.101 L 28.1155,234.101 L 28.1755,208.383 L 28.1773,208.383 L 28.1773,206.633
 L 26.6773,206.633 L 26.6773,207.633 L 26.6155,234.101 L 21.3467,234.101 L 21.0427,233.367 L 20.8826,233.301
 L 20.8227,207.633 L 20.8227,206.633 L 19.3227,206.633 L 19.3227,208.383 L 19.3245,208.383 L 19.3827,233.322
 L 19.2749,233.367 L 18.9709,234.101 L 13.6535,234.101 L 13.4682,207.633 L 13.4682,206.633 L 11.9682,206.633
 L 11.9682,208.383 L 11.9734,208.383 L 12.1535,234.101 L 6.4225,234.101 L 6.11359,207.633 L 6.11359,206.633
 L 4.61359,206.633 L 4.61359,208.383 L 4.62234,208.383 L 4.93126,234.851 L 5.15092,235.381 L 5.63615,235.582
 L 5.63615,235.601 L 8.54399,235.601 L 8.54399,237.801 L 10.044,237.801 z
M 52.4344,226.076 L 50.3139,226.076 L 50.4524,214.745 L 51.0865,214.745 L 51.0865,215.745 L 52.5865,215.745
 L 52.5865,213.995 L 50.4615,213.995 L 49.7116,213.986 L 49.5548,226.816 L 49.5865,226.816 L 49.5865,226.826
 L 50.9344,226.826 L 50.9344,227.826 L 52.4344,227.826 z
M 58.5442,214.745 L 60.2519,214.745 L 60.2519,215.745 L 61.7519,215.745 L 61.7519,213.995 L 57.7942,213.995
 L 57.7942,219.745 L 56.0865,219.745 L 56.0865,218.745 L 54.5865,218.745 L 54.5865,220.495 L 58.5442,220.495
 z
M 76.875,214.745 L 78.5827,214.745 L 78.5827,215.745 L 80.0827,215.745 L 80.0827,213.995 L 76.125,213.995
 L 76.125,219.745 L 74.4173,219.745 L 74.4173,218.745 L 72.9173,218.745 L 72.9173,220.495 L 76.875,220.495
 z
M 86.0404,214.745 L 87.7481,214.745 L 87.7481,215.745 L 89.2481,215.745 L 89.2481,213.995 L 85.2904,213.995
 L 85.2904,219.745 L 83.5827,219.745 L 83.5827,218.745 L 82.0827,218.745 L 82.0827,220.495 L 86.0404,220.495
 z
M 95.2058,214.745 L 96.9135,214.745 L 96.9135,215.745 L 98.4135,215.745 L 98.4135,213.995 L 94.4558,213.995
 L 94.4558,219.745 L 92.7481,219.745 L 92.7481,218.745 L 91.2481,218.745 L 91.2481,220.495 L 95.2058,220.495
 z
M 67.7096,214.745 L 69.4173,214.745 L 69.4173,215.745 L 70.9173,215.745 L 70.9173,213.995 L 66.9596,213.995
 L 66.9596,219.745 L 65.2519,219.745 L 65.2519,218.745 L 63.7519,218.745 L 63.7519,220.495 L 67.7096,220.495
 z
M 55.9344,226.826 L 55.968,222.445 L 63.6808,222.445 L 63.6641,226.076 L 63.6606,226.076 L 63.6606,227.826
 L 65.1606,227.826 L 65.1606,226.826 L 65.1808,222.445 L 72.8936,222.445 L 72.888,226.076 L 72.8869,226.076
 L 72.8869,227.826 L 74.3869,227.826 L 74.3869,226.826 L 74.3936,222.445 L 81.6448,222.445 L 81.9488,223.179
 L 82.1076,223.245 L 82.1131,226.826 L 82.1131,227.826 L 83.6131,227.826 L 83.6131,226.076 L 83.612,226.076
 L 83.6076,223.224 L 83.7166,223.179 L 84.0206,222.445 L 91.3192,222.445 L 91.3394,226.826 L 91.3394,227.826
 L 92.8394,227.826 L 92.8394,226.076 L 92.8359,226.076 L 92.8192,222.445 L 100.532,222.445 L 100.566,226.826
 L 100.566,227.826 L 102.066,227.826 L 102.066,226.076 L 102.06,226.076 L 102.026,221.695 L 101.807,221.165
 L 101.321,220.964 L 101.321,220.945 L 98.4135,220.945 L 98.4135,218.745 L 96.9135,218.745 L 96.9135,220.945
 L 89.2481,220.945 L 89.2481,218.745 L 87.7481,218.745 L 87.7481,220.945 L 80.0827,220.945 L 80.0827,218.745
 L 78.5827,218.745 L 78.5827,220.945 L 70.9173,220.945 L 70.9173,218.745 L 69.4173,218.745 L 69.4173,220.945
 L 61.7519,220.945 L 61.7519,218.745 L 60.2519,218.745 L 60.2519,220.945 L 52.5865,220.945 L 52.5865,218.745
 L 51.0865,218.745 L 51.0865,221.695 L 51.3062,222.225 L 51.7689,222.417 L 51.7689,222.445 L 54.468,222.445
 L 54.4401,226.076 L 54.4344,226.076 L 54.4344,227.826 L 55.9344,227.826 z
M 86.1013,226.826 L 87.8394,226.826 L 87.8394,227.826 L 89.3394,227.826 L 89.3394,226.076 L 85.3513,226.076
 L 85.3513,231.826 L 83.6131,231.826 L 83.6131,230.826 L 82.1131,230.826 L 82.1131,232.576 L 86.1013,232.576
 z
M 67.6487,226.826 L 69.3869,226.826 L 69.3869,227.826 L 70.8869,227.826 L 70.8869,226.076 L 66.8987,226.076
 L 66.8987,231.826 L 65.1606,231.826 L 65.1606,230.826 L 63.6606,230.826 L 63.6606,232.576 L 67.6487,232.576
 z
M 76.875,226.826 L 78.6131,226.826 L 78.6131,227.826 L 80.1131,227.826 L 80.1131,226.076 L 76.125,226.076
 L 76.125,231.826 L 74.3869,231.826 L 74.3869,230.826 L 72.8869,230.826 L 72.8869,232.576 L 76.875,232.576
 z
M 58.4225,226.826 L 60.1606,226.826 L 60.1606,227.826 L 61.6606,227.826 L 61.6606,226.076 L 57.6725,226.076
 L 57.6725,231.826 L 55.9344,231.826 L 55.9344,230.826 L 54.4344,230.826 L 54.4344,232.576 L 58.4225,232.576
 z
M 95.3275,226.826 L 97.0656,226.826 L 97.0656,227.826 L 98.5656,227.826 L 98.5656,226.076 L 94.5775,226.076
 L 94.5775,231.826 L 92.8394,231.826 L 92.8394,230.826 L 91.3394,230.826 L 91.3394,232.576 L 95.3275,232.576
 z
M 55.7907,238.229 L 55.8164,234.526 L 63.5898,234.526 L 63.5775,237.479 L 63.5744,237.479 L 63.5744,239.229
 L 65.0744,239.229 L 65.0744,238.229 L 65.0898,234.526 L 72.4904,234.526 L 72.753,235.16 L 72.8623,235.205
 L 72.8592,237.479 L 72.8581,237.479 L 72.8581,239.229 L 74.3581,239.229 L 74.3581,238.229 L 74.3623,235.225
 L 74.5208,235.16 L 74.7833,234.526 L 82.1367,234.526 L 82.1418,238.229 L 82.1418,239.229 L 83.6418,239.229
 L 83.6418,237.479 L 83.6408,237.479 L 83.6367,234.526 L 91.4101,234.526 L 91.4256,238.229 L 91.4256,239.229
 L 92.9256,239.229 L 92.9256,237.479 L 92.9224,237.479 L 92.9102,234.526 L 100.684,234.526 L 100.709,238.229
 L 100.709,239.229 L 102.209,239.229 L 102.209,237.479 L 102.204,237.479 L 102.178,233.776 L 101.959,233.246
 L 101.473,233.045 L 101.473,233.026 L 98.5656,233.026 L 98.5656,230.826 L 97.0656,230.826 L 97.0656,233.026
 L 89.3394,233.026 L 89.3394,230.826 L 87.8394,230.826 L 87.8394,233.026 L 80.1131,233.026 L 80.1131,230.826
 L 78.6131,230.826 L 78.6131,233.026 L 70.8869,233.026 L 70.8869,230.826 L 69.3869,230.826 L 69.3869,233.026
 L 61.6606,233.026 L 61.6606,230.826 L 60.1606,230.826 L 60.1606,233.026 L 52.4344,233.026 L 52.4344,230.826
 L 50.9344,230.826 L 50.9344,233.776 L 51.154,234.306 L 51.6167,234.498 L 51.6167,234.526 L 54.3164,234.526
 L 54.2959,237.479 L 54.2907,237.479 L 54.2907,239.229 L 55.7907,239.229 z
M 103.589,243.978 L 103.441,231.826 L 103.066,231.83 L 103.066,231.826 L 102.066,231.826 L 102.066,230.826
 L 100.566,230.826 L 100.566,232.576 L 102.7,232.576 L 102.83,243.229 L 102.209,243.229 L 102.209,242.229
 L 100.709,242.229 L 100.709,243.979 L 102.839,243.979 L 102.839,243.987 z
M 7,272.25 L 4.86589,272.25 L 4.43277,236.801 L 5.04399,236.801 L 5.04399,237.801 L 6.54399,237.801
 L 6.54399,236.051 L 4.4236,236.051 L 4.42352,236.044 L 3.67358,236.053 L 4.125,273 L 4.5,272.995
 L 4.5,273 L 5.5,273 L 5.5,274 L 7,274 z
M 18.6926,236.801 L 19.4088,236.801 L 19.4088,237.801 L 20.9088,237.801 L 20.9088,236.051 L 17.9426,236.051
 L 17.9426,241.801 L 17.2264,241.801 L 17.2264,240.801 L 15.7264,240.801 L 15.7264,242.551 L 18.6926,242.551
 z
M 33.0574,236.801 L 33.7736,236.801 L 33.7736,237.801 L 35.2736,237.801 L 35.2736,236.051 L 32.3074,236.051
 L 32.3074,241.801 L 31.5912,241.801 L 31.5912,240.801 L 30.0912,240.801 L 30.0912,242.551 L 33.0574,242.551
 z
M 11.5102,236.801 L 12.2264,236.801 L 12.2264,237.801 L 13.7264,237.801 L 13.7264,236.051 L 10.7602,236.051
 L 10.7602,241.801 L 10.044,241.801 L 10.044,240.801 L 8.54399,240.801 L 8.54399,242.551 L 11.5102,242.551
 z
M 40.2398,236.801 L 40.956,236.801 L 40.956,237.801 L 42.456,237.801 L 42.456,236.051 L 39.4898,236.051
 L 39.4898,241.801 L 38.7736,241.801 L 38.7736,240.801 L 37.2736,240.801 L 37.2736,242.551 L 40.2398,242.551
 z
M 25.875,236.801 L 26.5912,236.801 L 26.5912,237.801 L 28.0912,237.801 L 28.0912,236.051 L 25.125,236.051
 L 25.125,241.801 L 24.4088,241.801 L 24.4088,240.801 L 22.9088,240.801 L 22.9088,242.551 L 25.875,242.551
 z
M 49.2751,248.981 L 49.2907,248.982 L 49.2907,248.991 L 50.6551,248.991 L 50.6551,249.991 L 52.1551,249.991
 L 52.1551,248.241 L 50.0342,248.241 L 50.1566,238.229 L 50.7907,238.229 L 50.7907,239.229 L 52.2907,239.229
 L 52.2907,237.479 L 50.1657,237.479 L 49.4158,237.469 z
M 67.5913,238.229 L 69.3581,238.229 L 69.3581,239.229 L 70.8581,239.229 L 70.8581,237.479 L 66.8413,237.479
 L 66.8413,243.229 L 65.0744,243.229 L 65.0744,242.229 L 63.5744,242.229 L 63.5744,243.979 L 67.5913,243.979
 z
M 95.4424,238.229 L 97.2093,238.229 L 97.2093,239.229 L 98.7093,239.229 L 98.7093,237.479 L 94.6924,237.479
 L 94.6924,243.229 L 92.9256,243.229 L 92.9256,242.229 L 91.4256,242.229 L 91.4256,243.979 L 95.4424,243.979
 z
M 86.1587,238.229 L 87.9256,238.229 L 87.9256,239.229 L 89.4256,239.229 L 89.4256,237.479 L 85.4087,237.479
 L 85.4087,243.229 L 83.6418,243.229 L 83.6418,242.229 L 82.1418,242.229 L 82.1418,243.979 L 86.1587,243.979
 z
M 76.875,238.229 L 78.6418,238.229 L 78.6418,239.229 L 80.1418,239.229 L 80.1418,237.479 L 76.125,237.479
 L 76.125,243.229 L 74.3581,243.229 L 74.3581,242.229 L 72.8581,242.229 L 72.8581,243.979 L 76.875,243.979
 z
M 58.3076,238.229 L 60.0744,238.229 L 60.0744,239.229 L 61.5744,239.229 L 61.5744,237.479 L 57.5576,237.479
 L 57.5576,243.229 L 55.7907,243.229 L 55.7907,242.229 L 54.2907,242.229 L 54.2907,243.979 L 58.3076,243.979
 z
M 10.5,271.8 L 16,271.8 L 16,274 L 17.5,274 L 17.5,271.8 L 23,271.8
 L 23,274 L 24.5,274 L 24.5,271.8 L 30,271.8 L 30,274 L 31.5,274
 L 31.5,271.8 L 37,271.8 L 37,274 L 38.5,274 L 38.5,271.8 L 44,271.8
 L 44,274 L 45.5,274 L 45.5,271.05 L 45.2803,270.52 L 44.8176,270.328 L 44.8176,270.3
 L 42.1215,270.3 L 42.4472,242.551 L 42.456,242.551 L 42.456,240.801 L 40.956,240.801 L 40.956,241.801
 L 40.6215,270.3 L 35.0729,270.3 L 35.2683,242.551 L 35.2736,242.551 L 35.2736,240.801 L 33.7736,240.801
 L 33.7736,241.801 L 33.5729,270.3 L 28.3964,270.3 L 28.1339,269.666 L 28.0259,269.621 L 28.0894,242.551
 L 28.0912,242.551 L 28.0912,240.801 L 26.5912,240.801 L 26.5912,241.801 L 26.5259,269.6 L 26.3661,269.666
 L 26.1035,270.3 L 20.9757,270.3 L 20.9088,241.801 L 20.9088,240.801 L 19.4088,240.801 L 19.4088,242.551
 L 19.4106,242.551 L 19.4757,270.3 L 13.9271,270.3 L 13.7264,241.801 L 13.7264,240.801 L 12.2264,240.801
 L 12.2264,242.551 L 12.2317,242.551 L 12.4271,270.3 L 6.87845,270.3 L 6.54399,241.801 L 6.54399,240.801
 L 5.04399,240.801 L 5.04399,242.551 L 5.0528,242.551 L 5.38725,271.05 L 5.60692,271.58 L 6.09215,271.781
 L 6.09215,271.8 L 9,271.8 L 9,274 L 10.5,274 z
M 55.6551,248.991 L 55.6735,245.929 L 63.5041,245.929 L 63.4958,248.241 L 63.4931,248.241 L 63.4931,249.991
 L 64.9931,249.991 L 64.9931,248.991 L 65.0041,245.929 L 72.8347,245.929 L 72.8319,248.241 L 72.831,248.241
 L 72.831,249.991 L 74.331,249.991 L 74.331,248.991 L 74.3347,245.929 L 81.704,245.929 L 82.008,246.662
 L 82.1663,246.728 L 82.169,248.991 L 82.169,249.991 L 83.669,249.991 L 83.669,248.241 L 83.6681,248.241
 L 83.6662,246.708 L 83.7757,246.662 L 84.0797,245.929 L 91.4959,245.929 L 91.5069,248.991 L 91.5069,249.991
 L 93.0069,249.991 L 93.0069,248.241 L 93.0042,248.241 L 92.9959,245.929 L 100.826,245.929 L 100.845,248.991
 L 100.845,249.991 L 102.345,249.991 L 102.345,248.241 L 102.34,248.241 L 102.322,245.179 L 102.102,244.648
 L 101.617,244.447 L 101.617,244.429 L 98.7093,244.429 L 98.7093,242.229 L 97.2093,242.229 L 97.2093,244.429
 L 89.4256,244.429 L 89.4256,242.229 L 87.9256,242.229 L 87.9256,244.429 L 80.1418,244.429 L 80.1418,242.229
 L 78.6418,242.229 L 78.6418,244.429 L 70.8581,244.429 L 70.8581,242.229 L 69.3581,242.229 L 69.3581,244.429
 L 61.5744,244.429 L 61.5744,242.229 L 60.0744,242.229 L 60.0744,244.429 L 52.2907,244.429 L 52.2907,242.229
 L 50.7907,242.229 L 50.7907,245.179 L 51.0104,245.709 L 51.4731,245.901 L 51.4731,245.929 L 54.1735,245.929
 L 54.1596,248.241 L 54.1551,248.241 L 54.1551,249.991 L 55.6551,249.991 z
M 76.875,248.991 L 78.669,248.991 L 78.669,249.991 L 80.169,249.991 L 80.169,248.241 L 76.125,248.241
 L 76.125,253.991 L 74.331,253.991 L 74.331,252.991 L 72.831,252.991 L 72.831,254.741 L 76.875,254.741
 z
M 67.537,248.991 L 69.331,248.991 L 69.331,249.991 L 70.831,249.991 L 70.831,248.241 L 66.787,248.241
 L 66.787,253.991 L 64.9931,253.991 L 64.9931,252.991 L 63.4931,252.991 L 63.4931,254.741 L 67.537,254.741
 z
M 58.1991,248.991 L 59.9931,248.991 L 59.9931,249.991 L 61.4931,249.991 L 61.4931,248.241 L 57.4491,248.241
 L 57.4491,253.991 L 55.6551,253.991 L 55.6551,252.991 L 54.1551,252.991 L 54.1551,254.741 L 58.1991,254.741
 z
M 86.2129,248.991 L 88.0069,248.991 L 88.0069,249.991 L 89.5069,249.991 L 89.5069,248.241 L 85.4629,248.241
 L 85.4629,253.991 L 83.669,253.991 L 83.669,252.991 L 82.169,252.991 L 82.169,254.741 L 86.2129,254.741
 z
M 95.5509,248.991 L 97.3448,248.991 L 97.3448,249.991 L 98.8448,249.991 L 98.8448,248.241 L 94.8009,248.241
 L 94.8009,253.991 L 93.0069,253.991 L 93.0069,252.991 L 91.5069,252.991 L 91.5069,254.741 L 95.5509,254.741
 z
M 103.853,264.899 L 103.72,253.991 L 103.345,253.996 L 103.345,253.991 L 102.345,253.991 L 102.345,252.991
 L 100.845,252.991 L 100.845,254.741 L 102.979,254.741 L 103.094,264.15 L 102.473,264.15 L 102.473,263.15
 L 100.973,263.15 L 100.973,264.9 L 103.103,264.9 L 103.103,264.908 z
M 55.5272,259.15 L 55.5388,256.691 L 63.4233,256.691 L 63.4184,258.4 L 63.4163,258.4 L 63.4163,260.15
 L 64.9163,260.15 L 64.9163,259.15 L 64.9233,256.691 L 72.4346,256.691 L 72.6971,257.325 L 72.8071,257.371
 L 72.8061,258.4 L 72.8054,258.4 L 72.8054,260.15 L 74.3054,260.15 L 74.3054,259.15 L 74.3071,257.391
 L 74.4649,257.325 L 74.7275,256.691 L 82.1922,256.691 L 82.1946,259.15 L 82.1946,260.15 L 83.6946,260.15
 L 83.6946,258.4 L 83.6938,258.4 L 83.6922,256.691 L 91.5767,256.691 L 91.5837,259.15 L 91.5837,260.15
 L 93.0837,260.15 L 93.0837,258.4 L 93.0816,258.4 L 93.0767,256.691 L 100.961,256.691 L 100.973,259.15
 L 100.973,260.15 L 102.473,260.15 L 102.473,258.4 L 102.469,258.4 L 102.458,255.941 L 102.238,255.411
 L 101.753,255.21 L 101.753,255.191 L 98.8448,255.191 L 98.8448,252.991 L 97.3448,252.991 L 97.3448,255.191
 L 89.5069,255.191 L 89.5069,252.991 L 88.0069,252.991 L 88.0069,255.191 L 80.169,255.191 L 80.169,252.991
 L 78.669,252.991 L 78.669,255.191 L 70.831,255.191 L 70.831,252.991 L 69.331,252.991 L 69.331,255.191
 L 61.4931,255.191 L 61.4931,252.991 L 59.9931,252.991 L 59.9931,255.191 L 52.1551,255.191 L 52.1551,252.991
 L 50.6551,252.991 L 50.6551,255.941 L 50.8748,256.472 L 51.3375,256.663 L 51.3375,256.691 L 54.0388,256.691
 L 54.0307,258.4 L 54.0272,258.4 L 54.0272,260.15 L 55.5272,260.15 z
M 51.9064,267.989 L 49.785,267.989 L 49.893,259.15 L 50.5272,259.15 L 50.5272,260.15 L 52.0272,260.15
 L 52.0272,258.4 L 49.9022,258.4 L 49.1522,258.391 L 49.035,267.989 L 49.0272,267.989 L 49.0272,268.626
 L 49.0259,268.729 L 49.0272,268.729 L 49.0272,268.739 L 50.4064,268.739 L 50.4064,269.739 L 51.9064,269.739
 z
M 95.6533,259.15 L 97.4728,259.15 L 97.4728,260.15 L 98.9728,260.15 L 98.9728,258.4 L 94.9033,258.4
 L 94.9033,264.15 L 93.0837,264.15 L 93.0837,263.15 L 91.5837,263.15 L 91.5837,264.9 L 95.6533,264.9
 z
M 86.2641,259.15 L 88.0837,259.15 L 88.0837,260.15 L 89.5837,260.15 L 89.5837,258.4 L 85.5141,258.4
 L 85.5141,264.15 L 83.6946,264.15 L 83.6946,263.15 L 82.1946,263.15 L 82.1946,264.9 L 86.2641,264.9
 z
M 58.0967,259.15 L 59.9163,259.15 L 59.9163,260.15 L 61.4163,260.15 L 61.4163,258.4 L 57.3467,258.4
 L 57.3467,264.15 L 55.5272,264.15 L 55.5272,263.15 L 54.0272,263.15 L 54.0272,264.9 L 58.0967,264.9
 z
M 67.4859,259.15 L 69.3054,259.15 L 69.3054,260.15 L 70.8054,260.15 L 70.8054,258.4 L 66.7359,258.4
 L 66.7359,264.15 L 64.9163,264.15 L 64.9163,263.15 L 63.4163,263.15 L 63.4163,264.9 L 67.4859,264.9
 z
M 76.875,259.15 L 78.6946,259.15 L 78.6946,260.15 L 80.1946,260.15 L 80.1946,258.4 L 76.125,258.4
 L 76.125,264.15 L 74.3054,264.15 L 74.3054,263.15 L 72.8054,263.15 L 72.8054,264.9 L 76.875,264.9
 z
M 55.4064,268.739 L 55.4121,266.85 L 63.3473,266.85 L 63.3452,267.989 L 63.3438,267.989 L 63.3438,269.739
 L 64.8438,269.739 L 64.8438,268.739 L 64.8473,266.85 L 72.7824,266.85 L 72.7817,267.989 L 72.7813,267.989
 L 72.7813,269.739 L 74.2813,269.739 L 74.2813,268.739 L 74.2824,266.85 L 81.7567,266.85 L 82.0607,267.584
 L 82.218,267.649 L 82.2187,268.739 L 82.2187,269.739 L 83.7187,269.739 L 83.7187,267.989 L 83.7183,267.989
 L 83.718,267.63 L 83.8284,267.584 L 84.1324,266.85 L 91.6527,266.85 L 91.6562,268.739 L 91.6562,269.739
 L 93.1562,269.739 L 93.1562,267.989 L 93.1548,267.989 L 93.1527,266.85 L 101.088,266.85 L 101.094,268.739
 L 101.094,269.739 L 102.594,269.739 L 102.594,267.989 L 102.591,267.989 L 102.586,266.1 L 102.366,265.57
 L 101.881,265.369 L 101.881,265.35 L 98.9728,265.35 L 98.9728,263.15 L 97.4728,263.15 L 97.4728,265.35
 L 89.5837,265.35 L 89.5837,263.15 L 88.0837,263.15 L 88.0837,265.35 L 80.1946,265.35 L 80.1946,263.15
 L 78.6946,263.15 L 78.6946,265.35 L 70.8054,265.35 L 70.8054,263.15 L 69.3054,263.15 L 69.3054,265.35
 L 61.4163,265.35 L 61.4163,263.15 L 59.9163,263.15 L 59.9163,265.35 L 52.0272,265.35 L 52.0272,263.15
 L 50.5272,263.15 L 50.5272,266.1 L 50.7468,266.63 L 51.2095,266.822 L 51.2095,266.85 L 53.9121,266.85
 L 53.9087,267.989 L 53.9064,267.989 L 53.9064,269.739 L 55.4064,269.739 z
M 58.0001,268.739 L 59.8438,268.739 L 59.8438,269.739 L 61.3438,269.739 L 61.3438,267.989 L 57.2501,267.989
 L 57.2501,273.739 L 55.4064,273.739 L 55.4064,272.739 L 53.9064,272.739 L 53.9064,274.489 L 58.0001,274.489
 z
M 95.7499,268.739 L 97.5936,268.739 L 97.5936,269.739 L 99.0936,269.739 L 99.0936,267.989 L 94.9999,267.989
 L 94.9999,273.739 L 93.1562,273.739 L 93.1562,272.739 L 91.6562,272.739 L 91.6562,274.489 L 95.7499,274.489
 z
M 67.4375,268.739 L 69.2813,268.739 L 69.2813,269.739 L 70.7813,269.739 L 70.7813,267.989 L 66.6875,267.989
 L 66.6875,273.739 L 64.8438,273.739 L 64.8438,272.739 L 63.3438,272.739 L 63.3438,274.489 L 67.4375,274.489
 z
M 86.3124,268.739 L 88.1562,268.739 L 88.1562,269.739 L 89.6562,269.739 L 89.6562,267.989 L 85.5624,267.989
 L 85.5624,273.739 L 83.7187,273.739 L 83.7187,272.739 L 82.2187,272.739 L 82.2187,274.489 L 86.3124,274.489
 z
M 76.875,268.739 L 78.7187,268.739 L 78.7187,269.739 L 80.2187,269.739 L 80.2187,267.989 L 76.125,267.989
 L 76.125,273.739 L 74.2813,273.739 L 74.2813,272.739 L 72.7813,272.739 L 72.7813,274.489 L 76.875,274.489
 z
M 32.875,273 L 33.5,273 L 33.5,274 L 35,274 L 35,272.25 L 32.125,272.25
 L 32.125,278 L 31.5,278 L 31.5,277 L 30,277 L 30,278.75 L 32.875,278.75
 z
M 18.875,273 L 19.5,273 L 19.5,274 L 21,274 L 21,272.25 L 18.125,272.25
 L 18.125,278 L 17.5,278 L 17.5,277 L 16,277 L 16,278.75 L 18.875,278.75
 z
M 11.875,273 L 12.5,273 L 12.5,274 L 14,274 L 14,272.25 L 11.125,272.25
 L 11.125,278 L 10.5,278 L 10.5,277 L 9,277 L 9,278.75 L 11.875,278.75
 z
M 25.875,273 L 26.5,273 L 26.5,274 L 28,274 L 28,272.25 L 25.125,272.25
 L 25.125,278 L 24.5,278 L 24.5,277 L 23,277 L 23,278.75 L 25.875,278.75
 z
M 39.875,273 L 40.5,273 L 40.5,274 L 42,274 L 42,272.25 L 39.125,272.25
 L 39.125,278 L 38.5,278 L 38.5,277 L 37,277 L 37,278.75 L 39.875,278.75
 z
M 92.1436,278.489 L 103.277,278.489 L 103.277,278.497 L 104.027,278.488 L 103.969,273.739 L 103.594,273.743
 L 103.594,273.739 L 102.594,273.739 L 102.594,272.739 L 101.094,272.739 L 101.094,274.489 L 103.228,274.489
 L 103.267,277.739 L 92.1436,277.739 L 92.1436,277.014 L 90.477,277.014 L 90.477,279.214 L 92.1436,279.214
 z
M 74.4152,277.073 L 74.6777,276.439 L 102.001,276.439 L 102.001,274.939 L 99.0936,274.939 L 99.0936,272.739
 L 97.5936,272.739 L 97.5936,274.939 L 89.6562,274.939 L 89.6562,272.739 L 88.1562,272.739 L 88.1562,274.939
 L 80.2187,274.939 L 80.2187,272.739 L 78.7187,272.739 L 78.7187,274.939 L 70.7813,274.939 L 70.7813,272.739
 L 69.2813,272.739 L 69.2813,274.939 L 61.3438,274.939 L 61.3438,272.739 L 59.8438,272.739 L 59.8438,274.939
 L 51.9064,274.939 L 51.9064,272.739 L 50.4064,272.739 L 50.4064,275.689 L 50.6261,276.219 L 51.0887,276.411
 L 51.0887,276.439 L 72.3848,276.439 L 72.6474,277.073 L 73.5313,277.439 z
M 44.8176,279.25 L 42,279.25 L 42,277 L 41.7929,277 L 41.7803,276.97 L 41.25,276.75
 L 40.7197,276.97 L 40.7071,277 L 40.5,277 L 40.5,279.25 L 35,279.25 L 35,277
 L 34.7929,277 L 34.7803,276.97 L 34.25,276.75 L 33.7197,276.97 L 33.7071,277 L 33.5,277
 L 33.5,279.25 L 28,279.25 L 28,277 L 27.7929,277 L 27.7803,276.97 L 27.25,276.75
 L 26.7197,276.97 L 26.7071,277 L 26.5,277 L 26.5,279.25 L 21,279.25 L 21,277
 L 20.7929,277 L 20.7803,276.97 L 20.25,276.75 L 19.7197,276.97 L 19.7071,277 L 19.5,277
 L 19.5,279.25 L 14,279.25 L 14,277 L 13.7929,277 L 13.7803,276.97 L 13.25,276.75
 L 12.7197,276.97 L 12.7071,277 L 12.5,277 L 12.5,279.25 L 7,279.25 L 7,277
 L 6.79289,277 L 6.78032,276.97 L 6.25,276.75 L 5.71967,276.97 L 5.70709,277 L 5.5,277
 L 5.5,279.25 L 5.71967,279.78 L 6.09215,279.935 L 6.09215,280 L 44.8176,280 z
M 77.3839,278.998 L 77.5947,278.489 L 87.1436,278.489 L 87.1436,279.214 L 88.8103,279.214 L 88.8103,277.014
 L 87.1436,277.014 L 87.1436,277.739 L 77.5947,277.739 L 77.3839,277.23 L 76.5,276.864 L 75.6161,277.23
 L 75.25,278.114 L 75.6161,278.998 L 76.5,279.364 z
M 45.5,277 L 44,277 L 44,278.75 L 45.5,278.75 z
" stroke="black" fill="lightgray" stroke-width="0.5"/>
</svg>
