  0
SECTION
  2
BLOCKS
  0
ENDSEC
  0
SECTION
  2
ENTITIES
  0
LINE
  8
0
 10
10.5313
 20
-313.083
 11
20.8701
 21
-312.951
  0
LINE
  8
0
 10
20.8701
 20
-312.951
 11
31.2077
 21
-312.731
  0
LINE
  8
0
 10
31.2077
 20
-312.731
 11
41.5441
 21
-312.425
  0
LINE
  8
0
 10
41.5441
 20
-312.425
 11
51.6265
 21
-311.733
  0
LINE
  8
0
 10
51.6265
 20
-311.733
 11
61.6818
 21
-310.746
  0
LINE
  8
0
 10
61.6818
 20
-310.746
 11
71.7032
 21
-309.464
  0
LINE
  8
0
 10
71.7032
 20
-309.464
 11
81.684
 21
-307.887
  0
LINE
  8
0
 10
81.684
 20
-307.887
 11
85.0402
 21
-307.185
  0
LINE
  8
0
 10
85.0402
 20
-307.185
 11
89.0827
 21
-306.117
  0
LINE
  8
0
 10
89.0827
 20
-306.117
 11
93.0844
 21
-304.911
  0
LINE
  8
0
 10
93.0844
 20
-304.911
 11
97.0419
 21
-303.571
  0
LINE
  8
0
 10
97.0419
 20
-303.571
 11
100.952
 21
-302.095
  0
LINE
  8
0
 10
100.952
 20
-302.095
 11
104.215
 21
-300.708
  0
LINE
  8
0
 10
104.215
 20
-300.708
 11
107.405
 21
-299.165
  0
LINE
  8
0
 10
107.405
 20
-299.165
 11
110.515
 21
-297.47
  0
LINE
  8
0
 10
110.515
 20
-297.47
 11
113.541
 21
-295.627
  0
LINE
  8
0
 10
113.541
 20
-295.627
 11
115.819
 21
-294.113
  0
LINE
  8
0
 10
115.819
 20
-294.113
 11
118.042
 21
-292.538
  0
LINE
  8
0
 10
118.042
 20
-292.538
 11
120.209
 21
-290.903
  0
LINE
  8
0
 10
120.209
 20
-290.903
 11
122.32
 21
-289.209
  0
LINE
  8
0
 10
122.32
 20
-289.209
 11
124.373
 21
-287.459
  0
LINE
  8
0
 10
124.373
 20
-287.459
 11
126.368
 21
-285.653
  0
LINE
  8
0
 10
126.368
 20
-285.653
 11
128.304
 21
-283.794
  0
LINE
  8
0
 10
128.304
 20
-283.794
 11
130.115
 21
-281.983
  0
LINE
  8
0
 10
130.115
 20
-281.983
 11
159.269
 21
-231.486
  0
LINE
  8
0
 10
159.269
 20
-231.486
 11
159.727
 21
-229.018
  0
LINE
  8
0
 10
159.727
 20
-229.018
 11
160.139
 21
-226.36
  0
LINE
  8
0
 10
160.139
 20
-226.36
 11
160.47
 21
-223.684
  0
LINE
  8
0
 10
160.47
 20
-223.684
 11
160.721
 21
-220.99
  0
LINE
  8
0
 10
160.721
 20
-220.99
 11
160.891
 21
-218.281
  0
LINE
  8
0
 10
160.891
 20
-218.281
 11
160.979
 21
-215.105
  0
LINE
  8
0
 10
160.979
 20
-215.105
 11
160.989
 21
-211.929
  0
LINE
  8
0
 10
160.989
 20
-211.929
 11
160.923
 21
-208.755
  0
LINE
  8
0
 10
160.923
 20
-208.755
 11
160.779
 21
-205.584
  0
LINE
  8
0
 10
160.779
 20
-205.584
 11
160.558
 21
-202.417
  0
LINE
  8
0
 10
160.558
 20
-202.417
 11
160.261
 21
-199.256
  0
LINE
  8
0
 10
160.261
 20
-199.256
 11
159.887
 21
-196.102
  0
LINE
  8
0
 10
159.887
 20
-196.102
 11
159.436
 21
-192.957
  0
LINE
  8
0
 10
159.436
 20
-192.957
 11
158.879
 21
-189.232
  0
LINE
  8
0
 10
158.879
 20
-189.232
 11
158.225
 21
-185.524
  0
LINE
  8
0
 10
158.225
 20
-185.524
 11
157.473
 21
-181.835
  0
LINE
  8
0
 10
157.473
 20
-181.835
 11
156.624
 21
-178.168
  0
LINE
  8
0
 10
156.624
 20
-178.168
 11
155.679
 21
-174.524
  0
LINE
  8
0
 10
155.679
 20
-174.524
 11
154.638
 21
-170.905
  0
LINE
  8
0
 10
154.638
 20
-170.905
 11
153.502
 21
-167.313
  0
LINE
  8
0
 10
153.502
 20
-167.313
 11
152.271
 21
-163.75
  0
LINE
  8
0
 10
152.271
 20
-163.75
 11
150.011
 21
-157.363
  0
LINE
  8
0
 10
150.011
 20
-157.363
 11
147.623
 21
-151.024
  0
LINE
  8
0
 10
147.623
 20
-151.024
 11
145.108
 21
-144.735
  0
LINE
  8
0
 10
145.108
 20
-144.735
 11
142.465
 21
-138.499
  0
LINE
  8
0
 10
142.465
 20
-138.499
 11
139.697
 21
-132.316
  0
LINE
  8
0
 10
139.697
 20
-132.316
 11
136.803
 21
-126.188
  0
LINE
  8
0
 10
136.803
 20
-126.188
 11
133.785
 21
-120.118
  0
LINE
  8
0
 10
133.785
 20
-120.118
 11
130.643
 21
-114.108
  0
LINE
  8
0
 10
130.643
 20
-114.108
 11
126.812
 21
-105.993
  0
LINE
  8
0
 10
126.812
 20
-105.993
 11
123.238
 21
-97.7634
  0
LINE
  8
0
 10
123.238
 20
-97.7634
 11
121.731
 21
-94.3447
  0
LINE
  8
0
 10
121.731
 20
-94.3447
 11
120.37
 21
-90.8717
  0
LINE
  8
0
 10
120.37
 20
-90.8717
 11
119.156
 21
-87.3491
  0
LINE
  8
0
 10
119.156
 20
-87.3491
 11
118.091
 21
-83.7815
  0
LINE
  8
0
 10
118.091
 20
-83.7815
 11
117.175
 21
-80.1734
  0
LINE
  8
0
 10
117.175
 20
-80.1734
 11
116.409
 21
-76.5294
  0
LINE
  8
0
 10
116.409
 20
-76.5294
 11
115.797
 21
-72.8542
  0
LINE
  8
0
 10
115.797
 20
-72.8542
 11
115.337
 21
-69.1522
  0
LINE
  8
0
 10
115.337
 20
-69.1522
 11
115.244
 21
-66.0819
  0
LINE
  8
0
 10
115.244
 20
-66.0819
 11
115.289
 21
-63.0148
  0
LINE
  8
0
 10
115.289
 20
-63.0148
 11
115.472
 21
-59.9556
  0
LINE
  8
0
 10
115.472
 20
-59.9556
 11
115.791
 21
-56.909
  0
LINE
  8
0
 10
115.791
 20
-56.909
 11
116.246
 21
-53.8794
  0
LINE
  8
0
 10
116.246
 20
-53.8794
 11
116.837
 21
-50.8714
  0
LINE
  8
0
 10
116.837
 20
-50.8714
 11
117.564
 21
-47.8893
  0
LINE
  8
0
 10
117.564
 20
-47.8893
 11
118.423
 21
-44.9369
  0
LINE
  8
0
 10
118.423
 20
-44.9369
 11
120.98
 21
-37.8451
  0
LINE
  8
0
 10
120.98
 20
-37.8451
 11
123.81
 21
-30.8556
  0
LINE
  8
0
 10
123.81
 20
-30.8556
 11
127.302
 21
-22.4425
  0
LINE
  8
0
 10
127.302
 20
-22.4425
 11
130.609
 21
-13.9568
  0
LINE
  8
0
 10
130.609
 20
-13.9568
 11
132.523
 21
-8.60179
  0
LINE
  8
0
 10
132.523
 20
-8.60179
 11
134.243
 21
-3.18256
  0
LINE
  8
0
 10
134.243
 20
-3.18256
 11
135.028
 21
-0.414001
  0
LINE
  8
0
 10
135.028
 20
-0.414001
 11
135.737
 21
2.37076
  0
LINE
  8
0
 10
135.737
 20
2.37076
 11
136.37
 21
5.17027
  0
LINE
  8
0
 10
136.37
 20
5.17027
 11
136.927
 21
7.98299
  0
LINE
  8
0
 10
136.927
 20
7.98299
 11
137.408
 21
10.8074
  0
LINE
  8
0
 10
137.408
 20
10.8074
 11
137.813
 21
13.642
  0
LINE
  8
0
 10
137.813
 20
13.642
 11
138.142
 21
16.4852
  0
LINE
  8
0
 10
138.142
 20
16.4852
 11
138.394
 21
19.3355
  0
LINE
  8
0
 10
138.394
 20
19.3355
 11
138.57
 21
22.1915
  0
LINE
  8
0
 10
138.57
 20
22.1915
 11
138.669
 21
25.0516
  0
LINE
  8
0
 10
138.669
 20
25.0516
 11
138.691
 21
27.9142
  0
LINE
  8
0
 10
138.691
 20
27.9142
 11
138.636
 21
30.778
  0
LINE
  8
0
 10
138.636
 20
30.778
 11
138.505
 21
33.6413
  0
LINE
  8
0
 10
138.505
 20
33.6413
 11
138.296
 21
36.5026
  0
LINE
  8
0
 10
138.296
 20
36.5026
 11
138.01
 21
39.3604
  0
LINE
  8
0
 10
138.01
 20
39.3604
 11
137.647
 21
42.2132
  0
LINE
  8
0
 10
137.647
 20
42.2132
 11
137.294
 21
44.3531
  0
LINE
  8
0
 10
137.294
 20
44.3531
 11
136.844
 21
46.4714
  0
LINE
  8
0
 10
136.844
 20
46.4714
 11
136.297
 21
48.565
  0
LINE
  8
0
 10
136.297
 20
48.565
 11
135.654
 21
50.6306
  0
LINE
  8
0
 10
135.654
 20
50.6306
 11
134.917
 21
52.665
  0
LINE
  8
0
 10
134.917
 20
52.665
 11
134.086
 21
54.6651
  0
LINE
  8
0
 10
134.086
 20
54.6651
 11
133.162
 21
56.6275
  0
LINE
  8
0
 10
133.162
 20
56.6275
 11
132.148
 21
58.5491
  0
LINE
  8
0
 10
132.148
 20
58.5491
 11
131.241
 21
60.0727
  0
LINE
  8
0
 10
131.241
 20
60.0727
 11
130.375
 21
61.3539
  0
LINE
  8
0
 10
130.375
 20
61.3539
 11
130.37
 21
61.364
  0
LINE
  8
0
 10
130.37
 20
61.364
 11
129.247
 21
63.1119
  0
LINE
  8
0
 10
129.247
 20
63.1119
 11
127.843
 21
64.9489
  0
LINE
  8
0
 10
127.843
 20
64.9489
 11
126.219
 21
66.7947
  0
LINE
  8
0
 10
126.219
 20
66.7947
 11
124.445
 21
68.5686
  0
LINE
  8
0
 10
124.445
 20
68.5686
 11
122.599
 21
70.1931
  0
LINE
  8
0
 10
122.599
 20
70.1931
 11
120.762
 21
71.5972
  0
LINE
  8
0
 10
120.762
 20
71.5972
 11
119.014
 21
72.7195
  0
LINE
  8
0
 10
119.014
 20
72.7195
 11
118.839
 21
72.8071
  0
LINE
  8
0
 10
118.839
 20
72.8071
 11
118.758
 21
72.8639
  0
LINE
  8
0
 10
118.758
 20
72.8639
 11
117.007
 21
73.8272
  0
LINE
  8
0
 10
117.007
 20
73.8272
 11
115.196
 21
74.5828
  0
LINE
  8
0
 10
115.196
 20
74.5828
 11
113.343
 21
75.1343
  0
LINE
  8
0
 10
113.343
 20
75.1343
 11
111.464
 21
75.4853
  0
LINE
  8
0
 10
111.464
 20
75.4853
 11
109.576
 21
75.6393
  0
LINE
  8
0
 10
109.576
 20
75.6393
 11
107.696
 21
75.5999
  0
LINE
  8
0
 10
107.696
 20
75.5999
 11
105.84
 21
75.3707
  0
LINE
  8
0
 10
105.84
 20
75.3707
 11
104.025
 21
74.9553
  0
LINE
  8
0
 10
104.025
 20
74.9553
 11
103.292
 21
74.7058
  0
LINE
  8
0
 10
103.292
 20
74.7058
 11
103.145
 21
74.6778
  0
LINE
  8
0
 10
103.145
 20
74.6778
 11
102.571
 21
74.4606
  0
LINE
  8
0
 10
102.571
 20
74.4606
 11
102.268
 21
74.3572
  0
LINE
  8
0
 10
102.268
 20
74.3572
 11
102.126
 21
74.2918
  0
LINE
  8
0
 10
102.126
 20
74.2918
 11
101.39
 21
74.0128
  0
LINE
  8
0
 10
101.39
 20
74.0128
 11
99.4594
 21
72.9977
  0
LINE
  8
0
 10
99.4594
 20
72.9977
 11
97.4364
 21
71.6768
  0
LINE
  8
0
 10
97.4364
 20
71.6768
 11
95.4096
 21
70.1077
  0
LINE
  8
0
 10
95.4096
 20
70.1077
 11
93.4676
 21
68.3592
  0
LINE
  8
0
 10
93.4676
 20
68.3592
 11
91.6953
 21
66.5075
  0
LINE
  8
0
 10
91.6953
 20
66.5075
 11
90.1701
 21
64.6336
  0
LINE
  8
0
 10
90.1701
 20
64.6336
 11
88.9587
 21
62.8195
  0
LINE
  8
0
 10
88.9587
 20
62.8195
 11
88.8915
 21
62.6862
  0
LINE
  8
0
 10
88.8915
 20
62.6862
 11
87.9427
 21
61.2554
  0
LINE
  8
0
 10
87.9427
 20
61.2554
 11
87.0562
 21
59.6974
  0
LINE
  8
0
 10
87.0562
 20
59.6974
 11
86.2785
 21
58.0835
  0
LINE
  8
0
 10
86.2785
 20
58.0835
 11
85.6123
 21
56.4193
  0
LINE
  8
0
 10
85.6123
 20
56.4193
 11
83.9167
 21
51.3079
  0
LINE
  8
0
 10
83.9167
 20
51.3079
 11
82.4693
 21
46.1222
  0
LINE
  8
0
 10
82.4693
 20
46.1222
 11
81.3588
 21
42.1938
  0
LINE
  8
0
 10
81.3588
 20
42.1938
 11
80.0369
 21
38.3397
  0
LINE
  8
0
 10
80.0369
 20
38.3397
 11
78.5075
 21
34.5678
  0
LINE
  8
0
 10
78.5075
 20
34.5678
 11
76.7747
 21
30.8862
  0
LINE
  8
0
 10
76.7747
 20
30.8862
 11
74.8426
 21
27.3031
  0
LINE
  8
0
 10
74.8426
 20
27.3031
 11
72.7153
 21
23.8265
  0
LINE
  8
0
 10
72.7153
 20
23.8265
 11
70.3969
 21
20.4644
  0
LINE
  8
0
 10
70.3969
 20
20.4644
 11
68.6112
 21
18.1556
  0
LINE
  8
0
 10
68.6112
 20
18.1556
 11
67.2379
 21
17.1523
  0
LINE
  8
0
 10
67.2379
 20
17.1523
 11
65.3248
 21
15.956
  0
LINE
  8
0
 10
65.3248
 20
15.956
 11
63.3268
 21
14.8985
  0
LINE
  8
0
 10
63.3268
 20
14.8985
 11
61.2511
 21
13.9847
  0
LINE
  8
0
 10
61.2511
 20
13.9847
 11
59.1052
 21
13.2199
  0
LINE
  8
0
 10
59.1052
 20
13.2199
 11
57.4006
 21
12.7321
  0
LINE
  8
0
 10
57.4006
 20
12.7321
 11
55.6204
 21
12.3544
  0
LINE
  8
0
 10
55.6204
 20
12.3544
 11
53.7128
 21
12.117
  0
LINE
  8
0
 10
53.7128
 20
12.117
 11
51.6261
 21
12.0498
  0
LINE
  8
0
 10
51.6261
 20
12.0498
 11
49.4385
 21
12.2289
  0
LINE
  8
0
 10
49.4385
 20
12.2289
 11
47.0649
 21
12.7243
  0
LINE
  8
0
 10
47.0649
 20
12.7243
 11
44.5503
 21
13.539
  0
LINE
  8
0
 10
44.5503
 20
13.539
 11
41.94
 21
14.6758
  0
LINE
  8
0
 10
41.94
 20
14.6758
 11
39.279
 21
16.1378
  0
LINE
  8
0
 10
39.279
 20
16.1378
 11
36.6125
 21
17.9278
  0
LINE
  8
0
 10
36.6125
 20
17.9278
 11
35.2578
 21
19.0216
  0
LINE
  8
0
 10
35.2578
 20
19.0216
 11
35.0315
 21
19.2958
  0
LINE
  8
0
 10
35.0315
 20
19.2958
 11
33.8884
 21
20.819
  0
LINE
  8
0
 10
33.8884
 20
20.819
 11
32.7946
 21
22.4276
  0
LINE
  8
0
 10
32.7946
 20
22.4276
 11
31.7559
 21
24.1219
  0
LINE
  8
0
 10
31.7559
 20
24.1219
 11
30.7779
 21
25.9022
  0
LINE
  8
0
 10
30.7779
 20
25.9022
 11
29.8663
 21
27.769
  0
LINE
  8
0
 10
29.8663
 20
27.769
 11
29.0267
 21
29.7226
  0
LINE
  8
0
 10
29.0267
 20
29.7226
 11
28.2647
 21
31.7634
  0
LINE
  8
0
 10
28.2647
 20
31.7634
 11
28.2052
 21
31.95
  0
LINE
  8
0
 10
28.2052
 20
31.95
 11
28.2
 21
31.95
  0
LINE
  8
0
 10
28.2
 20
31.95
 11
28.2
 21
32.1727
  0
LINE
  8
0
 10
28.2
 20
32.1727
 11
28.1621
 21
32.2398
  0
LINE
  8
0
 10
28.1621
 20
32.2398
 11
28.1379
 21
32.2786
  0
LINE
  8
0
 10
28.1379
 20
32.2786
 11
28.1
 21
32.3329
  0
LINE
  8
0
 10
28.1
 20
32.3329
 11
28.0389
 21
32.4121
  0
LINE
  8
0
 10
28.0389
 20
32.4121
 11
27.9363
 21
32.5343
  0
LINE
  8
0
 10
27.9363
 20
32.5343
 11
27.7523
 21
32.7369
  0
LINE
  8
0
 10
27.7523
 20
32.7369
 11
27.389
 21
33.11
  0
LINE
  8
0
 10
27.389
 20
33.11
 11
26.5518
 21
33.9162
  0
LINE
  8
0
 10
26.5518
 20
33.9162
 11
24.011
 21
36.2198
  0
LINE
  8
0
 10
24.011
 20
36.2198
 11
9.46837
 21
48.659
  0
LINE
  8
0
 10
9.46837
 20
48.659
 11
2.03552
 21
54.6
  0
LINE
  8
0
 10
2.03552
 20
54.6
 11
-28.2
 21
54.6
  0
LINE
  8
0
 10
-28.2
 20
54.6
 11
-28.2
 21
54.5598
  0
LINE
  8
0
 10
-28.2
 20
54.5598
 11
-28.6901
 21
54.5806
  0
LINE
  8
0
 10
-28.6901
 20
54.5806
 11
-30.0359
 21
54.7292
  0
LINE
  8
0
 10
-30.0359
 20
54.7292
 11
-31.3292
 21
54.9621
  0
LINE
  8
0
 10
-31.3292
 20
54.9621
 11
-32.5745
 21
55.2747
  0
LINE
  8
0
 10
-32.5745
 20
55.2747
 11
-33.7764
 21
55.6624
  0
LINE
  8
0
 10
-33.7764
 20
55.6624
 11
-34.9394
 21
56.1207
  0
LINE
  8
0
 10
-34.9394
 20
56.1207
 11
-37.1673
 21
57.2308
  0
LINE
  8
0
 10
-37.1673
 20
57.2308
 11
-39.295
 21
58.5683
  0
LINE
  8
0
 10
-39.295
 20
58.5683
 11
-41.3591
 21
60.0967
  0
LINE
  8
0
 10
-41.3591
 20
60.0967
 11
-43.3963
 21
61.7795
  0
LINE
  8
0
 10
-43.3963
 20
61.7795
 11
-45.4433
 21
63.5801
  0
LINE
  8
0
 10
-45.4433
 20
63.5801
 11
-49.7138
 21
67.3884
  0
LINE
  8
0
 10
-49.7138
 20
67.3884
 11
-52.0105
 21
69.323
  0
LINE
  8
0
 10
-52.0105
 20
69.323
 11
-54.464
 21
71.2293
  0
LINE
  8
0
 10
-54.464
 20
71.2293
 11
-57.1107
 21
73.0705
  0
LINE
  8
0
 10
-57.1107
 20
73.0705
 11
-59.9875
 21
74.8102
  0
LINE
  8
0
 10
-59.9875
 20
74.8102
 11
-63.1311
 21
76.4119
  0
LINE
  8
0
 10
-63.1311
 20
76.4119
 11
-64.8143
 21
77.1495
  0
LINE
  8
0
 10
-64.8143
 20
77.1495
 11
-66.5784
 21
77.8386
  0
LINE
  8
0
 10
-66.5784
 20
77.8386
 11
-69.0562
 21
78.6863
  0
LINE
  8
0
 10
-69.0562
 20
78.6863
 11
-71.5591
 21
79.4516
  0
LINE
  8
0
 10
-71.5591
 20
79.4516
 11
-74.0849
 21
80.134
  0
LINE
  8
0
 10
-74.0849
 20
80.134
 11
-76.6314
 21
80.733
  0
LINE
  8
0
 10
-76.6314
 20
80.733
 11
-79.1966
 21
81.2482
  0
LINE
  8
0
 10
-79.1966
 20
81.2482
 11
-81.7783
 21
81.6791
  0
LINE
  8
0
 10
-81.7783
 20
81.6791
 11
-84.3745
 21
82.0253
  0
LINE
  8
0
 10
-84.3745
 20
82.0253
 11
-86.983
 21
82.2862
  0
LINE
  8
0
 10
-86.983
 20
82.2862
 11
-88.8523
 21
82.4454
  0
LINE
  8
0
 10
-88.8523
 20
82.4454
 11
-90.7211
 21
82.5278
  0
LINE
  8
0
 10
-90.7211
 20
82.5278
 11
-94.4476
 21
82.4647
  0
LINE
  8
0
 10
-94.4476
 20
82.4647
 11
-98.1442
 21
82.1011
  0
LINE
  8
0
 10
-98.1442
 20
82.1011
 11
-101.793
 21
81.4409
  0
LINE
  8
0
 10
-101.793
 20
81.4409
 11
-105.374
 21
80.4884
  0
LINE
  8
0
 10
-105.374
 20
80.4884
 11
-108.871
 21
79.2476
  0
LINE
  8
0
 10
-108.871
 20
79.2476
 11
-112.264
 21
77.7225
  0
LINE
  8
0
 10
-112.264
 20
77.7225
 11
-113.917
 21
76.8547
  0
LINE
  8
0
 10
-113.917
 20
76.8547
 11
-115.537
 21
75.9174
  0
LINE
  8
0
 10
-115.537
 20
75.9174
 11
-117.128
 21
74.8446
  0
LINE
  8
0
 10
-117.128
 20
74.8446
 11
-118.652
 21
73.6835
  0
LINE
  8
0
 10
-118.652
 20
73.6835
 11
-120.107
 21
72.4372
  0
LINE
  8
0
 10
-120.107
 20
72.4372
 11
-121.487
 21
71.1088
  0
LINE
  8
0
 10
-121.487
 20
71.1088
 11
-127.487
 21
65.1088
  0
LINE
  8
0
 10
-127.487
 20
65.1088
 11
-129.221
 21
63.0309
  0
LINE
  8
0
 10
-129.221
 20
63.0309
 11
-130.822
 21
60.8599
  0
LINE
  8
0
 10
-130.822
 20
60.8599
 11
-132.286
 21
58.6022
  0
LINE
  8
0
 10
-132.286
 20
58.6022
 11
-133.611
 21
56.2642
  0
LINE
  8
0
 10
-133.611
 20
56.2642
 11
-134.792
 21
53.8523
  0
LINE
  8
0
 10
-134.792
 20
53.8523
 11
-135.827
 21
51.3728
  0
LINE
  8
0
 10
-135.827
 20
51.3728
 11
-136.713
 21
48.8322
  0
LINE
  8
0
 10
-136.713
 20
48.8322
 11
-137.445
 21
46.2367
  0
LINE
  8
0
 10
-137.445
 20
46.2367
 11
-138.314
 21
42.3587
  0
LINE
  8
0
 10
-138.314
 20
42.3587
 11
-138.997
 21
38.4509
  0
LINE
  8
0
 10
-138.997
 20
38.4509
 11
-139.492
 21
34.5199
  0
LINE
  8
0
 10
-139.492
 20
34.5199
 11
-139.8
 21
30.5724
  0
LINE
  8
0
 10
-139.8
 20
30.5724
 11
-139.92
 21
26.6149
  0
LINE
  8
0
 10
-139.92
 20
26.6149
 11
-139.851
 21
22.654
  0
LINE
  8
0
 10
-139.851
 20
22.654
 11
-139.594
 21
18.6964
  0
LINE
  8
0
 10
-139.594
 20
18.6964
 11
-139.147
 21
14.748
  0
LINE
  8
0
 10
-139.147
 20
14.748
 11
-138.269
 21
10.251
  0
LINE
  8
0
 10
-138.269
 20
10.251
 11
-137.247
 21
5.78406
  0
LINE
  8
0
 10
-137.247
 20
5.78406
 11
-136.082
 21
1.35146
  0
LINE
  8
0
 10
-136.082
 20
1.35146
 11
-134.776
 21
-3.04362
  0
LINE
  8
0
 10
-134.776
 20
-3.04362
 11
-133.28
 21
-7.64299
  0
LINE
  8
0
 10
-133.28
 20
-7.64299
 11
-131.668
 21
-12.2029
  0
LINE
  8
0
 10
-131.668
 20
-12.2029
 11
-129.94
 21
-16.7214
  0
LINE
  8
0
 10
-129.94
 20
-16.7214
 11
-128.098
 21
-21.1963
  0
LINE
  8
0
 10
-128.098
 20
-21.1963
 11
-125.034
 21
-28.3744
  0
LINE
  8
0
 10
-125.034
 20
-28.3744
 11
-122.139
 21
-35.6208
  0
LINE
  8
0
 10
-122.139
 20
-35.6208
 11
-120.364
 21
-39.5833
  0
LINE
  8
0
 10
-120.364
 20
-39.5833
 11
-118.848
 21
-43.6362
  0
LINE
  8
0
 10
-118.848
 20
-43.6362
 11
-117.594
 21
-47.7669
  0
LINE
  8
0
 10
-117.594
 20
-47.7669
 11
-116.605
 21
-51.963
  0
LINE
  8
0
 10
-116.605
 20
-51.963
 11
-115.882
 21
-56.2121
  0
LINE
  8
0
 10
-115.882
 20
-56.2121
 11
-115.428
 21
-60.5017
  0
LINE
  8
0
 10
-115.428
 20
-60.5017
 11
-115.246
 21
-64.8192
  0
LINE
  8
0
 10
-115.246
 20
-64.8192
 11
-115.338
 21
-69.1527
  0
LINE
  8
0
 10
-115.338
 20
-69.1527
 11
-115.797
 21
-72.8546
  0
LINE
  8
0
 10
-115.797
 20
-72.8546
 11
-116.41
 21
-76.5298
  0
LINE
  8
0
 10
-116.41
 20
-76.5298
 11
-117.175
 21
-80.1737
  0
LINE
  8
0
 10
-117.175
 20
-80.1737
 11
-118.091
 21
-83.7818
  0
LINE
  8
0
 10
-118.091
 20
-83.7818
 11
-119.157
 21
-87.3494
  0
LINE
  8
0
 10
-119.157
 20
-87.3494
 11
-120.371
 21
-90.872
  0
LINE
  8
0
 10
-120.371
 20
-90.872
 11
-121.733
 21
-94.3449
  0
LINE
  8
0
 10
-121.733
 20
-94.3449
 11
-123.24
 21
-97.7637
  0
LINE
  8
0
 10
-123.24
 20
-97.7637
 11
-126.813
 21
-105.993
  0
LINE
  8
0
 10
-126.813
 20
-105.993
 11
-130.643
 21
-114.108
  0
LINE
  8
0
 10
-130.643
 20
-114.108
 11
-133.785
 21
-120.118
  0
LINE
  8
0
 10
-133.785
 20
-120.118
 11
-136.804
 21
-126.188
  0
LINE
  8
0
 10
-136.804
 20
-126.188
 11
-139.698
 21
-132.316
  0
LINE
  8
0
 10
-139.698
 20
-132.316
 11
-142.467
 21
-138.499
  0
LINE
  8
0
 10
-142.467
 20
-138.499
 11
-145.109
 21
-144.735
  0
LINE
  8
0
 10
-145.109
 20
-144.735
 11
-147.625
 21
-151.024
  0
LINE
  8
0
 10
-147.625
 20
-151.024
 11
-150.013
 21
-157.363
  0
LINE
  8
0
 10
-150.013
 20
-157.363
 11
-152.272
 21
-163.75
  0
LINE
  8
0
 10
-152.272
 20
-163.75
 11
-153.503
 21
-167.313
  0
LINE
  8
0
 10
-153.503
 20
-167.313
 11
-154.639
 21
-170.905
  0
LINE
  8
0
 10
-154.639
 20
-170.905
 11
-155.68
 21
-174.524
  0
LINE
  8
0
 10
-155.68
 20
-174.524
 11
-156.625
 21
-178.168
  0
LINE
  8
0
 10
-156.625
 20
-178.168
 11
-157.473
 21
-181.835
  0
LINE
  8
0
 10
-157.473
 20
-181.835
 11
-158.225
 21
-185.524
  0
LINE
  8
0
 10
-158.225
 20
-185.524
 11
-158.88
 21
-189.232
  0
LINE
  8
0
 10
-158.88
 20
-189.232
 11
-159.436
 21
-192.957
  0
LINE
  8
0
 10
-159.436
 20
-192.957
 11
-160.256
 21
-199.205
  0
LINE
  8
0
 10
-160.256
 20
-199.205
 11
-160.774
 21
-205.481
  0
LINE
  8
0
 10
-160.774
 20
-205.481
 11
-160.989
 21
-211.775
  0
LINE
  8
0
 10
-160.989
 20
-211.775
 11
-160.901
 21
-218.075
  0
LINE
  8
0
 10
-160.901
 20
-218.075
 11
-160.723
 21
-220.976
  0
LINE
  8
0
 10
-160.723
 20
-220.976
 11
-160.452
 21
-223.857
  0
LINE
  8
0
 10
-160.452
 20
-223.857
 11
-160.088
 21
-226.718
  0
LINE
  8
0
 10
-160.088
 20
-226.718
 11
-159.635
 21
-229.557
  0
LINE
  8
0
 10
-159.635
 20
-229.557
 11
-159.091
 21
-232.371
  0
LINE
  8
0
 10
-159.091
 20
-232.371
 11
-158.46
 21
-235.159
  0
LINE
  8
0
 10
-158.46
 20
-235.159
 11
-157.741
 21
-237.919
  0
LINE
  8
0
 10
-157.741
 20
-237.919
 11
-156.936
 21
-240.65
  0
LINE
  8
0
 10
-156.936
 20
-240.65
 11
-156.046
 21
-243.349
  0
LINE
  8
0
 10
-156.046
 20
-243.349
 11
-155.072
 21
-246.014
  0
LINE
  8
0
 10
-155.072
 20
-246.014
 11
-154.015
 21
-248.645
  0
LINE
  8
0
 10
-154.015
 20
-248.645
 11
-152.877
 21
-251.238
  0
LINE
  8
0
 10
-152.877
 20
-251.238
 11
-151.658
 21
-253.793
  0
LINE
  8
0
 10
-151.658
 20
-253.793
 11
-150.36
 21
-256.306
  0
LINE
  8
0
 10
-150.36
 20
-256.306
 11
-148.984
 21
-258.778
  0
LINE
  8
0
 10
-148.984
 20
-258.778
 11
-147.531
 21
-261.205
  0
LINE
  8
0
 10
-147.531
 20
-261.205
 11
-146.001
 21
-263.586
  0
LINE
  8
0
 10
-146.001
 20
-263.586
 11
-144.397
 21
-265.919
  0
LINE
  8
0
 10
-144.397
 20
-265.919
 11
-142.719
 21
-268.202
  0
LINE
  8
0
 10
-142.719
 20
-268.202
 11
-140.969
 21
-270.433
  0
LINE
  8
0
 10
-140.969
 20
-270.433
 11
-139.147
 21
-272.611
  0
LINE
  8
0
 10
-139.147
 20
-272.611
 11
-137.255
 21
-274.734
  0
LINE
  8
0
 10
-137.255
 20
-274.734
 11
-135.294
 21
-276.8
  0
LINE
  8
0
 10
-135.294
 20
-276.8
 11
-129.294
 21
-282.8
  0
LINE
  8
0
 10
-129.294
 20
-282.8
 11
-127.264
 21
-284.807
  0
LINE
  8
0
 10
-127.264
 20
-284.807
 11
-125.168
 21
-286.753
  0
LINE
  8
0
 10
-125.168
 20
-286.753
 11
-123.006
 21
-288.637
  0
LINE
  8
0
 10
-123.006
 20
-288.637
 11
-120.779
 21
-290.457
  0
LINE
  8
0
 10
-120.779
 20
-290.457
 11
-118.489
 21
-292.21
  0
LINE
  8
0
 10
-118.489
 20
-292.21
 11
-116.136
 21
-293.895
  0
LINE
  8
0
 10
-116.136
 20
-293.895
 11
-113.722
 21
-295.511
  0
LINE
  8
0
 10
-113.722
 20
-295.511
 11
-111.248
 21
-297.055
  0
LINE
  8
0
 10
-111.248
 20
-297.055
 11
-108.715
 21
-298.525
  0
LINE
  8
0
 10
-108.715
 20
-298.525
 11
-106.482
 21
-299.699
  0
LINE
  8
0
 10
-106.482
 20
-299.699
 11
-104.188
 21
-300.758
  0
LINE
  8
0
 10
-104.188
 20
-300.758
 11
-101.054
 21
-302.056
  0
LINE
  8
0
 10
-101.054
 20
-302.056
 11
-97.8844
 21
-303.266
  0
LINE
  8
0
 10
-97.8844
 20
-303.266
 11
-94.6821
 21
-304.389
  0
LINE
  8
0
 10
-94.6821
 20
-304.389
 11
-91.4486
 21
-305.422
  0
LINE
  8
0
 10
-91.4486
 20
-305.422
 11
-88.3213
 21
-306.318
  0
LINE
  8
0
 10
-88.3213
 20
-306.318
 11
-85.1652
 21
-307.11
  0
LINE
  8
0
 10
-85.1652
 20
-307.11
 11
-81.9841
 21
-307.796
  0
LINE
  8
0
 10
-81.9841
 20
-307.796
 11
-78.7797
 21
-308.377
  0
LINE
  8
0
 10
-78.7797
 20
-308.377
 11
-69.6162
 21
-309.756
  0
LINE
  8
0
 10
-69.6162
 20
-309.756
 11
-60.4198
 21
-310.887
  0
LINE
  8
0
 10
-60.4198
 20
-310.887
 11
-51.1956
 21
-311.769
  0
LINE
  8
0
 10
-51.1956
 20
-311.769
 11
-41.9484
 21
-312.403
  0
LINE
  8
0
 10
-41.9484
 20
-312.403
 11
-41.1601
 21
-312.438
  0
LINE
  8
0
 10
-41.1601
 20
-312.438
 11
-30.824
 21
-312.741
  0
LINE
  8
0
 10
-30.824
 20
-312.741
 11
-20.4863
 21
-312.957
  0
LINE
  8
0
 10
-20.4863
 20
-312.957
 11
-10.1474
 21
-313.086
  0
LINE
  8
0
 10
-10.1474
 20
-313.086
 11
0.191925
 21
-313.128
  0
LINE
  8
0
 10
0.191925
 20
-313.128
 11
10.5313
 21
-313.083
  0
LINE
  8
0
 10
-101.075
 20
73.838
 11
-101.862
 21
74.625
  0
LINE
  8
0
 10
-101.862
 20
74.625
 11
-102.15
 21
75.7
  0
LINE
  8
0
 10
-102.15
 20
75.7
 11
-101.862
 21
76.775
  0
LINE
  8
0
 10
-101.862
 20
76.775
 11
-101.075
 21
77.562
  0
LINE
  8
0
 10
-101.075
 20
77.562
 11
-100
 21
77.85
  0
LINE
  8
0
 10
-100
 20
77.85
 11
-98.925
 21
77.562
  0
LINE
  8
0
 10
-98.925
 20
77.562
 11
-98.138
 21
76.775
  0
LINE
  8
0
 10
-98.138
 20
76.775
 11
-97.85
 21
75.7
  0
LINE
  8
0
 10
-97.85
 20
75.7
 11
-98.138
 21
74.625
  0
LINE
  8
0
 10
-98.138
 20
74.625
 11
-98.925
 21
73.838
  0
LINE
  8
0
 10
-98.925
 20
73.838
 11
-100
 21
73.55
  0
LINE
  8
0
 10
-100
 20
73.55
 11
-101.075
 21
73.838
  0
LINE
  8
0
 10
106.925
 20
67.638
 11
106.138
 21
68.425
  0
LINE
  8
0
 10
106.138
 20
68.425
 11
105.85
 21
69.5
  0
LINE
  8
0
 10
105.85
 20
69.5
 11
106.138
 21
70.575
  0
LINE
  8
0
 10
106.138
 20
70.575
 11
106.925
 21
71.362
  0
LINE
  8
0
 10
106.925
 20
71.362
 11
108
 21
71.65
  0
LINE
  8
0
 10
108
 20
71.65
 11
109.075
 21
71.362
  0
LINE
  8
0
 10
109.075
 20
71.362
 11
109.862
 21
70.575
  0
LINE
  8
0
 10
109.862
 20
70.575
 11
110.15
 21
69.5
  0
LINE
  8
0
 10
110.15
 20
69.5
 11
109.862
 21
68.425
  0
LINE
  8
0
 10
109.862
 20
68.425
 11
109.075
 21
67.638
  0
LINE
  8
0
 10
109.075
 20
67.638
 11
108
 21
67.35
  0
LINE
  8
0
 10
108
 20
67.35
 11
106.925
 21
67.638
  0
LINE
  8
0
 10
-10.1474
 20
-301.086
 11
-20.4863
 21
-300.957
  0
LINE
  8
0
 10
-20.4863
 20
-300.957
 11
-30.824
 21
-300.741
  0
LINE
  8
0
 10
-30.824
 20
-300.741
 11
-41.1611
 21
-300.438
  0
LINE
  8
0
 10
-41.1611
 20
-300.438
 11
-41.95
 21
-300.403
  0
LINE
  8
0
 10
-41.95
 20
-300.403
 11
-51.1956
 21
-299.769
  0
LINE
  8
0
 10
-51.1956
 20
-299.769
 11
-60.4198
 21
-298.887
  0
LINE
  8
0
 10
-60.4198
 20
-298.887
 11
-69.6162
 21
-297.756
  0
LINE
  8
0
 10
-69.6162
 20
-297.756
 11
-78.7807
 21
-296.377
  0
LINE
  8
0
 10
-78.7807
 20
-296.377
 11
-81.9841
 21
-295.796
  0
LINE
  8
0
 10
-81.9841
 20
-295.796
 11
-85.1652
 21
-295.11
  0
LINE
  8
0
 10
-85.1652
 20
-295.11
 11
-88.3213
 21
-294.318
  0
LINE
  8
0
 10
-88.3213
 20
-294.318
 11
-91.4497
 21
-293.422
  0
LINE
  8
0
 10
-91.4497
 20
-293.422
 11
-94.6821
 21
-292.389
  0
LINE
  8
0
 10
-94.6821
 20
-292.389
 11
-97.8844
 21
-291.266
  0
LINE
  8
0
 10
-97.8844
 20
-291.266
 11
-101.054
 21
-290.056
  0
LINE
  8
0
 10
-101.054
 20
-290.056
 11
-104.189
 21
-288.757
  0
LINE
  8
0
 10
-104.189
 20
-288.757
 11
-106.482
 21
-287.699
  0
LINE
  8
0
 10
-106.482
 20
-287.699
 11
-108.714
 21
-286.525
  0
LINE
  8
0
 10
-108.714
 20
-286.525
 11
-111.248
 21
-285.055
  0
LINE
  8
0
 10
-111.248
 20
-285.055
 11
-113.722
 21
-283.511
  0
LINE
  8
0
 10
-113.722
 20
-283.511
 11
-116.136
 21
-281.895
  0
LINE
  8
0
 10
-116.136
 20
-281.895
 11
-118.489
 21
-280.21
  0
LINE
  8
0
 10
-118.489
 20
-280.21
 11
-120.779
 21
-278.457
  0
LINE
  8
0
 10
-120.779
 20
-278.457
 11
-123.006
 21
-276.637
  0
LINE
  8
0
 10
-123.006
 20
-276.637
 11
-125.168
 21
-274.753
  0
LINE
  8
0
 10
-125.168
 20
-274.753
 11
-125.574
 21
-274.376
  0
LINE
  8
0
 10
-125.574
 20
-274.376
 11
-127.147
 21
-272.611
  0
LINE
  8
0
 10
-127.147
 20
-272.611
 11
-128.969
 21
-270.433
  0
LINE
  8
0
 10
-128.969
 20
-270.433
 11
-130.719
 21
-268.202
  0
LINE
  8
0
 10
-130.719
 20
-268.202
 11
-132.397
 21
-265.919
  0
LINE
  8
0
 10
-132.397
 20
-265.919
 11
-134.001
 21
-263.586
  0
LINE
  8
0
 10
-134.001
 20
-263.586
 11
-135.531
 21
-261.205
  0
LINE
  8
0
 10
-135.531
 20
-261.205
 11
-136.984
 21
-258.778
  0
LINE
  8
0
 10
-136.984
 20
-258.778
 11
-138.36
 21
-256.306
  0
LINE
  8
0
 10
-138.36
 20
-256.306
 11
-139.658
 21
-253.793
  0
LINE
  8
0
 10
-139.658
 20
-253.793
 11
-140.877
 21
-251.238
  0
LINE
  8
0
 10
-140.877
 20
-251.238
 11
-142.015
 21
-248.645
  0
LINE
  8
0
 10
-142.015
 20
-248.645
 11
-143.072
 21
-246.014
  0
LINE
  8
0
 10
-143.072
 20
-246.014
 11
-144.046
 21
-243.349
  0
LINE
  8
0
 10
-144.046
 20
-243.349
 11
-144.936
 21
-240.65
  0
LINE
  8
0
 10
-144.936
 20
-240.65
 11
-145.741
 21
-237.919
  0
LINE
  8
0
 10
-145.741
 20
-237.919
 11
-146.46
 21
-235.159
  0
LINE
  8
0
 10
-146.46
 20
-235.159
 11
-147.091
 21
-232.371
  0
LINE
  8
0
 10
-147.091
 20
-232.371
 11
-147.635
 21
-229.557
  0
LINE
  8
0
 10
-147.635
 20
-229.557
 11
-148.088
 21
-226.718
  0
LINE
  8
0
 10
-148.088
 20
-226.718
 11
-148.452
 21
-223.857
  0
LINE
  8
0
 10
-148.452
 20
-223.857
 11
-148.723
 21
-220.976
  0
LINE
  8
0
 10
-148.723
 20
-220.976
 11
-148.901
 21
-218.075
  0
LINE
  8
0
 10
-148.901
 20
-218.075
 11
-148.989
 21
-211.775
  0
LINE
  8
0
 10
-148.989
 20
-211.775
 11
-148.774
 21
-205.481
  0
LINE
  8
0
 10
-148.774
 20
-205.481
 11
-148.256
 21
-199.205
  0
LINE
  8
0
 10
-148.256
 20
-199.205
 11
-147.436
 21
-192.957
  0
LINE
  8
0
 10
-147.436
 20
-192.957
 11
-146.88
 21
-189.232
  0
LINE
  8
0
 10
-146.88
 20
-189.232
 11
-146.225
 21
-185.524
  0
LINE
  8
0
 10
-146.225
 20
-185.524
 11
-145.473
 21
-181.835
  0
LINE
  8
0
 10
-145.473
 20
-181.835
 11
-144.625
 21
-178.168
  0
LINE
  8
0
 10
-144.625
 20
-178.168
 11
-143.68
 21
-174.524
  0
LINE
  8
0
 10
-143.68
 20
-174.524
 11
-142.639
 21
-170.905
  0
LINE
  8
0
 10
-142.639
 20
-170.905
 11
-141.503
 21
-167.313
  0
LINE
  8
0
 10
-141.503
 20
-167.313
 11
-140.272
 21
-163.75
  0
LINE
  8
0
 10
-140.272
 20
-163.75
 11
-138.013
 21
-157.363
  0
LINE
  8
0
 10
-138.013
 20
-157.363
 11
-135.625
 21
-151.024
  0
LINE
  8
0
 10
-135.625
 20
-151.024
 11
-133.109
 21
-144.735
  0
LINE
  8
0
 10
-133.109
 20
-144.735
 11
-130.467
 21
-138.499
  0
LINE
  8
0
 10
-130.467
 20
-138.499
 11
-127.698
 21
-132.316
  0
LINE
  8
0
 10
-127.698
 20
-132.316
 11
-124.804
 21
-126.188
  0
LINE
  8
0
 10
-124.804
 20
-126.188
 11
-121.785
 21
-120.118
  0
LINE
  8
0
 10
-121.785
 20
-120.118
 11
-118.643
 21
-114.108
  0
LINE
  8
0
 10
-118.643
 20
-114.108
 11
-114.813
 21
-105.993
  0
LINE
  8
0
 10
-114.813
 20
-105.993
 11
-111.24
 21
-97.7633
  0
LINE
  8
0
 10
-111.24
 20
-97.7633
 11
-109.733
 21
-94.3449
  0
LINE
  8
0
 10
-109.733
 20
-94.3449
 11
-108.371
 21
-90.872
  0
LINE
  8
0
 10
-108.371
 20
-90.872
 11
-107.157
 21
-87.3494
  0
LINE
  8
0
 10
-107.157
 20
-87.3494
 11
-106.091
 21
-83.7818
  0
LINE
  8
0
 10
-106.091
 20
-83.7818
 11
-105.175
 21
-80.1737
  0
LINE
  8
0
 10
-105.175
 20
-80.1737
 11
-104.41
 21
-76.5298
  0
LINE
  8
0
 10
-104.41
 20
-76.5298
 11
-103.797
 21
-72.8546
  0
LINE
  8
0
 10
-103.797
 20
-72.8546
 11
-103.338
 21
-69.1524
  0
LINE
  8
0
 10
-103.338
 20
-69.1524
 11
-103.246
 21
-64.8192
  0
LINE
  8
0
 10
-103.246
 20
-64.8192
 11
-103.428
 21
-60.5017
  0
LINE
  8
0
 10
-103.428
 20
-60.5017
 11
-103.882
 21
-56.2121
  0
LINE
  8
0
 10
-103.882
 20
-56.2121
 11
-104.605
 21
-51.963
  0
LINE
  8
0
 10
-104.605
 20
-51.963
 11
-105.594
 21
-47.7669
  0
LINE
  8
0
 10
-105.594
 20
-47.7669
 11
-106.848
 21
-43.6362
  0
LINE
  8
0
 10
-106.848
 20
-43.6362
 11
-108.364
 21
-39.5833
  0
LINE
  8
0
 10
-108.364
 20
-39.5833
 11
-110.139
 21
-35.6208
  0
LINE
  8
0
 10
-110.139
 20
-35.6208
 11
-113.034
 21
-28.3744
  0
LINE
  8
0
 10
-113.034
 20
-28.3744
 11
-116.099
 21
-21.1959
  0
LINE
  8
0
 10
-116.099
 20
-21.1959
 11
-117.94
 21
-16.7214
  0
LINE
  8
0
 10
-117.94
 20
-16.7214
 11
-119.668
 21
-12.2029
  0
LINE
  8
0
 10
-119.668
 20
-12.2029
 11
-121.28
 21
-7.64299
  0
LINE
  8
0
 10
-121.28
 20
-7.64299
 11
-122.776
 21
-3.04346
  0
LINE
  8
0
 10
-122.776
 20
-3.04346
 11
-124.082
 21
1.35146
  0
LINE
  8
0
 10
-124.082
 20
1.35146
 11
-125.247
 21
5.78406
  0
LINE
  8
0
 10
-125.247
 20
5.78406
 11
-126.269
 21
10.251
  0
LINE
  8
0
 10
-126.269
 20
10.251
 11
-127.148
 21
14.7493
  0
LINE
  8
0
 10
-127.148
 20
14.7493
 11
-127.594
 21
18.6964
  0
LINE
  8
0
 10
-127.594
 20
18.6964
 11
-127.851
 21
22.654
  0
LINE
  8
0
 10
-127.851
 20
22.654
 11
-127.92
 21
26.6149
  0
LINE
  8
0
 10
-127.92
 20
26.6149
 11
-127.8
 21
30.5724
  0
LINE
  8
0
 10
-127.8
 20
30.5724
 11
-127.492
 21
34.5199
  0
LINE
  8
0
 10
-127.492
 20
34.5199
 11
-126.997
 21
38.4509
  0
LINE
  8
0
 10
-126.997
 20
38.4509
 11
-126.314
 21
42.3587
  0
LINE
  8
0
 10
-126.314
 20
42.3587
 11
-125.445
 21
46.2367
  0
LINE
  8
0
 10
-125.445
 20
46.2367
 11
-124.713
 21
48.8322
  0
LINE
  8
0
 10
-124.713
 20
48.8322
 11
-123.827
 21
51.3728
  0
LINE
  8
0
 10
-123.827
 20
51.3728
 11
-122.792
 21
53.8523
  0
LINE
  8
0
 10
-122.792
 20
53.8523
 11
-121.611
 21
56.2642
  0
LINE
  8
0
 10
-121.611
 20
56.2642
 11
-120.286
 21
58.6022
  0
LINE
  8
0
 10
-120.286
 20
58.6022
 11
-118.822
 21
60.8599
  0
LINE
  8
0
 10
-118.822
 20
60.8599
 11
-117.653
 21
62.4444
  0
LINE
  8
0
 10
-117.653
 20
62.4444
 11
-117.128
 21
62.8446
  0
LINE
  8
0
 10
-117.128
 20
62.8446
 11
-115.536
 21
63.9174
  0
LINE
  8
0
 10
-115.536
 20
63.9174
 11
-113.917
 21
64.8547
  0
LINE
  8
0
 10
-113.917
 20
64.8547
 11
-112.264
 21
65.7225
  0
LINE
  8
0
 10
-112.264
 20
65.7225
 11
-108.871
 21
67.2476
  0
LINE
  8
0
 10
-108.871
 20
67.2476
 11
-105.374
 21
68.4884
  0
LINE
  8
0
 10
-105.374
 20
68.4884
 11
-101.793
 21
69.4409
  0
LINE
  8
0
 10
-101.793
 20
69.4409
 11
-98.1442
 21
70.1011
  0
LINE
  8
0
 10
-98.1442
 20
70.1011
 11
-94.4476
 21
70.4647
  0
LINE
  8
0
 10
-94.4476
 20
70.4647
 11
-90.7211
 21
70.5278
  0
LINE
  8
0
 10
-90.7211
 20
70.5278
 11
-88.8523
 21
70.4454
  0
LINE
  8
0
 10
-88.8523
 20
70.4454
 11
-86.983
 21
70.2862
  0
LINE
  8
0
 10
-86.983
 20
70.2862
 11
-84.3745
 21
70.0253
  0
LINE
  8
0
 10
-84.3745
 20
70.0253
 11
-81.7783
 21
69.6791
  0
LINE
  8
0
 10
-81.7783
 20
69.6791
 11
-79.1966
 21
69.2482
  0
LINE
  8
0
 10
-79.1966
 20
69.2482
 11
-76.6314
 21
68.733
  0
LINE
  8
0
 10
-76.6314
 20
68.733
 11
-74.0849
 21
68.134
  0
LINE
  8
0
 10
-74.0849
 20
68.134
 11
-71.5591
 21
67.4516
  0
LINE
  8
0
 10
-71.5591
 20
67.4516
 11
-69.0562
 21
66.6863
  0
LINE
  8
0
 10
-69.0562
 20
66.6863
 11
-66.578
 21
65.8389
  0
LINE
  8
0
 10
-66.578
 20
65.8389
 11
-64.8143
 21
65.1495
  0
LINE
  8
0
 10
-64.8143
 20
65.1495
 11
-63.1311
 21
64.4119
  0
LINE
  8
0
 10
-63.1311
 20
64.4119
 11
-59.9875
 21
62.8102
  0
LINE
  8
0
 10
-59.9875
 20
62.8102
 11
-57.1107
 21
61.0705
  0
LINE
  8
0
 10
-57.1107
 20
61.0705
 11
-54.464
 21
59.2293
  0
LINE
  8
0
 10
-54.464
 20
59.2293
 11
-52.0105
 21
57.323
  0
LINE
  8
0
 10
-52.0105
 20
57.323
 11
-49.7138
 21
55.3884
  0
LINE
  8
0
 10
-49.7138
 20
55.3884
 11
-45.4433
 21
51.5801
  0
LINE
  8
0
 10
-45.4433
 20
51.5801
 11
-43.3963
 21
49.7795
  0
LINE
  8
0
 10
-43.3963
 20
49.7795
 11
-41.3591
 21
48.0967
  0
LINE
  8
0
 10
-41.3591
 20
48.0967
 11
-39.295
 21
46.5683
  0
LINE
  8
0
 10
-39.295
 20
46.5683
 11
-37.1673
 21
45.2308
  0
LINE
  8
0
 10
-37.1673
 20
45.2308
 11
-34.9394
 21
44.1207
  0
LINE
  8
0
 10
-34.9394
 20
44.1207
 11
-33.7764
 21
43.6624
  0
LINE
  8
0
 10
-33.7764
 20
43.6624
 11
-32.5745
 21
43.2747
  0
LINE
  8
0
 10
-32.5745
 20
43.2747
 11
-31.3292
 21
42.9621
  0
LINE
  8
0
 10
-31.3292
 20
42.9621
 11
-30.0359
 21
42.7292
  0
LINE
  8
0
 10
-30.0359
 20
42.7292
 11
-28.6901
 21
42.5806
  0
LINE
  8
0
 10
-28.6901
 20
42.5806
 11
-28.2
 21
42.5598
  0
LINE
  8
0
 10
-28.2
 20
42.5598
 11
-28.2
 21
31.95
  0
LINE
  8
0
 10
-28.2
 20
31.95
 11
16.2052
 21
31.95
  0
LINE
  8
0
 10
16.2052
 20
31.95
 11
16.2647
 21
31.7634
  0
LINE
  8
0
 10
16.2647
 20
31.7634
 11
17.0267
 21
29.7226
  0
LINE
  8
0
 10
17.0267
 20
29.7226
 11
17.8663
 21
27.769
  0
LINE
  8
0
 10
17.8663
 20
27.769
 11
18.7779
 21
25.9022
  0
LINE
  8
0
 10
18.7779
 20
25.9022
 11
19.7559
 21
24.1219
  0
LINE
  8
0
 10
19.7559
 20
24.1219
 11
20.7946
 21
22.4276
  0
LINE
  8
0
 10
20.7946
 20
22.4276
 11
21.8884
 21
20.819
  0
LINE
  8
0
 10
21.8884
 20
20.819
 11
23.0315
 21
19.2958
  0
LINE
  8
0
 10
23.0315
 20
19.2958
 11
24.2185
 21
17.8575
  0
LINE
  8
0
 10
24.2185
 20
17.8575
 11
25.4436
 21
16.5039
  0
LINE
  8
0
 10
25.4436
 20
16.5039
 11
26.7012
 21
15.2344
  0
LINE
  8
0
 10
26.7012
 20
15.2344
 11
32.7012
 21
9.23442
  0
LINE
  8
0
 10
32.7012
 20
9.23442
 11
33.9856
 21
8.04884
  0
LINE
  8
0
 10
33.9856
 20
8.04884
 11
36.6125
 21
5.92781
  0
LINE
  8
0
 10
36.6125
 20
5.92781
 11
39.279
 21
4.13779
  0
LINE
  8
0
 10
39.279
 20
4.13779
 11
41.94
 21
2.67583
  0
LINE
  8
0
 10
41.94
 20
2.67583
 11
44.5503
 21
1.539
  0
LINE
  8
0
 10
44.5503
 20
1.539
 11
47.0649
 21
0.72435
  0
LINE
  8
0
 10
47.0649
 20
0.72435
 11
49.4385
 21
0.228912
  0
LINE
  8
0
 10
49.4385
 20
0.228912
 11
51.6261
 21
0.0497589
  0
LINE
  8
0
 10
51.6261
 20
0.0497589
 11
53.7128
 21
0.116989
  0
LINE
  8
0
 10
53.7128
 20
0.116989
 11
55.6204
 21
0.354446
  0
LINE
  8
0
 10
55.6204
 20
0.354446
 11
57.4006
 21
0.732086
  0
LINE
  8
0
 10
57.4006
 20
0.732086
 11
59.1052
 21
1.21976
  0
LINE
  8
0
 10
59.1052
 20
1.21976
 11
61.2511
 21
1.98473
  0
LINE
  8
0
 10
61.2511
 20
1.98473
 11
63.3268
 21
2.89848
  0
LINE
  8
0
 10
63.3268
 20
2.89848
 11
65.3248
 21
3.95602
  0
LINE
  8
0
 10
65.3248
 20
3.95602
 11
67.2379
 21
5.15233
  0
LINE
  8
0
 10
67.2379
 20
5.15233
 11
69.0585
 21
6.48239
  0
LINE
  8
0
 10
69.0585
 20
6.48239
 11
70.7792
 21
7.94119
  0
LINE
  8
0
 10
70.7792
 20
7.94119
 11
72.3927
 21
9.5237
  0
LINE
  8
0
 10
72.3927
 20
9.5237
 11
78.3927
 21
15.5237
  0
LINE
  8
0
 10
78.3927
 20
15.5237
 11
79.8915
 21
17.2251
  0
LINE
  8
0
 10
79.8915
 20
17.2251
 11
82.3969
 21
20.4644
  0
LINE
  8
0
 10
82.3969
 20
20.4644
 11
84.7153
 21
23.8265
  0
LINE
  8
0
 10
84.7153
 20
23.8265
 11
86.8426
 21
27.3031
  0
LINE
  8
0
 10
86.8426
 20
27.3031
 11
88.7747
 21
30.8862
  0
LINE
  8
0
 10
88.7747
 20
30.8862
 11
90.5075
 21
34.5678
  0
LINE
  8
0
 10
90.5075
 20
34.5678
 11
92.0369
 21
38.3397
  0
LINE
  8
0
 10
92.0369
 20
38.3397
 11
93.3588
 21
42.1938
  0
LINE
  8
0
 10
93.3588
 20
42.1938
 11
94.4693
 21
46.1222
  0
LINE
  8
0
 10
94.4693
 20
46.1222
 11
95.9167
 21
51.3079
  0
LINE
  8
0
 10
95.9167
 20
51.3079
 11
97.6123
 21
56.4193
  0
LINE
  8
0
 10
97.6123
 20
56.4193
 11
98.2785
 21
58.0835
  0
LINE
  8
0
 10
98.2785
 20
58.0835
 11
99.0562
 21
59.6974
  0
LINE
  8
0
 10
99.0562
 20
59.6974
 11
99.8909
 21
61.1643
  0
LINE
  8
0
 10
99.8909
 20
61.1643
 11
100.585
 21
61.5801
  0
LINE
  8
0
 10
100.585
 20
61.5801
 11
102.268
 21
62.3572
  0
LINE
  8
0
 10
102.268
 20
62.3572
 11
104.025
 21
62.9553
  0
LINE
  8
0
 10
104.025
 20
62.9553
 11
105.84
 21
63.3707
  0
LINE
  8
0
 10
105.84
 20
63.3707
 11
107.696
 21
63.5999
  0
LINE
  8
0
 10
107.696
 20
63.5999
 11
109.576
 21
63.6393
  0
LINE
  8
0
 10
109.576
 20
63.6393
 11
111.464
 21
63.4853
  0
LINE
  8
0
 10
111.464
 20
63.4853
 11
113.343
 21
63.1343
  0
LINE
  8
0
 10
113.343
 20
63.1343
 11
115.196
 21
62.5828
  0
LINE
  8
0
 10
115.196
 20
62.5828
 11
117.007
 21
61.8272
  0
LINE
  8
0
 10
117.007
 20
61.8272
 11
118.675
 21
60.9095
  0
LINE
  8
0
 10
118.675
 20
60.9095
 11
119.241
 21
60.0727
  0
LINE
  8
0
 10
119.241
 20
60.0727
 11
120.148
 21
58.5491
  0
LINE
  8
0
 10
120.148
 20
58.5491
 11
121.162
 21
56.6275
  0
LINE
  8
0
 10
121.162
 20
56.6275
 11
122.086
 21
54.6651
  0
LINE
  8
0
 10
122.086
 20
54.6651
 11
122.917
 21
52.665
  0
LINE
  8
0
 10
122.917
 20
52.665
 11
123.654
 21
50.6306
  0
LINE
  8
0
 10
123.654
 20
50.6306
 11
124.297
 21
48.565
  0
LINE
  8
0
 10
124.297
 20
48.565
 11
124.844
 21
46.4714
  0
LINE
  8
0
 10
124.844
 20
46.4714
 11
125.294
 21
44.3531
  0
LINE
  8
0
 10
125.294
 20
44.3531
 11
125.647
 21
42.2132
  0
LINE
  8
0
 10
125.647
 20
42.2132
 11
126.01
 21
39.3604
  0
LINE
  8
0
 10
126.01
 20
39.3604
 11
126.296
 21
36.5026
  0
LINE
  8
0
 10
126.296
 20
36.5026
 11
126.505
 21
33.6413
  0
LINE
  8
0
 10
126.505
 20
33.6413
 11
126.636
 21
30.778
  0
LINE
  8
0
 10
126.636
 20
30.778
 11
126.691
 21
27.9142
  0
LINE
  8
0
 10
126.691
 20
27.9142
 11
126.669
 21
25.0516
  0
LINE
  8
0
 10
126.669
 20
25.0516
 11
126.57
 21
22.1915
  0
LINE
  8
0
 10
126.57
 20
22.1915
 11
126.394
 21
19.3355
  0
LINE
  8
0
 10
126.394
 20
19.3355
 11
126.142
 21
16.4852
  0
LINE
  8
0
 10
126.142
 20
16.4852
 11
125.813
 21
13.642
  0
LINE
  8
0
 10
125.813
 20
13.642
 11
125.408
 21
10.8074
  0
LINE
  8
0
 10
125.408
 20
10.8074
 11
124.927
 21
7.98299
  0
LINE
  8
0
 10
124.927
 20
7.98299
 11
124.37
 21
5.17027
  0
LINE
  8
0
 10
124.37
 20
5.17027
 11
123.737
 21
2.37076
  0
LINE
  8
0
 10
123.737
 20
2.37076
 11
123.028
 21
-0.414001
  0
LINE
  8
0
 10
123.028
 20
-0.414001
 11
122.243
 21
-3.18256
  0
LINE
  8
0
 10
122.243
 20
-3.18256
 11
120.523
 21
-8.60179
  0
LINE
  8
0
 10
120.523
 20
-8.60179
 11
118.609
 21
-13.9568
  0
LINE
  8
0
 10
118.609
 20
-13.9568
 11
115.302
 21
-22.4425
  0
LINE
  8
0
 10
115.302
 20
-22.4425
 11
111.81
 21
-30.8551
  0
LINE
  8
0
 10
111.81
 20
-30.8551
 11
108.98
 21
-37.8451
  0
LINE
  8
0
 10
108.98
 20
-37.8451
 11
106.423
 21
-44.9377
  0
LINE
  8
0
 10
106.423
 20
-44.9377
 11
105.564
 21
-47.8893
  0
LINE
  8
0
 10
105.564
 20
-47.8893
 11
104.837
 21
-50.8714
  0
LINE
  8
0
 10
104.837
 20
-50.8714
 11
104.246
 21
-53.8794
  0
LINE
  8
0
 10
104.246
 20
-53.8794
 11
103.791
 21
-56.909
  0
LINE
  8
0
 10
103.791
 20
-56.909
 11
103.472
 21
-59.9556
  0
LINE
  8
0
 10
103.472
 20
-59.9556
 11
103.289
 21
-63.0148
  0
LINE
  8
0
 10
103.289
 20
-63.0148
 11
103.244
 21
-66.0819
  0
LINE
  8
0
 10
103.244
 20
-66.0819
 11
103.337
 21
-69.1526
  0
LINE
  8
0
 10
103.337
 20
-69.1526
 11
103.797
 21
-72.8542
  0
LINE
  8
0
 10
103.797
 20
-72.8542
 11
104.409
 21
-76.5294
  0
LINE
  8
0
 10
104.409
 20
-76.5294
 11
105.175
 21
-80.1734
  0
LINE
  8
0
 10
105.175
 20
-80.1734
 11
106.091
 21
-83.7815
  0
LINE
  8
0
 10
106.091
 20
-83.7815
 11
107.156
 21
-87.3491
  0
LINE
  8
0
 10
107.156
 20
-87.3491
 11
108.37
 21
-90.8717
  0
LINE
  8
0
 10
108.37
 20
-90.8717
 11
109.731
 21
-94.3447
  0
LINE
  8
0
 10
109.731
 20
-94.3447
 11
111.238
 21
-97.7634
  0
LINE
  8
0
 10
111.238
 20
-97.7634
 11
114.812
 21
-105.993
  0
LINE
  8
0
 10
114.812
 20
-105.993
 11
118.643
 21
-114.108
  0
LINE
  8
0
 10
118.643
 20
-114.108
 11
121.785
 21
-120.118
  0
LINE
  8
0
 10
121.785
 20
-120.118
 11
124.803
 21
-126.188
  0
LINE
  8
0
 10
124.803
 20
-126.188
 11
127.697
 21
-132.316
  0
LINE
  8
0
 10
127.697
 20
-132.316
 11
130.465
 21
-138.499
  0
LINE
  8
0
 10
130.465
 20
-138.499
 11
133.108
 21
-144.735
  0
LINE
  8
0
 10
133.108
 20
-144.735
 11
135.623
 21
-151.024
  0
LINE
  8
0
 10
135.623
 20
-151.024
 11
138.011
 21
-157.363
  0
LINE
  8
0
 10
138.011
 20
-157.363
 11
140.271
 21
-163.75
  0
LINE
  8
0
 10
140.271
 20
-163.75
 11
141.502
 21
-167.313
  0
LINE
  8
0
 10
141.502
 20
-167.313
 11
142.638
 21
-170.905
  0
LINE
  8
0
 10
142.638
 20
-170.905
 11
143.679
 21
-174.524
  0
LINE
  8
0
 10
143.679
 20
-174.524
 11
144.624
 21
-178.168
  0
LINE
  8
0
 10
144.624
 20
-178.168
 11
145.473
 21
-181.835
  0
LINE
  8
0
 10
145.473
 20
-181.835
 11
146.225
 21
-185.524
  0
LINE
  8
0
 10
146.225
 20
-185.524
 11
146.879
 21
-189.232
  0
LINE
  8
0
 10
146.879
 20
-189.232
 11
147.436
 21
-192.957
  0
LINE
  8
0
 10
147.436
 20
-192.957
 11
147.887
 21
-196.102
  0
LINE
  8
0
 10
147.887
 20
-196.102
 11
148.261
 21
-199.256
  0
LINE
  8
0
 10
148.261
 20
-199.256
 11
148.558
 21
-202.417
  0
LINE
  8
0
 10
148.558
 20
-202.417
 11
148.779
 21
-205.584
  0
LINE
  8
0
 10
148.779
 20
-205.584
 11
148.923
 21
-208.755
  0
LINE
  8
0
 10
148.923
 20
-208.755
 11
148.989
 21
-211.929
  0
LINE
  8
0
 10
148.989
 20
-211.929
 11
148.979
 21
-215.105
  0
LINE
  8
0
 10
148.979
 20
-215.105
 11
148.891
 21
-218.281
  0
LINE
  8
0
 10
148.891
 20
-218.281
 11
148.721
 21
-220.99
  0
LINE
  8
0
 10
148.721
 20
-220.99
 11
148.47
 21
-223.684
  0
LINE
  8
0
 10
148.47
 20
-223.684
 11
148.139
 21
-226.36
  0
LINE
  8
0
 10
148.139
 20
-226.36
 11
147.727
 21
-229.018
  0
LINE
  8
0
 10
147.727
 20
-229.018
 11
147.238
 21
-231.655
  0
LINE
  8
0
 10
147.238
 20
-231.655
 11
146.671
 21
-234.271
  0
LINE
  8
0
 10
146.671
 20
-234.271
 11
146.026
 21
-236.863
  0
LINE
  8
0
 10
146.026
 20
-236.863
 11
145.306
 21
-239.43
  0
LINE
  8
0
 10
145.306
 20
-239.43
 11
144.511
 21
-241.971
  0
LINE
  8
0
 10
144.511
 20
-241.971
 11
143.642
 21
-244.484
  0
LINE
  8
0
 10
143.642
 20
-244.484
 11
142.699
 21
-246.968
  0
LINE
  8
0
 10
142.699
 20
-246.968
 11
141.685
 21
-249.42
  0
LINE
  8
0
 10
141.685
 20
-249.42
 11
140.598
 21
-251.84
  0
LINE
  8
0
 10
140.598
 20
-251.84
 11
139.441
 21
-254.227
  0
LINE
  8
0
 10
139.441
 20
-254.227
 11
138.214
 21
-256.577
  0
LINE
  8
0
 10
138.214
 20
-256.577
 11
136.919
 21
-258.891
  0
LINE
  8
0
 10
136.919
 20
-258.891
 11
135.555
 21
-261.166
  0
LINE
  8
0
 10
135.555
 20
-261.166
 11
134.124
 21
-263.401
  0
LINE
  8
0
 10
134.124
 20
-263.401
 11
132.627
 21
-265.594
  0
LINE
  8
0
 10
132.627
 20
-265.594
 11
131.065
 21
-267.744
  0
LINE
  8
0
 10
131.065
 20
-267.744
 11
129.438
 21
-269.849
  0
LINE
  8
0
 10
129.438
 20
-269.849
 11
127.748
 21
-271.909
  0
LINE
  8
0
 10
127.748
 20
-271.909
 11
125.994
 21
-273.92
  0
LINE
  8
0
 10
125.994
 20
-273.92
 11
125.59
 21
-274.357
  0
LINE
  8
0
 10
125.59
 20
-274.357
 11
124.373
 21
-275.459
  0
LINE
  8
0
 10
124.373
 20
-275.459
 11
122.32
 21
-277.209
  0
LINE
  8
0
 10
122.32
 20
-277.209
 11
120.209
 21
-278.903
  0
LINE
  8
0
 10
120.209
 20
-278.903
 11
118.042
 21
-280.538
  0
LINE
  8
0
 10
118.042
 20
-280.538
 11
115.819
 21
-282.113
  0
LINE
  8
0
 10
115.819
 20
-282.113
 11
113.54
 21
-283.627
  0
LINE
  8
0
 10
113.54
 20
-283.627
 11
110.515
 21
-285.47
  0
LINE
  8
0
 10
110.515
 20
-285.47
 11
107.405
 21
-287.165
  0
LINE
  8
0
 10
107.405
 20
-287.165
 11
104.215
 21
-288.708
  0
LINE
  8
0
 10
104.215
 20
-288.708
 11
100.95
 21
-290.096
  0
LINE
  8
0
 10
100.95
 20
-290.096
 11
97.0419
 21
-291.571
  0
LINE
  8
0
 10
97.0419
 20
-291.571
 11
93.0844
 21
-292.911
  0
LINE
  8
0
 10
93.0844
 20
-292.911
 11
89.0827
 21
-294.117
  0
LINE
  8
0
 10
89.0827
 20
-294.117
 11
85.0392
 21
-295.185
  0
LINE
  8
0
 10
85.0392
 20
-295.185
 11
81.6826
 21
-295.888
  0
LINE
  8
0
 10
81.6826
 20
-295.888
 11
71.7032
 21
-297.464
  0
LINE
  8
0
 10
71.7032
 20
-297.464
 11
61.6818
 21
-298.746
  0
LINE
  8
0
 10
61.6818
 20
-298.746
 11
51.6265
 21
-299.733
  0
LINE
  8
0
 10
51.6265
 20
-299.733
 11
41.5434
 21
-300.425
  0
LINE
  8
0
 10
41.5434
 20
-300.425
 11
31.2077
 21
-300.731
  0
LINE
  8
0
 10
31.2077
 20
-300.731
 11
20.8701
 21
-300.951
  0
LINE
  8
0
 10
20.8701
 20
-300.951
 11
10.5313
 21
-301.083
  0
LINE
  8
0
 10
10.5313
 20
-301.083
 11
0.191925
 21
-301.128
  0
LINE
  8
0
 10
0.191925
 20
-301.128
 11
-10.1474
 21
-301.086
  0
LINE
  8
0
 10
-36.075
 20
48.488
 11
-36.862
 21
49.275
  0
LINE
  8
0
 10
-36.862
 20
49.275
 11
-37.15
 21
50.35
  0
LINE
  8
0
 10
-37.15
 20
50.35
 11
-36.862
 21
51.425
  0
LINE
  8
0
 10
-36.862
 20
51.425
 11
-36.075
 21
52.2119
  0
LINE
  8
0
 10
-36.075
 20
52.2119
 11
-35
 21
52.5
  0
LINE
  8
0
 10
-35
 20
52.5
 11
-33.925
 21
52.2119
  0
LINE
  8
0
 10
-33.925
 20
52.2119
 11
-33.138
 21
51.425
  0
LINE
  8
0
 10
-33.138
 20
51.425
 11
-32.85
 21
50.35
  0
LINE
  8
0
 10
-32.85
 20
50.35
 11
-33.138
 21
49.275
  0
LINE
  8
0
 10
-33.138
 20
49.275
 11
-33.925
 21
48.488
  0
LINE
  8
0
 10
-33.925
 20
48.488
 11
-35
 21
48.2
  0
LINE
  8
0
 10
-35
 20
48.2
 11
-36.075
 21
48.488
  0
LINE
  8
0
 10
-14.385
 20
34.179
 11
-15.859
 21
35.5063
  0
LINE
  8
0
 10
-15.859
 20
35.5063
 11
-16.6658
 21
37.3183
  0
LINE
  8
0
 10
-16.6658
 20
37.3183
 11
-16.6658
 21
39.3017
  0
LINE
  8
0
 10
-16.6658
 20
39.3017
 11
-15.859
 21
41.1137
  0
LINE
  8
0
 10
-15.859
 20
41.1137
 11
-14.385
 21
42.4409
  0
LINE
  8
0
 10
-14.385
 20
42.4409
 11
-12.4986
 21
43.0539
  0
LINE
  8
0
 10
-12.4986
 20
43.0539
 11
-10.526
 21
42.8465
  0
LINE
  8
0
 10
-10.526
 20
42.8465
 11
-8.80824
 21
41.8548
  0
LINE
  8
0
 10
-8.80824
 20
41.8548
 11
-7.64238
 21
40.2501
  0
LINE
  8
0
 10
-7.64238
 20
40.2501
 11
-7.23
 21
38.31
  0
LINE
  8
0
 10
-7.23
 20
38.31
 11
-7.64238
 21
36.3699
  0
LINE
  8
0
 10
-7.64238
 20
36.3699
 11
-8.80824
 21
34.7652
  0
LINE
  8
0
 10
-8.80824
 20
34.7652
 11
-10.526
 21
33.7735
  0
LINE
  8
0
 10
-10.526
 20
33.7735
 11
-12.4986
 21
33.5661
  0
LINE
  8
0
 10
-12.4986
 20
33.5661
 11
-14.385
 21
34.179
  0
LINE
  8
0
 10
-9.3564
 20
34.995
 11
-8.17989
 21
36.4703
  0
LINE
  8
0
 10
-8.17989
 20
36.4703
 11
-7.75999
 21
38.31
  0
LINE
  8
0
 10
-7.75999
 20
38.31
 11
-8.17989
 21
40.1497
  0
LINE
  8
0
 10
-8.17989
 20
40.1497
 11
-9.3564
 21
41.625
  0
LINE
  8
0
 10
-9.3564
 20
41.625
 11
-11.0565
 21
42.4437
  0
LINE
  8
0
 10
-11.0565
 20
42.4437
 11
-12.9435
 21
42.4437
  0
LINE
  8
0
 10
-12.9435
 20
42.4437
 11
-14.6436
 21
41.625
  0
LINE
  8
0
 10
-14.6436
 20
41.625
 11
-15.8201
 21
40.1497
  0
LINE
  8
0
 10
-15.8201
 20
40.1497
 11
-16.24
 21
38.31
  0
LINE
  8
0
 10
-16.24
 20
38.31
 11
-15.8201
 21
36.4703
  0
LINE
  8
0
 10
-15.8201
 20
36.4703
 11
-14.6436
 21
34.995
  0
LINE
  8
0
 10
-14.6436
 20
34.995
 11
-12.9435
 21
34.1763
  0
LINE
  8
0
 10
-12.9435
 20
34.1763
 11
-11.0565
 21
34.1763
  0
LINE
  8
0
 10
-11.0565
 20
34.1763
 11
-9.3564
 21
34.995
  0
LINE
  8
0
 10
9.61499
 20
34.179
 11
8.14098
 21
35.5063
  0
LINE
  8
0
 10
8.14098
 20
35.5063
 11
7.33423
 21
37.3183
  0
LINE
  8
0
 10
7.33423
 20
37.3183
 11
7.33423
 21
39.3017
  0
LINE
  8
0
 10
7.33423
 20
39.3017
 11
8.14098
 21
41.1137
  0
LINE
  8
0
 10
8.14098
 20
41.1137
 11
9.61499
 21
42.4409
  0
LINE
  8
0
 10
9.61499
 20
42.4409
 11
11.5014
 21
43.0539
  0
LINE
  8
0
 10
11.5014
 20
43.0539
 11
13.474
 21
42.8465
  0
LINE
  8
0
 10
13.474
 20
42.8465
 11
15.1917
 21
41.8548
  0
LINE
  8
0
 10
15.1917
 20
41.8548
 11
16.3576
 21
40.2501
  0
LINE
  8
0
 10
16.3576
 20
40.2501
 11
16.77
 21
38.31
  0
LINE
  8
0
 10
16.77
 20
38.31
 11
16.3576
 21
36.3699
  0
LINE
  8
0
 10
16.3576
 20
36.3699
 11
15.1917
 21
34.7652
  0
LINE
  8
0
 10
15.1917
 20
34.7652
 11
13.474
 21
33.7735
  0
LINE
  8
0
 10
13.474
 20
33.7735
 11
11.5014
 21
33.5661
  0
LINE
  8
0
 10
11.5014
 20
33.5661
 11
9.61499
 21
34.179
  0
LINE
  8
0
 10
14.6436
 20
34.995
 11
15.8201
 21
36.4703
  0
LINE
  8
0
 10
15.8201
 20
36.4703
 11
16.24
 21
38.31
  0
LINE
  8
0
 10
16.24
 20
38.31
 11
15.8201
 21
40.1497
  0
LINE
  8
0
 10
15.8201
 20
40.1497
 11
14.6436
 21
41.625
  0
LINE
  8
0
 10
14.6436
 20
41.625
 11
12.9435
 21
42.4437
  0
LINE
  8
0
 10
12.9435
 20
42.4437
 11
11.0565
 21
42.4437
  0
LINE
  8
0
 10
11.0565
 20
42.4437
 11
9.3564
 21
41.625
  0
LINE
  8
0
 10
9.3564
 20
41.625
 11
8.17989
 21
40.1497
  0
LINE
  8
0
 10
8.17989
 20
40.1497
 11
7.75999
 21
38.31
  0
LINE
  8
0
 10
7.75999
 20
38.31
 11
8.17989
 21
36.4703
  0
LINE
  8
0
 10
8.17989
 20
36.4703
 11
9.3564
 21
34.995
  0
LINE
  8
0
 10
9.3564
 20
34.995
 11
11.0565
 21
34.1763
  0
LINE
  8
0
 10
11.0565
 20
34.1763
 11
12.9435
 21
34.1763
  0
LINE
  8
0
 10
12.9435
 20
34.1763
 11
14.6436
 21
34.995
  0
LINE
  8
0
 10
80.925
 20
27.638
 11
80.138
 21
28.425
  0
LINE
  8
0
 10
80.138
 20
28.425
 11
79.85
 21
29.5
  0
LINE
  8
0
 10
79.85
 20
29.5
 11
80.138
 21
30.575
  0
LINE
  8
0
 10
80.138
 20
30.575
 11
80.925
 21
31.362
  0
LINE
  8
0
 10
80.925
 20
31.362
 11
82
 21
31.65
  0
LINE
  8
0
 10
82
 20
31.65
 11
83.075
 21
31.362
  0
LINE
  8
0
 10
83.075
 20
31.362
 11
83.862
 21
30.575
  0
LINE
  8
0
 10
83.862
 20
30.575
 11
84.15
 21
29.5
  0
LINE
  8
0
 10
84.15
 20
29.5
 11
83.862
 21
28.425
  0
LINE
  8
0
 10
83.862
 20
28.425
 11
83.075
 21
27.638
  0
LINE
  8
0
 10
83.075
 20
27.638
 11
82
 21
27.35
  0
LINE
  8
0
 10
82
 20
27.35
 11
80.925
 21
27.638
  0
LINE
  8
0
 10
130.675
 20
8.13803
 11
129.888
 21
8.92499
  0
LINE
  8
0
 10
129.888
 20
8.92499
 11
129.6
 21
10
  0
LINE
  8
0
 10
129.6
 20
10
 11
129.888
 21
11.075
  0
LINE
  8
0
 10
129.888
 20
11.075
 11
130.675
 21
11.862
  0
LINE
  8
0
 10
130.675
 20
11.862
 11
131.75
 21
12.15
  0
LINE
  8
0
 10
131.75
 20
12.15
 11
132.825
 21
11.862
  0
LINE
  8
0
 10
132.825
 20
11.862
 11
133.612
 21
11.075
  0
LINE
  8
0
 10
133.612
 20
11.075
 11
133.9
 21
10
  0
LINE
  8
0
 10
133.9
 20
10
 11
133.612
 21
8.92499
  0
LINE
  8
0
 10
133.612
 20
8.92499
 11
132.825
 21
8.13803
  0
LINE
  8
0
 10
132.825
 20
8.13803
 11
131.75
 21
7.84999
  0
LINE
  8
0
 10
131.75
 20
7.84999
 11
130.675
 21
8.13803
  0
LINE
  8
0
 10
-132.825
 20
8.13803
 11
-133.612
 21
8.92499
  0
LINE
  8
0
 10
-133.612
 20
8.92499
 11
-133.9
 21
10
  0
LINE
  8
0
 10
-133.9
 20
10
 11
-133.612
 21
11.075
  0
LINE
  8
0
 10
-133.612
 20
11.075
 11
-132.825
 21
11.862
  0
LINE
  8
0
 10
-132.825
 20
11.862
 11
-131.75
 21
12.15
  0
LINE
  8
0
 10
-131.75
 20
12.15
 11
-130.675
 21
11.862
  0
LINE
  8
0
 10
-130.675
 20
11.862
 11
-129.888
 21
11.075
  0
LINE
  8
0
 10
-129.888
 20
11.075
 11
-129.6
 21
10
  0
LINE
  8
0
 10
-129.6
 20
10
 11
-129.888
 21
8.92499
  0
LINE
  8
0
 10
-129.888
 20
8.92499
 11
-130.675
 21
8.13803
  0
LINE
  8
0
 10
-130.675
 20
8.13803
 11
-131.75
 21
7.84999
  0
LINE
  8
0
 10
-131.75
 20
7.84999
 11
-132.825
 21
8.13803
  0
LINE
  8
0
 10
38.925
 20
7.93803
 11
38.138
 21
8.72499
  0
LINE
  8
0
 10
38.138
 20
8.72499
 11
37.85
 21
9.79999
  0
LINE
  8
0
 10
37.85
 20
9.79999
 11
38.138
 21
10.875
  0
LINE
  8
0
 10
38.138
 20
10.875
 11
38.925
 21
11.6619
  0
LINE
  8
0
 10
38.925
 20
11.6619
 11
40
 21
11.95
  0
LINE
  8
0
 10
40
 20
11.95
 11
41.075
 21
11.6619
  0
LINE
  8
0
 10
41.075
 20
11.6619
 11
41.862
 21
10.875
  0
LINE
  8
0
 10
41.862
 20
10.875
 11
42.15
 21
9.79999
  0
LINE
  8
0
 10
42.15
 20
9.79999
 11
41.862
 21
8.72499
  0
LINE
  8
0
 10
41.862
 20
8.72499
 11
41.075
 21
7.93803
  0
LINE
  8
0
 10
41.075
 20
7.93803
 11
40
 21
7.64999
  0
LINE
  8
0
 10
40
 20
7.64999
 11
38.925
 21
7.93803
  0
LINE
  8
0
 10
108.125
 20
-66.862
 11
107.338
 21
-66.075
  0
LINE
  8
0
 10
107.338
 20
-66.075
 11
107.05
 21
-65
  0
LINE
  8
0
 10
107.05
 20
-65
 11
107.338
 21
-63.925
  0
LINE
  8
0
 10
107.338
 20
-63.925
 11
108.125
 21
-63.138
  0
LINE
  8
0
 10
108.125
 20
-63.138
 11
109.2
 21
-62.85
  0
LINE
  8
0
 10
109.2
 20
-62.85
 11
110.275
 21
-63.138
  0
LINE
  8
0
 10
110.275
 20
-63.138
 11
111.062
 21
-63.925
  0
LINE
  8
0
 10
111.062
 20
-63.925
 11
111.35
 21
-65
  0
LINE
  8
0
 10
111.35
 20
-65
 11
111.062
 21
-66.075
  0
LINE
  8
0
 10
111.062
 20
-66.075
 11
110.275
 21
-66.862
  0
LINE
  8
0
 10
110.275
 20
-66.862
 11
109.2
 21
-67.15
  0
LINE
  8
0
 10
109.2
 20
-67.15
 11
108.125
 21
-66.862
  0
LINE
  8
0
 10
-110.275
 20
-66.862
 11
-111.062
 21
-66.075
  0
LINE
  8
0
 10
-111.062
 20
-66.075
 11
-111.35
 21
-65
  0
LINE
  8
0
 10
-111.35
 20
-65
 11
-111.062
 21
-63.925
  0
LINE
  8
0
 10
-111.062
 20
-63.925
 11
-110.275
 21
-63.138
  0
LINE
  8
0
 10
-110.275
 20
-63.138
 11
-109.2
 21
-62.85
  0
LINE
  8
0
 10
-109.2
 20
-62.85
 11
-108.125
 21
-63.138
  0
LINE
  8
0
 10
-108.125
 20
-63.138
 11
-107.338
 21
-63.925
  0
LINE
  8
0
 10
-107.338
 20
-63.925
 11
-107.05
 21
-65
  0
LINE
  8
0
 10
-107.05
 20
-65
 11
-107.338
 21
-66.075
  0
LINE
  8
0
 10
-107.338
 20
-66.075
 11
-108.125
 21
-66.862
  0
LINE
  8
0
 10
-108.125
 20
-66.862
 11
-109.2
 21
-67.15
  0
LINE
  8
0
 10
-109.2
 20
-67.15
 11
-110.275
 21
-66.862
  0
LINE
  8
0
 10
-137.075
 20
-139.862
 11
-137.862
 21
-139.075
  0
LINE
  8
0
 10
-137.862
 20
-139.075
 11
-138.15
 21
-138
  0
LINE
  8
0
 10
-138.15
 20
-138
 11
-137.862
 21
-136.925
  0
LINE
  8
0
 10
-137.862
 20
-136.925
 11
-137.075
 21
-136.138
  0
LINE
  8
0
 10
-137.075
 20
-136.138
 11
-136
 21
-135.85
  0
LINE
  8
0
 10
-136
 20
-135.85
 11
-134.925
 21
-136.138
  0
LINE
  8
0
 10
-134.925
 20
-136.138
 11
-134.138
 21
-136.925
  0
LINE
  8
0
 10
-134.138
 20
-136.925
 11
-133.85
 21
-138
  0
LINE
  8
0
 10
-133.85
 20
-138
 11
-134.138
 21
-139.075
  0
LINE
  8
0
 10
-134.138
 20
-139.075
 11
-134.925
 21
-139.862
  0
LINE
  8
0
 10
-134.925
 20
-139.862
 11
-136
 21
-140.15
  0
LINE
  8
0
 10
-136
 20
-140.15
 11
-137.075
 21
-139.862
  0
LINE
  8
0
 10
134.925
 20
-139.862
 11
134.138
 21
-139.075
  0
LINE
  8
0
 10
134.138
 20
-139.075
 11
133.85
 21
-138
  0
LINE
  8
0
 10
133.85
 20
-138
 11
134.138
 21
-136.925
  0
LINE
  8
0
 10
134.138
 20
-136.925
 11
134.925
 21
-136.138
  0
LINE
  8
0
 10
134.925
 20
-136.138
 11
136
 21
-135.85
  0
LINE
  8
0
 10
136
 20
-135.85
 11
137.075
 21
-136.138
  0
LINE
  8
0
 10
137.075
 20
-136.138
 11
137.862
 21
-136.925
  0
LINE
  8
0
 10
137.862
 20
-136.925
 11
138.15
 21
-138
  0
LINE
  8
0
 10
138.15
 20
-138
 11
137.862
 21
-139.075
  0
LINE
  8
0
 10
137.862
 20
-139.075
 11
137.075
 21
-139.862
  0
LINE
  8
0
 10
137.075
 20
-139.862
 11
136
 21
-140.15
  0
LINE
  8
0
 10
136
 20
-140.15
 11
134.925
 21
-139.862
  0
LINE
  8
0
 10
153.725
 20
-218.862
 11
152.938
 21
-218.075
  0
LINE
  8
0
 10
152.938
 20
-218.075
 11
152.65
 21
-217
  0
LINE
  8
0
 10
152.65
 20
-217
 11
152.938
 21
-215.925
  0
LINE
  8
0
 10
152.938
 20
-215.925
 11
153.725
 21
-215.138
  0
LINE
  8
0
 10
153.725
 20
-215.138
 11
154.8
 21
-214.85
  0
LINE
  8
0
 10
154.8
 20
-214.85
 11
155.875
 21
-215.138
  0
LINE
  8
0
 10
155.875
 20
-215.138
 11
156.662
 21
-215.925
  0
LINE
  8
0
 10
156.662
 20
-215.925
 11
156.95
 21
-217
  0
LINE
  8
0
 10
156.95
 20
-217
 11
156.662
 21
-218.075
  0
LINE
  8
0
 10
156.662
 20
-218.075
 11
155.875
 21
-218.862
  0
LINE
  8
0
 10
155.875
 20
-218.862
 11
154.8
 21
-219.15
  0
LINE
  8
0
 10
154.8
 20
-219.15
 11
153.725
 21
-218.862
  0
LINE
  8
0
 10
-155.875
 20
-218.862
 11
-156.662
 21
-218.075
  0
LINE
  8
0
 10
-156.662
 20
-218.075
 11
-156.95
 21
-217
  0
LINE
  8
0
 10
-156.95
 20
-217
 11
-156.662
 21
-215.925
  0
LINE
  8
0
 10
-156.662
 20
-215.925
 11
-155.875
 21
-215.138
  0
LINE
  8
0
 10
-155.875
 20
-215.138
 11
-154.8
 21
-214.85
  0
LINE
  8
0
 10
-154.8
 20
-214.85
 11
-153.725
 21
-215.138
  0
LINE
  8
0
 10
-153.725
 20
-215.138
 11
-152.938
 21
-215.925
  0
LINE
  8
0
 10
-152.938
 20
-215.925
 11
-152.65
 21
-217
  0
LINE
  8
0
 10
-152.65
 20
-217
 11
-152.938
 21
-218.075
  0
LINE
  8
0
 10
-152.938
 20
-218.075
 11
-153.725
 21
-218.862
  0
LINE
  8
0
 10
-153.725
 20
-218.862
 11
-154.8
 21
-219.15
  0
LINE
  8
0
 10
-154.8
 20
-219.15
 11
-155.875
 21
-218.862
  0
LINE
  8
0
 10
-115.075
 20
-290.862
 11
-115.862
 21
-290.075
  0
LINE
  8
0
 10
-115.862
 20
-290.075
 11
-116.15
 21
-289
  0
LINE
  8
0
 10
-116.15
 20
-289
 11
-115.862
 21
-287.925
  0
LINE
  8
0
 10
-115.862
 20
-287.925
 11
-115.075
 21
-287.138
  0
LINE
  8
0
 10
-115.075
 20
-287.138
 11
-114
 21
-286.85
  0
LINE
  8
0
 10
-114
 20
-286.85
 11
-112.925
 21
-287.138
  0
LINE
  8
0
 10
-112.925
 20
-287.138
 11
-112.138
 21
-287.925
  0
LINE
  8
0
 10
-112.138
 20
-287.925
 11
-111.85
 21
-289
  0
LINE
  8
0
 10
-111.85
 20
-289
 11
-112.138
 21
-290.075
  0
LINE
  8
0
 10
-112.138
 20
-290.075
 11
-112.925
 21
-290.862
  0
LINE
  8
0
 10
-112.925
 20
-290.862
 11
-114
 21
-291.15
  0
LINE
  8
0
 10
-114
 20
-291.15
 11
-115.075
 21
-290.862
  0
LINE
  8
0
 10
112.925
 20
-290.862
 11
112.138
 21
-290.075
  0
LINE
  8
0
 10
112.138
 20
-290.075
 11
111.85
 21
-289
  0
LINE
  8
0
 10
111.85
 20
-289
 11
112.138
 21
-287.925
  0
LINE
  8
0
 10
112.138
 20
-287.925
 11
112.925
 21
-287.138
  0
LINE
  8
0
 10
112.925
 20
-287.138
 11
114
 21
-286.85
  0
LINE
  8
0
 10
114
 20
-286.85
 11
115.075
 21
-287.138
  0
LINE
  8
0
 10
115.075
 20
-287.138
 11
115.862
 21
-287.925
  0
LINE
  8
0
 10
115.862
 20
-287.925
 11
116.15
 21
-289
  0
LINE
  8
0
 10
116.15
 20
-289
 11
115.862
 21
-290.075
  0
LINE
  8
0
 10
115.862
 20
-290.075
 11
115.075
 21
-290.862
  0
LINE
  8
0
 10
115.075
 20
-290.862
 11
114
 21
-291.15
  0
LINE
  8
0
 10
114
 20
-291.15
 11
112.925
 21
-290.862
  0
LINE
  8
0
 10
-41.075
 20
-308.362
 11
-41.862
 21
-307.575
  0
LINE
  8
0
 10
-41.862
 20
-307.575
 11
-42.15
 21
-306.5
  0
LINE
  8
0
 10
-42.15
 20
-306.5
 11
-41.862
 21
-305.425
  0
LINE
  8
0
 10
-41.862
 20
-305.425
 11
-41.075
 21
-304.638
  0
LINE
  8
0
 10
-41.075
 20
-304.638
 11
-40
 21
-304.35
  0
LINE
  8
0
 10
-40
 20
-304.35
 11
-38.925
 21
-304.638
  0
LINE
  8
0
 10
-38.925
 20
-304.638
 11
-38.138
 21
-305.425
  0
LINE
  8
0
 10
-38.138
 20
-305.425
 11
-37.85
 21
-306.5
  0
LINE
  8
0
 10
-37.85
 20
-306.5
 11
-38.138
 21
-307.575
  0
LINE
  8
0
 10
-38.138
 20
-307.575
 11
-38.925
 21
-308.362
  0
LINE
  8
0
 10
-38.925
 20
-308.362
 11
-40
 21
-308.65
  0
LINE
  8
0
 10
-40
 20
-308.65
 11
-41.075
 21
-308.362
  0
LINE
  8
0
 10
38.925
 20
-308.362
 11
38.138
 21
-307.575
  0
LINE
  8
0
 10
38.138
 20
-307.575
 11
37.85
 21
-306.5
  0
LINE
  8
0
 10
37.85
 20
-306.5
 11
38.138
 21
-305.425
  0
LINE
  8
0
 10
38.138
 20
-305.425
 11
38.925
 21
-304.638
  0
LINE
  8
0
 10
38.925
 20
-304.638
 11
40
 21
-304.35
  0
LINE
  8
0
 10
40
 20
-304.35
 11
41.075
 21
-304.638
  0
LINE
  8
0
 10
41.075
 20
-304.638
 11
41.862
 21
-305.425
  0
LINE
  8
0
 10
41.862
 20
-305.425
 11
42.15
 21
-306.5
  0
LINE
  8
0
 10
42.15
 20
-306.5
 11
41.862
 21
-307.575
  0
LINE
  8
0
 10
41.862
 20
-307.575
 11
41.075
 21
-308.362
  0
LINE
  8
0
 10
41.075
 20
-308.362
 11
40
 21
-308.65
  0
LINE
  8
0
 10
40
 20
-308.65
 11
38.925
 21
-308.362
  0
ENDSEC
  0
SECTION
  2
OBJECTS
  0
DICTIONARY
  0
ENDSEC
  0
EOF
