999
"DXF R12 Output" (www.mydxf.blogspot.com)
 0 
SECTION
 2 
HEADER
 9 
$ACADVER
 1 
AC1009
 9 
$EXTMIN
 10 
 0 
 20 
 0 
 9 
$EXTMAX
 10 
 8.5 
 20 
 11 
 0 
ENDSEC
 0 
SECTION
 2 
ENTITIES
0
LINE
8
Layer 1
10
0.191925
20
313.128000
11
10.531325
21
313.083000
0
LINE
8
Layer 1
10
10.531325
20
313.083000
11
20.870125
21
312.951000
0
LINE
8
Layer 1
10
20.870125
20
312.951000
11
31.207725
21
312.731000
0
LINE
8
Layer 1
10
31.207725
20
312.731000
11
41.543725
21
312.425000
0
LINE
8
Layer 1
10
41.543725
20
312.425000
11
41.544125
21
312.425000
0
LINE
8
Layer 1
10
41.544125
20
312.425000
11
51.626525
21
311.733000
0
LINE
8
Layer 1
10
51.626525
20
311.733000
11
61.681825
21
310.746000
0
LINE
8
Layer 1
10
61.681825
20
310.746000
11
71.703225
21
309.464000
0
LINE
8
Layer 1
10
71.703225
20
309.464000
11
81.683825
21
307.887000
0
LINE
8
Layer 1
10
81.683825
20
307.887000
11
81.684025
21
307.887000
0
LINE
8
Layer 1
10
81.684025
20
307.887000
11
85.039225
21
307.185000
0
LINE
8
Layer 1
10
85.039225
20
307.185000
11
85.039725
21
307.184000
0
LINE
8
Layer 1
10
85.039725
20
307.184000
11
85.040225
21
307.185000
0
LINE
8
Layer 1
10
85.040225
20
307.185000
11
89.082725
21
306.117000
0
LINE
8
Layer 1
10
89.082725
20
306.117000
11
93.084425
21
304.911000
0
LINE
8
Layer 1
10
93.084425
20
304.911000
11
97.041925
21
303.571000
0
LINE
8
Layer 1
10
97.041925
20
303.571000
11
100.952025
21
302.096000
0
LINE
8
Layer 1
10
100.952025
20
302.096000
11
100.952025
21
302.095000
0
LINE
8
Layer 1
10
100.952025
20
302.095000
11
104.215025
21
300.708000
0
LINE
8
Layer 1
10
104.215025
20
300.708000
11
107.405025
21
299.165000
0
LINE
8
Layer 1
10
107.405025
20
299.165000
11
110.515025
21
297.470000
0
LINE
8
Layer 1
10
110.515025
20
297.470000
11
113.540025
21
295.627000
0
LINE
8
Layer 1
10
113.540025
20
295.627000
11
113.541025
21
295.626000
0
LINE
8
Layer 1
10
113.541025
20
295.626000
11
113.541025
21
295.627000
0
LINE
8
Layer 1
10
113.541025
20
295.627000
11
115.819025
21
294.113000
0
LINE
8
Layer 1
10
115.819025
20
294.113000
11
118.042025
21
292.538000
0
LINE
8
Layer 1
10
118.042025
20
292.538000
11
120.209025
21
290.903000
0
LINE
8
Layer 1
10
120.209025
20
290.903000
11
122.320025
21
289.209000
0
LINE
8
Layer 1
10
122.320025
20
289.209000
11
124.373025
21
287.459000
0
LINE
8
Layer 1
10
124.373025
20
287.459000
11
126.368025
21
285.653000
0
LINE
8
Layer 1
10
126.368025
20
285.653000
11
128.304025
21
283.794000
0
LINE
8
Layer 1
10
128.304025
20
283.794000
11
130.115025
21
281.983000
0
LINE
8
Layer 1
10
130.115025
20
281.983000
11
159.269025
21
231.486000
0
LINE
8
Layer 1
10
159.269025
20
231.486000
11
159.727025
21
229.018000
0
LINE
8
Layer 1
10
159.727025
20
229.018000
11
160.139025
21
226.360000
0
LINE
8
Layer 1
10
160.139025
20
226.360000
11
160.470025
21
223.684000
0
LINE
8
Layer 1
10
160.470025
20
223.684000
11
160.721025
21
220.990000
0
LINE
8
Layer 1
10
160.721025
20
220.990000
11
160.891025
21
218.281000
0
LINE
8
Layer 1
10
160.891025
20
218.281000
11
160.979025
21
215.105000
0
LINE
8
Layer 1
10
160.979025
20
215.105000
11
160.989025
21
211.929000
0
LINE
8
Layer 1
10
160.989025
20
211.929000
11
160.923025
21
208.755000
0
LINE
8
Layer 1
10
160.923025
20
208.755000
11
160.779025
21
205.584000
0
LINE
8
Layer 1
10
160.779025
20
205.584000
11
160.558025
21
202.417000
0
LINE
8
Layer 1
10
160.558025
20
202.417000
11
160.261025
21
199.256000
0
LINE
8
Layer 1
10
160.261025
20
199.256000
11
159.887025
21
196.102000
0
LINE
8
Layer 1
10
159.887025
20
196.102000
11
159.436025
21
192.957000
0
LINE
8
Layer 1
10
159.436025
20
192.957000
11
158.879025
21
189.232000
0
LINE
8
Layer 1
10
158.879025
20
189.232000
11
158.225025
21
185.524000
0
LINE
8
Layer 1
10
158.225025
20
185.524000
11
157.473025
21
181.835000
0
LINE
8
Layer 1
10
157.473025
20
181.835000
11
156.624025
21
178.168000
0
LINE
8
Layer 1
10
156.624025
20
178.168000
11
155.679025
21
174.524000
0
LINE
8
Layer 1
10
155.679025
20
174.524000
11
154.638025
21
170.905000
0
LINE
8
Layer 1
10
154.638025
20
170.905000
11
153.502025
21
167.313000
0
LINE
8
Layer 1
10
153.502025
20
167.313000
11
152.271025
21
163.750000
0
LINE
8
Layer 1
10
152.271025
20
163.750000
11
150.011025
21
157.363000
0
LINE
8
Layer 1
10
150.011025
20
157.363000
11
147.623025
21
151.024000
0
LINE
8
Layer 1
10
147.623025
20
151.024000
11
145.108025
21
144.735000
0
LINE
8
Layer 1
10
145.108025
20
144.735000
11
142.465025
21
138.499000
0
LINE
8
Layer 1
10
142.465025
20
138.499000
11
139.697025
21
132.316000
0
LINE
8
Layer 1
10
139.697025
20
132.316000
11
136.803025
21
126.188000
0
LINE
8
Layer 1
10
136.803025
20
126.188000
11
133.785025
21
120.118000
0
LINE
8
Layer 1
10
133.785025
20
120.118000
11
130.643025
21
114.108000
0
LINE
8
Layer 1
10
130.643025
20
114.108000
11
126.812025
21
105.993000
0
LINE
8
Layer 1
10
126.812025
20
105.993000
11
123.238025
21
97.763400
0
LINE
8
Layer 1
10
123.238025
20
97.763400
11
121.731025
21
94.344700
0
LINE
8
Layer 1
10
121.731025
20
94.344700
11
120.370025
21
90.871700
0
LINE
8
Layer 1
10
120.370025
20
90.871700
11
119.156025
21
87.349100
0
LINE
8
Layer 1
10
119.156025
20
87.349100
11
118.091025
21
83.781500
0
LINE
8
Layer 1
10
118.091025
20
83.781500
11
117.175025
21
80.173400
0
LINE
8
Layer 1
10
117.175025
20
80.173400
11
116.409025
21
76.529400
0
LINE
8
Layer 1
10
116.409025
20
76.529400
11
115.797025
21
72.854200
0
LINE
8
Layer 1
10
115.797025
20
72.854200
11
115.337025
21
69.152200
0
LINE
8
Layer 1
10
115.337025
20
69.152200
11
115.244025
21
66.081900
0
LINE
8
Layer 1
10
115.244025
20
66.081900
11
115.289025
21
63.014800
0
LINE
8
Layer 1
10
115.289025
20
63.014800
11
115.472025
21
59.955600
0
LINE
8
Layer 1
10
115.472025
20
59.955600
11
115.791025
21
56.909000
0
LINE
8
Layer 1
10
115.791025
20
56.909000
11
116.246025
21
53.879400
0
LINE
8
Layer 1
10
116.246025
20
53.879400
11
116.837025
21
50.871400
0
LINE
8
Layer 1
10
116.837025
20
50.871400
11
117.564025
21
47.889300
0
LINE
8
Layer 1
10
117.564025
20
47.889300
11
118.424025
21
44.937700
0
LINE
8
Layer 1
10
118.424025
20
44.937700
11
118.423025
21
44.936900
0
LINE
8
Layer 1
10
118.423025
20
44.936900
11
120.980025
21
37.845100
0
LINE
8
Layer 1
10
120.980025
20
37.845100
11
123.810025
21
30.856000
0
LINE
8
Layer 1
10
123.810025
20
30.856000
11
123.810025
21
30.855600
0
LINE
8
Layer 1
10
123.810025
20
30.855600
11
127.302025
21
22.442500
0
LINE
8
Layer 1
10
127.302025
20
22.442500
11
130.609025
21
13.956800
0
LINE
8
Layer 1
10
130.609025
20
13.956800
11
132.523025
21
8.601790
0
LINE
8
Layer 1
10
132.523025
20
8.601790
11
134.243025
21
3.182560
0
LINE
8
Layer 1
10
134.243025
20
3.182560
11
135.028025
21
0.414000
0
LINE
8
Layer 1
10
135.028025
20
0.414000
11
135.737025
21
-2.370760
0
LINE
8
Layer 1
10
135.737025
20
-2.370760
11
136.370025
21
-5.170270
0
LINE
8
Layer 1
10
136.370025
20
-5.170270
11
136.927025
21
-7.982990
0
LINE
8
Layer 1
10
136.927025
20
-7.982990
11
137.408025
21
-10.807400
0
LINE
8
Layer 1
10
137.408025
20
-10.807400
11
137.813025
21
-13.642000
0
LINE
8
Layer 1
10
137.813025
20
-13.642000
11
138.142025
21
-16.485200
0
LINE
8
Layer 1
10
138.142025
20
-16.485200
11
138.394025
21
-19.335500
0
LINE
8
Layer 1
10
138.394025
20
-19.335500
11
138.570025
21
-22.191500
0
LINE
8
Layer 1
10
138.570025
20
-22.191500
11
138.669025
21
-25.051600
0
LINE
8
Layer 1
10
138.669025
20
-25.051600
11
138.691025
21
-27.914200
0
LINE
8
Layer 1
10
138.691025
20
-27.914200
11
138.636025
21
-30.778000
0
LINE
8
Layer 1
10
138.636025
20
-30.778000
11
138.505025
21
-33.641300
0
LINE
8
Layer 1
10
138.505025
20
-33.641300
11
138.296025
21
-36.502600
0
LINE
8
Layer 1
10
138.296025
20
-36.502600
11
138.010025
21
-39.360400
0
LINE
8
Layer 1
10
138.010025
20
-39.360400
11
137.647025
21
-42.213200
0
LINE
8
Layer 1
10
137.647025
20
-42.213200
11
137.294025
21
-44.353100
0
LINE
8
Layer 1
10
137.294025
20
-44.353100
11
136.844025
21
-46.471400
0
LINE
8
Layer 1
10
136.844025
20
-46.471400
11
136.297025
21
-48.565000
0
LINE
8
Layer 1
10
136.297025
20
-48.565000
11
135.654025
21
-50.630600
0
LINE
8
Layer 1
10
135.654025
20
-50.630600
11
134.917025
21
-52.665000
0
LINE
8
Layer 1
10
134.917025
20
-52.665000
11
134.086025
21
-54.665100
0
LINE
8
Layer 1
10
134.086025
20
-54.665100
11
133.162025
21
-56.627500
0
LINE
8
Layer 1
10
133.162025
20
-56.627500
11
132.148025
21
-58.549100
0
LINE
8
Layer 1
10
132.148025
20
-58.549100
11
131.241025
21
-60.072700
0
LINE
8
Layer 1
10
131.241025
20
-60.072700
11
130.375025
21
-61.353900
0
LINE
8
Layer 1
10
130.375025
20
-61.353900
11
130.370025
21
-61.364000
0
LINE
8
Layer 1
10
130.370025
20
-61.364000
11
129.247025
21
-63.111900
0
LINE
8
Layer 1
10
129.247025
20
-63.111900
11
127.843025
21
-64.948900
0
LINE
8
Layer 1
10
127.843025
20
-64.948900
11
126.219025
21
-66.794700
0
LINE
8
Layer 1
10
126.219025
20
-66.794700
11
124.445025
21
-68.568600
0
LINE
8
Layer 1
10
124.445025
20
-68.568600
11
122.599025
21
-70.193100
0
LINE
8
Layer 1
10
122.599025
20
-70.193100
11
120.762025
21
-71.597200
0
LINE
8
Layer 1
10
120.762025
20
-71.597200
11
119.014025
21
-72.719500
0
LINE
8
Layer 1
10
119.014025
20
-72.719500
11
118.839025
21
-72.807100
0
LINE
8
Layer 1
10
118.839025
20
-72.807100
11
118.758025
21
-72.863900
0
LINE
8
Layer 1
10
118.758025
20
-72.863900
11
117.007025
21
-73.827200
0
LINE
8
Layer 1
10
117.007025
20
-73.827200
11
115.196025
21
-74.582800
0
LINE
8
Layer 1
10
115.196025
20
-74.582800
11
113.343025
21
-75.134300
0
LINE
8
Layer 1
10
113.343025
20
-75.134300
11
111.464025
21
-75.485300
0
LINE
8
Layer 1
10
111.464025
20
-75.485300
11
109.576025
21
-75.639300
0
LINE
8
Layer 1
10
109.576025
20
-75.639300
11
107.696025
21
-75.599900
0
LINE
8
Layer 1
10
107.696025
20
-75.599900
11
105.840025
21
-75.370700
0
LINE
8
Layer 1
10
105.840025
20
-75.370700
11
104.025025
21
-74.955300
0
LINE
8
Layer 1
10
104.025025
20
-74.955300
11
103.292025
21
-74.705800
0
LINE
8
Layer 1
10
103.292025
20
-74.705800
11
103.145025
21
-74.677800
0
LINE
8
Layer 1
10
103.145025
20
-74.677800
11
102.571025
21
-74.460600
0
LINE
8
Layer 1
10
102.571025
20
-74.460600
11
102.268025
21
-74.357200
0
LINE
8
Layer 1
10
102.268025
20
-74.357200
11
102.126025
21
-74.291800
0
LINE
8
Layer 1
10
102.126025
20
-74.291800
11
101.390025
21
-74.012800
0
LINE
8
Layer 1
10
101.390025
20
-74.012800
11
99.459425
21
-72.997700
0
LINE
8
Layer 1
10
99.459425
20
-72.997700
11
97.436425
21
-71.676800
0
LINE
8
Layer 1
10
97.436425
20
-71.676800
11
95.409625
21
-70.107700
0
LINE
8
Layer 1
10
95.409625
20
-70.107700
11
93.467625
21
-68.359200
0
LINE
8
Layer 1
10
93.467625
20
-68.359200
11
91.695325
21
-66.507500
0
LINE
8
Layer 1
10
91.695325
20
-66.507500
11
90.170125
21
-64.633600
0
LINE
8
Layer 1
10
90.170125
20
-64.633600
11
88.958725
21
-62.819500
0
LINE
8
Layer 1
10
88.958725
20
-62.819500
11
88.891525
21
-62.686200
0
LINE
8
Layer 1
10
88.891525
20
-62.686200
11
87.942725
21
-61.255400
0
LINE
8
Layer 1
10
87.942725
20
-61.255400
11
87.056225
21
-59.697400
0
LINE
8
Layer 1
10
87.056225
20
-59.697400
11
86.278525
21
-58.083500
0
LINE
8
Layer 1
10
86.278525
20
-58.083500
11
85.612325
21
-56.419300
0
LINE
8
Layer 1
10
85.612325
20
-56.419300
11
83.916725
21
-51.307900
0
LINE
8
Layer 1
10
83.916725
20
-51.307900
11
82.469325
21
-46.122200
0
LINE
8
Layer 1
10
82.469325
20
-46.122200
11
81.358825
21
-42.193800
0
LINE
8
Layer 1
10
81.358825
20
-42.193800
11
80.036925
21
-38.339700
0
LINE
8
Layer 1
10
80.036925
20
-38.339700
11
78.507525
21
-34.567800
0
LINE
8
Layer 1
10
78.507525
20
-34.567800
11
76.774725
21
-30.886200
0
LINE
8
Layer 1
10
76.774725
20
-30.886200
11
74.842625
21
-27.303100
0
LINE
8
Layer 1
10
74.842625
20
-27.303100
11
72.715325
21
-23.826500
0
LINE
8
Layer 1
10
72.715325
20
-23.826500
11
70.396925
21
-20.464400
0
LINE
8
Layer 1
10
70.396925
20
-20.464400
11
68.611225
21
-18.155600
0
LINE
8
Layer 1
10
68.611225
20
-18.155600
11
67.237925
21
-17.152300
0
LINE
8
Layer 1
10
67.237925
20
-17.152300
11
65.324825
21
-15.956000
0
LINE
8
Layer 1
10
65.324825
20
-15.956000
11
63.326825
21
-14.898500
0
LINE
8
Layer 1
10
63.326825
20
-14.898500
11
61.251125
21
-13.984700
0
LINE
8
Layer 1
10
61.251125
20
-13.984700
11
59.105325
21
-13.219800
0
LINE
8
Layer 1
10
59.105325
20
-13.219800
11
59.105225
21
-13.219900
0
LINE
8
Layer 1
10
59.105225
20
-13.219900
11
57.400625
21
-12.732100
0
LINE
8
Layer 1
10
57.400625
20
-12.732100
11
55.620425
21
-12.354400
0
LINE
8
Layer 1
10
55.620425
20
-12.354400
11
53.712825
21
-12.117000
0
LINE
8
Layer 1
10
53.712825
20
-12.117000
11
51.626125
21
-12.049800
0
LINE
8
Layer 1
10
51.626125
20
-12.049800
11
49.438525
21
-12.228900
0
LINE
8
Layer 1
10
49.438525
20
-12.228900
11
47.064925
21
-12.724300
0
LINE
8
Layer 1
10
47.064925
20
-12.724300
11
44.550325
21
-13.539000
0
LINE
8
Layer 1
10
44.550325
20
-13.539000
11
41.940025
21
-14.675800
0
LINE
8
Layer 1
10
41.940025
20
-14.675800
11
39.279025
21
-16.137800
0
LINE
8
Layer 1
10
39.279025
20
-16.137800
11
36.612525
21
-17.927800
0
LINE
8
Layer 1
10
36.612525
20
-17.927800
11
35.257825
21
-19.021600
0
LINE
8
Layer 1
10
35.257825
20
-19.021600
11
35.031525
21
-19.295800
0
LINE
8
Layer 1
10
35.031525
20
-19.295800
11
33.888425
21
-20.819000
0
LINE
8
Layer 1
10
33.888425
20
-20.819000
11
32.844825
21
-22.353700
0
LINE
8
Layer 1
10
32.844825
20
-22.353700
11
32.844825
21
-50.500000
0
LINE
8
Layer 1
10
32.844825
20
-50.500000
11
32.768025
21
-51.280300
0
LINE
8
Layer 1
10
32.768025
20
-51.280300
11
32.540425
21
-52.030700
0
LINE
8
Layer 1
10
32.540425
20
-52.030700
11
32.170725
21
-52.722300
0
LINE
8
Layer 1
10
32.170725
20
-52.722300
11
31.673325
21
-53.328400
0
LINE
8
Layer 1
10
31.673325
20
-53.328400
11
31.067125
21
-53.825900
0
LINE
8
Layer 1
10
31.067125
20
-53.825900
11
30.375625
21
-54.195500
0
LINE
8
Layer 1
10
30.375625
20
-54.195500
11
29.625225
21
-54.423100
0
LINE
8
Layer 1
10
29.625225
20
-54.423100
11
28.844825
21
-54.500000
0
LINE
8
Layer 1
10
28.844825
20
-54.500000
11
19.599725
21
-54.500000
0
LINE
8
Layer 1
10
19.599725
20
-54.500000
11
19.578925
21
-54.520900
0
LINE
8
Layer 1
10
19.578925
20
-54.520900
11
-27.287000
21
-54.520900
0
LINE
8
Layer 1
10
-27.287000
20
-54.520900
11
-28.690100
21
-54.580600
0
LINE
8
Layer 1
10
-28.690100
20
-54.580600
11
-30.035900
21
-54.729200
0
LINE
8
Layer 1
10
-30.035900
20
-54.729200
11
-31.329200
21
-54.962100
0
LINE
8
Layer 1
10
-31.329200
20
-54.962100
11
-32.574500
21
-55.274700
0
LINE
8
Layer 1
10
-32.574500
20
-55.274700
11
-33.776400
21
-55.662400
0
LINE
8
Layer 1
10
-33.776400
20
-55.662400
11
-34.939400
21
-56.120700
0
LINE
8
Layer 1
10
-34.939400
20
-56.120700
11
-37.167300
21
-57.230800
0
LINE
8
Layer 1
10
-37.167300
20
-57.230800
11
-39.295000
21
-58.568300
0
LINE
8
Layer 1
10
-39.295000
20
-58.568300
11
-41.359100
21
-60.096700
0
LINE
8
Layer 1
10
-41.359100
20
-60.096700
11
-43.396300
21
-61.779500
0
LINE
8
Layer 1
10
-43.396300
20
-61.779500
11
-45.443300
21
-63.580100
0
LINE
8
Layer 1
10
-45.443300
20
-63.580100
11
-49.713800
21
-67.388400
0
LINE
8
Layer 1
10
-49.713800
20
-67.388400
11
-52.010500
21
-69.323000
0
LINE
8
Layer 1
10
-52.010500
20
-69.323000
11
-54.464000
21
-71.229300
0
LINE
8
Layer 1
10
-54.464000
20
-71.229300
11
-57.110700
21
-73.070500
0
LINE
8
Layer 1
10
-57.110700
20
-73.070500
11
-59.987500
21
-74.810200
0
LINE
8
Layer 1
10
-59.987500
20
-74.810200
11
-63.131100
21
-76.411900
0
LINE
8
Layer 1
10
-63.131100
20
-76.411900
11
-64.814300
21
-77.149500
0
LINE
8
Layer 1
10
-64.814300
20
-77.149500
11
-66.578000
21
-77.838900
0
LINE
8
Layer 1
10
-66.578000
20
-77.838900
11
-66.578400
21
-77.838600
0
LINE
8
Layer 1
10
-66.578400
20
-77.838600
11
-69.056200
21
-78.686300
0
LINE
8
Layer 1
10
-69.056200
20
-78.686300
11
-71.559100
21
-79.451600
0
LINE
8
Layer 1
10
-71.559100
20
-79.451600
11
-74.084900
21
-80.134000
0
LINE
8
Layer 1
10
-74.084900
20
-80.134000
11
-76.631400
21
-80.733000
0
LINE
8
Layer 1
10
-76.631400
20
-80.733000
11
-79.196600
21
-81.248200
0
LINE
8
Layer 1
10
-79.196600
20
-81.248200
11
-81.778300
21
-81.679100
0
LINE
8
Layer 1
10
-81.778300
20
-81.679100
11
-84.374500
21
-82.025300
0
LINE
8
Layer 1
10
-84.374500
20
-82.025300
11
-86.983000
21
-82.286200
0
LINE
8
Layer 1
10
-86.983000
20
-82.286200
11
-88.852300
21
-82.445400
0
LINE
8
Layer 1
10
-88.852300
20
-82.445400
11
-90.721100
21
-82.527800
0
LINE
8
Layer 1
10
-90.721100
20
-82.527800
11
-94.447600
21
-82.464700
0
LINE
8
Layer 1
10
-94.447600
20
-82.464700
11
-98.144200
21
-82.101100
0
LINE
8
Layer 1
10
-98.144200
20
-82.101100
11
-101.793000
21
-81.440900
0
LINE
8
Layer 1
10
-101.793000
20
-81.440900
11
-105.374000
21
-80.488400
0
LINE
8
Layer 1
10
-105.374000
20
-80.488400
11
-108.871000
21
-79.247600
0
LINE
8
Layer 1
10
-108.871000
20
-79.247600
11
-112.264000
21
-77.722500
0
LINE
8
Layer 1
10
-112.264000
20
-77.722500
11
-113.917000
21
-76.854700
0
LINE
8
Layer 1
10
-113.917000
20
-76.854700
11
-115.536000
21
-75.917400
0
LINE
8
Layer 1
10
-115.536000
20
-75.917400
11
-115.536000
21
-75.917200
0
LINE
8
Layer 1
10
-115.536000
20
-75.917200
11
-115.537000
21
-75.917400
0
LINE
8
Layer 1
10
-115.537000
20
-75.917400
11
-117.128000
21
-74.844600
0
LINE
8
Layer 1
10
-117.128000
20
-74.844600
11
-118.652000
21
-73.683500
0
LINE
8
Layer 1
10
-118.652000
20
-73.683500
11
-120.107000
21
-72.437200
0
LINE
8
Layer 1
10
-120.107000
20
-72.437200
11
-121.487000
21
-71.108800
0
LINE
8
Layer 1
10
-121.487000
20
-71.108800
11
-127.487000
21
-65.108800
0
LINE
8
Layer 1
10
-127.487000
20
-65.108800
11
-129.221000
21
-63.030900
0
LINE
8
Layer 1
10
-129.221000
20
-63.030900
11
-130.822000
21
-60.859900
0
LINE
8
Layer 1
10
-130.822000
20
-60.859900
11
-132.286000
21
-58.602200
0
LINE
8
Layer 1
10
-132.286000
20
-58.602200
11
-133.611000
21
-56.264200
0
LINE
8
Layer 1
10
-133.611000
20
-56.264200
11
-134.792000
21
-53.852300
0
LINE
8
Layer 1
10
-134.792000
20
-53.852300
11
-135.827000
21
-51.372800
0
LINE
8
Layer 1
10
-135.827000
20
-51.372800
11
-136.713000
21
-48.832200
0
LINE
8
Layer 1
10
-136.713000
20
-48.832200
11
-137.445000
21
-46.236700
0
LINE
8
Layer 1
10
-137.445000
20
-46.236700
11
-138.314000
21
-42.358700
0
LINE
8
Layer 1
10
-138.314000
20
-42.358700
11
-138.997000
21
-38.450900
0
LINE
8
Layer 1
10
-138.997000
20
-38.450900
11
-139.492000
21
-34.519900
0
LINE
8
Layer 1
10
-139.492000
20
-34.519900
11
-139.800000
21
-30.572400
0
LINE
8
Layer 1
10
-139.800000
20
-30.572400
11
-139.920000
21
-26.614900
0
LINE
8
Layer 1
10
-139.920000
20
-26.614900
11
-139.851000
21
-22.654000
0
LINE
8
Layer 1
10
-139.851000
20
-22.654000
11
-139.594000
21
-18.696400
0
LINE
8
Layer 1
10
-139.594000
20
-18.696400
11
-139.148000
21
-14.748500
0
LINE
8
Layer 1
10
-139.148000
20
-14.748500
11
-139.147000
21
-14.748000
0
LINE
8
Layer 1
10
-139.147000
20
-14.748000
11
-138.269000
21
-10.251000
0
LINE
8
Layer 1
10
-138.269000
20
-10.251000
11
-137.247000
21
-5.784060
0
LINE
8
Layer 1
10
-137.247000
20
-5.784060
11
-136.082000
21
-1.351460
0
LINE
8
Layer 1
10
-136.082000
20
-1.351460
11
-134.776000
21
3.043460
0
LINE
8
Layer 1
10
-134.776000
20
3.043460
11
-134.776000
21
3.043550
0
LINE
8
Layer 1
10
-134.776000
20
3.043550
11
-134.776000
21
3.043620
0
LINE
8
Layer 1
10
-134.776000
20
3.043620
11
-133.280000
21
7.642990
0
LINE
8
Layer 1
10
-133.280000
20
7.642990
11
-131.668000
21
12.202900
0
LINE
8
Layer 1
10
-131.668000
20
12.202900
11
-129.940000
21
16.721400
0
LINE
8
Layer 1
10
-129.940000
20
16.721400
11
-128.099000
21
21.196200
0
LINE
8
Layer 1
10
-128.099000
20
21.196200
11
-128.098000
21
21.196300
0
LINE
8
Layer 1
10
-128.098000
20
21.196300
11
-125.034000
21
28.374400
0
LINE
8
Layer 1
10
-125.034000
20
28.374400
11
-122.139000
21
35.620800
0
LINE
8
Layer 1
10
-122.139000
20
35.620800
11
-120.364000
21
39.583300
0
LINE
8
Layer 1
10
-120.364000
20
39.583300
11
-118.848000
21
43.636200
0
LINE
8
Layer 1
10
-118.848000
20
43.636200
11
-117.594000
21
47.766900
0
LINE
8
Layer 1
10
-117.594000
20
47.766900
11
-116.605000
21
51.963000
0
LINE
8
Layer 1
10
-116.605000
20
51.963000
11
-115.882000
21
56.212100
0
LINE
8
Layer 1
10
-115.882000
20
56.212100
11
-115.428000
21
60.501700
0
LINE
8
Layer 1
10
-115.428000
20
60.501700
11
-115.246000
21
64.819200
0
LINE
8
Layer 1
10
-115.246000
20
64.819200
11
-115.338000
21
69.152400
0
LINE
8
Layer 1
10
-115.338000
20
69.152400
11
-115.338000
21
69.152600
0
LINE
8
Layer 1
10
-115.338000
20
69.152600
11
-115.338000
21
69.152700
0
LINE
8
Layer 1
10
-115.338000
20
69.152700
11
-115.797000
21
72.854600
0
LINE
8
Layer 1
10
-115.797000
20
72.854600
11
-116.410000
21
76.529800
0
LINE
8
Layer 1
10
-116.410000
20
76.529800
11
-117.175000
21
80.173700
0
LINE
8
Layer 1
10
-117.175000
20
80.173700
11
-118.091000
21
83.781800
0
LINE
8
Layer 1
10
-118.091000
20
83.781800
11
-119.157000
21
87.349400
0
LINE
8
Layer 1
10
-119.157000
20
87.349400
11
-120.371000
21
90.872000
0
LINE
8
Layer 1
10
-120.371000
20
90.872000
11
-121.733000
21
94.344900
0
LINE
8
Layer 1
10
-121.733000
20
94.344900
11
-123.240000
21
97.763500
0
LINE
8
Layer 1
10
-123.240000
20
97.763500
11
-123.240000
21
97.763700
0
LINE
8
Layer 1
10
-123.240000
20
97.763700
11
-126.813000
21
105.993000
0
LINE
8
Layer 1
10
-126.813000
20
105.993000
11
-130.643000
21
114.108000
0
LINE
8
Layer 1
10
-130.643000
20
114.108000
11
-133.785000
21
120.118000
0
LINE
8
Layer 1
10
-133.785000
20
120.118000
11
-136.804000
21
126.188000
0
LINE
8
Layer 1
10
-136.804000
20
126.188000
11
-139.698000
21
132.316000
0
LINE
8
Layer 1
10
-139.698000
20
132.316000
11
-142.467000
21
138.499000
0
LINE
8
Layer 1
10
-142.467000
20
138.499000
11
-145.109000
21
144.735000
0
LINE
8
Layer 1
10
-145.109000
20
144.735000
11
-147.625000
21
151.024000
0
LINE
8
Layer 1
10
-147.625000
20
151.024000
11
-150.013000
21
157.363000
0
LINE
8
Layer 1
10
-150.013000
20
157.363000
11
-152.272000
21
163.750000
0
LINE
8
Layer 1
10
-152.272000
20
163.750000
11
-153.503000
21
167.313000
0
LINE
8
Layer 1
10
-153.503000
20
167.313000
11
-154.639000
21
170.905000
0
LINE
8
Layer 1
10
-154.639000
20
170.905000
11
-155.680000
21
174.524000
0
LINE
8
Layer 1
10
-155.680000
20
174.524000
11
-156.625000
21
178.168000
0
LINE
8
Layer 1
10
-156.625000
20
178.168000
11
-157.473000
21
181.835000
0
LINE
8
Layer 1
10
-157.473000
20
181.835000
11
-158.225000
21
185.524000
0
LINE
8
Layer 1
10
-158.225000
20
185.524000
11
-158.880000
21
189.232000
0
LINE
8
Layer 1
10
-158.880000
20
189.232000
11
-159.436000
21
192.957000
0
LINE
8
Layer 1
10
-159.436000
20
192.957000
11
-160.256000
21
199.205000
0
LINE
8
Layer 1
10
-160.256000
20
199.205000
11
-160.774000
21
205.481000
0
LINE
8
Layer 1
10
-160.774000
20
205.481000
11
-160.989000
21
211.775000
0
LINE
8
Layer 1
10
-160.989000
20
211.775000
11
-160.901000
21
218.075000
0
LINE
8
Layer 1
10
-160.901000
20
218.075000
11
-160.901000
21
218.075000
0
LINE
8
Layer 1
10
-160.901000
20
218.075000
11
-160.723000
21
220.976000
0
LINE
8
Layer 1
10
-160.723000
20
220.976000
11
-160.452000
21
223.857000
0
LINE
8
Layer 1
10
-160.452000
20
223.857000
11
-160.088000
21
226.718000
0
LINE
8
Layer 1
10
-160.088000
20
226.718000
11
-159.635000
21
229.557000
0
LINE
8
Layer 1
10
-159.635000
20
229.557000
11
-159.091000
21
232.371000
0
LINE
8
Layer 1
10
-159.091000
20
232.371000
11
-158.460000
21
235.159000
0
LINE
8
Layer 1
10
-158.460000
20
235.159000
11
-157.741000
21
237.919000
0
LINE
8
Layer 1
10
-157.741000
20
237.919000
11
-156.936000
21
240.650000
0
LINE
8
Layer 1
10
-156.936000
20
240.650000
11
-156.046000
21
243.349000
0
LINE
8
Layer 1
10
-156.046000
20
243.349000
11
-155.072000
21
246.014000
0
LINE
8
Layer 1
10
-155.072000
20
246.014000
11
-154.015000
21
248.645000
0
LINE
8
Layer 1
10
-154.015000
20
248.645000
11
-152.877000
21
251.238000
0
LINE
8
Layer 1
10
-152.877000
20
251.238000
11
-151.658000
21
253.793000
0
LINE
8
Layer 1
10
-151.658000
20
253.793000
11
-150.360000
21
256.306000
0
LINE
8
Layer 1
10
-150.360000
20
256.306000
11
-148.984000
21
258.778000
0
LINE
8
Layer 1
10
-148.984000
20
258.778000
11
-147.531000
21
261.205000
0
LINE
8
Layer 1
10
-147.531000
20
261.205000
11
-146.001000
21
263.586000
0
LINE
8
Layer 1
10
-146.001000
20
263.586000
11
-144.397000
21
265.919000
0
LINE
8
Layer 1
10
-144.397000
20
265.919000
11
-142.719000
21
268.202000
0
LINE
8
Layer 1
10
-142.719000
20
268.202000
11
-140.969000
21
270.433000
0
LINE
8
Layer 1
10
-140.969000
20
270.433000
11
-139.147000
21
272.611000
0
LINE
8
Layer 1
10
-139.147000
20
272.611000
11
-137.255000
21
274.734000
0
LINE
8
Layer 1
10
-137.255000
20
274.734000
11
-135.294000
21
276.800000
0
LINE
8
Layer 1
10
-135.294000
20
276.800000
11
-129.294000
21
282.800000
0
LINE
8
Layer 1
10
-129.294000
20
282.800000
11
-127.264000
21
284.807000
0
LINE
8
Layer 1
10
-127.264000
20
284.807000
11
-125.168000
21
286.753000
0
LINE
8
Layer 1
10
-125.168000
20
286.753000
11
-123.006000
21
288.637000
0
LINE
8
Layer 1
10
-123.006000
20
288.637000
11
-120.779000
21
290.457000
0
LINE
8
Layer 1
10
-120.779000
20
290.457000
11
-118.489000
21
292.210000
0
LINE
8
Layer 1
10
-118.489000
20
292.210000
11
-116.136000
21
293.895000
0
LINE
8
Layer 1
10
-116.136000
20
293.895000
11
-113.722000
21
295.511000
0
LINE
8
Layer 1
10
-113.722000
20
295.511000
11
-111.248000
21
297.055000
0
LINE
8
Layer 1
10
-111.248000
20
297.055000
11
-108.717000
21
298.524000
0
LINE
8
Layer 1
10
-108.717000
20
298.524000
11
-108.715000
21
298.525000
0
LINE
8
Layer 1
10
-108.715000
20
298.525000
11
-106.482000
21
299.699000
0
LINE
8
Layer 1
10
-106.482000
20
299.699000
11
-104.189000
21
300.757000
0
LINE
8
Layer 1
10
-104.189000
20
300.757000
11
-104.189000
21
300.757000
0
LINE
8
Layer 1
10
-104.189000
20
300.757000
11
-104.188000
21
300.758000
0
LINE
8
Layer 1
10
-104.188000
20
300.758000
11
-101.054000
21
302.056000
0
LINE
8
Layer 1
10
-101.054000
20
302.056000
11
-97.884400
21
303.266000
0
LINE
8
Layer 1
10
-97.884400
20
303.266000
11
-94.682100
21
304.389000
0
LINE
8
Layer 1
10
-94.682100
20
304.389000
11
-91.448600
21
305.422000
0
LINE
8
Layer 1
10
-91.448600
20
305.422000
11
-91.448600
21
305.422000
0
LINE
8
Layer 1
10
-91.448600
20
305.422000
11
-88.321300
21
306.318000
0
LINE
8
Layer 1
10
-88.321300
20
306.318000
11
-85.165200
21
307.110000
0
LINE
8
Layer 1
10
-85.165200
20
307.110000
11
-81.984100
21
307.796000
0
LINE
8
Layer 1
10
-81.984100
20
307.796000
11
-78.780700
21
308.377000
0
LINE
8
Layer 1
10
-78.780700
20
308.377000
11
-78.780400
21
308.377000
0
LINE
8
Layer 1
10
-78.780400
20
308.377000
11
-78.779700
21
308.377000
0
LINE
8
Layer 1
10
-78.779700
20
308.377000
11
-69.616200
21
309.756000
0
LINE
8
Layer 1
10
-69.616200
20
309.756000
11
-60.419800
21
310.887000
0
LINE
8
Layer 1
10
-60.419800
20
310.887000
11
-51.195600
21
311.769000
0
LINE
8
Layer 1
10
-51.195600
20
311.769000
11
-41.948700
21
312.403000
0
LINE
8
Layer 1
10
-41.948700
20
312.403000
11
-41.948400
21
312.403000
0
LINE
8
Layer 1
10
-41.948400
20
312.403000
11
-41.161100
21
312.438000
0
LINE
8
Layer 1
10
-41.161100
20
312.438000
11
-41.160600
21
312.437000
0
LINE
8
Layer 1
10
-41.160600
20
312.437000
11
-41.160100
21
312.438000
0
LINE
8
Layer 1
10
-41.160100
20
312.438000
11
-30.824000
21
312.741000
0
LINE
8
Layer 1
10
-30.824000
20
312.741000
11
-20.486300
21
312.957000
0
LINE
8
Layer 1
10
-20.486300
20
312.957000
11
-10.147400
21
313.086000
0
LINE
8
Layer 1
10
-10.147400
20
313.086000
11
0.191925
21
313.128000
0
LINE
8
Layer 1
10
-100.900000
20
-74.141100
11
-101.559000
21
-74.800000
0
LINE
8
Layer 1
10
-101.559000
20
-74.800000
11
-101.800000
21
-75.700000
0
LINE
8
Layer 1
10
-101.800000
20
-75.700000
11
-101.559000
21
-76.600000
0
LINE
8
Layer 1
10
-101.559000
20
-76.600000
11
-100.900000
21
-77.258800
0
LINE
8
Layer 1
10
-100.900000
20
-77.258800
11
-100.000000
21
-77.500000
0
LINE
8
Layer 1
10
-100.000000
20
-77.500000
11
-99.100000
21
-77.258800
0
LINE
8
Layer 1
10
-99.100000
20
-77.258800
11
-98.441100
21
-76.600000
0
LINE
8
Layer 1
10
-98.441100
20
-76.600000
11
-98.200000
21
-75.700000
0
LINE
8
Layer 1
10
-98.200000
20
-75.700000
11
-98.441100
21
-74.800000
0
LINE
8
Layer 1
10
-98.441100
20
-74.800000
11
-99.100000
21
-74.141100
0
LINE
8
Layer 1
10
-99.100000
20
-74.141100
11
-100.000000
21
-73.900000
0
LINE
8
Layer 1
10
-100.000000
20
-73.900000
11
-100.900000
21
-74.141100
0
LINE
8
Layer 1
10
107.100000
20
-67.941100
11
106.441000
21
-68.600000
0
LINE
8
Layer 1
10
106.441000
20
-68.600000
11
106.200000
21
-69.500000
0
LINE
8
Layer 1
10
106.200000
20
-69.500000
11
106.441000
21
-70.400000
0
LINE
8
Layer 1
10
106.441000
20
-70.400000
11
107.100000
21
-71.058800
0
LINE
8
Layer 1
10
107.100000
20
-71.058800
11
108.000000
21
-71.300000
0
LINE
8
Layer 1
10
108.000000
20
-71.300000
11
108.900000
21
-71.058800
0
LINE
8
Layer 1
10
108.900000
20
-71.058800
11
109.559000
21
-70.400000
0
LINE
8
Layer 1
10
109.559000
20
-70.400000
11
109.800000
21
-69.500000
0
LINE
8
Layer 1
10
109.800000
20
-69.500000
11
109.559000
21
-68.600000
0
LINE
8
Layer 1
10
109.559000
20
-68.600000
11
108.900000
21
-67.941100
0
LINE
8
Layer 1
10
108.900000
20
-67.941100
11
108.000000
21
-67.700000
0
LINE
8
Layer 1
10
108.000000
20
-67.700000
11
107.100000
21
-67.941100
0
LINE
8
Layer 1
10
-39.900000
20
-50.791200
11
-40.558800
21
-51.450000
0
LINE
8
Layer 1
10
-40.558800
20
-51.450000
11
-40.800000
21
-52.350000
0
LINE
8
Layer 1
10
-40.800000
20
-52.350000
11
-40.558800
21
-53.250000
0
LINE
8
Layer 1
10
-40.558800
20
-53.250000
11
-39.900000
21
-53.908800
0
LINE
8
Layer 1
10
-39.900000
20
-53.908800
11
-39.000000
21
-54.150000
0
LINE
8
Layer 1
10
-39.000000
20
-54.150000
11
-38.100000
21
-53.908800
0
LINE
8
Layer 1
10
-38.100000
20
-53.908800
11
-37.441100
21
-53.250000
0
LINE
8
Layer 1
10
-37.441100
20
-53.250000
11
-37.200000
21
-52.350000
0
LINE
8
Layer 1
10
-37.200000
20
-52.350000
11
-37.441100
21
-51.450000
0
LINE
8
Layer 1
10
-37.441100
20
-51.450000
11
-38.100000
21
-50.791200
0
LINE
8
Layer 1
10
-38.100000
20
-50.791200
11
-39.000000
21
-50.550000
0
LINE
8
Layer 1
10
-39.000000
20
-50.550000
11
-39.900000
21
-50.791200
0
LINE
8
Layer 1
10
18.465700
20
-42.571100
11
17.861800
21
-43.175000
0
LINE
8
Layer 1
10
17.861800
20
-43.175000
11
17.640700
21
-44.000000
0
LINE
8
Layer 1
10
17.640700
20
-44.000000
11
17.861800
21
-44.825000
0
LINE
8
Layer 1
10
17.861800
20
-44.825000
11
18.465700
21
-45.428900
0
LINE
8
Layer 1
10
18.465700
20
-45.428900
11
19.290700
21
-45.650000
0
LINE
8
Layer 1
10
19.290700
20
-45.650000
11
20.115700
21
-45.428900
0
LINE
8
Layer 1
10
20.115700
20
-45.428900
11
20.719600
21
-44.825000
0
LINE
8
Layer 1
10
20.719600
20
-44.825000
11
20.940700
21
-44.000000
0
LINE
8
Layer 1
10
20.940700
20
-44.000000
11
20.719600
21
-43.175000
0
LINE
8
Layer 1
10
20.719600
20
-43.175000
11
20.115700
21
-42.571100
0
LINE
8
Layer 1
10
20.115700
20
-42.571100
11
19.290700
21
-42.350000
0
LINE
8
Layer 1
10
19.290700
20
-42.350000
11
18.465700
21
-42.571100
0
LINE
8
Layer 1
10
-20.115700
20
-42.571100
11
-20.719600
21
-43.175000
0
LINE
8
Layer 1
10
-20.719600
20
-43.175000
11
-20.940700
21
-44.000000
0
LINE
8
Layer 1
10
-20.940700
20
-44.000000
11
-20.719600
21
-44.825000
0
LINE
8
Layer 1
10
-20.719600
20
-44.825000
11
-20.115700
21
-45.428900
0
LINE
8
Layer 1
10
-20.115700
20
-45.428900
11
-19.290700
21
-45.650000
0
LINE
8
Layer 1
10
-19.290700
20
-45.650000
11
-18.465700
21
-45.428900
0
LINE
8
Layer 1
10
-18.465700
20
-45.428900
11
-17.861800
21
-44.825000
0
LINE
8
Layer 1
10
-17.861800
20
-44.825000
11
-17.640700
21
-44.000000
0
LINE
8
Layer 1
10
-17.640700
20
-44.000000
11
-17.861800
21
-43.175000
0
LINE
8
Layer 1
10
-17.861800
20
-43.175000
11
-18.465700
21
-42.571100
0
LINE
8
Layer 1
10
-18.465700
20
-42.571100
11
-19.290700
21
-42.350000
0
LINE
8
Layer 1
10
-19.290700
20
-42.350000
11
-20.115700
21
-42.571100
0
LINE
8
Layer 1
10
81.100000
20
-27.941100
11
80.441100
21
-28.600000
0
LINE
8
Layer 1
10
80.441100
20
-28.600000
11
80.200000
21
-29.500000
0
LINE
8
Layer 1
10
80.200000
20
-29.500000
11
80.441100
21
-30.400000
0
LINE
8
Layer 1
10
80.441100
20
-30.400000
11
81.100000
21
-31.058800
0
LINE
8
Layer 1
10
81.100000
20
-31.058800
11
82.000000
21
-31.300000
0
LINE
8
Layer 1
10
82.000000
20
-31.300000
11
82.900000
21
-31.058800
0
LINE
8
Layer 1
10
82.900000
20
-31.058800
11
83.558800
21
-30.400000
0
LINE
8
Layer 1
10
83.558800
20
-30.400000
11
83.800000
21
-29.500000
0
LINE
8
Layer 1
10
83.800000
20
-29.500000
11
83.558800
21
-28.600000
0
LINE
8
Layer 1
10
83.558800
20
-28.600000
11
82.900000
21
-27.941100
0
LINE
8
Layer 1
10
82.900000
20
-27.941100
11
82.000000
21
-27.700000
0
LINE
8
Layer 1
10
82.000000
20
-27.700000
11
81.100000
21
-27.941100
0
LINE
8
Layer 1
10
-132.650000
20
-8.441200
11
-133.309000
21
-9.100040
0
LINE
8
Layer 1
10
-133.309000
20
-9.100040
11
-133.550000
21
-10.000050
0
LINE
8
Layer 1
10
-133.550000
20
-10.000050
11
-133.309000
21
-10.900050
0
LINE
8
Layer 1
10
-133.309000
20
-10.900050
11
-132.650000
21
-11.558850
0
LINE
8
Layer 1
10
-132.650000
20
-11.558850
11
-131.750000
21
-11.800050
0
LINE
8
Layer 1
10
-131.750000
20
-11.800050
11
-130.850000
21
-11.558850
0
LINE
8
Layer 1
10
-130.850000
20
-11.558850
11
-130.191000
21
-10.900050
0
LINE
8
Layer 1
10
-130.191000
20
-10.900050
11
-129.950000
21
-10.000050
0
LINE
8
Layer 1
10
-129.950000
20
-10.000050
11
-130.191000
21
-9.100040
0
LINE
8
Layer 1
10
-130.191000
20
-9.100040
11
-130.850000
21
-8.441200
0
LINE
8
Layer 1
10
-130.850000
20
-8.441200
11
-131.750000
21
-8.200050
0
LINE
8
Layer 1
10
-131.750000
20
-8.200050
11
-132.650000
21
-8.441200
0
LINE
8
Layer 1
10
130.850000
20
-8.441200
11
130.191000
21
-9.100040
0
LINE
8
Layer 1
10
130.191000
20
-9.100040
11
129.950000
21
-10.000000
0
LINE
8
Layer 1
10
129.950000
20
-10.000000
11
130.191000
21
-10.900000
0
LINE
8
Layer 1
10
130.191000
20
-10.900000
11
130.850000
21
-11.558800
0
LINE
8
Layer 1
10
130.850000
20
-11.558800
11
131.750000
21
-11.800000
0
LINE
8
Layer 1
10
131.750000
20
-11.800000
11
132.650000
21
-11.558800
0
LINE
8
Layer 1
10
132.650000
20
-11.558800
11
133.309000
21
-10.900000
0
LINE
8
Layer 1
10
133.309000
20
-10.900000
11
133.550000
21
-10.000000
0
LINE
8
Layer 1
10
133.550000
20
-10.000000
11
133.309000
21
-9.099990
0
LINE
8
Layer 1
10
133.309000
20
-9.099990
11
132.650000
21
-8.441150
0
LINE
8
Layer 1
10
132.650000
20
-8.441150
11
131.750000
21
-8.200000
0
LINE
8
Layer 1
10
131.750000
20
-8.200000
11
130.850000
21
-8.441200
0
LINE
8
Layer 1
10
39.100000
20
-8.241200
11
38.441100
21
-8.900040
0
LINE
8
Layer 1
10
38.441100
20
-8.900040
11
38.200000
21
-9.800040
0
LINE
8
Layer 1
10
38.200000
20
-9.800040
11
38.441100
21
-10.700000
0
LINE
8
Layer 1
10
38.441100
20
-10.700000
11
39.100000
21
-11.358800
0
LINE
8
Layer 1
10
39.100000
20
-11.358800
11
40.000000
21
-11.600000
0
LINE
8
Layer 1
10
40.000000
20
-11.600000
11
40.900000
21
-11.358800
0
LINE
8
Layer 1
10
40.900000
20
-11.358800
11
41.558800
21
-10.700000
0
LINE
8
Layer 1
10
41.558800
20
-10.700000
11
41.800000
21
-9.799990
0
LINE
8
Layer 1
10
41.800000
20
-9.799990
11
41.558800
21
-8.899990
0
LINE
8
Layer 1
10
41.558800
20
-8.899990
11
40.900000
21
-8.241150
0
LINE
8
Layer 1
10
40.900000
20
-8.241150
11
40.000000
21
-8.000000
0
LINE
8
Layer 1
10
40.000000
20
-8.000000
11
39.100000
21
-8.241200
0
LINE
8
Layer 1
10
-110.100000
20
66.558800
11
-110.759000
21
65.900000
0
LINE
8
Layer 1
10
-110.759000
20
65.900000
11
-111.000000
21
65.000000
0
LINE
8
Layer 1
10
-111.000000
20
65.000000
11
-110.759000
21
64.100000
0
LINE
8
Layer 1
10
-110.759000
20
64.100000
11
-110.100000
21
63.441100
0
LINE
8
Layer 1
10
-110.100000
20
63.441100
11
-109.200000
21
63.200000
0
LINE
8
Layer 1
10
-109.200000
20
63.200000
11
-108.300000
21
63.441100
0
LINE
8
Layer 1
10
-108.300000
20
63.441100
11
-107.641000
21
64.100000
0
LINE
8
Layer 1
10
-107.641000
20
64.100000
11
-107.400000
21
65.000000
0
LINE
8
Layer 1
10
-107.400000
20
65.000000
11
-107.641000
21
65.900000
0
LINE
8
Layer 1
10
-107.641000
20
65.900000
11
-108.300000
21
66.558800
0
LINE
8
Layer 1
10
-108.300000
20
66.558800
11
-109.200000
21
66.800000
0
LINE
8
Layer 1
10
-109.200000
20
66.800000
11
-110.100000
21
66.558800
0
LINE
8
Layer 1
10
108.300000
20
66.558800
11
107.641000
21
65.900000
0
LINE
8
Layer 1
10
107.641000
20
65.900000
11
107.400000
21
65.000000
0
LINE
8
Layer 1
10
107.400000
20
65.000000
11
107.641000
21
64.100000
0
LINE
8
Layer 1
10
107.641000
20
64.100000
11
108.300000
21
63.441100
0
LINE
8
Layer 1
10
108.300000
20
63.441100
11
109.200000
21
63.200000
0
LINE
8
Layer 1
10
109.200000
20
63.200000
11
110.100000
21
63.441100
0
LINE
8
Layer 1
10
110.100000
20
63.441100
11
110.759000
21
64.100000
0
LINE
8
Layer 1
10
110.759000
20
64.100000
11
111.000000
21
65.000000
0
LINE
8
Layer 1
10
111.000000
20
65.000000
11
110.759000
21
65.900000
0
LINE
8
Layer 1
10
110.759000
20
65.900000
11
110.100000
21
66.558800
0
LINE
8
Layer 1
10
110.100000
20
66.558800
11
109.200000
21
66.800000
0
LINE
8
Layer 1
10
109.200000
20
66.800000
11
108.300000
21
66.558800
0
LINE
8
Layer 1
10
-136.900000
20
139.559000
11
-137.559000
21
138.900000
0
LINE
8
Layer 1
10
-137.559000
20
138.900000
11
-137.800000
21
138.000000
0
LINE
8
Layer 1
10
-137.800000
20
138.000000
11
-137.559000
21
137.100000
0
LINE
8
Layer 1
10
-137.559000
20
137.100000
11
-136.900000
21
136.441000
0
LINE
8
Layer 1
10
-136.900000
20
136.441000
11
-136.000000
21
136.200000
0
LINE
8
Layer 1
10
-136.000000
20
136.200000
11
-135.100000
21
136.441000
0
LINE
8
Layer 1
10
-135.100000
20
136.441000
11
-134.441000
21
137.100000
0
LINE
8
Layer 1
10
-134.441000
20
137.100000
11
-134.200000
21
138.000000
0
LINE
8
Layer 1
10
-134.200000
20
138.000000
11
-134.441000
21
138.900000
0
LINE
8
Layer 1
10
-134.441000
20
138.900000
11
-135.100000
21
139.559000
0
LINE
8
Layer 1
10
-135.100000
20
139.559000
11
-136.000000
21
139.800000
0
LINE
8
Layer 1
10
-136.000000
20
139.800000
11
-136.900000
21
139.559000
0
LINE
8
Layer 1
10
135.100000
20
139.559000
11
134.441000
21
138.900000
0
LINE
8
Layer 1
10
134.441000
20
138.900000
11
134.200000
21
138.000000
0
LINE
8
Layer 1
10
134.200000
20
138.000000
11
134.441000
21
137.100000
0
LINE
8
Layer 1
10
134.441000
20
137.100000
11
135.100000
21
136.441000
0
LINE
8
Layer 1
10
135.100000
20
136.441000
11
136.000000
21
136.200000
0
LINE
8
Layer 1
10
136.000000
20
136.200000
11
136.900000
21
136.441000
0
LINE
8
Layer 1
10
136.900000
20
136.441000
11
137.559000
21
137.100000
0
LINE
8
Layer 1
10
137.559000
20
137.100000
11
137.800000
21
138.000000
0
LINE
8
Layer 1
10
137.800000
20
138.000000
11
137.559000
21
138.900000
0
LINE
8
Layer 1
10
137.559000
20
138.900000
11
136.900000
21
139.559000
0
LINE
8
Layer 1
10
136.900000
20
139.559000
11
136.000000
21
139.800000
0
LINE
8
Layer 1
10
136.000000
20
139.800000
11
135.100000
21
139.559000
0
LINE
8
Layer 1
10
153.900000
20
218.559000
11
153.241000
21
217.900000
0
LINE
8
Layer 1
10
153.241000
20
217.900000
11
153.000000
21
217.000000
0
LINE
8
Layer 1
10
153.000000
20
217.000000
11
153.241000
21
216.100000
0
LINE
8
Layer 1
10
153.241000
20
216.100000
11
153.900000
21
215.441000
0
LINE
8
Layer 1
10
153.900000
20
215.441000
11
154.800000
21
215.200000
0
LINE
8
Layer 1
10
154.800000
20
215.200000
11
155.700000
21
215.441000
0
LINE
8
Layer 1
10
155.700000
20
215.441000
11
156.359000
21
216.100000
0
LINE
8
Layer 1
10
156.359000
20
216.100000
11
156.600000
21
217.000000
0
LINE
8
Layer 1
10
156.600000
20
217.000000
11
156.359000
21
217.900000
0
LINE
8
Layer 1
10
156.359000
20
217.900000
11
155.700000
21
218.559000
0
LINE
8
Layer 1
10
155.700000
20
218.559000
11
154.800000
21
218.800000
0
LINE
8
Layer 1
10
154.800000
20
218.800000
11
153.900000
21
218.559000
0
LINE
8
Layer 1
10
-155.700000
20
218.559000
11
-156.359000
21
217.900000
0
LINE
8
Layer 1
10
-156.359000
20
217.900000
11
-156.600000
21
217.000000
0
LINE
8
Layer 1
10
-156.600000
20
217.000000
11
-156.359000
21
216.100000
0
LINE
8
Layer 1
10
-156.359000
20
216.100000
11
-155.700000
21
215.441000
0
LINE
8
Layer 1
10
-155.700000
20
215.441000
11
-154.800000
21
215.200000
0
LINE
8
Layer 1
10
-154.800000
20
215.200000
11
-153.900000
21
215.441000
0
LINE
8
Layer 1
10
-153.900000
20
215.441000
11
-153.241000
21
216.100000
0
LINE
8
Layer 1
10
-153.241000
20
216.100000
11
-153.000000
21
217.000000
0
LINE
8
Layer 1
10
-153.000000
20
217.000000
11
-153.241000
21
217.900000
0
LINE
8
Layer 1
10
-153.241000
20
217.900000
11
-153.900000
21
218.559000
0
LINE
8
Layer 1
10
-153.900000
20
218.559000
11
-154.800000
21
218.800000
0
LINE
8
Layer 1
10
-154.800000
20
218.800000
11
-155.700000
21
218.559000
0
LINE
8
Layer 1
10
-114.900000
20
290.559000
11
-115.559000
21
289.900000
0
LINE
8
Layer 1
10
-115.559000
20
289.900000
11
-115.800000
21
289.000000
0
LINE
8
Layer 1
10
-115.800000
20
289.000000
11
-115.559000
21
288.100000
0
LINE
8
Layer 1
10
-115.559000
20
288.100000
11
-114.900000
21
287.441000
0
LINE
8
Layer 1
10
-114.900000
20
287.441000
11
-114.000000
21
287.200000
0
LINE
8
Layer 1
10
-114.000000
20
287.200000
11
-113.100000
21
287.441000
0
LINE
8
Layer 1
10
-113.100000
20
287.441000
11
-112.441000
21
288.100000
0
LINE
8
Layer 1
10
-112.441000
20
288.100000
11
-112.200000
21
289.000000
0
LINE
8
Layer 1
10
-112.200000
20
289.000000
11
-112.441000
21
289.900000
0
LINE
8
Layer 1
10
-112.441000
20
289.900000
11
-113.100000
21
290.559000
0
LINE
8
Layer 1
10
-113.100000
20
290.559000
11
-114.000000
21
290.800000
0
LINE
8
Layer 1
10
-114.000000
20
290.800000
11
-114.900000
21
290.559000
0
LINE
8
Layer 1
10
113.100000
20
290.559000
11
112.441000
21
289.900000
0
LINE
8
Layer 1
10
112.441000
20
289.900000
11
112.200000
21
289.000000
0
LINE
8
Layer 1
10
112.200000
20
289.000000
11
112.441000
21
288.100000
0
LINE
8
Layer 1
10
112.441000
20
288.100000
11
113.100000
21
287.441000
0
LINE
8
Layer 1
10
113.100000
20
287.441000
11
114.000000
21
287.200000
0
LINE
8
Layer 1
10
114.000000
20
287.200000
11
114.900000
21
287.441000
0
LINE
8
Layer 1
10
114.900000
20
287.441000
11
115.559000
21
288.100000
0
LINE
8
Layer 1
10
115.559000
20
288.100000
11
115.800000
21
289.000000
0
LINE
8
Layer 1
10
115.800000
20
289.000000
11
115.559000
21
289.900000
0
LINE
8
Layer 1
10
115.559000
20
289.900000
11
114.900000
21
290.559000
0
LINE
8
Layer 1
10
114.900000
20
290.559000
11
114.000000
21
290.800000
0
LINE
8
Layer 1
10
114.000000
20
290.800000
11
113.100000
21
290.559000
0
LINE
8
Layer 1
10
-40.900000
20
308.059000
11
-41.558800
21
307.400000
0
LINE
8
Layer 1
10
-41.558800
20
307.400000
11
-41.800000
21
306.500000
0
LINE
8
Layer 1
10
-41.800000
20
306.500000
11
-41.558800
21
305.600000
0
LINE
8
Layer 1
10
-41.558800
20
305.600000
11
-40.900000
21
304.941000
0
LINE
8
Layer 1
10
-40.900000
20
304.941000
11
-40.000000
21
304.700000
0
LINE
8
Layer 1
10
-40.000000
20
304.700000
11
-39.100000
21
304.941000
0
LINE
8
Layer 1
10
-39.100000
20
304.941000
11
-38.441100
21
305.600000
0
LINE
8
Layer 1
10
-38.441100
20
305.600000
11
-38.200000
21
306.500000
0
LINE
8
Layer 1
10
-38.200000
20
306.500000
11
-38.441100
21
307.400000
0
LINE
8
Layer 1
10
-38.441100
20
307.400000
11
-39.100000
21
308.059000
0
LINE
8
Layer 1
10
-39.100000
20
308.059000
11
-40.000000
21
308.300000
0
LINE
8
Layer 1
10
-40.000000
20
308.300000
11
-40.900000
21
308.059000
0
LINE
8
Layer 1
10
39.100000
20
308.059000
11
38.441100
21
307.400000
0
LINE
8
Layer 1
10
38.441100
20
307.400000
11
38.200000
21
306.500000
0
LINE
8
Layer 1
10
38.200000
20
306.500000
11
38.441100
21
305.600000
0
LINE
8
Layer 1
10
38.441100
20
305.600000
11
39.100000
21
304.941000
0
LINE
8
Layer 1
10
39.100000
20
304.941000
11
40.000000
21
304.700000
0
LINE
8
Layer 1
10
40.000000
20
304.700000
11
40.900000
21
304.941000
0
LINE
8
Layer 1
10
40.900000
20
304.941000
11
41.558800
21
305.600000
0
LINE
8
Layer 1
10
41.558800
20
305.600000
11
41.800000
21
306.500000
0
LINE
8
Layer 1
10
41.800000
20
306.500000
11
41.558800
21
307.400000
0
LINE
8
Layer 1
10
41.558800
20
307.400000
11
40.900000
21
308.059000
0
LINE
8
Layer 1
10
40.900000
20
308.059000
11
40.000000
21
308.300000
0
LINE
8
Layer 1
10
40.000000
20
308.300000
11
39.100000
21
308.059000
 0 
ENDSEC
 0 
EOF