M48
; DRILL file {KiCad 6.0.0} date Fr 31 Dez 2021 10:19:32 CET
; FORMAT={-:-/ absolute / inch / decimal}
; #@! TF.CreationDate,2021-12-31T10:19:32+01:00
; #@! TF.GenerationSoftware,Kicad,Pcbnew,6.0.0
; #@! TF.FileFunction,Plated,1,2,PTH
FMAT,2
INCH
; #@! TA.AperFunction,Plated,PTH,ComponentDrill
T1C0.0295
; #@! TA.AperFunction,Plated,PTH,ViaDrill
T2C0.0315
; #@! TA.AperFunction,Plated,PTH,ComponentDrill
T3C0.0394
%
G90
G05
T1
X0.1611Y0.6146
X0.2111Y0.6646
X0.2611Y0.6146
X0.4111Y0.6146
X0.4611Y0.6646
X0.5111Y0.6146
X0.6611Y0.6146
X0.7111Y0.6646
X0.7611Y0.6146
X0.9111Y0.6146
X0.9611Y0.6646
X1.0111Y0.6146
X1.1609Y0.6146
X1.2109Y0.6646
X1.2609Y0.6146
X1.4111Y0.6146
X1.4611Y0.6646
X1.5111Y0.6146
T2
X0.3261Y0.1537
X0.5761Y0.1537
X0.8261Y0.1537
X1.0761Y0.1537
X1.3261Y0.1537
X1.7361Y0.1787
X3.0311Y0.1437
X3.0961Y0.2387
T3
X0.1611Y0.3037
X0.2611Y0.3037
X0.4113Y0.3037
X0.5113Y0.3037
X0.6611Y0.3037
X0.7611Y0.3037
X0.9113Y0.3037
X1.0113Y0.3037
X1.1611Y0.3037
X1.2611Y0.3037
X1.4111Y0.3037
X1.5111Y0.3037
X1.7326Y0.5793
X1.7326Y0.3037
X2.953Y0.5793
X2.953Y0.3037
X3.2111Y0.8281
X3.2111Y0.7281
X3.2111Y0.6281
X3.2111Y0.5281
X3.2111Y0.4281
X3.2111Y0.3281
X3.2111Y0.2281
X3.2111Y0.1281
T0
M30
