%TF.GenerationSoftware,KiCad,Pcbnew,6.0.0*%
%TF.CreationDate,2021-12-31T10:41:15+01:00*%
%TF.ProjectId,hexPiezoPre,68657850-6965-47a6-9f50-72652e6b6963,rev?*%
%TF.SameCoordinates,PX4fa1be0PY8caabe0*%
%TF.FileFunction,Copper,L2,Bot*%
%TF.FilePolarity,Positive*%
%FSLAX46Y46*%
G04 Gerber Fmt 4.6, Leading zero omitted, Abs format (unit mm)*
G04 Created by KiCad (PCBNEW 6.0.0) date 2021-12-31 10:41:15*
%MOMM*%
%LPD*%
G01*
G04 APERTURE LIST*
G04 Aperture macros list*
%AMRoundRect*
0 Rectangle with rounded corners*
0 $1 Rounding radius*
0 $2 $3 $4 $5 $6 $7 $8 $9 X,Y pos of 4 corners*
0 Add a 4 corners polygon primitive as box body*
4,1,4,$2,$3,$4,$5,$6,$7,$8,$9,$2,$3,0*
0 Add four circle primitives for the rounded corners*
1,1,$1+$1,$2,$3*
1,1,$1+$1,$4,$5*
1,1,$1+$1,$6,$7*
1,1,$1+$1,$8,$9*
0 Add four rect primitives between the rounded corners*
20,1,$1+$1,$2,$3,$4,$5,0*
20,1,$1+$1,$4,$5,$6,$7,0*
20,1,$1+$1,$6,$7,$8,$9,0*
20,1,$1+$1,$8,$9,$2,$3,0*%
G04 Aperture macros list end*
%TA.AperFunction,ComponentPad*%
%ADD10C,1.300000*%
%TD*%
%TA.AperFunction,ComponentPad*%
%ADD11R,1.700000X1.700000*%
%TD*%
%TA.AperFunction,ComponentPad*%
%ADD12O,1.700000X1.700000*%
%TD*%
%TA.AperFunction,ComponentPad*%
%ADD13RoundRect,0.625000X-0.875000X0.625000X-0.875000X-0.625000X0.875000X-0.625000X0.875000X0.625000X0*%
%TD*%
%TA.AperFunction,ViaPad*%
%ADD14C,2.000000*%
%TD*%
%TA.AperFunction,Conductor*%
%ADD15C,0.500000*%
%TD*%
G04 APERTURE END LIST*
D10*
%TO.P,Q6,1,D*%
%TO.N,Net-(C17-Pad1)*%
X35842229Y15610000D03*
%TO.P,Q6,2,S*%
%TO.N,Net-(Q6-Pad2)*%
X37112229Y16880000D03*
%TO.P,Q6,3,G*%
%TO.N,/preIn_6sig*%
X38382229Y15610000D03*
%TD*%
%TO.P,Q5,1,D*%
%TO.N,Net-(C13-Pad1)*%
X29487229Y15610000D03*
%TO.P,Q5,2,S*%
%TO.N,Net-(Q5-Pad2)*%
X30757229Y16880000D03*
%TO.P,Q5,3,G*%
%TO.N,/preIn_5sig*%
X32027229Y15610000D03*
%TD*%
%TO.P,Q4,1,D*%
%TO.N,Net-(C12-Pad1)*%
X23142229Y15610000D03*
%TO.P,Q4,2,S*%
%TO.N,Net-(Q4-Pad2)*%
X24412229Y16880000D03*
%TO.P,Q4,3,G*%
%TO.N,/preIn_4sig*%
X25682229Y15610000D03*
%TD*%
%TO.P,Q3,1,D*%
%TO.N,Net-(C11-Pad1)*%
X16792229Y15610000D03*
%TO.P,Q3,2,S*%
%TO.N,Net-(Q3-Pad2)*%
X18062229Y16880000D03*
%TO.P,Q3,3,G*%
%TO.N,/preIn_3sig*%
X19332229Y15610000D03*
%TD*%
%TO.P,Q2,1,D*%
%TO.N,Net-(C5-Pad1)*%
X10442229Y15610000D03*
%TO.P,Q2,2,S*%
%TO.N,Net-(Q2-Pad2)*%
X11712229Y16880000D03*
%TO.P,Q2,3,G*%
%TO.N,/preIn_2sig*%
X12982229Y15610000D03*
%TD*%
%TO.P,Q1,1,D*%
%TO.N,Net-(C1-Pad1)*%
X4092229Y15610000D03*
%TO.P,Q1,2,S*%
%TO.N,Net-(Q1-Pad2)*%
X5362229Y16880000D03*
%TO.P,Q1,3,G*%
%TO.N,/preIn_1sig*%
X6632229Y15610000D03*
%TD*%
D11*
%TO.P,J8,1,Pin_1*%
%TO.N,GNDA*%
X25687229Y7715000D03*
D12*
%TO.P,J8,2,Pin_2*%
%TO.N,/preIn_4sig*%
X23147229Y7715000D03*
%TD*%
D11*
%TO.P,J7,1,Pin_1*%
%TO.N,GNDA*%
X19332229Y7715000D03*
D12*
%TO.P,J7,2,Pin_2*%
%TO.N,/preIn_3sig*%
X16792229Y7715000D03*
%TD*%
D11*
%TO.P,J10,1,Pin_1*%
%TO.N,GNDA*%
X38382229Y7715000D03*
D12*
%TO.P,J10,2,Pin_2*%
%TO.N,/preIn_6sig*%
X35842229Y7715000D03*
%TD*%
D11*
%TO.P,J9,1,Pin_1*%
%TO.N,GNDA*%
X32032229Y7715000D03*
D12*
%TO.P,J9,2,Pin_2*%
%TO.N,/preIn_5sig*%
X29492229Y7715000D03*
%TD*%
D11*
%TO.P,J6,1,Pin_1*%
%TO.N,GNDA*%
X12987229Y7715000D03*
D12*
%TO.P,J6,2,Pin_2*%
%TO.N,/preIn_2sig*%
X10447229Y7715000D03*
%TD*%
D11*
%TO.P,J2,1,Pin_1*%
%TO.N,GNDA*%
X6632229Y7715000D03*
D12*
%TO.P,J2,2,Pin_2*%
%TO.N,/preIn_1sig*%
X4092229Y7715000D03*
%TD*%
D11*
%TO.P,J1,1,Pin_1*%
%TO.N,/preOut_1sig*%
X81562229Y21035000D03*
D12*
%TO.P,J1,2,Pin_2*%
%TO.N,/preOut_2sig*%
X81562229Y18495000D03*
%TO.P,J1,3,Pin_3*%
%TO.N,/preOut_3sig*%
X81562229Y15955000D03*
%TO.P,J1,4,Pin_4*%
%TO.N,/preOut_4sig*%
X81562229Y13415000D03*
%TO.P,J1,5,Pin_5*%
%TO.N,/preOut_5sig*%
X81562229Y10875000D03*
%TO.P,J1,6,Pin_6*%
%TO.N,/preOut_6sig*%
X81562229Y8335000D03*
%TO.P,J1,7,Pin_7*%
%TO.N,/Vin*%
X81562229Y5795000D03*
%TO.P,J1,8,Pin_8*%
%TO.N,GNDA*%
X81562229Y3255000D03*
%TD*%
D13*
%TO.P,PS1,1,-Vin*%
%TO.N,GNDA*%
X75007229Y7715000D03*
%TO.P,PS1,2,+Vin*%
%TO.N,/Vin*%
X75007229Y14715000D03*
%TO.P,PS1,3,-Vout*%
%TO.N,GNDA*%
X44007229Y7715000D03*
%TO.P,PS1,4,+Vout*%
%TO.N,Net-(C3-Pad1)*%
X44007229Y14715000D03*
%TD*%
D14*
%TO.N,GNDA*%
X76990229Y3651000D03*
X8283229Y3905000D03*
X20983229Y3905000D03*
X14633229Y3905000D03*
X27333229Y3905000D03*
X33683229Y3905000D03*
X44097229Y4540000D03*
%TO.N,/Vin*%
X78641229Y6064000D03*
%TD*%
D15*
%TO.N,GNDA*%
X44986229Y3651000D02*
X44097229Y4540000D01*
X76990229Y3651000D02*
X44986229Y3651000D01*
X27333229Y3905000D02*
X20983229Y3905000D01*
X33683229Y3905000D02*
X27333229Y3905000D01*
X34318229Y4540000D02*
X33683229Y3905000D01*
X14633229Y3905000D02*
X8283229Y3905000D01*
X44097229Y4540000D02*
X34318229Y4540000D01*
X20983229Y3905000D02*
X14633229Y3905000D01*
%TO.N,/Vin*%
X78641229Y11081000D02*
X75007229Y14715000D01*
X78641229Y6064000D02*
X78641229Y11081000D01*
%TD*%
M02*
